<svg id="Layer_1" data-name="Layer 1" xmlns="http://www.w3.org/2000/svg" viewBox="0 0 1366 767"><defs><style>.cls-1{fill:#fff;}.cls-2{fill:#5f5e5e;}</style></defs><title>0</title><rect class="cls-1" width="1366" height="767"/><g id="Z2R9di"><path d="M668.09,490.52c.27,11.12-1.79,21.75-7.52,31.4-7.85,13.24-19.58,20.44-35,21.38-28,1.71-47.62-15.14-50.68-43.06-1.3-11.81-.49-23.3,3.86-34.39,11.53-29.34,42.16-33.38,62.35-24.33,18.2,8.16,24.85,23.83,26.9,42.31A59.68,59.68,0,0,1,668.09,490.52Zm-9.62-2.76a50.94,50.94,0,0,0-6-24c-12.44-23-46.59-24.66-60.37-2.49-11,17.61-10.69,36.6-2.22,55.16,5.51,12.09,15.87,18,29.12,18.61,14.17.7,25.48-4.38,32.86-16.84C657,509.61,658.47,500.1,658.47,487.76Z" transform="translate(0.07 0)"/><path class="cls-2" d="M744.93,208c-21.28.92-41.9-12.5-46.09-41.78-1.73-12.11-.84-24,3.7-35.41,8.19-20.68,27.06-29.87,47.86-27.87,22.07,2.12,37.68,18.75,40.5,43.35a73.33,73.33,0,0,1-2.29,29C782.67,195.93,765.24,209.08,744.93,208Zm-37.66-50.55c.19,2,.32,5.71.93,9.36,1.72,10.28,5.54,19.6,14,26.21,16.26,12.65,47.73,10.84,57-18a64.7,64.7,0,0,0,2.21-30.45c-3.06-18.88-13.82-32-32-33.82-13.64-1.36-25.25,2.5-33.55,14C709.17,134,707.43,144.59,707.27,157.41Z" transform="translate(0.07 0)"/><path d="M617.48,272.59h61.37c5.56,0,5.56,0,5.49,5.65,0,.74-.07,1.48-.13,2.66h-57v35.86h51.15v8.67H627.21v39.41h58.18v8.3H617.48Z" transform="translate(0.07 0)"/><path d="M549.05,148.09h59.07V105.45h9.81V205.71h-9.61V156.88H549.17v48.83h-9.71V105.39h9.59Z" transform="translate(0.07 0)"/><path class="cls-2" d="M726.6,328.58v-7.83h4.16c14.64,0,29.28-.08,43.93.06,3,0,3.81-.94,3.78-3.82q-.21-16.2,0-32.39c0-2.89-.79-3.83-3.78-3.8-16.87.13-33.75.06-50.63.06h-4.21v-7.63h67.73v99.69H721.32v-7.41c1.44-.08,2.87-.21,4.3-.21,16.14,0,32.27-.09,48.4.05,3.36,0,4.55-.88,4.47-4.39-.22-9.55-.18-19.11,0-28.66,0-3-1-3.8-3.87-3.77-14.4.12-28.79.05-43.19.05Z" transform="translate(0.07 0)"/><path class="cls-2" d="M826.53,440.34v4.31q0,45.77,0,91.54c0,1.33-.51,3.74-1,3.8a29.8,29.8,0,0,1-7.66-.19c-.32,0-.54-2-.55-3q0-17.31,0-34.61v-4.27c-1.41-.12-2.48-.28-3.55-.28-17.49,0-35,.07-52.47-.09-3.26,0-3.89,1.18-3.86,4.11.13,11.65-.06,23.32.12,35,0,3.29-1.25,4-4.16,3.88-2.67-.14-5.06.31-5-3.85q.21-46.32,0-92.65c0-3.91,2.24-3.6,4.81-3.65s4.44,0,4.39,3.61c-.19,13.89,0,27.78-.13,41.67,0,3,.85,4.13,4,4.1q26-.18,52.09,0c3.27,0,3.88-1.25,3.85-4.16-.12-13.52.11-27-.15-40.56-.08-3.88,1.1-5.16,4.77-4.67A40.56,40.56,0,0,0,826.53,440.34Z" transform="translate(0.07 0)"/><path d="M510.37,532.42h48.82c5.33,0,5.34,0,5.26,5.5,0,.85-.07,1.7-.13,2.8H500.83V440.29h9.54Z" transform="translate(0.07 0)"/><path class="cls-2" d="M802.4,113.51v-7.8H865v99.65h-9V113.51Z" transform="translate(0.07 0)"/><path d="M643.74,205.68V105.32h9.32V205.68Z" transform="translate(0.07 0)"/><path class="cls-2" d="M722.09,440.61c.07,1.54.17,2.75.17,4q0,45.74,0,91.48c0,1.36-.4,3.82-.89,3.89a28.16,28.16,0,0,1-7.67-.07c-.37,0-.66-2.18-.66-3.34q-.06-32.35,0-64.71c0-9.05.15-18.1-.08-27.14-.09-3.39.87-4.82,4.31-4.36C718.76,440.52,720.34,440.51,722.09,440.61Z" transform="translate(0.07 0)"/></g><path d="M581.13,637.5l-.08.4a7.48,7.48,0,0,0-.16,2.83c.15.54.65.81,1.51.81a2.1,2.1,0,0,0,1.88-.89,5.37,5.37,0,0,0,.63-1.78l2.58-12.12h3.62l-2.57,12.06a8.14,8.14,0,0,1-1.51,3.5,6.2,6.2,0,0,1-5.12,2.18c-2.25,0-3.63-.59-4.15-1.76a8.05,8.05,0,0,1-.13-4.83l.08-.4Z" transform="translate(0.07 0)"/><path d="M596.39,644.52q-3.3,0-4.49-2a6.46,6.46,0,0,1-.59-4.82,9.3,9.3,0,0,1,2.64-4.8,7.28,7.28,0,0,1,5.36-2q3.3,0,4.48,2a6.44,6.44,0,0,1,.6,4.8,9.25,9.25,0,0,1-2.65,4.82A7.3,7.3,0,0,1,596.39,644.52Zm4.49-6.83a4.33,4.33,0,0,0-.16-3,2.13,2.13,0,0,0-2-1,3.35,3.35,0,0,0-2.48,1,6.08,6.08,0,0,0-1.42,3,4.37,4.37,0,0,0,.16,3,2.12,2.12,0,0,0,2,1.05,3.3,3.3,0,0,0,2.48-1.05A5.91,5.91,0,0,0,600.88,637.69Z" transform="translate(0.07 0)"/><path d="M608.91,640a1.83,1.83,0,0,0,.2,1.27c.31.45,1,.67,2.15.67a4.06,4.06,0,0,0,1.63-.29,1.24,1.24,0,0,0,.77-.88.77.77,0,0,0-.29-.86,15.94,15.94,0,0,0-3.28-1,5.67,5.67,0,0,1-2.77-1.35,2.47,2.47,0,0,1-.4-2.31,5.16,5.16,0,0,1,2-3.05,6.68,6.68,0,0,1,4.19-1.27,6.17,6.17,0,0,1,3.7,1c.87.64,1.21,1.74,1,3.3h-3.35a1.75,1.75,0,0,0-.15-1,1.88,1.88,0,0,0-1.74-.68,3.07,3.07,0,0,0-1.63.34,1.3,1.3,0,0,0-.62.8.69.69,0,0,0,.31.83,17.3,17.3,0,0,0,3.29.93,5.06,5.06,0,0,1,2.69,1.42,2.73,2.73,0,0,1,.49,2.41,5.08,5.08,0,0,1-2.08,3.11,7.84,7.84,0,0,1-4.63,1.21c-2,0-3.41-.43-4.19-1.28a3.49,3.49,0,0,1-.76-3.25Z" transform="translate(0.07 0)"/><path d="M631.12,633.41a5.36,5.36,0,0,1,.41,2.65,16.31,16.31,0,0,1-.42,2.54h-8.76a2.64,2.64,0,0,0,.63,2.7,2.38,2.38,0,0,0,1.56.48,2.91,2.91,0,0,0,1.81-.59,3.68,3.68,0,0,0,.81-.88h3.42a5.68,5.68,0,0,1-1.68,2.32,7.16,7.16,0,0,1-5,1.86,5.3,5.3,0,0,1-4-1.57q-1.53-1.57-.78-5.12a8.87,8.87,0,0,1,2.77-5.1,7,7,0,0,1,4.75-1.78,5.9,5.9,0,0,1,2.75.6A3.69,3.69,0,0,1,631.12,633.41Zm-8.22,3h5.2a2.43,2.43,0,0,0-.38-2,2,2,0,0,0-1.65-.69,2.83,2.83,0,0,0-2,.73A4.76,4.76,0,0,0,622.9,636.39ZM632,626l-4.33,3.52H625.2l3-3.52Z" transform="translate(0.07 0)"/><path d="M654.32,626.75h5.2l-3.68,17.32h-3.37L655,632.36c.08-.34.19-.81.32-1.42s.24-1.07.3-1.4l-6.35,14.53H645.7l-.17-14.53c-.07.33-.16.79-.28,1.4s-.22,1.08-.3,1.42l-2.48,11.71H639.1l3.68-17.32H648l.25,13.62Z" transform="translate(0.07 0)"/><path d="M665.61,636.28A6.47,6.47,0,0,0,667,636a1.34,1.34,0,0,0,.92-1c.11-.53,0-.89-.32-1.09a3,3,0,0,0-1.54-.3,2.52,2.52,0,0,0-1.81.59,3.47,3.47,0,0,0-.71,1.17h-3.23a6.28,6.28,0,0,1,1.52-2.76,6.67,6.67,0,0,1,4.93-1.69,7.13,7.13,0,0,1,3.56.83q1.45.84,1,3.15L670,640.82c-.08.4-.18.9-.28,1.48a1.66,1.66,0,0,0,0,.89.84.84,0,0,0,.4.39l-.09.49h-3.64a3.13,3.13,0,0,1-.06-.73c0-.23,0-.48.07-.77a10,10,0,0,1-1.87,1.28,5.67,5.67,0,0,1-2.58.62,3.49,3.49,0,0,1-2.67-1,3,3,0,0,1-.53-2.82,4.8,4.8,0,0,1,2.55-3.42,9.68,9.68,0,0,1,3.11-.82Zm1.7,1.56a4.51,4.51,0,0,1-.71.33,6.14,6.14,0,0,1-.94.23l-.77.14a5.59,5.59,0,0,0-1.62.45,2,2,0,0,0-1.07,1.43,1.27,1.27,0,0,0,.2,1.24,1.53,1.53,0,0,0,1.08.38,4,4,0,0,0,2.13-.64,3.5,3.5,0,0,0,1.44-2.31Z" transform="translate(0.07 0)"/><path d="M682.49,631l-.73,3.43c-.2,0-.39,0-.55,0l-.4,0a3.48,3.48,0,0,0-3,1.32,6.08,6.08,0,0,0-.87,2.28l-1.29,6.12h-3.37L675,631.26h3.2l-.47,2.24a9.78,9.78,0,0,1,1.71-1.75,4.41,4.41,0,0,1,2.62-.79h.16Z" transform="translate(0.07 0)"/><path d="M684.44,631.26h3.4l-2.72,12.81h-3.39Zm6.88-5.24L687,629.54h-2.42l3-3.52Z" transform="translate(0.07 0)"/><path d="M695,636.28a6.6,6.6,0,0,0,1.4-.29,1.35,1.35,0,0,0,.91-1c.11-.53,0-.89-.32-1.09a3,3,0,0,0-1.53-.3,2.48,2.48,0,0,0-1.81.59,3.33,3.33,0,0,0-.72,1.17h-3.23a6.2,6.2,0,0,1,1.53-2.76,6.63,6.63,0,0,1,4.92-1.69,7.13,7.13,0,0,1,3.56.83q1.46.84,1,3.15l-1.26,5.88c-.08.4-.18.9-.28,1.48a1.66,1.66,0,0,0,0,.89.84.84,0,0,0,.4.39l-.09.49h-3.64a3.13,3.13,0,0,1-.06-.73c0-.23,0-.48.07-.77a10,10,0,0,1-1.87,1.28,5.64,5.64,0,0,1-2.58.62,3.45,3.45,0,0,1-2.66-1,3,3,0,0,1-.54-2.82,4.8,4.8,0,0,1,2.55-3.42,9.68,9.68,0,0,1,3.11-.82Zm1.7,1.56a4.42,4.42,0,0,1-.7.33,6.81,6.81,0,0,1-.94.23l-.78.14a5.59,5.59,0,0,0-1.62.45,2,2,0,0,0-1.07,1.43,1.24,1.24,0,0,0,.21,1.24,1.49,1.49,0,0,0,1.07.38,4,4,0,0,0,2.13-.64,3.47,3.47,0,0,0,1.44-2.31Z" transform="translate(0.07 0)"/><path d="M716.46,626.75h4.08L723,644.07h-3.92l-.37-3.56h-6.38l-2,3.56H706.6Zm-2.52,10.78h4.4l-.72-6.82Z" transform="translate(0.07 0)"/><path d="M735.1,631l-.73,3.43c-.2,0-.38,0-.55,0l-.4,0a3.45,3.45,0,0,0-3,1.32,5.92,5.92,0,0,0-.87,2.28l-1.3,6.12h-3.37l2.72-12.81h3.19l-.47,2.24a9.43,9.43,0,0,1,1.72-1.75,4.37,4.37,0,0,1,2.62-.79h.16Z" transform="translate(0.07 0)"/><path d="M744.47,631l-.73,3.43c-.21,0-.39,0-.56,0l-.4,0a3.48,3.48,0,0,0-3,1.32,6.08,6.08,0,0,0-.87,2.28l-1.29,6.12h-3.37L737,631.26h3.19l-.47,2.24a9.43,9.43,0,0,1,1.72-1.75A4.39,4.39,0,0,1,744,631h.16Z" transform="translate(0.07 0)"/><path d="M756,633.41a5.47,5.47,0,0,1,.41,2.65,16.59,16.59,0,0,1-.43,2.54h-8.76a2.64,2.64,0,0,0,.63,2.7,2.41,2.41,0,0,0,1.57.48,2.93,2.93,0,0,0,1.81-.59,4.14,4.14,0,0,0,.81-.88h3.42a5.87,5.87,0,0,1-1.68,2.32,7.2,7.2,0,0,1-5,1.86,5.32,5.32,0,0,1-4-1.57q-1.53-1.57-.78-5.12a8.87,8.87,0,0,1,2.77-5.1,7,7,0,0,1,4.75-1.78,6,6,0,0,1,2.76.6A3.69,3.69,0,0,1,756,633.41Zm-8.23,3h5.21a2.46,2.46,0,0,0-.39-2,2,2,0,0,0-1.65-.69,2.81,2.81,0,0,0-1.95.73A4.67,4.67,0,0,0,747.73,636.39Z" transform="translate(0.07 0)"/><path d="M762.69,644.52q-3.3,0-4.5-2a6.51,6.51,0,0,1-.59-4.82,9.3,9.3,0,0,1,2.64-4.8,7.28,7.28,0,0,1,5.36-2q3.3,0,4.49,2a6.54,6.54,0,0,1,.6,4.8,9.25,9.25,0,0,1-2.65,4.82A7.32,7.32,0,0,1,762.69,644.52Zm4.49-6.83a4.39,4.39,0,0,0-.16-3,2.13,2.13,0,0,0-2-1,3.33,3.33,0,0,0-2.48,1,6,6,0,0,0-1.42,3,4.31,4.31,0,0,0,.16,3,2.12,2.12,0,0,0,2,1.05,3.3,3.3,0,0,0,2.47-1.05A5.91,5.91,0,0,0,767.18,637.69Z" transform="translate(0.07 0)"/><path d="M775.15,644.07H771.8l3.68-17.32h3.35Z" transform="translate(0.07 0)"/><path d="M785.09,636.28a6.45,6.45,0,0,0,1.4-.29,1.36,1.36,0,0,0,.92-1c.11-.53,0-.89-.32-1.09a3,3,0,0,0-1.54-.3,2.52,2.52,0,0,0-1.81.59,3.18,3.18,0,0,0-.71,1.17h-3.24a6.4,6.4,0,0,1,1.53-2.76,6.66,6.66,0,0,1,4.92-1.69,7.1,7.1,0,0,1,3.56.83c1,.56,1.3,1.61,1,3.15l-1.26,5.88c-.09.4-.18.9-.28,1.48a1.81,1.81,0,0,0,0,.89.87.87,0,0,0,.41.39l-.09.49H785.9a4.78,4.78,0,0,1-.06-.73c0-.23,0-.48.08-.77a10.32,10.32,0,0,1-1.87,1.28,5.71,5.71,0,0,1-2.59.62,3.46,3.46,0,0,1-2.66-1,3,3,0,0,1-.53-2.82,4.75,4.75,0,0,1,2.55-3.42,9.68,9.68,0,0,1,3.11-.82Zm1.71,1.56a4.51,4.51,0,0,1-.71.33,6.46,6.46,0,0,1-.94.23l-.77.14a5.78,5.78,0,0,0-1.63.45,2,2,0,0,0-1.06,1.43,1.27,1.27,0,0,0,.2,1.24A1.5,1.5,0,0,0,783,642a4,4,0,0,0,2.12-.64,3.47,3.47,0,0,0,1.45-2.31Z" transform="translate(0.07 0)"/><path class="cls-2" d="M592.78,664.06H590.3l2.54-12h2.49Z" transform="translate(0.07 0)"/><path class="cls-2" d="M597.3,664.06H595l2.55-12h2.31Z" transform="translate(0.07 0)"/><path class="cls-2" d="M603.75,655.19l-1.13,5.35a2.76,2.76,0,0,0-.07,1.14c.12.45.48.67,1.1.67a2.08,2.08,0,0,0,1.83-1A3.88,3.88,0,0,0,606,660l1-4.83h2.35l-1.88,8.87h-2.25l.26-1.25s-.1.11-.22.24a1.85,1.85,0,0,1-.38.36,4.09,4.09,0,0,1-1.2.67,3.88,3.88,0,0,1-1.23.18c-1.31,0-2.1-.48-2.35-1.42a5.34,5.34,0,0,1,.11-2.3l1.13-5.35Z" transform="translate(0.07 0)"/><path class="cls-2" d="M612.13,661.23a1.36,1.36,0,0,0,.14.88c.22.31.72.46,1.49.46a2.82,2.82,0,0,0,1.13-.2.88.88,0,0,0,.54-.61.55.55,0,0,0-.2-.6,11.93,11.93,0,0,0-2.27-.69,4,4,0,0,1-1.92-.94,1.7,1.7,0,0,1-.28-1.59,3.56,3.56,0,0,1,1.41-2.12,4.7,4.7,0,0,1,2.9-.88,4.2,4.2,0,0,1,2.56.67,2.28,2.28,0,0,1,.72,2.28H616a1.24,1.24,0,0,0-.1-.7c-.19-.32-.6-.47-1.21-.47a2.14,2.14,0,0,0-1.13.23.89.89,0,0,0-.43.55.48.48,0,0,0,.22.58,11.78,11.78,0,0,0,2.28.64,3.48,3.48,0,0,1,1.86,1,1.9,1.9,0,0,1,.33,1.67,3.53,3.53,0,0,1-1.44,2.15,5.43,5.43,0,0,1-3.2.83,3.82,3.82,0,0,1-2.9-.88,2.41,2.41,0,0,1-.53-2.25Z" transform="translate(0.07 0)"/><path class="cls-2" d="M619.6,656.93l.35-1.65h1.24l.53-2.48H624l-.53,2.48h1.44l-.35,1.65h-1.44l-1,4.68c-.07.37-.08.59,0,.68s.34.14.81.14h.47l-.38,1.73-1.1,0q-1.65.06-2.13-.57a1.53,1.53,0,0,1-.13-1.23l1.17-5.45Z" transform="translate(0.07 0)"/><path class="cls-2" d="M631.59,655l-.5,2.37-.39,0h-.27a2.45,2.45,0,0,0-2.08.91,4.27,4.27,0,0,0-.6,1.58l-.89,4.24h-2.34l1.88-8.87h2.21l-.32,1.55a6.44,6.44,0,0,1,1.19-1.21,3,3,0,0,1,1.81-.55h.3Z" transform="translate(0.07 0)"/><path class="cls-2" d="M635.65,658.67a4,4,0,0,0,1-.21.91.91,0,0,0,.63-.65.65.65,0,0,0-.22-.76,2,2,0,0,0-1.06-.2,1.78,1.78,0,0,0-1.26.4,2.23,2.23,0,0,0-.49.82H632a4.38,4.38,0,0,1,1.06-1.92,4.62,4.62,0,0,1,3.41-1.17,4.92,4.92,0,0,1,2.46.58c.67.39.9,1.11.67,2.18l-.87,4.07c-.06.28-.13.62-.2,1a1.19,1.19,0,0,0,0,.62.57.57,0,0,0,.28.27l-.07.34h-2.52a2.24,2.24,0,0,1,0-.5c0-.16,0-.34.05-.54a7.06,7.06,0,0,1-1.29.89,4,4,0,0,1-1.79.43,2.4,2.4,0,0,1-1.85-.69,2.12,2.12,0,0,1-.37-1.95,3.34,3.34,0,0,1,1.77-2.37,6.57,6.57,0,0,1,2.15-.56Zm1.18,1.08a2.64,2.64,0,0,1-.49.22,4.1,4.1,0,0,1-.65.16l-.54.1a3.93,3.93,0,0,0-1.12.32,1.37,1.37,0,0,0-.74,1,.88.88,0,0,0,.14.86,1,1,0,0,0,.75.26,2.73,2.73,0,0,0,1.47-.44,2.38,2.38,0,0,0,1-1.6Z" transform="translate(0.07 0)"/><path class="cls-2" d="M646.79,658.37a1.75,1.75,0,0,0-.14-.89,1.12,1.12,0,0,0-1.1-.54,2.06,2.06,0,0,0-1.85,1.17,5.75,5.75,0,0,0-.58,1.64,4.46,4.46,0,0,0-.1,1.57,1.2,1.2,0,0,0,1.32,1.11,1.68,1.68,0,0,0,1.25-.44,2.91,2.91,0,0,0,.66-1.14h2.37a5,5,0,0,1-1.19,2,4.68,4.68,0,0,1-3.56,1.52A3,3,0,0,1,641,663.1a4.59,4.59,0,0,1-.31-3.29,6.43,6.43,0,0,1,1.87-3.56,4.8,4.8,0,0,1,3.35-1.27,3.92,3.92,0,0,1,2.57.75,2.85,2.85,0,0,1,.69,2.64Z" transform="translate(0.07 0)"/><path class="cls-2" d="M651.47,655.19h2.35l-1.88,8.87h-2.35Zm2.58-1.05H651.7l.45-2.14h2.35Z" transform="translate(0.07 0)"/><path class="cls-2" d="M658.1,664.37A3.31,3.31,0,0,1,655,663a4.48,4.48,0,0,1-.41-3.34,6.45,6.45,0,0,1,1.83-3.32,5,5,0,0,1,3.71-1.41,3.27,3.27,0,0,1,3.1,1.41,4.51,4.51,0,0,1,.42,3.32A6.4,6.4,0,0,1,661.8,663,5,5,0,0,1,658.1,664.37Zm3.11-4.73a3,3,0,0,0-.11-2,1.48,1.48,0,0,0-1.41-.72,2.31,2.31,0,0,0-1.72.72,4,4,0,0,0-1,2,3.05,3.05,0,0,0,.1,2.06,1.49,1.49,0,0,0,1.42.73,2.3,2.3,0,0,0,1.71-.73A4.1,4.1,0,0,0,661.21,659.64Zm2.39-8.07-3,2.43h-1.67l2.08-2.43Z" transform="translate(0.07 0)"/><path class="cls-2" d="M673.67,658.09l-1.27,6H670l1.14-5.39a2.13,2.13,0,0,0,0-1.08c-.13-.45-.51-.68-1.15-.68a2,2,0,0,0-1.83,1,3.81,3.81,0,0,0-.51,1.35l-1,4.8h-2.31l1.88-8.85h2.23l-.27,1.29a5.32,5.32,0,0,1,1.06-1,3.43,3.43,0,0,1,1.92-.54,2.85,2.85,0,0,1,2.1.72A2.54,2.54,0,0,1,673.67,658.09Z" transform="translate(0.07 0)"/><path class="cls-2" d="M675.86,661.64h2.46l-.51,2.42h-2.47Zm1.29-6.1h2.46L679.1,658h-2.46Z" transform="translate(0.07 0)"/><path class="cls-2" d="M687.32,659.51l-.05.28a5,5,0,0,0-.11,2c.1.37.45.56,1,.56a1.43,1.43,0,0,0,1.3-.62,3.45,3.45,0,0,0,.44-1.23l1.78-8.39h2.51l-1.77,8.35a5.76,5.76,0,0,1-1.05,2.42,4.27,4.27,0,0,1-3.55,1.51c-1.56,0-2.51-.4-2.87-1.22a5.55,5.55,0,0,1-.09-3.34l.06-.28Z" transform="translate(0.07 0)"/><path class="cls-2" d="M702.49,656.68a3.72,3.72,0,0,1,.29,1.83,11.38,11.38,0,0,1-.29,1.76h-6.07a1.82,1.82,0,0,0,.44,1.87,1.66,1.66,0,0,0,1.08.33,2,2,0,0,0,1.25-.4,2.8,2.8,0,0,0,.56-.61h2.37a3.89,3.89,0,0,1-1.16,1.6,5,5,0,0,1-3.47,1.29,3.65,3.65,0,0,1-2.75-1.09c-.71-.72-.89-1.91-.54-3.54a6.13,6.13,0,0,1,1.91-3.53A4.89,4.89,0,0,1,699.4,655a4.17,4.17,0,0,1,1.91.41A2.57,2.57,0,0,1,702.49,656.68Zm-5.69,2.06h3.6a1.65,1.65,0,0,0-.26-1.39,1.41,1.41,0,0,0-1.14-.48,2,2,0,0,0-1.36.5A3.39,3.39,0,0,0,696.8,658.74Z" transform="translate(0.07 0)"/><path class="cls-2" d="M710.29,655l-.51,2.37-.38,0h-.28a2.43,2.43,0,0,0-2.07.91,4.27,4.27,0,0,0-.6,1.58l-.9,4.24h-2.33l1.88-8.87h2.21l-.33,1.55a6.76,6.76,0,0,1,1.19-1.21A3,3,0,0,1,710,655h.3Z" transform="translate(0.07 0)"/><path class="cls-2" d="M713.64,664.37a3.3,3.3,0,0,1-3.11-1.39,4.48,4.48,0,0,1-.41-3.34,6.45,6.45,0,0,1,1.83-3.32,5,5,0,0,1,3.7-1.41,3.29,3.29,0,0,1,3.11,1.41,4.51,4.51,0,0,1,.42,3.32,6.4,6.4,0,0,1-1.84,3.34A5,5,0,0,1,713.64,664.37Zm3.1-4.73a3,3,0,0,0-.11-2,1.46,1.46,0,0,0-1.41-.72,2.29,2.29,0,0,0-1.71.72,4.07,4.07,0,0,0-1,2,3,3,0,0,0,.11,2.06,1.49,1.49,0,0,0,1.41.73,2.32,2.32,0,0,0,1.72-.73A4.1,4.1,0,0,0,716.74,659.64Z" transform="translate(0.07 0)"/><path class="cls-2" d="M736,652.07l-.45,2.12h-3.59l-2.09,9.87h-2.52l2.09-9.87h-3.6l.45-2.12Z" transform="translate(0.07 0)"/><path class="cls-2" d="M737.39,664.37a3.3,3.3,0,0,1-3.11-1.39,4.48,4.48,0,0,1-.41-3.34,6.45,6.45,0,0,1,1.83-3.32,5,5,0,0,1,3.71-1.41,3.27,3.27,0,0,1,3.1,1.41,4.51,4.51,0,0,1,.42,3.32,6.4,6.4,0,0,1-1.84,3.34A5,5,0,0,1,737.39,664.37Zm3.11-4.73a3,3,0,0,0-.11-2,1.49,1.49,0,0,0-1.42-.72,2.29,2.29,0,0,0-1.71.72,4.07,4.07,0,0,0-1,2,3,3,0,0,0,.11,2.06,1.49,1.49,0,0,0,1.42.73,2.3,2.3,0,0,0,1.71-.73A4.1,4.1,0,0,0,740.5,659.64Z" transform="translate(0.07 0)"/><path class="cls-2" d="M746,664.06H743.7l2.55-12h2.31Z" transform="translate(0.07 0)"/><path class="cls-2" d="M756.8,656.68a3.84,3.84,0,0,1,.28,1.83,11.38,11.38,0,0,1-.29,1.76h-6.07a1.82,1.82,0,0,0,.44,1.87,1.66,1.66,0,0,0,1.08.33,2,2,0,0,0,1.25-.4,2.8,2.8,0,0,0,.56-.61h2.37a3.89,3.89,0,0,1-1.16,1.6,5,5,0,0,1-3.47,1.29,3.67,3.67,0,0,1-2.75-1.09c-.71-.72-.89-1.91-.54-3.54a6.09,6.09,0,0,1,1.92-3.53,4.87,4.87,0,0,1,3.29-1.23,4.16,4.16,0,0,1,1.9.41A2.59,2.59,0,0,1,756.8,656.68Zm-5.7,2.06h3.61a1.68,1.68,0,0,0-.27-1.39,1.41,1.41,0,0,0-1.14-.48,2,2,0,0,0-1.36.5A3.39,3.39,0,0,0,751.1,658.74Z" transform="translate(0.07 0)"/><path class="cls-2" d="M764.91,656.32l.89-4.23h2.35l-2.54,12h-2.25l.26-1.23a4.36,4.36,0,0,1-1.38,1.15,3.58,3.58,0,0,1-1.65.36,2.6,2.6,0,0,1-2.35-1.26,4.26,4.26,0,0,1-.38-3.22,7,7,0,0,1,1.81-3.58,4.28,4.28,0,0,1,3.07-1.3,2.44,2.44,0,0,1,1.36.36A2.12,2.12,0,0,1,764.91,656.32Zm-.67,3.44a2.51,2.51,0,0,0-.33-2.33,1.43,1.43,0,0,0-1.08-.42,2,2,0,0,0-1.65.77,4.41,4.41,0,0,0-.89,1.9,3.26,3.26,0,0,0,.07,2,1.28,1.28,0,0,0,1.31.73,2.14,2.14,0,0,0,1.65-.73A3.91,3.91,0,0,0,764.24,659.76Z" transform="translate(0.07 0)"/><path class="cls-2" d="M771.63,664.37a3.31,3.31,0,0,1-3.11-1.39,4.48,4.48,0,0,1-.41-3.34,6.45,6.45,0,0,1,1.83-3.32,5.05,5.05,0,0,1,3.71-1.41,3.3,3.3,0,0,1,3.11,1.41,4.56,4.56,0,0,1,.41,3.32,6.45,6.45,0,0,1-1.83,3.34A5.06,5.06,0,0,1,771.63,664.37Zm3.11-4.73a3,3,0,0,0-.11-2,1.46,1.46,0,0,0-1.41-.72,2.31,2.31,0,0,0-1.72.72,4.14,4.14,0,0,0-1,2,3,3,0,0,0,.11,2.06,1.47,1.47,0,0,0,1.41.73,2.32,2.32,0,0,0,1.72-.73A4.18,4.18,0,0,0,774.74,659.64Z" transform="translate(0.07 0)"/></svg>