<svg id="Layer_1" data-name="Layer 1" xmlns="http://www.w3.org/2000/svg" viewBox="0 0 684.21 298.96"><defs><style>.cls-1{fill:#d70056;}</style></defs><title>Almohadón_Rosa</title><g id="utnhRL"><path class="cls-1" d="M654.56,113.82c0-1.34.06-2.7-.09-4Q652.79,95.54,651,81.28c-.65-5.25,1-6.52,5.59-5.14,3.26,1,7,.2,10.58.21,2.79,0,5.57-.1,8.35.06,3.6.22,5,1.59,5.12,5.27.29,7.5.37,15,.61,22.52.34,10.65.92,21.29,1.07,31.94.15,9.9-.11,19.8-.23,29.69,0,2-1.13,3.26-3.24,3.2a21,21,0,0,0-12.52,3.51c-2.13,1.41-3.58.69-4.68-1.45-3.24-6.31-7.88-11.42-13.12-16.19-3.21-2.91-5.51-6.84-8.17-10.34-.52-.68-.7-1.65-1.29-2.22a16.81,16.81,0,0,0-2.75-1.82,9.2,9.2,0,0,0-1,2.85c0,6,.2,12.07.33,18.1.1,4.46-.61,5.06-5,4.58-5.22-.55-10.45-1-15.66-1.54-2.43-.26-3-2-3.26-4.14-.72-6.85-1.65-13.69-2.16-20.55-.84-11.06-1.62-22.13-2-33.2-.29-8.05-.07-16.12.23-24.17a5.6,5.6,0,0,1,2.51-4.08,81.65,81.65,0,0,1,12.21-5c1.11-.36,3.69.58,4,1.46,2.17,6.55,6.9,11.38,10.71,16.82,4.87,7,9.85,13.85,14.8,20.76a18.42,18.42,0,0,0,1.66,1.77Z" transform="translate(0 0)"/><path class="cls-1" d="M617.91,269.75c-.29-2.13-.66-4.24-.83-6.37-.27-3.13,1.78-5,4.1-6.39,3.57-2.17,7.35-4,11-6.14,1.74-1,2.7-.6,3.64,1,2.55,4.46,5.1,8.92,7.82,13.27,1.32,2.1,3,4.26,6,3.37s3.33-3.49,2.93-5.81a12.92,12.92,0,0,0-2.78-6.27c-2.14-2.34-5-4-7.53-6-5.27-4.22-10.72-8.24-15.73-12.75-8.35-7.54-9.88-23.26-4.7-31.32,4.23-6.57,7.59-13.59,13.65-19,11.29-10.11,31.42-8.76,39.43,6.66,4.4,8.48,6.61,17.47,9,26.49,1,3.76,0,4.86-3.81,5.14-2.57.18-5.15.42-7.71.69-2.73.29-4.56-.4-5.05-3.52-.75-4.8-3.55-8.51-7-11.7-3.2-2.95-8.43-1.85-10.85,2.11-3.11,5.08-2.68,10.42,1.5,14.83,2.14,2.26,4.74,4.06,6.93,6.28,5.8,5.87,12,11.45,17.09,17.89,7.36,9.32,4.67,29.59-7.55,36.59-5.19,3-10.2,7-15.82,8.33-17.51,4.21-32.44-5.42-33.77-24.13-.08-1.07,0-2.15-.07-3.23Z" transform="translate(0 0)"/><path class="cls-1" d="M305.06,159.4q-2.43-19.67-4.85-39.35c-1-8.54-1.95-17.08-3-25.62-.16-1.38-.73-2.72-.85-4.09a3.55,3.55,0,0,1,.72-2.28c.17-.21,1.28.28,1.94.51,3.15,1.05,6.23,2.32,9.44,3.15,7.6,2,15.16,4.15,23.2,3.53,3.18-.24,4.35,1.55,3.87,4.75-1,6.38-1.83,12.77-2.81,19.14-.38,2.46.45,3.83,2.95,4.46s3.88-.45,4.29-2.62c.74-4,1.14-8,1.74-12.06a17.2,17.2,0,0,1,.86-3.77c2.16-5.48,4.4-6.5,10.17-5.6a130.06,130.06,0,0,0,13.8,1.26c2.91.14,4.06,1.37,4,4.2-.41,11.82-.51,23.66-1.2,35.47s-2,23.59-3,35.38c-.17,2-.88,3.39-3.12,3.85-3.67.77-7.31,1.72-10.93,2.71-4.51,1.24-5.53.44-6.07-4.06-1.2-10.15-2.57-20.27-4-30.39-.33-2.4-.91-4.77-4.35-4.32s-5.18,1.94-5,5.49c.27,4.5,1.08,9,1.69,13.43.46,3.42,1,6.82,1.46,10.24.62,4.49-.12,5.36-4.53,5.75-6.87.59-13.74,1.14-20.58,1.93-3,.35-4.61-.87-4.94-3.66-.69-5.77-1.2-11.56-1.79-17.34Z" transform="translate(0 0)"/><path class="cls-1" d="M465.41,277.63c-.47,4.91-.8,9.84-1.52,14.72a3.77,3.77,0,0,1-2.82,2.28c-6.12-.22-12.23-.72-18.33-1.25-2.41-.2-3.7-1.55-3.35-4.14,2-14.77,3.95-29.56,6-44.32,1.12-8,2.43-15.95,3.72-23.92a95.75,95.75,0,0,1,2.15-11.07c.36-1.26,1.94-2.51,3.27-3.09,2.44-1.08,5.12-1.57,7.66-2.45,2-.69,2.83,0,3.71,1.8,3.33,6.83,6.83,13.58,10.36,20.31.39.74,1.34,1.18,2,1.76.57-.71,1.49-1.34,1.66-2.14,1.41-6.37,2.94-12.73,3.91-19.17.78-5.1,1.21-5.84,6.27-6.14a79.71,79.71,0,0,0,8-.87c1.91-.31,2.73.34,3.17,2.19,2.89,12.34,5.91,24.66,8.8,37,1.77,7.55,3.32,15.14,5.07,22.69,1.9,8.27,3.93,16.51,5.88,24.78.89,3.75.4,4.35-3.35,5.46-4.84,1.43-9.66,3-14.44,4.61-2.59.88-4.08.19-4.68-2.58-2.48-11.65-4.86-23.33-7.48-34.95-.51-2.28-1.92-4.36-2.91-6.54-1.88,1.33-4.16,2.34-5.54,4.07-1.77,2.22-2.72,5.07-4.21,7.54a17.16,17.16,0,0,1-2.67,2.8,16.75,16.75,0,0,1-2.3-3.21c-1-2.36-1.56-4.89-2.56-7.24-.31-.73-1.43-1.11-2.17-1.65-.52.73-1.38,1.41-1.5,2.21q-.94,6-1.54,12.13c-.28,2.78-.29,5.58-.41,8.37Z" transform="translate(0 0)"/><path class="cls-1" d="M462.11,170.56c-.72.84-1.35,2.3-2.39,2.67a117.87,117.87,0,0,1-11.54,3.47,7.33,7.33,0,0,1-8.92-5.09c-1.34-4.08-2.82-8.12-4.12-12.22-1-3-2.85-4.6-6-4a141.62,141.62,0,0,0-14,3.3c-1.14.35-2.14,2.3-2.56,3.71-1.17,3.91-1.83,8-3,11.87-1,3.31-1.63,3-4.82,1.76a38.56,38.56,0,0,0-9.68-1.91c-4.47-.53-9-.69-13.48-1.11a6.3,6.3,0,0,1-3-1,9.37,9.37,0,0,1-1.72-2.47,17.77,17.77,0,0,0,2.23-1.45c1.1-.94,2.68-1.83,3.05-3.05,1.55-5.14,2.68-10.41,4.05-15.61,1.69-6.43,3.47-12.84,5.19-19.27,3-11.12,6-22.23,8.86-33.38a4.13,4.13,0,0,1,3.93-3.54c9-1.06,17.91-2.22,26.87-3.2,5.46-.59,6,0,7.07,5.3,4,19.83,9.09,39.38,16.51,58.25,1.88,4.77,4.28,9.34,6.42,14C461.37,168.37,461.61,169.19,462.11,170.56Zm-41.78-39.93c2.68-1.42,6.17.08,6.47-3.63.23-2.86-2.59-7-4.37-7s-4.81,5-4.38,7.64C418.23,128.74,419.54,129.65,420.33,130.63Z" transform="translate(0 0)"/><path class="cls-1" d="M557.53,264.59c.62,4.44,1.3,9.74,2.15,15,.44,2.71-.42,3.81-3.23,3.59l-17.66-1.39c-3.85-.3-6-3-5.43-6.81.5-3.08,1-6.16,1.73-9.2.28-1.2.8-2.79,1.72-3.31,2.63-1.48,3.1-3.89,3.73-6.43q5.85-23.67,11.82-47.29c.13-.53.32-1,.43-1.56,1.38-6.3,1.38-6.24,7.9-7.36,5.83-1,11.62-2.25,17.46-3.16a3.43,3.43,0,0,1,2.89,1.49c3.06,7.2,6.15,14.4,8.75,21.77,3.25,9.21,6.44,18.47,8.93,27.9,2.57,9.76,4.2,19.77,6.38,29.64.71,3.2.07,5.06-3.37,6-5.79,1.54-11.48,3.48-17.24,5.16-2.12.61-2.74-.88-3.29-2.59-2.74-8.59-5.45-17.2-8.39-25.72-1.28-3.7-3.66-4.89-6.95-4.16C558.63,257.76,557.33,258.94,557.53,264.59Zm8.69-29.21.28.06c0,.64,0,1.29,0,1.93,0,1.81.32,3.33,2.57,3.19s5.08-.31,4.87-3c-.26-3.44-1.66-6.81-2.76-10.14a2.38,2.38,0,0,0-2.05-1.07,2.69,2.69,0,0,0-1.52,1.79C567.05,230.53,566.68,233,566.22,235.38Z" transform="translate(0 0)"/><path class="cls-1" d="M195,143.69a63.55,63.55,0,0,1-1.89,6.44,27.91,27.91,0,0,1-3.29,6,3.28,3.28,0,0,1-3,.92c-.81-.35-1.23-1.81-1.65-2.85-2.09-5.12-4-10.3-6.23-15.38-.35-.81-1.54-1.25-2.35-1.87a11.75,11.75,0,0,0-1.35,2.73c-1.78,9.18-3.48,18.38-5.17,27.58-.53,2.86-4.56,6.18-7.56,5.79a31.62,31.62,0,0,1-7.17-1.78,4.21,4.21,0,0,1-2.89-5.37c1.92-8.49,4.06-16.94,5.48-25.51,2.58-15.6,4.71-31.27,7-46.91a2.9,2.9,0,0,1,3.2-2.85,91.86,91.86,0,0,0,10.23-.7c2.47-.35,3.46.52,4.17,2.77,2,6.42,4.21,12.79,6.47,19.14.34,1,1.37,1.72,2.09,2.57.57-.93,1.48-1.81,1.67-2.82q1.5-7.92,2.68-15.9c.36-2.46,1.39-3.57,4-3.48,2.21.08,4.45-.57,6.67-.58a6.15,6.15,0,0,1,2.77,1.3c.29.18.36.76.47,1.18,1.94,7.35,3.85,14.72,5.8,22.07,3.09,11.64,6.09,23.31,9.36,34.9a109.85,109.85,0,0,0,4.43,11.36c1.4,3.42-.25,5.81-4,5.31-6.38-.87-12,2-17.84,3.53-4.29,1.09-5.15.82-5.95-3.5-1.28-6.87-2.49-13.75-3.79-20.62a23,23,0,0,0-1.22-3.43Z" transform="translate(0 0)"/><path class="cls-1" d="M594.92,119.58c.34,13.27-3.43,24.46-11.16,34.29A25.58,25.58,0,0,1,564.33,164c-3.87.15-8.27-1.79-11.69-4-4.44-2.81-9.47-5.45-11.63-10.8-2.45-6.07-5.58-12.08-6.71-18.42-.85-4.82.52-10.22,1.71-15.18,1-4.34,3.12-8.45,4.85-12.62,3-7.17,7.67-12.6,15.27-15.2a14.23,14.23,0,0,0,5.23-3c8.37-8.12,13.79-5,20.13,1.26C589.07,93.58,595.88,109.32,594.92,119.58Z" transform="translate(0 0)"/><path class="cls-1" d="M431.11,243.48c-1,7.92-1.14,15.24-2.89,22.16-3.38,13.29-15.45,20.48-27.5,21.12-3.4.18-7.1-1.48-10.34-3-4.55-2.14-8.8-4.92-13.17-7.45-6.39-3.69-8.59-10.28-11.13-16.52A49.25,49.25,0,0,1,363,249c-1.39-8.93-2.45-17.91-3.55-26.89-.42-3.46,1.94-5.73,6-6.37,3.27-.52,6.48-1.36,9.74-1.88a40.67,40.67,0,0,1,7.68-.72c2.77.11,4.07,2.37,3.7,5-.54,3.78-1.45,7.67-1.08,11.4.89,9.05.94,18.28,4.79,26.87,1.66,3.73,4.55,5.65,8,6.93a3.61,3.61,0,0,0,3.16-.65,13.41,13.41,0,0,0,3.31-5c1.82-6.29,3.13-12.63,2-19.35-1.44-8.48-2.31-17.05-3.41-25.58-.34-2.65.69-4.58,3.44-4.89,4.91-.55,9.85-.86,14.78-1.23,2.33-.18,2.93,1.56,3.25,3.28C427,221.22,429.11,232.63,431.11,243.48Zm-33.57,37.68-.19,1.63,4,.33.16-1.39Z" transform="translate(0 0)"/><path class="cls-1" d="M287.07,127c.09,8.8.07,16.64-3.63,23.51-3,5.51-6.5,11.07-11,15.27-5.1,4.73-11.82,4.26-18.26,1.57-5.08-2.12-7.95-6.46-11.09-10.51-7.34-9.48-10.11-20.63-9.23-32.21a57,57,0,0,1,5.89-21.6c2.61-5,8-8.93,13.05-12,4.2-2.55,9.33-.26,13.57,1.77a37,37,0,0,1,9.92,6.59,37.26,37.26,0,0,1,6.55,9.4C286,114.82,287.73,121.25,287.07,127ZM256.9,94.93l-.17-1.39-4.3.85.22,1.22Z" transform="translate(0 0)"/><path class="cls-1" d="M261,283.7c.15,7.51.14,7.45-6.75,7.63-3,.08-6,.59-9,.67-3.47.09-3.82-1.07-3.13-4.31a50.67,50.67,0,0,0,.55-10.54c-.06-8.6-.16-17.2-.42-25.8-.35-11.94-.86-23.88-1.29-35.82-.09-2.65-2.07-5.52.78-7.85a8.78,8.78,0,0,1,3.15-2.11c9.29-2,18.7-3.16,28.08-.91a50.87,50.87,0,0,1,12.74,4.53c10.57,5.83,13.28,19.62,6.22,29.72-5.76,8.23-13.56,12.33-23.73,11.5-2.14-.17-4.07.18-4.32,2.73C262.79,263.51,261.86,273.9,261,283.7Z" transform="translate(0 0)"/><path class="cls-1" d="M475.75,152.31q-1.49-14.42-2.95-28.83a19.3,19.3,0,0,1-.2-3.86c.79-7.64-1-14.93-2.71-22.26-1.1-4.87-.14-6.12,4.72-6.26,5.12-.14,10.6-1.49,15.29-.13,14.9,4.31,28.77,14,30.15,32.77a46.94,46.94,0,0,1-7.44,29.16c-4.91,7.72-12.91,12.64-21.57,15.7-3.94,1.39-8.35,1.55-12.58,2-2.52.27-2.94-1.76-3-3.7-.15-4.84-.2-9.69-.3-14.53Z" transform="translate(0 0)"/><path class="cls-1" d="M31.31,100.76c4.5-.46,8.88-1.09,13.27-1.25,1.26,0,3.27.94,3.74,2,5.51,12.25,11,24.53,16.09,36.94,3.37,8.15,6.23,16.51,9.33,24.76.77,2.05.13,3.37-1.95,3.94-4.66,1.28-9.32,2.55-14,3.75-3.56.92-4.68.15-5.17-3.55-.45-3.41-.76-6.84-1.16-10.26-.35-3-2-4.27-5-4.22-3.44,0-6.88-.13-10.31-.34-3.13-.18-5.59.91-6.91,3.75a69.07,69.07,0,0,0-3.78,9.54c-1.07,3.62-1.88,4.48-5.68,3.88-3.59-.57-7.14-1.41-10.73-2-1.24-.2-2.63.32-3.81,0-1.64-.45-3.72-1-4.53-2.23a6.18,6.18,0,0,1-.3-5c5.34-13,11.09-25.81,16.32-38.84,2.19-5.45,3.56-11.26,5.06-17,.74-2.85,2.43-3.83,5.13-3.78C28.41,100.86,29.91,100.79,31.31,100.76Zm8.11,28.05c1.54-1.84,3.34-3.06,3.27-4.15-.09-1.38-1.71-2.66-2.67-4a32.94,32.94,0,0,0-2.86,4.92C37,126.1,38.23,127.18,39.42,128.81Z" transform="translate(0 0)"/><path class="cls-1" d="M358.11,278.73c.75,4.77,1.39,9.56,2.29,14.3.81,4.24.08,5.91-4.23,5.93-8.66,0-17.34-.77-26-.7-8.32.08-16.42-4-24.89-1.13-2.1.72-3.66-.47-3.65-2.81,0-3.09.17-6.18.45-9.26q2-22.29,4.07-44.58c.3-3.18,1-6.33,1.19-9.52a33.19,33.19,0,0,0-.54-5.3c-.09-1-.41-2.19,0-2.9.32-.53,1.74-.72,2.57-.55a44.82,44.82,0,0,0,21.59-.83c2.21-.64,2.83,1,3,2.42.63,6.2,1.41,12.41,1.43,18.62,0,7.84-.74,15.68-.95,23.52-.12,4.51,1.45,6.13,6,6a111.4,111.4,0,0,0,13.15-1.23c3.92-.57,4.8,0,4.85,4.06,0,1.29.05,2.58.08,3.87Z" transform="translate(0 0)"/><path class="cls-1" d="M22,61.27c-.2-10.42-.23-20.85-.65-31.27-.27-6.65-1.13-13.28-1.68-19.92a35.39,35.39,0,0,1,.05-3.85c.06-3,1.76-4.26,4.56-4.25,4.91,0,9.82.13,14.74.22,6.77.12,13.53.26,20.3.37,4,.07,4.82.53,5.08,4.57.35,5.45.26,10.94.37,16.41,0,2.42-1.18,3.92-3.53,3.47-6.77-1.29-12.93,1.57-19.35,2.55-.87.13-1.62,1.09-2.43,1.67.77.62,1.44,1.54,2.32,1.79a24.09,24.09,0,0,0,5.09.78c2.94.18,3.82,1.85,3.76,4.53s0,5.35.13,8c.11,2.48-.58,3.6-3.4,2.93-3.89-.91-6.52,1.36-5.08,4.35a6,6,0,0,0,4.25,2.65,52,52,0,0,0,9.65-.36c3.42-.34,6.81-.94,10.2-1.49C69.2,54,70,55.85,70.25,58c.39,3.31.43,6.65.77,10a47,47,0,0,0,1.07,6c.71,3-.18,4.23-3.26,4.21-8.39,0-16.78-.19-25.16-.19-5.69,0-11.38.13-17.07.31-3,.09-4.41-1.06-4.4-4.12,0-4.3-.14-8.6-.23-12.9Z" transform="translate(0 0)"/><path class="cls-1" d="M58.89,272.51c1-16.92-1.7-33.4-3.42-50-.34-3.3-.92-6.59-1-9.9a4.21,4.21,0,0,1,1.81-2.8,7.86,7.86,0,0,1,3.37-1c6.05-.89,12.09-2.31,18.15-2.42,8.81-.16,15.33,5.07,20.17,11.72C112.37,238,102.4,262.25,85.58,272c-5.19,3-10.43,6.12-16,8.21-2.71,1-6.27-.16-9.42-.53-.37,0-.78-1.21-.86-1.9C59.06,276,59,274.16,58.89,272.51Z" transform="translate(0 0)"/><path class="cls-1" d="M143,280.76c-6.11.12-12.22.22-18.32.35-2.74.06-2.68-1.82-2.74-3.74-.23-7.84.13-15.77-1-23.49-1.12-8.06-3.74-15.91-5.48-23.89-.54-2.46-.35-5.07-.48-7.61a26.61,26.61,0,0,0-.27-4.75c-1.05-4.21,0-5.66,4.23-5.49a16.42,16.42,0,0,0,2.89-.15c5.94-.91,11.86-2,17.82-2.76,5.73-.71,11.51-1.1,17.28-1.45a2.86,2.86,0,0,1,2.15,1.7c1,4.18,1.75,8.42,2.45,12.66.61,3.67-.29,4.31-3.9,4.63-3.83.35-7.6,1.39-11.42,2-2.19.36-4.43.41-6.61.8-1,.18-2.28.63-2.63,1.36a3.08,3.08,0,0,0,.61,2.82,3.64,3.64,0,0,0,2.84.59,30,30,0,0,0,3.93-1.44c3.4-1.15,4.59-.62,5.42,2.75.89,3.54,1.55,7.15,2.23,10.75.46,2.48-.13,4.17-3.16,4.36a58.18,58.18,0,0,0-7,1.24c-.63.12-1.49.15-1.8.56-2.1,2.76.12,5.31.77,7.84a4,4,0,0,0,3.23,2c5.74-.71,11.44-1.73,17.13-2.77,5-.92,5.79-.34,6.26,4.67.33,3.51,1,7,1.23,10.5.19,2.62-1.33,3.68-4,3.94-5.34.51-10.64,1.41-16,2.09-1.91.25-3.83.35-5.75.51Z" transform="translate(0 0)"/><path class="cls-1" d="M86,144.88c.1-11.94.12-24.31.36-36.68a27.67,27.67,0,0,1,1.44-7.89,4.09,4.09,0,0,1,3-2.15c4.49-.33,9-.22,13.53-.41,2.39-.09,3,1.31,3.09,3.22.34,4.83.6,9.66,1,14.49.79,9.65,1.69,19.29,2.49,28.94.17,2,1.11,3.35,3.14,3.4,4.5.1,9,.06,13.5,0,2.58,0,5.16-.35,7.72-.24s3.85,1.68,3.82,4.27c0,4.63-.27,9.27-.09,13.89.24,5.71-6.06,11.33-12.18,10.61-10.6-1.24-21.16-2.09-31.24-5.88a16.57,16.57,0,0,0-3.19-.41A4.73,4.73,0,0,1,88,165.59C87.3,158.84,86.66,152.09,86,144.88Z" transform="translate(0 0)"/><path class="cls-1" d="M131.72,69.05,115.53,72.8c-.63.15-1.34.54-1.87.37C106.78,71,100.6,75,94,75.36c-1,0-1.92.32-2.88.39-5.2.36-6.44-.94-6.88-6-.86-10.06-2-20.1-3-30.15C80.4,31,79.57,22.44,78.62,13.88a61.46,61.46,0,0,0-1.34-7c-.56-2.41.64-3.38,2.75-3.8,4.51-.91,9-1.74,13.51-2.79C96.69-.41,97.69-.06,97.81,3c.53,13.54,5.63,26,8.85,39,.65,2.61,3.61,4.06,7.32,4,5.26-.08,10.52,0,15.78-.18,2.89-.07,4.45,1.28,5,4,1,5.39,2,10.77,2.91,16.18.47,3-.53,3.93-3.5,3.83l-2.26-.11Z" transform="translate(0 0)"/><path class="cls-1" d="M591,79c-4.35-2.66-8.7-5.36-13.09-8a20.72,20.72,0,0,0-3.74-1.79c-2.84-1-3.38-2.35-1.46-4.75a34.4,34.4,0,0,1,4.15-4c3.86-3.44,7.79-6.79,11.58-10.3a10.35,10.35,0,0,0,1.95-3.28c1-2.1,2.43-2.44,4.11-1.05,3.14,2.61,6.26,5.27,9.16,8.15a3.65,3.65,0,0,1,.51,3.4C600,64.59,595.53,71.68,591,79Z" transform="translate(0 0)"/></g></svg>