<svg id="Layer_1" data-name="Layer 1" xmlns="http://www.w3.org/2000/svg" viewBox="0 0 364.2 440.79"><defs><style>.cls-1{fill:#5f5e5e;}</style></defs><title>HIELO</title><g id="Z2R9di"><path d="M167.26,387.89c.27,11.11-1.79,21.75-7.52,31.39-7.85,13.24-19.59,20.45-34.95,21.39-28,1.71-47.62-15.14-50.69-43.07-1.29-11.8-.48-23.3,3.87-34.38,11.53-29.34,42.16-33.38,62.35-24.33,18.2,8.16,24.85,23.82,26.9,42.31A59.68,59.68,0,0,1,167.26,387.89Zm-9.62-2.76a50.94,50.94,0,0,0-6-24c-12.44-23-46.59-24.66-60.37-2.49-11,17.61-10.69,36.6-2.22,55.16,5.51,12.08,15.87,18,29.11,18.61,14.18.7,25.49-4.38,32.87-16.84C156.14,407,157.64,397.47,157.64,385.13Z" transform="translate(0 0)"/><path class="cls-1" d="M244.1,105.33c-21.28.92-41.9-12.5-46.09-41.78-1.73-12.11-.84-24,3.7-35.42C209.9,7.46,228.77-1.73,249.57.27c22.07,2.12,37.67,18.75,40.5,43.35a73.45,73.45,0,0,1-2.29,29C281.84,93.3,264.41,106.45,244.1,105.33ZM206.44,54.77c.19,2,.32,5.72.93,9.36,1.72,10.29,5.54,19.61,14,26.22,16.26,12.65,47.73,10.83,57-18a64.73,64.73,0,0,0,2.21-30.46c-3.06-18.87-13.83-32-32-33.81-13.64-1.36-25.25,2.49-33.55,14C208.34,31.33,206.6,42,206.44,54.77Z" transform="translate(0 0)"/><path d="M116.65,170H178c5.56,0,5.56,0,5.49,5.65,0,.74-.07,1.47-.13,2.66h-57v35.86h51.15v8.67H126.38v39.41h58.17v8.3h-67.9Z" transform="translate(0 0)"/><path d="M48.22,45.46h59.07V2.82h9.81V103.08h-9.61V54.25H48.33v48.83h-9.7V2.76h9.59Z" transform="translate(0 0)"/><path class="cls-1" d="M225.77,226v-7.83h4.16c14.64,0,29.28-.08,43.92.06,3,0,3.82-.94,3.79-3.83q-.21-16.18,0-32.38c0-2.9-.8-3.83-3.78-3.81-16.88.14-33.75.07-50.63.07H219V170.6h67.73v99.69H220.49v-7.42c1.44-.07,2.87-.21,4.3-.21,16.14,0,32.27-.09,48.4.06,3.36,0,4.55-.88,4.47-4.39-.22-9.55-.18-19.11,0-28.66.05-3-1-3.8-3.87-3.78-14.4.13-28.79.06-43.19.06Z" transform="translate(0 0)"/><path class="cls-1" d="M325.7,337.7V342q0,45.76-.05,91.53c0,1.33-.5,3.75-1,3.81a30.34,30.34,0,0,1-7.67-.19c-.31,0-.53-2-.54-3.05,0-11.54,0-23.08,0-34.61v-4.27c-1.41-.12-2.48-.28-3.55-.28-17.49,0-35,.07-52.47-.09-3.26,0-3.9,1.18-3.86,4.1.13,11.66-.06,23.32.12,35,.05,3.28-1.25,4-4.16,3.87-2.67-.13-5.06.32-5-3.84q.21-46.32,0-92.65c0-3.91,2.24-3.6,4.81-3.66s4.43,0,4.39,3.62c-.19,13.88,0,27.78-.13,41.67,0,3,.85,4.12,4,4.1q26-.18,52.09,0c3.27,0,3.88-1.25,3.85-4.16-.12-13.52.11-27.05-.15-40.56-.08-3.88,1.1-5.16,4.77-4.67A40.87,40.87,0,0,0,325.7,337.7Z" transform="translate(0 0)"/><path d="M9.54,429.79H58.35c5.34,0,5.35,0,5.27,5.5,0,.85-.07,1.7-.13,2.8H0V337.65H9.54Z" transform="translate(0 0)"/><path class="cls-1" d="M301.57,10.88V3.08H364.2v99.65h-9.05V10.88Z" transform="translate(0 0)"/><path d="M142.91,103V2.69h9.32V103Z" transform="translate(0 0)"/><path class="cls-1" d="M221.26,338c.07,1.53.17,2.75.17,4q0,45.74,0,91.47c0,1.36-.4,3.82-.89,3.9a28.63,28.63,0,0,1-7.68-.07c-.36-.05-.65-2.18-.65-3.35q-.06-32.34,0-64.7c0-9.05.15-18.1-.08-27.14-.09-3.39.86-4.82,4.31-4.37C217.93,337.89,219.51,337.88,221.26,338Z" transform="translate(0 0)"/></g></svg>