<svg id="Layer_1" data-name="Layer 1" xmlns="http://www.w3.org/2000/svg" viewBox="0 0 1366 767.5"><defs><style>.cls-1{fill:#d50056;}.cls-2{fill:#fff;}</style></defs><title>0</title><rect class="cls-1" width="1366" height="767.5"/><g id="utnhRL"><path d="M995.45,347.34c0-1.34.06-2.7-.09-4q-1.67-14.26-3.43-28.52c-.64-5.25,1-6.52,5.59-5.14,3.26,1,7,.2,10.59.21,2.78,0,5.57-.11,8.34.06,3.6.22,5,1.59,5.12,5.27.29,7.5.37,15,.61,22.51.34,10.65.92,21.3,1.07,32,.15,9.89-.11,19.79-.23,29.69,0,2-1.13,3.25-3.23,3.19a21.16,21.16,0,0,0-12.53,3.52c-2.12,1.4-3.57.69-4.67-1.45-3.25-6.31-7.89-11.42-13.13-16.19-3.21-2.91-5.51-6.84-8.17-10.34-.52-.68-.7-1.65-1.29-2.22a16.81,16.81,0,0,0-2.75-1.82,9.2,9.2,0,0,0-1,2.85c0,6,.2,12.07.33,18.1.1,4.45-.6,5.06-5,4.58-5.21-.56-10.44-1-15.66-1.54-2.42-.26-3-2.06-3.26-4.15-.72-6.85-1.64-13.68-2.16-20.54-.84-11.06-1.62-22.13-2-33.21-.3-8-.08-16.11.22-24.16a5.61,5.61,0,0,1,2.51-4.08,82.77,82.77,0,0,1,12.21-5c1.11-.35,3.69.59,4,1.47,2.17,6.55,6.9,11.38,10.71,16.82,4.87,7,9.85,13.85,14.8,20.75a18.61,18.61,0,0,0,1.66,1.78Z" transform="translate(0 0.5)"/><path d="M958.8,503.26c-.28-2.12-.65-4.23-.83-6.37-.26-3.12,1.78-5,4.1-6.39,3.57-2.17,7.35-4,10.95-6.14,1.74-1,2.71-.6,3.64,1,2.55,4.45,5.1,8.92,7.83,13.27,1.31,2.1,3,4.26,6,3.37s3.33-3.49,2.93-5.81A12.74,12.74,0,0,0,990.6,490c-2.14-2.35-5-4-7.53-6-5.27-4.22-10.72-8.24-15.72-12.76-8.36-7.53-9.89-23.25-4.7-31.31,4.22-6.57,7.59-13.6,13.64-19,11.29-10.1,31.42-8.75,39.43,6.67,4.4,8.48,6.61,17.46,9,26.49,1,3.76,0,4.86-3.82,5.14-2.57.18-5.14.42-7.71.69-2.72.29-4.56-.4-5-3.52-.75-4.8-3.56-8.51-7-11.7-3.2-2.95-8.42-1.85-10.85,2.11-3.11,5.08-2.67,10.42,1.5,14.83,2.14,2.26,4.75,4.06,6.93,6.28,5.8,5.87,12,11.44,17.09,17.89,7.36,9.32,4.68,29.58-7.55,36.59-5.19,3-10.2,7-15.82,8.33-17.51,4.21-32.44-5.42-33.77-24.13-.07-1.07,0-2.15-.06-3.23Z" transform="translate(0 0.5)"/><path d="M646,392.92c-1.62-13.12-3.26-26.23-4.84-39.35-1-8.54-2-17.09-3-25.62-.17-1.38-.74-2.72-.86-4.1a3.49,3.49,0,0,1,.73-2.27c.16-.21,1.27.28,1.94.51,3.14,1.05,6.23,2.32,9.43,3.15,7.6,2,15.16,4.15,23.2,3.53,3.18-.24,4.36,1.55,3.87,4.75-1,6.37-1.83,12.76-2.8,19.14-.38,2.46.44,3.83,2.94,4.46s3.89-.46,4.29-2.63c.74-4,1.14-8,1.74-12.06a17.7,17.7,0,0,1,.86-3.76c2.16-5.48,4.41-6.5,10.17-5.61a130.07,130.07,0,0,0,13.8,1.27c2.91.14,4.07,1.37,4,4.2-.41,11.82-.5,23.66-1.19,35.46s-2,23.59-3,35.39c-.17,2-.88,3.39-3.13,3.85-3.67.76-7.31,1.72-10.93,2.71-4.51,1.23-5.53.44-6.06-4.06-1.21-10.15-2.57-20.27-4-30.39-.33-2.4-.91-4.78-4.34-4.33s-5.19,1.94-5,5.5c.28,4.49,1.08,9,1.69,13.43.46,3.42,1,6.82,1.47,10.24.61,4.49-.13,5.36-4.54,5.75-6.86.59-13.74,1.14-20.58,1.93-3,.35-4.61-.87-4.94-3.66-.69-5.77-1.2-11.56-1.78-17.34Z" transform="translate(0 0.5)"/><path d="M806.3,511.15c-.46,4.91-.8,9.84-1.52,14.71a3.71,3.71,0,0,1-2.81,2.28c-6.12-.21-12.23-.72-18.34-1.24-2.41-.2-3.7-1.55-3.35-4.14,2-14.77,4-29.56,6-44.32,1.12-8,2.44-16,3.72-23.92a97.49,97.49,0,0,1,2.15-11.07c.36-1.26,2-2.52,3.27-3.1,2.44-1.07,5.13-1.56,7.66-2.45,2-.68,2.83,0,3.71,1.81,3.33,6.83,6.84,13.58,10.37,20.31.38.74,1.34,1.18,2,1.76.57-.71,1.49-1.34,1.67-2.14,1.41-6.37,2.93-12.73,3.91-19.17.77-5.1,1.2-5.84,6.27-6.14a79.51,79.51,0,0,0,8-.87c1.91-.31,2.74.34,3.17,2.19,2.9,12.34,5.92,24.66,8.81,37,1.76,7.55,3.32,15.14,5.06,22.69,1.91,8.27,3.94,16.51,5.89,24.77.88,3.76.4,4.36-3.36,5.47-4.84,1.43-9.65,3-14.44,4.61-2.59.88-4.08.19-4.67-2.58-2.49-11.65-4.87-23.33-7.48-34.95-.52-2.28-1.92-4.37-2.92-6.54-1.88,1.33-4.16,2.34-5.54,4.07-1.77,2.22-2.72,5.07-4.21,7.54a17.57,17.57,0,0,1-2.67,2.8,17.87,17.87,0,0,1-2.3-3.21c-1-2.36-1.56-4.89-2.56-7.24-.3-.73-1.42-1.11-2.17-1.65-.52.73-1.37,1.41-1.5,2.21q-.95,6-1.54,12.13c-.27,2.78-.28,5.58-.41,8.37Z" transform="translate(0 0.5)"/><path d="M803,404.08c-.71.83-1.35,2.3-2.38,2.67a119.55,119.55,0,0,1-11.54,3.47,7.34,7.34,0,0,1-8.93-5.09c-1.34-4.09-2.82-8.12-4.12-12.22-.95-3-2.85-4.61-6-4-4.7.94-9.42,1.91-14,3.31-1.14.35-2.13,2.3-2.56,3.71-1.17,3.91-1.82,8-3,11.87-1,3.31-1.63,3-4.81,1.75a39.19,39.19,0,0,0-9.68-1.91c-4.48-.52-9-.68-13.49-1.1a6.37,6.37,0,0,1-3-1,9.12,9.12,0,0,1-1.71-2.47,20.78,20.78,0,0,0,2.23-1.45c1.1-.95,2.67-1.83,3-3.05,1.55-5.14,2.68-10.41,4-15.61,1.69-6.43,3.48-12.85,5.2-19.27,3-11.12,6-22.23,8.85-33.38a4.14,4.14,0,0,1,3.94-3.54c9-1.06,17.9-2.22,26.86-3.2,5.46-.6,6,0,7.08,5.3,4,19.83,9.08,39.38,16.5,58.24,1.88,4.78,4.28,9.35,6.42,14C802.27,401.89,802.5,402.71,803,404.08Zm-41.78-39.93c2.69-1.42,6.17.08,6.47-3.64.23-2.85-2.59-6.94-4.37-7s-4.81,5-4.38,7.63C759.12,362.26,760.44,363.17,761.22,364.15Z" transform="translate(0 0.5)"/><path d="M898.42,498.11c.63,4.43,1.3,9.74,2.15,15,.44,2.7-.42,3.8-3.23,3.58l-17.66-1.38c-3.84-.3-6-3-5.43-6.81.5-3.08,1-6.16,1.73-9.2.28-1.2.81-2.79,1.73-3.31,2.62-1.48,3.1-3.89,3.72-6.44q5.87-23.65,11.83-47.29c.13-.52.31-1,.43-1.55,1.37-6.3,1.38-6.24,7.9-7.36,5.82-1,11.61-2.25,17.45-3.16a3.43,3.43,0,0,1,2.89,1.49c3.06,7.19,6.15,14.4,8.75,21.77,3.25,9.21,6.45,18.47,8.93,27.9,2.57,9.76,4.2,19.77,6.39,29.64.7,3.2.06,5.06-3.38,6-5.79,1.54-11.48,3.48-17.24,5.16-2.12.61-2.74-.88-3.29-2.59-2.73-8.59-5.45-17.2-8.39-25.72-1.28-3.71-3.65-4.89-6.94-4.16C899.53,491.28,898.22,492.46,898.42,498.11Zm8.7-29.21.27.06c0,.64.05,1.29,0,1.93,0,1.81.32,3.33,2.57,3.19s5.08-.31,4.88-3c-.26-3.44-1.67-6.81-2.77-10.14a2.38,2.38,0,0,0-2.05-1.07,2.7,2.7,0,0,0-1.51,1.79C907.94,464.05,907.57,466.48,907.12,468.9Z" transform="translate(0 0.5)"/><path d="M535.89,377.2a60.38,60.38,0,0,1-1.89,6.44,27.75,27.75,0,0,1-3.29,6,3.26,3.26,0,0,1-3,.92c-.82-.35-1.23-1.81-1.66-2.85-2.08-5.13-4-10.3-6.23-15.39-.34-.8-1.54-1.25-2.34-1.86a11.53,11.53,0,0,0-1.36,2.72c-1.78,9.19-3.48,18.39-5.17,27.59-.53,2.86-4.55,6.18-7.55,5.79a32.13,32.13,0,0,1-7.18-1.79,4.2,4.2,0,0,1-2.89-5.37c1.93-8.48,4.06-16.93,5.48-25.5,2.58-15.6,4.71-31.27,7-46.91a2.93,2.93,0,0,1,3.21-2.86,89.34,89.34,0,0,0,10.22-.69c2.47-.35,3.46.52,4.17,2.77,2,6.42,4.22,12.79,6.47,19.13.35,1,1.38,1.73,2.09,2.58.58-.93,1.48-1.81,1.67-2.82q1.5-7.92,2.68-15.9c.36-2.46,1.39-3.58,4-3.48,2.22.07,4.45-.57,6.68-.58a6.05,6.05,0,0,1,2.77,1.3c.29.18.36.76.46,1.17,1.94,7.36,3.85,14.72,5.8,22.08,3.09,11.64,6.09,23.31,9.36,34.9A109.43,109.43,0,0,0,569.84,396c1.4,3.42-.26,5.81-4,5.31-6.38-.87-12,2-17.84,3.53-4.29,1.08-5.15.82-5.95-3.5-1.28-6.87-2.48-13.75-3.79-20.62a22.94,22.94,0,0,0-1.21-3.43Z" transform="translate(0 0.5)"/><path d="M935.81,353.09c.34,13.28-3.43,24.47-11.16,34.29a25.59,25.59,0,0,1-19.43,10.13c-3.87.15-8.26-1.79-11.69-3.95-4.44-2.81-9.47-5.45-11.63-10.8-2.45-6.07-5.58-12.08-6.7-18.42-.86-4.82.52-10.22,1.7-15.18,1-4.35,3.12-8.46,4.86-12.62,3-7.17,7.66-12.6,15.26-15.2a14.37,14.37,0,0,0,5.23-3c8.38-8.12,13.79-5.05,20.13,1.26C930,327.1,936.77,342.83,935.81,353.09Z" transform="translate(0 0.5)"/><path d="M772,477c-1,7.91-1.14,15.24-2.89,22.16-3.38,13.29-15.45,20.48-27.5,21.12-3.4.18-7.1-1.48-10.34-3-4.55-2.14-8.8-4.92-13.17-7.45-6.38-3.69-8.58-10.28-11.13-16.52a49.23,49.23,0,0,1-3.05-10.82c-1.4-8.93-2.46-17.92-3.55-26.89-.43-3.46,1.93-5.73,6-6.37,3.26-.52,6.47-1.36,9.74-1.88a40.49,40.49,0,0,1,7.67-.72c2.77.11,4.08,2.37,3.71,5-.55,3.78-1.46,7.67-1.09,11.4.9,9.05,1,18.28,4.79,26.87,1.66,3.72,4.55,5.65,8,6.92a3.6,3.6,0,0,0,3.17-.65,13.23,13.23,0,0,0,3.3-5c1.82-6.3,3.14-12.63,2-19.36-1.45-8.47-2.32-17-3.41-25.57-.35-2.66.68-4.58,3.44-4.89,4.91-.55,9.84-.86,14.77-1.24,2.33-.17,2.93,1.57,3.25,3.29C767.92,454.74,770,466.15,772,477Zm-33.57,37.68-.18,1.63,4,.33.16-1.39Z" transform="translate(0 0.5)"/><path d="M628,360.55c.09,8.8.07,16.64-3.63,23.51-3,5.5-6.49,11.07-11,15.26-5.1,4.74-11.82,4.27-18.25,1.58-5.08-2.12-8-6.46-11.1-10.51-7.34-9.49-10.11-20.63-9.22-32.21a56.77,56.77,0,0,1,5.88-21.6c2.61-5,8-8.94,13.06-12,4.2-2.55,9.32-.26,13.57,1.76a31.3,31.3,0,0,1,16.46,16C626.9,348.34,628.62,354.77,628,360.55Zm-30.17-32.1-.16-1.4-4.31.86.22,1.22Z" transform="translate(0 0.5)"/><path d="M601.84,517.22c.15,7.51.15,7.45-6.74,7.63-3,.08-6,.59-9,.67-3.48.09-3.82-1.08-3.14-4.32a50.54,50.54,0,0,0,.55-10.53c0-8.6-.16-17.2-.41-25.8-.35-11.94-.87-23.88-1.29-35.83-.1-2.65-2.07-5.51.77-7.85,1-.8,2-1.84,3.16-2.1,9.29-2,18.69-3.16,28.08-.91a50.92,50.92,0,0,1,12.73,4.52c10.57,5.84,13.29,19.62,6.22,29.72C627,480.66,619.2,484.76,609,483.93c-2.13-.18-4.07.18-4.32,2.72C603.68,497,602.75,507.42,601.84,517.22Z" transform="translate(0 0.5)"/><path d="M816.64,385.83q-1.47-14.41-2.95-28.83a20.18,20.18,0,0,1-.2-3.87c.8-7.63-1-14.92-2.7-22.25-1.11-4.87-.15-6.12,4.72-6.26,5.11-.14,10.59-1.49,15.28-.14,14.9,4.32,28.78,14,30.15,32.78a46.83,46.83,0,0,1-7.44,29.15c-4.91,7.73-12.91,12.65-21.57,15.71-3.94,1.39-8.35,1.55-12.58,2-2.51.27-2.94-1.77-3-3.7-.14-4.84-.2-9.69-.29-14.53Z" transform="translate(0 0.5)"/><path d="M372.2,334.28c4.51-.46,8.88-1.09,13.27-1.25,1.26,0,3.27.94,3.74,2,5.51,12.24,11,24.53,16.09,36.94,3.38,8.14,6.23,16.5,9.34,24.76.76,2,.13,3.37-2,3.94-4.66,1.27-9.32,2.55-14,3.75-3.56.92-4.68.15-5.16-3.55-.45-3.41-.77-6.84-1.17-10.26-.35-3-2-4.27-5-4.22-3.43,0-6.88-.13-10.31-.34-3.13-.19-5.58.91-6.9,3.75a67.89,67.89,0,0,0-3.79,9.54c-1.07,3.62-1.88,4.48-5.68,3.88-3.59-.57-7.14-1.41-10.73-2-1.24-.2-2.63.32-3.81,0-1.64-.45-3.72-1-4.53-2.23a6.22,6.22,0,0,1-.3-5c5.35-13,11.09-25.81,16.33-38.84,2.19-5.46,3.55-11.27,5.05-17,.75-2.85,2.44-3.83,5.13-3.78C369.3,334.38,370.81,334.31,372.2,334.28Zm8.12,28.05c1.53-1.84,3.33-3.06,3.26-4.16-.09-1.37-1.71-2.65-2.66-4a32.07,32.07,0,0,0-2.87,4.91C377.86,359.62,379.12,360.69,380.32,362.33Z" transform="translate(0 0.5)"/><path d="M699,512.25c.75,4.77,1.4,9.56,2.3,14.3.8,4.24.07,5.91-4.23,5.93-8.67,0-17.34-.78-26-.7-8.32.08-16.42-4-24.89-1.13-2.1.72-3.66-.48-3.65-2.81,0-3.09.18-6.19.45-9.27q2-22.29,4.08-44.57c.3-3.18,1-6.33,1.19-9.52a34.26,34.26,0,0,0-.54-5.3c-.09-1-.41-2.19,0-2.91.31-.52,1.74-.71,2.56-.54a45,45,0,0,0,21.6-.83c2.2-.64,2.82,1,3,2.42.63,6.19,1.42,12.41,1.44,18.62,0,7.84-.75,15.68-1,23.52-.12,4.51,1.45,6.13,6,6a111.42,111.42,0,0,0,13.14-1.22c3.92-.57,4.8,0,4.86,4.05,0,1.29,0,2.59.07,3.88Z" transform="translate(0 0.5)"/><path d="M362.85,294.79c-.19-10.43-.22-20.85-.65-31.27-.27-6.65-1.13-13.28-1.68-19.92a38.08,38.08,0,0,1,.05-3.85c.07-3,1.77-4.26,4.56-4.25,4.91,0,9.83.13,14.74.22,6.77.12,13.54.26,20.31.37,4,.06,4.82.53,5.07,4.56.35,5.46.26,10.95.37,16.42.05,2.42-1.18,3.92-3.52,3.47-6.77-1.29-12.93,1.57-19.36,2.55-.87.13-1.62,1.09-2.42,1.67.76.61,1.44,1.54,2.31,1.79a24.19,24.19,0,0,0,5.09.78c2.94.18,3.82,1.85,3.76,4.53s0,5.34.13,8c.11,2.49-.58,3.61-3.4,2.94-3.89-.91-6.52,1.35-5.08,4.35a6,6,0,0,0,4.25,2.65,52,52,0,0,0,9.65-.36c3.42-.34,6.81-.94,10.21-1.49,2.85-.47,3.65,1.41,3.91,3.56.38,3.31.43,6.65.76,10a47,47,0,0,0,1.07,6c.72,3-.18,4.22-3.25,4.2-8.39-.05-16.78-.18-25.17-.18-5.69,0-11.38.13-17.06.31-2.95.09-4.42-1.07-4.41-4.12,0-4.3-.14-8.6-.22-12.9Z" transform="translate(0 0.5)"/><path d="M399.79,506c1-16.92-1.7-33.41-3.42-50-.35-3.3-.93-6.59-1.05-9.9a4.16,4.16,0,0,1,1.8-2.8,7.86,7.86,0,0,1,3.38-1c6-.89,12.08-2.31,18.14-2.42,8.81-.16,15.33,5.06,20.17,11.72,14.46,19.84,4.48,44.1-12.34,53.88-5.19,3-10.43,6.13-16,8.22-2.71,1-6.27-.16-9.42-.53-.37,0-.78-1.22-.86-1.91C400,509.51,399.9,507.68,399.79,506Z" transform="translate(0 0.5)"/><path d="M483.92,514.28c-6.1.12-12.21.22-18.32.35-2.74.06-2.68-1.82-2.73-3.75-.23-7.83.12-15.76-.95-23.48-1.13-8.06-3.74-15.91-5.49-23.89-.53-2.46-.35-5.07-.48-7.61a26.61,26.61,0,0,0-.27-4.75c-1-4.22,0-5.66,4.23-5.5a15.58,15.58,0,0,0,2.9-.14c5.94-.92,11.85-2,17.81-2.76,5.74-.71,11.52-1.11,17.29-1.45a2.84,2.84,0,0,1,2.14,1.69c1,4.19,1.76,8.42,2.46,12.67.6,3.67-.3,4.3-3.91,4.63-3.83.35-7.6,1.38-11.42,2-2.18.36-4.43.41-6.61.8-1,.18-2.27.63-2.63,1.35a3.09,3.09,0,0,0,.61,2.82,3.63,3.63,0,0,0,2.85.6,29.9,29.9,0,0,0,3.92-1.44c3.4-1.15,4.59-.62,5.43,2.74.88,3.55,1.55,7.16,2.22,10.75.47,2.49-.12,4.17-3.16,4.37a60.56,60.56,0,0,0-7,1.23c-.62.12-1.49.16-1.8.57-2.1,2.76.13,5.31.77,7.84a3.93,3.93,0,0,0,3.23,2c5.74-.71,11.45-1.72,17.14-2.76,5-.92,5.79-.34,6.25,4.67.33,3.51,1,7,1.24,10.5.18,2.62-1.33,3.68-4,3.94-5.34.51-10.63,1.4-16,2.09-1.9.25-3.83.34-5.75.51Z" transform="translate(0 0.5)"/><path d="M426.84,378.4c.1-11.94.13-24.31.36-36.68a28,28,0,0,1,1.44-7.89,4.11,4.11,0,0,1,3-2.15c4.5-.33,9-.22,13.53-.41,2.39-.1,3,1.31,3.1,3.21.34,4.83.59,9.67,1,14.5.8,9.64,1.69,19.28,2.49,28.93.17,2,1.11,3.35,3.14,3.4,4.5.11,9,.07,13.51,0,2.57,0,5.15-.35,7.71-.24s3.85,1.68,3.83,4.26c0,4.64-.28,9.27-.09,13.89.23,5.72-6.07,11.34-12.19,10.62-10.59-1.24-21.16-2.09-31.24-5.89a17.39,17.39,0,0,0-3.19-.4,4.74,4.74,0,0,1-4.37-4.47C428.19,392.36,427.55,385.61,426.84,378.4Z" transform="translate(0 0.5)"/><path d="M472.61,302.57l-16.19,3.75c-.62.15-1.33.54-1.87.37-6.88-2.14-13.05,1.85-19.64,2.19-1,.05-1.91.32-2.88.38-5.2.37-6.44-.94-6.88-6-.86-10.06-2-20.1-3-30.15-.87-8.57-1.7-17.14-2.64-25.69a59.53,59.53,0,0,0-1.35-7c-.56-2.4.64-3.37,2.75-3.8,4.51-.9,9-1.73,13.51-2.78,3.15-.74,4.15-.39,4.27,2.7.54,13.55,5.63,26.05,8.85,39,.65,2.61,3.61,4.06,7.32,4,5.26-.08,10.52,0,15.78-.18,2.89-.08,4.46,1.28,5,4,1,5.39,2,10.77,2.91,16.18.48,3-.52,3.93-3.5,3.83l-2.26-.12Z" transform="translate(0 0.5)"/><path d="M931.92,312.53c-4.36-2.66-8.71-5.36-13.1-8a21.62,21.62,0,0,0-3.73-1.78c-2.84-1-3.38-2.35-1.47-4.75a34.47,34.47,0,0,1,4.16-4c3.85-3.44,7.79-6.79,11.57-10.3a10.29,10.29,0,0,0,1.95-3.29c1-2.09,2.43-2.44,4.11-1,3.15,2.61,6.26,5.27,9.16,8.14a3.63,3.63,0,0,1,.51,3.4C940.86,298.11,936.42,305.2,931.92,312.53Z" transform="translate(0 0.5)"/></g><g id="Xrfuvy"><path class="cls-2" d="M704.6,589.3a19,19,0,0,0-1.61,1.47c-.94,1.09-1.7.83-2.43-.2,0-.07-.13-.13-.15-.2-.78-3.06-3.37-3.52-5.85-3.79-3.78-.41-6.31-2.11-7-6s-.17-7.57,3-10.41c3.34-3,5.7-3.59,8.5-1.83.78.48,1.16,1.6,1.71,2.44.32.5.51,1.2,1,1.48a3.45,3.45,0,0,1,1.51,4.57c-2.12,4.22-1.27,7.93,1.16,11.59A3.66,3.66,0,0,1,704.6,589.3Zm-8.25-8.62a21,21,0,0,0,.49-3.49,2.8,2.8,0,0,0-.76-1.85,1.72,1.72,0,0,0-1.72,0c-.63.82-1.58,2.2-1.28,2.76C693.6,579.12,695,579.67,696.35,580.68Z" transform="translate(0 0.5)"/><path class="cls-2" d="M797.1,566.3a8.2,8.2,0,0,0,1.5-.17c2.56-.75,3.14.7,3.11,2.77a39.69,39.69,0,0,0-.12,5.86,46.16,46.16,0,0,0,1.72,6c.23.8.32,1.65.5,2.47.42,1.94-.28,3-2.29,3.38s-3-.35-3.42-2.2a9.22,9.22,0,0,1-.45-2.22c.06-2.31-1.45-2.42-3.14-2.47-2-.06-2,1.29-2.11,2.68,0,.84-.18,1.68-.18,2.52,0,2.5-1.83,2.47-3.52,2.5-2.05,0-1.94-1.5-1.88-2.85.07-1.51.27-3,.42-4.53.32-3.48.7-7,.94-10.43.12-1.62.34-2.66,2.42-2.64a45.92,45.92,0,0,0,6.47-.8Zm-4,9.19,3.59-1.51-1.59-3.34-1.13.21C793.71,572.1,793.47,573.35,793.07,575.49Z" transform="translate(0 0.5)"/><path class="cls-2" d="M747.76,576.22a10.29,10.29,0,0,1,5.8-10.2c4-2.09,9.63,1.07,10.18,5.52.41,3.29,1.45,6.57-.15,9.94-1.49,3.13-2.77,4.26-6.13,4-2.87-.23-5.63-.18-7-4C749.87,579.69,747.15,578.56,747.76,576.22Zm9.78-3.36c-2.5-.08-3.44.94-3.15,2.75s1.93,3.17,3.42,2.44C761.61,576.17,756.42,574.85,757.54,572.86Z" transform="translate(0 0.5)"/><path class="cls-2" d="M608.2,576.35a39.1,39.1,0,0,0,4.23,4.5c2,1.53,2.38,2.86.39,4.6a7.17,7.17,0,0,0-.87,1.26l-6.3-5.74c.15,2.29.3,3.92.35,5.55,0,1.21-.33,2.26-1.87,2-1.25-.23-3.14.66-3.29-1.69-.39-6.26-.7-12.53-1.16-18.78-.15-2.09.74-2.74,2.62-2.63,2.18.12,4.37.22,6.55.33s3.94,1,4.37,3.39a6.39,6.39,0,0,1-3.16,6.41C609.42,575.85,608.75,576.11,608.2,576.35Z" transform="translate(0 0.5)"/><path class="cls-2" d="M571.48,573.62c.12-1.28.25-2.44.32-3.6.15-2.42,1.45-3.42,3.8-2.74a1.79,1.79,0,0,1,1.08,1.33c0,3.86-.24,7.72-.27,11.58a33.86,33.86,0,0,0,.48,4.59c.15,1.15.38,2.45-1.35,2.23-1.52-.19-3.88.92-4.11-2-.13-1.66,0-3.33,0-5.06-2.84.06-4.07,1.13-4.09,3.82,0,3.87-1.19,4.64-5.24,4V567.46l1.92.26c3.58.4,3.58.4,3.52,3.95C567.47,573.88,567.72,574,571.48,573.62Z" transform="translate(0 0.5)"/><path class="cls-2" d="M677.15,579.35c-.91,1.37-1.82,2.75-2.74,4.11-.26.39-.71.71-.84,1.13-.63,2.18-2,2.85-4.27,3.1-5.92.64-9.35-2.81-8.4-8.83.15-.92.29-1.84.45-2.75.75-4.39,3.27-6.93,7-7.23,3.2-.25,6.37,3,7.66,6.37a21.33,21.33,0,0,1,.73,3.69ZM667.43,582c1.26-1.58,2.42-2.48,2.71-3.6.16-.63-1.12-1.63-1.75-2.46a20.32,20.32,0,0,0-2.51,3.31C665.69,579.63,666.59,580.57,667.43,582Z" transform="translate(0 0.5)"/><path class="cls-2" d="M778.74,581a9.23,9.23,0,0,1-.91-1.27c-.38-.78-.68-1.62-1-2.43a15.26,15.26,0,0,1,2-.75c.65-.15,1.37,0,2-.2,1.63-.43,2.19.38,2.23,1.81.08,2.55.21,5.11.09,7.65,0,.57-1.15,1.63-1.57,1.54-3.51-.74-7-1.64-10.42-2.63-.52-.14-.95-.93-1.23-1.51a15.94,15.94,0,0,1-.93-12.44c.92-2.78,6.91-6.51,9.82-6,.61.09,1.61,1,1.54,1.42-.25,1.39,1.43,3.23-.92,4.19a13.65,13.65,0,0,0-3.73,2c-2.39,2.06-2.25,5.11.12,7.13.75.64,1.48,1.3,2.22,1.95Z" transform="translate(0 0.5)"/><path class="cls-2" d="M589,587.5c-4,0-5.37-1-6-3.7-.07-.31-.18-.72-.41-.86-2.89-1.71-2.39-4-1.26-6.52a6.23,6.23,0,0,0,.62-1.9c.62-5.38,3.76-7.1,8.88-5.61,6.32,1.84,6.58,9.93,3.75,14.08C593,585.26,591,587.29,589,587.5Zm-3-9.45c1,.9,2,2.08,2.21,1.94,1-.52,2.32-1.45,2.33-2.25s-1.35-1.68-2.12-2.52Z" transform="translate(0 0.5)"/><path class="cls-2" d="M739.51,576.05l8.51,7.66c-2.22,2.33-3.49,2.44-5.67.69-1.24-1-2.51-2-4.23-3.32,0,1.83-.07,3.26,0,4.68s-.67,1.9-2,1.83-2.35,0-2.43-1.76q-.45-9.17-1.1-18.32c-.11-1.69.57-2.3,2.16-2.24s3.38-.06,5.06.09c1.95.17,3.95.41,4.45,2.91a6.08,6.08,0,0,1-2.79,6.76Z" transform="translate(0 0.5)"/><path class="cls-2" d="M615.45,588.48c1.41-4.54,2.79-9.12,4.27-13.67.8-2.48,1.72-4.93,2.69-7.35a3,3,0,0,1,1.41-1.48c.28-.1,1.11.62,1.36,1.13.6,1.2,1,2.51,1.49,3.76,1.25,3,2.59,6,3.77,9,.83,2.13,1.45,4.35,2.18,6.56-2.48,1-3.81.53-4.87-1.21-1.19-1.94-5.37-1.48-6.46.64a5.42,5.42,0,0,0-.29.7C619.63,590.16,619.63,590.16,615.45,588.48Z" transform="translate(0 0.5)"/><path class="cls-2" d="M706.24,577.44c-.16-2.35-.27-4.71-.51-7.06-.13-1.35.47-1.93,1.7-1.87s2.88-.71,3.25,1.37a22,22,0,0,1,.43,3.51c0,1.55.81,2,2.2,2.17a2.05,2.05,0,0,0,2.47-2.15,41.09,41.09,0,0,0,.05-4.3c0-1.68,1-1.86,2.34-1.84s2.38.45,2.25,2c-.25,3-.43,6-.94,9-.75,4.38-4,6.82-8.45,6.76-2.18,0-4.66-2.67-4.92-5.31a21.49,21.49,0,0,1,0-2.27Z" transform="translate(0 0.5)"/><path class="cls-2" d="M644.52,587.94c-3.5-.57-6.51-1.47-8.67-3.9-3.18-3.59-3.36-6.46-.73-10.57,2.33-3.64,5-7,9.82-7.55,1.55-.17,2.9-.28,3.12,1.75.18,1.62.92,3.33-1.76,3.83a13,13,0,0,0-5.33,2.16c-1.08.81-2.17,2.73-1.94,3.89.29,1.44.8,3.6,3.25,3.68a16.87,16.87,0,0,1,3.18.81c2.23.53,3.48,2.15,2.54,4.11C647.55,587.09,645.72,587.37,644.52,587.94Z" transform="translate(0 0.5)"/><path class="cls-2" d="M651.92,582.54c.21-4.8.49-9.59.61-14.39,0-1.79.88-2.44,2.47-2.44s2.48.59,2.42,2.42c-.16,5.53-.3,11.07-.25,16.6,0,2.69-1.7,2.65-3.51,2.78-2.42.17-1.83-1.63-1.91-3a17.09,17.09,0,0,1,.11-2Z" transform="translate(0 0.5)"/><path class="cls-2" d="M729,584.9c-.77.09-1.19.12-1.6.19-3.38.55-3.35.56-3.51-2.77a39,39,0,0,1-.35-4.28c.19-3.15.54-6.29,1-9.43.06-.47.77-1.21,1.18-1.21a5.09,5.09,0,0,1,2.66.67c.44.27.64,1.2.64,1.83C729,574.84,729,579.77,729,584.9Z" transform="translate(0 0.5)"/></g></svg>