<svg id="Layer_1" data-name="Layer 1" xmlns="http://www.w3.org/2000/svg" viewBox="0 0 1366 768"><defs><style>.cls-1{fill:#d50056;}</style></defs><title>1</title><rect class="cls-1" width="1366" height="768"/><g id="AUu2Xl"><path d="M543.27,768c.11-12.29.51-24.6.23-36.89-.2-8.78-1.41-17.55-2-26.33-.29-4.44-.16-8.92-.29-13.37-.15-5-.47-10-.55-15.06-.13-7-.57-14,0-21,.58-7.42,2.19-14.75,3.27-22.14a16.82,16.82,0,0,0-.28-3.2c-.19-3.08-.75-6.22-.41-9.25.48-4.22-2.89-6.2-4.66-9-3.58-5.7-8.29-10.74-11.44-16.64-2.32-4.33-3.45-9.51-4.13-14.44-1.2-8.77-2.77-17.33-5.83-25.72-5.07-13.92-4.1-27.47,3.77-40.38,1.79-2.94,2.77-6.41,3.89-9.72a14.91,14.91,0,0,1,6.58-8.33c5.81-3.54,9.25-8.56,9.66-15.55.48-8,3.25-14.79,10.42-19.19,5.19-3.19,6.72-8.05,6.88-13.89.31-11.6,1-23.18,4.53-34.38,1.83-5.86,5.64-9.42,11.56-11.41,5.32-1.78,10.33-4.51,15.45-6.88a29.43,29.43,0,0,0,4.43-2.46c1.91-1.34,3.65-2.92,5.52-4.32,4.1-3.1,8-6.63,12.43-9.1,4.8-2.67,10.16-4.33,15.53-6.54-2-3-4-5.74-5.59-8.65-1.86-3.35-3.35-6.89-5.08-10.31a9.34,9.34,0,0,0-2.16-3.16c-13.75-10.63-17.09-30.93-7.93-46,4.17-6.9,9.45-12.07,17.07-14.76,2.49-.88,3.26-2.44,3.43-5.18a54,54,0,0,1,2.31-11.3,115.24,115.24,0,0,1,4.16-12,17.45,17.45,0,0,1,3.23-4.72c2.37-2.65,5.12-5,7.38-7.71,6.11-7.34,14.43-9.6,23.36-10.73a43.63,43.63,0,0,0,8.08-1.5c6.49-2.13,16.22.56,21.25,6,1.26,1.36,2.88,3,4.55,3.28,12.72,2.31,17.17,12.43,21.15,22.61,2.32,5.92,3.44,12.3,1.53,18.84-.9,3.08,1.46,6.43,4.67,7.56,11.25,3.94,18.09,16.57,16.6,28.48-1.27,10.09-6.18,17.79-13,24.75-.59.61-1.4,1.1-1.76,1.82a61.11,61.11,0,0,1-16.65,20.22c-1.55,1.25-1.64,6.13-.5,8.35a9.56,9.56,0,0,0,7.17,4.35c6.67-.08,11.86,1.65,15.27,7.6a5.3,5.3,0,0,0,1.23,1.32c6.19,5.17,12.36,10.38,18.64,15.44a4.59,4.59,0,0,0,3.49.87c3.48-.86,6.85-2.17,10.3-3.18a39.77,39.77,0,0,1,6-1.27c3.45-.45,7-.41,10.36-1.11,9-1.88,17-.76,23.21,6.89.5.62,2.14.81,3.06.53,10.19-3.06,15.74-.16,19,10a7.35,7.35,0,0,0,1.81,3c7.68,7.15,8.59,14.1,2.9,23.1-3,4.8-6.3,9.47-9,14.45s-5.41,10.18-5.69,16.22a11.26,11.26,0,0,1-5.68,9.21c-4.45,2.79-5.61,7.89-2.75,12.47a105.73,105.73,0,0,0,6.22,8.9c3.26,4.21,4.55,8.74,2.92,13.91-1.12,3.56-2.2,7.14-3.5,10.64-1,2.55-1,4.69.66,7.12,4.57,6.69,7.73,13.8,6.82,22.33-.6,5.62-.46,11.31,1.93,16.74a12.25,12.25,0,0,1,.73,6c-.82,7.56-1.64,15.14-3,22.6-.53,2.79-2.49,5.38-4.11,7.86-1.94,3-4.52,5.52-6.3,8.57-3.24,5.54-7,10.24-13.08,13.06-7,3.29-10.23,10.18-9.92,17.88.26,6.73-.32,13.5-.69,20.24-.53,9.49-1,18.88-.26,28.5.7,8.68-1.52,17.69-3.14,26.43-1,5.24-2.07,10.26-1.69,15.71.53,7.57.13,15.21.13,22.82H774.65c0-1.69-.07-3.38,0-5.07.32-13.79-1.74-27.63,3-41.26,2-5.63,2.94-12.5,1.64-18.18-2.09-9.06-.36-17.76-.25-26.6.1-8,.94-16.11.7-24.14-.12-3.93.14-7.26,2.26-10.63a19.74,19.74,0,0,0,2.25-6.81c.68-3.57,1-7.21,1.46-11,.74.29,1.33.34,1.57.65,2.56,3.36,5.39,2.85,8.44.76a28.5,28.5,0,0,1,2.6-1.28c7.19-3.89,9.23-11.38,5.08-18.36a17.85,17.85,0,0,1-1.12-3q-2.73-7.46-5.46-14.92c-.95-2.58-2.33-2.49-4.44-1.11-1.41.92-4,2.15-4.79,1.55-3.37-2.49-7.22-3.06-11-4.15-4.8-1.38-9.35-3.63-14.09-5.27-.82-.28-2.78.41-3,1-1.27,4.07-2.73,8.21-3.11,12.41-.5,5.51-.08,11.1,0,16.66,0,3.46-.08,6.93.19,10.37.86,10.8,1.88,21.59,2.79,32.38a12.48,12.48,0,0,1-.29,2.56c-1.27-4.48-.1-9.48-4.85-14,0,5.7,0,10.42,0,15.14q.38,36.23.76,72.44c.06,6.36-.83,12.65-4.29,18.09-2.95,4.63-3.25,9.47-2.73,14.61.24,2.4.42,4.81.63,7.21H721c1.67-3.44,3.38-6.85,5-10.33a3.08,3.08,0,0,0,0-2.4c-4.07-7.23-2-13.43,2.59-19.64,6.72-9.09,14-17.87,15.54-29.81s4.52-23.6,4.94-35.46c.67-19,2-37.88,4.48-56.7a34.52,34.52,0,0,0-.27-6.24l-1.46-.07c-.8,2.79-1.6,5.59-2.41,8.38l-1.44-.23c-.88-6.53.85-13.06,1-19.59s.73-13.09,1.19-20.79c-1.38,1.76-2.1,2.63-2.78,3.53-10.71,14.28-21.32,28.64-32.15,42.83-4.66,6.11-9.68,11.95-14.7,17.76-1.87,2.16-1.92,4-.84,6.56,2.11,4.93.93,7.55-3.93,9.53a15.09,15.09,0,0,0,1.06,1.81c3.3,4.15,3,5.93-1.31,9a12,12,0,0,0-2.6,2.89c-3.13,4.47-5.53,9-12.21,10-4.74.73-9.27,4.3-13.38,7.3-7,5.12-12.45,12.61-21.64,14.68-.75.17-1.31,2.18-1.44,3.38,0,.35,1.81,1.38,2.67,1.25a59.13,59.13,0,0,0,7-1.84c.31,2,.57,3.66.91,5.82-4.18-1.22-5,1-5.5,3.91-.59,3.45-1.69,6.83-2.06,10.29-.21,1.86,0,4.5,1.18,5.62,1.88,1.83,2,3.49,1.78,5.78-.91,10.92-1.65,21.85-2.45,32.78h-8c1.25-5.14,2.61-10.26,3.71-15.43s3.38-10.45,2.44-15.15a70.59,70.59,0,0,1-1.45-21.09c.63-6.23-2.72-9.49-7.71-12.48-2.28,2.41-5.07,4.45-6.58,7.19a15.65,15.65,0,0,1-9.22,7.61c-8.84,2.84-12.83,9.51-15,17.84a14.78,14.78,0,0,1-1,3.1c-1.41,2.76-2.57,5.75-4.49,8.12-3.59,4.41-5.88,9-5.06,14.87a42.54,42.54,0,0,1,.09,5.42H589c-1.59-23.7,7-46.13,7.66-69.55l1.81.14c2.81,15.31-1.91,30.56-1.45,45.89,1.06-1.38,2.09-2.76,2.23-4.22.79-8.17,4.7-15.16,8-22.39a5,5,0,0,0,.51-2.74c-1-5.63-2.08-11.23-3-16.86a6.51,6.51,0,0,1,.23-3.54c2.51-5.64,5.19-11.21,7.87-16.92l2.6,1.85c.89-9-2.43-17.81,2.71-26.32,1.2,2.43,2.17,4.42,3.31,6.75l5.78-28.46,1.06-.07,3.78,7c2.4-3.68,1.47-6.49.31-9.28a44.44,44.44,0,0,0-9.15-13.64c-8.5-9-16.16-18.83-24.19-28.29-2.41-2.84-4.92-5.59-7.74-8.78-2,1.77-5.13,3.23-5.36,5.05-.49,3.94-3.09,6.36-4.82,9.38-5.8,10.15-11.78,20.2-17.54,30.38-3,5.35-6.27,10.69-8.43,16.4-3.43,9.06-3,27,.09,37a3,3,0,0,1,0,1.08c-.34,3.48-.87,7-1,10.43-.2,5.64-.39,11.3-.12,16.93.47,9.75,1.58,19.47,1.91,29.22.38,11.19.2,22.41.26,33.61ZM703.93,461.26c-7.68-4.05-12.58-9.58-17.1-15.61-1.84-2.46-3.76-5.5-6.37-6.65-6.13-2.73-12.77-4.29-19.06-6.69a35.49,35.49,0,0,1-9.4-5.05c-5.16-4.11-9.94-8.7-14.82-13.16-2.12-1.94-4.11-4-6.09-6.13-2.25-2.36-4.34-4.86-6.67-7.13-.8-.77-2.12-1-3.2-1.46l-1,.83q2.73,7.1,5.47,14.18c-1.34.06-2.13-.14-2.47-.65-2.23-3.29-4.81-6.45-6.43-10-3.27-7.23-3-7.3,4.26-11.18,1.93-1,3.72-2.33,6.41-4-1.69-.4-2.34-.8-2.73-.62-4.45,2.11-9,4.13-13.24,6.54-2.12,1.18-2.1,3.39-.85,5.41,3,4.83,5.93,9.68,9,14.43,3.56,5.45,7.22,10.84,10.93,16.19,1.76,2.55,3.72,4.95,5.6,7.42l1.23-.85-9-16.32,1.29-.73c4.24,6.26,8.68,12.39,12.64,18.82,2.9,4.71,4.68,10.14,7.84,14.62,2.58,3.66,6.46,6.39,9.76,9.54l.81-.79q-1.66-2.93-3.35-5.83l1-.75a15,15,0,0,1,3,2.5q10.49,14.78,20.77,29.67c.39.57.24,1.51.35,2.28-.87,0-2.08.27-2.55-.18-1.46-1.41-2.49-3.25-3.94-4.66-8.9-8.7-18-17.2-26.76-26-6.46-6.49-13.39-12.78-18.53-20.25-4.23-6.17-8.76-12-13.37-17.88-3-3.79-6-7.61-8.56-11.66-3.69-5.73-7.57-6.29-13.5-2.74a92.17,92.17,0,0,1-15.7,7.11c-2.8,1-4.89,2.18-5.26,5.18-1.26,10.29-2.77,20.56-3.45,30.88-.34,5.25-1.09,10.13-4.17,14.33a31.51,31.51,0,0,0-6.3,22.44c.21,2.36.85,3.26,3,3.4,2.34.14,4.68.33,7,.5l.3.89c-1,.72-1.88,1.53-2.91,2.15-2.28,1.37-4.78,2.43-6.87,4-3.05,2.32-6.22,4.7-7,9a14.87,14.87,0,0,0,4.22-2.5c4.2-3.13,7.94-7.12,14.19-4.53,2.79,1.16,5.41,1.79,7.3,4.63,1.57,2.35,4.3,3.92,6.68,6-2.3,1-4,2.19-5.94,2.52-4.33.76-7.95,5.19-12.84,2.8-3-1.49-5.51-.34-8,1.1-5.5,3.19-11.31,5.84-14.94,11.63-4.45,7.1-5.15,14.65-4.06,22.65,1.16,8.6,2.5,17.19,3.34,25.83,1,9.86,9.36,16.85,18.36,16a8.27,8.27,0,0,1,2.39.6c-1.33,4.91-5.52,6.1-8.92,8.22-2.87,1.78-4.84,1.07-6.63-1.67-2.56-3.94-5.52-7.62-8-11.61a19.36,19.36,0,0,1-2.19-6.36c-1.72-8.74-3.2-17.53-4.92-26.28-1.22-6.24-2.92-12.4-3.94-18.67a8.63,8.63,0,0,1,2.82-8.4l1.13.26-.84,7.61,1.28.37,3.84-9.05C542,519,542.82,509,550.49,502.21a20.36,20.36,0,0,0,4.32-5.33A13.29,13.29,0,0,0,556,491.5c.06-.7-.94-1.48-1.47-2.23a8.62,8.62,0,0,0-2.2,1.65c-3.47,5.06-6.8,10.23-10.31,15.27-.59.83-1.93,1.1-2.86,1.73s-2.38,1.29-2.83,2.27c-1.5,3.28-2.11,7.08-4.05,10-6.2,9.37-7.53,19.28-3.71,29.66a124.58,124.58,0,0,1,6.85,29.92c.41,3.78,2.15,7.54,3.88,11a59.59,59.59,0,0,0,6,8.93c2.77,3.65,5.73,7.17,8.4,10.49,13.22-7.52,17.33-20.7,24.42-31.86a6.29,6.29,0,0,0-4,1.25c-3,2.36-5.76,5.09-8.91,7.24-4.84,3.32-12.94,1.37-16-3.64a8.14,8.14,0,0,1-.54-2.68,7,7,0,0,1,2.59-.14c2.12.7,4.13,1.44,6.38-1.07-2.44-2.49-4.91-4.86-7.18-7.41a10.26,10.26,0,0,1-2.06-3.71c-1.83-5.74-3.44-11.55-5.27-17.3-1.58-4.95-1-9.79.5-14.58.26-.86,1.38-1.45,2.11-2.16.57.83,1.47,1.6,1.64,2.51a20.13,20.13,0,0,1,.22,5A48.41,48.41,0,0,0,554,569.22c1.7,3,4.34,5.53,6.55,8.28l1.12-.72c-.78-5.81-1.53-11.62-2.41-17.41a2.82,2.82,0,0,0-1.47-1.89c-2.33-1-2.8-2.73-2.73-5,.08-2.77-.38-5.63.11-8.32,1.14-6.24,2-12.68,8.21-16.54,2.76-1.72,5.3-3.79,7.92-5.72,6.59-4.85,13.7-7.09,22.08-5.82,4.89.74,7.87,3.91,11.5,6.4a19.29,19.29,0,0,0,3,1.39l.66-1.08a44.22,44.22,0,0,0-16.44-14.45c-4.46-2.34-8.74-4.54-8.81-10.77,9.82-3.62,16.17,3.38,24,9-.63-2.86-1.12-4.43-1.3-6-.85-7.54-5.4-12.55-11.15-16.89-2.83-2.15-5.33-4.73-8-7.12l1-1.28,9.38,4.47.56-.82-3.54-10.54,3.5.88c-.74-5.41-1.71-10.44-2-15.51s-2.06-10.41,1.61-15.79l1.34,9a114.34,114.34,0,0,0,3-13.83c1.21-7-.61-13.65-2.37-20.31a10,10,0,0,1,.13-2.92c.95.52,2.21.83,2.76,1.62a13.06,13.06,0,0,1,1.81,4.29,59.3,59.3,0,0,1-.08,27.28c-1.67,7.23-2.5,14.51-.25,21.83a5.16,5.16,0,0,1-.31,3.48,15.2,15.2,0,0,0-.2,13.27c3.61,7.86,8.21,15.27,12.46,22.84,2.64,4.71,6.92,8.46,6.35,14.87-.54,6.05.56,12.24.28,18.35-.42,9.14,5.67,14.77,10.53,22.05,2.93-8.41-.2-16-.11-23.61a2.88,2.88,0,0,1,1.62,1.45c2.82,9.12,5.33,18.25,6.12,27.88s2,19.24,7.89,27.53c2,2.91,3.11,3.28,4.74.21,2.42-4.57,4.58-9.29,6.55-14.08a11.94,11.94,0,0,0,.76-5.8c-.57-4.71,1.65-11,5-13,.37,1.17.74,2.32,1.1,3.47l1.41.13c.62-2.79,1.15-5.6,1.87-8.36,1.17-4.42,2.46-8.8,3.69-13.19l1.63.2c.45,3,.91,6,1.46,9.67,1.1-1.16,1.76-1.58,2-2.17,3-7,6.15-13.89,9-20.94,1.21-3-.49-7.16-2.78-8.27-2.68-1.32-5.21-3-8-4.08-4.34-1.65-8.81-4-13.28-4.11-9.74-.29-19.52.76-29.28,1a24.38,24.38,0,0,1-7.7-1.55c-.92-.29-1.5-1.67-2.23-2.55a13.3,13.3,0,0,1,2.64-1.91c1.33-.55,2.89-.54,4.18-1.14,3.25-1.51,6.93-2.52,9.34-6.6-5-1-9.34-1.78-13.62-2.82-4.56-1.11-8.12-3.63-10-8.23,3.27,1,6.17,2.78,9.33,3.56,2.37.59,5.07-.14,7.62-.29a56.27,56.27,0,0,0-2.29-6.78c-.45-1-1.87-1.44-2.76-2.24-2-1.79-3.91-3.64-5.87-5.47l.54-.82,4.51.22c-2.55-5.2-8.58-7.29-10-13.33,1.14.19,1.85.09,2.2.4,4.8,4.36,10.71,8,14,13.33a77.8,77.8,0,0,0,22.47,23.19c.48.32,1.25.22,2.67.45-3.65-7.93-11.07-11.85-15.54-18.12l.69-.8,15,8.87.71-1c-2.54-5.33-8.72-7.37-11.74-12.42a10.52,10.52,0,0,1,4,1.75l34.11,22.4c5.76.07,8.89,3.08,10.33,8.57.52,2,2.28,1.54,3.12-.18a9.22,9.22,0,0,0,.64-3.16c.29-2.9.5-5.8.82-9.68,1.74,2,2.78,3.23,3.92,4.4.87.89,1.88,1.67,2.82,2.49.74-1.16,1.82-2.23,2.15-3.5.85-3.3,1.36-6.69,2-10.05l.56-.17c.67,2.23,1.34,4.46,2.29,7.59a27,27,0,0,0,2.39-3.12c3.71-7.44,7.47-14.86,10.93-22.41a7.53,7.53,0,0,0,0-5.23c-1-2.72-2.48-5.15-.81-8.18.34-.62-.29-2.11-.89-2.85-1.22-1.48-2.81-2.66-4.11-4.08s-2.54-3.1-3.8-4.66l1.11-1.16,11.92,8.27.84-.89c-3.16-7-10.49-11.85-12-20.86,3.1,2.1,5.21,4.17,7.73,5.05s5.74.74,9.48,1.13L731,426.52l.8-.58L739,431.2l.69-.76-3.73-5.12.74-.75a35.69,35.69,0,0,0,5,3.15c.82.36,2.72.06,3-.52a13.76,13.76,0,0,0,1.34-5.08c.19-2.22.93-5.41-.21-6.56a178.67,178.67,0,0,0-14.42-12.46c-2.33-1.9-4.94-2.46-7.59,0-.27-1.36-.46-2.34-.87-4.4-1.53,1.94-2.58,3.13-3.46,4.43-2.24,3.29-3.83,7.27-6.71,9.8a203.21,203.21,0,0,1-18.36,13.8c-5.3,3.67-6.72,9.64-3.4,15.33,3,5.16,8,7.85,12.68,11.1a86.09,86.09,0,0,1,9.88,7.84c1.3,1.23,1.65,3.48,2.43,5.26l-1,.46-12.09-9.6C703.28,458.65,703.5,459.51,703.93,461.26ZM677.55,640.51c1.33-.07,2.12-.35,2.68-.1,4.06,1.79,8,3.72,12.11,5.53a14.23,14.23,0,0,0,2.87.63c-.13-1,.11-2.34-.45-3a31.2,31.2,0,0,0-5.38-4.76c-9-6.07-18.19-11.82-27-18.13a32,32,0,0,1-8.18-8.9c-4.73-7.57-9.07-15.39-13.22-23.3-6.63-12.66-15.13-24.35-19.82-38a1.15,1.15,0,0,0-.39-.6c-5-2.78-6.26-8.18-8.59-12.67-4.29-8.26-10.33-13.15-19.84-14.15-10.26-1.08-19.79,9.16-16.06,18.79a112.73,112.73,0,0,0,11.81,21.91c5.45,8.09,11.84,15.56,18,23.16,7.75,9.59,15.36,19.3,23.58,28.47,7.73,8.63,14.52,17.73,18.93,28.5,1.64,4,3,8.18,5.12,11.93a187.47,187.47,0,0,0,11.84,18.93c2.4,3.26,7.06,3.26,10.29.79-7.72-1.88-11.94-7-14.24-14.22,8.24,1.88,13.64,8.9,21.52,11.67a9.15,9.15,0,0,0-2.49-4c-3.25-2.89-6.69-5.56-9.88-8.5-.8-.73-1-2.16-1.4-3.26,1.33-.13,3-.82,3.94-.28a25.3,25.3,0,0,1,4.86,4.25c1.72,1.69,3.13,3.78,5.07,5.13,1.61,1.1,5.27,2.22,5.48,1.87,1.56-2.71-1.5-3.4-2.8-4.88-3.4-3.86-6.94-7.6-10.27-11.53-.49-.58-.15-1.88-.19-2.85.87.17,1.93.09,2.58.57a49.21,49.21,0,0,1,4,3.64c2.85,2.6,5.64,5.28,8.62,7.74.69.57,2,.37,3.06.52a32.14,32.14,0,0,0-1-3.07c-.17-.39-.76-.59-1.08-.94-4.11-4.38-8.24-8.73-12.26-13.2C678.63,643.33,678.3,642,677.55,640.51Zm98.19-224.6a27.6,27.6,0,0,0-2.63,3.55c-1.32,2.58-2.35,5.3-3.72,7.85-.5.93-1.62,1.52-2.46,2.26a14.39,14.39,0,0,1-1-3.1c-.17-1.82,0-3.66,0-5.5l-1.28-.05c-2,7.7-3.55,15.63-10.85,20.8-.06-1.06-.12-1.89-.18-2.82-.51.21-.84.23-.93.39q-8.1,13.27-16.16,26.57a22.17,22.17,0,0,1-1.81,2.51,25.34,25.34,0,0,0-2.86,3.41c-.92,1.67-1.26,3.65-2.18,5.32-7,12.57-12.46,25.65-13.54,40.17-.17,2.18.09,4.89,1.28,6.56,2.55,3.55,3.11,7.45,3.68,11.52a17.32,17.32,0,0,0,1.63,4.07l1.54-.38c.21-4.82,2.19-9.54-.47-14.5-1.33-2.49-2.85-5.34-2.81-8,.17-11.41,3.68-22.07,8.67-32.25.21-.44.77-.7,1.76-1.56a40.78,40.78,0,0,1,0,4.08c-.45,4-1.3,7.9-1.4,11.87a63.7,63.7,0,0,0,1,10.72c.11.7,1.2,1.25,1.84,1.87.49-.62,1.21-1.16,1.43-1.87,1.72-5.38,3.33-10.79,5-16.19a13.53,13.53,0,0,1,.89-1.84l1,.34c-2.34,12.27-4.68,24.54-7.08,37.09.84-.53,1.74-.81,2.16-1.42,4.49-6.56,9-13.09,13.3-19.8,3.48-5.49,6.56-11.23,9.91-16.81a6.18,6.18,0,0,1,2.2-1.78q15.57-9.24,31.17-18.41a28.08,28.08,0,0,1,3-1.31c-2.83,3.24-5.53,6.24-8.1,9.35a15.19,15.19,0,0,0-1.56,3l3.9,1.13c-11.35,5.83-20.57,13.52-29.67,21.71a5.41,5.41,0,0,0,4.26-.25c3.88-2.44,7.55-5.21,11.42-7.65,5.3-3.34,10.62-6.68,16.12-9.68,5.9-3.22,12.14-5.92,12.63-14,0-.64.64-1.27,1-1.87,2.16-3.33,4.38-6.61,6.5-10q5-7.93,9.93-15.95c1.9-3.11,3.68-6.28,5.52-9.42l-.85-.57c-.51.41-1.19.72-1.5,1.24-4.77,8-11.8,13.88-18.59,20.1a116.44,116.44,0,0,1-39.07,24.19c-1.76.64-3.54.78-3-1.69,1.1-5.25,3.22-10.05,7.31-13.82,2.91-2.68,6.14-5.26,8.25-8.51,2.55-3.94,3.33-8.68,3.22-13.93-.8.58-1.08.68-1.17.86-1.28,2.72-2.47,5.5-3.82,8.18-1.21,2.39-2.55,4.89-5.75,4.72-4.12-.23-5.76-2.21-5.18-6.58.73-5.48,1.7-11,2.8-16.37a84,84,0,0,1,2.8-10.07c.74-2.2,2-3.34,4.18-1a4.26,4.26,0,0,0,2.95.69c1.86-3.92,4.56-5.12,8.54-3.13.25.12.69-.17,1-.23,3.86-.69,6.52,1.06,7.45,4.88.28,1.14.61,2.26.91,3.38l1.32-.24c-.25-3.53-.43-7.07-.82-10.58a2.77,2.77,0,0,0-1.62-1.72c-4.55-1.63-9.11-.33-13.25,1.16C780.91,417.76,778.47,419.82,775.74,415.91ZM626.6,397.32a42.21,42.21,0,0,0,3.07,4.05c2.86,2.95,5.71,5.9,8.76,8.64,9.3,8.36,18.79,16.27,32,17.86,8.36,1,15.79-.4,22.4-5.77a51.58,51.58,0,0,1,6.77-4.81,46.78,46.78,0,0,0,16.78-16.64c1.13-1.85,1-2.92-.93-4.06a85,85,0,0,1-8.8-5.72c-3.44-2.6-7.1-5.09-6.91-10.32,0-1.44-1.15-2.92-1.78-4.39-1.53.75-3.13,1.39-4.56,2.28-.67.41-.93,1.42-1.53,2-2.45,2.28-4.68,5-7.54,6.56-2.33,1.24-5.86,2.07-8.15,1.2a32.56,32.56,0,0,1-18.26-16.57,29.06,29.06,0,0,0-2.32-3.25,50.24,50.24,0,0,0-1.71,5c-.61,2.83-.62,5.87-1.69,8.48A10.91,10.91,0,0,1,647.7,387C641,390.6,634.1,393.71,626.6,397.32Zm51.53,172.59c1.52,11.72.77,22.54-6.21,32.21a19.85,19.85,0,0,0-4.06,10.42l1,.73c1.7-2,3.4-3.91,5.75-6.59.39,3.38.68,5.83,1,8.28l.95,0c2.51-7.22,5-14.44,7.74-22.28l6.55,5.69c1-2,2.61-3.84,2.75-5.75.49-6.74.37-13.52.69-20.27.14-2.88.78-5.74,1.19-8.61l1.2,0c1,3.1,2,6.19,2.83,9,3.49-3.64,7-7,10.08-10.63,1.07-1.24,2.17-3.41,1.79-4.75-.74-2.66-3.12-1.84-5.12-1.12-.11,0-.35-.27-.52-.42,1.76-3.38,3.56-6.74,5.26-10.15,1.27-2.56,1-4.78-1.91-6.38-1.09,2.54-2.14,5-3.2,7.45l-.76-.21V520.4c.92,1.53,1.34,2.09,1.61,2.7,2.21,5.07,4.45,10.12,6.56,15.23.43,1,.27,2.35.58,3.48a23.58,23.58,0,0,0,1.28,3c1-.76,2.58-1.38,2.78-2.3.91-4.22,2.78-8.77-2.24-12-.5-.31-.69-1.24-.86-1.92-.88-3.63-1.55-7.32-2.58-10.91-1.42-4.93-5.2-8.25-8.08-12.6-.7,1-1,1.24-1.1,1.55-1.54,6.41-2.61,13-8.19,17.54a3.17,3.17,0,0,0-.57.92c-3.57,6-7.17,12-10.7,18-5.77,9.84-11.84,19.53-17.13,29.62-3.82,7.29-6.66,15.11-9.71,22.78-.42,1.05.44,2.61.71,3.93,1.08-.8,2.45-1.39,3.17-2.43a42.94,42.94,0,0,0,2.81-5.49l1.22.3q.36,7.53.73,15.07l1.23-.08c3-5.17,2.67-11,3.08-16.66.17-2.39,1.73-4.7,2.73-7,.41-1,1.1-1.81,1.5-2.77C675.33,577,676.64,573.68,678.13,569.91Zm-.92-274.78c-2.11,4.16-5.16,8.88-3.07,12.56,2.65,4.65,1.81,9,2,13.55.1,3.58-2.05,5.42-5.33,5.6a13.45,13.45,0,0,1-5.84-1.17c-5-2.17-8.49-1.42-11.57,2.32-2.56,3.11-3,6.08-1.06,9.63a23.43,23.43,0,0,1,1.54,5.19c1.55,5.75,1.95,12,7.31,16,2.89,2.15,5.8,4.29,8.74,6.39A15.85,15.85,0,0,0,683.27,368c10.6-2.73,17.32-10.12,20.37-20.18,2.07-6.84,2.45-14.22,3.2-21.4.16-1.57-1-4.16-2.19-4.73s-3.36.82-4.88,1.73c-2.77,1.65-5.19,4-8.09,5.29a5.35,5.35,0,0,1-7.61-3.87,77.32,77.32,0,0,1-1.31-14.69C682.91,304.3,679.62,300.06,677.21,295.13Zm10.66-43.45a53.42,53.42,0,0,0-5-2.71,5.19,5.19,0,0,0-2.69-.11c-3.38.57-6.79,1.07-10.1,1.94-4.61,1.22-9.18,2.61-13.65,4.24-1,.37-1.57,2-2.45,3.24l5.16.82c-1.19,2.09-2.08,3.66-3.45,6.09a24.42,24.42,0,0,1,2.37-1.12c1.16-.33,2.34-.58,3.51-.87a18.82,18.82,0,0,1-1.21,3.38c-1.64,2.8-3.67,5.4-5.08,8.31-.78,1.62-.65,3.68-.93,5.55l1.54.59,10.89-15.73,1.2.67c-.78,2.91-1.55,5.82-2.33,8.73l1.54.69q2.67-4.25,5.35-8.47l1,.27v11.75l1.12.25c.77-1.29,1.63-2.53,2.27-3.87s1.17-3,1.74-4.48l1.14.23c0,2.95-.14,5.91.07,8.84.07,1.09.72,2.83,1.5,3.08,3.27,1.06,8.8-3.52,8.53-7-.22-2.94-.8-5.86-1.26-9.1a6.77,6.77,0,0,1,2.34.44c1.77,1.24,3.37,2.73,5.17,3.91a14.81,14.81,0,0,0,3.35,1.2,16.21,16.21,0,0,0-.81-3.58,15.69,15.69,0,0,0-2.19-2.83l.87-.62c7.35,4.63,10.19,12.45,12.92,20.68,4-3.42,2.71-6.78,2-10-3.65-16-14.11-21.48-30.81-18.43Zm122,348.18,1.18,0,1.44,5.65,1.16-.08c1.07-5.18,2.27-10.33,1.87-15.75q-.9-12.21-1.68-24.43c-.24-3.84.76-8.12-.64-11.43A136.08,136.08,0,0,0,802.31,534c-1.85-2.91-2.86-4.86,1.13-7.07L790.38,513l.81-1,16.53,12.14.79-1-9.84-11.44c1.87-1.3,4.14-2.32,4-2.89a17.62,17.62,0,0,0-2.7-7.07c-.63-.87-3.55-1.05-4.72-.36a115.58,115.58,0,0,0-11.22,7.89c-.72.54-1.48,2.37-1.21,2.67,2.85,3.1-.1,4.94-1.25,7.26-1.07,2.15-3.5,4-2.09,7,8.33-3.6,11.58-2.09,14.11,6.89,1.44,5.1,2.16,10.39,3.43,15.55.88,3.55,2.14,7,3.23,10.52l1.05-.36c-.52-4.43-1-8.86-1.62-13.82,1.3.53,1.62.55,1.72.71,5.21,8.84,7.28,18.6,7.81,28.66.44,8.2.1,16.39-2.58,24.35-.54,1.6.11,3.61.21,5.44H808C808.59,602.76,809.22,601.31,809.84,599.86ZM701.77,616.32l.36,1-2.67,2c-3.49,2.58-7.09,5-10.43,7.81-1.44,1.19-3.47,2.7-1.58,5.13,2.61,3.38,9,3.73,11.85.52,7.69-8.81,15.59-17.46,22.88-26.59,7.88-9.87,15.51-20,22.63-30.42,6.82-10,12.88-20.47,19.17-30.79.46-.75.09-2,.11-3-1,.1-2.27-.16-2.79.36-2.82,2.9-5.58,5.88-8.1,9-2.74,3.45-5,7.26-7.81,10.68-1.84,2.27-6,3.19-3.83,7.48.07.14-.16.44-.23.67-1.6,5.06-4.13,9.53-8.4,12.8-6.31,4.83-12.71,9.54-19,14.35-2.68,2-5.27,4.2-7.88,6.34-.19.16-.12.63-.18,1l4,.56c-3,2.52-5.26,4.69-7.79,6.38a90.94,90.94,0,0,1-8.11,4.31l.51,1.24ZM655.91,306.67l1.36,0,1.44,8.31.91.11,12.15-19.93c-5.65,1.31-7.89,5.75-11.47,8.8-.9-2.08-1.23-4.83-2.46-5.32-3.72-1.47-8.38-3.73-11.56-2.58A85.15,85.15,0,0,1,634.61,299c-3,.61-5.68,2.57-8.42,4.09-8.43,4.68-12.12,12.28-11.76,21.5a21.93,21.93,0,0,0,6.17,14.63l8-4.06a35.42,35.42,0,0,1-5.61-1.45c-.8-.36-1.26-1.51-1.87-2.3a11.94,11.94,0,0,1,2.78-1.92c.66-.23,1.59.45,2.41.56,3.35.47,6.62.43,9.61-1.52a15.35,15.35,0,0,0-3.82-1.16c-2.38-.73-5.07-1.18-6.91-2.65-1.19-.95-2.08-4-1.42-5.21,1.43-2.56,4-4.51,6-6.7l1.3.77c-.46,1.6-1,3.19-1.38,4.81-.89,3.45,1.14,6.44,3.91,5.48s5.26-2.53,5.64-5.95c.14-1.25.39-2.49.73-4.64,2.58,2.26,4.52,3.93,6.43,5.64,2.73,2.46,3.33,2.35,4.79-1.05C652.79,314.17,654.34,310.41,655.91,306.67ZM627.76,694.8l.58,1.15c3.67-1.68,7.82-2.42,10.61-5.88,2-2.53,3.91-5.2,6-7.71,1.46-1.77,3.16-5.15,5.46-3.31,2.7,2.15-.71,4.34-2,6.26-2.07,3-4.33,6-6.93,9.49,6.63-.12,7.47-7.2,12.15-8.64l.82.75-4.72,7.86.84.59c4.39-3.76,9.48-7,11.67-12.7a6.78,6.78,0,0,0-.65-5.23c-3.87-6.23-8.12-12.23-12.12-18.37-1.49-2.29-2.85-2.52-4.9-.64-3.46,3.18-7,6.23-10.65,9.24-2,1.65-4.12,3.1-6.19,4.64l.62,1.18a39.53,39.53,0,0,0,5-2.07c1.55-.9,2.81-2.28,4.31-3.29,2.59-1.77,4.23-1.09,4.22,2a30,30,0,0,1-1.16,8.16c-1.88,6.56-4,13.07-11.58,15.41C628.56,693.87,628.19,694.43,627.76,694.8Zm60.15-402.17-.45-.89c-1.5.87-4.4,2.22-4.28,2.55a142.16,142.16,0,0,0,5.35,13.28c.26.59,1.46.74,2.21,1.11,4,2.05,8.13,4,12.12,6.17,2.33,1.26,4.44,2.9,6.78,4.15a3.07,3.07,0,0,0,2.6-.24c.38-.25.11-1.52.12-2.32,0-1.7-.4-3.55.14-5.06,1.33-3.76,1.1-7.7-2.17-9.82C703.5,297.15,696.86,291.9,687.91,292.63Zm17.94,65.83.83.89a28.65,28.65,0,0,0,4.24-2.77c3.75-3.46,6.92-7.35,8.5-12.36a9.93,9.93,0,0,1,2.28-3.59c3-3.22,6.14-6.32,9.21-9.49a2.5,2.5,0,0,0,.49-1c2.08-6.7,3.49-13.43-1.07-19.69-1-1.38-3-3-4.43-2.91a8,8,0,0,0-5.34,2.91c-.5.65,1.35,3.15,2.18,4.79,1.26,2.48,3.22,4.82,3.68,7.43,1,5.49-3.19,8-7.41,9.6-4.61,1.75-6.73,4.92-7.89,9.47-1.23,4.85-3.07,9.55-4.63,14.31C706.23,356.87,706.06,357.67,705.85,358.46ZM646,267.26c-1.18,2.42-2.55,4.79-3.52,7.31a57.42,57.42,0,0,0-2.31,7.95c-.53,2.29.18,3.27,2.9,2.79,5.11-.9,6.4-4.59,7.7-8.81C652.5,271,651.66,269,646,267.26Z" transform="translate(0)"/><path d="M561.41,768c.47-8.18.78-16.38,1.44-24.56,1.43-17.79,3.15-35.56,4.52-53.36.86-11.16,1.11-22.36,2-33.51.7-8.88,1.89-17.73,3.07-26.57a6.08,6.08,0,0,1,2.38-3.31c1.88-1.47,3.06-.84,3.29,1.62a17.06,17.06,0,0,0,1.41,5.48c3.16-9.38.82-20,6.93-28.91,3.42,3.95,3.11,39.47-.35,49.75l-.48-2.68c-.89.61-1.24.72-1.26.88-1.59,11.57-5,22.77-4.3,34.84.73,13.43-.36,27-1.54,40.47-.38,4.25-3.69,8.21-5.48,12.38a18.69,18.69,0,0,0-1.6,5.82c-.57,7.21-.91,14.44-1.33,21.66Z" transform="translate(0)"/><path d="M671.66,768c-.16-10.09-.36-20.19-.45-30.29-.05-4.93.07-9.87.21-14.8a9.78,9.78,0,0,1,.76-2.55l1-.06a24.2,24.2,0,0,1,.85,3.78c.82,14.05,1.58,28.11,2.38,42.17a11.82,11.82,0,0,0,.36,1.75Z" transform="translate(0)"/><path d="M703.69,730.28,701.3,729c-.37.29-.84.48-.88.74a74.3,74.3,0,0,0-1,7.4c-.38,6.32-.4,12.68-1,19-.23,2.38-1.66,4.65-2.54,7l-1-.08c.21-3.82.24-7.67.66-11.47.78-6.91.34-13.71-2.26-20.15-3.13-7.73-5.7-15.35-2.34-23.71,2.78-6.93,5.24-14,7.93-20.95,1.57-4.05,3.3-8,5-12,.44-1.06,1-2.07,1.48-3.11l1.2.08c.44,3.84,1.37,7.71,1.2,11.53-.34,7.46-1.33,14.88-2,22.33a35.25,35.25,0,0,0,.27,4.9l1.63.28c1.41-3.49,2.83-7,4.37-10.8C714,705.11,708.63,724,703.69,730.28Z" transform="translate(0)"/><path d="M733.53,616c1.7,6.31-.47,60-2.47,61.83C727.36,657.09,729,636.42,733.53,616Z" transform="translate(0)"/><path d="M786.59,608.1c-2.07-1.4-4.7-2.38-6.11-4.28-6.37-8.56-10-12-19.1-16.75,2.36-1.79,5.35-1.93,8.33.39a115.17,115.17,0,0,1,10.4,9.36,92.49,92.49,0,0,1,6.53,7.7,11.26,11.26,0,0,1,1.13,2.34Z" transform="translate(0)"/><path d="M787.27,615.31l8,4.09C792.49,622.05,787.75,620.11,787.27,615.31Z" transform="translate(0)"/><path d="M614.72,731.4l-1.25,4.78c-.81-.22-2.33-.56-2.32-.63.28-1.61.73-3.18,1.15-4.75Z" transform="translate(0)"/><path d="M620,723.16l4.31-.87c0,.84.13,2.34-.11,2.4a20.39,20.39,0,0,1-3.93.45Z" transform="translate(0)"/><path d="M630.43,719.93l2.32-5.61C634.19,717.39,633.52,719.12,630.43,719.93Z" transform="translate(0)"/><path d="M651.74,583.1c-.9-14.91-1.79-29.74-2.69-44.57C655.9,545.61,657.09,574.92,651.74,583.1Z" transform="translate(0)"/><path d="M581.18,488.6a20.11,20.11,0,0,1-3.92,0c-3.62-.88-7.2-1.95-10.82-2.88-2.15-.55-3.46-1.66-3.12-4.07.4-2.72.29-5.77,3.65-6.82a2.75,2.75,0,0,1,2.26.62c3.58,3.4,7.09,6.88,10.56,10.4A12.73,12.73,0,0,1,581.18,488.6Z" transform="translate(0)"/><path d="M644.92,566.86c-.49-12.69-3.33-24.77-9.49-36l1.39-.9c1.28,1.15,3.2,2.07,3.73,3.5a95.83,95.83,0,0,1,4.62,15.06c1,5.18,1.08,10.53,1.48,15.82a9.19,9.19,0,0,1-.48,2.42Z" transform="translate(0)"/><path d="M615.62,454.07a8.52,8.52,0,0,0-2.34-1.05c-1.21-.14-2.83-.42-3.63.2-2.27,1.75-3.21.83-3.12-1.41a52.92,52.92,0,0,1,1.27-8.93c.1-.49,2.37-1.07,2.46-.92,2.15,3.74,4.14,7.57,6.16,11.39Z" transform="translate(0)"/><path d="M658.18,548.59c-.34-1.16-.7-2.31-1-3.47-.85-3.14-1.79-6.27-2.49-9.44A6.41,6.41,0,0,1,655,532c.14-.35,2.24-.37,2.95.14a4.66,4.66,0,0,1,1.87,3.07c.21,4.31.08,8.63.08,12.95Z" transform="translate(0)"/><path d="M699.82,445.19c7.58-.38,16.75,7.62,16.85,14.88a91,91,0,0,1-7.41-8.63C707.31,448.82,703.54,447.54,699.82,445.19Z" transform="translate(0)"/><path d="M609.24,466.34l7.37,12.43C611.12,479.77,607.57,474.13,609.24,466.34Z" transform="translate(0)"/><path d="M548.42,526.14q4.51-2.39,9.05-4.75C556.57,525.83,552.42,528.05,548.42,526.14Z" transform="translate(0)"/><path d="M724.89,426.41c3.39,1.06,4.75,4,6.24,6.81l-1.07,1q-3.07-3.44-6.16-6.88Z" transform="translate(0)"/><path d="M633.44,579.86c6.89,10.21,11.13,20.81,16.79,30.62C645.7,608.75,632.51,585.29,633.44,579.86Z" transform="translate(0)"/><path d="M756,475.41c.83,4.92,1.08,10-1.22,14.56-3.35,6.59-7.47,12.78-11.57,19.64.46-7.92.88-15.29,1.35-23.34.69,1,1,1.41,1.33,1.85l2.52,3.26c1-1.12,2.42-2.09,2.9-3.4,1-2.8,1.59-5.79,2.35-8.7.35-1.35.72-2.7,1.08-4Z" transform="translate(0)"/><path d="M759.43,467.06c-3.48-1.7-5-3.9-4.07-6.75,1.75-5.35,3.95-10.56,6-15.83.17-.46.29-1,.44-1.42l1.39.77C761.93,451.45,760.72,459.06,759.43,467.06Z" transform="translate(0)"/><path d="M658.56,415.33a11.43,11.43,0,0,1-3.11-1c-2.59-1.72-5.08-3.59-7.53-5.5a6.69,6.69,0,0,1-1.2-2c.6-.25,1.45-.9,1.75-.7,3.72,2.42,7.35,5,11,7.49Z" transform="translate(0)"/><path d="M679.52,424.81l-4.32-3c1.69-.74,3.33-1.79,5.1-2.09.82-.14,1.88,1.19,2.83,1.86Z" transform="translate(0)"/><path d="M687.19,548.13c4.34,5.43,3.88,22-.74,28C687,566.5,685.17,557.66,687.19,548.13Z" transform="translate(0)"/><path d="M682.56,348.22c2.25.93,4.05,1.57,5.75,2.4,1.93.94,2.51,2.17.57,3.83-.91.77-1.54,1.86-2.41,2.68a11.64,11.64,0,0,1-3.11,2.36c-4.28,1.74-13.61-3.33-14.9-8l9.58-3.54c-2.36-1.81-4.87-3.51-7.09-5.52a8.62,8.62,0,0,1-2-3.71,2.28,2.28,0,0,1,.85-2.06c.49-.25,1.56.21,2.13.66a12.09,12.09,0,0,1,1.47,2c3.35,4.17,7.08,4.62,11.06,1.37a7.4,7.4,0,0,1,2.09-1.39c.71-.24,2.09-.32,2.23,0,.35.73.54,2.05.11,2.55C687.09,343.92,685,345.78,682.56,348.22Z" transform="translate(0)"/><path d="M686.59,362.77c-1.61,3.18-7.79,3.74-11.77,0Z" transform="translate(0)"/><path d="M628.94,306.72,617.67,323c-1.07-1.6-.53-6.68,2.07-9.49,2.46-2.65,5.51-4.77,8.3-7.12Z" transform="translate(0)"/></g></svg>