<svg id="Layer_1" data-name="Layer 1" xmlns="http://www.w3.org/2000/svg" viewBox="0 0 1366 768"><defs><style>.cls-1{fill:#d50056;}</style></defs><title>3</title><rect class="cls-1" width="1366" height="768"/><g id="nSQ0Gx"><path d="M858.63,553.92a5,5,0,0,0-1.24-.64c-1.56-.35-3.13-.65-4.71-.89a2.51,2.51,0,0,1-1.65-.87,9.45,9.45,0,0,0-5.81-3.12c-.48-.07-.94-.21-1.41-.32a7,7,0,0,0-3.55-.2,8.27,8.27,0,0,1-2.39.09,9.85,9.85,0,0,0-5.15.93,1.84,1.84,0,0,1-1.16.15c-1.56-.34-3.19-.07-4.75-.53a5.9,5.9,0,0,0-1.57,0c-.23.64.08.93.48,1a37.44,37.44,0,0,0,3.79.63c1.67.15,3.36.18,5,.27,1,0,1.92,0,2.87.14,2.63.31,5.25.67,7.87,1a7.81,7.81,0,0,1,5.32,3,13.07,13.07,0,0,0,5.78,4.15,36.1,36.1,0,0,1,6.87,3.9,18,18,0,0,1,3.88,3.5,26.75,26.75,0,0,0,5.79,5,46.93,46.93,0,0,1,9.9,8.64c0,.06.14.1.16.17.62,1.87,1.57,3.7.78,5.76a.81.81,0,0,1-.89.62c-.57-.09-.36-.62-.57-1.13-.35.18-.68.32-1,.51-.47.28-.91.81-1.39.83-1,.06-1.49.79-2,1.61l-1.32-.59c-1.32-.57-2.62-1.17-3.95-1.69a2.23,2.23,0,0,0-1.18,0,13.64,13.64,0,0,1-6.14-.76c-.7-.19-1.39-.39-2.09-.53a8.71,8.71,0,0,1-3.39-1.12,3,3,0,0,0-1.34-.52c-2.66-.22-5.09-1.33-7.62-2a13.67,13.67,0,0,0-2.36-.46,7.46,7.46,0,0,1-2.07-.5,7.27,7.27,0,0,0-2.58-.46,6.5,6.5,0,0,1-3.59-1.19,3.91,3.91,0,0,0-2.2-.84,3.11,3.11,0,0,1-1.9-.92,23.78,23.78,0,0,0-3.32-2.37,4.43,4.43,0,0,1-1.6-2,1.7,1.7,0,0,1,1.9-2.41c3.62.86,7.34.66,11,1.24a19.35,19.35,0,0,0,5.26-.3c.2,0,.38-.26.56-.4-.08-.17-.12-.39-.21-.41-2.16-.58-4.06-1.9-6.33-2.19-2.61-.33-5.13-1.21-7.79-1.25a6.82,6.82,0,0,1-3-.82,21.35,21.35,0,0,0-2.44-.84c0-.15-.16-.52-.31-1-2.33-.58-4.53-1.83-7.07-1.86a23.7,23.7,0,0,0-5.57-1.34c-1.4-.29-2.86-.28-4.25-.61a15.35,15.35,0,0,0-4-.78,3.21,3.21,0,0,1-1.42-.19c-1.66-.8-3.46-.44-5.16-.72-2.23-.37-4.58-.35-6.67-1.45a6.37,6.37,0,0,0-1.85-.47,19.24,19.24,0,0,1-4.62-1,1.45,1.45,0,0,0-.92,0,1.5,1.5,0,0,1-1.53-.51,4.38,4.38,0,0,0-2.26-1.25c-.53-.14-1-.47-1.54-.65a3.11,3.11,0,0,1-1.94-2.23,40.46,40.46,0,0,0-2.49-5.19,2.58,2.58,0,0,0-2.45-1.25c-1.92,0-3.84,0-5.76.06a4,4,0,0,1-2.72-.61c-.79-.59-1.52-.45-1.78.36a3.07,3.07,0,0,1-2.25,2,5.53,5.53,0,0,0-2.32,1.19,1.85,1.85,0,0,1-1.82.28c-1.4-.26-2.79-.55-4.69-.93L756.6,548a7.19,7.19,0,0,0-3.37,1.1,1.58,1.58,0,0,1-1.16.2c-1.4-.25-2.87-.22-4.17-1a12.16,12.16,0,0,0-2.23-.83,5.25,5.25,0,0,1-2.36-1.14c-.37-.41-.89-.75-.62-1.43a1.25,1.25,0,0,1,1.16-.73c.54-.06,1.1-.07,1.86-.1a2.42,2.42,0,0,0-2.33-1,4.22,4.22,0,0,1-2.92-.3,3.76,3.76,0,0,0-1.37,3.51,20.58,20.58,0,0,0,.62,4.52,10.18,10.18,0,0,1-.67,7.52,5.94,5.94,0,0,0-1.91-.06c-.44.15-.72.75-1.14,1.22l-.78-.1c-.07,0-.15,0-.44.13l-1.52,2.89-3.15.58c-.39-.3-.88-.69-1.39-1-1-.74-2.1-1.43-3.11-2.19s-1.72-1.42-2.58-2.13q-.64-.53-1.32-1c-.19-.15-.49-.19-.61-.37-.36-.5-.54-1.19-1-1.52s-1.08-.09-1.6-.24a1.38,1.38,0,0,1-.68-.65c-.25-.4-.41-.86-.64-1.28a.83.83,0,0,0-.38-.27c-.52-.21-1-.4-1.72-.66l-.76.75c-.83.75-1.24.75-2,0-.17-.17-.26-.47-.46-.55-1.54-.65-1.65-1.75-1-3.21a32.49,32.49,0,0,0,6.59-3.24,16.14,16.14,0,0,0,3.9-3.18,9.45,9.45,0,0,1,1.66-1.34,1.65,1.65,0,0,0,.71-1.82c-1.85,1.15-3.55,2.19-5.22,3.27a29.2,29.2,0,0,1-6.74,3.63A24.57,24.57,0,0,0,708,547.9c-1.69.91-3.42,1.75-5.09,2.68a12.69,12.69,0,0,1-4.12,1.25l-4.5.75c-.15,0-.34.16-.45.11-1.4-.66-2.82.14-4.25-.09s-2.89,0-4.31-.18c-1.18-.12-2.42-.29-3.17-1.47a5.17,5.17,0,0,1,.36-3,30.51,30.51,0,0,0,1.47-4.32,3,3,0,0,0-.18-2.62,13.3,13.3,0,0,0-5.54,2.1,40.51,40.51,0,0,0-3.17,2.54l-2.26,1.79c-.43.35-.85.71-1.27,1.09-.12.1-.16.3-.29.37-2.22,1.25-4.14,3-6.5,4a4.78,4.78,0,0,0-1.64.93,4.89,4.89,0,0,1-2.3,1.65.39.39,0,0,0-.2.13c-1.44,1.94-3.95,2.7-5.28,4.78a2.16,2.16,0,0,1-1.38.87,5.88,5.88,0,0,0-1.5.71c-.26.15-.63.4-.65.63-.1,1.21-1,1.77-1.79,2.44-1.62,1.4-3.08,3-5.2,3.76a33.2,33.2,0,0,0-3.56,1.91,14.58,14.58,0,0,0-4.45,3.19,8.23,8.23,0,0,1-2.57,1.7c-1.43.74-3,1.3-4,2.77a13,13,0,0,1-2.5,2.21c-.18.16-.45.29-.52.49-.43,1.28-1.57,1.71-2.58,2.36-.66.43-1.09,1.05-2.08.76-.4-.12-1,.37-1.48.65-.69.39-1.31.94-2,1.26a9.43,9.43,0,0,0-4.09,3.19,4.53,4.53,0,0,1-1.68,1.3c-.45.24-1.09.14-1.53.38s-.57.72-.89,1.06a5.91,5.91,0,0,1-4.07,1.82,4.94,4.94,0,0,0-3.55,1.64c-2.38,0-4.37-1.12-6.43-2-.74-.29-1.46-.66-2.23-.88a18,18,0,0,0-2.12-.35c-.74-.94-1.5-1.85-2.2-2.82a4,4,0,0,1-1-2.63,5.07,5.07,0,0,0-.29-1.4c-.52-2.43-1-4.85-1.56-7.28a6,6,0,0,1-.09-1.19,34.34,34.34,0,0,0-.75-6.14c-.1-.63-.06-1.28-.11-1.91a44.63,44.63,0,0,0-.2-5,10.31,10.31,0,0,1,.4-4.5,73.73,73.73,0,0,0,1.91-8.16,3.2,3.2,0,0,1,.36-1.38,8.42,8.42,0,0,0,1.18-3.11,33.38,33.38,0,0,1,2.39-6.26,3.15,3.15,0,0,0,.38-1.13c.23-3,1.75-5.43,3-8,.27-.58.53-1.15.83-1.71a2.73,2.73,0,0,1,.66-1,7.61,7.61,0,0,0,2.51-3.16c.16-.35.53-.6.73-1,.44-.75.84-1.53,1.25-2.3.18-.35.26-.8.53-1a14.74,14.74,0,0,0,3.26-5,22,22,0,0,1,2.15-3.13,7.12,7.12,0,0,0,1-1.65c.55-1.68,1.78-3,2.55-4.5,1.23-2.47,2.6-4.86,3.88-7.25-.4-.44-.69-.22-.93,0a6.55,6.55,0,0,0-1.07,1q-3.21,3.89-6.39,7.81a5.36,5.36,0,0,0-.79,1.21,9.74,9.74,0,0,1-3,3.94,20.83,20.83,0,0,0-2.72,3.35,15.54,15.54,0,0,1-1.73,2,30.28,30.28,0,0,0-5.93,6.88c-1.19,2-2.78,3.69-4.16,5.55-.57.76-1,1.6-1.56,2.4s-.84,1.37-1.3,2a17.69,17.69,0,0,0-1.45,2.72,28.26,28.26,0,0,1-3,4.89,45.38,45.38,0,0,0-3.84,6.08,33.21,33.21,0,0,1-1.78,3.13,9.49,9.49,0,0,1-1.5,1.54,12.76,12.76,0,0,0-2.41,3c-1.25,2-2.76,3.93-4.12,5.9-.5.72-.88,1.51-1.35,2.25a25.17,25.17,0,0,1-2.24,3.36c-1.85,2-2.95,4.55-4.35,6.87-.93,1.56-1.55,3.3-2.78,4.68a2.06,2.06,0,0,0-.43.86c-.65,2.64-2.48,4.82-3,7.53-1,1.45-1.93,2.94-3,4.33-.62.82-1.49,1.45-2.19,2.23a11.51,11.51,0,0,0-1.74,2.27,13.19,13.19,0,0,1-2.71,3.32c-1,.94-2,1.83-3,2.73a4.07,4.07,0,0,1-1,.66,8.89,8.89,0,0,0-2.82,1.66c-.51.51-1.48.55-2.21.86a1.94,1.94,0,0,0-.67.64.53.53,0,0,0,0,.46,8.72,8.72,0,0,0,.6.89,2.51,2.51,0,0,0-.84.45,4,4,0,0,0-.48,1.13l-2-.36c0,1.38-.71,1.77-1.92,1.87-2.55.19-5.09.54-7.64.79a4,4,0,0,1-1.41-.18,50.94,50.94,0,0,0-7.26-1.55,9.9,9.9,0,0,1-4.73-2.25c-.88-.69-1.73-1.42-2.6-2.13-.12-.1-.31-.17-.36-.3-.89-2-2.46-3.55-3.21-5.6a9.73,9.73,0,0,0-1.29-2.83c-1.35-1.68-1.16-3.42-.47-5.19a5.17,5.17,0,0,0,.55-3.13c.94-1.22,1.83-2.34,2.67-3.49a5.38,5.38,0,0,0,.81-1.46,10.56,10.56,0,0,1,4.06-5.48,32.71,32.71,0,0,0,3-2.4,14.93,14.93,0,0,1,5-2.75,7.77,7.77,0,0,0,3.12-2.1c-.7-1.16-1.09-1.48-1.8-1.1-1.9,1-4,1.06-6,1.61-.92.25-1.45.09-1.67-.44a1.66,1.66,0,0,1,.33-2,11.18,11.18,0,0,1,1.25-1.13c1.56-1.12,3.14-2.21,4.84-3.41.11-.48.23-1.1.38-1.76.68-.67,1.8-1,1.9-2.25a1.65,1.65,0,0,0-1.78-.3c-1.24.32-2.49.62-3.69,1a13.66,13.66,0,0,0-2.11,1.1,28.07,28.07,0,0,0-7.28,5.43,1.36,1.36,0,0,1-.36.32c-2.33,1.35-3.84,3.6-5.8,5.36a6.41,6.41,0,0,0-1.38,1.94,7.93,7.93,0,0,1-2.06,2.63,6.15,6.15,0,0,0-1.88,2.74,3.24,3.24,0,0,1-.91,1.34c-1.56,1.49-3.08,3-4.52,4.61a29.81,29.81,0,0,0-2.42,3.28,1.44,1.44,0,0,0-.3,1.12c.32.8-.12,1.36-.38,2,0,.09.12.27.19.43.83-.09,1.67-.19,2.52-.26.13,0,.27.14.45.24a1.61,1.61,0,0,1-1.43,1.61,35.36,35.36,0,0,0-4.4,1,21.64,21.64,0,0,1-3.06.26c-1.16.21-1.94-.55-2.89-.87a21,21,0,0,0-3.47-.86,7.15,7.15,0,0,1-3.52-1.4,14,14,0,0,0-2.23-1.42c-1.91-.94-2.76-2.82-4-4.38a4.33,4.33,0,0,1-.63-2,35.29,35.29,0,0,0-1.35-6.83,3.32,3.32,0,0,1-.17-.94c-.14-1.91-.15-3.83-.41-5.72a9.16,9.16,0,0,1,.69-4.16c.44-1.37.95-2.73,1.33-4.12A59.94,59.94,0,0,1,465,554.09c.85-1.77,1.56-3.67,3.33-4.9a8.43,8.43,0,0,0,2-2.35,9.46,9.46,0,0,1,2.78-2.61c2.32-1.59,4.65-3.16,6.94-4.77a17,17,0,0,0,2.41-2,9,9,0,0,1,3.78-2.53c.15-.46.31-.91.43-1.37a4.41,4.41,0,0,0,0-.84,10.65,10.65,0,0,0-1.66.13,4.31,4.31,0,0,1-3.66-.58c-1.62-1.13-3.21-.26-4.71.41-.61.27-1.14.64-1.8.36a2.17,2.17,0,0,0-2.4.65,7.35,7.35,0,0,0-.78,1c-1-.23-2.15.13-3-.94-1,.56-2,1.16-3.15.48-1,.26-2,.5-3,.79s-1.65.56-2.63.89a9.85,9.85,0,0,0-.18,1.25c0,1.21,0,2.41.06,3.61a10.15,10.15,0,0,1-.85,4.9,30.6,30.6,0,0,0-1.49,5.05c-.56,2.17-.76,4.42-1.66,6.51a3.9,3.9,0,0,0-.23,1.41,8.31,8.31,0,0,1-1,3.67,18.94,18.94,0,0,0-1.21,3.08,1.64,1.64,0,0,0,.34,1.78,7.18,7.18,0,0,1,.9,1.8l1.56-.22c.59-.08,1.22,0,1.47.55.17.37,0,.9,0,1.39l-2.41.7,1.94,1.14-2.53,1a6.79,6.79,0,0,1-.21,1.77,5.77,5.77,0,0,1-1.07,1.33l.4,1.5c-.13.13-.23.29-.36.33-1,.33-1.93.64-3.11,1l-2.2-1.07a3.18,3.18,0,0,0-1.89-2.66l-.84.59a3.21,3.21,0,0,1-3.78,0,16.15,16.15,0,0,1-4.39-4,13.24,13.24,0,0,0-2.13-1.75,20.6,20.6,0,0,1-.21-2.65c.07-2.8.16-5.58-1.37-8.12-.18-.29-.07-.76,0-1.15.11-1.56-.24-2.55-2.29-3.08a6.11,6.11,0,0,0-1-.07,2.51,2.51,0,0,1-2-1.23,5.51,5.51,0,0,1-.37-.61c-1.13-2.31-2.25-4.61-3.36-6.92a3.16,3.16,0,0,1-.27-.92c-.53-3-1.12-6-1.56-9a12.85,12.85,0,0,1-.1-4.28,13.39,13.39,0,0,1,1.78-4.18,29,29,0,0,0,2.72-5.06c.67-1.84,2.16-3,3.56-4.09a5.43,5.43,0,0,0,1.7-1.6c.33-.67,1.64-.76,1.12-1.95-.05-.11.36-.5.61-.65a12,12,0,0,1,1.32-.59,2.57,2.57,0,0,0,1.7-1.87l-.05.07c.5-.4,1-.77,1.5-1.2a1.35,1.35,0,0,0,.51-.77c.05-1.7,1.23-2.56,2.45-3.34a4.57,4.57,0,0,0,2.14-2.44c.14-.43.58-.75.87-1.12a32.77,32.77,0,0,0,2.76-3.63,9.07,9.07,0,0,1,4.33-3.62,16.43,16.43,0,0,1,5.23-1.57,5.75,5.75,0,0,1,3.48.57,11.13,11.13,0,0,0,3.12,1.19,4.31,4.31,0,0,1,3.07,2.12c.24.43.56.82,1.23.51a2.88,2.88,0,0,0-.26-2.26,8.94,8.94,0,0,1-.78-3.93,9.79,9.79,0,0,0-.58-2.61l1.82-1.57a44.8,44.8,0,0,0-2.3-5.33,10.88,10.88,0,0,1-.6-1.3,6.18,6.18,0,0,0-2-3.31c-.71-2.67.61-4.61,2-6.73a5.31,5.31,0,0,1,1.48.2c.95.4,1.85.95,2.78,1.42s1.7.88,2.56,1.29c.29.14.64.17.9.33,3.21,2,6.79,3.18,10.34,4.43a13.85,13.85,0,0,1,2.86,1.17,20.41,20.41,0,0,0,6.51,3,3.46,3.46,0,0,1,1.29.6,1.88,1.88,0,0,1,.17,2.59,10.39,10.39,0,0,1-2.14,1.52,75,75,0,0,0-8.71,6,12.07,12.07,0,0,0-3.26,3.81,4.75,4.75,0,0,0-.35,1c.6.43,1,.14,1.46,0a19.83,19.83,0,0,1,4.33-1.37c.85-.13,1.61-.72,2.46-.92,1.52-.35,2.86-1.42,4.57-1.12a1.76,1.76,0,0,0,1.28-.51,2.37,2.37,0,0,1,2.39-.75,2.45,2.45,0,0,0,2-.47c.61-.38,1.27-.7,1.84-1.14a2.9,2.9,0,0,1,2.23-.68,1,1,0,0,0,.48,0c2.51-1.13,5.38-.68,7.92-1.83a13.29,13.29,0,0,1,3.5-.6c1.81-.27,3.67-.25,5.34-1.15a2.22,2.22,0,0,1,.9-.35c2.61-.18,4.8-1.68,7.28-2.28.92-.22,1.8-.65,2.72-1s1.82-.57,2.73-.87c.68-.22,1.36-.45,2-.7s1.32-.54,2-.8a3.44,3.44,0,0,0,.88-.35c1.55-1.26,3.44-1.56,5.29-2,.16,0,.35,0,.45-.13,1.51-1.3,3.46-1.55,5.22-2.23s3.46-1.25,5.22-1.8a22.8,22.8,0,0,0,4-1.56,36.67,36.67,0,0,1,4.15-1.85,22,22,0,0,0,4.61-2.52,3.87,3.87,0,0,1,1.06-.52,4.18,4.18,0,0,0,2.71-2.35,8.33,8.33,0,0,1,1.12.28,2.24,2.24,0,0,0,1.86-.08c1.55-.65,3.1-1.3,4.64-2,2.54-1.15,5.09-2.3,7.62-3.5a24.3,24.3,0,0,0,5.71-3.49c1.75-1.53,3.67-2.86,4.92-4.88a3.42,3.42,0,0,0,1.87-2.61,1.76,1.76,0,0,1,.59-1c1.86-1.44,2.58-3.58,3.62-5.55,1.16-2.18,2.5-4.27,3.74-6.41.6-1,1.11-2.13,1.75-3.14s1.3-1.78,2.12-2.88c.21-2.47,1.82-4.59,3.32-6.76a8.91,8.91,0,0,0,.94-1.36c.72-1.69,1.43-3.39,2-5.13a3.17,3.17,0,0,1,3.9-2.37,6.69,6.69,0,0,1,1.85,3c.72,1.94,1.79,3.75,2.22,5.81a5.92,5.92,0,0,0,.85,1.73,6,6,0,0,1,.81,2.49c.18,1.91.39,3.82.56,5.73a4,4,0,0,1-.06,1.2c-.62,2.84-1,3.09-3.55,3.37a8.24,8.24,0,0,0-1.41.18,1.16,1.16,0,0,0-.68,1.57c.22.42.59.76.84,1.16.74,1.23,1.64,2.43,1.55,4a3.17,3.17,0,0,1-.51,1.54,11.05,11.05,0,0,1-1.8,1.94,60.08,60.08,0,0,0-8.5,9.47q-3.68,4.72-7.08,9.68c-2.7,3.9-5,8-7.34,12.11-1.22,2.07-2.18,4.3-3.49,6.28a41.68,41.68,0,0,1-5,6.72c-.55.56-.87,1.34-1.38,1.95a19.41,19.41,0,0,1-2.43,2.61c-3.11,2.52-6.26,5-9.6,7.23a14.24,14.24,0,0,0-3.08,3c-1.5,1.87-3.21,3.57-4.84,5.34-.87.94-1.85,1.8-2.62,2.81-1,1.33-1.86,2.77-2.77,4.17-.44.66-.82,1.37-1.3,2a53.09,53.09,0,0,0-5.65,8.92,46.86,46.86,0,0,1-2.62,4,9.37,9.37,0,0,0-.8,2,.69.69,0,0,0,.24.63,1.08,1.08,0,0,0,.86,0,4.87,4.87,0,0,0,1-1c1.25-1.45,2.48-2.92,3.74-4.36a4.93,4.93,0,0,1,.75-.6c1.23-1,2.46-2,3.68-3.06.37-.31.68-.69,1.06-1,1-.75,2.25-1,2.87-2.37a10.59,10.59,0,0,1,2.41-2.62,6.68,6.68,0,0,1,.74-.54,4,4,0,0,0,.91-.75c2-2.91,5.09-4.58,7.45-7.06a7,7,0,0,1,1.18-.81c.27-.18.67-.31.77-.56.49-1.29,1.64-1.87,2.61-2.67s1.69-1.69,2.54-2.53a4.3,4.3,0,0,1,2.33-1.58c1.54-1.5,3.68-2.21,5.09-3.89.33-.39,1-.51,1.44-.8a8.27,8.27,0,0,0,1.77-1.18,24.1,24.1,0,0,1,3.91-3.5,8.25,8.25,0,0,0,1.13-1.22c.22-.21.53-.54.76-.5,1.05.16,1.62-.59,2.27-1.14a4,4,0,0,1,2-1.29c.32-.06.56-.51.83-.79.94-1,1.89-1.94,2.81-2.94a4.14,4.14,0,0,0,1-1.33,5.79,5.79,0,0,1,2.13-2.83c1.14-.78,1.56-2.27,2.95-2.72a.28.28,0,0,0,.16-.16c.69-2.46,3-3.89,3.83-6.3a10.42,10.42,0,0,1,1.14-2.06q1.76-2.85,3.52-5.68a6.12,6.12,0,0,0,.63-1c1.22-3.39,3.27-6.39,4.58-9.74,1.1-1,1.22-2.57,2.15-3.7a3,3,0,0,0,.54-1.55,9.41,9.41,0,0,1,1.16-3.12c1-2,2.24-3.89,2.6-6.17a1.72,1.72,0,0,1,.65-.94,6.77,6.77,0,0,0,2.09-3.17,23.91,23.91,0,0,1,1-2.17,8.17,8.17,0,0,0,.87-2,6.52,6.52,0,0,1,2.31-3.63c1.64-.51,3,1.27,4.58.11.39-1.46-1-2-1.6-2.94,1.82-1,1.84-1,3.55-.7a3.93,3.93,0,0,0,1,.11c2.13-.12,4.06.74,6.08,1.18a42.37,42.37,0,0,0,5.93.86c2.71.19,5.42.7,8.14.13a.88.88,0,0,1,.48.05c2,.7,4.12.52,6.17.78s3.36-.6,4.85-1.9c-.37-.39-.62-.88-1-1a14.37,14.37,0,0,0-2.84-.53,11.37,11.37,0,0,1-4.56-1.42,7,7,0,0,0-3.42-1,13.33,13.33,0,0,1-6.35-2,15.36,15.36,0,0,0-3.71-1.62,20.34,20.34,0,0,1-3.28-1.47,5.51,5.51,0,0,1-3.24-4.18c-.44-2-.85-4.07-1.38-6.08a2,2,0,0,1,.66-2.13,15.83,15.83,0,0,0,1.47-1.6,4.58,4.58,0,0,0,.78-1.46,4.46,4.46,0,0,1,4-3.25,51.31,51.31,0,0,0,6.14-1.11,5.17,5.17,0,0,1,1.66-.18,25,25,0,0,0,6.39-.93,32.7,32.7,0,0,0,4.76-1.65,3.26,3.26,0,0,0,1.07-.9c.27-.3.42-.69.67-1,1.16-1.45,1.89-1.62,3.52-.79,1.42.74,2.82,1.54,4.25,2.26a2.3,2.3,0,0,1,1.34,2.35,9,9,0,0,1-.94,4.18,8.36,8.36,0,0,0-1.12,2.63,7.73,7.73,0,0,1-1.29,2.24c-.75,1.22-.75,2.39.32,3.2,1.34,1,2.61,2.14,4,3.08a3.67,3.67,0,0,1,2,3.31,7,7,0,0,0,.38,1.71c-.29.49-.62,1-1,1.56,0,.15,0,.34.12.44.82.87,1.68,1.71,2.49,2.6a2.53,2.53,0,0,1,.83,2.16,2.37,2.37,0,0,1-1.1,2,3,3,0,0,0,1.53,1.84c2,1,2.76,2.84,3.42,4.74a59.57,59.57,0,0,1,2.57,9.25c.19,1.11.26,2.23.34,3.35a1.29,1.29,0,0,1-.22.89c-.83.8-.74,1.93-1.07,2.89a22.54,22.54,0,0,0-.66,3.29,3.27,3.27,0,0,0,.84,3.12c.16.17.31.37.49.53a50.16,50.16,0,0,1,5.64,6.53,46.23,46.23,0,0,1,3.52,5.14c1.47,2.48,2.83,5,4.14,7.59a22.89,22.89,0,0,1,1.15,3.16,5.33,5.33,0,0,1-.23,3.3c-.12.38-.38.72-.49,1.1a7.57,7.57,0,0,1-3.54,4.33,30,30,0,0,0-5.7,4.38,50.08,50.08,0,0,1-4.31,3.45,31.16,31.16,0,0,0-2.54,2.19,6,6,0,0,0-1.72,4.46c.62,0,1.15,0,1.68,0a3,3,0,0,1,2.69.67,1.82,1.82,0,0,0,1.81.34c1.81-.36,3.63-.67,5.43-1.09,3.67-.86,7.33-1.7,11.08-2.21a9.41,9.41,0,0,0,2.28-.71,2.75,2.75,0,0,1,2.33.05c.72.34,1.43.73,2.17,1,1,.38,2,.68,2.94,1a14,14,0,0,1,1.82.64,4.74,4.74,0,0,1,2.7,3.71,27.51,27.51,0,0,1-.83,11.66,13.34,13.34,0,0,1-1.91,4.88,1.78,1.78,0,0,0,0,1.35,5.57,5.57,0,0,0,.79,1.48,3.26,3.26,0,0,1,.78,2.94c1.9.51,3.74.55,5.38-.78a3.34,3.34,0,0,1,2.62-.95,2.06,2.06,0,0,0,1.3-.47c2.64-1.94,5.52-3.61,7.49-6.34a2.47,2.47,0,0,1,.5-.52c1.88-1.54,2.74-3.73,3.57-5.88a3.39,3.39,0,0,1,1.76-2.09c1.37-.65,2.7-1.42,4.12-2,2-.77,4-1.74,5.88-2.7a11.08,11.08,0,0,1,1.73-.85c2.24-.68,3.78-2.35,5.46-3.81a6.34,6.34,0,0,0,1.22-1.77,1.54,1.54,0,0,0,.18-1.11c-.27-.69.16-1.23.29-1.83a10.52,10.52,0,0,0-4.47-2.41,32.69,32.69,0,0,0-4.63-1.26,13.21,13.21,0,0,0-3.82,0c-1.17.16-2.29.69-3.45.95-2.19.5-4.39.94-6.59,1.36a1.25,1.25,0,0,1-.9-.22c-.54-.44-.95-.11-1.49,0-1.59.3-3.17,1.27-4.87.34a1,1,0,0,0-.67,0,4.79,4.79,0,0,0-.65.31,2.19,2.19,0,0,1-2.27-.28,1.82,1.82,0,0,1-.56-1.95,2.37,2.37,0,0,1,3.16-1,47,47,0,0,0,4.42-5.42,2.22,2.22,0,0,0,.42-1.57,12.67,12.67,0,0,0-2.77-7.29c-.74-.95-1.54-1.86-2.21-2.85a18.92,18.92,0,0,1-3.36-7.85,9.34,9.34,0,0,1,2.41-8l3.75-4.06a3.06,3.06,0,0,1,2.33-1,48,48,0,0,0,4.79-.36,13.3,13.3,0,0,1,3.83.24c3.15.55,6.32.95,9.44,1.74A79,79,0,0,1,777,463a52.1,52.1,0,0,1,8.67,4.12,8.87,8.87,0,0,0,1.56.61,11.49,11.49,0,0,1,1.5.72c.87.53,1.53,1.42,2.72,1.38.31,0,.65.42.95.68a33.07,33.07,0,0,0,10.3,6c4.41,1.67,8.78,3.45,13,5.5a3.93,3.93,0,0,0,.88.37c2.19.33,4,1.55,6,2.36,2.59,1,5.12,2.25,7.65,3.42a28.76,28.76,0,0,0,6.17,2c2.43.52,4.85,1.12,7.31,1.41,3.25.38,6.47,1.13,9.78,1,1.76-.05,3.53.14,5.29.17a5.37,5.37,0,0,0,1.63-.28.77.77,0,0,0,.27-1.21,4,4,0,0,0-1.15-.82,22.2,22.2,0,0,0-6.35-1.23c-.42-.05-.88.28-1.33.45a2.3,2.3,0,0,1-.64-.35A6,6,0,0,0,847.5,487a4,4,0,0,1-1.28-.63,107.56,107.56,0,0,0-11.06-5.26c-2.59-1.07-5.21-2.08-7.77-3.22-2.4-1.06-4.73-2.28-7.11-3.4a17.23,17.23,0,0,0-2.47-.95c-.61-.19-1.34-.06-1.87-.34a59.71,59.71,0,0,1-5.85-3.29c-2.13-1.41-4.1-3.07-6.17-4.58a25.92,25.92,0,0,0-4.17-2.79c-2.45-1.14-4.31-3-6.38-4.61a11.8,11.8,0,0,0-2-1.37,35.06,35.06,0,0,1-5.56-3.69,35.89,35.89,0,0,0-8.5-4.87c-.61-.24-1.21-.4-1.54-1a.33.33,0,0,0-.17-.16l-4.29-2.12c-1.2.24-1.84-.77-2.68-1.28-.36-.21-.5-.77-.7-1.1.32-.69.83-.63,1.3-.59,3.83.35,7.67.4,11.49.88s7.49.75,11.24,1.12a11.61,11.61,0,0,1,1.66.22,76.21,76.21,0,0,0,9.26,1.34c.79.09,1.57.29,2.35.45.23.05.46.21.69.19,2.21-.12,4.24.78,6.37,1.09,1.66.25,3.29.71,4.93,1.08,4.92,1.12,9.77,2.52,14.62,3.89,2.62.74,5.29,1.32,8,1.84,3.24.62,6.29,1.86,9.46,2.72,1.31.35,2.64.66,3.94,1,2.94.82,5.86,1.67,8.8,2.49a5,5,0,0,0,1.61.37,4.86,4.86,0,0,1,3.15,1,8.28,8.28,0,0,0,3.09,1.21,16.89,16.89,0,0,1,2.66,1,17.73,17.73,0,0,0,6.18,1.81,8.13,8.13,0,0,1,3.4,1,15,15,0,0,0,4.08,1.37c1,.22,2,.61,3,.88.76.2,1.5.6,2.33.16a1.08,1.08,0,0,1,.9.11c1.88,1.19,4.17,1.06,6.15,2a7.27,7.27,0,0,0,2.62.19c1.68.06,3.36.15,5,.15,2.74,0,5.12-1.16,7.44-2.47s4.56-2.37,6.67-3.82,4.28-2.49,6.27-4a23.3,23.3,0,0,1,7.33-4,4.79,4.79,0,0,0,2.84-1.68,2.09,2.09,0,0,1,1-.59c2.29-.74,4.58-1.45,6.87-2.18a5.31,5.31,0,0,1,3.18-.15,2.16,2.16,0,0,1-1.89,1,18.23,18.23,0,0,0-7.74,2.35,12.76,12.76,0,0,1-2,.88,2.78,2.78,0,0,0-2,1.92,4.1,4.1,0,0,1-2,2.55,1.4,1.4,0,0,0-.38.3c-1.83,2-3.64,4-5.47,6a8.54,8.54,0,0,1-1.19,1.14c-2.55,1.92-5.36,3.49-7.8,5.57a10.12,10.12,0,0,1-2.5,1.38c-2.47,1.12-5,2.2-7.44,3.28a7.4,7.4,0,0,1-1.34.48c-1.65.35-3.3.68-5,1a23.17,23.17,0,0,0-6.07,1.45A4,4,0,0,1,893,482c-2.54-.3-5.07-.71-7.6-1.09a65,65,0,0,0-7.64-.89,45.15,45.15,0,0,1-6.85-1.15c-1-.19-2-.69-3-.34a.64.64,0,0,1-.47,0c-1.66-.87-3.6-.61-5.3-1.33a3.65,3.65,0,0,0-.93-.25c-3.6-.44-7-1.62-10.52-2.5-.84-.21-1.7-.29-2.54-.42-.18.61.18.67.48.76,2.68.79,5.36,1.62,8.06,2.36,3.46.94,7,1.76,10.43,2.73a33.6,33.6,0,0,0,3.86,1.29c1.42.23,2.82.58,4.22.89.71.16,1.41.32,2.11.51,1.77.48,3.54,1,5.31,1.46.85.23,1.71.42,2.56.63.39.1.86.41,1.15.28,1.4-.6,2.43.31,3.58.75s2.58.89,3.84,1.42a7.69,7.69,0,0,0,6.67-.19,9.56,9.56,0,0,1,1.6-.49c.46-.13,1-.11,1.37-.39,1.27-1.07,2.81-1,4.3-1.2a42.42,42.42,0,0,0,6.8-1.36A95.74,95.74,0,0,1,924,481.4c2-.33,4.15-.17,6.22-.36a24.94,24.94,0,0,1,5.92,0c.86.12,1.72.34,2.57.52a7.89,7.89,0,0,0,1.4.33,10.56,10.56,0,0,1,4.92,1.79c1.71,1,3.49,1.94,5.25,2.9a11.83,11.83,0,0,1,3.94,3.44,15.2,15.2,0,0,1,1.53,3.73c.32.81.52,1.66.81,2.49a5.12,5.12,0,0,1-.08,3.75c-.43,1-.76,2.1-1.12,3.16a7.87,7.87,0,0,1-1.68,2.87,34.13,34.13,0,0,0-4.38,5.7,6.12,6.12,0,0,1-2.73,2.62c-1,.46-1.75,1.4-3,1.47s-2.54.31-3.81.45c-.64.07-1.28.09-1.91.15a9.11,9.11,0,0,0-1.65.23,29.76,29.76,0,0,1-7.08,1c-4,.18-8,.26-12,.38a2.11,2.11,0,0,0-.95.08c-1.29.77-2.7.32-4,.26a53.48,53.48,0,0,0-7.38-.21,3.73,3.73,0,0,1-1.2-.09,78.67,78.67,0,0,0-10.48-1.26c-2.56-.23-5.08-.62-7.61-1a8.17,8.17,0,0,0-1.2-.14,11.92,11.92,0,0,1-3.53,0,11.7,11.7,0,0,0-3.5-.66c-2.66,0-5.15-1.08-7.81-1a5.43,5.43,0,0,1-1.39-.34c-.24-.06-.52-.25-.69-.17-1.53.69-2.72-.26-4-.75a12.35,12.35,0,0,0-2.1-.5c-3-.54-6-1.16-8.9-2a3.13,3.13,0,0,0-.94-.18c-1.83.12-3.46-.64-5.12-1.18-4.11-1.34-8.19-2.77-12.26-4.2-1.29-.45-2.52-1.05-3.8-1.53a36.29,36.29,0,0,1-4.74-2.19c-1.94-1.06-4-1.89-6-2.82-1.21-1.49-3.16-1.39-4.71-2.18s-3.2-1.45-4.82-2.14a2,2,0,0,0-1.16-.22,4.73,4.73,0,0,1-3.22-.63c-2.27-1-4.7-1.56-7-2.42-1.35-.5-2.69-1-4.05-1.51a9.45,9.45,0,0,0-1.41-.25,2.62,2.62,0,0,0-1.66-1.27c-.29-.09-.65-.11-.66.54a3.72,3.72,0,0,0,2.38.67c.94.58,1.85,1.21,2.83,1.73a33.42,33.42,0,0,0,7,3.06,4.8,4.8,0,0,1,2.73,1.87c1.47,2.09,3.6,3.29,5.83,4.46a109.32,109.32,0,0,1,9.76,5.69,49.24,49.24,0,0,1,8,6.87c2.35,2.4,4.48,5,6.88,7.33a18.48,18.48,0,0,1,1.76,2.26c.38.51.69,1.07,1.09,1.57,1.75,2.21,4.3,2.53,6.74,2.27,2.65-.28,5.29-.06,7.91-.28,3.22-.27,6.42-.1,9.62-.06,2.63,0,5.27.35,7.9.47,1.76.09,3.52.06,5.28.08,3.05,0,6.05.44,9.07.76.55.06,1.12,0,1.68.06,1.27.1,2.56.15,3.82.36,2.67.45,5.32,1,8,1.5a5.24,5.24,0,0,0,.95.16,61.45,61.45,0,0,1,11.13,1.6,1.12,1.12,0,0,0,.23.06c3.84,0,7.23,1.85,10.91,2.55a43.24,43.24,0,0,1,9.07,3.12,27.76,27.76,0,0,0,6.58,2.23,4.78,4.78,0,0,1,1.14.38,1.44,1.44,0,0,1,1,1.51c0,.4,0,.8-.08,1.2a1.21,1.21,0,0,1-.83,1.09c-1,.31-1.89.93-3,.56a1.82,1.82,0,0,0-1.15,0c-1.9.82-3.79,1.66-5.65,2.56-.28.14-.37.66-.55,1l-1-.4c-.62.9-1.36,1.73-2.67,1.39a12.1,12.1,0,0,0-4.11,2.38,7.78,7.78,0,0,1-3.29,1.91,6.27,6.27,0,0,1-1.63.12c-.22,0-.57,0-.64.15-.48.88-1.53.81-2.19,1.38a1.34,1.34,0,0,1-1.35.28,2.07,2.07,0,0,0-1.83.34c-2.91,2-6.2,2-9.5,1.71a21.16,21.16,0,0,0-3.56,0c-2.87.22-5.75.18-8.63.25-.79,0-1.59.1-2.39.12-.55,0-1.11,0-1.66-.06-.32,0-.7-.27-.93-.16-1.44.65-2.83,0-4.24-.06a40.83,40.83,0,0,1-4.29-.1c-2.31-.26-4.59-.67-6.88-1-.95-.15-1.89-.36-2.83-.53-.24,0-.52-.18-.7-.1-1.52.72-3-.07-4.48-.09l.08.06-1.54-.52Zm-110.24-9.26c-.12,0-.26-.43-.37,0l.43-.08.14.13C748.87,544.82,748.63,544.73,748.39,544.66Zm-69.85-92.25c-3.23-.78-6.12-1.37-9-1.91-1,.33-1.87-.21-2.74-.6a10.86,10.86,0,0,0-3.93-1c-3-.15-6.08-.34-9.11-.51a5.67,5.67,0,0,1-.72-.06c-1.09-.16-2.16-.52-3.27.07-.33.17-.92-.09-1.38-.2s-1.05-.31-1.5-.44l-4.14,4.8c0,3.38,0,6.9,0,10.42a12.45,12.45,0,0,0,.15,2.87c.66,2.81-.34,5.21-1.7,7.51-1,1.78-2.33,3.44-3.38,5.23s-1.88,3.53-2.72,5.35a4.09,4.09,0,0,0-.26,1.85,1.09,1.09,0,0,0,1.14,1,3,3,0,0,0,1.15-.22c1.4-.58,2.82-1.15,4.17-1.83a19.83,19.83,0,0,1,7.34-2.08,51.74,51.74,0,0,0,9.48-1.6,20.12,20.12,0,0,1,6.88,0c1.64.34,3.31.55,5,.75.21,0,.53-.32.68-.56a.72.72,0,0,0,0-.67,4.19,4.19,0,0,0-.88-.8q-2.21-1.65-4.43-3.27a9,9,0,0,1-2.53-2.87,3.35,3.35,0,0,1-.43-1.34c-.12-1.36-.17-2.72-.23-4.07-.09-1.83-.08-1.83-1.32-3.14a5.45,5.45,0,0,1,0-.7c.24-1.46.34-2.87-.85-4a1.47,1.47,0,0,1-.28-.89c0-1.11-.7-1.55-1.7-1.63a3.72,3.72,0,0,1-2.11-1.07,3.29,3.29,0,0,1-.84-3.08,2.69,2.69,0,0,1,2.57-1.45,20.27,20.27,0,0,1,3.11.34c3.52.74,7,1.49,10.54,2.34a9.79,9.79,0,0,0,5.74-.23Zm-40,49.95c-.5.61-.81,1.29-1.33,1.54a13.81,13.81,0,0,0-4.83,3.85,4.57,4.57,0,0,1-.91.78,24.35,24.35,0,0,0-5.92,6.83,15.62,15.62,0,0,1-1.44,2.22,15.67,15.67,0,0,0-2.63,4.27c-.37.88-.9,1.7-1.29,2.58a16.1,16.1,0,0,1-1.81,2.5,16.44,16.44,0,0,0-1,2.89c-.23.59-.71,1.08-.91,1.67a36.92,36.92,0,0,1-3,6.25,9.5,9.5,0,0,0-.7,1.52c-.13.39-.13.8.41.92a7.82,7.82,0,0,0,2.15-2.54c1.4-2,2.73-4.08,4.24-6a74,74,0,0,0,4.62-7.28,31.77,31.77,0,0,1,3.87-4.77c1-1.06,2-2,2.92-3.13A13.93,13.93,0,0,1,635.8,513a13.68,13.68,0,0,0,1.29-.58c2.6-1.57,5.18-3.17,7.78-4.74,1-.58,2-1.06,2.89-1.68a11.58,11.58,0,0,0,2.18-1.82,7.58,7.58,0,0,0,1.78-2.38,3,3,0,0,0-2.35-.69,26.45,26.45,0,0,1-4.54-.1,3.33,3.33,0,0,0-1.86.24C641.62,502.14,640.08,502,638.53,502.36Zm-198.93,69c-.06,1.56-.07,1.79.2,1.87a14.79,14.79,0,0,1,2.58,1.54c.23.12.58,0,1,0C443.08,572.49,441.26,572.21,439.6,571.34Zm-1.7-1.2.51.31c0-.13.11-.27.08-.38s-.19-.19-.28-.28Zm88,40.56.33-.19c0-.06-.07-.16-.11-.16a1.49,1.49,0,0,0-.36,0C525.82,610.5,525.87,610.6,525.91,610.7Z"/><path d="M906.14,332.83a30,30,0,0,0-5.47-3.17c-2.95-1.44-5.95-2.78-8.82-4.37a27.12,27.12,0,0,0-5.78-2.24c-2.15-.63-4.24-1.49-6.41-2a41.12,41.12,0,0,0-7.31-1.36,4.28,4.28,0,0,1-.72-.05c-2.17-.63-4.41-.47-6.63-.6-2.55-.16-5.13.12-7.64-.55a5,5,0,0,0-1,0,40.75,40.75,0,0,1-7.85-1c-1.31-.34-2.71-.33-4-.64-1.55-.36-3.06-.88-4.59-1.35a44.53,44.53,0,0,1-5.75-2.31c-1.8-.85-3.72-1.46-5.49-2.41a7.55,7.55,0,0,0-1.83-.6,2.58,2.58,0,0,1-2.1-2.05c-.17-.62-.43-1.21-.59-1.83a3.75,3.75,0,0,1,2.33-4.88c2.7-1.21,5.43-2.34,8.13-3.54a17.87,17.87,0,0,0,3.2-1.64,8.1,8.1,0,0,1,3.52-1.41l5.2-.88,7.33-1.27a6.83,6.83,0,0,1,1.19-.17c3.55,0,7-.85,10.48-1.34a33.17,33.17,0,0,0,4.7-.95,11.68,11.68,0,0,1,3,0,6.1,6.1,0,0,0,2.67,2.05c.89.27,1.35,1.1,1.86,1.82.27.38.44.91.81,1.15a24.57,24.57,0,0,0,4.11,2.39,14.93,14.93,0,0,0,5.64,1.07c2.65,0,5.3,0,7.93.22a58.49,58.49,0,0,1,8.58,1.07c3.51.8,7.12,1.13,10.55,2.32a20.31,20.31,0,0,0,2.55.66,8.31,8.31,0,0,1,3.42,1.68,4.89,4.89,0,0,1,1.6,1.75,14.79,14.79,0,0,0,3.77,4.63,20.07,20.07,0,0,1,1.54,1.52c2.18,2.34,4.38,4.66,6.51,7.05a15.84,15.84,0,0,1,1.74,2.59,2.66,2.66,0,0,1,.08,2.39,3.22,3.22,0,0,1-3-1.19,13.29,13.29,0,0,0-2.76-1.87c-1.47-.83-2.91-1.71-4.35-2.57a41,41,0,0,0-7.14-2.84c-1.95-.72-3.94-1.34-5.93-1.95a4.86,4.86,0,0,0-2.82-.44c-.24.07-.59-.13-.86-.26-2.08-1.06-4.32-1.06-6.56-1.05-.16,0-.36.28-.46.46s0,.32.13.43a3.75,3.75,0,0,0,1.86,1c4.54,1.53,9.08,3,13.58,4.68a16.3,16.3,0,0,1,3.11,1.82,67.37,67.37,0,0,0,7.95,4.49,25.41,25.41,0,0,1,7.26,5.05c2.28,2.26,4.67,4.4,7,6.6.12.11.21.26.35.33,2.32,1.27,3.3,3.65,4.62,5.72a20.86,20.86,0,0,1,1.71,4c.72,1.94,1.31,3.93,2.06,5.87.58,1.49,1.26,2.95,2,4.38,2,4.09,4.1,8.16,6.1,12.26a27.21,27.21,0,0,1,1.69,4.21c.79,2.77,1.93,5.42,2.38,8.31a22.2,22.2,0,0,1,.38,6.45,5.75,5.75,0,0,1-.11.95c-1,3.06-1.36,6.26-2.47,9.28a27.16,27.16,0,0,1-4.9,7.65c-1,1.17-2.1,2.21-3.13,3.33-.43.46-.79,1-1.2,1.46a4.72,4.72,0,0,1-1,1c-1.69,1.11-2.93,2.71-4.46,4-.1.08-.09.3-.16.56a2.17,2.17,0,0,0,2.39.4c2.46-.95,4.87-2,7.3-3.05,2.18-2,5.18-2.43,7.71-3.78,1.31-.69,2.92-.81,4.34-1.33a10.11,10.11,0,0,0,3.9-2.32,3.33,3.33,0,0,0,1.13-1.77c.08-.47.29-.92.36-1.39.36-2.13.69-4.25,1.25-6.35a37.54,37.54,0,0,0,.63-5,4.46,4.46,0,0,1,.27-1.16,1.12,1.12,0,0,1,1.46-.46.72.72,0,0,1,.21.12c1.8,1.81,3.83,3.44,4.81,5.92.42,1,.91,2.06,1.35,3.09a3.22,3.22,0,0,0,1.2,1.73,1.79,1.79,0,0,1,.72.91c.6,1.76,2,2.87,3.21,4.16a4.77,4.77,0,0,0,1.87,1,3.17,3.17,0,0,1,2,1.55,2,2,0,0,0,.64.7c1.71,1.12,2.87,2.78,4.24,4.22,1.22,1.27,2.45,2.54,3.65,3.82a5.65,5.65,0,0,1,1.06,1.3q1.07,2.28,2,4.64c.63,1.64,1.22,3.3,1.74,5s.85,3.24,1.27,4.86c.14.54.26,1.09.39,1.64a8.2,8.2,0,0,1,.22,4c-.24,1-.09,2.08-.25,3.1a6.05,6.05,0,0,1-.76,2.48c-2,2.81-4.38,5-7.9,5.91-1.85.46-3.8.59-5.57,1.44a2.35,2.35,0,0,1-1.62-.1,22.43,22.43,0,0,0-7.54-1.21c-1.6,0-3.2-.2-4.79-.34-1.75-.16-3.51-.33-5.26-.54a15.54,15.54,0,0,1-2.33-.48c-1.91-.55-3.71-1.45-5.83-1.2a10.78,10.78,0,0,1-3.07-.48c-.71-.12-1.43-.2-2.13-.34-2.44-.5-4.74.12-7.06.76-1.21.34-2.31,1.09-3.67,1-.35,0-.73.28-1.09.45s-.73.51-1.08.5c-1.6-.07-2.89.84-4.33,1.24-2.24.61-4.51,1.13-6.71,1.88-2.87,1-5.87,1.46-8.74,2.42-3.48,1.16-6.95,2.35-10.44,3.5-1.83.6-3.67,1.13-5.51,1.7l-6.63,2.05c-1.61.49-3.28.76-4.89,1.21-2.41.68-4.87.93-7.31,1.38a5.11,5.11,0,0,1-2.81-.27,82,82,0,0,0-11.12-2.93,58.22,58.22,0,0,1-10.12-3c-3.39-1.41-6.91-2.53-10.41-3.68-2.72-.89-5.51-1.56-8.18-2.68a57.26,57.26,0,0,0-6-1.79L841,449.61c-1.53-.47-3-1-4.57-1.42-2.07-.6-4.15-1.15-6.22-1.73-.45-.13-.9-.29-1.35-.43-.76-.25-1.51-.52-2.27-.74-2-.59-4-1.16-6-1.73-.77-.22-1.55-.41-2.33-.61-1.93-.49-3.87-.95-5.8-1.46a50.88,50.88,0,0,0-7.21-1.76,5.33,5.33,0,0,1-1.13-.37,8.76,8.76,0,0,0-1.34-.51,43.12,43.12,0,0,1-8.23-2.56c-1-.41-2.15-.64-3.23-1-3.76-1.1-7.56-2.12-11.29-3.35a37.8,37.8,0,0,1-4-2.11c-2.68-1.26-5.37-2.5-8.1-3.62a12,12,0,0,1-3-1.55c-2-1.55-4.09-3.1-6.12-4.66-.95-.73-1-.88-1.67-2.44,1.2-1,1.34-2.54,1.4-4.08.05-1.27.16-2.54.24-3.86-1.69-.94-3.22-1.6-5-.65-.86.45-1.41.1-1.47-.84a22.86,22.86,0,0,0-1-5.16c-.79-2.52-1.4-5.09-2.06-7.65a7.08,7.08,0,0,1,0-4.72c.21-.5.1-1.13.28-1.65a10.77,10.77,0,0,1,1.09-2.39,20.94,20.94,0,0,1,2.28-2.78c1.73-1.77,3.56-3.44,5.27-5.23,1.1-1.15,2.06-2.45,3.11-3.65a7.71,7.71,0,0,1,1.38-1.3,1.07,1.07,0,0,1,1.76.5c.09.22.27.48.22.68-.47,2.27.93,4.39.53,6.67a1.09,1.09,0,0,0,.57.9,1.12,1.12,0,0,0,1-.31,16.59,16.59,0,0,0,1.88-2.76,64.68,64.68,0,0,1,5.3-9.12c2.25-3,4.63-5.94,7.06-8.8,1.35-1.58,2.92-3,4.38-4.45,1.75-1.76,3.49-3.53,5.23-5.29,0-.81.06-1.52,0-2.23a1.31,1.31,0,0,0-1.24-1.26,7.71,7.71,0,0,0-1.44,0c-4.23.3-8.47.59-12.69.93-3,.24-5.92.45-8.84.87a35.18,35.18,0,0,0-5.58,1.44,4.48,4.48,0,0,1-2.8.12c-1.07-.33-2.16-.6-3.21-1s-1.47-.93-1.27-2.23a31.76,31.76,0,0,1,.77-3.48,2.42,2.42,0,0,1,1.66-1.64,14.48,14.48,0,0,0,3.58-1.9,6.83,6.83,0,0,1,4-1.29,89.61,89.61,0,0,1,9.11.44c2.06.29,4.1.61,6.15,1a8.07,8.07,0,0,0,4.41-.35,1.38,1.38,0,0,0-.75-1.71,13,13,0,0,1-3.22-2.48,7,7,0,0,0-3.59-1.79c-2.06-.31-4.08-.84-6.12-1.28-.9-.19-.9-.19-1.5-1.41a2.85,2.85,0,0,1,2.31-.88,7.84,7.84,0,0,0,2.83-.34,4.52,4.52,0,0,1,3.27.23,3.89,3.89,0,0,0,1.61.46c2.14.09,4,1.13,5.94,1.81,2.42.84,4.74,1.94,7.14,2.83a18.93,18.93,0,0,0,3.27.75c1.27.22,2.54.39,3.82.49a11.44,11.44,0,0,1,9,5.6c.7,1.07,1.23,2.25,1.79,3.28a2.78,2.78,0,0,1-1.69,2.79c-1,.43-1,1.57-1.61,2.28-.16.09-.31.24-.43.22-1.82-.23-2.85.82-3.55,2.28-.34.69-.64,1.25-1.48,1.38a1.38,1.38,0,0,0-.76.53c-1.53,1.95-3.39,3.65-4.4,6a7,7,0,0,1-1,1.31c-.94,1.19-1.86,2.4-2.8,3.59a6.2,6.2,0,0,1-.76.92,26,26,0,0,0-4.16,5c-.62.94-1.22,1.88-1.82,2.83l-1.95,3a7.85,7.85,0,0,0-1.41,4c-.06,1.75-.35,3.48-.47,5.22a15.29,15.29,0,0,0,0,2.62c.13,1.27.37,2.53.52,3.81a4.52,4.52,0,0,0,1,2.42c1.28,1.54,2.47,3.18,3.88,4.58a7.9,7.9,0,0,1,2.28,3.59,4.82,4.82,0,0,0,.5.93,10.51,10.51,0,0,1,5.34.78,3.6,3.6,0,0,0,1.18.19c2.88.14,5.76.27,8.64.36.71,0,1.43-.16,2.15-.18a25.46,25.46,0,0,1,6.89.85,21.8,21.8,0,0,0,4.28.55c2.31.12,4.64.19,6.95.14,2.72-.07,5.44-.31,8.15-.44a16.49,16.49,0,0,1,2.63,0,32.56,32.56,0,0,0,8.87-.42c3.15-.55,6.31-1.08,9.5-1.43,2.7-.29,5.39-.78,8.06-1.32a33,33,0,0,1,6.94-.41,21.12,21.12,0,0,0,2.64,0,5.19,5.19,0,0,0,1.8-.57c1.19-.65,2.3-1.44,3.5-2.08a21.22,21.22,0,0,0,4.88-3.47,7.54,7.54,0,0,1,1.51-1.19,29.7,29.7,0,0,0,6.33-5.1c3.29-3.28,6.49-6.65,9.56-10.14,4-4.53,7.64-9.29,11.35-14,.34-.44.54-1,.88-1.42a1.91,1.91,0,0,1,3.09-.31c1.9,1.84,4,3.47,6,5.17,1.27,1.07,2.3,2.44,3.48,3.63,2,2.05,4.07,4.08,6.16,6.07a9.4,9.4,0,0,0,1.83,1.14,4.79,4.79,0,0,1,2.59,4.07c.12,2,.24,4,.32,6a6.42,6.42,0,0,1-1.36,4.25c-1.43,1.92-2.73,3.93-4.1,5.9a19.76,19.76,0,0,1-1.33,1.69,92,92,0,0,1-9,8.69c-1.75,1.5-3.51,3-5.17,4.64-1.18,1.16-2.19,2.5-3.27,3.77-.57.66-1.15,1.32-1.69,2a.68.68,0,0,0,.06,1c.15,0,.35,0,.46,0,2-1.52,4.16-3,6.13-4.6s3.55-3.24,5.32-4.87a20.88,20.88,0,0,1,3.45-3c1.26-.73,1.94-2.09,2.84-3.2.4-.49.82-1,1.25-1.44,2.89-3.11,5.8-6.2,8.65-9.34,1.35-1.48,2.63-3,3.88-4.58a14.13,14.13,0,0,0,1.2-2.07c.16-.28.21-.61.37-.88a1.27,1.27,0,0,1,1.49-.5,1,1,0,0,1,.83,1,15.55,15.55,0,0,1-.38,2.35,16.11,16.11,0,0,1-.85,2.74,16.43,16.43,0,0,1-1.71,3.14,76.11,76.11,0,0,0-4.69,7.26c-1.46,2.57-3.08,5-4.7,7.51a6.4,6.4,0,0,1-1.7,1.66,7.24,7.24,0,0,0-2.28,2.39c-.43.75-1.08,1.37-1.57,2.1a1.1,1.1,0,0,0,.19,1.66.74.74,0,0,0,.27,0c1.4-.7,2-2.34,3.33-3a12.49,12.49,0,0,0,3.34-2.65,44.45,44.45,0,0,0,3.14-3.94c1.29-1.73,2.55-3.49,3.79-5.26.63-.92,1.17-1.91,1.76-2.86a3.52,3.52,0,0,1,.65-1,7.63,7.63,0,0,0,1.9-2.43,5.24,5.24,0,0,1,3-2.32c1.84-.61,2.28-2.19,2.52-3.71a7.5,7.5,0,0,1,1.39-3.94,2.33,2.33,0,0,0,.43-1.31,23.87,23.87,0,0,1,.32-4.77,2.93,2.93,0,0,0-.37-2.06,6,6,0,0,1-.65-2.74,2.74,2.74,0,0,0-.9-2.12,21.93,21.93,0,0,0-4-3.46,11.21,11.21,0,0,1-1.64-1.38,23.23,23.23,0,0,0-6.23-4,3.12,3.12,0,0,1-1.06-.54C936,366.2,933.65,365,932,363a21.12,21.12,0,0,0-3.6-3.14c-2.08-1.62-4.05-3.39-6.09-5.06a8.33,8.33,0,0,0-3-2,2.67,2.67,0,0,1-.78-.54,20.7,20.7,0,0,0-2.43-1.9,83.48,83.48,0,0,0-10.65-5.56c-1.48-.58-3.08-.9-4.53-1.54-2.37-1.06-5-1.22-7.34-2.16s-4.54-1.5-6.84-2.18c-2.7-.79-5.47-1.23-8.2-1.82-3.21-.69-6.44-1.34-9.69-1.78a51.81,51.81,0,0,0-9.33-.71c-2.71.12-5.44-.21-8.16-.33l-9.85-.41c-2.16-.09-4.33-.15-6.49-.27a5.66,5.66,0,0,1-1.62-.35,108.32,108.32,0,0,0-10.92-2.89c-1.46-.36-2.94-.66-4.4-1.05-1.86-.49-3.71-1-5.54-1.58a15.82,15.82,0,0,1-2.64-1.14c-2.26-1.2-4.5-2.42-6.72-3.69a6,6,0,0,1-1.6-1.41,1.61,1.61,0,0,1,0-2.21,25.13,25.13,0,0,1,2.38-2.35,33.73,33.73,0,0,1,3.19-2.53,12.11,12.11,0,0,1,5.53-2.21c.8-.09,1.6-.18,2.4-.19a3.24,3.24,0,0,1,1.63.23,40.4,40.4,0,0,0,4.88,2c2,.84,4,1.56,6,2.34q3.24,1.29,6.54,2.41c4.24,1.46,8.57,2.67,12.92,3.74a22.29,22.29,0,0,0,2.84.38c6.06.68,12.12,1.33,18.17,2.05a16.84,16.84,0,0,1,3.27.75c3.36,1.07,6.68,2.24,10,3.3,2,.63,4,1.11,6,1.68,1.24.35,2.44.84,3.69,1.09,2.89.56,5.72,1.57,8.73,1.44a8.44,8.44,0,0,1,1.41.15,27.67,27.67,0,0,0,2.85.34A1.87,1.87,0,0,0,906.14,332.83ZM869.19,434.31a.8.8,0,0,0-.49-1,27.85,27.85,0,0,0-3-1.42,17.93,17.93,0,0,1-3.88-1.85,11.57,11.57,0,0,0-3.3-1.37c-1.69-.49-3.43-.81-5.14-1.22-.62-.15-1.24-.32-1.84-.53-1.35-.48-2.68-1-4.06-1.48a5.75,5.75,0,0,0-2.57-.44c-1.66.31-3.16-.22-4.73-.42-.4-.05-.79-.17-1.18-.19q-4.08-.12-8.14-.43c-4.31-.34-8.65-.44-13-.67-1-.05-2.07-.17-3.1-.3-3.66-.47-7.32-1-11-1.42a21.46,21.46,0,0,1-3.82-.41c-1.76-.53-3.55-1-5.34-1.4a12,12,0,0,1-3.3-1.39,19,19,0,0,0-3.42-1.75,10.79,10.79,0,0,1-2.9-1.65,31.68,31.68,0,0,0-3.53-2.49,9,9,0,0,1-2.42-1.93c-2-2.28-4-4.59-5.94-6.93a2.49,2.49,0,0,0-2.1-1.18,1.9,1.9,0,0,0-.28.22c-1.56,1.91-1.63,2.49-.4,4.46.47.74,1.1,1.38,1.59,2.11a19.29,19.29,0,0,0,4.72,4.69c2.84,2.06,5.55,4.31,8.76,5.83a1.6,1.6,0,0,1,.55.45,11.13,11.13,0,0,0,3.54,2.45c1,.58,2.19,1,3.2,1.65a11.68,11.68,0,0,0,5.23,1.58c3,.31,5.89.65,8.84,1,2.3.27,4.6.62,6.9.84,3.51.33,7,.17,10.54.65,1.11.15,2.23.25,3.35.31l12.47.63c1.68.08,3.37.08,5,.26,2.86.32,5.72.71,8.57,1.13a13.83,13.83,0,0,1,4,.85,58,58,0,0,0,6.49,2.47A9.85,9.85,0,0,0,869.19,434.31Z"/><path d="M635,265.48a3.36,3.36,0,0,0,.81.38c1.33.28,1.61,1.15,1.32,2.46l-1.17.57c.07.14.1.32.21.41l3.21,2.52a15.32,15.32,0,0,0,1.73,1.3,55.91,55.91,0,0,1,5.6,4.07c.82.62,1.72,1.16,2.49,1.85a16.91,16.91,0,0,1,1.89,2.15c.84,1.07,1.64,2.17,2.44,3.26a2.88,2.88,0,0,1,.64,1,15.87,15.87,0,0,0,2.18,4.79,4.17,4.17,0,0,1,.69,2,2.46,2.46,0,0,0,.2.93,23,23,0,0,1,1.45,7.78,15,15,0,0,1-1.26,7.48c-1.51,3.36-2.84,6.8-4.21,10.22-.52,1.33-.58,2.8-1.4,4.06-1.35,2.07-2.62,4.2-3.83,6.36a29.67,29.67,0,0,0-1.57,3.5,10.3,10.3,0,0,1-1.17,2.07,33.34,33.34,0,0,0-2.31,4.19,43.55,43.55,0,0,0-2.94,6.26,3.24,3.24,0,0,0-1,2.83c.11,2.22-.92,3.45-3,4.06a12.17,12.17,0,0,1-1.28-.91,2.74,2.74,0,0,1-.84-1.12c-.94-3.22-2.32-6.29-2.93-9.61a7.11,7.11,0,0,0-2-4,6.75,6.75,0,0,1-.92-1.62c.56-.91,1.06-1.72,1.55-2.53a5.26,5.26,0,0,0,.46-.84.79.79,0,0,0-.21-1.07,1.12,1.12,0,0,0-.88,0,12.37,12.37,0,0,0-4.31,3.72,9.33,9.33,0,0,1-2.34,2.39c-1.32.87-2,2.31-2.87,3.52a4.42,4.42,0,0,1-1.89,1.74A4.15,4.15,0,0,0,616,342.9c-2,2.37-4,4.77-6.14,7.35-.43-.11-1-.24-1.63-.41a1.39,1.39,0,0,1-1-1.21c-.2-1.92-1.21-3.62-1.5-5.53a26.25,26.25,0,0,1-.39-4.77c.09-2.32,0-4.65,0-7a4.64,4.64,0,0,1,.39-1.58c.78-2,1.59-4,2.41-6,.75-1.85,1.53-3.69,2.29-5.54a2.26,2.26,0,0,0,.27-.91c0-.26-.24-.7-.44-.74-1.32-.27-3.09-.27-3.84,1.56-.48,1.19-1.12,2.31-1.67,3.47a8.33,8.33,0,0,1-1.66,2.33,40.49,40.49,0,0,0-3.55,3.87c-1.2,1.59-2.59,3-3.68,4.69a4.08,4.08,0,0,1-2.64,1.92,16.71,16.71,0,0,0-4.07,1.44c-.42.22-.93.26-1.36.47a2.2,2.2,0,0,1-2.28-.13,57.72,57.72,0,0,0-5.65-2.62c-1.49-.71-3.16-1.24-4.12-2.75a5,5,0,0,1-.93-1.9,10.11,10.11,0,0,0-.67-2.77,2.28,2.28,0,0,1,0-1.16,17.7,17.7,0,0,0,.43-2.12c.13-2.9,1-5.68,1.39-8.53a4.52,4.52,0,0,0,.11-2.34,2,2,0,0,1,.36-1.31c.39-.79.9-1.52,1.3-2.3.22-.4-.24-1-.71-1-1.75.05-3.22.72-3.8,2.41a6.25,6.25,0,0,1-2.77,3.18,25.44,25.44,0,0,0-6,5.8,21.84,21.84,0,0,1-6.4,5.65,28.94,28.94,0,0,1-5.4,2,16.11,16.11,0,0,1-2.58.5,1,1,0,0,1-1.2-1.33,6,6,0,0,1,.7-1.5,16.82,16.82,0,0,0,2.13-5.84c.55-2.82.84-5.7,1.56-8.5a15.12,15.12,0,0,0,.11-4.31,2.72,2.72,0,0,0-.63-1.24,9.75,9.75,0,0,0-.84-.92c1-2.57.84-5.23.9-7.87,0-1,.12-2.08.17-3.12a11.77,11.77,0,0,0,0-1.68c-.1-.86-.87-1.16-1.61-.63a2.06,2.06,0,0,0-.69.65c-1,2.09-2.26,4.09-2.06,6.56a6.33,6.33,0,0,1-.84,3.71c-1.24,2.07-1.55,4.55-3,6.5-.32.42-.31,1.07-.52,1.58-.49,1.19-1.2,2.09-2.65,2.06-.32,0-.75,0-.93.16-1.08,1.12-2.67,1-3.94,1.64a25.7,25.7,0,0,1-3.9,1.85c-2.29.73-4.35,2-6.71,2.57a36.87,36.87,0,0,0-5.08,2.16c-1.55.65-3.14,1.21-4.68,1.88-2.12.92-4.41,1.4-6.43,2.59a19.45,19.45,0,0,1-2.2.95l-3.1,1.29c-.52,1,.76,1.37.42,2.17a2.34,2.34,0,0,1-.28.3L503,326.92c-2.71,1.21-5.5,2.1-7.94,3.91a29.74,29.74,0,0,1-5.36,2.66,19.77,19.77,0,0,1-2.3.71,16,16,0,0,0-4.56,2.11c-1.43,1-3,1.81-4.44,2.85a28,28,0,0,0-3.39,3,8.83,8.83,0,0,1-2.68,2,20.69,20.69,0,0,0-7.14,5.56,26.75,26.75,0,0,1-2.4,2.36,29,29,0,0,0-5.36,6.72c-2,3.3-4.12,6.49-6.17,9.73a14.89,14.89,0,0,0-1,1.91,2,2,0,0,1-1.8,1.31,1.73,1.73,0,0,1-1.67-1.46,4.74,4.74,0,0,1,.88-4.54A6.64,6.64,0,0,0,449,363c.51-1.74,1.26-3.42,1.93-5.11.29-.74.63-1.45.94-2.18,1.12-2.66,2.06-5.41,3.42-7.94A41.29,41.29,0,0,1,458,343.7a32.34,32.34,0,0,1,4.36-4.71,36.72,36.72,0,0,1,3.44-2.58,18.47,18.47,0,0,0,4.34-3.72,9,9,0,0,1,3-2.3c2.17-1.19,4.41-2.24,6.64-3.31,1.45-.7,2.93-1.31,4.37-2s2.73-1.34,4.06-2.08c2.86-1.61,5.69-3.27,8.54-4.91a2.09,2.09,0,0,1,.65-.29c2.55-.52,4.76-1.86,7.1-2.89a33.46,33.46,0,0,0,3.12-1.79c1-.59,2.12-1.13,3.13-1.78a17.64,17.64,0,0,1,3.6-1.75,24.28,24.28,0,0,0,10-6.88,7.69,7.69,0,0,1,2.82-2.17,4.37,4.37,0,0,0,1.15-.83c.24-.21.37-.62.62-.71,2.05-.75,2.65-2.7,3.63-4.31.72-1.18.45-1.84-.75-2.58a7.66,7.66,0,0,1-1-.59,2.38,2.38,0,0,0-2-.43,9,9,0,0,0-6.6,3.86c-.27.39-.54.79-.79,1.2a6.58,6.58,0,0,1-3.9,3.31,7.67,7.67,0,0,0-2,1.26c-.93.63-1.83,1.3-2.77,1.91a4.51,4.51,0,0,1-3.61.83,10.55,10.55,0,0,0-2.85.1,1.74,1.74,0,0,1-1.95-1.07,4.46,4.46,0,0,0-2.52-2.39,5.08,5.08,0,0,1-3.16-4.18,36.78,36.78,0,0,1-.75-4.94,22.63,22.63,0,0,1,1.46-8,11.4,11.4,0,0,0,.67-4.71,3.42,3.42,0,0,1,.56-2.74,1.44,1.44,0,0,0,.21-.43,1.48,1.48,0,0,0-.16-1.58,1.35,1.35,0,0,0-1.55-.33l-4.57,1.49a14.35,14.35,0,0,0-3.21,2.08c-.38.25-.78.47-1.16.7a2.11,2.11,0,0,1-.68-2c.09-1.51.1-3,.11-4.54a1,1,0,0,0-.92-1.09c-.29.47-.57,1-.93,1.49s-.82.79-1.13,1.25a4.38,4.38,0,0,0-.68,1.53c-.39,2-.77,4.08-1,6.14a7.62,7.62,0,0,0,1,4.16,22.64,22.64,0,0,1,2.05,6.36,6.91,6.91,0,0,0,.52,1.84,4.07,4.07,0,0,1,.07,3.26c-.28.75-.21,1.7-.65,2.3a12.6,12.6,0,0,0-2.33,4.34c-.74.38-.8,1.13-1.07,1.8a4.27,4.27,0,0,1-1.07,1.55c-1.12,1-2.33,1.95-3.5,2.9-2,1.62-4,3.23-5.95,4.87a2.72,2.72,0,0,0-.95,1.06c-.42,1.46-1.6,2.17-2.73,2.89s-2.48,1.44-3.76,2.17a4.5,4.5,0,0,1-.88-.42c-.44-.33-.84-.72-1.33-1.16a13.43,13.43,0,0,1,2-4.67,6.86,6.86,0,0,1,.56-5,10.17,10.17,0,0,0,1-4.41,8.22,8.22,0,0,1,.27-2.37,12.9,12.9,0,0,0,.8-4.23,3.31,3.31,0,0,1,.51-1.58c.91-1.77,1.88-3.52,2.8-5.29a7.37,7.37,0,0,0,.64-1.54c.5-1.78,1-3.56,1.4-5.35s-.29-3.54-1.19-5.12a1,1,0,0,0-1.65-.2c-.4.39-.69.89-1.07,1.29-2.7,2.86-5,6-7.45,9.11A21.3,21.3,0,0,1,460.1,292a9.15,9.15,0,0,0-2.55,4.55c-1,3.53-2.4,6.95-3.17,10.57a24.41,24.41,0,0,1-1.83,4.42,21.13,21.13,0,0,0-1,2.17,12.26,12.26,0,0,1-2.3,4.11,33.31,33.31,0,0,0-2.53,3.79,48.47,48.47,0,0,1-4.49,6.53c-1.07,1.29-2,2.68-3,4-.1.13-.16.28-.27.4-1.48,1.78-3.21,3.35-4.37,5.39a1.74,1.74,0,0,1-2.35.47,1.93,1.93,0,0,1-1-1.57c-.11-.88-.14-1.76-.31-2.63a17.63,17.63,0,0,0-.95-3.7,10.21,10.21,0,0,1-.85-4.68,33.52,33.52,0,0,0-.36-5.5,5.62,5.62,0,0,1,.28-2.56c.65-1.8,1.28-3.62,1.95-5.41a12,12,0,0,1,1-2.19c1-1.55,2.08-3,3.07-4.57,1.46-2.3,2.82-4.65,4.29-6.94,1.12-1.74,2-3.67,3.57-5.08a3.71,3.71,0,0,0,.51-.81c.6-.94,1.22-1.87,1.8-2.83a5.76,5.76,0,0,0,.94-1.93,3,3,0,0,1,1.36-2.38,1.6,1.6,0,0,0,.48-.82c.43-1.36.82-2.73,1.25-4.09a5.35,5.35,0,0,1,.56-1.32c.86-1.34,1.8-2.63,2.66-4a8,8,0,0,0,.69-1.52c.17-.48.22-1-.32-1.25a1.68,1.68,0,0,0-1.35,0c-2,1.68-4,3.43-5.1,5.92a2.9,2.9,0,0,1-.59,1,17.92,17.92,0,0,0-3.34,4,9.45,9.45,0,0,1-1.11,1.26,5.26,5.26,0,0,0-1,1.31,6.54,6.54,0,0,1-2.58,3.36c-.3.19-.4.68-.63,1a8.12,8.12,0,0,1-1.17,1.48,8.2,8.2,0,0,0-2.79,4.63,3.17,3.17,0,0,1-1,1.57,10.7,10.7,0,0,1-3.42,3c-.52-.13-.44-.58-.48-1-.17-2-.11-4-.3-6a8.94,8.94,0,0,1,1.34-5.36,30.52,30.52,0,0,0,2.17-3.94c.47-1.31,1.32-2.53,1.93-3.83.17-.37.52-.75.49-1.09-.19-1.82,1.11-3.09,1.64-4.63.15-.45.22-.93.36-1.38a12.85,12.85,0,0,1,1.22-3.63,5.2,5.2,0,0,0,.38-1.37c.16-.52.33-1,.5-1.57a35.87,35.87,0,0,1,3.09-7.73c.23-.39.15-1,.31-1.4a1.74,1.74,0,0,1,1.49-1.37,2.52,2.52,0,0,0,1.26-.58,15.27,15.27,0,0,1,3.47-2.13,17.41,17.41,0,0,0,2.23-1.41,51.2,51.2,0,0,1,7.39-4.45l4.33-2.06a9.44,9.44,0,0,0,2.49-1.82,4,4,0,0,1,1.78-1.1,9,9,0,0,0,3.59-1.85,13.17,13.17,0,0,1,3-1.54.71.71,0,0,1,.47-.06c1.85.68,3.42-.5,5.11-.78a4.23,4.23,0,0,1,2.36-.11c2.94,1.17,6,.82,9,.56a2,2,0,0,0,1-.51,4.8,4.8,0,0,1,2.84-1.11,17.59,17.59,0,0,1,4.28-.39c.15,0,.38,0,.46-.07,1.05-1.19,2.19-.48,3.33-.21s2.21.37,3.3.62c1.47.34,2.92.78,4.4,1.11a17.69,17.69,0,0,0,2.62.32,7.13,7.13,0,0,1,4.51,1.35,3,3,0,0,0,.85.44c1.86.72,3.71,1.45,5.58,2.14a2,2,0,0,0,1.13.1,1.37,1.37,0,0,1,1.29.41,1.14,1.14,0,0,0,.86.25c1.4-.52,2.31.23,3.15,1.14a2.57,2.57,0,0,0,1.37.91,8.32,8.32,0,0,1,2.91,1.64c3.2,2.13,6,4.84,9,7.13a20.56,20.56,0,0,0,4.89,3c1.32.51,2.67,1.12,3.29,2.62a2,2,0,0,0,1.76,1.08,21,21,0,0,0,6-.11,39.42,39.42,0,0,1,9.07-.73,1,1,0,0,0,.47,0,6.38,6.38,0,0,1,4.61-.19,2.42,2.42,0,0,0,1.19-.08c2-.56,4-.36,6-.61a2.59,2.59,0,0,1,1.39,0c1.31.77,2.81.61,4.19,1a4.39,4.39,0,0,0,2.11-.16,3,3,0,0,1,1.88,0c1.47.6,3,1.18,4.44,1.79.37.15.69.42,1.06.54a13.48,13.48,0,0,1,6.08,4.09c.32.35.73.62,1.07,1a27.08,27.08,0,0,1,4.3,4.52,6.88,6.88,0,0,0,1.18,1.17c.47.44,1,.83,1.43,1.29a2.62,2.62,0,0,1,.66,3.08,2,2,0,0,0-.11,1.63,1.2,1.2,0,0,0,1.76.68,15.24,15.24,0,0,0,1.5-1.18,41.89,41.89,0,0,1,6.64-4.73,5.3,5.3,0,0,0,1.06-1A38.23,38.23,0,0,1,628.9,267a3,3,0,0,1,2.76-.36,2.08,2.08,0,0,0,2.89-.9C634.62,265.64,634.81,265.6,635,265.48Z"/><path d="M425.64,358.2c1.84-.33,2-.29,2.59,1.21a9.75,9.75,0,0,1,.95,4.64,15.4,15.4,0,0,0,.06,1.92c.11,2.24.17,4.49.33,6.72.12,1.67.43,3.33.56,5,.18,2.23.37,4.47.35,6.71a7.31,7.31,0,0,1-.86,2.72,3,3,0,0,0-.05,2.54c.93,2.39,1.78,4.81,2.78,7.16a11.16,11.16,0,0,0,1.81,3.1,13.61,13.61,0,0,1,3,5.91,4.71,4.71,0,0,0,.95,1.91,7.72,7.72,0,0,1,1.67,4.44,24.94,24.94,0,0,0,.84,3.46c.08.38.54.69.92,1.13a21.83,21.83,0,0,0,2.7-3.51,14.79,14.79,0,0,1,1.5-1.85,14.45,14.45,0,0,1,2-2.06c2.12-1.56,2.73-4,4-6.15a5.17,5.17,0,0,0,.24-.9c.12-.37.17-.94.43-1.07,1.59-.79,1.78-2.58,2.78-3.8a13.06,13.06,0,0,1,1-1.27,17.17,17.17,0,0,0,4.18-5.21,1.59,1.59,0,0,1,.61-.72,3.33,3.33,0,0,0,1.45-2.15,5.1,5.1,0,0,1,2-2.81,6.49,6.49,0,0,0,2.23-3.06,21.11,21.11,0,0,1,4.65-6.9,39.78,39.78,0,0,0,4.93-5.89,9.1,9.1,0,0,1,1.75-2c1.39-1.21,2.8-2.4,4.29-3.48a11.57,11.57,0,0,0,3.28-3.59,17.64,17.64,0,0,0,5.52-2.6,24.45,24.45,0,0,1,8.63-2.76,20.55,20.55,0,0,0,2.84-.49,38.31,38.31,0,0,1,12.82-1.41,14.81,14.81,0,0,0,5-.41,8.46,8.46,0,0,1,4.51.28c2.25.56,4.49,1.17,6.73,1.78,2.08.56,4.26.75,6.23,1.73a.77.77,0,0,0,.46.1c1.73-.33,3.31.45,5,.71a3.93,3.93,0,0,1,1.34.45,3.24,3.24,0,0,1,1.64,2,2.64,2.64,0,0,1-.86,2.25,21.47,21.47,0,0,1-5.19,0,9.13,9.13,0,0,0-2.61,0,24.85,24.85,0,0,1-2.87.18,18.16,18.16,0,0,0-2.87.14,5.26,5.26,0,0,1-2.84-.08,3.92,3.92,0,0,0-2.37,0,3.77,3.77,0,0,1-1.63.26c-2.22-.45-4.27.33-6.38.74a16.2,16.2,0,0,0-6.1,2c-.24.16-.62.1-.93.18a11.84,11.84,0,0,0-4,1.56,5.72,5.72,0,0,1-1.32.54,5,5,0,0,0-1.56.61c-1.36,1.21-3.15,1.41-4.71,2.16-2,1-4.16,1.68-5.7,3.41-.11.12-.23.29-.36.3-2.08.23-3,2-4.21,3.3a15.84,15.84,0,0,0-3.79,6.87,12.31,12.31,0,0,0-.38,5,.76.76,0,0,0,1.34.5,6.59,6.59,0,0,0,1.1-1.26c1.23-1.88,2.66-3.61,3.71-5.62a27.62,27.62,0,0,1,2.85-3.86,1.63,1.63,0,0,1,.54-.47c2.89-1.54,5.53-3.53,8.71-4.56a30.39,30.39,0,0,0,4.11-2,2.14,2.14,0,0,1,1.83-.33,1.87,1.87,0,0,0,2.18-.48,2.47,2.47,0,0,1,2.63-.66c.35,1.63-.89,1.61-1.77,1.79-.53.61.15,1.61-.82,1.94a.27.27,0,0,0-.17.16c-.38,1.55-1.61,2.53-2.51,3.73a35.7,35.7,0,0,0-3.82,6.62c-1,2.11-2,4.16-3.06,6.24a2.1,2.1,0,0,0-.36.87c0,2.08-1.3,4-.81,6.1-.15,4.76.83,9.37,1.89,14a12.67,12.67,0,0,0,2.63,4.78c.1.13.27.2.35.34,1.51,2.49,3.93,3.88,6.39,5.22.35.19.69.4,1,.6a19.75,19.75,0,0,0,10.49,3,3.73,3.73,0,0,1,1.42.17c.61.28,1.14.57,1.78.1a.56.56,0,0,1,.46-.06c2,.72,3.9-.08,5.83-.41.86-.14,1.73-.32,2.59-.5a9.3,9.3,0,0,0,1.37-.39c1.26-.45,2.39-1.34,3.85-1.17a1.1,1.1,0,0,0,.65-.28c2.29-1.61,4.89-2.74,7-4.6a6.1,6.1,0,0,0,.72-.61,34.62,34.62,0,0,1,3.61-3.76,12.75,12.75,0,0,0,2.1-2.89,44.32,44.32,0,0,0,3.21-7.5,8.69,8.69,0,0,0,.51-2.58,19.31,19.31,0,0,1,.94-4.7,12.3,12.3,0,0,0,.32-2.36c0-.31-.12-.72,0-.94.77-1.17.26-2.49.43-3.73a19.8,19.8,0,0,0-.33-3.55,12.25,12.25,0,0,0-.69-4c-.38-1-.73-1.94-1.15-3.08l1-1.62a4.65,4.65,0,0,1,4.22,1.48c1.4,1.43,2.94,2.73,4.3,4.19,1.08,1.17,2,2.49,3,3.76.72,1,1.31,2,2.1,2.9a8.63,8.63,0,0,1,1.88,3.85,7.4,7.4,0,0,0,.7,2.26,2.21,2.21,0,0,1,.11,1.38c-.21,1.19-.51,2.36-.77,3.53-.22,1-.43,2-.66,3-.1.46-.23.93-.35,1.38-.31,1.08-.69,2.14-.9,3.23a15.09,15.09,0,0,1-1.56,4.25,29.58,29.58,0,0,1-4.43,6.23,19.63,19.63,0,0,1-2.79,2.23,10.17,10.17,0,0,0-2.84,2.55,1.55,1.55,0,0,1-.47.54c-2.31,1.26-3.73,3.46-5.55,5.23a7.68,7.68,0,0,1-3.27,1.92c-2.93.85-5.82,1.81-8.72,2.72-2.65.83-5.39.78-8.11.92-.87.05-1.74.21-2.61.18-1.43,0-2.66.86-4.22.56s-3,.24-4.51.3a41.48,41.48,0,0,1-4.32-.05,7.54,7.54,0,0,1-4.32-1.23,6.48,6.48,0,0,0-2.46-.88c-3.35-.83-6.68-1.72-10-2.63a23.78,23.78,0,0,1-5.6-2.72,8.79,8.79,0,0,1-1.89-1.82c-1.51-1.66-3-3.34-4.47-5a1.56,1.56,0,0,0-.35-.33,4.09,4.09,0,0,1-2-1.29c-1.1-1.66-2.66-3-3.28-5a16.23,16.23,0,0,0-2.21-4.25,3.93,3.93,0,0,0-2.68-1.83,2,2,0,0,0-.45,2,12,12,0,0,0,.8,2.76,13.49,13.49,0,0,1,1.2,4.13,5.8,5.8,0,0,0,1.51,3.21,8,8,0,0,1,1.8,2.81,10,10,0,0,0,4.75,5.2,39.23,39.23,0,0,1,4.74,3.28,15.67,15.67,0,0,0,4.75,2.24,6.79,6.79,0,0,1,1.16.28c3,1.74,6.4,2,9.72,2.48.47.08.93.2,1.4.31a6.1,6.1,0,0,0,1.39.37c3.94,0,7.6,1.82,11.54,1.78,1.84.7,3.8.38,5.69.75a13.17,13.17,0,0,0,4.06,0c1.58-.18,3.15,0,4.71-.16s3.17-.31,4.76-.44a6.79,6.79,0,0,1,1.19,0,35.76,35.76,0,0,0,6.94.22c1.82-.14,3.66,0,5.5,0a11.39,11.39,0,0,0,1.43,0c1.47-.18,2.77-1,4.43-.69,1.36.25,2.85-.19,4.28-.31a3.5,3.5,0,0,1,.72,0c3.14.46,6.2-.38,9.29-.63,2-.17,2.65,0,4.39,1.5a4.57,4.57,0,0,1-3.55,4c-2.52.79-5,1.85-7.43,2.78-2.25.84-4.53,1.6-6.76,2.49a134.34,134.34,0,0,1-13,4.36,26.47,26.47,0,0,1-6.56,1.38c-2.34.05-4.5,1.1-6.84.85a1.12,1.12,0,0,0-.48.06c-3.15,1.13-6.49.79-9.74,1.11-2.6.26-5.27-.16-7.91-.22-3-.07-5.88-.69-8.82-1a8.15,8.15,0,0,1-4.17-1.72c-3-2.31-5.93-4.62-8.86-7-.68-.54-1.21-1.26-1.84-1.86a1.9,1.9,0,0,0-1.8-.8,9.11,9.11,0,0,0,.66,1.26c.85,1.17,1.76,2.29,2.61,3.46a10.36,10.36,0,0,0,2.87,2.88,12,12,0,0,1,2.94,3.13c.5.63.25,1.2-.3,1.67a6.36,6.36,0,0,1-2.14,0c-1.53-.56-3.17-.38-4.71-.84a.51.51,0,0,0-.24,0c-2,.37-3.76-.55-5.62-.88a20.66,20.66,0,0,1-6.38-2.69c-2.33-1.31-3.79-3.38-5.2-5.52A22.46,22.46,0,0,1,477,443.7c-.06-.13-.42-.12-.81-.23a8.79,8.79,0,0,0,0,1.46,11,11,0,0,0,2.82,5.22,26.78,26.78,0,0,0,2.95,3.16c2.07,1.78,4.27,3.34,7.15,3.63,1.5.16,3,.6,4.47.9A44.74,44.74,0,0,0,504,459a25.5,25.5,0,0,1,5,.49,106.87,106.87,0,0,0,13.83,1c1.6.06,3.18.19,4.77.35a43.41,43.41,0,0,0,6.24-.1c.79,0,1.59-.23,2.39-.24a84.12,84.12,0,0,0,10-1,10.49,10.49,0,0,1,1.67-.16,12.61,12.61,0,0,0,4.72-.77,36.3,36.3,0,0,1,6.75-1.63,8.68,8.68,0,0,0,1.59-.52,25.27,25.27,0,0,1,2.49-.86,30.08,30.08,0,0,0,3.72-.8,1.58,1.58,0,0,1,2.09,1.11,1.4,1.4,0,0,1-.14,1.37c-1.21,1.79-2.36,3.63-3.67,5.35a6.53,6.53,0,0,1-2.06,1.6c-3.57,2-7.16,3.91-10.76,5.84-.63.34-1.31.58-1.95.9a5.85,5.85,0,0,0-1.66,1,14.77,14.77,0,0,1-4.75,2.77c-2.17,1-4.39,1.92-6.65,2.7a5.23,5.23,0,0,1-2.83.08,14,14,0,0,0-5.24.14c-2.31.27-4.6.71-6.89,1.11-.79.14-1.56.37-2.34.55-2.34.55-4.67,1.12-7,1.6a8,8,0,0,1-2.39.12,63.51,63.51,0,0,1-10-1.34,43.94,43.94,0,0,0-8.29-1.33c-2.42-.16-4.47-1.19-6.65-1.92a51.76,51.76,0,0,1-9.34-4.26,2.46,2.46,0,0,0-1.12-.32,2.16,2.16,0,0,1-1.85-.92,1.74,1.74,0,0,0-1-.65c-1.56-.32-2.94-1.21-4.57-1.36a13.1,13.1,0,0,1-3-.91c-1.12-.4-2.2-1-3.35-1.26-2.6-.66-4.84-2.11-7.25-3.17a1.81,1.81,0,0,1-.62-.36c-2-2.36-4.88-3.86-6.84-6.31-.79-1-1.51-2.05-2.37-3.22a2,2,0,0,0-2.12.13,7.5,7.5,0,0,0,1.11,4.74c1.13,1.92,2,4,3,6a5.73,5.73,0,0,0,.88,1.42,7.26,7.26,0,0,1,1.59,3.44,39.3,39.3,0,0,1,.76,6.92,5.72,5.72,0,0,1-.93,3.54,2.16,2.16,0,0,1-2.58-.28c-1.35-1.11-2.93-2-3.8-3.61a4.42,4.42,0,0,0-1-1c-.17-.16-.47-.25-.55-.44-.93-2.18-2.88-3.6-4.15-5.53-.14-.2-.4-.37-.43-.57-.14-1.31-1.17-1.84-2.09-2.48l-.57-.37a9.25,9.25,0,0,0-.8-2.48,7.55,7.55,0,0,0-2.11-1.9c-.72-.48-1.3-.92-1.3-1.86a1.43,1.43,0,0,0-.26-.66,48.5,48.5,0,0,1-2.72-5.85,6.75,6.75,0,0,1-.59-3.5c0-.56.13-1.12.13-1.67a25.56,25.56,0,0,1,1-5.9,3,3,0,0,0-.38-2.42,1.64,1.64,0,0,0-1.34,1.07,22.93,22.93,0,0,0-1.44,7.28c0,1.28-.07,2.56-.1,3.84A11.77,11.77,0,0,0,425,457.2a15.8,15.8,0,0,1,1.29,3.34c.67,2.92,2.13,5.52,3.2,8.28a3.29,3.29,0,0,0,.73,1.24,12.74,12.74,0,0,1,2.5,4.06c1.44,2.85,1.23,4.79-1,7.27-1.18,1.29-2.24,2.69-3.52,3.9a6,6,0,0,0-1.07,1.29,5.27,5.27,0,0,1-2.66,2.53c0,1.32-.19,1.66-1.15,1.64a15.93,15.93,0,0,0-8.37,2.43,15,15,0,0,1-5,1.5,13.3,13.3,0,0,0-1.43.17,2.4,2.4,0,0,1-2.88-1.15,2.37,2.37,0,0,0-1.18-1.11c-1.88-.67-2-.94-2.07-2.93,0-.24,0-.48,0-.94-.85-.72-1.76-1.6-2.79-2.32a5.42,5.42,0,0,1-2-3.17,10.38,10.38,0,0,0-1-2.4,47.71,47.71,0,0,1-3.27-6.41,6.05,6.05,0,0,0-2.21-3.3c-.25-2.25.24-4.48-.15-6.72a4.63,4.63,0,0,1,.54-2.53,27.57,27.57,0,0,1,2.22-4c1.73-2.51,3.56-4.94,5.37-7.39a3.19,3.19,0,0,1,1-1,13.33,13.33,0,0,0,4.45-4.23,17.24,17.24,0,0,0,2.83-5c.22-.67,1-1.28,1-1.89a5.52,5.52,0,0,1,1.27-3.27,1.77,1.77,0,0,0,.19-.92c-.1-1.76.71-3.22,1.44-4.74,1.22-2.52,2.29-5.11,1.91-8a3.91,3.91,0,0,1-.06-1,24.82,24.82,0,0,0,.42-3.3c0-1.09-1-2-.62-3.24a1,1,0,0,0-.11-.69c-1.06-2.25-1.1-4.82-2.36-7.19l-1.7-.49a3.28,3.28,0,0,1-.11-.94,3.22,3.22,0,0,0-1.38-3.36c-1.06-.76-1.14-1.86-1.36-2.93a1,1,0,0,1,.27-.86c1.15-.62,1.42-2.17,2.77-2.56a.91.91,0,0,0,.52-.48c.67-1.74,2.34-2.86,2.85-4.7a1.51,1.51,0,0,1,.32-.63c1.57-1.67,2.35-3.8,3.37-5.78a31.05,31.05,0,0,0,2.69-6.91,5.82,5.82,0,0,0,.06-1.91c-.22-2.37-.32-4.75-.74-7.1-.19-1-.34-2-.57-3a25.62,25.62,0,0,0-1-3.7,17.23,17.23,0,0,1-1.31-5.32c-.14-2-.92-3.91-.61-5.94a9.49,9.49,0,0,0-2.14-3.62c-.93.2-1.33.73-1.22,1.57a2.08,2.08,0,0,1-.56,1.73,4.28,4.28,0,0,0-1,2.11,4.9,4.9,0,0,1-.94,2.39,1.56,1.56,0,0,0,.59,2.42c1.44.92,1.44.92,2.12,2.25-.28.2-.59.4-.88.63a1.56,1.56,0,0,0-.73,1.85,2.24,2.24,0,0,1-.52,2.14c-.82,1.07-.26,2.37.39,3.57l2.59-.3c-.28.76-.65,1.1-1.23,1.06s-.92-.3-1.39-.31a1,1,0,0,0-.74.47c-.23.45.09.73.51.89.07,0,.12.09.26.2l-.14,2.32-1.38.66a8.46,8.46,0,0,1-.31,1.51,3.53,3.53,0,0,1-.76,1.16.65.65,0,0,1-1.08-.42c-.09-.55-.12-1.11-.23-1.65a6.76,6.76,0,0,0-.39-.94c-.42,0-.81,0-1.2-.08a1.76,1.76,0,0,0-2,1.28,15.33,15.33,0,0,1-1.24,2.33,5.61,5.61,0,0,1-.95.89,8.51,8.51,0,0,1-1.13-4,4.54,4.54,0,0,0-1.78-4,15.42,15.42,0,0,0-.15-2.36,4.35,4.35,0,0,1,.24-2.8,9.69,9.69,0,0,0,.36-2.12c.15-.84-.83-1.16-.87-1.91a6.85,6.85,0,0,0,.33-4.84c-.09-.3-.25-.71-.13-.92.66-1.1.34-2.35.66-3.47a3.47,3.47,0,0,0,.07-2.09,3,3,0,0,1,.13-1.16c.33-2.13.94-4.2,1.14-6.37a40.14,40.14,0,0,1,1.36-5.84,1.28,1.28,0,0,1,.17-.45,8.34,8.34,0,0,0,1.71-5.16,2.59,2.59,0,0,1,.36-1.13,57.12,57.12,0,0,1,3.06-5.41c1.09-1.58,2.5-2.93,3.74-4.39a15.71,15.71,0,0,1,2.16-2.53,3.18,3.18,0,0,0,.63-1.26c.11-.29.07-.82.24-.88,1.47-.57.94-1.83,1.07-2.87a2.63,2.63,0,0,1,.67-1.75,4.89,4.89,0,0,0,1.46-3c.21-1.57,1.16-2.34,2.53-3.29-.35,2.33-1.37,4.47.35,6.4,2.63.29,5.25.56,7.87.87a4.31,4.31,0,0,1,1.35.41.69.69,0,0,1,.31.57.75.75,0,0,1-.34.57,9.92,9.92,0,0,1-3,.65c-1.64-.11-2.92.75-4.33,1.25a1.38,1.38,0,0,0-.67,1.16,10.29,10.29,0,0,0,.55,2.55,6.46,6.46,0,0,0,.75,1.22c.61,1.05.72,1.11,2.07.93.15,0,.31-.07.46-.08.44,0,.8.46.53.79-.5.63-.83,1.2-.09,1.86l-.49,1.84c1.12,0,.83,1.1,1.31,1.77-.34.49-.7,1-1,1.5a5.66,5.66,0,0,0-1,4.29c.46,2.67.47,5.41.72,8.12.13,1.44.32,2.87.53,4.29a10,10,0,0,1-.14,3.09c-.32,2.05-.46,4.14-.66,6.21a13.25,13.25,0,0,0-.07,1.67c0,1.12.06,2.24.2,3.35a3,3,0,0,0,2.07,2.71c.59-.27.85-.68.54-1.33ZM405.28,328c.54-.63.25-1.09-.42-1.64l-.54,1.2a14.09,14.09,0,0,0-2.38,4.91c-.3.9-.48,1.84-.74,2.76a68.23,68.23,0,0,0-1.8,10.13c0,.35-.21.82.36,1a2.83,2.83,0,0,0,.91-2.58c-.09-.34.15-.77.19-1.16.24-2.11,1.11-4.11,1.09-6.29a3.53,3.53,0,0,1,.67-2,10.5,10.5,0,0,0,1.72-4.43A5.5,5.5,0,0,1,405.28,328ZM395,463.3c-1,.94-1.08,1-.89,1.49a10.67,10.67,0,0,1,.6,3.26,3.34,3.34,0,0,0,.52,1.31.66.66,0,0,0,.58.24c.25-.13.62-.43.6-.61A13.16,13.16,0,0,0,395,463.3Zm4.23-99.09c-.05,1.91-.05,1.91.75,2.48C400.54,365.76,400.14,365.11,399.19,364.21Zm.36-3.43c-.71.54-.86,1.12-.47,1.73.05.07.28,0,.6.07Zm22.83-39.22-.31-.23a3.91,3.91,0,0,0-.34.49s.17.15.26.23ZM398.72,356.2l0,.43a.88.88,0,0,0,.12-.17.33.33,0,0,0,0-.22S398.77,356.21,398.72,356.2Zm24.52-32.64c0-.06,0-.15,0-.18a.58.58,0,0,0-.19,0v.3Zm-18.91,40.3.16.05s.05-.12,0-.13a.3.3,0,0,0-.16,0A.39.39,0,0,0,404.33,363.86Z"/><path d="M776.06,246.2l1.1,2.72a2,2,0,0,0,.62.25c2.48.14,5,.15,7.43.38,5.6.51,11.2.06,16.8.1,1.77,0,3.55-.11,5,1.13,1.52-.07,2.62,1.09,4,1.36a13,13,0,0,1,4.45,2.31,3.86,3.86,0,0,1,1.52,2.65c.12.71.23,1.42.4,2.13.31,1.3.85,1.89,2.15,1.8a4.77,4.77,0,0,1,3.29,1.18c.77.57,1.52,1.19,2.31,1.74a9.87,9.87,0,0,1,2.95,3.74c.6,1.13,1.09,2.32,1.64,3.48.76,1.6.61,2.41-.78,3.55a22.21,22.21,0,0,1-5,3.22,38.93,38.93,0,0,0-3.5,2.09c-2.65,1.49-5.3,3-8.08,4.21a54.15,54.15,0,0,0-5,2.82c-1.44.85-2.85,1.75-4.25,2.67a62.66,62.66,0,0,0-9.35,7.09,8.79,8.79,0,0,1-.74.6c-1.19.95-2.46,1.8-3.55,2.86a96.89,96.89,0,0,0-8.55,9.11,55,55,0,0,1-5.77,5.76c-1.46,1.37-2.86,2.82-4.35,4.16a39.6,39.6,0,0,1-3.37,2.68,4.32,4.32,0,0,1-1.37.44,16,16,0,0,1-4.78.24,1.72,1.72,0,0,1-1.73-2.26,13.7,13.7,0,0,1,1.37-3.05,20.63,20.63,0,0,1,4.12-4.67,18.2,18.2,0,0,0,3.07-3.67,11.54,11.54,0,0,1,2.71-3,8.92,8.92,0,0,0,1.07-1,31.7,31.7,0,0,1,4.77-4,7.41,7.41,0,0,0,2.6-2.44c.62-1.17.12-2-1.19-2.06-.16,0-.32.05-.48.05-.85-.05-1.1-.27-1.26-1.13-.05-.23,0-.48-.06-.71a3,3,0,0,0-.2-.57,5,5,0,0,0-2.94-.41c-2.46.25-5,0-7.37.87-2.86,0-5.72.33-8.49-1a24.26,24.26,0,0,1-5.91-3.59,1.62,1.62,0,0,0-.58-.42c-1.66-.38-2.75-1.55-3.86-2.88a5.7,5.7,0,0,0-1.27,4.73c.23,3,.62,5.9,1,8.85.56,4.77,1.21,9.53,1.65,14.31.33,3.59.39,7.2.53,10.81a9.43,9.43,0,0,1-.21,1.66,66.55,66.55,0,0,0-1.06,8.33,17.17,17.17,0,0,1-.85,3.73,1.17,1.17,0,0,1-1.09.82l-2.82.23c-.8-.33-1-1.05-1.25-1.72-.95-2.55-1.87-5.12-2.85-7.66a3.26,3.26,0,0,1-.23-2.54,7,7,0,0,0,.22-1.71c-2.44-2.76-4.09-6.07-6.11-9.12a2.37,2.37,0,0,1-.42-1.35,6.84,6.84,0,0,0-1-3.65c-1-1.75-2-3.49-3.06-5.17a8.23,8.23,0,0,0-1.65-1.74,1.36,1.36,0,0,0-2,.17c0,.51-.1,1.13-.15,1.75-.23.16-.42.3-.63.42-.75.45-1.52.86-2.26,1.33a3.17,3.17,0,0,0-1.4,1.59,2.83,2.83,0,0,1-2.21,1.77,8.2,8.2,0,0,1-1.3-1,6.54,6.54,0,0,0-3.54-1.87c-1.62-.41-3.26-.81-4.87-1.28a8.59,8.59,0,0,0-5.87.48c-1.55.64-2.87,1.75-4.53,2.16-2.3,1.91-5,3.3-6.29,6.37a18.49,18.49,0,0,1-3.66,5.31,29.69,29.69,0,0,0-3.24,4.46c-.94,1.49-1.71,3.08-2.55,4.63,0,.07,0,.17-.08.23a7.23,7.23,0,0,0-1.19,1.43c-.22.46,0,1.09-.17,1.61a2.13,2.13,0,0,1-.66.95c-.9.78-1.84,1.51-2.77,2.27-.74.61-1.48,1-2.35.21a1.52,1.52,0,0,0-1.79-.19c-1.18.55-2,0-2.7-.91a6.19,6.19,0,0,1-.46-.84,18.86,18.86,0,0,0-2.64-4.27,2.06,2.06,0,0,1-.39-2.67,4.32,4.32,0,0,0,.49-3.69c-.64-2.55.37-4.69,1.13-6.95,1.12-3.33,2.87-6.45,3.42-10a16.43,16.43,0,0,0,.52-4.94,2.18,2.18,0,0,1,0-.72c.78-3.83-.08-7.44-1.36-11a30.61,30.61,0,0,1-1.28-4.36,7,7,0,0,0-1.68-3.4,16.28,16.28,0,0,1-2.47-4.08,30.1,30.1,0,0,0-3-4.93c-1.5-2.06-3.11-4-4.5-6.17a25.6,25.6,0,0,0-4.43-4.69c-.71-.65-1.52-1.18-2.23-1.82a27.87,27.87,0,0,0-6.92-4.26,4.6,4.6,0,0,0-1.61-.44,5.28,5.28,0,0,1-4.71-3.45c.9-3.34,2.46-3.49,5.25-2.35a8.92,8.92,0,0,0,1.84.49c2,.31,3.83,1.12,5.9,1a10.23,10.23,0,0,1,2.78.67c1.32.32,2.63.7,4,.89,2.21.32,4.45.55,6.68.73a5.51,5.51,0,0,0,1.56-.36c.05-1-1-.75-1.24-1.37a6.61,6.61,0,0,0-.86-1.44,1.51,1.51,0,0,0-.73-.6c-1.72-.43-3.05-1.73-4.85-2a3.28,3.28,0,0,1-2.6-1.74c.79-.77,1.54-1.57,2.77-1.55a12.21,12.21,0,0,0,6-1.25,5.84,5.84,0,0,1,2.56-.16c.48,0,.94.21,1.42.23a2,2,0,0,0,1.73-.66,3.35,3.35,0,0,1,4.11-1c1.07.43,2-.34,3.06,0s1.91.73,2.87,1.07a1.34,1.34,0,0,0,.71.08c1.86-.47,3.65.46,5.49.22,1.59.83,3.56.6,4.93,2.14a14.45,14.45,0,0,0,4.41,2.84,8.79,8.79,0,0,1,3.89,3.76,20.28,20.28,0,0,1,.9,2.29c.58,0,1.21.08,1.84.1.39,0,.87-.13,1.18,0,1.77,1,3.55.57,5.34.13a5.78,5.78,0,0,1,.7-.14c1.67-.22,2.31.21,2.82,1.87a3.57,3.57,0,0,0,.11.47,4.21,4.21,0,0,1-.71,4.5,6.66,6.66,0,0,0-1,1.9.73.73,0,0,0,1.1.85c1.94-1.14,3.79-2.41,5.77-3.46,2.76-1.46,5.6-2.77,8.4-4.15a22.5,22.5,0,0,1,4.74-1.56,17.62,17.62,0,0,0,3.54-1.49,2.4,2.4,0,0,0,1.43-2.31,5.13,5.13,0,0,0-2.75-.87,87.31,87.31,0,0,0-12-.76,33.17,33.17,0,0,1-3.58-.38A1.55,1.55,0,0,1,716.2,250a1.74,1.74,0,0,1,.28-1.09c.25-.41.71-.31,1.07-.14s.66.47,1,.66a1.81,1.81,0,0,0,1.83,0c.41-.23.92-.31,1.31-.57,1.63-1.09,3.48-1.12,5.32-1.15.48,0,1,.17,1.43,0,2.12-.89,4.41-.67,6.59-1.09a1.64,1.64,0,0,0,.47-.09c1.88-1.13,4.13-1.18,6.08-2.1a39.45,39.45,0,0,1,5.14-2,7.56,7.56,0,0,1,1.89-.32,12,12,0,0,0,5.3-1.37,6.91,6.91,0,0,1,2.77-.67c1.9-.16,3.82-.17,5.72-.36,1.51-.15,3-.53,4.49-.69a19,19,0,0,1,3.11,0c1,.06,2.06.3,3.09.31a13.93,13.93,0,0,1,3.34.24c.56.15,1.23-.18,1.86-.24.79-.08,1.68-.25,2.15.63a1.82,1.82,0,0,1-.42,2C778.91,243.49,778,245.23,776.06,246.2Z"/><path d="M877.78,340.67a6.62,6.62,0,0,1,3.82.76c1,.45,2,.82,3,1.28a12,12,0,0,0,3,.77,21.94,21.94,0,0,1,3.6,1.32,23,23,0,0,0,3.12,1.23,17.88,17.88,0,0,1,4.4,1.89,3.89,3.89,0,0,1,1.54,1.47c.81,1.38,1.65,2.74,2.39,4.16a5.36,5.36,0,0,1,.55,3.95c-.32,1.16-.47,2.36-.78,3.52a8,8,0,0,0-.54,3.05,2.83,2.83,0,0,1-.65,1.76c-2.61,4.61-5.77,8.86-8.65,13.3-.53.81-1,1.62-1.54,2.44a25.75,25.75,0,0,1-4.12,5.3,34.13,34.13,0,0,0-3.22,3.86,5.72,5.72,0,0,1-2.27,2.06,9.16,9.16,0,0,0-2,1.67,6.66,6.66,0,0,1-1.22,1.11c-2.51,1.25-5,2.51-7.58,3.64a36.73,36.73,0,0,1-12.13,2.6c-3.19.25-6.38.45-9.58.47a49.57,49.57,0,0,0-5,.53,6.67,6.67,0,0,1-1.9.23c-2-.35-4,.1-6,0a66.2,66.2,0,0,1-7.18-.6c-2.85-.46-5.73-.47-8.58-.77a86.39,86.39,0,0,1-8.8-1,56.3,56.3,0,0,1-5.6-1.34,26.87,26.87,0,0,1-4.63-1.95,46.67,46.67,0,0,1-8.44-5.5,10.74,10.74,0,0,1-3.52-6.09,3.56,3.56,0,0,1,1.5-4,12.79,12.79,0,0,1,3-1.55,22.27,22.27,0,0,0,4.92-2.48A7.27,7.27,0,0,0,801.3,375a.82.82,0,0,1,.12-.2c1.92-2.76,3.89-5.48,5.74-8.29,1.63-2.46,3.55-4.73,4.82-7.45a18.33,18.33,0,0,1,2.47-3.52,5.49,5.49,0,0,1,1.67-1.36c2.82-1.52,5.68-3,8.52-4.45l.43-.22c1.38-.6,2.4.09,2.31,1.6a3.55,3.55,0,0,1-.33,1.14,16.34,16.34,0,0,0-1.32,6.76c0,1.44-.25,2.87-.37,4.31a10,10,0,0,0-.07,2.38,27.62,27.62,0,0,0,2.24,8,82,82,0,0,0,5.4,9.08,37.66,37.66,0,0,0,4,4.74,8,8,0,0,0,3,1.94c1.48.55,3,1,4.43,1.71a6.6,6.6,0,0,0,4.92.25,3.37,3.37,0,0,1,2.1-.19,2.77,2.77,0,0,0,1,.1c4.16-.31,8.29-.66,12.08-2.75,1.41-.77,2.89-1.73,4.72-1.48.37,0,.88-.34,1.21-.66,1.91-1.81,3.8-3.66,5.68-5.51a3.89,3.89,0,0,0,.88-1.11c1.13-2.38,2.46-4.65,3.57-7a26.83,26.83,0,0,0,2.88-10.58c0-.4,0-.8,0-1.2a13.44,13.44,0,0,0-1-7.25c-1.27-2.85-2.08-5.89-3.13-8.83-.38-1.05-.89-2.05-1.3-3.1A6.47,6.47,0,0,1,877.78,340.67Z"/><path d="M852.07,387.37c-.72,0-1.45,0-2.16,0a2.77,2.77,0,0,1-2-.71,7,7,0,0,0-1.41-.88c-2.36-1.36-4.72-2.7-7.07-4.08a3.6,3.6,0,0,1-.81-.84c-.89-1-1.77-2.06-2.63-3.12a3.33,3.33,0,0,1-.56-1,21.88,21.88,0,0,1-.82-2.76A11.61,11.61,0,0,0,833,369.7a4,4,0,0,1-.53-1.56c-.17-1.18-.28-2.38-.35-3.58a7,7,0,0,1,.54-3,16.44,16.44,0,0,0,1.3-4.83,8.65,8.65,0,0,1,3.64-6,25.22,25.22,0,0,0,3.8-3.65c1.19-1.48,3-2.05,4.6-3,.41-.24,1-.27,1.31-.57,1.48-1.28,3.29-1.59,5.11-1.93a3.59,3.59,0,0,1,2.35.13,3.12,3.12,0,0,0,1.37.06c1-.07,1.91-.18,2.86-.24a1.07,1.07,0,0,1,.7.09c1.32,1,3,1.13,4.49,1.61a16.26,16.26,0,0,1,5.08,2.58,37.91,37.91,0,0,1,5,4.47,18.17,18.17,0,0,1,2,3c.58,1,.95,2,1.55,3a6.55,6.55,0,0,1,.88,4.14,27,27,0,0,1-1.19,6.85,20.74,20.74,0,0,0-.78,2.77,15.68,15.68,0,0,1-4.24,7.91,27.12,27.12,0,0,1-10.2,7.36,28.62,28.62,0,0,1-8.35,1.92c-.64,0-1.28,0-1.92.08Zm3.32-29.77c.2.73.4,1.32.51,1.92a17.91,17.91,0,0,1,.45,3.07c0,1.14-.55,1.71-1.69,2a6.51,6.51,0,0,1-2.12.27,6.09,6.09,0,0,0-3.7.68,1.77,1.77,0,0,1-1.54.08,2.26,2.26,0,0,0-2.57.57c.29,1.49.55,2.9.85,4.29a2.41,2.41,0,0,0,1.11,1.51,5.65,5.65,0,0,0,2.71.88,9.05,9.05,0,0,1,1.89.24,6.77,6.77,0,0,0,5.34-.56c1.27-.64,2.49-1.42,3.87-1.3.2-.27.35-.38.39-.52a17.23,17.23,0,0,1,1.77-4.9,2.14,2.14,0,0,0,.14-1.17,3.41,3.41,0,0,1,1.2-2.84c-.13-1-.19-1.92-.36-2.78a2,2,0,0,0-.62-1.24c-1.55-1-3-2.43-5.22-1.62l-1,1.53Zm-20.13-2.46.1-.17-.17,0Z"/><path d="M550.56,393.39a18.86,18.86,0,0,1,.56,7.25c.26.27.46.52.69.72a3,3,0,0,1,1,3.25,26.34,26.34,0,0,0-.53,3.56,4.08,4.08,0,0,1-.75,2c-1.07,1.49-2.07,3-3.14,4.53a4.31,4.31,0,0,1-1.22,1.11c-1.66,1-3.38,1.84-5,2.84a12.46,12.46,0,0,1-5.19,1.78,83.44,83.44,0,0,0-11.51,2.41,8.57,8.57,0,0,1-6.28-.73,53,53,0,0,1-6.09-3.37,17,17,0,0,1-7-8.32,3.59,3.59,0,0,1-.17-1.38,10.6,10.6,0,0,0-.33-4,16.33,16.33,0,0,1-.38-2.13,9.65,9.65,0,0,1,.88-6.31c.52-1,1-2,1.51-3a2.79,2.79,0,0,0,.45-1.1c0-1.63,1.06-2.55,2.22-3.49a32.37,32.37,0,0,1,4.45-3.26,9.26,9.26,0,0,0,1.94-1.77,4.78,4.78,0,0,1,3.65-1.5,79.69,79.69,0,0,1,10.81.5,1,1,0,0,0,.24,0c4-.67,6.75,1.93,9.72,3.88a7.32,7.32,0,0,1,1.52,1.17,9.14,9.14,0,0,0,4.36,2.82C548.44,391.31,549.44,392.53,550.56,393.39Zm-18.95,4.91-1.5,1.83a16.52,16.52,0,0,1-7,4.9,2,2,0,0,0-1.32,2.06c1.58,1,3,1.91,4.4,2.77a2.52,2.52,0,0,0,1.33.45,5.13,5.13,0,0,0,3.15-1,14.09,14.09,0,0,1,4.29-2.6,3.83,3.83,0,0,0,1.76-1.55,16.15,16.15,0,0,0,2-4.55,4.39,4.39,0,0,0-.4-2.56,2,2,0,0,0-1.59-1.53l-3.19,1.79Z"/><path d="M974.23,365.26c-2.24-.25-3.31-1.8-4.31-3.45-.5-.82-1-1.63-1.56-2.4-1-1.41-2.11-2.79-3-4.29C964,353,962.56,351,961.17,349c-1.17-.67-1.56-1.92-2.23-3a7.64,7.64,0,0,0-1.13-1.22,12.63,12.63,0,0,1-3.36-5.39,4.22,4.22,0,0,0-.66-1.26,11.4,11.4,0,0,1-1.75-3.65,119.93,119.93,0,0,0-5-13,22.34,22.34,0,0,0-2.58-4.84,6.18,6.18,0,0,1-1.61-4.6c.17-1.38.54-2,2-1.48a31,31,0,0,1,3.12,1.21,19.84,19.84,0,0,0,6.54,1.43,7.11,7.11,0,0,1,4.61,2.26c2.17,2.27,4.8,4,7.14,6,1.31,1.17,2.73,2.23,3.93,3.5a25.84,25.84,0,0,1,2.22,3.12c.46.65.93,1.3,1.45,1.91a4.06,4.06,0,0,1,.9,3.13c-.25,2.78-.43,5.58-.64,8.36a2.6,2.6,0,0,1,0,.48c-.74,2.61-.17,5.26-.3,7.88-.06,1.36,0,2.72-.13,4.07a24.8,24.8,0,0,0,.83,8.31A3.11,3.11,0,0,1,974.23,365.26Z"/><path d="M1000.87,360l-1.42,3.06a2,2,0,0,0-.31.89c.22,2.34-.63,4.58-.68,6.82a4.05,4.05,0,0,0,3.29,1.85,3.12,3.12,0,0,1,2.93,1.72c.08.19.35.3.53.45,0,.81,0,1.6,0,2.39a1.09,1.09,0,0,1-.93,1.19c-.45.08-.6.5-.5.95s.56.48,1,.54a2.24,2.24,0,0,1,.33.14,6.48,6.48,0,0,1,.08,1.34c0,.24-.34.61-.54.61s-.46-.32-.63-.45c0,1.13,0,1.13.9,1.83a.89.89,0,0,1,.09,1.43,11.91,11.91,0,0,1-1,.79L1005,387a8.07,8.07,0,0,0-.7.93.67.67,0,0,0,.28,1c.4.18,1.1,0,.91.77-.08.31-.54.51-.82.77-.05.05,0,.15-.1.38.39.47.87,1,1.27,1.55a2.21,2.21,0,0,1,.41,1.09,1.09,1.09,0,0,1-.41.81.94.94,0,0,1-.88,0,5.34,5.34,0,0,1-1.57-1.73,3.23,3.23,0,0,0-1.66-1.9,5.25,5.25,0,0,1-1.14-.86,4.83,4.83,0,0,0-2.76-1.7,3,3,0,0,1-2-1.66,1.92,1.92,0,0,0-1.32-.92,3.18,3.18,0,0,1-1.43-.8c-1.5-1.52-2.94-3.11-4.41-4.66-.21-.24-.43-.56-.7-.63-1.38-.39-2.13-1.63-3.27-2.36a2.77,2.77,0,0,1-1.11-3.17c.33-1.4.59-2.82.85-4.24.59-3.3.08-6.55-.43-9.8a9.6,9.6,0,0,0-.66-1.78c-.15-.44-.47-.93-.38-1.33.2-1-.61-1.19-1-1.76.56-2.22-.53-4.14-1.27-6.12a6.41,6.41,0,0,1-.44-1.8,14.59,14.59,0,0,0-.8-3.22c-.61-1.81-1.37-3.58-1.93-5.41a8.32,8.32,0,0,1,0-2.25c.49,0,1-.16,1.36,0a10.36,10.36,0,0,1,4.35,3.62,18.67,18.67,0,0,0,3,3.09c.79.78,1.61,1.54,2.42,2.3a18.26,18.26,0,0,0,3,2.79,3.94,3.94,0,0,1,.84.84c1.61,1.89,3.36,3.63,5.1,5.39a19.27,19.27,0,0,1,2.57,4A13.43,13.43,0,0,1,1000.87,360Z"/><path d="M389,442.32l.23,2.49a8.21,8.21,0,0,1-2,2.42,13.38,13.38,0,0,0-3.21,4.16c-1.08,2.14-2.41,4.16-2.92,6.55-.23,1.1-.47,2.19-.7,3.29,0,.16-.11.34,0,.47.76,1.86,0,3.82.43,5.71a6.09,6.09,0,0,1-.72,4.17c-.13.24-.43.39-.65.59-.19-.2-.37-.29-.39-.41-.41-2.28-.95-4.54-1.16-6.84-.23-2.47-.17-5-.16-7.45a5.84,5.84,0,0,1,.44-2.09,2.72,2.72,0,0,0-.1-2.53,5.39,5.39,0,0,1-.65-3.48,5.67,5.67,0,0,0-.57-3,9.08,9.08,0,0,1-1-4.39,2.59,2.59,0,0,1,.77-1.93,7.51,7.51,0,0,0,2.43-5.29,17.14,17.14,0,0,1,.83-3.24c.29-1,.65-2,.92-3a2.87,2.87,0,0,1,1.17-1.92,6.36,6.36,0,0,1,.08,1.45c-.43,2.27-.91,4.54-1.38,6.8-.27,1.33-.56,2.66-.86,4-.46,2,.1,4,.12,6a2.22,2.22,0,0,0,.53,1c.83,1.12,1.25,1.17,2.37.44C384.76,445,386.77,443.73,389,442.32Z"/><path d="M730.43,475.9c0,.2,0,.28,0,.36-.09,1.25-.81,2.32-1.49,2.13-.94-.26-1-1.18-1.15-1.93a11.77,11.77,0,0,1-.13-1.68c0-.4.09-.9-.11-1.18-1.08-1.54-.85-3.38-1.19-5.07a44.17,44.17,0,0,0-2.28-7.07c-.69-1.81-.92-3.69-1.48-5.52a48.29,48.29,0,0,0-1.75-5.21,12.78,12.78,0,0,1-.62-2.32c-.59-2.73-1.11-5.47-1.93-8.16a25.6,25.6,0,0,1-.81-5.68,20.71,20.71,0,0,0-1.34-5.82,4.13,4.13,0,0,1-.17-.45c-.21-.69,0-1.3.48-1.4a1.28,1.28,0,0,1,1.5.87,2.91,2.91,0,0,1,.11.71,16.76,16.76,0,0,0,1,4.2c.48,1.61.83,3.25,1.25,4.88,1.08,4.26,2.18,8.51,3.25,12.77.48,1.94.88,3.89,1.34,5.83.2.85.47,1.69.67,2.54.44,1.83,1.43,3.56,1.09,5.55a1,1,0,0,0,.14.68c1.17,1.78,1.53,3.83,2.08,5.83.37,1.39.84,2.75,1.27,4.12C730.2,475.26,730.33,475.63,730.43,475.9Z"/><path d="M827.3,293.92c2.44-1.38,4.35-2.78,7-2.68a17.85,17.85,0,0,0,3.79-.58l8.93-1.72a3.55,3.55,0,0,0,.47-.09c3.91-1.27,8.06-1.22,12-2.06,2-.43,4.06-.91,6.08-1.36a10.24,10.24,0,0,1,4-.1,1.24,1.24,0,0,1,.55,2.29,5.87,5.87,0,0,1-2,.79,29.85,29.85,0,0,1-6.19.66,5.51,5.51,0,0,0-1.18.17c-2.53.37-5.06.77-7.6,1.1-1.1.14-2.23.15-3.35.21a3.32,3.32,0,0,0-.71,0c-3.35.79-6.84.59-10.18,1.39-1.63.39-3.29.54-4.92,1a47.92,47.92,0,0,1-5.87,1.14C828.06,294.19,827.9,294.09,827.3,293.92Z"/><path d="M985.05,454.47c-.21.58-.65.55-1,.53a21.55,21.55,0,0,0-5.71.38,21.74,21.74,0,0,1-4.28.11,12.13,12.13,0,0,1-3.35,0,2,2,0,0,0-.95,0c-2.63.7-5.21.24-7.82-.19a5.66,5.66,0,0,0-2.13.08c-1.26.32-2.38-.2-3.54-.44a1.39,1.39,0,0,1-1-1.74,7.47,7.47,0,0,1,4.42-1.36c3.61-.08,7.19.36,10.78.54a32.83,32.83,0,0,0,6,.09,8.93,8.93,0,0,1,3.06.51C981.28,453.44,983.12,454,985.05,454.47Z"/><path d="M1002.83,453.48a3.54,3.54,0,0,0-2.49,1.31,1.74,1.74,0,0,1-.49.52c-1.22.66-2,1.58-1.59,3.06h-4.11c-.14-.47-.29-1-.48-1.62l-3.66.19-.72-2.43a2.4,2.4,0,0,1,1.91-.67,11.53,11.53,0,0,0,5.85-1c1.78-.74,3.7-.92,5.49-1.6a8.38,8.38,0,0,0,3.13-1.66c.51-.49,1.19-.8,1.73-1.27.72-.62,1.35-1.34,2.06-2s1.36-1.09,2.16-1.73l1,1c-.83,1.16-2.33,1.8-2,3.39-.63.59-1.23,1.11-1.77,1.68s-1,1.17-2,.81c-.42-.15-1.09.18-1.57.44-.84.46-1.62,1-2.42,1.55Zm-5.15,4.15-.12-.19a2.43,2.43,0,0,0-.3.24s.07.11.12.17Z"/><path d="M751.85,443.81a1.73,1.73,0,0,1,2.2-.17c.58.41,1.1.9,1.7,1.41a11.77,11.77,0,0,1,1.19-.75,3.74,3.74,0,0,1,4,.53c1.18.82,2.31,1.72,3.46,2.58a1.75,1.75,0,0,0,.6.37c2.37.41,3.94,2.36,6.12,3.14a.77.77,0,0,1,.39.26c1,1.66,2.74,2.58,4.24,4a2.44,2.44,0,0,1-1.74-.33,10.32,10.32,0,0,0-3.84-1.16,3.55,3.55,0,0,1-1.34-.48c-2.15-1.06-4.3-2.11-6.42-3.22a12.56,12.56,0,0,0-3.92-1.69,2.16,2.16,0,0,1-1.35-.92,3.71,3.71,0,0,0-3.34-1.94A2.11,2.11,0,0,1,751.85,443.81Z"/><path d="M951,480.57l1.62-1.19a4.68,4.68,0,0,0,4.66-.57c.2-.13.42-.34.63-.33,2.2.1,4.47-.71,6.64.57a1.75,1.75,0,0,1-1,2.48,11,11,0,0,0-3.71,2.94,2.88,2.88,0,0,1-3.67.84,25.5,25.5,0,0,1-2.26-1.31c-.4-.24-.72-.73-1.14-.81A2,2,0,0,1,951,480.57Z"/><path d="M678.37,353.58c.63-1,1.23-2,1.91-2.94a2.79,2.79,0,0,1,1.08-.94c2.42-1,4.08-3.08,6.13-4.59a19.67,19.67,0,0,0,2.36-2.68,9.69,9.69,0,0,1,1.61-1.39c.46-.33,1.19.17,1.18.77a3.64,3.64,0,0,1-.86,2.2c-1.67,2.15-3.3,4.33-5,6.45a6.07,6.07,0,0,1-3.71,2,3.69,3.69,0,0,0-2,.73C680.33,353.86,679.31,353.45,678.37,353.58Z"/><path d="M722.13,469.62a6.74,6.74,0,0,1-1.51-2.67c-.56-1.74-.86-3.59-2-5.1a2.09,2.09,0,0,1-.3-.9c-.61-3.63-2.16-7-3.21-10.47a4.2,4.2,0,0,1,.79-4.36,4,4,0,0,1,.78.76,13.59,13.59,0,0,1,1.51,4.24A130.06,130.06,0,0,0,722,466.18,6,6,0,0,1,722.13,469.62Z"/><path d="M693.32,359.48c.12.85.29,1.23.17,1.42-.6.93-1.27,1.81-1.92,2.71a68.3,68.3,0,0,1-5.35,6.07c-1.67,1.8-3.08,3.85-4.62,5.77-1,1.25-2,2.47-3,3.71s-1.79,2.23-2.62,3.39a2.89,2.89,0,0,1-1.76,1.15.93.93,0,0,1-.82-.28,1,1,0,0,1,0-.89,22.22,22.22,0,0,1,2-2.6c1.47-1.57,3.16-2.94,4.49-4.61s3.29-3.24,4.27-5.39a5.18,5.18,0,0,1,.93-1.08,19.57,19.57,0,0,0,1.41-1.61,24.11,24.11,0,0,1,5-5.76A15.45,15.45,0,0,0,693.32,359.48Z"/><path d="M728.18,344.3a1.36,1.36,0,0,1-.27,1.87,5.52,5.52,0,0,1-1.59,1c-1,.3-1.13,1.31-1.83,1.81s-1.52.73-1.94,1.33a23.65,23.65,0,0,1-3.27,3.14c-.85.84-1.34.63-2-.67a26.68,26.68,0,0,0,1.2-2.64,2.63,2.63,0,0,1,1.79-1.76,14.77,14.77,0,0,0,1.51-.72c0-.63,0-1.19.11-1.74.19-1.34.66-1.72,2-2A11.24,11.24,0,0,1,728.18,344.3Z"/><path d="M693.3,363.92c0-1.71,1.28-2.63,1.91-3.9l-1-1.07c.09-.8,1.47-1.79,3.14-2.27a28.62,28.62,0,0,1,4.28-6,7.49,7.49,0,0,1,2-1.31,1.32,1.32,0,0,1,1.5.45,1.39,1.39,0,0,1,.11,1.57c-.19.26-.44.47-.65.71-2.63,2.9-5.23,5.83-7.9,8.7C695.65,361.9,694.49,362.84,693.3,363.92Z"/><path d="M964.23,485.84c.34-.43.58-1.06,1-1.27a21.93,21.93,0,0,1,4.88-1.9c2.49-.47,5-.84,7.51-1.31a13,13,0,0,1,2.14-.27,18.55,18.55,0,0,1,2.12.19.8.8,0,0,1-.51,1.18,28.36,28.36,0,0,1-2.93,1c-1,.28-2.05.27-2.77,1.19-.15.2-.59.24-.89.23a9.89,9.89,0,0,0-3,.55,12.12,12.12,0,0,1-2.83.35c-1,.06-2-.2-3,.41a1.16,1.16,0,0,1-1.66-.47Z"/><path d="M705,414a5.88,5.88,0,0,1-.61-.71c-1.17-2.09-2.38-4.15-3.46-6.28a38.51,38.51,0,0,1-2-4.62,2.84,2.84,0,0,1,1-3.61,1.27,1.27,0,0,1,2,.38,6.83,6.83,0,0,1,.5,1.59c.35,1.72.66,3.44,1,5.17a3.46,3.46,0,0,0,.24.92c.95,1.81,1,3.83,1.34,5.78A7.33,7.33,0,0,1,705,414Z"/><path d="M683.74,385.68a20.59,20.59,0,0,1,2.54-3.46,7.84,7.84,0,0,0,2-3.13,2.38,2.38,0,0,1,2.68-1.57l.93,2.29c-.92,1.09-.33,3.08-2.3,3.66a6.18,6.18,0,0,1-1,3.37c-.62.83-1.08,1.08-2,.8S684.42,387.12,683.74,385.68Z"/><path d="M754.74,432.54a2.23,2.23,0,0,1-1.93.58c-1.8-.31-3.62-.48-5.44-.66a5.31,5.31,0,0,0-1.42.17c-1,.2-2,.48-3,.62a7.11,7.11,0,0,1-4.49-1.33,1.36,1.36,0,0,1-.42-1.49,1.61,1.61,0,0,1,1.54-.95c1.19.1,2.38.16,3.56.33,2.91.42,5.82.9,8.73,1.37A4.86,4.86,0,0,1,754.74,432.54Z"/><path d="M580.49,447.89a7.8,7.8,0,0,1,.47-2,25.4,25.4,0,0,1,2-3,39.43,39.43,0,0,0,3.72-5c.79-1.49,2.41-1.75,3.76-2.4.32-.15.6,0,1.7.87a7.56,7.56,0,0,1-3.91,4.81,8.82,8.82,0,0,0-1.83,1.5C584.58,444.44,583,446.49,580.49,447.89Z"/><path d="M840.48,269.65c-.44.71-.84,1.38-1.26,2.07-1.52-.07-3-.39-4.49.12a2.23,2.23,0,0,1-2.61-1.2,7.59,7.59,0,0,1-.79-2,2.29,2.29,0,0,1,3-2.79,4.45,4.45,0,0,1,1.47.75,5.29,5.29,0,0,0,3,1.32A2,2,0,0,1,840.48,269.65Z"/><path d="M979.63,488.62,977.47,490l.88.62c-1.77.24-3.18.46-4.59.61a2.43,2.43,0,0,1-1.16-.19,1.79,1.79,0,0,0-2,.19,2,2,0,0,1-1.31.41,3.34,3.34,0,0,0-3,1.17,8.26,8.26,0,0,1-1,.72l-2.44-.93a2.49,2.49,0,0,1-1.39-1.57,4.53,4.53,0,0,0-1.9-2.65c-.11-.06-.15-.5-.06-.63a.65.65,0,0,1,.62-.12,2.93,2.93,0,0,0,2.67.72,3,3,0,0,1,2.25.68c2.51,1.73,5.25,1.68,8.07,1.14a4.65,4.65,0,0,1,1.41-.22,2,2,0,0,0,1.73-.48,2.83,2.83,0,0,1,2-.52,5.12,5.12,0,0,0,1.35-.33Z"/><path d="M734.58,409.56a3.41,3.41,0,0,1-.48-.79,14.36,14.36,0,0,0-1.94-4.54,4.72,4.72,0,0,1-.41-1.58,8.94,8.94,0,0,0-.48-2.31,3.17,3.17,0,0,1,.85-4.3l1.61.11a1.6,1.6,0,0,1,.33.38,7.69,7.69,0,0,0,.49,1.09c1.28,1.81,1.1,3.77.65,5.76-.08.39-.42.84-.31,1.13.46,1.17-.33,2.35.15,3.51C735.27,408.57,735.17,408.61,734.58,409.56Z"/><path d="M694.71,403.88c.39,0,.51,0,.54,0,.71,1.15,1.44,2.28,2.1,3.45.89,1.61,1.62,3.31,2.61,4.85a10.89,10.89,0,0,1,1.61,3.7,13,13,0,0,0,.62,1.82,4.67,4.67,0,0,1,.21,2.69,3.32,3.32,0,0,1-2.26-2.59c-.13-.76-.71-1.45-.82-2.21-.3-2-1.6-3.42-2.66-5a4.63,4.63,0,0,1-.56-1.31c-.45-1.45-.86-2.92-1.27-4.39A7.76,7.76,0,0,1,694.71,403.88Z"/><path d="M716.58,468.18a5.26,5.26,0,0,1-2.05-4.52,35,35,0,0,0-.59-5.48,15.21,15.21,0,0,0-.68-2c-.18-.61-.36-1.22-.48-1.85-.36-1.8-.69-3.61-1-5.42a1.59,1.59,0,0,1-.09-.7,1.88,1.88,0,0,1,.56-1c.41-.27.81.1,1,.44a9.33,9.33,0,0,1,.94,2.42,47.52,47.52,0,0,1,.47,5.45,15.93,15.93,0,0,0,.78,4.45,6.8,6.8,0,0,1,.35,1.14C716,463.49,716.31,465.84,716.58,468.18Z"/><path d="M594.1,450.82c-.14,1.08-1.09,1.55-1.75,2.18a26,26,0,0,1-3.56,2.81,10.91,10.91,0,0,0-2.77,2.56,2.28,2.28,0,0,1-2.73.78,2,2,0,0,1,.75-2.76,13.22,13.22,0,0,0,3.45-2.91c.28-.34.82-.45,1.23-.68a13.76,13.76,0,0,0,2.63-1.57,2.16,2.16,0,0,1,2.81-.35Z"/><path d="M727.35,439a.78.78,0,0,1,1,.41,17.79,17.79,0,0,1,.85,2.24c.68,2.29,1.3,4.6,2,6.9a34.43,34.43,0,0,0,1.59,4.46c-.11-.94-.26-1.87-.31-2.81,0-.22.27-.47.42-.71.21.2.57.37.61.59.26,1.41.44,2.82.63,4.11L732,455.81c-.16-.18-.47-.36-.54-.61-1.45-5.22-3.11-10.39-4.12-15.73a2.57,2.57,0,0,1,0-.48Z"/><path d="M716.89,337.42c.85-.27,1.52-.53,2.21-.69a1.34,1.34,0,0,1,1.67,1.65,2.53,2.53,0,0,1-.95,1.58c-1.3,1-2.8,1.88-3.57,3.46-1.46.92-2.47,2.43-4,3.28-.17-.25-.35-.41-.32-.48C713.3,343.08,715.45,340.39,716.89,337.42Z"/><path d="M769.34,352h.12c.56,0,1.15.06,1.4.68a1.41,1.41,0,0,1-.81,1.57c-.73.28-1.45.73-2.29.38a3.22,3.22,0,0,0-3.69,1,10.9,10.9,0,0,1-3.44,2.07,1.57,1.57,0,0,1-1.59-.12,1,1,0,0,1-.13-1.64A19.44,19.44,0,0,1,769.34,352Z"/><path d="M755.29,437.1a2,2,0,0,1,2.29-.61c2,.39,4,1,6.08,1.21a20,20,0,0,1,5.16,1.36,9.86,9.86,0,0,1-1.05.08,10.51,10.51,0,0,0-4.69.67c-2.31.87-4.39-.09-6.51-.67C756,439,756,438.91,755.29,437.1Z"/><path d="M961.12,503a5.54,5.54,0,0,1-.78-5.18c1.62-1,3.36-.17,5.06-.26a.51.51,0,0,1,.22.09c.54.31,1.27.47,1.27,1.27s-.66,1-1.32,1.09a3.11,3.11,0,0,0-2.12,1.43A3.1,3.1,0,0,1,961.12,503Z"/><path d="M627.85,425.06a2.28,2.28,0,0,1,2.3.11,19.85,19.85,0,0,1,1.79,1.19,2.19,2.19,0,0,1,.84,2.92,4.79,4.79,0,0,1-.65,1.25,1.2,1.2,0,0,1-.79.46,2.72,2.72,0,0,1-2.69-1.19,16,16,0,0,0-.82-1.46A2.63,2.63,0,0,1,627.85,425.06Z"/><path d="M838.48,596.06c2.12-.36,2.12-.36,3.43-1.48l13,2.73v.31a3.58,3.58,0,0,1-1,.31,15.53,15.53,0,0,0-4.19.41,2.08,2.08,0,0,1-1.3-.47,3.19,3.19,0,0,0-2.47-.65c-.8.19-1.39-.6-2-.48-1.46.3-2.8-.38-4.22-.3A5.66,5.66,0,0,1,838.48,596.06Z"/><path d="M733.53,491.61c-1.7-.41-1.55-1.89-2-2.84a16.22,16.22,0,0,1-.78-3.33l-.74-.54a2.41,2.41,0,0,1-.83-3.34,1.37,1.37,0,0,1,1.33-.83,1.09,1.09,0,0,1,1.07,1.1,6.68,6.68,0,0,0,.69,2.48c.52,1.73,1.49,3.36,1.26,5.28A18.62,18.62,0,0,0,733.53,491.61Z"/><path d="M736,361.39A2.55,2.55,0,0,1,737.3,364c-.14,1.64.05,3.41-1.76,4.51a1.83,1.83,0,0,1-1.68-1.64,7.16,7.16,0,0,1,0-3.53A2.43,2.43,0,0,1,736,361.39Z"/><path d="M739,438a7.94,7.94,0,0,1,3.22,1.86,1.82,1.82,0,0,1,.2,2.76,2.55,2.55,0,0,1-4.08-.21,3.91,3.91,0,0,1-.61-2.75A1.93,1.93,0,0,1,739,438Z"/><path d="M529,334a15.74,15.74,0,0,1-1.62.17,30.32,30.32,0,0,0-6.17.45,2.2,2.2,0,0,1-.94.08,1.73,1.73,0,0,1-1-.56,1,1,0,0,1,.18-1.3,2.72,2.72,0,0,1,2.08-1,10.53,10.53,0,0,1,3.3.23,9.25,9.25,0,0,0,2.59.34C528.35,332.47,528.66,333,529,334Z"/><path d="M730.79,392.7a1.68,1.68,0,0,1-1.73-1.89v-2.43a3.85,3.85,0,0,0,2-2.81,1.48,1.48,0,0,1,1.33-1.35,3.74,3.74,0,0,1,.26,2.9,6.81,6.81,0,0,0-.34,2.34A3.28,3.28,0,0,1,730.79,392.7Z"/><path d="M722.18,407.51c.25.3.63.57.74.92a26.12,26.12,0,0,0,2.44,5.15c1.49,2.73,2.7,5.59,4.06,8.38.46.93.87,1.88,1.27,2.83.28.68.08.9-1,1.11-.25-.81-.43-1.67-.76-2.46s-.8-1.38-1.17-2.09a10.68,10.68,0,0,1-.41-1.12,7.37,7.37,0,0,0-.59-1.57c-2-3-2.85-6.58-4.43-9.8a3.83,3.83,0,0,1-.08-1.41Z"/><path d="M551.09,337.27a6,6,0,0,1,1.55-.45,11.68,11.68,0,0,0,5.31-1.25,2,2,0,0,1,1.85.13,6.3,6.3,0,0,1,1.19,1.07,10.41,10.41,0,0,1-.5,1.25,1.55,1.55,0,0,1-2.17.85,3.64,3.64,0,0,0-3-.48C554.11,337.45,552.42,338.14,551.09,337.27Z"/><path d="M666.74,351.94c.55-3.12,2.07-4.46,5-4.53,1.15,1.85-.54,3.21-.7,4.71-.87.53-1.53.11-2.22,0S667.54,352,666.74,351.94Z"/><path d="M935,306.91c1.46.57,2.8,1.06,4.11,1.61A2.57,2.57,0,0,1,940,312a1,1,0,0,1-.58.38,2.66,2.66,0,0,1-2.94-1.16,28.67,28.67,0,0,1-1.64-3.45C934.73,307.56,934.93,307.22,935,306.91Z"/><path d="M936.44,386.36a3,3,0,0,1,1-.11c.91.28,1.8.63,2.69,1a1,1,0,0,1,.63,1.35,24.53,24.53,0,0,1-1.6,2.94,1.19,1.19,0,0,1-1.52.37,2.68,2.68,0,0,1-.89-1,1.56,1.56,0,0,1-.12-.7C936.6,389,936.53,387.8,936.44,386.36Z"/><path d="M722.24,407.45c-.66-.13-1.22-.37-1.32-1.15a.93.93,0,0,0,0-.24c-1.1-2.64-2.22-5.27-3.3-7.93-.9-2.2-2.17-4.25-2.65-6.62a2.4,2.4,0,0,1-.09-.7c0-.13.16-.34.26-.35a1,1,0,0,1,.62.17,1.26,1.26,0,0,1,.32.63c.58,2.4,2,4.5,2.46,7,1,1.48,1.22,3.26,2,4.84a6.67,6.67,0,0,0,2.19,3c-.15.44-.31.94-.48,1.45Z"/><path d="M737.42,479.82c.44,0,.72-.08.88,0a1.47,1.47,0,0,1,.63.68,19.59,19.59,0,0,1,1.48,6.92,1.25,1.25,0,0,1-.2.66c-.17.24-.42.54-.67.58a1,1,0,0,1-.79-.37,2.49,2.49,0,0,1-.47-1.06,14.84,14.84,0,0,0-.82-3.67c-.34-.71-.05-1.72,0-2.59C737.43,480.67,737.42,480.36,737.42,479.82Z"/><path d="M397.48,334.56a2.4,2.4,0,0,1,.7,2.61c-.17.53-.23,1.1-.42,1.62a9.59,9.59,0,0,0-.53,3.53,11.45,11.45,0,0,1-.44,2.56c0,.14-.38.31-.56.29a.71.71,0,0,1-.5-.4,3,3,0,0,1,0-.95c.06-2.47.16-4.94.17-7.41C395.87,335.3,396.51,334.89,397.48,334.56Z"/><path d="M707.75,405.09c-.36-.71-.65-1.25-.9-1.81-.45-1-.93-2-1.29-3.06a4.8,4.8,0,0,1-.25-1.84,1.32,1.32,0,0,1,1.17-1.31,1.44,1.44,0,0,1,1.61.74,4.22,4.22,0,0,1,.55,3.2C708.33,402.28,708.07,403.57,707.75,405.09Z"/><path d="M652.7,399.73c1.46-.26,2.47.56,3.64,1a6.07,6.07,0,0,1-2.24,3.88,1.37,1.37,0,0,1-2.18-.49,2,2,0,0,1,0-2.22A9.2,9.2,0,0,0,652.7,399.73Z"/><path d="M437.66,482.12a9.87,9.87,0,0,0-2,3.69,2,2,0,0,1-1,1.28,1.66,1.66,0,0,1-1.87,0c-.06-.59-.08-1.21-.2-1.81s.86-.85.26-1.48c-.07-.08.05-.49.2-.6a3.73,3.73,0,0,1,1.42-.82A27.93,27.93,0,0,1,437.66,482.12Z"/><path d="M806.11,304a15,15,0,0,1-5.29,3.52c-1.74.67-3.26,1.89-5.18,2.27,0-.25,0-.45.09-.5a23.92,23.92,0,0,0,3.57-3.1c1.13-1.21,2.84-1.38,4.31-1.92A10,10,0,0,1,806.11,304Z"/><path d="M946.66,517.17a3.37,3.37,0,0,1,0,2.3c-.62,1.48-2.16,2.06-3.92,2.18-.72.05-1-.51-1-1.72.66-.45,1,.84,1.7.3,0-.14.06-.35,0-.42a11,11,0,0,1-.9-.76.67.67,0,0,1,.11-1,3.63,3.63,0,0,1,2.64-.85,11.07,11.07,0,0,0,1.42.07Z"/><path d="M332.83,484.36a5.69,5.69,0,0,1-.72-1.68,22.55,22.55,0,0,0-.24-3.57c-.15-.64.7-1.16,1.32-.91.08,0,.13.09.21.12,2.32,1.12,2.54,1.73,1.4,4.08C334.42,483.17,334.26,484.14,332.83,484.36Z"/><path d="M800.9,369.23a32.14,32.14,0,0,1-1.65,3.13,5.44,5.44,0,0,1-1.73,1.61,25,25,0,0,1-3.25,1.46,1,1,0,0,1-1.26-.35c-.26-.41,0-.87.8-1.2a2.47,2.47,0,0,1,.46-.15,6.55,6.55,0,0,0,2.7-1.44C798.32,371.34,799.6,370.32,800.9,369.23Z"/><path d="M956.61,509.27a7.34,7.34,0,0,1,2.1-5.39,2.14,2.14,0,0,1,2,1.62c-1,1.41-1.7,3-3.33,3.89C957.2,509.47,956.93,509.33,956.61,509.27Z"/><path d="M740.56,557.85a2.74,2.74,0,0,1,.86-2.83,1.32,1.32,0,0,1,1.91-.09,2.11,2.11,0,0,1,.49.5c.23.41.41.85.6,1.27-.24.7-.41,1.38-.7,2a1.16,1.16,0,0,1-1.81.36C741.43,558.68,741,558.24,740.56,557.85Z"/><path d="M873.61,558.32c1.76,0,3.28,0,4.79,0a1.48,1.48,0,0,1,.68.19,1.1,1.1,0,0,1,.62,1.2,1.55,1.55,0,0,1-.63.93C877,561.64,874.84,560.78,873.61,558.32Z"/><path d="M728.11,402.93c-1-1.3-1.71-2.13-2.27-3.06a2.94,2.94,0,0,1-.44-2.27,1.44,1.44,0,0,1,1.11-1.11,1.22,1.22,0,0,1,1.35.74A7,7,0,0,1,728.11,402.93Z"/><path d="M814.48,344.88c-.2,2-.63,3.56-2,4.66-.71-.1-.64-.73-.92-1.08a4,4,0,0,1-.74-1.22,3.72,3.72,0,0,1-.18-1.62,1.1,1.1,0,0,1,.74-.77C812.34,344.77,813.29,344.86,814.48,344.88Z"/><path d="M816.42,303.53c.09-.43.06-.73.2-.88a4.07,4.07,0,0,1,3-1.59,1.28,1.28,0,0,1,1.36,1.07,3.42,3.42,0,0,1-.84,2.62c-.15.21-.78.25-1.08.12C818.22,304.52,817.39,304,816.42,303.53Z"/><path d="M609.1,418.15c1.25-.7,2.32-1.32,3.41-1.9a.85.85,0,0,1,1.17.47,2.82,2.82,0,0,1-1.25,3.46,1.46,1.46,0,0,1-1.73-.3C610.2,419.39,609.75,418.85,609.1,418.15Z"/><path d="M446.58,407.62c0,1.19-1.8,3.55-2.9,3.86a1.53,1.53,0,0,1-.69-.1.75.75,0,0,1-.55-1.09c.63-1.19,1.27-2.37,1.94-3.53a1,1,0,0,1,1.17-.61A1.64,1.64,0,0,1,446.58,407.62Z"/><path d="M460,474.36l-1.95-.7a6.85,6.85,0,0,1-.26-1.59,4.56,4.56,0,0,1,.51-1.3c.43-1,1.18-1.26,2-.59a2.14,2.14,0,0,1,.49,3.13C460.61,473.65,460.34,473.94,460,474.36Z"/><path d="M585.36,604.32a6.36,6.36,0,0,1,.88-3c.62-.8,1.37-.76,1.85.16a10.53,10.53,0,0,1,.47,1.09c.49,1.26.13,2-1.15,2.3A1.74,1.74,0,0,1,585.36,604.32Z"/><path d="M758.43,454.54l-8,.29c.27-.33.36-.57.5-.6a10.11,10.11,0,0,1,1.65-.25,3.1,3.1,0,0,0,2-.74,3.92,3.92,0,0,1,.81-.5c1.17-.63,1.8-.48,2.62.64A6.94,6.94,0,0,1,758.43,454.54Z"/><path d="M391.38,519.4c.26.11.6.16.63.28a7.88,7.88,0,0,1,.22,1.66c0,2.48,0,5,0,7.44a1.08,1.08,0,0,1-.43.74c-.25.18-.78-.21-.87-.61-.13-.6.15-1.27-.35-1.82-.09-.1,0-.48.14-.63.86-1,.74-2.22.66-3.43S391.38,520.68,391.38,519.4Z"/><path d="M943.74,322.48c-1.49-.69-1.87-2.21-3.22-2.76.16-1,.31-1.93.47-2.88C943.51,317.91,944.05,319,943.74,322.48Z"/><path d="M699.1,314.25c.1-1.75.43-2.23,1.65-2.06a4.65,4.65,0,0,0,2.53-.35,5.18,5.18,0,0,1,3,.09.26.26,0,0,1,.19.12c.13.27.36.59.3.82a.87.87,0,0,1-.69.44,10,10,0,0,1-1.61-.4,2.71,2.71,0,0,0-3,.68A2.49,2.49,0,0,1,699.1,314.25Z"/><path d="M639.72,422.58c-.33.35-.52.73-.82.85a4,4,0,0,0-2,1.5c-.17.26-.78.23-1.26.35-.14-1-.26-1.86-.37-2.7a1,1,0,0,1,.08-.3A3.64,3.64,0,0,1,639.72,422.58Z"/><path d="M571.62,452.28a1.5,1.5,0,0,1-1.54-2.07,2.15,2.15,0,0,1,3.71-.28,1.31,1.31,0,0,1-.45,1.84C572.68,452,572,452.18,571.62,452.28Z"/><path d="M740.43,382.06a1.17,1.17,0,0,1,1.16,1.45,4.06,4.06,0,0,1-2.68,2.13,1.11,1.11,0,0,1-.86-.26c-.78-.61-.48-2.67.46-2.78A4.81,4.81,0,0,0,740.43,382.06Z"/><path d="M745.6,456c-1.13,1.41-1.85,2.93-3.68,3.59a4.75,4.75,0,0,1-.65-1.2c-.23-1.18.89-1.75,1.23-2.69A3.76,3.76,0,0,1,745.6,456Z"/><path d="M695.06,371.46c.69-1.86,1.14-3.68,2.77-4.87.13-.1.24-.21.37-.3.69-.46,1.45-.53,1.76-.18s.09,1.22-.76,1.73a9.36,9.36,0,0,0-3.55,3.43C695.6,371.35,695.39,371.36,695.06,371.46Z"/><path d="M860,554.34l1.36,2.18c-.42.16-.78.43-1.08.37a18.7,18.7,0,0,1-2.75-.77,2.11,2.11,0,0,1-1.21-1.56l2.28-.64-.06,0,1.54.52Z"/><path d="M671.85,374.1a4.48,4.48,0,0,1-.9-.71c-.26-.36-.09-.75.18-1.08a21.63,21.63,0,0,1,1.69-2,2.14,2.14,0,0,1,1.26-.42.77.77,0,0,1,.67,1,3.09,3.09,0,0,1-.57,1C673.46,372.67,672.68,373.34,671.85,374.1Z"/><path d="M730.06,496.47c.39.33.77.61,1.1.93a1.32,1.32,0,0,1,.28,1.71c-.91,1.87-1.5,1.95-2.81.27a1.45,1.45,0,0,1,.16-2.12,2.3,2.3,0,0,1,.4-.26Z"/><path d="M738.08,352.37c.35-.59.69-1.2,1.06-1.79a2.1,2.1,0,0,1,1.5-1.06c.37-.06.91.29.85.63a4.43,4.43,0,0,1-1.31,3C739.24,353.84,738.81,353.7,738.08,352.37Z"/><path d="M933.92,528.47c-.39-1.35,1.14-1.47,1.19-2.42l1.92.1a18.38,18.38,0,0,1,.9,1.91c.17.47-.8,1.19-1.09.84C936,527.91,935,528.64,933.92,528.47Z"/><path d="M540.26,328.61c-.27-.21-.73-.39-.84-.69a1.34,1.34,0,0,1,.27-1.05,3.44,3.44,0,0,1,2.46-1.3,1.33,1.33,0,0,1,1.3.86,1.25,1.25,0,0,1-.8,1.53C541.89,328.2,541.12,328.38,540.26,328.61Z"/><path d="M695.82,337.87a1.06,1.06,0,0,1,.08-1.61c1.61-1.64,3.26-3.23,4.91-4.83,0-.05.15,0,.36,0,0,.2.05.44,0,.56-1.38,1.75-2.75,3.5-4.18,5.21A4.43,4.43,0,0,1,695.82,337.87Z"/><path d="M980.52,372.2l-2.75-.12c0-.39-.11-.77-.12-1.15,0-1.8.71-2.29,2.35-1.48a1.69,1.69,0,0,1,.78,1.08A5.41,5.41,0,0,1,980.52,372.2Z"/><path d="M718.05,500.61c.23-.35.35-.72.58-.83a3.78,3.78,0,0,0,2.12-1.79c.09-.22.7-.33,1-.28s.53.53.48.94c-.14,1.31-1.24,1.76-2.16,2.36S718.79,500.94,718.05,500.61Z"/><path d="M616.49,268.51a6.37,6.37,0,0,1,1.15-.37,1.23,1.23,0,0,1,1.5.83,1.5,1.5,0,0,1-.88,1.94,12.37,12.37,0,0,1-1.83.23C615.84,270.14,616.39,269.36,616.49,268.51Z"/><path d="M689.17,396.58c-.76-.31-1.44-.54-2.06-.87a.94.94,0,0,1-.38-1.26,2.57,2.57,0,0,1,.77-.81c.11-.09.31-.06.47-.06a1.77,1.77,0,0,1,1.71.64C690.15,395,690,395.74,689.17,396.58Z"/><path d="M736.61,425.58c-.74-.16-1.21-.31-1.24-.91a3.67,3.67,0,0,1,.86-3.05l1.48.56C738.07,423.57,737.26,424.49,736.61,425.58Z"/><path d="M706.78,331c-.41.51-.85,1-1.24,1.58a6.93,6.93,0,0,0-1,1.62,6.18,6.18,0,0,1-1.32,1.94.76.76,0,0,1-1,.21.74.74,0,0,1-.2-1.06,6.86,6.86,0,0,1,1.65-1.95,6.57,6.57,0,0,0,2.26-2.34C706.07,330.71,706.37,330.55,706.78,331Z"/><path d="M717.26,486a7.08,7.08,0,0,1,1.21,1.15,1.37,1.37,0,0,1,0,1.09,1.57,1.57,0,0,1-1.84,1.09c-.74-.28-.95-1.63-.35-2.47A6.28,6.28,0,0,1,717.26,486Z"/><path d="M745.35,446.54c-1,0-1.55-.48-1.57-1.08a1.24,1.24,0,0,1,.94-1.21,4.66,4.66,0,0,1,1.17-.17,1.08,1.08,0,0,1,1,.84,1,1,0,0,1-.47,1.23A5.1,5.1,0,0,1,745.35,446.54Z"/><path d="M694.43,346.34a6,6,0,0,1,3.35-4.83c.14.29.35.5.31.67a2,2,0,0,1-.42.82c-.88,1-1.77,2-2.67,3a2.3,2.3,0,0,1-.63.3Z"/><path d="M705.93,338.29c-.64,2.18-1.51,4.17-3.66,5.41,0-.39-.14-.69,0-.82C703.45,341.33,704.7,339.81,705.93,338.29Z"/><path d="M976.71,525.17c0,.31,0,.62.09,1.05l2.38.28a6.87,6.87,0,0,1-3.23.65c-.14,0-.28-.32-.41-.48a1,1,0,0,1-.2.11c-.05,0-.11,0-.17,0l.38-.06a1.42,1.42,0,0,1-2.1,0c.79-1.28,2.34-.77,3.27-1.56Z"/><path d="M710.59,416.41c.2.24.49.43.54.67a12.29,12.29,0,0,0,.75,3,2.89,2.89,0,0,1-.12,2,.76.76,0,0,1-.93-.67c-.21-1.57-.34-3.15-.48-4.72C710.34,416.66,710.44,416.6,710.59,416.41Z"/><path d="M490.41,590.74a1.88,1.88,0,0,1-.94,2.24c-.7.46-1.36.22-2.12-.27A3.43,3.43,0,0,1,490.41,590.74Z"/><path d="M540.22,251.25a19,19,0,0,1,2.42,0c.34.05.66.41.94.67a.65.65,0,0,1-.32,1.11,2.07,2.07,0,0,1-.92.05A3.26,3.26,0,0,1,540.22,251.25Z"/><path d="M717.52,415.35c-1-1.86-1-1.86-.87-4.73a4.48,4.48,0,0,1,1.4,3.14C718.1,414.14,717.8,414.57,717.52,415.35Z"/><path d="M712.09,394.76a5.83,5.83,0,0,1-1.27-.53,1.9,1.9,0,0,1-.6-1,.86.86,0,0,1,.48-1.18,1.19,1.19,0,0,1,1.49.36A1.86,1.86,0,0,1,712.09,394.76Z"/><path d="M890.33,592.68c-.17-.64.1-1,.73-1.19a8.53,8.53,0,0,1,3.78-.22c-.09.26-.15.62-.22.63a15.57,15.57,0,0,0-3.82.93C890.68,592.87,890.52,592.74,890.33,592.68Z"/><path d="M735.15,459.8a3.26,3.26,0,0,1,0,.38c0,.45.06,1-.49,1.23-.34.16-1-.38-1.06-1a4.4,4.4,0,0,1,.16-1.61.94.94,0,0,1,.65-.56c.49-.06.61.41.69.79A4.32,4.32,0,0,1,735.15,459.8Z"/><path d="M403.17,320.71l2.62-2.93c.75.46.27.89.14,1.27a2.76,2.76,0,0,1-1.53,2,4.29,4.29,0,0,1-1.09.12Z"/><path d="M541.78,381.89l-1.13-1.39a3.83,3.83,0,0,1,.48-.57,1.73,1.73,0,0,1,1.83-.09,1,1,0,0,1,.53.68,1,1,0,0,1-.38.77A7.25,7.25,0,0,1,541.78,381.89Z"/><path d="M613.26,273.7c0,1-.5,1.54-1.41,1.41a.65.65,0,0,1-.41-.21,1.87,1.87,0,0,1,.49-2.28C612.64,272.28,613.26,272.79,613.26,273.7Z"/><path d="M719.94,372.85c.35-.92.49-1.36.69-1.78a1.6,1.6,0,0,1,.48-.49,1.21,1.21,0,0,1,1.33.1,1.12,1.12,0,0,1-.27,1.47A21.48,21.48,0,0,1,719.94,372.85Z"/><path d="M1012.3,439.74c-.21-1.5-1.21-2.85.33-4.12.15.18.37.32.4.5a3.89,3.89,0,0,1,0,1.18c-.07.46-.25.91-.33,1.37C1012.66,439,1013.19,439.37,1012.3,439.74Z"/><path d="M897.84,484.52a7.56,7.56,0,0,1-1.13-.28.69.69,0,0,1-.36-.51.73.73,0,0,1,.31-.58,4.22,4.22,0,0,1,1.54-.36.89.89,0,0,1,.85.95C899.07,484.19,898.68,484.5,897.84,484.52Z"/><path d="M728.74,433.33a10.92,10.92,0,0,1-1.45-1.75,1.27,1.27,0,0,1,.16-1.09,1,1,0,0,1,1.74.46A21.53,21.53,0,0,1,728.74,433.33Z"/><path d="M739.43,526.4c1.45-1.09,2.19-2.14,3.52-2.49C742.36,525.69,742,526,739.43,526.4Z"/><path d="M662.71,398.61c-1.3.61-2.1,1.48-3.33.41l.33-.94C660.7,397.72,661.49,398.11,662.71,398.61Z"/><path d="M721.42,364.65a9.27,9.27,0,0,1,.55,1.25,1,1,0,0,1-.69,1.3,1.51,1.51,0,0,1-1.07-.22.65.65,0,0,1-.05-1C720.52,365.55,720.9,365.18,721.42,364.65Z"/><path d="M769.16,370.84c.13-1.39-.56-2.62.93-3.16C771.06,369,771.06,369,769.16,370.84Z"/><path d="M702.6,317.5c-.43,1.2-1.33,1.34-2.43,1.12C701.16,316.72,701.29,316.66,702.6,317.5Z"/><path d="M961.75,529.2c.53-1.81,1.81-1.91,3.1-2.05C964,528.61,963.92,528.67,961.75,529.2Z"/><path d="M724.07,427.41c.85,0,1.57.63,1.48,1.12a1.19,1.19,0,0,1-1,.83c-.45,0-1-.49-1-.87A5.17,5.17,0,0,1,724.07,427.41Z"/><path d="M730.18,368a1.38,1.38,0,0,1,1.34,1.5.5.5,0,0,1-.09.21,1.11,1.11,0,0,1-1.84-1C729.65,368.38,730,368.15,730.18,368Z"/><path d="M749.73,350.57c.57.44.81.54.91.73s.44.72.37,1c-.12.49-.62.63-1.12.6-.88-.05-1.18-.65-.71-1.42C749.35,351.22,749.5,351,749.73,350.57Z"/><path d="M968.33,402.94c-.06.33,0,.82-.21,1a3.55,3.55,0,0,1-1.41.71c-.15,0-.52-.34-.63-.59a.8.8,0,0,1,.34-1A1.82,1.82,0,0,1,968.33,402.94Z"/><path d="M719,410.29c-1.36-.89-1.4-2-1.59-3.44C719.12,407.63,718.77,409,719,410.29Z"/><path d="M727,373.19a1.54,1.54,0,0,1-1.85,1.43c-.12-.05-.29-.25-.27-.34.11-.44.15-1,.45-1.26a2.15,2.15,0,0,1,1.29-.28C726.7,372.73,726.85,373.06,727,373.19Z"/><path d="M979.65,488.62c.85-.17,1.7-.39,2.56-.5a5.24,5.24,0,0,1,1.63.06c.2,0,.34.42.73.93-1.09-.15-1.82-.27-2.55-.34s-1.58-.1-2.38-.15Z"/><path d="M723.76,376.55a1.37,1.37,0,0,1-1.47.83,1,1,0,0,1-.41-1.23c.17-.46.78-.8,1.14-.54A4.12,4.12,0,0,1,723.76,376.55Z"/><path d="M602.13,426.68c-.26.69-.48,1.37-1.37,1.44-.13-.11-.32-.18-.35-.3-.16-.53-.52-1.16,0-1.56S601.61,426.23,602.13,426.68Z"/><path d="M519.72,379.8c-.45,0-.75-.47-.68-1.05a.71.71,0,0,1,.77-.71.8.8,0,0,1,.86.9A1,1,0,0,1,519.72,379.8Z"/><path d="M729.21,363.18c.63-.79,1.21-1.52,1.81-2.23.05-.07.31-.05.42,0s.21.3.17.4A2.72,2.72,0,0,1,729.21,363.18Z"/><path d="M316.84,430.06a2.26,2.26,0,0,1-.33-3c.12-.24.67-.24,1-.35.53.95-.55.83-.69,1.7Z"/><path d="M725.88,497.87c.23.56.47,1.12.75,1.78a4.43,4.43,0,0,1-.88.46.6.6,0,0,1-.79-.64,7.62,7.62,0,0,1,.47-1.57Z"/><path d="M725.38,367c-.26,1.43-.79,2.16-1.88,2.48C723.15,368.24,723.15,368.24,725.38,367Z"/><path d="M437,260.84l2.32-1.84c0,1.13-.27,1.86-1.18,2.2C437.9,261.27,437.58,261.05,437,260.84Z"/><path d="M882.39,291.09c-.17.14-.43.54-.71.55-.49,0-.9-.63-.8-1.24a.91.91,0,0,1,.57-.63C881.93,289.67,882.41,290.31,882.39,291.09Z"/><path d="M956.83,561.31a2.42,2.42,0,0,1,0-.92,1.15,1.15,0,0,1,.68-.55,8.75,8.75,0,0,1,1.34-.24Z"/><path d="M976.51,502.47c0-1.2.64-1.56,1.39-1.87C978.06,501.93,978.07,501.94,976.51,502.47Z"/><path d="M738.8,422.13a10.73,10.73,0,0,1,1.67-.76c.4-.08.88.51.83.94a.7.7,0,0,1-.85.6A8.94,8.94,0,0,1,738.8,422.13Z"/><path d="M691.37,409c0,.17-.28.48-.52.76-.06.07-.32.05-.43,0a.91.91,0,0,1-.25-1.26,1.36,1.36,0,0,1,.66-.57C691.12,407.75,691.44,408.25,691.37,409Z"/><path d="M493.78,600.83a8,8,0,0,1,1.65-.13.76.76,0,0,1,.48.59,1,1,0,0,1-.58.61C494.73,602,494.34,601.67,493.78,600.83Z"/><path d="M338.26,451.56c-.47.39-.77.84-1.13.9s-.61-.43-.61-.85a.72.72,0,0,1,1-.71C337.73,451,337.91,451.24,338.26,451.56Z"/><path d="M978,531.58c.73-1.52.76-1.52,2.6-.67-.09.11-.17.3-.28.32C979.66,531.35,979,531.44,978,531.58Z"/><path d="M778.19,352.36c-.36.41-.55.77-.84.92s-1-.17-1.08-.61.28-1.11.67-1A6.22,6.22,0,0,1,778.19,352.36Z"/><path d="M595.28,433.39a15.45,15.45,0,0,1-1.13,1.61c-.11.12-.56,0-.79-.08s-.13-.46,0-.63c.36-.64,1-.84,1.56-1.26Z"/><path d="M979.69,490.38a3.93,3.93,0,0,1,2.77-.44A2.71,2.71,0,0,1,979.69,490.38Z"/><path d="M579.33,345c-.11.12-.27.44-.5.5-.52.16-1-.32-1-1a.75.75,0,0,1,.33-.54C578.64,343.75,579.22,344.18,579.33,345Z"/><path d="M715.53,260.86a.88.88,0,0,1-.84-.94.76.76,0,0,1,.8-.69.78.78,0,0,1,.84.66A.91.91,0,0,1,715.53,260.86Z"/><path d="M989,481.84a1.51,1.51,0,0,1-1.81.1.67.67,0,0,1-.31-.55.66.66,0,0,1,.45-.45C988,480.88,988.7,481,989,481.84Z"/><path d="M387.1,485.63a5.66,5.66,0,0,1,1.08.61c.2.2.42.54.37.76s-.43.41-.68.45a.69.69,0,0,1-.86-.58A7.64,7.64,0,0,1,387.1,485.63Z"/><path d="M761.05,428.91a13.55,13.55,0,0,1-1.65,0,.63.63,0,0,1-.42-.45.77.77,0,0,1,.39-.54C760,427.67,760.24,427.8,761.05,428.91Z"/><path d="M441.64,389.16l-1.28,1c-.66-.55-.87-1.08-.54-1.75.18,0,.36-.09.48,0C440.65,388.51,441,388.74,441.64,389.16Z"/><path d="M735.29,525.48a3.72,3.72,0,0,1-.28.89.84.84,0,0,1-.58.25.5.5,0,0,1-.36-.25,1,1,0,0,1,.18-1.27.76.76,0,0,1,.63-.15C735.05,525,735.15,525.28,735.29,525.48Z"/><path d="M750.1,373c-1-1-1-1,.44-2.15C750.71,371.72,750.8,372.44,750.1,373Z"/><path d="M694,387.5a.8.8,0,0,1,1,.69.68.68,0,0,1-.63.84c-.41.05-.92,0-.9-.52S693.82,387.76,694,387.5Z"/><path d="M694.37,346.28a2.15,2.15,0,0,1-1.85,1.56c.06-.41,0-.77.16-.93a1.88,1.88,0,0,1,1.75-.57Z"/><path d="M980.23,500.88a4.4,4.4,0,0,1-.65-.63.71.71,0,0,1,.14-1,1,1,0,0,1,.87,0,.69.69,0,0,1,.24,1A5.26,5.26,0,0,1,980.23,500.88Z"/><path d="M960,532.31c.63-.45,1.17-.12,1.69.18a.42.42,0,0,1,.06.41.46.46,0,0,1-.38.2C960.84,533,960.27,533,960,532.31Z"/><path d="M419.19,303.23c.1-.53.19-1.06.32-1.58a.49.49,0,0,1,.38-.21.45.45,0,0,1,.28.29C420.3,302.41,419.91,302.89,419.19,303.23Z"/><path d="M966.85,528.38c-.71.9-1.34,1.32-2.42.67.25-.21.43-.47.65-.52A15.47,15.47,0,0,1,966.85,528.38Z"/><path d="M598.23,595.54a8.7,8.7,0,0,1,1.26.19.63.63,0,0,1,.17.57c-.08.17-.41.36-.55.31a5.1,5.1,0,0,1-1-.57Z"/><path d="M718.23,494.43c-.31-.82-.12-1.22.45-1.31.23,0,.53.19.74.37.05.05-.09.45-.24.56A4.57,4.57,0,0,1,718.23,494.43Z"/><path d="M983.77,481.21a3.5,3.5,0,0,1,.78-.43c.53-.14,1,.14.86.43a1.17,1.17,0,0,1-.67.55A.75.75,0,0,1,983.77,481.21Z"/><path d="M849.83,591.68c-.59.63-1.11.42-1.93-.19Z"/><path d="M861.51,594.46a10.4,10.4,0,0,1,1.13.21c.1,0,.16.24.23.37-.14,0-.28.15-.41.12C862.1,595.1,861.64,595.17,861.51,594.46Z"/><path d="M981.54,525.84a4.47,4.47,0,0,1-1.1.27.47.47,0,0,1-.4-.68c.06-.17.37-.42.44-.39A8.77,8.77,0,0,1,981.54,525.84Z"/><path d="M821.25,562.87c.58.19,1.16.36,1.72.59.06,0,0,.36,0,.85l-1.68-1.46Z"/><path d="M328.91,447.25c.23-.68.67-.86,1.39-.75C330.06,447.27,329.64,447.48,328.91,447.25Z"/><path d="M976.72,525.17l2.44-.53c-.88,1.31-1.69.7-2.45.53Z"/><path d="M884.06,295c.24-.1.45-.26.63-.23a3.09,3.09,0,0,1,.79.31c-.11.25-.17.61-.36.71a.93.93,0,0,1-.77-.15C884.19,295.55,884.17,295.26,884.06,295Z"/><path d="M826.78,563.72c.37.07.74.12,1.09.21.13,0,.22.19.33.29-.14,0-.29.15-.41.12-.36-.09-.7-.24-1.06-.36Z"/><path d="M961.15,492.72c.6,0,.9.32.77.72-.06.16-.43.4-.47.36a1.78,1.78,0,0,1-.56-.66C960.85,493.05,961.08,492.83,961.15,492.72Z"/><path d="M731.31,429.26c.26-.23.45-.51.55-.48a2.71,2.71,0,0,1,.67.47c-.18.2-.35.54-.56.57S731.58,429.5,731.31,429.26Z"/><path d="M971.66,527.13a5.73,5.73,0,0,1-1.12.73c-.14,0-.35-.15-.52-.23.12-.17.2-.4.36-.48A5.21,5.21,0,0,1,971.66,527.13Z"/><path d="M727.38,439l-.51-1.83c.54-.27.56.18.57.44a9.9,9.9,0,0,1-.09,1.43S727.38,439,727.38,439Z"/><path d="M734.47,438.23c-.06.13-.13.38-.19.37a.8.8,0,0,1-.56-.2,1,1,0,0,1-.1-.63c0-.09.28-.24.34-.2a2,2,0,0,1,.47.45C734.47,438.07,734.46,438.16,734.47,438.23Z"/><path d="M722.47,422.66c.39.22.65.28.77.45a.93.93,0,0,1,.1.62c0,.11-.26.29-.34.26a.86.86,0,0,1-.51-.36A3.69,3.69,0,0,1,722.47,422.66Z"/><path d="M419.59,305.51c0,.1.67.4.23.92C419.12,306.21,419.69,305.59,419.59,305.51Z"/><path d="M740.83,378l-1,.58c-.07-.13-.23-.31-.19-.38a2.49,2.49,0,0,1,.54-.68A5.62,5.62,0,0,1,740.83,378Z"/><path d="M701.45,345c-.13.16-.23.41-.41.51a1,1,0,0,1-.62,0,.61.61,0,0,1,0-.41,1.76,1.76,0,0,1,.46-.52.48.48,0,0,1,.42,0C701.39,344.6,701.39,344.79,701.45,345Z"/><path d="M951.59,522.51l1.4-.85C952.75,522.58,952.75,522.58,951.59,522.51Z"/><path d="M737.55,528.69a2.43,2.43,0,0,1-.75.06c-.11,0-.15-.32-.22-.48a1.88,1.88,0,0,1,.58-.19,2.63,2.63,0,0,1,.64.2Z"/><path d="M456.19,576.39c-.41.13-.62.28-.78.24a.46.46,0,0,1-.35-.68.43.43,0,0,1,.37-.16A5.18,5.18,0,0,1,456.19,576.39Z"/><path d="M672.47,378.36l-.42.5c-.08-.1-.24-.19-.24-.29a.48.48,0,0,1,.21-.36C672.1,378.16,672.27,378.28,672.47,378.36Z"/><path d="M852.16,592.25c-.12.08-.24.23-.36.23s-.23-.14-.34-.23c.12-.06.23-.19.35-.19S852.05,592.18,852.16,592.25Z"/><path d="M815,570.78l.44.59c-.18.1-.37.31-.52.28s-.29-.27-.43-.42Z"/><path d="M700.22,326.09c-.19.09-.38.26-.57.25s-.18-.32-.27-.5a3.55,3.55,0,0,1,.64-.17S700.13,325.9,700.22,326.09Z"/><path d="M574,464.39l.43.38-.41.38-.39-.45Z"/><path d="M425.64,358.19a10.65,10.65,0,0,1,0-1.13.65.65,0,0,1,.24-.34c.19-.17.43.18.3.45s-.36.69-.54,1Z"/><path d="M931.92,545.4l.82-.07c0,.12.06.32,0,.36a2.07,2.07,0,0,1-.6.23S932.05,545.68,931.92,545.4Z"/><path d="M716.65,376.7c-.15-.14-.34-.29-.33-.3.12-.18.28-.34.42-.51.09.09.28.22.26.27A3.29,3.29,0,0,1,716.65,376.7Z"/><path d="M594.16,450.88a7.43,7.43,0,0,1,.37-.81s.24,0,.37.05,0,.18,0,.21c-.24.17-.5.33-.75.49Z"/><path d="M952.39,559.86c.14-.84.74-.64,1.7-.52l-1.73.53Z"/><path d="M966.15,512.31c-.09-.15-.23-.34-.21-.36a4.62,4.62,0,0,1,.5-.37c.07.09.2.25.18.28A3.36,3.36,0,0,1,966.15,512.31Z"/><path d="M401,506.79a1.94,1.94,0,0,1,.23.29s-.07.19-.09.18a1.61,1.61,0,0,1-.35-.12Z"/><path d="M698.58,320.2a4.24,4.24,0,0,1-.69.36c-.11,0-.26-.12-.39-.18a2.32,2.32,0,0,1,.42-.46C698,319.88,698.17,320,698.58,320.2Z"/><path d="M859.4,594.33l-.19-.07a1.92,1.92,0,0,1,.26-.17.53.53,0,0,1,.2,0Z"/><path d="M957.37,559.12l-.2-.08a1.12,1.12,0,0,1,.28-.16s.13,0,.19.06Z"/><path d="M867.05,595.76l-.43-.11a3.61,3.61,0,0,1,.46-.17s.1.09.15.15Z"/><path d="M974.62,505.3l.36-.24a2.71,2.71,0,0,1,.06.38s-.15.13-.17.11A1.18,1.18,0,0,1,974.62,505.3Z"/><path d="M745.66,418.07l-.29.24-.29-.44c.12-.05.27-.15.37-.12S745.59,418,745.66,418.07Z"/><path d="M722.45,335.63l.3-.26.31.46c-.14.05-.29.17-.4.14S722.52,335.75,722.45,335.63Z"/><path d="M707.9,337a4.78,4.78,0,0,1-.66.28.49.49,0,0,1-.17-.32.53.53,0,0,1,.26-.33S707.52,336.7,707.9,337Z"/><path d="M1008.2,425.07c0,.05-.08.16-.09.15a3.08,3.08,0,0,1-.38-.16l.15-.27Z"/><path d="M935.82,384.18l-.28.23a2.66,2.66,0,0,1-.21-.33s.13-.12.17-.1A2.8,2.8,0,0,1,935.82,384.18Z"/><path d="M656.39,321.32a7.31,7.31,0,0,1-.4.79c0,.05-.25,0-.38,0a.28.28,0,0,1,0-.19c.16-.37.39-.65.86-.53Z"/><path d="M671.37,379.84l-.55.34c0-.1-.16-.24-.13-.29a.53.53,0,0,1,.34-.25C671.11,379.62,671.23,379.75,671.37,379.84Z"/><path d="M667.78,377.21l.26.29-.47.32c0-.13-.14-.29-.11-.4S667.67,377.28,667.78,377.21Z"/><path d="M745.3,427.11l-.68-.14s.07-.13.11-.13l.61.06Z"/><path d="M696.73,350l.26-.37c0,.13.12.27.09.38s-.19.13-.29.2Z"/><path d="M725.49,362.24c-.21-.44-.36-.62-.32-.69a2,2,0,0,1,.43-.37c.08.12.24.25.22.35A3.5,3.5,0,0,1,725.49,362.24Z"/><path d="M386.76,464.31,387,464a1.79,1.79,0,0,1,.22.34s-.12.18-.13.17S386.88,464.38,386.76,464.31Z"/><path d="M747.64,455.39c-.07.13-.11.33-.22.38s-.27-.08-.4-.13c.06-.12.1-.33.19-.36S747.49,455.35,747.64,455.39Z"/><path d="M987.1,454.6l-.31.24-.32-.43c.14,0,.29-.13.41-.1S987,454.49,987.1,454.6Z"/><path d="M673.82,376.72c-.08.12-.13.29-.25.35s-.21-.1-.33-.15c.07-.13.12-.31.23-.36S673.7,376.66,673.82,376.72Z"/><path d="M819.87,572.51s.12-.15.14-.14l.32.23a2.22,2.22,0,0,1-.37.09S819.9,572.57,819.87,572.51Z"/><path d="M396,348.32a1.21,1.21,0,0,0,0,.19l-.24-.1a.86.86,0,0,1,.1-.16S396,348.29,396,348.32Z"/><path d="M807.92,359.09a2.67,2.67,0,0,1,0,.4s-.13.05-.19.07a2.54,2.54,0,0,1,0-.39S807.85,359.12,807.92,359.09Z"/><path d="M460.78,537l-.32.13a1.2,1.2,0,0,1-.06-.17,1.75,1.75,0,0,1,.32-.12Z"/><path d="M709.93,384.26l-.39.18c0-.12-.16-.3-.11-.37a.5.5,0,0,1,.38-.13S709.89,384.15,709.93,384.26Z"/><polygon points="970.64 543.97 970.74 544.06 970.53 544.06 970.64 543.97"/><path d="M382.7,366.11l.25.27a2.81,2.81,0,0,1-.35.17s-.14-.13-.13-.15A1.63,1.63,0,0,1,382.7,366.11Z"/><path d="M968.06,527.57c.06,0,.13-.11.19-.11s.13.06.2.09a2.68,2.68,0,0,1-.28.18S968.1,527.62,968.06,527.57Z"/><path d="M691.94,366.1l-.18.11-.1-.17.3-.13Z"/><path d="M952.36,559.87h-.85v-.07l.86.06Z"/><path d="M714.47,435.43l-.15.38c0-.06-.13-.13-.12-.18a2.92,2.92,0,0,1,.14-.38Z"/><path d="M964.59,316.69l-.31.15a1.64,1.64,0,0,1,0-.37s.16-.11.16-.1A2.14,2.14,0,0,1,964.59,316.69Z"/><path d="M732.09,446.56l.23-.26a2.46,2.46,0,0,1,.22.34s-.11.14-.13.14A1.81,1.81,0,0,1,732.09,446.56Z"/><polygon points="968.85 509.39 968.99 509.5 968.81 509.58 968.85 509.39"/><path d="M437,512.58c-.12-.18-.26-.35-.38-.54,0,0,0-.13.06-.2s.29.07.29.12a5.17,5.17,0,0,1,0,.68Z"/><polygon points="340.32 449.38 340.42 449.45 340.29 449.52 340.32 449.38"/><path d="M739.62,426.42c.07,0,.16-.09.18-.07a.6.6,0,0,1,.14.21.5.5,0,0,1-.21,0S739.66,426.47,739.62,426.42Z"/><path d="M744.28,522.72l-.14.15-.15-.28c.07,0,.15-.08.2-.06S744.25,522.65,744.28,522.72Z"/><path d="M439.44,604.88l-.29.16a3.05,3.05,0,0,1,0-.41s.11-.08.16-.11Z"/><path d="M821.29,562.85l-.39.07.34,0Z"/><polygon points="435.41 597.09 435.46 597.26 435.33 597.24 435.41 597.09"/><path d="M956,561.89a1.29,1.29,0,0,1-.19,0s0-.08-.05-.13a.65.65,0,0,1,.19,0S956,561.84,956,561.89Z"/><path d="M747.72,357.68c0-.05,0-.14,0-.14a.61.61,0,0,1,.18,0c0,.05,0,.15-.06.15A.7.7,0,0,1,747.72,357.68Z"/><path d="M773.44,297.73l0,.14a.55.55,0,0,1-.17,0s0-.08,0-.13Z"/><path d="M656.45,321.36l-.11-.4c.47.07,0,.24,0,.36Z"/><polygon points="434.33 595.89 434.43 595.69 434.5 595.9 434.33 595.89"/><path d="M698.91,347.63c0,.06.08.11.07.16s-.06.1-.09.15-.08-.11-.08-.16S698.88,347.68,698.91,347.63Z"/><polygon points="486.14 592.66 486.35 592.61 486.32 592.76 486.14 592.66"/><path d="M744.63,488.15l-.06.14a.52.52,0,0,1-.15-.06s0-.09.05-.14Z"/><path d="M964.23,485.84v-.08l-.41.07Z"/><polygon points="387.2 465.68 387.24 465.83 387.11 465.81 387.2 465.68"/><path d="M1002.79,453.53c0,.13.1.25.13.38s0,.08-.07.12l0-.55S1002.79,453.53,1002.79,453.53Z"/><path d="M326.27,447.67c0,.06,0,.16-.06.17a.84.84,0,0,1-.2,0l.05-.18Z"/><polygon points="700.8 429.89 700.99 429.9 700.89 430.08 700.8 429.89"/><path d="M713,427.76l-.17.06a.8.8,0,0,1,0-.21s.1,0,.16-.05Z"/><polygon points="973.02 516.35 972.97 516.14 973.14 516.17 973.02 516.35"/><path d="M946.71,517.23l.38-.22c0,.44-.25.21-.43.16Z"/><path d="M738.54,425.78l-.07.17a1.71,1.71,0,0,1-.18-.2l.14-.13Z"/><polygon points="736.12 419.45 736.02 419.63 735.96 419.44 736.12 419.45"/><path d="M715.82,407.64c0,.07.1.14.09.2s-.08.11-.13.17Z"/><polygon points="693.59 399 693.54 398.83 693.68 398.84 693.59 399"/><path d="M1024.64,398.42s-.12,0-.12-.06,0-.1,0-.16.13,0,.13.06A.49.49,0,0,1,1024.64,398.42Z"/><path d="M721.1,388.05c0,.05.07.1.07.15s-.06.09-.1.13Z"/><polygon points="963.97 532.74 963.87 532.9 963.81 532.72 963.97 532.74"/><polygon points="967.45 532.45 967.63 532.41 967.6 532.55 967.45 532.45"/><polygon points="951.05 532.85 951.18 532.92 951.04 532.98 951.05 532.85"/><path d="M973.56,535.78c0,.05,0,.14,0,.16s-.14,0-.2,0l0-.27Z"/><path d="M975.3,536.25s0,.15-.06.15a1.52,1.52,0,0,1-.2-.06.89.89,0,0,1,.06-.15A1.52,1.52,0,0,1,975.3,536.25Z"/><polygon points="952.51 546.38 952.65 546.45 952.5 546.49 952.51 546.38"/><path d="M404.26,327.45l1.08.54Z"/></g></svg>