<svg id="Layer_1" data-name="Layer 1" xmlns="http://www.w3.org/2000/svg" viewBox="0 0 1366 768"><defs><style>.cls-1{fill:#d50056;}.cls-2{fill:none;}</style></defs><title>4</title><rect class="cls-1" width="1366" height="767"/><path d="M-8.78,399.9l.95-.37c.08-1.67,0-3.22.25-4.73a57.46,57.46,0,0,0,.13-8.7,9.3,9.3,0,0,1-.08-1.74c.51-3,0-5.94.2-8.9.06-.7-.71-1.55-.52-2.13.32-.93-.28-1.42-.42-2.12A31.06,31.06,0,0,1-9,365.48c0-6.58.07-13.17.12-19.75,0-3.09-.16-6.2.13-9.26.27-2.89-.09-5.77.32-8.65a35.33,35.33,0,0,0,0-4.93c0-6.67.11-13.34.07-20,0-2.12,0-4.24,0-6.36,0-2.3-.24-4.61-.39-6.91-.22-3.28-.53-6.55-.66-9.83a21.66,21.66,0,0,1,.44-4.31,2.79,2.79,0,0,1,1.33-2.14,2.41,2.41,0,0,0,1.34-2.87c0-.07.25-.21.39-.34.13.13.36.27.36.4,0,1.93.95,3.72.79,5.7a5.3,5.3,0,0,0,.77,2.14,2.8,2.8,0,0,1-.25,3,3.72,3.72,0,0,0-.32,4,26.66,26.66,0,0,1,1.47,5.88,2.37,2.37,0,0,0,1.6,2.17c.27.1.54.21.82.3a2.7,2.7,0,0,1,2,2.31,16.61,16.61,0,0,0,1.12,3.87,3.49,3.49,0,0,1-.88,3.73,6.24,6.24,0,0,1,.83,2.07c0,2.8.63,5.55.64,8.34v1.16c-.61.86-1.6,1.05-2.44,1.5a1.68,1.68,0,0,0-.88,2.4c1.6,2.4,1.28,5.21,1.88,7.82a3.11,3.11,0,0,1-.42,2.2,8.51,8.51,0,0,0-1.16,4.69,3.51,3.51,0,0,0,.87,2.37,4.67,4.67,0,0,1,1.31,3.43.86.86,0,0,0,0,.28,5.41,5.41,0,0,1-.8,5.37,2.73,2.73,0,0,0,2.6,1.37c3.08-.28,6.17-.49,9.23-.94,3.52-.52,7-1.31,10.51-1.92,1.51-.26,3.07-.1,4.58-.59,1.34-.45,2.84-.11,4.19-.66a1,1,0,0,1,.85,0c1.29.86,2.35.25,3.51-.36a7.64,7.64,0,0,1,5.53-.63c1-.27,1.22-2.26,3.11-1.95l-.82,2.21c.16.19.22.32.29.32a26.28,26.28,0,0,1,4.72.72c.94.25,2.07-.26,3.13-.4,1.43-.2,2.88-.32,4.3-.58a2.39,2.39,0,0,0,2.21-2.27c.2-1.6,1.32-2.19,2.7-1.47a15.34,15.34,0,0,1,3.76,2.64c1.13,1.14,2.09,2,3.74,1.13a1,1,0,0,1,.81,0,3.5,3.5,0,0,0,2.28.08,83.89,83.89,0,0,1,15.59-1.17,3.78,3.78,0,0,0,1.72-.14c1.47-.68,3.05-.49,4.55-.81a47.1,47.1,0,0,1,4.86-.61c3.17-.33,6.33-.67,9.46-1.27,2.65-.5,5.35-.71,8-1.17,3-.53,6-1.18,9.07-1.79.28-.05.61-.25.84-.17,2.25.81,4.38-.1,6.52-.51a30,30,0,0,1,4-.58c1.81-.09,3.7-.13,5-1.8.24-.3.86-.36,1.32-.42a14.14,14.14,0,0,1,3.69-.34,25.24,25.24,0,0,0,7.71-.68,16.21,16.21,0,0,1,3.75-.23,12.12,12.12,0,0,0,4.58-.6c2.27-.77,4.47-1.72,6.79-2.34.6-.17,1.07-.81,1.6-1.23s1.19-1,1.83-1.42a1.49,1.49,0,0,1,1.91,0c1.26,1.38,2.9,1.37,4.53,1.53a9,9,0,0,1,1.11.28c-.06.73-.63.77-1.07.81-.67,0-1.35-.07-2,0-.36,0-1,.19-1,.38-.27,1.45-1.53,1.37-2.48,1.57-1.77.38-3.52,1.16-5.38.65-.69-.18-.76.41-1.11.66-.82.6-1.63,1.1-2.49,0a.77.77,0,0,0-1.26.07,1.56,1.56,0,0,1-1.54.52,27.86,27.86,0,0,0-2.89,0,13.16,13.16,0,0,1-1.72.24c-.83-.07-.23.9-.93,1-2.84.51-5.62,1.28-8.46,1.85s-5.59.35-8.33.93a1.17,1.17,0,0,1-.82-.15,1.34,1.34,0,0,0-1.61-.08,9.15,9.15,0,0,1-4.18,1,19.08,19.08,0,0,0-5.39.9c-.24.09-.72.12-.78,0-.52-1-1.09-.38-1.68-.12a5.73,5.73,0,0,1-.84.21,29.81,29.81,0,0,1-7,1.27c-1.78.06-3.53.9-5.4.47-2,.9-4.15.4-6.2.76s-4,.65-6,1a9.79,9.79,0,0,1-1.43.17c-2.7,0-5.32.86-8,.7-.28,0-.68,0-.84.12-1.2,1.16-2.87.84-4.28,1.38-3.09,1.18-6.42,1.28-9.72,1.38-.87,0-1.74,0-2.6.11-4,.44-8.07.77-12.11,1.11-2.93.26-5.92.82-8.89.14a2.53,2.53,0,0,0-1.42.05,2.88,2.88,0,0,1-2.25,0c-.25-.1-.74-.17-.83-.05-1.11,1.51-2.76.4-4.07.89a12.41,12.41,0,0,1-4.25.46,27.32,27.32,0,0,0-3.4.69c-1.72.25-3.45.4-5.17.6-3,.35-6,.67-8.93,1-3.35.41-6.68.87-10,1.31a7.45,7.45,0,0,0-1.72.29,21.25,21.25,0,0,1-5.85,1.56,4.33,4.33,0,0,0-2.47,1.41c-2.61,2.78-4.87,5.74-4.88,9.87,0,2.3-.66,4.6-.15,7.11a3.54,3.54,0,0,0,4.15.45,4.71,4.71,0,0,1,2-.33c1.15,0,2.31,0,3.47,0a21,21,0,0,1,4.62.06,8.58,8.58,0,0,0,2.31-.07,10.71,10.71,0,0,1,4,0,.72.72,0,0,0,.29,0c3-.31,5.95-.6,8.93-.93,1.63-.18,3.25-.51,4.88-.64,3.36-.28,6.78-.2,10.09-.75,7.16-1.21,14.42-1.46,21.57-2.71,4.94-.86,10-1.23,14.94-1.95,3.91-.58,7.8-1.37,11.7-2.05,2.48-.42,5-.71,7.44-1.24s4.76-.73,7.14-1.13c3.88-.64,7.76-1.29,11.65-1.91,1.89-.3,3.8-.53,5.69-.79,1.24-.17,2.47-.33,3.7-.52.29,0,.55-.25.83-.25,3.8,0,7.4-1.21,11.1-1.77a26.77,26.77,0,0,1,3.41,0l-4.46,1.1,1.14.8-1.29.54h0l-.91-1.2c-2.41.32-4.79.62-7.17,1-1.62.24-3.23.58-4.85.86-1.24.21-2.49.38-3.73.61A128.66,128.66,0,0,1,106,360.12a7.77,7.77,0,0,0-1.38.41A6.38,6.38,0,0,1,103,361c-2.84,0-5.52.9-8.28,1.3-3.53.5-7,1.32-10.54,1.73a4.34,4.34,0,0,0-2.38.93c-.9.72-1.81,1.52-3.12,1a11.29,11.29,0,0,1-3.87,1c-1.7.33-3.4.68-5.06,1.14s-3.29,0-4.81.75c-1.84-.95-3.73.94-5.6-.07-.24-.13-.72.29-1.08.29a2.3,2.3,0,0,1-1.32-.32,1.8,1.8,0,0,0-2.76.12,3,3,0,0,1-3.92.41,5.51,5.51,0,0,0-3.36-.39c-3.93.46-7.87.68-11.79,1.1-1.93.2-3.85.37-5.78.5-1.58.11-3.06.36-3.81,2,0,.1-.35.1-.54.12a.74.74,0,0,1-.29-.09L24.47,371c-1.07,0-2.12-.07-3.16,0-1.34.11-2.66.4-4,.52s-2.48.12-3.63.17c-.33.92.19,1.09.65,1.11,1.14.06,2.3,0,3.45.16-2.25-.09-4.42.6-6.69.43-3.65-.28-8,3-9.14,6.81a4.6,4.6,0,0,0-.23,2A6,6,0,0,1,0,387.73a5,5,0,0,0-1.12,2c-.5,1.74-.86,3.52-1.27,5.29,1.27.8,2.51,1.68,3.84,2.37a7.69,7.69,0,0,0,2.24.47c.54.09,1.09.13,1.61.19a1.42,1.42,0,0,1-1.16,1.62,12.38,12.38,0,0,1-2,.35c-.42.62-.86,1.25-1.35,1.94.19.21.33.49.55.58a2.71,2.71,0,0,1,2,2.11l-2.72,2c-.39,1.83-.89,4-1.29,6.17a2.84,2.84,0,0,0,.34,1.34c.7,1.89.55,2.55-.95,3.76-.6.49-1.27.9-1.84,1.42-1.33,1.23-1.45,1.93-.75,3.61.4,1,.82,1.95,1.22,2.92,0,.08,0,.19-.05.45-.5,1-2.93,1-2,3.23a2.77,2.77,0,0,0,.91.45c3.26.32,6.31,1.9,9.69,1.63a14.61,14.61,0,0,1,2.57.41c3.85.42,7.72.65,11.53,1.26,2.19.34,4.47-.05,6.57.85a1.8,1.8,0,0,0,.85.15c4-.51,7.87.6,11.81.87,1.83.13,3.67.28,5.5.45,1.44.14,2.87.43,4.31.44,3,0,6,0,9-.16s5.75-.51,8.65-.56c3.47-.07,6.93-.67,10.4-1a14,14,0,0,1,2.86-.27,47.16,47.16,0,0,0,9.58-.39c5.58-.48,11.17-.7,16.75-1.26a2.13,2.13,0,0,0,.57,0c2.25-.88,4.8-.12,7-1.29a4.12,4.12,0,0,1,1.43-.14l2.86-.35c.76-.08,1.53-.19,2.3-.2a15.68,15.68,0,0,0,3.71-.49,19,19,0,0,1,5.15-.61,118.91,118.91,0,0,0,13.61-.79c3.36-.3,6.68-1,10-1.6,1.71-.28,3.42-.67,5.14-.88,3.92-.48,7.71-1.81,11.71-1.83a12.71,12.71,0,0,0,2.56-.49c.57-.11,1.13-.31,1.7-.37,4.13-.41,8.27-.77,12.4-1.2a29.41,29.41,0,0,0,4.3-.69,12.24,12.24,0,0,1,7.4.56c3.27,1.18,6.53,2.4,9.79,3.61,2.08.77,4.15,1.58,6.25,2.3,1.46.5,3,.89,4.45,1.32a5.66,5.66,0,0,1,1.11.3c3.77,2.07,8,2.9,12,4.37a12.06,12.06,0,0,0,2,.44c.38.06.79,0,1.16.1,3.48.82,7,1.67,10.43,2.48a10.48,10.48,0,0,0,3.4.56c3-.36,6,.51,9,.47a1.41,1.41,0,0,1,.58.07c2.19,1,4.34.48,6.49-.18,2.77-.86,5.64-1.34,8.33-2.5a31.35,31.35,0,0,1,3.9-1,11.7,11.7,0,0,0,2.42-.95c1.6-.89,3.15-1.87,4.72-2.81a2.32,2.32,0,0,1,.5-.29c2.18-.55,4-2.06,6.06-2.65,2.69-.75,4.45-2.62,6.36-4.34a21.58,21.58,0,0,1,1.78-1.41,48.3,48.3,0,0,0,4-3.3,14.89,14.89,0,0,1,1.66-1.62c2.49-1.59,4.27-3.89,6.21-6a14.07,14.07,0,0,1,2.64-2.22c1.76-1.18,3.68-2.15,5.4-3.39a60.15,60.15,0,0,0,6.86-5.28,12.43,12.43,0,0,1,2.89-1.92,11.32,11.32,0,0,0,5-4.36,5.36,5.36,0,0,0,3.62-.74,49.71,49.71,0,0,0,8.56-5.39c1.44-.2,2.26-1.38,3.38-2.1a8.4,8.4,0,0,1,2.28-.73,2.49,2.49,0,0,1,1.31,2.82,72.79,72.79,0,0,0-1.31,14.13,8.53,8.53,0,0,1-.15,1.74,10.22,10.22,0,0,0-.12,3.74,3.16,3.16,0,0,1,0,.87c-.29,3.57-.66,7.13-.86,10.7-.17,3.08-.17,6.17-.21,9.26a1.24,1.24,0,0,0,1.38,1.18,3.6,3.6,0,0,0,3.34-3.74,6.64,6.64,0,0,1,.67-3.05,3.38,3.38,0,0,1,1.49-1.68,6,6,0,0,0,2.55-2.71c1.5-2.81,3.06-5.59,4.52-8.43a27.4,27.4,0,0,1,4.42-6.8,10.7,10.7,0,0,0,1.7-2.34c2.35-4.27,5.51-7.94,8.4-11.82a31.1,31.1,0,0,0,2.24-3.72,3.12,3.12,0,0,1,2.2-1.73c1-.19,1.79.22,1.89,1.23a5.91,5.91,0,0,1-.08,2.3,93.28,93.28,0,0,0-2.41,10.69,78.5,78.5,0,0,1-3.79,13.38c-1.24,3.25-2.55,6.47-3.58,9.8s-2.51,6.28-3.79,9.41c-.59,1.44-1.15,2.88-1.73,4.32a5.6,5.6,0,0,0-.26,3.14,2,2,0,0,0,1.25,1.81,2.07,2.07,0,0,0,2.34-.71,47.16,47.16,0,0,0,3.44-5,7.09,7.09,0,0,1,3.32-3.43c3.69-1.64,6.06-4.76,8.21-8,2.25-3.38,4.28-6.9,6.4-10.35a9.32,9.32,0,0,1,.74-1.23,1.6,1.6,0,0,1,2.08-.43c.7.89.4,1.85.23,2.79-.7,3.91-1.39,7.81-2.12,11.7a10.65,10.65,0,0,0,0,4.32c.21,1,.2,1.93.33,2.89a5.45,5.45,0,0,0,.35,1.39,1.32,1.32,0,0,0,1.95.62,4.36,4.36,0,0,0,1.46-1.33,9.24,9.24,0,0,1,3.81-3.44,74.25,74.25,0,0,0,6.86-4.36,17.76,17.76,0,0,0,2.71-2.57c1.05-1.11,1.9-2.4,3.59-2.69a2,2,0,0,0,1.15-.81,7.38,7.38,0,0,1,1.95-1.66,13.1,13.1,0,0,0,3.56-4.13,5.32,5.32,0,0,1,2.12-2.26c.85-.44,1.57-1.13,2.38-1.66.51-.34,1.37.18,1.19.74a10.77,10.77,0,0,0-.07,3.1,7.59,7.59,0,0,1-1,3c-1.28,2.6-2.72,5.13-3.95,7.76-1.4,3-2.65,6-4,9-.32.71-.67,1.4-1,2.09a89.77,89.77,0,0,0-7.84,20.84,29.06,29.06,0,0,0-.64,3.71,5.15,5.15,0,0,0,1.79,4.65A29.17,29.17,0,0,0,417,468c.74.41.91,1.17,1.17,1.92.58,1.6,1.51,2.45,3,2.06s2.87-.18,4.21-.74c1.79-.74,3.53-1.59,5.35-2.24,2.82-1,5.37-2.72,8.37-3.23,4.78-2.1,9.86-3.45,14.47-5.94,1.79-1,3.5-2.09,5.3-3a13,13,0,0,1,3-1,1.62,1.62,0,0,1,2,1.8c0,.28-.18.55-.22.84-.39,2.87-1.47,5.62-1.43,8.58a8.4,8.4,0,0,1-.49,2c-.77,3.19-1.52,6.39-2.3,9.58a42,42,0,0,1-2.68,7.35,48.44,48.44,0,0,0-3.54,9.5,22.81,22.81,0,0,1-1,2.73,5.1,5.1,0,0,0-.4,1.39c-.06,1.06-.16,2.27.82,2.93s2-.05,2.95-.59a9.83,9.83,0,0,0,1.16-.88,2.47,2.47,0,0,1,2.93-.3,8.44,8.44,0,0,0,5.36.54c2.37-.41,4.8-.46,7.23-.66.37.48.64.87.94,1.23.74.9,1.38,1.05,2.21.49a3.5,3.5,0,0,0,.88-.74,4.75,4.75,0,0,1,3.81-1.77,5.36,5.36,0,0,0,3.9-1.53c.78-.81,2.23-1.06,3.43-1.37a4.78,4.78,0,0,0,2.61-1.11c.3-.32.87-.38,1.3-.56a20.24,20.24,0,0,0,3.18-1.42,23.23,23.23,0,0,0,2.23-2.21,9.77,9.77,0,0,1,3.83-2.5,6,6,0,0,0,1.8-.95c.54-.38.95-1,1.52-1.31a9.07,9.07,0,0,1,1.62-.55c.57-.21,1.12-.47,1.83-.77-.52,1.25-.93,2.32-1.4,3.36a3.62,3.62,0,0,1-.78,1.19,22.86,22.86,0,0,0-4.18,5.55,28.25,28.25,0,0,1-4.61,5.94,9.79,9.79,0,0,0-1.53,2.08,16.4,16.4,0,0,1-3.63,4.48l-9.23,8c-1.82,1.58-3.37,3.48-5.53,4.69a3.68,3.68,0,0,0-1.25,1.56c-.6,1.2-1.09,2.47-1.63,3.71a1.72,1.72,0,0,0,.51,2.09,5.51,5.51,0,0,0,4.2,1.69c2.22-.12,4.44-.28,6.64-.6a39.57,39.57,0,0,0,9.32-2.15,21.13,21.13,0,0,1,4.32-1.25c2.93-.54,5.21-2.33,7.52-4,.08-.06.18-.12.21-.2,1-2.62,3.48-4.08,5-6.28a15.57,15.57,0,0,1,1.18-1.26,7.37,7.37,0,0,0,1.78-3.23,14.77,14.77,0,0,1,2.64-5.38c1.88-2.45,3.5-5.1,5.14-7.71a170,170,0,0,1,10.6-15.57,39.24,39.24,0,0,1,6.09-6.61,19.12,19.12,0,0,0,5-5.61c.13-.23.41-.37.74-.66,1.11.53,2.21,1.1,3.35,1.6a10.92,10.92,0,0,0,2.2.73,1.89,1.89,0,0,0,2.2-1,33,33,0,0,0,1.45-3.8,2.14,2.14,0,0,0-.24-1.38,16.67,16.67,0,0,0-1.59-2.75,2.47,2.47,0,0,0-1.44-.86,22.19,22.19,0,0,1-5.44-2,46.68,46.68,0,0,0-9.45-2.82,8,8,0,0,0-3.12.39c-.76.16-1.46.51-2.21.72-1.65.45-2,.33-2.92-1-.67-.95-1.25-2-2-2.89-1-1.35-2.11-1.63-3.54-.81a10.62,10.62,0,0,1-2.9,1.24,7.7,7.7,0,0,0-1.83.88c-1.6.89-3.2,1.78-4.77,2.72-.91.54-1.79,1.15-2.67,1.75-.32.21-.56.59-.9.71a6,6,0,0,0-3.83,4.05,3.3,3.3,0,0,1-1.35,1.45A35.22,35.22,0,0,1,499,468.8a15.22,15.22,0,0,1-3.64.86,8.33,8.33,0,0,0-3,1,5.09,5.09,0,0,1-1.9.64,2,2,0,0,1-2.43-2.44,9.68,9.68,0,0,1,.51-2,15.1,15.1,0,0,0,.74-6.29,3.8,3.8,0,0,1,0-1.16c.85-3.68-.87-7-1.41-10.52a6.73,6.73,0,0,0-1.47-2.79,52.7,52.7,0,0,0-9-9.79c-1.28-1-2.48-2.16-3.76-3.19a41.29,41.29,0,0,1-6.38-6.7,19.86,19.86,0,0,0-2.49-2.83,13,13,0,0,1-2-2.44c-.61-.86-1.28-1.68-2-2.48a2.14,2.14,0,0,1,.64-3.39,8.63,8.63,0,0,1,2-.52c2.29-.41,4.58-.89,6.89-1.13a4.93,4.93,0,0,0,4-2.49c.54-.91,1.17-1.77,1.86-2.82,1.2,0,2.46.07,3.71,0a1.61,1.61,0,0,0,1.51-2,4.46,4.46,0,0,0-1.91-3.13c-2.8-2.08-5.68-4-8.36-6.26a58.5,58.5,0,0,0-10.06-6.31c-4.37-2.29-8.63-4.75-12.94-7.12-1.27-.7-2.63-1.21-3.9-1.89s-2.46-1.53-3.71-2.24a16.67,16.67,0,0,0-2.86-1.37,3.43,3.43,0,0,1-2.35-2,2.48,2.48,0,0,0-1.83-1.63,9.53,9.53,0,0,1-2.15-1.51c.67-.19,1-.41,1.31-.35a15,15,0,0,1,2.78.81,7,7,0,0,0,3.38.62,5,5,0,0,1,2,.33,32.34,32.34,0,0,0,10.53,1.87,5.57,5.57,0,0,1,1.16.06c3.51.82,7.12.61,10.68.87a54,54,0,0,0,7.49-.43c3-.2,5.79-1.46,8.69-2.18a6.42,6.42,0,0,0,2.64-1.69,2,2,0,0,0,.28-2.86,3.54,3.54,0,0,1-.5-1.89,54.86,54.86,0,0,0-1.08-8.93,32.26,32.26,0,0,1-.62-5.46c-.13-4.74-1-9.44-.73-14.21a23.57,23.57,0,0,0-.17-2.89,27.08,27.08,0,0,1-.21-4.33,12.12,12.12,0,0,0-.53-3.43,3.28,3.28,0,0,1,1.16-3.62,10.82,10.82,0,0,0,1.7-2.19c.63,1.14,1.68,2.09,1.41,3.53,1.52,1.22,3.26,1,4.83.82a29.84,29.84,0,0,0,5-1.33,25.7,25.7,0,0,0,8,2.84,1.07,1.07,0,0,0,.45-1.68c-1.06-1.69-1.84-3.56-3.34-5s-2.84-2.9-4.3-4.3c-2.73-2.6-5.51-5.16-8.25-7.76-.63-.6-1.19-1.27-1.78-1.91a6.64,6.64,0,0,1-1.88-4.72,19.49,19.49,0,0,0-2.2-8.06,21.45,21.45,0,0,0-1.85-2.58c-1-1.52-2-3.07-3-4.63a34.5,34.5,0,0,0-5.54-6.28,10.71,10.71,0,0,0-5.17-2.08c-.82-2.33-3.64-2.88-5-5.06a2.57,2.57,0,0,1,2.72-1.67c3.48-.13,7-.12,10.43-.4a45.38,45.38,0,0,1,9.25.66,13.66,13.66,0,0,1,4.92,1.7,101.18,101.18,0,0,1,10.05,5.77,9.83,9.83,0,0,0,7.48,1.61,1.51,1.51,0,0,0,1.29-2.29,9.47,9.47,0,0,0-1.38-2.2,3.12,3.12,0,0,1-.75-2.42,13.54,13.54,0,0,0-.39-4.61,1.61,1.61,0,0,1,.38-1.28,1.16,1.16,0,0,1,1.59-.15c1.55,1.64,4,1.47,5.62,2.91a1.77,1.77,0,0,0,.8.31c5.47,1.24,10.68,3.33,16.05,4.91,1.94.57,3.78,1.47,5.7,2.15,1.72.62,3.48,1.15,5.22,1.71s3.73,1.09,5.51,1.83a43.18,43.18,0,0,0,6.65,2,13.73,13.73,0,0,1,1.66.49,65.42,65.42,0,0,0,11.69,3.11,16.59,16.59,0,0,0,4,.22,6.63,6.63,0,0,0,2.1-.93c.65-1.74-1-2.42-1.19-3.83.9-.18,1.73-.31,2.55-.51a16.41,16.41,0,0,0,2.78-.8c1-.46,1.27-1.26.88-2.4a5.51,5.51,0,0,1-.42-1.07c-.39-4.29-3.15-7.38-5.41-10.72-.11-.15-.26-.28-.38-.43-1-1.24-1.24-2.25-.73-2.85a3.34,3.34,0,0,1,3.69-1c1.23.57,2.42,1.23,3.61,1.86,2.49,1.3,4.91,2.73,7.46,3.88a10.19,10.19,0,0,0,5.07.84,2.58,2.58,0,0,1,2.48,1.11,40.45,40.45,0,0,0,2.74,3,1.13,1.13,0,0,0,1.89-.45,6.34,6.34,0,0,0,.48-3.67c-.74-3.29-1.15-6.66-2.93-9.65a9.61,9.61,0,0,1-.85-2.47c-.28-1,.34-1.78,1.4-1.58,2.38.46,4.74,1,7.1,1.53a41,41,0,0,0,5.35,1.26,56.68,56.68,0,0,0,11.29.37c3.45-.38,6.9-.84,10.35-1.27,1.72-.21,3.43-.61,5.14-.94a1.84,1.84,0,0,0,.81-.3,13.83,13.83,0,0,1,4.37-2.07,12.13,12.13,0,0,1,5.66-1,18.56,18.56,0,0,1,3.15-2.31,8.51,8.51,0,0,0,4.08-3.9,5.73,5.73,0,0,1,1.81-2.24c2.5-1.79,4.06-4.39,5.94-6.71l.49-.54a49,49,0,0,1,7-.86c3-.19,6-.73,8.91-1.2,1.71-.27,3.4-.71,5.11-1,2.09-.4,4.18-.76,6.28-1.11a41.31,41.31,0,0,1,8-.56c2.83.08,2.83,0,4.5-2.37l1.19,1.65c1.75.78,2.91-1.43,4.68-.83l.61-1.89c1.16-.11.72,1.11,1.59,1.41l2-.76c1.06,1.38,2.44,1.12,3.6.32a4.1,4.1,0,0,0,2-3.69,15,15,0,0,0-.51-2.26,29.49,29.49,0,0,1-1.32-7.39,6.14,6.14,0,0,0-.58-2.23,37.72,37.72,0,0,0-3.4-7c-2-3-3.58-6.2-5.43-9.27-.85-1.4-1.92-2.66-2.83-4-.3-.45-.71-1-.22-1.58a1.53,1.53,0,0,1,1.89-.07,5.67,5.67,0,0,1,.65.56c3,2.9,5.87,5.9,9,8.66a26,26,0,0,1,4.82,5.76c1,1.65,2.09,3.26,3.09,4.92a12.13,12.13,0,0,0,5.11,4.43,2.31,2.31,0,0,0,1.79-2.16,10.23,10.23,0,0,0,0-1.75,2.68,2.68,0,0,1,.79-2.09,11.35,11.35,0,0,0,3.59-6.49,2.63,2.63,0,0,1,1.54-1.79c1.4,1,2.68,2.12,2.69,3.85a13.15,13.15,0,0,0,1.6,5.86,4.47,4.47,0,0,0-.58,1c-.12.54-.34,1.22-.12,1.64a7,7,0,0,0,3,3.42,47.81,47.81,0,0,1,4.26,2.49,4.4,4.4,0,0,1,2.36,4.06,12.33,12.33,0,0,0,.17,1.82c.61.45,1.19,1,1.84,1.35,4.5,2.82,9.12,5.47,13.49,8.48,3,2.09,6.32,3.76,9.09,6.24a10.88,10.88,0,0,0,3.21,2,20,20,0,0,1,4.68,2.88c1,.74,1.87,1.7,2.92,2.39a27.52,27.52,0,0,0,3.08,1.52,5.26,5.26,0,0,1,.45,3.14c-.15,2.89-.29,5.78-.45,8.67a3.33,3.33,0,0,0,.67,2.44,21.56,21.56,0,0,1,1.45,2.33,7.72,7.72,0,0,0,1.55-.72c.83-.63,1.58-1.36,2.36-2.05a4.19,4.19,0,0,1,.86.57c3,3.69,6.37,7,10.75,9.09,1.37.65,2.5,1.79,3.83,2.55,2.41,1.4,4.88,2.7,7.32,4,.42.23.85.45,1.26.71,1.56,1,1.56,1,2.91-.54.06-.07.09-.19.17-.23,1.79-.9,3.54-2.07,5.63-1.93a7,7,0,0,0,2.84-.12,4,4,0,0,1,1.15,0,1.94,1.94,0,0,1,1.84,1.17c.94,1.8,1.89,3.59,2.91,5.34a2.86,2.86,0,0,1,.34,1.9,1.11,1.11,0,0,0,1.49,1.22c1.24-.35,2.41-.78,2.76-2.26a3.53,3.53,0,0,1,.59-1.31c1.74-2.43,3.58-4.81,5.27-7.28,1.26-1.82,2.33-3.78,3.53-5.65a42.67,42.67,0,0,1,5.3-7.22,35.09,35.09,0,0,0,3.87-5.08,13.57,13.57,0,0,1,4.64-3.85c.5-.3,1.09-.58,1.62-.15a1.54,1.54,0,0,1,.41,1.85,11.08,11.08,0,0,1-.8,1.87,64.41,64.41,0,0,0-5.75,14.16,69.66,69.66,0,0,1-2.27,7.5c-1.13,3-2.42,5.9-3.84,8.74a12.29,12.29,0,0,0-1.09,5.4l2.54,1.45c.35-.37.89-.67.95-1.06.36-2.12,2.3-3.25,3.1-5.08a2.93,2.93,0,0,1,1-1c1.57-1.13,3.21-2.17,4.72-3.37,1.29-1,2.44-2.2,3.63-3.32.5-.47.92-1,1.44-1.45a1.32,1.32,0,0,1,2,.5,3,3,0,0,1,.29,1.4,22.67,22.67,0,0,1-.52,4.3,12.85,12.85,0,0,0,.43,8c.67,1.9,1.39,3.78,2.13,5.77-.13.38-.25.85-.44,1.29a2.25,2.25,0,0,0,.38,2.45c1.53,1.86,2.95,3.88,5.54,4.44a3.91,3.91,0,0,1,1.26.66,16.26,16.26,0,0,0,3.93,1.8,4.68,4.68,0,0,0,2.26.17c4.27-.74,8.56-1.38,12.84-2.1,1.43-.24,2.85-.56,4.25-.92,2.81-.73,5.59-1.61,8.42-2.22a24.36,24.36,0,0,1,4.61-.26,13.43,13.43,0,0,1,4.86.67,14.67,14.67,0,0,0,2.83.47,16.48,16.48,0,0,1,2,.22,1.8,1.8,0,0,1,1.3,2.47c0,.09-.06.18-.1.27a25,25,0,0,0-1.69,6.71c-.42,2.77-1,5.51-1.58,8.27a9.22,9.22,0,0,0,.89,6.15l2.14.92a10.49,10.49,0,0,0,1.26-1.45,6.47,6.47,0,0,0,.74-1.87,2.9,2.9,0,0,1,2.6-2.39A10.61,10.61,0,0,0,930.5,328c1.17-.68,2.35-1.34,3.56-1.93a3.75,3.75,0,0,1,1.43-.26,1.27,1.27,0,0,1,1.13,1.13c-.09,1.25-.29,2.49-.38,3.73a16.56,16.56,0,0,0-.14,4.32c1,4.73,1.85,9.5,3.73,14,.26.61.61,1.18,1,1.84a3.24,3.24,0,0,0,.76-.56c.79-1.13,1.75-1.19,3-.83a57.91,57.91,0,0,1,7.21,3.05l.88.41c.83-.14.75-.7.85-1.15a4.22,4.22,0,0,1,1.58-2.37,16.64,16.64,0,0,1,4.49-3.16,19.63,19.63,0,0,0,2.86-1.44,2.68,2.68,0,0,1,3.67.34,8.24,8.24,0,0,0,5,2c1.46.2,2-.12,2.2-1.6A3.5,3.5,0,0,1,975,343a11.51,11.51,0,0,0,1.59-1.52,9.68,9.68,0,0,0-1.18-4,29.89,29.89,0,0,1-2.32-5.87c-.66-2.49-1.41-5.07-3.74-6.69-3.84-4.88-8.51-9-12.9-13.32-5-4.9-10.27-9.41-15.48-14-1-.89-2-1.85-3-2.77-1.71-1.57-3.47-3.09-5.15-4.71s-3.25-3.31-4.9-4.95q-1.85-1.83-3.77-3.59c-1.65-1.5-3.24-3.06-5-4.41a53,53,0,0,1-4.41-4.06,25,25,0,0,1-4.28-5.45c-1.12-1.92-2.31-3.79-3.51-5.66-.89-1.38-1.69-2.89-3.62-3.05-3.67-2.52-7.86-4.14-11.45-6.8a87.24,87.24,0,0,0-13-7.54c-4.66-2.35-9.29-4.79-14.09-6.84-4.27-1.83-8.4-4-12.68-5.76-2.76-1.17-5.63-2-8.41-3.15a18.94,18.94,0,0,1-3-1.7c-1.06-.68-2.06-1.45-3.12-2.11a8.53,8.53,0,0,0-1.74-.52c1,1.88,1.53,3.48,2.85,4.63.53.46,1,1,.44,1.74-.8.32-1.31-.31-1.71-.74-2.81-3-6.48-4.87-9.72-7.3a7.62,7.62,0,0,0-1.58-.74c-4.1-1.74-8.19-3.5-12.3-5.21-5.09-2.11-10.17-4.27-15.31-6.27-6-2.31-12-4.43-18-6.69-1.72-.65-3.36-1.5-5-2.26-8.91-4-18.15-7.28-27.23-10.93-6.64-2.66-13.38-5.1-20.09-7.58-1.81-.68-3.7-1.15-5.54-1.75-3-.95-5.87-2-8.84-2.89a106.24,106.24,0,0,0-12.93-3.23,7.16,7.16,0,0,1-3.7-1.55,10.1,10.1,0,0,0-5.29-2.19,28.37,28.37,0,0,0-2.89-.32,19,19,0,0,1-5.1-1.06,11.62,11.62,0,0,0-5.39-.68c-2.29.28-4.65,0-7,.11q-5.65.23-11.31.62a20.41,20.41,0,0,0-5.41.94,3.24,3.24,0,0,1-2.77,0,2.38,2.38,0,0,0-2.68.35c-1.83,1.33-4.07,1.69-6.27,2a76.39,76.39,0,0,0-7.62,1.6c-2.69.71-5.38,1.57-8.23,1.5a5.09,5.09,0,0,0-.87.06c-4.66.83-9.3,1.74-14,2.48a32.8,32.8,0,0,0-6.6,2.05,21,21,0,0,1-8.25,1.42,37.59,37.59,0,0,0-6.63.61c-2,.27-4,.58-6,.79-5.58.6-11.16,1.36-16.75,1.67-4.78.26-9.32,1.79-14.06,2.14-4,.31-8.1.66-12.15,1-1.64.12-3.28.24-4.92.3-3.29.12-6.58.17-9.87.29-2.22.08-4.44.22-6.66.36a1.37,1.37,0,0,0-.82.23c-1.12,1.13-2.38.82-3.75.61a8.22,8.22,0,0,0-2.81.54,14.09,14.09,0,0,1-2.78.68c-4.58.11-9,1.23-13.48,2-1.72.28-3.44.54-5.17.8-.28,0-.58,0-.87.06-4.66.88-9.31,1.83-14,2.62-6.2,1.06-12.21,3-18.37,4.18-2,.4-4,.55-6,.84a9.24,9.24,0,0,0-2.55.51c-2.64,1.26-5.45,1.14-8.25,1.24-.58,0-1.16,0-1.74.06-3.47.34-6.95.19-10.42.24-3.2,0-6.4.1-9.58.4-4.14.4-8.26,1-12.39,1.56a2.87,2.87,0,0,1-.58.07c-3.87-.34-7.7.43-11.56.42-3.58,0-7.16-.11-10.74,0-3.41.08-6.66-.87-10-1.24-4.42-.49-8.83-1.09-13.24-1.7-1.71-.24-3.4-.65-5.11-1-1.9-.36-3.79-.76-5.7-1a7.11,7.11,0,0,0-2.05.39c-.38-.46-.48-1.41-1.51-1.55a19.29,19.29,0,0,1-5.79-1.76c-1.06-.5-2.44-.35-3.71-.5-.83.36-1.37,1.39-2.49,1.22-.13-.12-.36-.23-.39-.38a2.33,2.33,0,0,0-2.28-1.85c-2.21-.29-4.4-.72-6.6-1a61.51,61.51,0,0,0-7.8-.47c-2.77,0-5.61.2-8.36-.55a3.63,3.63,0,0,0-.87-.1c-4.64-.18-9.28-.36-13.93-.5a16.74,16.74,0,0,0-2,.19,4.26,4.26,0,0,1-1.72.11,11.52,11.52,0,0,0-5.38-.11,2.38,2.38,0,0,1-1.59-.47,6.87,6.87,0,0,0-5-.69,9.37,9.37,0,0,1-4.26-.28,10.18,10.18,0,0,0-3.39-.06,14.83,14.83,0,0,0-3.09.23,5.18,5.18,0,0,1-3.65-.12,3.41,3.41,0,0,0-2.24-.11,30.7,30.7,0,0,1-4.89.37,22.28,22.28,0,0,0-5.47.39,3.16,3.16,0,0,1-.87.06c-3.77-.22-7.53-.5-11.31-.67-2.51-.11-5-.13-7.55-.08-1.64,0-3.28.28-4.92.39a57.34,57.34,0,0,1-7.75-.31c-1.92-.13-3.86,0-5.79,0a8.75,8.75,0,0,1-1.43.1c-2.91-.48-5.81.12-8.71.13-4.06,0-8.12.06-12.18.22s-8.3,0-12.44.19c-1.73.1-3.4-.44-5.17-.1-3.62.7-7.32.25-11,.37a8.8,8.8,0,0,1-3.13-.52,9.46,9.46,0,0,0-5.45-.21c-.93.85-1,2-1.33,3.15.58.81,1.18,1.56,1.69,2.36a1.24,1.24,0,0,1-.82,1.81,5.72,5.72,0,0,1-1.43,0c-.37,0-.86-.32-1.07-.17-1.29.91-2.57.35-3.9.21a25.25,25.25,0,0,0-4.33.19c-2,.15-3.92,1.09-6,.61a.73.73,0,0,0-.55.06c-1.63,1.32-3.5.74-5.29.65-1,.68-1.94,1.35-2.92,2a2,2,0,0,1-2.2.23c-1.06-.7-2.29-.26-3.38-.65-.17-.06-.45-.12-.56,0-1.46,1.19-3.44.25-4.85,1s-2.5.55-3.81.54a9.43,9.43,0,0,0-4.53.69,2.2,2.2,0,0,1-1.41.14,8.44,8.44,0,0,0-4,.29c-1.13.25-2.29.34-3.44.49-1.62.21-3.25.38-4.86.63-2.38.38-4.75.84-7.13,1.21-1.62.25-3.26.39-4.89.63-1.14.17-2.27.43-3.41.65-1.79.34-3.56.73-5.36,1-3.26.48-6.54.78-9.78,1.35a85.83,85.83,0,0,0-11,2.35c-2.37.75-4.89,1-7.16,2.23a19.58,19.58,0,0,1-4.7,1.24,24.38,24.38,0,0,0-3.11.58c-3.56,1.32-7.32,1.57-11,2a23.41,23.41,0,0,0-4.26.82,20.08,20.08,0,0,1-6.24,1.06,9.32,9.32,0,0,0-2.29.34c-3.28.83-6.64,1.33-9.8,2.63a6.82,6.82,0,0,1-1.83.27l-3-2.74c-2.17-.42-4.58.06-7.07-.68a8.65,8.65,0,0,1-.56-1.76,30.47,30.47,0,0,1-.19-6.34c.28-3.37.19-6.77.23-10.16,0-6.39.13-12.78.11-19.17,0-5.23-.17-10.46-.21-15.69,0-2.8.13-5.61.14-8.42,0-3.29,0-6.59-.07-9.88,0-4.84-.16-9.69-.16-14.53,0-5.33.1-10.66.11-16,0-6.11-.08-12.21-.09-18.32,0-7.07,0-14.15,0-21.22,0-7.75,0-15.5,0-23.24,0-3.18-.18-6.36-.24-9.55,0-3.38,0-6.76-.08-10.14a17.92,17.92,0,0,0,0-2.32c-.57-4.27-.08-8.52.18-12.77.15-2.61.35-5.22.55-7.82,0-.48.12-1,.17-1.34.21-.22.31-.43.47-.48a3.49,3.49,0,0,0,2.57-3.45c.06-1.33.29-2.65.47-4.12L-6,5.89A32.82,32.82,0,0,1-6,2.18a25.28,25.28,0,0,0,.14-5.77,2.3,2.3,0,0,1,2.3-2.75,12.79,12.79,0,0,1,2.31.06,16.26,16.26,0,0,0,3.17.22,81.57,81.57,0,0,1,10.71-.28c4,0,7.95-.23,11.9.07,3.69.28,7.34-.12,11-.09.58,0,1.15.05,1.72.07a33.26,33.26,0,0,0,4.35,0c2.32-.28,4.64-.19,7-.28,6.28-.26,12.55.24,18.83,0,2.49-.09,5,.19,7.48.23,7,.11,13.93.24,20.9.24s13.75-.13,20.63-.22c3.87,0,7.74,0,11.6-.25a72.93,72.93,0,0,1,8.37.27c2.71.12,5.41.2,8.12.28,9,.27,18,.55,27,.79,3.29.08,6.57.11,9.86.09,1.64,0,3.28-.27,4.92-.23,4.93.1,9.85.35,14.78.45,6.49.14,13,.15,19.47.31,3.28.08,6.54-.06,9.81-.21a57.89,57.89,0,0,1,7,.06c4.15.29,8.31,0,12.44.14a38.29,38.29,0,0,0,6.85.08c2.5-.33,5,.45,7.47-.28a4,4,0,0,1,1.43.14,6.13,6.13,0,0,0,1.72.21c3.56-.7,7.15.18,10.72-.24a36.15,36.15,0,0,1,5.19.16c4.84.14,9.68.29,14.52.4,1.06,0,2.12-.06,3.19-.12a16.65,16.65,0,0,1,4.61.23,16.81,16.81,0,0,0,4,0c4.06-.1,8.13-.23,12.19-.29,7.07-.11,14.13-.08,21.19.4,3.09.22,6.2.06,9.3.07H364c7.45,0,14.9,0,22.35.07a54.67,54.67,0,0,1,10.14.55l1.31,1.74c-.18.06-.36.11-.53.18-.39.16-.62.44-.44.87,0,.14.25.21.39.31.14-.29.29-.58.41-.89a3.16,3.16,0,0,0,.09-.55,2.27,2.27,0,0,1,1.88-.34c.14,0,.53-.29.54-.46a.84.84,0,0,0-.41-.65,6,6,0,0,0-3.32-.13c1.72-1,3.63-.57,5.42-.59,8-.09,16.08,0,24.13,0,6.09,0,12.19-.1,18.29-.1,4.55,0,9.1.09,13.65.11,5.91,0,11.82,0,17.73,0,7.85,0,15.69,0,23.54,0,6,0,12,.14,18,.14,3.67,0,7.35-.14,11-.18,3.29,0,6.59,0,9.88,0s6.77,0,10.16,0c1.35,0,2.71,0,4.06,0,5,0,10.07-.12,15.1-.13,7.36,0,14.73,0,22.09,0,2.61,0,5.23,0,7.84,0a19.86,19.86,0,0,1,4.91.43,18,18,0,0,0,3.46.21,85.32,85.32,0,0,0,9.86.09,72.91,72.91,0,0,1,7.52.28,22.35,22.35,0,0,0,3.17,0c2.6-.29,5.2-.39,7.82-.47,5.51-.18,11,.1,16.51.13a3.72,3.72,0,0,1,1.16,0c2,.74,4,.35,5.93,0a2,2,0,0,1,.87,0c2.37.72,4.75.21,7.14.14,5.71-.16,11.43-.17,17.14-.28a18.77,18.77,0,0,0,2.56-.36A18.11,18.11,0,0,1,687.66-4c2.91-.07,5.81-.1,8.71-.07s5.81.28,8.71.24c5.8-.08,11.59-.35,17.39-.46,5-.1,10.08-.24,15.1-.07,3.6.12,7.13-.42,10.7-.52,1.45,0,2.9.1,4.35.1q10.3,0,20.61,0A16.76,16.76,0,0,0,775-4.91,14,14,0,0,1,779.58-5a4.86,4.86,0,0,0,1.74,0c3.64-.59,7.31,0,11-.2,2.12-.11,4.25,0,6.37-.15a53,53,0,0,1,6.91-.21,67.09,67.09,0,0,0,6.93-.32C814.23-6,816-6,817.71-6c4.45,0,8.92-.25,13.36,0,2.69.12,5.37.2,8.06.13A10.1,10.1,0,0,0,840.87-6a30.85,30.85,0,0,1,7.74-.12c.58,0,1.16,0,1.74,0h8.41A89.7,89.7,0,0,0,868-6.37c2.3-.23,4.63-.14,7-.16,5.32,0,10.65-.07,16-.09.29,0,.63.09.86,0,1.67-.82,3.41-.41,5.14-.4,4.06,0,8.13-.16,12.18,0s8.3-.09,12.44-.06c2,0,4-.19,6.08,0a10.77,10.77,0,0,0,2-.3,5,5,0,0,1,2-.1c2.2.67,4.41.31,6.62.2,1.25-.06,2.51-.29,3.76-.24,3.47.12,7-.46,10.42.14a1.46,1.46,0,0,0,.58.05c3.56-1,7.26-.51,10.89-.88a92.8,92.8,0,0,1,9.29-.05q10.75,0,21.5,0c6.29,0,12.58,0,18.86,0,7.26,0,14.51.11,21.77,0,2.71,0,5.4.18,8.1.14q6-.07,11.91,0c2.9,0,5.8.23,8.7.1,3.66-.15,7.31.64,11,0,2.6.56,5.17-.21,7.76-.15s5.24-.13,7.84.06a36.47,36.47,0,0,0,5.13-.15c1.72-.1,3.44-.35,5.16-.42,1.93-.09,3.87-.07,5.8-.07,3.68,0,7.36,0,11,0,6.38,0,12.77.17,19.16.19a17,17,0,0,1,4.33.19,1.8,1.8,0,0,0,.86,0c2.68-.7,5.4-.29,8.1-.25,2.51,0,5,0,7.52,0,1.64,0,3.28.13,4.91.18,3.68.13,7.36.23,11,.37,1,0,1.92.23,2.89.31a11.93,11.93,0,0,0,2.6.08,104.43,104.43,0,0,1,14.15-.5c1.62,0,3.19.39,4.86.12a30.07,30.07,0,0,1,5.2,0c1.64,0,3.28,0,4.92.07,3.29.08,6.57.24,9.86.28,1.73,0,3.47-.09,5.2-.19a100,100,0,0,1,14.79.09c1.24.11,2.49.11,3.73.17,7.73.41,15.44,1,23.2.74,7-.22,14.12,0,21.19.08,4.93,0,9.87.06,14.81.13,2.81,0,5.61.2,8.42.21,2.13,0,4.25-.13,6.38-.19a13.74,13.74,0,0,1,2,0,103.48,103.48,0,0,0,13.06.18c2,0,4,.11,6.08.12s3.88-.08,5.81-.07q6.53,0,13,.14c4,0,7.93.14,11.9.19a19.7,19.7,0,0,0,2-.25,12.46,12.46,0,0,1,2-.13,2.12,2.12,0,0,1,2.18,2c.12.66.08,1.35.15,2s.15,1.12.24,1.73l2.9.48c.34.63-.09,1-.47,1.22a14.54,14.54,0,0,1-1.57.87l1,1.92c-.5,1.07-1.82,1.81-1.51,3.27-.8,1.38-.39,2.79-.07,4.18.29,1.21.72,2.39,1,3.6a20.53,20.53,0,0,1,.27,2.26l-2,1.34a3.84,3.84,0,0,0-.25.85c-.11,4.73-.4,9.45-.33,14.18.05,4-.17,7.92-.23,11.88s-.09,7.94-.47,11.9a13.85,13.85,0,0,0,.14,2.31,30.13,30.13,0,0,1,0,6.08,19.24,19.24,0,0,0,0,2c0,1.45-.11,2.89-.14,4.33a25.49,25.49,0,0,0,0,2.9,2.32,2.32,0,0,0,.65,1.22,4,4,0,0,1,1.41,3.39,1.09,1.09,0,0,1-1.15,1c-.83.06-1.13.65-1.13,1.42,0,6.29.1,12.59.13,18.88,0,2.22,0,4.44,0,6.66-.07,5.71-.19,11.41-.22,17.12,0,3.58.1,7.16.12,10.73,0,2.22,0,4.45,0,6.67-.05,3-.14,6-.18,9a5,5,0,0,0,.27,1.41,4,4,0,0,1,0,2.27,6.54,6.54,0,0,0-.15,2.57c.09.62-.31,1.7,1,1.71.23.82.49,1.64.68,2.47a1.06,1.06,0,0,1-.11.82c-1,.92.41,2.3-.74,3.25-.63.52-.16,1.62-.7,2.37-.16.23.13.91.39,1.27a5.36,5.36,0,0,0,1.17.92c0,1.24.39,2.53-.82,3.48.65,1.15-.8,1.73-.73,2.68a6.37,6.37,0,0,0,.86,2.71c.79,1.39.53,3,.09,4.53l-.78-.44c-.18,3.4-.48,6.76-.5,10.11,0,1.89-.23,3.87.79,5.63-.6,1.41.67,2.5.64,3.81s0,2.52,0,3.78a10.34,10.34,0,0,1-.26,4c.58,3.16-.8,6.3,0,9.5a17.05,17.05,0,0,1,0,4.34c0,2.52-.1,5-.1,7.55a56.87,56.87,0,0,1-.67,10c-.39,2.21-.21,4.55-.61,6.81a4.28,4.28,0,0,0,.16,2c.5,1.54,0,3.06.07,4.57a11.91,11.91,0,0,1,0,4.57,1.58,1.58,0,0,0-.11.85c.6,2.37.08,4.78.24,7.17.13,1.92.25,3.85.23,5.78,0,1-.47,2.09-.48,3.13-.05,3.86-.52,7.74.38,11.58a7.12,7.12,0,0,1,0,1.73c0,4.16.34,8.32-.23,12.46a2.34,2.34,0,0,0-.06.58c.34,4.82,0,9.63-.12,14.44a17.79,17.79,0,0,1-.63,5.17c-.75,2.38-.23,4.82-.07,7.21a77.11,77.11,0,0,1-.33,12.44,2.91,2.91,0,0,0-.05,1.13,8.15,8.15,0,0,1,.07,3.44,57,57,0,0,0,.55,8.95,15.91,15.91,0,0,1,0,3.45c-.22,2.3-.16,4.62-.22,6.94-.08,3,.34,6-.29,9a16.07,16.07,0,0,0,0,3.73,3.1,3.1,0,0,1,.08.58c-.45,2.9.33,5.77.13,8.67-.18,2.69-.29,5.38-.38,8.08,0,.86.11,1.72.17,2.58a2.32,2.32,0,0,1,0,.86c-1,2.71-.11,5.54-.56,8.29a4.64,4.64,0,0,0,0,1.44,57.23,57.23,0,0,1,.5,12.13c-.18,5.79-.38,11.59-.17,17.39a18.39,18.39,0,0,1-.2,3.48,18,18,0,0,0-.11,4.91c.43,3.78-.51,7.52-.31,11.3.12,2.11.25,4.23.27,6.35,0,2.5,0,5-.09,7.51-.06,1.93-.34,3.87-.31,5.79.06,3.68.29,7.35.42,11a9.46,9.46,0,0,1-.09,2.32,29.35,29.35,0,0,0-.36,6.07c0,2.7-.16,5.4-.24,8.11a12.34,12.34,0,0,0,0,1.72,53.58,53.58,0,0,1-.54,11,7.46,7.46,0,0,0-.11,1.15c.15,3.09.4,6.18.46,9.28,0,2.07.49,4.17-.13,6.25a4.91,4.91,0,0,0,0,1.15c0,3.48,0,7-.09,10.44,0,1.43-.33,2.87-.31,4.31,0,2.41.37,4.81.32,7.22-.07,3.95-.38,7.9-.53,11.85-.07,2-.11,4.06,0,6.09s-.29,4.26.56,6.31a1.48,1.48,0,0,1,0,.86c-.78,3.53-.37,7.11-.47,10.67-.06,2.08-.66,4.21.28,6.31.22.48-.35,1.27-.37,1.92-.05,1.74,0,3.49,0,5.23s.86,3.61,0,5.43a2.15,2.15,0,0,0,0,1.15,23.15,23.15,0,0,1-.34,6.85,8.51,8.51,0,0,0-.14,2.3,68,68,0,0,1,.23,11.85c-.07,2,.16,4.06,0,6.07a168,168,0,0,0-.15,18.23c.08,2.41-.11,4.82-.14,7.23,0,1,.15,1.92.15,2.87s-.11,2.09-.13,3.13c-.06,3,0,6-.18,9a39.78,39.78,0,0,0,.45,10.05,3.54,3.54,0,0,1,0,.86c-.47,5.21-.49,10.43-.47,15.65,0,.67-.06,1.34-.1,2a7.06,7.06,0,0,0-.12,1.44,56.89,56.89,0,0,1,0,6.91c0,2.6-.45,5.17-.24,7.79a48.66,48.66,0,0,1,0,7.54c-.21,3-.14,6-.22,9,0,.09,0,.18.08.26a.91.91,0,0,0,.09.17l-.19-.48,1.08.4a4.78,4.78,0,0,1,.27,4.43,9,9,0,0,0-.46,3.4c0,2.31.58,4.62-.08,6.92a.49.49,0,0,0,0,.29c.89,3-.2,6.11.1,9.19.2,2.08-.29,4.23-.44,6.35a16.28,16.28,0,0,1,.09,1.7,11.67,11.67,0,0,1-.68,1.92l-1.22-.49c-1.27,2.84-.23,6.11-1.43,9a60,60,0,0,1-6.75.78,41.42,41.42,0,0,0-8.1.36c-3-.55-6-.18-9-.16-4,0-7.91.22-11.87.33-1.26,0-2.51,0-3.77,0-.87,0-1.73,0-2.6,0a5.49,5.49,0,0,1-1.44.1c-2.85-.78-5.76-.11-8.65-.35-5-.41-10-.26-15.07-.3-6-.05-12-.05-18-.06-2.79,0-5.59.06-8.39,0-5.81-.09-11.61-.26-17.42-.33-2.31,0-4.63.2-6.95.17-6.29-.06-12.58-.32-18.87-.28-6.08,0-12.17-.41-18.25.1a13.88,13.88,0,0,1-1.44,0c-2.32-.07-4.64-.2-7-.2-4.54,0-9.08-.05-13.62-.05-4.25,0-8.49.25-12.74,0-.86,0-1.73-.11-2.59-.17a5,5,0,0,0-.86-.06c-3.28.31-6.55-.29-9.82-.15-6.67.3-13.33-.06-20-.11-5.71,0-11.42,0-17.13-.08-2.33,0-4.65-.1-7-.12-3.09,0-6.19,0-9.28,0-3.87-.05-7.73-.17-11.6-.16-3,0-6,.2-9,.22-1.64,0-3.28-.23-4.93-.26-5.13-.08-10.26-.12-15.4-.18-5.42-.07-10.86.08-16.26-.28-7.27-.48-14.53,0-21.79-.21-7.64-.26-15.3-.31-22.95-.21-8.13.11-16.27-.25-24.39.51-1,.1-2.12-.31-3.14-.19-2.81.33-5.6-.13-8.38-.06-3.69.09-7.35-.21-11-.36-4.43-.19-8.86-.39-13.3-.34-6.1.07-12.2-.13-18.3-.18-1.55,0-3.1.15-4.64.13-3-.06-6-.23-9-.27-4.45-.07-8.91,0-13.36-.1-3.87,0-7.74-.16-11.61-.22q-5.24-.09-10.46-.12c-3.78,0-7.56,0-11.33,0-5.13,0-10.26-.11-15.38-.18-7.25-.1-14.51-.22-21.76-.31-3.49,0-7,0-10.46,0-4,0-7.94-.19-11.91-.2-5.61,0-11.22.15-16.82.07-2.8,0-5.6.1-8.41-.15-3.94-.35-7.92-.19-11.88-.21-4.84,0-9.68,0-14.52,0-1.84,0-3.68,0-5.52-.06-8.32-.25-16.64-.39-25-.33-5.62,0-11.26,0-16.86-.34-5.32-.35-10.64-.09-16-.35-1.74-.08-3.48-.31-5.22-.31-4.26,0-8.52.12-12.78.19a12.51,12.51,0,0,1-2,0c-4.62-.7-9.28-.25-13.92-.44-3.09-.13-6.2.27-9.28-.29a7.28,7.28,0,0,0-1.74.06,15,15,0,0,1-2.31.13c-5.7-.56-11.41.05-17.11-.31-1.92-.12-3.86.22-5.79.29-2.81.1-5.62.2-8.42.2-6.79,0-13.57,0-20.36-.07-4.55,0-9.1-.1-13.66-.13-6.88,0-13.76.08-20.64-.13-5.32-.16-10.65.18-15.95,0-7.17-.25-14.34-.24-21.51-.36-6.11-.11-12.21,0-18.32,0-5.23,0-10.48.14-15.7-.15-6-.34-12-.15-18-.37-3.86-.14-7.74.06-11.61,0-6.69,0-13.37-.14-20.06-.19-5.81,0-11.62,0-17.43-.09q-19-.21-38.07-.47c-7.95-.09-15.89-.21-23.83-.26-11.91-.06-23.82,0-35.74-.1q-25.87-.15-51.75-.38c-8.91-.07-17.82-.16-26.73-.21-1.45,0-2.9.14-4.35.2a14.28,14.28,0,0,1-1.73,0c-.57,0-1.15-.2-1.72-.18-5.9.26-11.79-.17-17.69-.07-5.23.1-10.46-.15-15.68-.19-4.65,0-9.31,0-14,0-2,0-4.07-.08-6.1-.07-5.33,0-10.65.16-16,.16-5.91,0-11.82-.07-17.73-.12l-17.14-.2L118,776.53q-6.11-.07-12.21-.11c-7.46,0-14.92-.08-22.38-.08-3.56,0-7.12-.09-10.68,0-3.77.09-7.55-.16-11.32-.08a29.17,29.17,0,0,0-6.58.46,9.94,9.94,0,0,1-4.3.19c-2.43-.53-4.82-.06-7.22-.22-4.33-.3-8.66-.18-13-.49-2.47-.17-5-.52-7.52.06a1.93,1.93,0,0,1-.86.06c-2.59-.61-5.2-.19-7.81-.18-3.49,0-7-.19-10.46-.16-3.67,0-7.35-.24-11,.5a4.65,4.65,0,0,1-2-.06,2.2,2.2,0,0,1-1.84-2,22.47,22.47,0,0,1-.19-2.31c0-2.52.14-5,.17-7.55,0-3.19,0-6.38.06-9.57,0-2.7-.24-5.41.27-8.1a8.61,8.61,0,0,0,0-2,96,96,0,0,1,.09-12.69,10.83,10.83,0,0,0,0-2.9A32.06,32.06,0,0,1-10.9,723c0-3.35-.16-6.7-.16-10,0-1.53.26-3.06.4-4.59a5.34,5.34,0,0,0,.15-2c-.72-2.18-.39-4.4-.35-6.6.09-4.83.34-9.66.31-14.49,0-1.84,0-3.66,0-5.5.1-3.07-.17-6.15-.21-9.23,0-1.34.21-2.69.22-4,0-1.64-.41-3.34-.07-4.89.5-2.25-.2-4.41,0-6.62s.27-4.24.3-6.37c0-1.25-.26-2.5-.23-3.74.09-3.47.34-6.93.42-10.39s0-7,0-10.46c.05-4.73.35-9.47.16-14.18-.15-3.67.17-7.31.1-11,0-1.15-.19-2.3-.23-3.46A94.34,94.34,0,0,1-9.9,583a1.4,1.4,0,0,0,0-.29c-.5-3.18.18-6.37-.15-9.55a2.51,2.51,0,0,1,0-1.15c.67-1.59.43-3.26.37-4.87a60.79,60.79,0,0,1,.09-7.75c.3-3.15-.29-6.37-.13-9.54.35-6.77-.09-13.54.31-20.3.2-3.29-.08-6.57,0-9.84,0-1.94.11-3.88.1-5.81a13,13,0,0,0-.25-2.56,25.89,25.89,0,0,1-.63-6.54c.27-4.83.18-9.68.12-14.52,0-2.9-.25-5.78-.09-8.68a35.82,35.82,0,0,0-.1-5.18c-.27-3.19.34-6.35.13-9.54-.19-2.8.65-5.54,1-8.32.16-1.33.24-2.68.35-4s.19-2.69.34-4a15.76,15.76,0,0,0-.09-4.6,4.67,4.67,0,0,1-.14-2,14.76,14.76,0,0,0,0-4.5c-.21-3-.15-6-.36-8.95a36.23,36.23,0,0,0-.37-5.7,2.78,2.78,0,0,1,.06-1.43,5,5,0,0,0,.11-2.27c-.09-.83.47-1.83.18-2.52-.71-1.65.19-3.21,0-4.84a29.63,29.63,0,0,1,.2-4.87c.08-3,.12-6,.17-9ZM937.41-5.8a2.14,2.14,0,0,0,.27-.09,1.32,1.32,0,0,0,.2-.12l-.52.22a2.11,2.11,0,0,0,0-.25.45.45,0,0,0-.12-.16A2.93,2.93,0,0,0,937.41-5.8ZM896-1.7c.15-.05.3-.11.45-.15s.09,0,.14,0l-.61.08a3.53,3.53,0,0,0-.3-.72s-.31.06-.48.1c0,.08.07.19.13.23C895.54-2,895.77-1.83,896-1.7ZM1368.13.54c1.77.54,1.85.61,1.83,2,0,.74-.08,1.47-.13,2.22,1.25,0,1.27,0,1.36-.25.82-2.54,1.88-5.07.15-7.66a4.49,4.49,0,0,0-.33-.36c-2.22-.51-4.29-2.29-7-1.69-.34.08-.74-.18-1.12-.22a18.19,18.19,0,0,0-6.2,0c-.27.88.19,1.2.78,1.39a19.65,19.65,0,0,1,6.72,3.56c2.46-.32,2.46-.32,3.94,1l-1-.13V.54ZM738.82,664a4.17,4.17,0,0,0,4.7-1.41c1.08-1.37,2.47-2.4,3.66-3.65s2.49-2.7,3.73-4c.79-.86,1.63-1.67,2.36-2.57,1.64-2,3.13-4.18,4.84-6.14a31.23,31.23,0,0,0,4.51-6.34c.87-1.72,1.92-3.36,2.69-5.12,1.68-3.8,3.24-7.66,4.84-11.5.26-.62.5-1.25.7-1.88.44-1.38.84-2.77,1.26-4.16.84-2.78,1.67-5.54,1.28-8.53a10,10,0,0,1,.25-4.3,4.51,4.51,0,0,0-.54-4.18,3.3,3.3,0,0,1-.55-1.6c-.31-2.65-1.57-5-2.69-7.31s-2.55-4.54-3.88-6.79c-.73-1.25-1.49-2.49-2.3-3.69a33.89,33.89,0,0,1-3.06-4.52,57.12,57.12,0,0,0-3.47-5.93c-1.53-2.58-3.13-5.11-4.83-7.57a29.49,29.49,0,0,0-4.27-5.48c-2.38-2.12-3.74-4.89-5.55-7.37a3.93,3.93,0,0,1-.75-3c.25-1.7,1.09-2.32,2.8-1.92,4,1,8.07,1.93,12.06,3.12a42.08,42.08,0,0,1,9.92,4c1.37.83,2.94,1.45,4,2.76a67.83,67.83,0,0,1,4.71,6.23c.24.41.57.77.83,1.17,1.11,1.69,2.26,3.36,3.31,5.09,1.57,2.55,2.93,5.25,4.64,7.7a56,56,0,0,0,4.89,5.69,29.82,29.82,0,0,1,5.09,6.6,4.72,4.72,0,0,0,3,2.52c1.84.53,3.6,1.32,5.51,2a8.37,8.37,0,0,0,.68,1.44,2.76,2.76,0,0,0,1,.93,1.86,1.86,0,0,0,2.46-.91,17.94,17.94,0,0,1,1.9-3.52c1.74-1.9,3.57-3.68,4.68-6.09a12.36,12.36,0,0,1,2.13-2.7,43.67,43.67,0,0,1,3.89-4.27,11.11,11.11,0,0,0,2.24-2.65,8.75,8.75,0,0,1,3.2-3.25,6.73,6.73,0,0,0,2.64-6.32,2.62,2.62,0,0,0-.46-1c-1.93-2.54-3.36-5.42-5.61-7.75-1.66-1.72-3.51-3.34-4.5-5.62a1.92,1.92,0,0,0-.36-.46c-2.3-2.83-4.9-5.43-6.81-8.59a2.72,2.72,0,0,0-.58-.64,28.62,28.62,0,0,1-5.82-7.53,2,2,0,0,1,.37-2.83c.77,0,1.53-.1,2.29-.1.37,0,1,0,1.08.21.73,1.26,2.29,1.31,3.23,2.35a7.9,7.9,0,0,0,3.71,2.18,21,21,0,0,1,2.9,1.33,55.26,55.26,0,0,0,5.55,2.52c2.57.88,4.92,2.21,7.37,3.33a63.21,63.21,0,0,0,6.2,2.43,11.44,11.44,0,0,0,8.49-.31c1.6-.7,3.2-1.36,4.83-2a8.56,8.56,0,0,1,2.22-.53,3.68,3.68,0,0,0,2.34-1c.56-.52,1.19-1,2-1.59-.12-1.61-.23-3.32-.37-5a2,2,0,0,0-.27-.82c-1.31-2.49-2.69-5-5.28-6.32a2.56,2.56,0,0,1-1.46-3.55c.19-.55.17-1.15.33-1.71A1.87,1.87,0,0,1,850,520a2.68,2.68,0,0,0,.8-.32,1.57,1.57,0,0,0,.36-2.49,5.21,5.21,0,0,0-3.15-1.9,56,56,0,0,0-12.11-1c-1.55,0-3.09.11-4.64.1a69.17,69.17,0,0,0-9,.21,9.44,9.44,0,0,1-2.59-.19,1.08,1.08,0,0,1-.75-1.58,3.66,3.66,0,0,1,1.06-1.28,2.79,2.79,0,0,1,1.37-.42,7.1,7.1,0,0,0,5.76-3.37,3.32,3.32,0,0,1,1.49-1.29,5.67,5.67,0,0,0,3.27-3.13,2.63,2.63,0,0,1,1.61-1.5c1.06-.41,2.06-1,3-1.41.36-1.52,0-2.48-1.37-2.95A35.48,35.48,0,0,0,824,495.67a16.78,16.78,0,0,1-5.32-.9c-3.88-1.4-7.73-2.24-11.92-1.52a28,28,0,0,0-8.26,2.54,75.27,75.27,0,0,1-12.4,4.87c-1,.31-2,.73-3,1.13a84.46,84.46,0,0,1-17.38,5.65,68.12,68.12,0,0,0-9.26,2.31c-3.21,1.05-6.46,2.06-9.07,4.39-3.41,3.06-7.49,5.14-11.26,7.67a17.34,17.34,0,0,0-3.36,2.66,25.77,25.77,0,0,1-4.19,4,6.55,6.55,0,0,0-2.59,3,1.38,1.38,0,0,1-2.06.91,1.4,1.4,0,0,0-2,.74,7.1,7.1,0,0,1-2.7,2.94c-1.73,1.37-3.49,2.73-5.13,4.21a11.59,11.59,0,0,0-2.62,3.07,47.88,47.88,0,0,0-4.63,12.48c-.48,2.38-1.08,4.71-1.72,7-.23.84-.39,1.69-.57,2.55-.32,1.51-.62,3-.95,4.53-.18.84-.41,1.68-.58,2.52a124.12,124.12,0,0,1-3.21,13.22c-1.7,5.4-4.9,9.85-8.07,14.33s-7.14,8.4-10.27,13c-1.69,2.47-3.35,4.94-4.83,7.55-1.05,1.85-1.75,3.84-2.75,5.7a1.34,1.34,0,0,0,1.28,2,3.16,3.16,0,0,0,1.42-.26c1.88-1.13,4-1.3,6.07-1.91.83-.26,1.66-.52,2.47-.83,2.07-.8,4.13-1.63,6.2-2.41a8.19,8.19,0,0,1,1.41-.28,18.45,18.45,0,0,0,2.26-.46c2.73-.91,5.45-1.9,8.18-2.83.72-.25,1.48-.43,2.21-.65a8.25,8.25,0,0,0,2.17-.71,7.38,7.38,0,0,1,3-.92,16.38,16.38,0,0,0,4.24-.87,27,27,0,0,1,3.28-1c3.51-1.09,7-2.13,10.53-3.2a3.8,3.8,0,0,0,.81-.32c1.28-.71,2.47-1.42,2.59-3.16.1-1.27,1.11-2.13,1.83-3.12a3.6,3.6,0,0,1,3.52-1.6,7.45,7.45,0,0,1,1.59,2.7,40.69,40.69,0,0,0,5,8.46c2.46,2.91,4,6.38,6.14,9.49a2.68,2.68,0,0,1,.55,1.88,3.17,3.17,0,0,0,.86,3.39c1,1,1,2.26.12,3.68-3,4.87-5.43,10-8,15.12-.91,1.84-1.72,3.65-1.46,5.81a4,4,0,0,1-1.17,3.12A8.57,8.57,0,0,0,738.82,664ZM951.29,504.5c.05,3.57-1.93,6.73-2.41,10.28a49.39,49.39,0,0,1-1.24,5c-.8,3.27-1.55,6.55-2.39,9.81-.52,2.06-1.17,4.09-1.74,6.14a5.28,5.28,0,0,0-.19,1.42,22.24,22.24,0,0,1-1.22,7.09q-.86,2.61-1.52,5.27c-.74,3-1.45,6-2.08,9a7.13,7.13,0,0,0-.09,2.87,2.53,2.53,0,0,1-.37,1.88c-1.09,2-1.29,3.12-1.26,6a3.21,3.21,0,0,1-.17,1.15,39.94,39.94,0,0,0-2.08,12.82,6.25,6.25,0,0,1-.6,2.2,38.66,38.66,0,0,0-1.57,4.66,8.56,8.56,0,0,0,.27,4.85,40,40,0,0,0,4.41,8.46,10.27,10.27,0,0,1,1.93,4.66c.11,1.29.08,3,1.81,3.62.26.1.39.64.49,1a14.66,14.66,0,0,0,.55,2.24c.86,1.85.17,3.13-1.35,4.32a4.56,4.56,0,0,1-.93-.68,11.63,11.63,0,0,0-5.26-3.48c-1.09-.38-2.16-.84-3.23-1.26a42.12,42.12,0,0,1-6.42-2.65,7.84,7.84,0,0,0-4.47-1.08l-7.18.45a65,65,0,0,1-5.64,5c-2.69,1.89-5.62,3.41-8.4,5.17s-5.74,3.61-8.47,5.61c-1.94,1.42-3.65,3.15-5.37,4.67.1,2.38.1,2.38-1,4.24-.34.58-.72,1.15-1.05,1.74a13.69,13.69,0,0,0-1.86,6c-.11,2.59-.55,5.17-.71,7.76-.17,2.8-.25,5.61-.24,8.41,0,1.25.38,2.49.5,3.74.36,3.65.66,7.31,1,11,.17,1.64.51,3.25.67,4.88.24,2.41.42,4.83.54,7.24a5,5,0,0,0,1.77,4.08,2.26,2.26,0,0,1,.4,3.14c-.36.56-.73,1.11-1.11,1.66-.28.39-.6.76-.86,1.17a1,1,0,0,0,.4,1.47c.61.37,1.25.65,1.88.13s1.07-1.08,1.64-1.59a19.21,19.21,0,0,1,3.47-3c3.66-2,7.44-3.69,11.18-5.52,2-1,4-1.9,6-2.92,4.12-2.14,8.17-4.4,12.33-6.46a44.18,44.18,0,0,1,4.13-2,24.62,24.62,0,0,0,7.33-3.88c2.17-1.79,4.69-3.18,7-5,3.94-3.11,8.49-5.31,12.81-7.87,2.24-1.33,4.46-2.7,6.67-4.08a10.12,10.12,0,0,0,1.17-.93c.26-2,.52-3.39.6-4.82a8.29,8.29,0,0,0-.24-2.86,45.68,45.68,0,0,1-1.76-7,4.77,4.77,0,0,0-.67-1.58c-.28-.48-.83-.86-1-1.36a7.66,7.66,0,0,1,0-2,2.06,2.06,0,0,1,1.09-1.94c1.57-.68,2.9-1.92,4.78-1.9a2.82,2.82,0,0,0,2.43-1.38,2.77,2.77,0,0,1,2.7-1.35,6.41,6.41,0,0,0,1.16,0,4.39,4.39,0,0,0,2.77-1.46c.61-.67.41-1.43.23-2.2a1.37,1.37,0,0,1,0-.57c.57-2.3.28-4.64.27-6.95a121.3,121.3,0,0,0-.47-13.61c-.19-1.62.16-3.25,0-4.9a111.5,111.5,0,0,1-.63-13.31c0-1.44-.38-2.88-.35-4.33s.38-2.86.5-4.3c.3-3.75,1.06-7.44,1.24-11.2,0-.19.15-.37.16-.56.17-3,1.5-6,.8-9.11a2.59,2.59,0,0,1,.19-1.14c.64-2.22.82-4.57,2-6.66a5.08,5.08,0,0,0,.3-1.69,6.57,6.57,0,0,1,.17-1.42,34.37,34.37,0,0,0,1.8-8.19c.39-2.78,1-5.55,1.15-8.34s.82-5.52.92-8.32c.1-2.6.12-5.21.35-7.8a5.67,5.67,0,0,0-.58-3.36c-1.25-2.29-2.54-4.6-4.7-6.14s-4-3.24-4.4-6.18a12,12,0,0,1-5-.05,4.81,4.81,0,0,0-4.09,1,27.25,27.25,0,0,0-3.25,2.89A11.25,11.25,0,0,1,951.29,504.5Zm141.41,85.83c-1.69,1.8-2.62,4.06-3.88,6.08a13.14,13.14,0,0,0-1.07,3.28.94.94,0,0,0,0,.29,3.84,3.84,0,0,1-1.17,3.18l2.18,5c-.09.22-.1.35-.16.4-.62.44-1.25.87-1.88,1.29-1.14.75-1.2,1.64-.23,2.62a4.62,4.62,0,0,0,2.84,1.32c3.64.42,7.25,1.18,11,1.09,1.16,0,2.32.15,3.48.22a6.48,6.48,0,0,0,2,0,5.59,5.59,0,0,1,2.87,0c1.12.28,2-.32,3-.39,1.5-.11,1.83-1.23,2.59-2a3.34,3.34,0,0,0,1.17-1.94c.06-.55.48-.76.91-1,.82-.49,1.59-1.07,2.38-1.62,0-1.21.9-1.53,1.81-2a4,4,0,0,0,1.5-1.32,14.56,14.56,0,0,1,4.86-4.44,19.43,19.43,0,0,0,2-1.64c.6-.47,1.23-.92,1.86-1.37,2.45-1.72,5-3.3,7.32-5.18,3.51-2.85,7.26-5.36,10.88-8,2-1.48,3.81-3.16,5.7-4.77,2.61-2.25,4.92-4.81,7.51-7.1s5.24-4.92,5.81-8.76a2.12,2.12,0,0,1,.75-1.19c1.12-.9,2.27-1.78,3.47-2.58a62.61,62.61,0,0,0,6.3-4.12c3.24-2.77,7.16-4.22,10.83-6.12a34.31,34.31,0,0,0,4.48-2.59,20.53,20.53,0,0,0,5.78-6c.49.05.94,0,1.23.13,1.12.73,2,.17,3-.37a7.76,7.76,0,0,0,1.33-1.11,28.83,28.83,0,0,1,10-6.23,7,7,0,0,0,1-.53c2.33-1.37,3.65-4,6.18-5.08.17-.08.27-.28.39-.43.82-1.08,1.68-2.13,2.45-3.24a12.64,12.64,0,0,0,2.55-8.69,3.15,3.15,0,0,1,.37-1.63,18.31,18.31,0,0,1,1.29-1.91l2.21.34a6.67,6.67,0,0,0-.4-3.92l-3.25.35c-1.45-1.86-3.16-3.55-2-6.21-.28-1.08,0-2.47-.85-3.21a43.92,43.92,0,0,0-5.53-4.16,18.71,18.71,0,0,1-3.52-2.53,5.87,5.87,0,0,0-3.93-1.61c-3-.31-5.68.78-8.23,2.24-3.44,2-7.22,3.27-10.43,5.64a2.14,2.14,0,0,1-.54.23c-1.51.64-3.06,1.19-4.52,1.93-2,1-4,2.23-6,3.35-2.28,2.73-5.69,3.9-8.4,6.05a8.45,8.45,0,0,1-2.64,1.14c-1.1.37-2.27.55-3.36.95a15.62,15.62,0,0,0-3.68,1.63c-2.54,1.77-4.91,3.77-7.4,5.6-2,1.42-3.94,2.82-6,4.06-3.81,2.3-7.76,4.35-11.51,6.73a66.52,66.52,0,0,0-6.91,5.29c-2.45,2-4.93,4.08-6.41,7a3.33,3.33,0,0,1-2.11,1.89c-1.47.32-2.19,1.37-3.16,2.32a10.3,10.3,0,0,0-3.13,6,2.26,2.26,0,0,1-.17.56c-1,2.33-1.13,4.85-1.47,7.31-.27,1.91.09,4-.48,5.77a47.66,47.66,0,0,0-2,7.78c-.19,1.23-.55,2.45-.63,3.69a48.71,48.71,0,0,0,.51,7.44c.18,2.11.5,4.21.73,6.16-.31.3-.43.5-.59.55a4,4,0,0,0-3,2.81c-.19.68-.85,1-1.58,1.11a3.67,3.67,0,0,1-3.21-1,9.3,9.3,0,0,0-4.14-2,9.79,9.79,0,0,1-4.56-1.65,1.1,1.1,0,0,0-.82-.24C1094.83,591.61,1093.87,590.81,1092.7,590.33ZM864.42,635.2c-1.14-1.38-2.32-.87-3.44-1a19.27,19.27,0,0,0-11.39,2.5,18.7,18.7,0,0,1-7.16,2.07c-1.91.21-3.88.12-5.75.51-3.22.65-6.38,1.56-9.61,2.18q-2.69.53-5.39.9a10.39,10.39,0,0,1-3.73-.13,5.68,5.68,0,0,0-4.89,1.09c-1.93,1.44-3.89,2.85-5.89,4.2a12.82,12.82,0,0,0-2.78,2.52c-1.21,1.48-2.48,2.92-3.67,4.43a53.16,53.16,0,0,0-6.39,9.61c-.38.77-1,1.45-1.41,2.19a10.12,10.12,0,0,0-1.18,2,28.4,28.4,0,0,1-4,7,15.94,15.94,0,0,0-2.5,7,10.49,10.49,0,0,0,0,2.31,1.63,1.63,0,0,0,1.34,1.67,16.84,16.84,0,0,0,4.26.8c1.6-.07,2.81,1.12,4.48.86a21.12,21.12,0,0,1,5.2.15,37.14,37.14,0,0,1,5.13.87c2.53.62,5,1.41,7.53,2.08a43,43,0,0,1,9.9,4.05,23.32,23.32,0,0,0,5.73,2.68,54.85,54.85,0,0,1,8.05,3.12,33.34,33.34,0,0,0,12,3,28.72,28.72,0,0,1,3.46.33,6.42,6.42,0,0,1,1.9.62c1.29.64,2.55,1.36,3.81,2a2.09,2.09,0,0,0,2.67-.35,8.24,8.24,0,0,0,1.94-2.49,58.15,58.15,0,0,1,3.27-6.14,9.74,9.74,0,0,0,1.36-3.47,42.46,42.46,0,0,0-.12-7c-.21-2.3-.78-4.57-1-6.87a26.84,26.84,0,0,0-2.8-9.4,4.68,4.68,0,0,1-.39-3.08,21.14,21.14,0,0,0,.45-4.61c-.17-3.19-.17-6.36,0-9.55a21.16,21.16,0,0,1,.77-5.14,16.74,16.74,0,0,0,.65-6.56c-.13-1.15-.54-2.26-.59-3.4A29.79,29.79,0,0,1,864.42,635.2ZM593.9,574c.75-.65,1.14-1.44,2.14-1.63,5-.93,9.5-3.21,13.9-5.66a4.22,4.22,0,0,1,1.32-.59,16,16,0,0,0,5-2.3c2.74-1.63,5.41-3.39,8.13-5.06,4-2.47,7.09-5.94,10.06-9.51a2.16,2.16,0,0,0,.38-2.43c-.24-.53-.55-1-.75-1.56s-.58-1.17-.44-1.64c.5-1.7-.21-3.43.33-5.14a3.22,3.22,0,0,0-.07-2.51c-1-1.2-1.18-2.84-2.51-3.82a15.27,15.27,0,0,1-2-2.13,5,5,0,0,0-1-1c-1.92-1.11-3.88-2.17-5.81-3.26a3.12,3.12,0,0,0-2.79-.21c-1.18.43-2.44.69-3.57,1.22a4.47,4.47,0,0,1-3.65.1,10.69,10.69,0,0,0-4.54-.8c-1.65.12-3.3.14-4.93.37a17.1,17.1,0,0,1-5.2,0,10.74,10.74,0,0,0-5.15.45A58.66,58.66,0,0,1,586,528.7a10.9,10.9,0,0,0-6.15,3.5A16.82,16.82,0,0,1,578,534c-3.8,3-7.6,6-11.45,8.91a51,51,0,0,1-6.33,4.58,11.73,11.73,0,0,0-4.21,4.7c-1,1.75-1.78,3.63-2.66,5.45a13.46,13.46,0,0,0-1.74,7.43c0,.09,0,.22,0,.28.23.36.49.7.82,1.17.71-.51,1.24-.92,1.8-1.29a5,5,0,0,1,3-1.07,6.92,6.92,0,0,0,4.29-1.51,42.08,42.08,0,0,1,11.8-5.5,30,30,0,0,0,3-1.13q2.15-.85,4.29-1.74c.45-.18.89-.38,1.32-.58,1.3-.62,2.56-1.36,3.91-1.85a75.09,75.09,0,0,0,10.54-4.77,1.49,1.49,0,0,1,1.86.14,2.31,2.31,0,0,1-.49,2.41,145,145,0,0,0-10.19,13.72L585,567.28a37.5,37.5,0,0,0-4.16,9.85,5.57,5.57,0,0,0,1.21,5.17,1.7,1.7,0,0,0,2.08.51,2.21,2.21,0,0,0,1.36-1.42c.94-2.89,2.81-5.22,4.37-7.6A5.32,5.32,0,0,1,593.9,574Zm11.81,6.54a10.87,10.87,0,0,0,6.18,1.12,43.78,43.78,0,0,0,10.61-3,109.37,109.37,0,0,0,12.78-6.8,33.31,33.31,0,0,0,5-3.44,13.64,13.64,0,0,1,3-1.79,1.15,1.15,0,0,1,1.05.13,1.23,1.23,0,0,1,.36,1,6.91,6.91,0,0,1-.91,2.12c-.71,1-1.64,1.9-2.35,2.93-1.32,1.9-2.62,3.83-3.77,5.84-1.24,2.17-2.28,4.46-3.46,6.67s-2.54,4.55-3.77,6.85q-1.3,2.43-2.49,4.93a13.33,13.33,0,0,0-1,2.7c-.85,3.76.19,4.84,4,3.77a8.82,8.82,0,0,1,4.81.11,10.55,10.55,0,0,0,3.12.51A89.41,89.41,0,0,0,654,602a7.87,7.87,0,0,0,4.34-2.2c2.46-2.85,4.91-5.73,6.44-9.21.64-1.46,1.36-2.94,1-4.72-.59-2.88-.19-5.78.11-8.67.4-3.85.77-7.7,1.15-11.55,0-.19.07-.44,0-.57-.84-1.12-.4-2.37-.44-3.59a5.72,5.72,0,0,0-.7-2.45,2.89,2.89,0,0,1-.12-2.47,22.48,22.48,0,0,0,.75-4.26c.21-2-.76-3.29-2.58-4.26-3,1.16-6.14,2.27-9.19,3.51-2.77,1.12-5.53,2.28-8.22,3.6-2.16,1.07-4.22,2.36-6.29,3.61-1.57,1-3.15,1.89-4.63,3a122.51,122.51,0,0,1-11.37,7.49c-4.78,2.79-9.79,5.11-14.76,7.51a27.07,27.07,0,0,0-2.5,1.45A2.56,2.56,0,0,0,605.71,580.58Zm168.9-105.84a10.56,10.56,0,0,0-7.25-6.46,26.94,26.94,0,0,1-2.75-.93,18.78,18.78,0,0,0-7.61-1.56,14.08,14.08,0,0,1-3.19-.18,57.46,57.46,0,0,0-12.11-1.21,25,25,0,0,0-7.18.78c-2.75.77-5.8.75-8.2,2.64a.8.8,0,0,1-.56.09,4.36,4.36,0,0,0-3.13,1.25,15,15,0,0,1-2.5,1.42c-1.55.81-3.11,1.58-4.64,2.41s-2,2.24-.88,3.59c.93,1.18,1.43,2.77,3.07,3.36a1.29,1.29,0,0,1,.66,1.73,3.56,3.56,0,0,0-.34,2.51c.63,1.62,1.13,3.3,1.76,4.92,1.23,3.14,2.56,6.24,3.75,9.4.5,1.32.51,2.67-.91,3.61a3.72,3.72,0,0,0-1.64,3l4,4.55c2.74-1,5.13-2.44,7.68-3.56s5-2.43,7.63-3.47c1.41-.57,2.93-.8,4.17-1.86.54-.47,1.55-.36,2.15-.78,2.19-1.56,4.67-2.64,6.89-4.13a54.22,54.22,0,0,0,6.16-4.33c1.72-1.55,3.42-3.12,5.16-4.64,2.48-2.16,4.83-4.44,7.14-6.78A8.27,8.27,0,0,0,774.61,474.74Zm328.9,47.38c-2.36-2.75-4.59-5.37-6.84-8a3.25,3.25,0,0,0-1.05-.91,16.88,16.88,0,0,0-3-1.06,34,34,0,0,0-8.66-.32c-5.8.19-11.58.58-17.34,1.34a38,38,0,0,0-4,.42,15.72,15.72,0,0,1-6.58.26,1.51,1.51,0,0,0-1.78,1.4,1.89,1.89,0,0,0,0,.58c.5,1.81.54,3.68,2.13,5.21s2.59,3.86,4.19,5.51a82,82,0,0,1,7.51,9.54c1.35,1.88,2.27,4,3.9,5.72a15.06,15.06,0,0,1,2.75,4c1,2.23,2.88,3.61,4.75,5,1.11.8,1.94.81,2.84-.2a4.21,4.21,0,0,1,2.8-1.3c.86-.13,1.74-.14,2.6-.28a3.94,3.94,0,0,0,1.89-.59c1.77-1.61,3.43-3.34,5.13-5,.06-.06.06-.18.12-.26a22.91,22.91,0,0,1,1.64-2.35,28.79,28.79,0,0,0,4-6.3,8.76,8.76,0,0,0,1.06-2.66,6.63,6.63,0,0,0-.56-2.29c1.53-.77,1.81-2.18,2-3.65S1103.36,523.23,1103.51,522.12ZM999,618.07a6.09,6.09,0,0,0,2-.65,7.64,7.64,0,0,0,2.14-2.33,34,34,0,0,0,2.44-6.17c.94-3.65,2.06-7.17,4.47-10.16a14,14,0,0,0,.79-1.21c.95-1.47,1.86-3,2.87-4.38a3,3,0,0,1,2.9-1.59,3.22,3.22,0,0,0,2.4-.83c.92-.72,1.84-1.42,2.81-2.07,2.13-1.44,2.84-3.26,1.77-5.71-.34-.78-.33-1.71-.65-2.5-1.37-3.3-2.81-6.57-4.2-9.86-.53-1.25-.91-2.57-1.54-3.76a12.33,12.33,0,0,1-1.41-4.06,34.73,34.73,0,0,0-1.29-4.38c-.22-.74-.36-1.51-.6-2.24-.08-.25-.35-.43-.61-.74-.72.15-1.45.33-2.2.46-2.7.49-4.34,2.22-4.3,4.93a14.58,14.58,0,0,1-.65,4.27,9.08,9.08,0,0,0-.38,2c-.21,4.35-1.34,8.6-1.37,13a11,11,0,0,1-.3,1.68c-.56,3.13-1.12,6.25-1.67,9.38a10.53,10.53,0,0,1-.29,1.71c-1.79,4.48-1.26,9.37-2.47,13.95a.72.72,0,0,0,0,.29,5.94,5.94,0,0,1-.41,3.11,14.33,14.33,0,0,0-.56,3.69A40.75,40.75,0,0,0,999,618.07ZM577,488.21c-.78.16-1.34.23-1.89.39-2.68.8-5.33,1.76-8.06,2.39-3.69.86-6.18,3.41-8.85,5.76a11.12,11.12,0,0,1-4.32,4.21,4.92,4.92,0,0,0-2.54,5.09,8.53,8.53,0,0,0,.07,1.44,19.43,19.43,0,0,1,.28,5.79,42.59,42.59,0,0,0,.82,8.35,1.47,1.47,0,0,0,2.2,1.11,25,25,0,0,0,2.6-1.79c2.58.73,2.6.78,4.66-.16a18.86,18.86,0,0,0,3.8-2.07c3.14-2.41,6.18-5,9.24-7.47a8.28,8.28,0,0,0,1-1.05,44.07,44.07,0,0,0,6.67-10.84c.82-1.82,1-3.47-.25-5.15-.41-.53-.58-1.23-1-1.79s-.71-1.11-1.18-1.22C578.75,490.84,578,489.65,577,488.21Zm456.53,80.33c.24-.32.37-.67.59-.76a3.68,3.68,0,0,0,2.08-2.63c.22-.74.48-1.47.64-2.22.72-3.59,2.12-7,2.36-10.71a1.69,1.69,0,0,1,.37-.79c.82-1.08,1.65-2.12,1.29-3.66-.08-.37.38-.85.57-1.29a15.8,15.8,0,0,0,1.63-7,5.47,5.47,0,0,0-2.4-4.62c-.66.06-1.25.08-1.81.18-1.89.34-3.14,2.26-5.23,2.12-.16,0-.36.16-.48.29-1,1.07-2,2.1-2.89,3.24-1.8,2.33-3.72,4.46-6.59,5.47a2.24,2.24,0,0,0-1.64,2.18,4.59,4.59,0,0,1-1,2.61c-.74,1.07-1.28,2.48-.82,3.58.67,1.59.68,3.35,1.64,4.88a13.67,13.67,0,0,1,1.85,4.53,89.32,89.32,0,0,0,2.19,10.65c1,.4,2,.74,3,1.18a2.57,2.57,0,0,0,3-.45A4.52,4.52,0,0,0,1033,574a22.08,22.08,0,0,0,1.82-4.16ZM526.09,518.71c-.44,1.24-.56,2.56-1.26,3.36-1.19,1.36-.83,2.45,0,3.63.49.69,1,1.6,1.68,1.9,1.62.67,3.38.92,5-.27a24.74,24.74,0,0,0,2.42-2.05c.89-.88,1.62-1.94,2.56-2.76,2-1.77,4.07-3.48,7-3.78a8.88,8.88,0,0,0,4.73-1.6c-.32-2.21-.58-4.4-1-6.58a1.9,1.9,0,0,0-1.77-1.66,3.6,3.6,0,0,1-2.29-1.06,10.66,10.66,0,0,0-2.2-1.31,10.23,10.23,0,0,1-2.46,1.69,3.93,3.93,0,0,0-2.6,2.11c-1.07-.49-2-.69-2.57.48-.27.52-.62,1.05-1.29,1-1.12-.1-1.51.75-2,1.45a19.5,19.5,0,0,1-1.26,2.25,3.42,3.42,0,0,0-.86,1.77,15.12,15.12,0,0,1-.49,1.62l-.67-.09ZM1371.35,65.14a3,3,0,0,0-.31-2.57.83.83,0,0,0-1.22-.25.82.82,0,0,0-.19,1.24A13.82,13.82,0,0,0,1371.35,65.14ZM-8,419.4c-.07,1.27-.18,2.53-.2,3.8,0,.39.3.66.87.5A7.73,7.73,0,0,0-8,419.4ZM1174.62,175a3.24,3.24,0,0,0-1.68-2.59c-.21-.12-.68.06-.94.23a.82.82,0,0,0,.07.74C1172.7,173.81,1173.4,174.2,1174.62,175ZM526.21,528.77a1.06,1.06,0,0,0-.91,1.35c.08.28.55.71.72.66a1.07,1.07,0,0,0,.77-1.32C526.72,529.17,526.37,529,526.21,528.77ZM-7.53,433.71a5.88,5.88,0,0,0-.1-3.43C-7.72,431.23-8.62,432.12-7.53,433.71ZM1345.87-5.39c.34.52.4.66.44.66,1-.12,2.09-.25,3.13-.39l0-.27Zm-370.42,752c-.35-.32-.52-.62-.73-.66a.75.75,0,0,0-.91.76c0,.17.34.55.42.52A7.4,7.4,0,0,0,975.45,746.6Zm47.33-81.1c-.72-.34-1-.59-1.29-.57s-.55.32-.82.5c.27.19.52.5.81.55S1022.06,665.78,1022.78,665.5ZM613.51,71.32l-.2-.57c-.16.08-.39.12-.46.25a1.87,1.87,0,0,0-.21.8c0,.11.18.25.3.33s.2,0,.24-.1C613.31,71.78,613.41,71.53,613.51,71.32Zm530.61,19.62c-.32.29-.69.54-.65.61a2,2,0,0,0,.62.78c.05,0,.58-.31.55-.41A4.3,4.3,0,0,0,1144.12,90.94ZM-8,425.69a5.58,5.58,0,0,0,0,1c0,.1.28.16.43.24a8,8,0,0,0,.15-1C-7.37,425.93-7.64,425.85-8,425.69Zm.62-9.31c-.34.41-.88.82-.08,1.41ZM1338.94-5.13l-.14-.42-2,.26a7.85,7.85,0,0,0,1.39.39A2.7,2.7,0,0,0,1338.94-5.13ZM195,85.6a.81.81,0,0,0,0,1.34c.06.06.23.11.26.08s.31-.32.27-.41A7.49,7.49,0,0,0,195,85.6ZM73.23,77a2.42,2.42,0,0,0-.52-.5c-.09,0-.3.13-.45.2a3.87,3.87,0,0,0,.46.59S73,77.18,73.23,77ZM-7.52,408.23v-.5a2,2,0,0,0-.42.13s0,.22,0,.24A2,2,0,0,0-7.52,408.23ZM298.36-2.89c-.14-.11-.27-.3-.41-.3s-.27.18-.41.29l.55.44ZM1370.68,169.79c-.07-.16-.1-.37-.22-.45s-.28.09-.43.14c.11.21.21.43.32.64ZM255.93-3.31c-.15-.07-.29-.16-.45-.22,0,0-.14.18-.12.21a2.88,2.88,0,0,0,.3.39Zm510.42-.08.24-.1c-.12-.11-.22-.27-.36-.31s-.21.14-.32.22Zm-774,439.5-.13-.22a2.3,2.3,0,0,0-.34.28,1,1,0,0,0,.13.2Zm404,157.24c.21.18.37.39.47.37a.53.53,0,0,0,.33-.38c0-.13-.13-.29-.21-.44ZM274.22,126.6a2.53,2.53,0,0,0-.29-.47,1.74,1.74,0,0,0-.56.32s.17.41.23.4A2.3,2.3,0,0,0,274.22,126.6ZM427.66,699.26c-.07-.15-.11-.37-.23-.44s-.29.08-.44.13l.28.61Zm741.14-637c-.12.09-.32.16-.35.28s.11.28.17.42l.51-.4ZM206,41.14a2.62,2.62,0,0,0-.53.52c-.05.07.13.27.21.42a2.23,2.23,0,0,0,.54-.4C206.24,41.61,206.07,41.38,206,41.14Zm819,625.34a3.24,3.24,0,0,0-.2.36s.15.14.21.12a2,2,0,0,0,.36-.17ZM336.15,679.71l-.13.09.16.09ZM795.43-4.21l-.12.14h.23Zm247.77,752-.11.36.23-.07Zm134-86.33c.1-.16.28-.3.28-.45s-.15-.3-.24-.45a2.36,2.36,0,0,0-.37.54C1176.84,661.14,1177.08,661.3,1177.2,661.42ZM-7.85,402.66c.08,0,.18,0,.21-.09s0-.14-.06-.21-.18,0-.21.1S-7.87,402.59-7.85,402.66Zm271-301.88a1.89,1.89,0,0,0,.16-.36s-.14-.15-.17-.14a1.91,1.91,0,0,0-.32.24Zm-39.56,13c-.14-.06-.32-.21-.4-.16s-.18.26-.26.41c.15.06.33.19.45.15S223.55,113.9,223.62,113.76Zm869,26.78-.23-.13c0,.08-.11.18-.09.23s.14.09.22.13ZM-7.57,410.63l0,.36c.05-.05.13-.1.13-.16S-7.54,410.7-7.57,410.63ZM331.77,170.38h-.24c0,.17,0,.34,0,.51a1.47,1.47,0,0,0,.21,0C331.77,170.72,331.77,170.55,331.77,170.38ZM1371,147a.54.54,0,0,0,0-.21s-.1,0-.16-.07a.8.8,0,0,0-.05.21S1370.93,147,1371,147Zm-1.11,3.7.16.1,0-.15ZM270.67,38h-.19l.09.23Zm975.69,669.11-.4-.11c0,.07,0,.19.06.19A1.91,1.91,0,0,0,1246.36,707.08Zm-821.31-9-.2-.44c-.07.06-.21.13-.2.17a2.57,2.57,0,0,0,.2.45ZM707.15-2.94l.16.11,0-.16ZM119.68,337.7l.19-.11-.35,0ZM-7.92,412.55l.15.11,0-.16ZM589.68,313l0,.16.2-.06Z"/><path d="M45.71,246.33a8.14,8.14,0,0,1,1.78-.82c2.55-.47,5.14-.77,7.69-1.28,1.59-.32,3.12-.94,4.69-1.35,2-.51,3.94-1.31,5.92-1.33,3.38,0,6.7-.76,10.08-.55,2.45.15,4.74-.86,7.14-1.16a9.68,9.68,0,0,1,2.28-.09,19.55,19.55,0,0,0,7.19-.16,29,29,0,0,1,5.74-.64,28.48,28.48,0,0,0,7.18-.83,1.23,1.23,0,0,1,.56-.1,39.75,39.75,0,0,0,6.9,0c.84,0,1.69,0,2.54-.13,4.14-.4,8.29-.71,12.44-1,1.62-.13,3.25-.23,4.87-.29a17.44,17.44,0,0,0,4.87-.66,8.14,8.14,0,0,1,1.73-.15,27.94,27.94,0,0,0,6-.74,9.33,9.33,0,0,1,2.31-.2,9.7,9.7,0,0,0,3.41-.5,3.92,3.92,0,0,1,2.27-.32c2.47.6,4.76-.14,7.1-.66a3.49,3.49,0,0,1,1,.07c.19.84-.35,1.11-.77,1.1a32,32,0,0,0-8.23,1.35,47.86,47.86,0,0,1-8,.82,7.4,7.4,0,0,0-2.49.53,9.42,9.42,0,0,1-3.38.78c-3.59.09-7.06.94-10.58,1.44A71.36,71.36,0,0,1,117,240.51c-2.12,0-4.23.47-6.35.66a64.3,64.3,0,0,0-7.17,1c-2.54.51-5.18.55-7.76.87a48,48,0,0,0-6,1,43.25,43.25,0,0,1-6.57.91c-1.63.17-3.24.45-4.84.65-2.55.32-5.08,1-7.74.62a5.71,5.71,0,0,0-3.68.38,3,3,0,0,1-2,.34c-2.5-.58-5,.27-7.49,0a12.07,12.07,0,0,0-4.32,0,6.42,6.42,0,0,1-2.83-.39,3.72,3.72,0,0,0-3,.25c-.34.21-.92,0-1.39,0Z"/><path d="M123.24,319.05a12,12,0,0,0-1.36,1.51,6,6,0,0,1-2.22,1.71,8,8,0,0,1-5.41,1.36,6.59,6.59,0,0,0-2.25.48c-3.08.83-6.33.69-9.36,1.73-2.21-.36-4,1.21-6.15,1.27s-4.1,1.08-6.16,1.47-4,.77-5.91,1.26c-2.53.64-5.06,1.25-7.61,1.77-2.83.58-5.7,1-8.54,1.56a37,37,0,0,0-5.93,1.36,22.35,22.35,0,0,1-6.83,1.12,8.15,8.15,0,0,0-3.32.68,20,20,0,0,1-2.14.73c-.4-.72.13-1,.46-1.25.67-.53,1.52-.87,1.79-1.79-.63-1.1-.63-1.1-2.07-1.51.34-1.4,1.35-1.76,2.63-1.6a14.21,14.21,0,0,0,2.84.45c2.88-.25,5.75-.66,8.63-1,1.34-.17,2.68-.34,4-.56s2.84-.5,4.26-.78c2.65-.53,5.3-1.08,8-1.62a2.62,2.62,0,0,0,.57-.11c2.57-1.2,5.4-1.43,8.1-2.15a23.13,23.13,0,0,1,4.82-1,15.11,15.11,0,0,0,2.76-.8c3-.79,6-1.54,8.94-2.33,2.71-.72,5.38-1.58,8.1-2.19a31.08,31.08,0,0,1,4.33-.3,13,13,0,0,0,2.87-.35,7.71,7.71,0,0,1,4.73-.33l2.3-1.4c1.55.58,2.6-.78,3.94-1a5.05,5.05,0,0,0,.55-.18c.94-.29,2.21,1.2,2.86-.54,1.23-.26,2.46-.49,3.67-.78s2.22-.63,3.35-.85a10.8,10.8,0,0,1,2,0c.11.87-.53.8-.91.94-1.42.53-2.95.57-4.33,1.45-.87.55-2.25.32-3.19,1.12-2.1-.17-3.73,1.38-5.73,1.6-.28,0-.54.26-.82.3-2.09.23-4.18.44-6.27.65-.15-.28-.3-.56-.43-.83a1.37,1.37,0,0,0,.47.18c.09,0,.19-.14.29-.22h-.24l-.49.06-.48.56c.23.07.46.15.7.21A.72.72,0,0,0,123.24,319.05Z"/><path d="M458.08,250.91c-1.21.26-2.42.53-3.63.77-1.51.3-3.05.5-4.54.88a9.28,9.28,0,0,1-4.29.05c-1.88-.4-3.75-.79-5.6-1.34a13.51,13.51,0,0,0-4.88-.19,21.83,21.83,0,0,1-5.48-.23c-1.32-.2-2.68-.15-4-.33a98.77,98.77,0,0,0-13-1c-4.65,0-9.23-.72-13.86-.84a1.41,1.41,0,0,1-.29,0c-5.18-1.23-10.54-.86-15.77-1.71-1.69-.28-3.46-.14-5.18-.25-.14,0-.31-.4-.37-.64,0-.09.24-.35.39-.36a7.31,7.31,0,0,1,1.14.1,52,52,0,0,0,8.65.24,30.9,30.9,0,0,1,4.5.14,17.2,17.2,0,0,0,2.87,0c1.43-.1,2.88-.52,4.28.21a.7.7,0,0,0,.56.05c1.4-.77,2.84.07,4.26-.1s2.87-.28,4.31-.39a50.37,50.37,0,0,1,8.94-.15c2.3.24,4.61.45,6.91.72a24.5,24.5,0,0,0,6.05.09,18.62,18.62,0,0,1,6.05.22,14,14,0,0,0,6.82-.47c1.53-.47,2.85.09,4.21.54a25.42,25.42,0,0,0,4.64,1.58c2,.23,3.7,1.07,5.59,1.45a2.66,2.66,0,0,1,.7.38Z"/><path d="M434.83,230.16c3.65,0,7.31,0,11,0,3.09,0,6.19-.22,9.27,0,3.65.23,7.33-.22,11,.59a20.5,20.5,0,0,0,6.63-.06,24.3,24.3,0,0,1,3.17-.31,14.31,14.31,0,0,0,5.16-.48,5.86,5.86,0,0,1,2,0,16.53,16.53,0,0,0,7.06-1.31,9.58,9.58,0,0,0,6.51-.1,2.81,2.81,0,0,1,2.48,0,1.64,1.64,0,0,0,1.67,0,3.84,3.84,0,0,1,2.53-.19c1.42.21,2.88.15,4.33.23.56,0,1.18,0,1.49.87a17.8,17.8,0,0,0-3.73,1,7.6,7.6,0,0,0-2.05,1,1.49,1.49,0,0,1-1.05.41c-1.66-.23-3,.67-4.39,1.26a6.8,6.8,0,0,1-3.66.66,8.54,8.54,0,0,0-5.28,1.16,5.85,5.85,0,0,1-4.48.36,19.54,19.54,0,0,1-3.05-.92,18,18,0,0,0-8.24-1.17,30.11,30.11,0,0,1-4.64-.28,23,23,0,0,0-5.75-.09,17.74,17.74,0,0,1-4.6-.16c-1.83-.25-3.65-.13-5.47-.2-1.64-.06-3.25-.31-4.88-.44-3.83-.32-7.67-.49-11.51-.73-.38,0-.75-.08-1.11-.12l-.36-.87Z"/><path d="M99.75,425.83c1.83.05,3.47-.67,5.36-.59s3.75-.69,5.62-1.12c.84-.19,1.66-.47,2.51-.67,1.33-.3,2.68-.58,3.71.49a16.06,16.06,0,0,1,6-1.66,2.62,2.62,0,0,0,1.13-.21,12.83,12.83,0,0,1,5.6-1.32c1.43-.13,2.87-.2,4.28-.45s2.8-.8,4.23-1c3.34-.46,6.7-.84,10.06-1.15a168.2,168.2,0,0,0,17.78-2.5l2.17,2.77a3.79,3.79,0,0,1-1,.49,22.94,22.94,0,0,1-2.85.29c-4,0-7.82,1-11.67,1.79A130.4,130.4,0,0,1,137,423.26c-1.83.14-3.65.41-5.47.62-2.78.33-5.56.71-8.34,1-1.63.15-3.27.13-4.9.18-.39,0-.77,0-1.15,0-1.07,0-1.51,1.44-2.86,1.06a9.12,9.12,0,0,0-3.12.06,12,12,0,0,0-1.4.36c-.27.06-.7.16-.82,0-1.08-1.14-2.18-.15-3.24-.07a23.4,23.4,0,0,0-5.39.73C99.78,427.38,99.55,426.81,99.75,425.83Z"/><path d="M308.77,334.33c-3.07,1.25-3.07,1.24-5.24,1.12a9.09,9.09,0,0,0-2,.07c-3.71.7-7.4,1.48-11.11,2.15-4.47.82-9,1.49-13.43,2.35-3.61.69-7.24,1.18-10.88,1.59-5.37.61-10.77,1-16.15,1.54-2.31.22-4.6.55-6.91.74-4.14.34-8.28.61-12.42.91-2.22.15-4.44.3-6.65.47-2.59.2-5.18.44-7.77.61s-5.22.24-7.83.39a14.61,14.61,0,0,1-4-.09c-.3-.62.13-.8.45-.87a13.6,13.6,0,0,1,2.28-.32c2-.09,4.06-.07,6.09-.21,1.53-.11,3-.4,4.57-.62,6-.84,12.14-1,18.14-2.05a16.4,16.4,0,0,1,2.89,0,7.92,7.92,0,0,0,1.69,0,52.91,52.91,0,0,1,7.2-.73c2.88-.26,5.8-.19,8.61-1a1.85,1.85,0,0,1,.58-.05c4.06.12,8.06-.6,12.09-.84a22.37,22.37,0,0,0,2.57-.36c3.23-.57,6.48-1.08,9.7-1.75s6.3-.71,9.35-1.65c2.43.3,4.74-.63,7.14-.72,2.69-.1,5.38-.32,8.06-.55a11.58,11.58,0,0,0,1.64-.53A1.29,1.29,0,0,1,308.77,334.33Z"/><path d="M31.66,263.66c2.18-.36,4.29-1.18,6.56-.89a2.54,2.54,0,0,0,.87-.06C43,261.78,47,262,50.91,261.6a11.44,11.44,0,0,0,2.55-.44,5.57,5.57,0,0,1,3.1-.4,2.28,2.28,0,0,0,1.61-.41,3.45,3.45,0,0,1,3.06-.49c2.17.64,4.18-.1,6.25-.37a7.57,7.57,0,0,1,1.41-.14,26.78,26.78,0,0,0,9.46-1,13,13,0,0,1,2-.19,6.24,6.24,0,0,0,2-.33c1.13-.57,2.27.28,3.38-.2s2.15-.82,3.23-1.21a.75.75,0,0,1,.57,0c1.38,1,2.8.22,4.21.15.67,0,1.33-.1,2-.12,1.53-.06,3-.1,4.7-.15a2.56,2.56,0,0,1-1.9,1.31l-3.9,1c-.28.07-.56.27-.83.25-2.76-.22-5.28,1-7.93,1.37-1.62.25-3.26.36-4.88.55-1.44.17-2.86.4-4.3.55-1.14.12-2.32,0-3.44.26-4.46.87-9,1.38-13.5,1.82a50.32,50.32,0,0,1-5.49.26,88.61,88.61,0,0,0-14.11,1c-1.6.23-3-.3-4.56-.22-.5,0-.93-.23-1.51.13a3.62,3.62,0,0,1-1.93.28C31.39,264.79,31.56,264.22,31.66,263.66Z"/><path d="M262.3,365.2c.21,1.22-.56,1.29-1,1.43-1.39.41-2.82.64-4.21,1-.82.24-1.59,1-2.36.94-1.06,0-1.87-.08-2.44,1-.12.21-.66.25-1,.26-1.24,0-2.29.23-2.62,1.74a1.63,1.63,0,0,1-1.27.94,11.12,11.12,0,0,0-4.43,1.13,10.8,10.8,0,0,1-2.27.26l1.32-1.07.72-.63a6.54,6.54,0,0,0-5.44-1.48c-1.54.18-3.06.24-4.6.28a27,27,0,0,0-4.48.86,9,9,0,0,1-1,.11c-.45-.73.21-2-.84-2.47-.53-1.58,0-2.44,1.62-2.61a15.42,15.42,0,0,1,2.88-.09,7.28,7.28,0,0,0,4.54-.9c1.55.3,3.1,1.06,4.78.57.27-.08.65,0,.85-.11,1.52-1.11,3.14-.58,4.69-.25a11.79,11.79,0,0,0,4-.07c.67-.08,1.44-.45,2-.24,2.22.89,4.33-.31,6.5-.21A27.88,27.88,0,0,0,262.3,365.2Z"/><path d="M171.8,308.43c.64-.79.64-.79,1.69-.07a8.87,8.87,0,0,1-3.83,1.79c-.61.2-1.44-.26-2.35-.47a3.82,3.82,0,0,1-3.59,2.22c-.41,0-.87.38-1.24.66-.85.64-1.65,1.32-2.44,2-.33,1.43,1.2,1.55,1.78,2.55-1.16.17-2.17.28-3.16.47a24.76,24.76,0,0,0-3.09.72,5.65,5.65,0,0,1-5-.55l.54.17-.52-.18a1.72,1.72,0,0,1-1.33,1.38c-1.59.37-3.18.74-4.78,1.08-.14,0-.33-.14-.68-.3.21-.31.34-.73.61-.85a7,7,0,0,1,2.44-.82,7.81,7.81,0,0,0,4.66-2,8.24,8.24,0,0,1,5.14-2.18c-.54-1.22-1.18-2-2.35-1.9s-2.23-.11-3.4.33a13.29,13.29,0,0,1-4.48.52,4.47,4.47,0,0,1,2.79-1.15c1.5-.29,3.05-.35,4.56-.62a9.85,9.85,0,0,0,5-2.19c.67.06,1.33.08,2,.2,2.6.46,4.92-.67,7.31-1.3,1.4-.37,2.63-.5,3.78.49a3.59,3.59,0,0,0-.52-.13c-.08,0-.17.11-.26.17a1.19,1.19,0,0,1,.26,0Z"/><path d="M247.36,227.59c-.35-.49-.29-.92.14-1a17.58,17.58,0,0,1,3.15-.29c2.7,0,5.39.08,8-.88.72-.27,1.47-.48,2.21-.71a8.23,8.23,0,0,1,5.41.14,35.24,35.24,0,0,0,6.59,2.09c1.78.25,3.44,1.25,5.3.92,3.71.88,7.64,1.06,10.93,3.33-.22.67-.52.32-.83.2a4.18,4.18,0,0,0-1.39-.38c-2.8,0-5.5-.81-8.29-.93a8.57,8.57,0,0,1-2.51-.59c-2.69-1-5.53-.74-8.3-1.08a40.15,40.15,0,0,0-4.9.07,20.48,20.48,0,0,1-2.6-.1c-1.14-.14-2.18-.67-3.41-.54a12.86,12.86,0,0,1-3.37-.3,2.15,2.15,0,0,0-1.65.12,1,1,0,0,1-.82,0c-.59-.27-1.05-.89-1.82-.67Z"/><path d="M285.58,416.88c1.65-.88,3.18-1.65,4.67-2.48s2.84-2,4.6-2.38a2.52,2.52,0,0,0,1-.53c1.3-1.06,2.64-.93,4.18-.2a2.83,2.83,0,0,1-.84,2.24c-.5.45-.9,1-1.4,1.45q-2.61,2.28-5.25,4.52a8.89,8.89,0,0,1-1.45,1c-1.82,1-3.39.65-4.41-1.13A24.72,24.72,0,0,1,285.58,416.88Z"/><path d="M59.83,287.12a9.88,9.88,0,0,1,2-.27c1.43.14,2.85.36,4.25.62a4.67,4.67,0,0,0,2.84,0c.41-.17,1.05.35,1.57.31,4.22-.33,8.43.67,12.67,0a31,31,0,0,1,5.77.07l2.6.08a3.13,3.13,0,0,1,2.24.85c-.15.83-.72.77-1.15.79-5,.2-10,.47-15,.52-2.69,0-5.39-.34-8.09-.52a19.32,19.32,0,0,0-2-.1A11.89,11.89,0,0,1,59.83,287.12Z"/><path d="M29.23,286.33c-1.72,0-3.44,0-5.16,0a2.17,2.17,0,0,1-1.09-.18,2,2,0,0,0-1.64-.18,34.13,34.13,0,0,1-3.63.53,1.47,1.47,0,0,1-1.41-1.75c.12-.32.53-.74.81-.73,2.86,0,5.66-1.16,8.56-.51a2.32,2.32,0,0,0,1.14-.06c2.57-.81,5.17-.27,7.76-.26a3.12,3.12,0,0,1,1.11.27,1.92,1.92,0,0,1,1,1.66,1.82,1.82,0,0,1-1.34,1.35,4.91,4.91,0,0,1-.86.06h-5.2Z"/><path d="M72.66,318.9a.91.91,0,0,1-.62,1.25c-3.6,1.07-7.21,2.09-10.8,3.17a9.56,9.56,0,0,0-1.8.92,5.51,5.51,0,0,1-3.14.87c-.86-.7-1.61-1.27-2.31-1.9a1.63,1.63,0,0,1,.46-2.65,6.26,6.26,0,0,1,2.25-.44c3.37.14,6.73-.28,10.09-.31a28.28,28.28,0,0,0,4.83-.9A6,6,0,0,1,72.66,318.9Z"/><path d="M309,312.37c.7.32.85.95,1.74,1,2.64.17,5.14-.5,7.7-.84a2.29,2.29,0,0,1,.69.14c-.07.21-.08.38-.13.39-1,.16-1.9.28-2.85.45-3.15.53-6.3.91-9.49,1.14-2.6.18-5.17.71-7.75,1.1-.48.07-.95.2-1.43.26-5.57.66-11.13,1.33-16.7,2-1.41.16-2.86.34-4.16-.52.14-.67.62-.42.92-.45a30.93,30.93,0,0,0,6.55-1,8.66,8.66,0,0,1,4-.29c.37.06.78,0,1.15,0,1.33.28,2.26-1.18,3.56-.82s2.46-.17,3.66-.49a3.79,3.79,0,0,1,1.37-.27,24.18,24.18,0,0,0,4.58.06C305.86,314.09,306.34,314.1,309,312.37Z"/><path d="M691.75,211.21c-.14-.7-.25-1.25-.38-1.84.75-.45,1.63-.69,2-1.26s.41-1.52,1.45-1.86c.64-.2,1.08-1,1.6-1.52a15.69,15.69,0,0,1,3.74,6.8c-.45.76-1.18.75-2,.62Z"/><path d="M348.48,309.61c-1.55.49-3.2.42-4.73,1.14-.76.37-1.86,0-2.8.05a46.75,46.75,0,0,0-6,.72,29.72,29.72,0,0,1-4,.48c-2.51.2-5,.45-7.52.65-.67.05-1.35,0-2,0-.23-.59.32-.7.6-.73,1.05-.09,2.13,0,3-.84a.6.6,0,0,1,.51-.05c1.69.65,3.38.18,5,0,1.18-.14,2.23-1,3.51-.74.67-.73,1.35.26,2.14,0,1.22-.49,2.66-.16,3.91-.75a1.9,1.9,0,0,1,.86-.12,32.79,32.79,0,0,0,3.7.22A33.37,33.37,0,0,0,348,309c.11,0,.3.43.45.66Z"/><path d="M119.56,281.18l-2.71-1.84a16.28,16.28,0,0,0,1.62-.81c.4-.25.68-.89,1-.92,2.07-.18,4-1.34,6.21-.54l.72,1.46h3.83c-1.21,1.52-2.64,1.62-4.08,1.67a22.19,22.19,0,0,0-2.58,0C122.31,280.43,121,280.82,119.56,281.18Z"/><path d="M493.79,271.39a24.17,24.17,0,0,1-2.33-.84q-3.52-1.67-7-3.43a1,1,0,0,1-.34-1,1.86,1.86,0,0,1,2.64-1,13.14,13.14,0,0,0,4.28,1.64,4,4,0,0,1,3.13,3.94C494.2,270.93,494,271.09,493.79,271.39Z"/><path d="M17.41,265.9l-1-1.2c-.49.76-.86,1.6-1.78,1.76a1.22,1.22,0,0,1-1-.33.82.82,0,0,1,.26-1.24c.58-.33,1.27-.82,1.83-.73,1.51.21,3-.77,4.51.13.32.19.93,0,1.38-.12a24.22,24.22,0,0,1,6.58-.49c.24,0,.48.26.7.42.06,0,.05.17.08.26C27,265.57,23,266.12,17.41,265.9Z"/><path d="M340,244.33a3.64,3.64,0,0,1-1.22-3c.06-1-.23-2.09-.26-3.13a1.82,1.82,0,0,1,.41-1.29,1.67,1.67,0,0,1,1.34-.07,6.37,6.37,0,0,1,1.75,1,1.88,1.88,0,0,1,.92,2C342.32,241.42,342,243.31,340,244.33Z"/><path d="M468.54,305.12l.95-3.17a2,2,0,0,1,2.51,0,4.93,4.93,0,0,1,2.3,2.46,1.82,1.82,0,0,1-2.08,2.5,3.65,3.65,0,0,1-1.09-.34C470.3,306.13,469.49,305.65,468.54,305.12Z"/><path d="M236.73,265.66h4.41l1.4-1.11c.3,0,.51-.12.67-.06a12.42,12.42,0,0,0,5.38.54c.23,0,.69.2.69.33a1.37,1.37,0,0,1-.27,1,3.69,3.69,0,0,1-3,.83,4.49,4.49,0,0,0-.73-1,.79.79,0,0,0-.76.17c-.75,1.31-1.88,1.08-3,.76-.45-.13-.84-.48-1.29-.64a2.19,2.19,0,0,0-2.21.07C237.22,267.15,237.08,266.18,236.73,265.66Z"/><path d="M465.43,244.5a13.41,13.41,0,0,0,2,.06c1.26-.14,2.47-.32,3.54.69.26.25.91.1,1.37.16.75.08.75.09,1.69,1.38-.22.16-.44.46-.66.46a43,43,0,0,1-8.44-.31c-.68-1.19.24-1.76.58-2.5Z"/><path d="M318.79,397.29a9.67,9.67,0,0,1-3.12,3.66,2.06,2.06,0,0,1-1.93.3,1.21,1.21,0,0,1-.93-1.55,13.18,13.18,0,0,1,1.15-2.32,1.45,1.45,0,0,1,.92-.63A5.4,5.4,0,0,1,318.79,397.29Z"/><path d="M447.37,277.34a18.49,18.49,0,0,1-2.54-.48,1.45,1.45,0,0,1-.88-1,1.6,1.6,0,0,1,.59-1.19,3.59,3.59,0,0,1,4.48-.27c.73.61,1,1.19.79,1.95s-1,.83-1.62.92Z"/><path d="M16.18,403.83a1.9,1.9,0,0,1,2.08,1.26c.41,1.05,1.37,1.21,2.2,1.63v1.4a4.19,4.19,0,0,0-2.67,2c-.54,0-.47-.42-.56-.79-.2-.83-.45-1.65-.71-2.46C16.2,405.89,15.61,404.94,16.18,403.83Z"/><path d="M57.56,395c-.62-.95-.63-1.28,0-1.54a6.13,6.13,0,0,1,1.36-.43c2-.31,4-.64,6-.84a17.41,17.41,0,0,1,3,.27,14.9,14.9,0,0,1-7.3,1.59A3.74,3.74,0,0,0,57.56,395Z"/><path d="M8.69,402.51c1.05-.67,1.9-1.24,2.78-1.76a2.67,2.67,0,0,1,2.5,0,.93.93,0,0,1,.22,1.47A12.45,12.45,0,0,1,11.27,404C10.19,404.38,9.2,403.87,8.69,402.51Z"/><path d="M461.7,494.53a3,3,0,0,1,.91-3.18,1.33,1.33,0,0,1,1.61-.22,1.59,1.59,0,0,1,.9,1.39c0,.6,0,1.22-.63,1.51A4.06,4.06,0,0,1,461.7,494.53Z"/><path d="M9.53,286l-.68-1.37c.17-.38,1.86-.6,3.44-.52,2.08.11,2.35.26,2.75,1.55-1.49,1.14-2.85.41-4.13-.37Z"/><path d="M476.74,247l2.74-2.13a1.74,1.74,0,0,1,1.57,1.24,1.56,1.56,0,0,1-.19,1.64,1.28,1.28,0,0,1-1.57.29Z"/><path d="M66.06,397.33c-2,.36-4,1.06-6.09.57C61.59,396.45,63.14,396.24,66.06,397.33Z"/><path d="M142.17,277.2a2,2,0,0,1,.38-1.88c1.61.26,3.16.75,4.64-.46.39-.32,1.25-.05,1.84-.05.24.78,0,1.1-.6,1.09-.28,0-.62-.27-.83-.18a13,13,0,0,1-5,1.08c-.13,0-.27.25-.4.39Z"/><path d="M270.57,319,269,317.86c.28-.32.43-.65.64-.7a8.07,8.07,0,0,1,1.7-.21c.76,0,1.51.05,2.27.06.59,0,1.2.47,1,.71s-.66.5-.91.43C272.47,317.8,271.71,318.83,270.57,319Z"/><path d="M136.33,356.71a63.65,63.65,0,0,1-9.26,1.68c2.08-1.38,6.56-2.1,9.27-1.67Z"/><path d="M837.65,233.84a11.08,11.08,0,0,1,3.08,3.69.82.82,0,0,1-1.34.08A7.33,7.33,0,0,1,837.65,233.84Z"/><path d="M267.05,318.06a6.11,6.11,0,0,1-4.44.89c-.34-.63-.15-1.23.38-1.12a4.8,4.8,0,0,0,2.5-.19C265.77,317.56,266.14,317.8,267.05,318.06Z"/><path d="M148.59,294.5l-1.35-1.63c.11-.24.13-.37.2-.41,1.38-.76,2.32-.81,2.76-.1a1.23,1.23,0,0,1,.09.81c-.19.91-1.07,1-1.71,1.33Z"/><path d="M5.57,267.1c.09-.39.07-.69.17-.74.83-.41,1.63-1.09,2.64-.65a1.31,1.31,0,0,1,.59.84c0,.17-.22.56-.42.64a6.24,6.24,0,0,1-1.91.48C6.27,267.68,5.89,267.28,5.57,267.1Z"/><path d="M103.81,409.72l-5.1.64-.13-.3c.32-.17.62-.46,1-.48,1.41-.13,2.83-.18,4.25-.25,0,0,.16.11.15.16A.56.56,0,0,1,103.81,409.72Z"/><path d="M142.18,277.19l-5.46.41a2.11,2.11,0,0,1,1.65-.89,9.68,9.68,0,0,0,1.78-.63l2,1.12Z"/><path d="M125,358.44c-1.4.49-2.77,1.18-4.76.8C122.07,358.25,123.6,358.54,125,358.44Z"/><path d="M344.38,206a10.08,10.08,0,0,1-.27-1.35.85.85,0,0,1,.82-.95c.24,0,.66,0,.75.17a1.62,1.62,0,0,1,.2,1C345.76,205.61,345.2,205.92,344.38,206Z"/><path d="M259.63,317.08a1.57,1.57,0,0,1-.33,2.22,1,1,0,0,1-1.05-1.13C258.26,317.37,258.75,317,259.63,317.08Z"/><path d="M257.74,264a5.87,5.87,0,0,1,.94.92c.45.74.15,1.22-.77,1.25a3.61,3.61,0,0,1-1-.31Z"/><path d="M92.05,427.88c.17-.76.14-1.13.29-1.24a2.25,2.25,0,0,1,2.2-.08C94.28,427.92,93.2,427.5,92.05,427.88Z"/><path d="M39.85,284.8a2.64,2.64,0,0,1-.84,0,.65.65,0,0,1-.17-1.22,2,2,0,0,1,2.14.07l.09,0-1.26,1.26Z"/><path d="M51.47,339.45a10,10,0,0,0-1.56-.48c-.42-.07-.88,0-1.32,0C50.84,338.31,50.84,338.31,51.47,339.45Z"/><path d="M41,283.66l2.15,1.73c-1.05-.28-2.27.4-3.28-.59l0,.08a1.55,1.55,0,0,0,1.26-1.26Z"/><path d="M154.93,292.75l-3,.73-.06-.22a12.47,12.47,0,0,1,1.43-.36C153.81,292.84,153.85,291.61,154.93,292.75Z"/><path d="M89.93,427.9c-.31-.33-.58-.49-.64-.7-.1-.37.49-.83.93-.69.17.05.41.44.36.57A3.92,3.92,0,0,1,89.93,427.9Z"/><path d="M315.54,236.48c.37.44.71.67.77,1s-.25.68-.69.69-.84-.11-.76-.6C314.9,237.22,315.22,237,315.54,236.48Z"/><path d="M253.6,265.24a4.18,4.18,0,0,1,1.31-.58.78.78,0,0,1,.63,1.06c-.27.43-.64.29-1,.08Z"/><path d="M252.74,266.57l-2.35.1C251.05,265.54,251.05,265.54,252.74,266.57Z"/><path d="M512.23,228.16c-.19.72-.58.94-1.09.84-.21,0-.52-.32-.52-.5a.82.82,0,0,1,.88-.85C511.77,227.66,512,228,512.23,228.16Z"/><path d="M135.48,276.42a5.51,5.51,0,0,1-.53.48,3.07,3.07,0,0,1-.48.24c-.41-.33-1.05-.64-.41-1.24S135.07,275.71,135.48,276.42Z"/><path d="M132.65,276.84a4.08,4.08,0,0,1-2.83.34c1.22-.9,1.22-.9,2.85-.33Z"/><path d="M222.13,266.36c-1,.45-1.45.66-1.87.79-.12,0-.3-.14-.45-.22.12-.19.22-.51.37-.54A13,13,0,0,1,222.13,266.36Z"/><path d="M107.65,408.93l2.09-.12C109.22,409.25,108.79,410.21,107.65,408.93Z"/><path d="M434.83,230.15c-.67.53-1.3,1.23-2.28.66a.53.53,0,0,1-.23-.45.52.52,0,0,1,.32-.37c.74,0,1.4.73,2.19.17Z"/><path d="M113.44,360.23a4.18,4.18,0,0,1-.51,1c-.49.48-1,.38-1.42-.37.58-.45,1.33-.34,2-.56Z"/><path d="M167.05,198c0,.56-.24.92-.83.93-.43,0-.64-.27-1-1.1.68-.45,1.28-.11,1.88.21Z"/><path d="M163.38,198.38a.8.8,0,0,1-1.24,0,.4.4,0,0,1,0-.27,5.32,5.32,0,0,1,1.05-.15C163.25,197.92,163.32,198.22,163.38,198.38Z"/><path d="M351.09,377.56c.21-.28.29-.49.42-.55.35-.14.71.36.66,1,0,.15-.18.29-.27.43Z"/><path d="M307.47,235.14c-.17.07-.38.23-.51.19a5.54,5.54,0,0,1-.89-.49c.11-.13.26-.38.34-.36a4.63,4.63,0,0,1,1,.39C307.46,234.89,307.45,235,307.47,235.14Z"/><path d="M111.94,408.8c.89-1.09.89-1.09,1.9-.47C113.33,409.08,112.7,408.68,111.94,408.8Z"/><path d="M262.49,265.43a3.16,3.16,0,0,1-1,.09c-.19,0-.31-.36-.47-.55a2,2,0,0,1,.68-.28,3,3,0,0,1,.76.26Z"/><path d="M13.06,398.27a5.63,5.63,0,0,1,.6-.75c.07-.07.31.05.46.1s0,.21,0,.25c-.25.23-.52.43-.78.65Z"/><path d="M151.46,353.31l-1.21-.5.06-.27,1.33.19Z"/><path d="M87.27,427.28H85.45V427h1.82Z"/><path d="M143.82,355.23l-2.38.57-.07-.38,2.54-.2Z"/><path d="M160.69,198.72c-.32.22-.64.51-.7.47a1.91,1.91,0,0,1-.61-.78c0-.11.34-.37.52-.56Z"/><path d="M465.51,244.44a7.74,7.74,0,0,1-1.34.15c-.13,0-.25-.37-.37-.58.22-.13.53-.42.63-.36a8,8,0,0,1,1,.86Z"/><path d="M547.74,243.77a2,2,0,0,1,.06-.5c.14-.32.17-.77.71-.66.08,0,.21.15.2.17a9.42,9.42,0,0,1-.49.88C548.19,243.71,548.05,243.7,547.74,243.77Z"/><path d="M230.15,267.21l-.56-.53c.21-.1.46-.34.6-.29s.34.37.51.56Z"/><path d="M91.31,410.85c-.25,0-.5.07-.75.08a1.93,1.93,0,0,1-.08-.33c.25,0,.5,0,.76,0C91.26,410.59,91.28,410.72,91.31,410.85Z"/><path d="M95.2,410.19a6.06,6.06,0,0,1,1-.33c.15,0,.32.12.48.19-.18.13-.35.34-.55.37A3,3,0,0,1,95.2,410.19Z"/><path d="M148.58,294.5l-2.37.18c.88-.86,1.63-.3,2.37-.18Z"/><path d="M144.07,293.8c-.1.59-.46.6-.84.44-.12-.05-.17-.28-.24-.42s.16-.13.24-.13C143.51,293.71,143.79,293.76,144.07,293.8Z"/><path d="M117.3,407.49c-.11.26-.18.55-.23.55a3.9,3.9,0,0,1-.75-.18c.07-.16.13-.45.23-.47A2.28,2.28,0,0,1,117.3,407.49Z"/><path d="M27.17,371.84a4.32,4.32,0,0,1,.78-.16,2.19,2.19,0,0,1,.49.12c-.13.08-.25.21-.38.21A4.16,4.16,0,0,1,27.17,371.84Z"/><path d="M472.15,325.53l.61.3a3.2,3.2,0,0,1-.53.57c-.07,0-.3-.17-.46-.26Z"/><path d="M116.57,360.25c.4-.68.84-1.28,1.86-.58l-1.9.56Z"/><path d="M320.6,239.28l-.23-.13.29-.41.35.26C320.88,239.1,320.74,239.19,320.6,239.28Z"/><path d="M52.53,394.37l.38.47c-.22.1-.44.21-.66.29,0,0-.19-.16-.18-.17A7.34,7.34,0,0,1,52.53,394.37Z"/><path d="M473.41,242.72a6.9,6.9,0,0,1-.76.62.61.61,0,0,1-.35-.29c-.12-.46.16-.7.57-.74C473,242.3,473.13,242.5,473.41,242.72Z"/><path d="M693.21,233.43l-.34.54a2.34,2.34,0,0,1-.51-.48c0-.07.21-.42.24-.41A3.42,3.42,0,0,1,693.21,233.43Z"/><path d="M69.65,397.16l-.71.31c-.06-.14-.19-.35-.15-.41a.73.73,0,0,1,.45-.23C69.35,396.83,69.47,397,69.65,397.16Z"/><path d="M6.85,263.94c-.3,1-.3,1-1.34.28l1.34-.28Z"/><path d="M215.33,266.76l.56.5-.52.49-.53-.61Z"/><path d="M6.43,402.58l.23.11c-.09.12-.16.25-.26.36a1.76,1.76,0,0,1-.21-.13Z"/><path d="M4.08,403.34c0-.16-.17-.35-.12-.46s.27-.14.41-.21c.06.15.19.35.14.45S4.23,403.27,4.08,403.34Z"/><path d="M27.23,396.66l.81.15c0,.06-.09.18-.13.18l-.72-.05Z"/><path d="M295.07,232.19c-.08.15-.13.38-.26.43s-.29-.09-.45-.15c.07-.15.11-.39.22-.42S294.9,232.14,295.07,232.19Z"/><path d="M164.28,233.73a2.71,2.71,0,0,1-.63.24c-.05,0-.24-.35-.21-.39a3.11,3.11,0,0,1,.55-.37Z"/><path d="M326.37,240.14l-.42,0a1.9,1.9,0,0,1,0-.41s.2-.06.21,0A1.78,1.78,0,0,1,326.37,240.14Z"/><path d="M8.83,398l1.28.54c-.87.2-.87.2-1.26-.54Z"/><path d="M373.6,245.87l.4-.19a.75.75,0,0,1,.07.22l-.4.19Z"/><path d="M116.53,360.23h-3.08l0,0a5.18,5.18,0,0,1,3.07,0Z"/><path d="M167.12,198c.49-.05.89-.71,1.67,0h-1.73Z"/><path d="M97.22,426.71c-.18.17-.37.47-.54.46s-.36-.29-.55-.46a2.57,2.57,0,0,1,.68-.22c.15,0,.32.14.48.22Z"/><path d="M6.85,263.94l1.55.36c-.7.21-.7.21-1.55-.36Z"/><path d="M191.25,268.8c0-.07,0-.2.06-.2a.32.32,0,0,1,.23,0s0,.18,0,.18A1.15,1.15,0,0,1,191.25,268.8Z"/><path d="M11.55,265.51l.45.25c-.08.14-.15.39-.25.4s-.32-.13-.47-.21Z"/><path d="M64.86,394.87l.31.27a2.49,2.49,0,0,1-.43.22s-.14-.09-.21-.14Z"/><path d="M55.16,393.59l0-.26.25.26Z"/><path d="M34.5,371.23c-.07,0-.14.11-.21.11s-.14-.07-.21-.11.14-.11.21-.11S34.43,371.19,34.5,371.23Z"/><polygon points="264.79 365.28 264.73 365.47 264.54 365.35 264.79 365.28"/><path d="M8.85,398l-1,.16v-.11l1-.05Z"/><path d="M290.29,231.3l.08-.25c.07.06.17.11.19.18s-.05.15-.07.23Z"/><polygon points="136.12 404.97 136.33 404.94 136.29 405.06 136.12 404.97"/><path d="M123.37,407.06l-.1.22L123,407c.07,0,.14-.11.22-.11S123.32,407,123.37,407.06Z"/><path d="M688.79,224c.14.07.37.11.4.22s-.08.31-.12.46c-.14-.07-.36-.12-.4-.23S688.74,224.11,688.79,224Z"/><path d="M80.91,427.9l-.39-.28c.14-.09.28-.25.42-.25s.26.18.39.27Z"/><path d="M331.71,200.07l-.25.11c0-.08-.08-.19,0-.24s.16-.09.24-.13Z"/><path d="M345.44,243.78l.11.18c-.06,0-.14,0-.2,0s-.09-.11-.13-.17Z"/><path d="M74.42,257.17l.22-.09,0,.37c-.07,0-.17,0-.2-.05S74.43,257.25,74.42,257.17Z"/><polygon points="48.93 335.16 48.83 335.11 48.89 334.97 48.93 335.16"/><path d="M217.69,244.74l-.12.24-.31-.3c.08,0,.16-.11.24-.11S217.63,244.68,217.69,244.74Z"/><path d="M121.36,286.54c.07,0,.17,0,.21.09s0,.14,0,.22l-.37-.14Z"/><path d="M368.49,245.36l.24.14c-.05.06-.13.18-.15.17a2.12,2.12,0,0,1-.35-.23Z"/><path d="M116.87,287.26l.35.22-.29.38c-.06-.06-.19-.12-.18-.16A1.69,1.69,0,0,1,116.87,287.26Z"/><path d="M132.67,276.85c0,.27,0,.53,0,.8l0,.27c-.07-.09-.2-.18-.19-.27a5.66,5.66,0,0,1,.12-.81Z"/><path d="M227.17,266.23l-.27-.32a1.22,1.22,0,0,1,.24-.1,1.14,1.14,0,0,1,.25.06C227.32,266,227.25,266.11,227.17,266.23Z"/><path d="M153.49,274.59c0,.06-.08.17-.11.16a3.55,3.55,0,0,1-.47-.09c0-.07.08-.18.11-.18A4,4,0,0,1,153.49,274.59Z"/><path d="M348.47,309.61l1-.35.06.21-1,.14Z"/><path d="M304.45,234.53l.24-.05,0,.36c-.08,0-.18,0-.23-.09S304.46,234.61,304.45,234.53Z"/><path d="M99.11,362.65h-.42a1.14,1.14,0,0,1,0-.19h.42Z"/><path d="M109.3,361.65l-.2-.17.33-.19c0,.08.08.17.06.23S109.37,361.61,109.3,361.65Z"/><path d="M232.38,266.38l.36.28a2.85,2.85,0,0,1-.45.25s-.2-.15-.2-.16S232.28,266.5,232.38,266.38Z"/><path d="M209.2,267l.13.18-.39.27c0-.07-.13-.2-.11-.21A3.37,3.37,0,0,1,209.2,267Z"/><path d="M211.25,267.33c0,.08.07.17.05.23s-.12.09-.18.14l-.1-.35Z"/><path d="M354.6,308.38l-.09.23-.27-.27.19-.16Z"/><path d="M550,248.64l-.17.15c0-.08-.13-.2-.1-.25a.81.81,0,0,1,.27-.19Z"/><path d="M455.79,304.31c-.08,0-.19.08-.24.05a.27.27,0,0,1-.07-.22s.18-.09.21-.07A.87.87,0,0,1,455.79,304.31Z"/><polygon points="4.17 304.24 3.95 304.23 4.06 303.99 4.17 304.24"/><path d="M1.09,249.14c-.06,0-.13.09-.18.08s-.1-.08-.15-.13Z"/><polygon points="46.78 285.72 47.02 285.67 46.98 285.86 46.78 285.72"/><path d="M97.29,426.71l.26.11-.33-.11Z"/><polygon points="127.26 277.53 127.06 277.6 127.09 277.42 127.26 277.53"/><path d="M7.92,250.23c-.07,0-.14.1-.2.1s-.12-.08-.18-.12.13-.1.2-.1S7.86,250.19,7.92,250.23Z"/><polygon points="43.33 338.61 43.33 338.75 43.15 338.68 43.33 338.61"/><path d="M56,395.84l-.13.18c0-.06-.1-.13-.1-.19s.08-.11.12-.17Z"/><polygon points="42.09 395.74 41.94 395.64 42.12 395.6 42.09 395.74"/><path d="M147.06,353l.17.19a2.35,2.35,0,0,1-.43.19s-.11-.12-.16-.18Z"/><path d="M143.6,353.75l-.08.17-.15-.24Z"/><path d="M143.91,355.22c.06,0,.13.11.2.11s.1-.09.16-.14l-.44,0Z"/><path d="M310.2,235.67a1.93,1.93,0,0,1-.46.16c-.05,0-.12-.12-.18-.19a4.43,4.43,0,0,1,.47-.17S310.14,235.6,310.2,235.67Z"/><polygon points="302.22 234.03 302.22 233.87 302.42 233.95 302.22 234.03"/><path d="M251.92,371.31c-.07,0-.14.1-.2.1s-.11-.09-.17-.14Z"/><path d="M157.12,198.61c0,.07.1.13.1.2s-.08.11-.12.16-.1-.12-.1-.18S157.08,198.67,157.12,198.61Z"/><polygon points="548.24 245.96 548.12 246.15 548.07 245.93 548.24 245.96"/><path d="M105.8,409.15c-.08,0-.15.11-.22.1s-.12-.08-.18-.13Z"/><path d="M667,215.93a2.59,2.59,0,0,1-.45.14s-.11-.12-.17-.18a3.53,3.53,0,0,1,.46-.15S666.9,215.87,667,215.93Z"/><path d="M120.49,407.25c0,.07,0,.17,0,.19s-.16,0-.24.05l.05-.32Z"/><polygon points="245.37 226.46 245.2 226.37 245.39 226.31 245.37 226.46"/><path d="M141.9,319.92l.21-.43-.28.37Z"/><polygon points="139.16 320.06 139.33 320.01 139.31 320.15 139.16 320.06"/><path d="M141.83,319.86c-.15.07-.31.15-.47.21s-.1-.08-.16-.12l.69,0Z"/><path d="M732.28,597.56c-.15.36-.19.64-.3.67-.44.14-.7-.15-.81-.54a.71.71,0,0,1,.21-.46A8.16,8.16,0,0,1,732.28,597.56Z"/><path d="M947.09,651a1.54,1.54,0,0,1,.23,2.26,11,11,0,0,0-.71,1.83c-1.63-.29-2.35-1-2.26-2.35a1.26,1.26,0,0,1,.54-.93A19.43,19.43,0,0,1,947.09,651Z"/><path d="M1173,518.41c1.06,2.36-.53,3.45-1.59,4.71a3.22,3.22,0,0,1-1.2.79,11.76,11.76,0,0,0-3.35,2.15,7,7,0,0,1-2.87,1.24,1.61,1.61,0,0,1-2-1.16,1.79,1.79,0,0,1,.57-2.3q3.63-2.62,7.31-5.18C1170.84,518,1171.91,518.49,1173,518.41Z"/><path d="M1155.83,529.92a2.11,2.11,0,0,1,1.35,1.6,1.94,1.94,0,0,1-.42,1.24.76.76,0,0,1-.72,0,2.45,2.45,0,0,1-.66-2.55C1155.43,530.1,1155.66,530,1155.83,529.92Z"/><path d="M1146.36,535.8l-.36.4-.34-.56c.16-.08.33-.25.46-.22S1146.3,535.69,1146.36,535.8Z"/><path d="M656.64,589.29a9.44,9.44,0,0,1-.65,1.48,3.73,3.73,0,0,1-2.67,1.49.87.87,0,0,1-.75-.3,1.3,1.3,0,0,1,0-1,5.43,5.43,0,0,1,2.91-2.2C655.7,588.63,656.17,589.06,656.64,589.29Z"/><rect class="cls-2" width="1366" height="768"/></svg>