<svg id="Layer_1" data-name="Layer 1" xmlns="http://www.w3.org/2000/svg" viewBox="0 0 1366 770.94"><defs><style>.cls-1{fill:#d50056;}</style></defs><title>5</title><rect class="cls-1" y="2.94" width="1366" height="768"/><g id="FECDNE"><path d="M595.24-1.13a10.83,10.83,0,0,1-3.06-.25,4.12,4.12,0,0,0-2.12-.28,1.78,1.78,0,0,0-.41.17.64.64,0,0,1-.54,0,2.24,2.24,0,0,0-2.33-.06,1.68,1.68,0,0,1-.92.07c-1.8-.25-3.6.13-5.41,0-1.5-.13-3,0-4.53,0-2.06,0-4.13-.07-6.19.05a40.56,40.56,0,0,1-7.31-.08,20.33,20.33,0,0,0-3.74-.08,17.67,17.67,0,0,1-3-.09,35.4,35.4,0,0,0-6.75,0c-.31,0-.62.07-.93.08-1.44,0-2.87.15-4.31.13a25.39,25.39,0,0,0-3.9,0,.29.29,0,0,1-.18-.05,3.42,3.42,0,0,0-2.21-.13,5.32,5.32,0,0,1-1.49,0c-2.12-.32-4.25.15-6.36-.2-1.32.53-2.75,0-4.09.46a1.63,1.63,0,0,1-.73,0,19.83,19.83,0,0,0-3.93-.27,40.34,40.34,0,0,0-4.12-.05,31.51,31.51,0,0,1-4.12,0,3.73,3.73,0,0,1-.75-.05,3.52,3.52,0,0,0-1.85.05,1.78,1.78,0,0,1-.93.1,12.12,12.12,0,0,0-3.35.05c-2,0-4-.07-6,.07s-3.88-.32-5.79.2a4.86,4.86,0,0,0-2.75.16,2.14,2.14,0,0,1-.75-.05c-.75-.06-1.49-.17-2.24-.18-1.06,0-2.13.11-3.19,0a14.12,14.12,0,0,0-2.6,0,47.24,47.24,0,0,1-5.05.1,13.58,13.58,0,0,1-3.87-.12c-.43-.13-1,.25-1.47.19a41,41,0,0,0-6.17,0c-3.13.13-6.26.22-9.39.32-1.25,0-2.51,0-3.76.08-.62,0-1.25.07-1.88.11-1.74.13-3.48.29-5.23.39s-3.37-.24-5,.16a2.66,2.66,0,0,1-1.12-.06,18.08,18.08,0,0,0-4.87-.15,47.15,47.15,0,0,1-6.17.32,5.29,5.29,0,0,0-1.32,0,9.29,9.29,0,0,1-3.15-.18c-1.09-.17-2.24.11-3.34,0a16.61,16.61,0,0,0-3,0,4.72,4.72,0,0,1-1.3,0,8.29,8.29,0,0,0-3,.05c-.43,0-.86.12-1.3.13l-8.64.14-1.88,0c-1.62,0-3.25.1-4.87.08A39.83,39.83,0,0,1,390.78,0a12.72,12.72,0,0,0-4.08-.12,4.87,4.87,0,0,1-1.86,0,8.46,8.46,0,0,0-2.61,0C381.1,0,380,0,378.84,0a7.18,7.18,0,0,0-1.31,0c-2.55.5-5.13.12-7.69.23-3.63.16-7.26.09-10.89.18a8.62,8.62,0,0,0-3.1.49,6.73,6.73,0,0,1-2.73.47c-1.94,0-3.89,0-5.83,0-3.26.06-6.51.2-9.77.22s-6.25-.06-9.38,0c-2.43.09-4.87.2-7.31.12-3.06-.1-6.12.05-9.18-.25a5.86,5.86,0,0,0-.93.05c-.49,0-1,.07-1.48.07-2,0-4-.07-6-.06-2.74,0-5.49.12-8.23.07-.63,0-1.24.12-1.85.09s-1.36.05-2,.05c-1.23,0-2.46-.15-3.7,0a.61.61,0,0,1-.18-.05,14.78,14.78,0,0,0-2.15-.56c-.79-.1-1.62.06-2.41,0s-1.65-.58-2.57-.32a4.18,4.18,0,0,1-1.12,0c-2.43,0-4.86-.08-7.29,0-2,.06-4-.37-6,.11a1,1,0,0,1-.37,0c-1-.16-2-.3-3-.51a2.9,2.9,0,0,0-2,.27c-.49.26-.72.66-.53,1.12,1.15.7,2.21,1.33,3.25,2a1.89,1.89,0,0,1,.59.72A5.07,5.07,0,0,1,264.57,7a5.11,5.11,0,0,0,.77,2.29c.22.51.51,1,.77,1.49.95,1.74,1.12,3.72,1.63,5.58.34,1.2.44,2.46.71,3.68.35,1.58.79,3.15,1.15,4.73.14.59.08,1.23.23,1.82a20.09,20.09,0,0,1,.69,4.63c0,1.14-.23,2.24-.25,3.35a34,34,0,0,1-1,7.24,3.31,3.31,0,0,0-.19,1.1c.24,2-.62,4-.47,6a1.9,1.9,0,0,1-.17.73,6.14,6.14,0,0,0-.41,3.31,2.12,2.12,0,0,1,0,.75c-.65,4,.48,7.72,1.39,11.48a31,31,0,0,1,.74,3.67,7.55,7.55,0,0,0,.41,2c.61,1.46.52,3.07,1,4.55a2.42,2.42,0,0,0,.71,2.33c-.25,1.06-.44,2-.71,3a24.43,24.43,0,0,0-1,8.92c.29,3.12.3,6.25.67,9.38.39,3.35.5,6.74.76,10.12.07.87.28,1.73.37,2.6a10.74,10.74,0,0,1-.11,2c-.07.6.42,1.27.66,1.9a.63.63,0,0,1,0,.19c.11,1.18.23,2.36.3,3.54s.11,2.38.14,3.56,0,2.6.05,3.9a2.15,2.15,0,0,1-.11.55,16.9,16.9,0,0,1-1.23,3.74,13.5,13.5,0,0,0-1.1,2.79,11.07,11.07,0,0,0-.73,4.6,37.05,37.05,0,0,1,.26,3.94c.07,2.07,0,4.15.17,6.2s.27,4.38.48,6.56c.06.68.23,1.36.27,2,.15,2.63.26,5.25.38,7.88.15,3.38.31,6.76.46,10.14.1,2.19.15,4.38.3,6.57.16,2.38.46,4.74.62,7.12.19,2.87.31,5.75.42,8.63a5.46,5.46,0,0,1-.45,2.9c-.65,1.14-1,2.46-1.88,3.45a.85.85,0,0,0-.19.5c-.19,1.71-1.09,3.18-1.7,4.74a5.75,5.75,0,0,0-.7,2.25,4.37,4.37,0,0,1-.63,1.54c-.13.28-.4.55-.4.83a5.75,5.75,0,0,1-.89,2.45,17.28,17.28,0,0,0-1.86,6.06c-.15,1.69-.24,3.38-.39,5.06-.21,2.5.1,5-.3,7.51a4.68,4.68,0,0,0,0,1.12c.06.81.14,1.62.18,2.43.08,1.38.18,2.75.18,4.13,0,2.2.7,4.34.46,6.55a1.37,1.37,0,0,0,.22.71,4.33,4.33,0,0,1,.35,2.76,2.73,2.73,0,0,0,.23,2.15,1.08,1.08,0,0,1,.13.54c.14,1.81.27,3.62.4,5.42,0,.5.1,1,.15,1.5q.56,5.61,1.1,11.21c.09,1,.14,2,.28,3,.39,2.8.82,5.58,1.23,8.37a5.25,5.25,0,0,1,0,.56c.24,3.55.42,7.11.83,10.65.37,3.17.78,6.34,1.18,9.51.15,1.19.32,2.36.45,3.55.25,2.18.45,4.36.7,6.54.29,2.55.7,5.09.89,7.65.18,2.32.68,4.58.92,6.89q.13,1.31.24,2.61c0,.56,0,1.13.11,1.69a61,61,0,0,0,1.58,8.68,4.83,4.83,0,0,1,.12.93,49.58,49.58,0,0,0,1.89,9.57,20.1,20.1,0,0,1,1,4.57,22.77,22.77,0,0,0,.79,4.63,29.25,29.25,0,0,1,.74,4.82c.21,2.17.3,4.36.45,6.54a7.32,7.32,0,0,0,.12.94,88.4,88.4,0,0,1,1.7,10.38c.09.74.23,1.48.35,2.22a26.39,26.39,0,0,1,.49,3.15,58.54,58.54,0,0,0,1.14,8.55c.28,1.54.44,3.1.74,4.64.37,1.91.81,3.8,1.25,5.69.18.8.52,1.56.63,2.36.21,1.55.29,3.12.46,4.67a8.28,8.28,0,0,0,.72,3.28,3.21,3.21,0,0,1,.23,1.26c0,.44,0,.88,0,1.31.44,2.59.37,5.26,1.18,7.79a4.08,4.08,0,0,1,.1.93,37.63,37.63,0,0,0,.62,5.6,29.2,29.2,0,0,1,.34,3c.08.87.12,1.75.21,2.62.23,2.05.6,4.09.68,6.14.08,1.83.4,3.61.64,5.41a26.44,26.44,0,0,0,.88,3.45c.33,1.2.73,2.38,1,3.6a27.15,27.15,0,0,0,1.15,4.15,12,12,0,0,1,.45,1.81,21.6,21.6,0,0,1,.22,4.1,4.55,4.55,0,0,0,.43,2.1,5,5,0,0,0,.83-.83c.16-.25.13-.61.24-.9a.57.57,0,0,1,.94-.14,1.38,1.38,0,0,1,.31.46A4.52,4.52,0,0,0,300.6,474c.53.53,1,1.14,1.5,1.68s1.33,1.32,2,2c1.06,1,2.15,1.9,3.21,2.88A4.07,4.07,0,0,1,308.7,484c0,.37,0,.74,0,1.12.63.58,1.25,1.11,1.83,1.68a3.45,3.45,0,0,1,.71,4,21.7,21.7,0,0,1-3.45,5.34,13.7,13.7,0,0,0-2.47,4.39,1.94,1.94,0,0,0-.17.73c.08,1.74-.1,3.52.55,5.21a2.64,2.64,0,0,1,.26,1.09,6,6,0,0,0,.75,2.87c.15.34.21.72.34,1.08.35,1,.7,2,1.06,3,1,2.7,2.22,5.3,3.12,8,.7,2.13,1.73,4.15,2.62,6.21a3.2,3.2,0,0,1,.33.67,8,8,0,0,0,1.91,3.61,12.52,12.52,0,0,1,1.9,2.77,17.72,17.72,0,0,1,1.32,5.83,11.17,11.17,0,0,0,1.51,5.13,4.58,4.58,0,0,1-1.06,2.38c-1.46,2-2.95,4-4.22,6.2a16.14,16.14,0,0,1-1.26,1.63,8.33,8.33,0,0,0-1.63,2.73,3,3,0,0,1-1.52,1.83c-.53.3-1.05.63-1.6,1a7.87,7.87,0,0,0,.66,2.78c.77,1.78,1.6,3.53,2.41,5.29.26.57.49,1.15.74,1.73.49,1.14.91,2.33,1.5,3.43a26.65,26.65,0,0,1,2.44,6.28,14.6,14.6,0,0,0,1.05,2.81,15,15,0,0,1,1.57,6.33,47.45,47.45,0,0,1-1.81,13.53c-.55,2-1,4-1.48,6-.35,1.65-.58,3.33-.85,5-.14.87-.28,1.73-.37,2.6-.18,1.75-.29,3.5-.51,5.24a4.43,4.43,0,0,1-.57,1.95,4.46,4.46,0,0,0-.65,3.38c0,.36.07.72.11,1.13a15.24,15.24,0,0,1-5.1.36c-4-.26-8-.82-12-.54a45.39,45.39,0,0,1-5.08-.11c-2.37-.11-4.75-.29-7.12-.39a27.21,27.21,0,0,0-3.38,0c-2,.16-4,.42-6,.62a17.71,17.71,0,0,1-2.62.15,11.29,11.29,0,0,0-3.53.43c-2.83.8-5.64,1.66-8.45,2.49-1.33.39-2.65.79-4,1.14-2,.52-4,1-6,1.49l-.37.1a24.87,24.87,0,0,1-7.46,1.78,3.23,3.23,0,0,0-2.24,1.22,1.21,1.21,0,0,0,.07,1.84,9.72,9.72,0,0,0,1.43,1.22c.65.45,1.36.82,2,1.21l.84-.25,1.71,2.25c-.58.3-1.17.62-1.78.91l-3.42,1.54a1.28,1.28,0,0,0-.87,1.64c.07.3.06.62.1.93a2.11,2.11,0,0,0,1.28,1.74c.34.16.66.35,1,.48,2.57,1,5.13,2,7.7,3a9.11,9.11,0,0,0,1.26.37,26.88,26.88,0,0,0,6.12.79c.87,0,1.74.18,2.61.22a12,12,0,0,0,2.81,0,20.54,20.54,0,0,1,5-.48c.44,0,.88,0,1.32,0a10.16,10.16,0,0,1,4.75.71,2.1,2.1,0,0,0,.52.21,34.62,34.62,0,0,1,7.15,2.81c1.28.6,2.5,1.47,4.26,1.26,1.13-1,2.39-2.11,3.67-3.2,1.77-1.49,3.52-3,5.36-4.42a5.89,5.89,0,0,1,4.31-.94,8.77,8.77,0,0,0,3.53-.18,2.51,2.51,0,0,1,2.73.8c.58.64,1.16,1.3,1.78,1.91a3.15,3.15,0,0,0,1.15.9,4.05,4.05,0,0,1,2.67,2.7,5.94,5.94,0,0,0,1.27,2,8.11,8.11,0,0,1,.87,1,2.88,2.88,0,0,0,1.88,1.11,11,11,0,0,0,3.92,0c2.3-.26,4.63-.23,6.9-.71A3.53,3.53,0,0,1,327,662a68.6,68.6,0,0,0,7.84-.87,16.43,16.43,0,0,1,5.42-.09,6.73,6.73,0,0,0,3.53-.14,7.66,7.66,0,0,1,2-.37,3.78,3.78,0,0,0,2.38-1c.42-.38.86-.73,1.29-1.1.85-.72,1.67-1.49,2.55-2.16a25.82,25.82,0,0,1,2.19-1.37,1.76,1.76,0,0,1,1.08.67c.34.37.64.78,1,1.12a3.13,3.13,0,0,1,1,2.75c-.25.23-.63.43-.78.73s0,.72-.08,1.08c0,.15-.23.27-.32.42s-.26.51-.37.74a4.59,4.59,0,0,0,3.65,1.36c.1-.83-.8-1.21-.94-1.9.14-.12.22-.24.32-.26.37-.07.74-.11,1.11-.15.94-.11.94-.1,1.78-.91a2.9,2.9,0,0,1,.87.2,9,9,0,0,0,4.09,1.21c.87.06,1.75,0,2.6.1s1.71.36,2.57.54H372a28.48,28.48,0,0,1,4.13.08c1.87,0,3.75.07,5.63.09,1.19,0,2.38,0,3.57,0,1,0,2,.23,3,.25a48.21,48.21,0,0,0,8.24-.39c4-.59,8.11-.6,12.14-1.06,1.37-.15,2.74-.33,4.11-.47,1.68-.18,3.37-.31,5-.5.93-.11,1.86-.26,2.77-.46a25.91,25.91,0,0,1,3.05-.81,14.18,14.18,0,0,0,3.65-.8c.16-.07.37,0,.56-.05a14.19,14.19,0,0,0,1.44-.31,18.83,18.83,0,0,1,5.5-1.12c1.5,0,3,0,4.49,0a2.73,2.73,0,0,1,1.91.62c1.68,1.39,3.46,2.67,5.11,4.09a9.1,9.1,0,0,0,4.26,2.21c.5.09,1,.22,1.47.34,1.22.3,2.43.59,3.64.92a12.17,12.17,0,0,0,3.88.62c1.57-.08,3.13-.18,4.7-.12a7.2,7.2,0,0,0,3.47-.61,1.71,1.71,0,0,1,2.07.32c.28.24.59.47.89.68,1.47,1,2.39,2.56,3.6,3.82a23.44,23.44,0,0,1,2.53,3,32.9,32.9,0,0,0,2.76,3.54,6.59,6.59,0,0,0,4.15,2.32c.93.11,1.85.31,2.77.45,3.47.52,6.91,1.17,10.34,1.92a25.19,25.19,0,0,0,4.84.43c2.51.06,5-.11,7.52.18a33.93,33.93,0,0,1,4.48.35c1.45.37,2.91.81,4.42.19.15-.06.37,0,.55,0,2.19,0,4.36-.21,6.55-.25a48.56,48.56,0,0,0,6.32-.81c1.48-.23,2.94-.61,4.41-.83a35.4,35.4,0,0,0,8.43-2.5c2.25-.93,4.34-2.23,6.71-2.87,1-.27,2-.69,3-1,2.14-.73,4.26-1.52,6.42-2.16,1.56-.47,3-1.07,4.55-1.68.51-.22,1-.38,1.81-.66a2,2,0,0,0,.37.64,1,1,0,0,0,1.49,0,1.37,1.37,0,0,0,.38-.61c.14-.66.63-.75,1.14-.73.87,0,1.73.15,2.6.21a5.29,5.29,0,0,0,2.39-.21,8.44,8.44,0,0,1,3.74-.65c.67-.71,1.37-1.42,2-2.15a1.22,1.22,0,0,0-.36-2.13c-.41-.21-.81-.39-1-.8a9.37,9.37,0,0,0-1.81-2.38,5.25,5.25,0,0,1-.77-1,5.47,5.47,0,0,0-3.3-3,1,1,0,0,1-.34-.16c-1.08-1.1-2.58-1.78-3.33-3.25a3,3,0,0,0-.91-.89,1.65,1.65,0,0,1-.69-1.47c.12-1.11,0-2.26.6-3.29a1.65,1.65,0,0,0,.27-.88,22.22,22.22,0,0,1,.47-3.9,40.7,40.7,0,0,1,1.19-6c.86-3.08,1.3-6.24,2-9.33.18-.79.23-1.62.4-2.41a4.67,4.67,0,0,1,.42-1,3.3,3.3,0,0,1,.64.06,8.05,8.05,0,0,0,4.81,0,4.07,4.07,0,0,1,2.22-.06c1.8.53,2.2.16,1.86-1.62a18.05,18.05,0,0,1-.34-3.53c0-1.43-.2-2.86-.06-4.3a1.73,1.73,0,0,0-.13-.74,3.59,3.59,0,0,1,0-2.22,17.79,17.79,0,0,0,0-5.78,10.59,10.59,0,0,1,0-2.25c.23-1.72.61-3.43.82-5.15.19-1.49.67-2.93.78-4.42a41.06,41.06,0,0,0-.24-11.61c-.13-.68-.34-1.34-.43-2a8.81,8.81,0,0,1,0-2.05c.09-.83-.66-1.34-.66-2.12,0-1.91-.78-3.65-1.22-5.47a17.3,17.3,0,0,0-.65-2c-.25-.7-.59-1.38-.79-2.1q-1.51-5.43-3-10.87a19.52,19.52,0,0,1-1.11-5.12,3.91,3.91,0,0,0-.29-1.09q-.71-2.52-1.43-5.06c-.37-1.31-.75-2.63-1.11-4a16.38,16.38,0,0,1-.64-2.73c-.11-1.12-.9-2.07-.75-3.24a.46.46,0,0,0-.2-.31,3.85,3.85,0,0,1-1.17-2.29,3.56,3.56,0,0,0-1.07-2,2,2,0,0,1-.58-1.14c-.37-1.06-.78-2.11-1.21-3.16s-.73-1.86-1.19-2.74a16,16,0,0,1-.94-3.22,2.75,2.75,0,0,1-.2-1.81,2.85,2.85,0,0,0,0-.92c0-1.56-.07-3.12-.16-4.68a5.17,5.17,0,0,1,.69-2.89,18.15,18.15,0,0,0,1.65-4,13.48,13.48,0,0,0,1.07-4.36,10.11,10.11,0,0,1,.51-3.13,23.46,23.46,0,0,0,.69-5.14,1.07,1.07,0,0,0-.45-1,4.82,4.82,0,0,1-1.52-1.88c-.41-.91-.91-1.79-1.27-2.72-1.59-4.08-3.33-8.11-4.59-12.41a11.78,11.78,0,0,1,.51-1.32,8.83,8.83,0,0,0,.64-1.94,65.11,65.11,0,0,0,1-6.5c.17-1.05.37-2.09.48-3.15.28-2.56.5-5.12.76-7.67.14-1.37.39-2.72.47-4.09s.06-3,.09-4.49c0-2.07.12-4.13.13-6.2a13.06,13.06,0,0,0-.2-2.8,6,6,0,0,1,.75-4.52,3.82,3.82,0,0,0,.27-.75c-.21-.16-.4-.45-.58-.45a3.5,3.5,0,0,1-2.54-.94c-.08-.08-.24-.07-.36-.1a25.48,25.48,0,0,0-2.81-.87,5.57,5.57,0,0,1-2.22-1c-1.28-.88-2.51-1.86-3.71-2.85-1.36-1.12-2.67-2.29-4-3.45-.79-.7-1.55-1.44-2.32-2.16-1.15-1.06-2.35-2.07-3.44-3.2a37.14,37.14,0,0,0-6.33-5.27,40.83,40.83,0,0,1-3.92-3.14.87.87,0,0,1,.22-1.43,1.51,1.51,0,0,1,1.77.11,2.47,2.47,0,0,0,1.49.7,5.42,5.42,0,0,1,2.45.89c1.16.62,2.35,1.19,3.48,1.86s2.1,1.33,3.12,2.05a4.21,4.21,0,0,0,2.47,1.19,2.3,2.3,0,0,1,1.21.48c1.89,1.23,4.09,1.92,5.87,3.35a2.57,2.57,0,0,0,.65.36,1,1,0,0,0,1.3-.92c-.06-1.06-.11-2.12-.21-3.18a3,3,0,0,0-.28-1.07,12,12,0,0,1-1-6.78,4.61,4.61,0,0,1,.18-.75l4.65-2.73a30.79,30.79,0,0,0,3.16-1.95,4.51,4.51,0,0,1,2.45-1.14c.32-.49.8-.89.83-1.33a6.3,6.3,0,0,1,1.41-3,2.7,2.7,0,0,0,.48-1.95c-.2-1.61-.29-3.23-.54-4.84-.32-2-.67-4.08-1.14-6.09a34.89,34.89,0,0,0-1.77-6.34c-.87-1.94-1.77-3.86-2.69-5.78a1.07,1.07,0,0,1,.07-1.22c.09-.12,0-.34.07-.61l-1.38-.13A3.4,3.4,0,0,0,562,365.6q-3.6-4.08-7.18-8.2a42,42,0,0,1-4.35-5.42,5.17,5.17,0,0,0-.6-.73,77.92,77.92,0,0,0-6.13-6.33c-.6-.54-1.19-1.1-1.78-1.66a48.06,48.06,0,0,1-4.2-4.81,2,2,0,0,0-1-.73,15,15,0,0,1-5.89-3.57l-1.42-1.31a17.78,17.78,0,0,0-3.1.76c-1.52.67-2.82,1.64-3,3.51a6.9,6.9,0,0,1-.34,1.26,17.87,17.87,0,0,1-4.14,6.62c-1.65,1.88-3.36,3.72-5,5.58a8.11,8.11,0,0,0-.65.89c-.88,1.27-1.72,2.58-2.66,3.8a5.29,5.29,0,0,1-1.36,1c-.19.12-.53.16-.6.31-.33.82-1.14,1.15-1.68,1.74a24.06,24.06,0,0,1-6.61,4.85c-.55.3-1.06.69-1.61,1s-1.1.52-1.61.76c0,.24,0,.39,0,.48a3.48,3.48,0,0,0,.54.76c.65.59,1.34,1.13,2,1.72a5.56,5.56,0,0,0,2.89,1.64,3.67,3.67,0,0,1,1.16.6c.32.19.62.42.95.59,1.16.62,2.32,1.23,3.49,1.83a35.75,35.75,0,0,0,6.47,3,10.31,10.31,0,0,1,3.67,1.87A8.72,8.72,0,0,0,521.5,379a9.77,9.77,0,0,1,1.93.72,8.15,8.15,0,0,0,2.52.7,23.89,23.89,0,0,1,4.4.91c2,.62,4,1.06,6,1.61s3.72,1.09,5.57,1.64a2.7,2.7,0,0,1,.34.17c1.54.69,3.1,1.35,4.63,2.06a14.47,14.47,0,0,1,1.81,1c2.78,1.8,5.54,3.64,8.33,5.43a21.19,21.19,0,0,1,2,1.62,1.36,1.36,0,0,1,.52,1.64c-.13.4-.25.8-.36,1.15a3.28,3.28,0,0,1-1.91-.47,1.88,1.88,0,0,0-1.63-.11,5.17,5.17,0,0,1-3,.18,15.56,15.56,0,0,0-4.67-.07,2.7,2.7,0,0,1-1.81-.33,35.32,35.32,0,0,1-5.55-3.16,4.25,4.25,0,0,0-1.48-.79,23.43,23.43,0,0,1-5.41-2.1,63.81,63.81,0,0,1-7.31-4.21,10.23,10.23,0,0,0-3.07-1.38,3.15,3.15,0,0,0-3.13.77,4.51,4.51,0,0,0-1.32,2.19c.67,1,.65,1.08,1.68,1.4a18.52,18.52,0,0,1,5.89,3.62,4.11,4.11,0,0,1,1,1.32,1.07,1.07,0,0,1-.57,1.56,3.44,3.44,0,0,1-2.92.17,14,14,0,0,1-3.25-1.42,9.92,9.92,0,0,0-1.49-.76,17.8,17.8,0,0,0-4,4c-.79,1.21-1.58,2.42-2.41,3.59a12,12,0,0,1-2.64,3.15l-.94-.25a7.25,7.25,0,0,0-3.34-.08c-2.27.49-4.54.95-6.82,1.35a4,4,0,0,0-2.11,1.09,14.94,14.94,0,0,1-7.13,4,19.93,19.93,0,0,0-2.66.92,4.62,4.62,0,0,0-2,1.44c.21.23.34.51.53.55a20.6,20.6,0,0,0,2.22.39,18.27,18.27,0,0,1,3.86.8,6.62,6.62,0,0,0,2,.31c2.42,0,4.86-.28,7.26.35a1.59,1.59,0,0,0,.38,0c1.74.07,3.49.12,5.23.23a31.42,31.42,0,0,1,6.69.91,12.08,12.08,0,0,1,2.66.9,7,7,0,0,0,3.77.9,10,10,0,0,1,2.62.19c2.21.51,4.13,1.76,6.24,2.56.68.25.77.72.59,1.83a13.43,13.43,0,0,1-2.37.17,36.12,36.12,0,0,1-3.88-.66c-2.64-.57-5.26-1.2-7.89-1.77a4,4,0,0,0-1.68-.12,22.51,22.51,0,0,1-3.93.2c-2.19.14-4.38.24-6.56.46a49.91,49.91,0,0,1-6.91.68,4.28,4.28,0,0,0-1.12.13c-2.49.61-5,1.18-7.45,1.87-1.63.46-3.22,1-4.8,1.64-3.51,1.34-7,2.77-10.51,4.07a11.52,11.52,0,0,1-2.77.42.78.78,0,0,1-.83-.64,4.63,4.63,0,0,1-.13-.85A10.82,10.82,0,0,1,470,427.3a43,43,0,0,1,7.73-4.24c1-.37,2-.65,3-1a3.71,3.71,0,0,0,2.2-1.66.75.75,0,0,0-.51-1.16c-.55-.13-1.11-.2-1.65-.35-.35-.1-.68-.44-1-.42a2.62,2.62,0,0,1-1.9-.64,2.72,2.72,0,0,0-1.06-.28c-1.11-.19-1.37-.51-1.21-1.64a2,2,0,0,1,.29-1.07c.81-.84,1.26-2,2.39-2.56A10.5,10.5,0,0,0,481,410a.76.76,0,0,0,.27-.48.79.79,0,0,0-.3-.58,1.43,1.43,0,0,0-.89-.07,39.54,39.54,0,0,0-4.16,1.19,7.18,7.18,0,0,1-4,.71.91.91,0,0,0-.94.49l-3.84,6.22a4.83,4.83,0,0,0-.23.52c-.34.74-.67,1.48-1,2.21a30,30,0,0,0-1.86,3.66c-.5,1.5-1.68,1.91-2.91,2.34a.6.6,0,0,1-.73-.64c.39-1.66.15-3.36.34-5,.08-.74.12-1.36.77-1.77.88-.54.77-1.51,1.05-2.31-.48-1,.06-2,.44-2.87.68-1.55,1.44-3.06,2.2-4.56a3.79,3.79,0,0,1,.82-1c1.12-1,2.45-1.75,3.25-3.09a2.43,2.43,0,0,1,.85-.73,1.57,1.57,0,0,1,.85-.32,11.08,11.08,0,0,0,5.08-1.13,51.82,51.82,0,0,1,6.66-2c2-.53,4-1,6-1.57,1.54-.45,1.79-.72,1.67-2.22a3.29,3.29,0,0,1,.15-1.47c.52-1.34,1.14-2.63,1.72-3.95a3.3,3.3,0,0,1,3.37-2.21,7.54,7.54,0,0,0,2.58-.41,37.28,37.28,0,0,1,4.35-1.17,16.83,16.83,0,0,0,4.3-1.24,2.81,2.81,0,0,0,1.72-2.07,11,11,0,0,1-1.09-.79,17.77,17.77,0,0,1-3.92-4c-.69-1.18-2.13-1.91-2.05-3.55-.67-.64-1.13-1.56-2.17-1.7a4,4,0,0,1-2.85-2.22,13,13,0,0,1-.63-1.16,1.22,1.22,0,0,0-1.41-.69c-.86.15-1.72.35-2.58.51-1.78.33-3.56.67-5.35,1-.86.15-1.77.13-2.6.36-1.62.46-3.21,1.05-4.81,1.6a3.24,3.24,0,0,0-.83.42c-.75.54-1.45,1.15-2.22,1.67a5.47,5.47,0,0,1-2.39,1c-.24,0-.63.09-.67.23-.29.82-1,.8-1.67,1a2.57,2.57,0,0,0-1.24.8,5.92,5.92,0,0,1-1.14,1,76.54,76.54,0,0,0-6.28,5.22c-.84-.56-1-.86-.61-1.41s.92-1.19,1.42-1.76c.82-.94,1.66-1.87,2.49-2.8a13.67,13.67,0,0,1,1.9-2,25.17,25.17,0,0,0,2.89-2.66,28,28,0,0,1,4.1-3.27c1-.68,1.89-1.43,2.83-2.17a9.67,9.67,0,0,1,.84-.74c2.07-1.31,3.94-2.89,5.89-4.34.5-.37,1.11-.59,1.6-1,1.89-1.44,3.76-2.89,5.61-4.39,1.66-1.33,3.25-2.75,4.91-4.07,1-.82,1.82-1.95,2.86-2.69,1.31-.92,2.1-2.32,3.44-3.16a24.11,24.11,0,0,1,4-3.91,27.47,27.47,0,0,0,4.67-5.47,6.92,6.92,0,0,1-.44-1.12,9.06,9.06,0,0,0-2.54-4.67,45.32,45.32,0,0,0-8-6.51c-1.95-1.35-4.07-2.46-6.12-3.66a1.78,1.78,0,0,0-.88-.27c-1.87.05-3.54-.71-5.27-1.25-3.11-1-6.24-1.88-9.4-2.65s-6.54-1.66-9.88-2.2a4.88,4.88,0,0,1-2.23-.67,1.81,1.81,0,0,1,0-.47,4.71,4.71,0,0,0-.87-4.42,9.7,9.7,0,0,1-1.13-1.73c-1.37-2.87-2.78-5.73-4-8.66a104.1,104.1,0,0,0-4.64-9.64,5.13,5.13,0,0,1-.95-3,2.13,2.13,0,0,0-.16-.73c-.56-1.86-1.17-3.7-1.67-5.58a7.85,7.85,0,0,1-.19-2.22,1.43,1.43,0,0,1,.47-1c1-.77,1.9-1.71,3.23-1.8s2.74-.11,4.11-.1a3.69,3.69,0,0,1,2.09.74,10.3,10.3,0,0,0,1.93,1.16q4.63,1.83,9.29,3.56c1.65.61,3.31,1.18,5,1.74a22.43,22.43,0,0,0,7,1.38c2.69,0,5.39.08,8.08.16a6.83,6.83,0,0,0,4.25-1.22,6.56,6.56,0,0,1,.81-.47,16,16,0,0,0,6.78-5.76,2.88,2.88,0,0,1,1.57-1.27c.78-.23.9-.55.61-1.21-.65-1.5-1.33-3-2-4.47-.4-.92-.77-1.84-1.12-2.77a42.83,42.83,0,0,0-1.91-5.08c-1.23-2.32-2.42-4.65-3.56-7a9.76,9.76,0,0,0-2.42-3.05,6.77,6.77,0,0,1-1.27-1.35,28.12,28.12,0,0,0-4.28-5.44,3.35,3.35,0,0,1-.49-.57c-2-2.57-4-5.16-6-7.71a10.06,10.06,0,0,0-1.79-1.89,37.2,37.2,0,0,1-5.29-5.05,34,34,0,0,0-4.67-4.48c-.14-.44-.28-.79-.37-1.15a7.25,7.25,0,0,0-1.45-3.41,3.43,3.43,0,0,1-.6-1.36c-.82-3.09-1.65-6.17-2.4-9.27a6.87,6.87,0,0,0-1.16-2.74c-.88-1.13-1.72-2.3-2.64-3.4a27,27,0,0,0-1.67-2.44,17.6,17.6,0,0,1-1.48-1.93c-.64-.84-1.13-1.63-.18-2.64a2.8,2.8,0,0,0,.48-1.6c.08-1.24.44-2.43.44-3.69,0-2.37.53-4.71.54-7.1a9.66,9.66,0,0,1,.48-2.39c.5-1.87,1.13-3.71,1.54-5.61a17.8,17.8,0,0,1,1.43-4.06,16.63,16.63,0,0,0,1.4-4.07,8.14,8.14,0,0,1,1.75-3.91,12.16,12.16,0,0,0,2.6-5.75c.33-1.66.69-3.32.91-5a9.23,9.23,0,0,0-.05-3.51,37.63,37.63,0,0,1-.66-5,5.33,5.33,0,0,1,.12-1.12,10.56,10.56,0,0,0,.13-1.68,1.36,1.36,0,0,0-2.12-1.21,9.27,9.27,0,0,0-1.3.74,3.53,3.53,0,0,1-1.91.69,21.4,21.4,0,0,0-5.74,1.74c-1.11.43-2.18,1-3.31,1.32A10,10,0,0,0,455,149a2.21,2.21,0,0,1-2,.4.93.93,0,0,1-.75-1.12,3.12,3.12,0,0,1,.4-1,22.81,22.81,0,0,1,1.61-2.06c2.14-2.37,4.36-4.67,6.72-6.83,1.79-1.64,3.42-3.49,5.7-4.53a2.73,2.73,0,0,0,.44-.34,78.2,78.2,0,0,1,8.1-5.72c3.44-1.92,6.81-4,10.35-5.72a2.62,2.62,0,0,1,1.8-.35c1.14.29,2.38-.1,3.48.54a1,1,0,0,0,1.28-.52,1,1,0,0,0-.22-1.22,5.24,5.24,0,0,0-.88-.67l-4.62-3.24c-1.38-1-2.75-1.93-4.2-2.78a1.82,1.82,0,0,0-1.93-.26,1.63,1.63,0,0,1-1.91-.33,6,6,0,0,0-1.52-1.08A44.89,44.89,0,0,0,471.2,110a9.49,9.49,0,0,1-4.35-2.12,15,15,0,0,0-2.08-1.27L462,105a4.47,4.47,0,0,0,.46-3.34,21.11,21.11,0,0,1-.29-2.24,5.31,5.31,0,0,1,1.13-3.68c.69-.88,1.24-1.88,1.88-2.8A14.83,14.83,0,0,1,466.67,91a2.81,2.81,0,0,1,4.63,1.11c.19.72.53,1.4.73,2.12a2.84,2.84,0,0,0,1.08,1.59,4.67,4.67,0,0,0,2.21-.77,3.88,3.88,0,0,1,1.34-.61,1.37,1.37,0,0,0,1-1c.16-.46.35-.91.51-1.33a1.49,1.49,0,0,1,2.05.92c.17.41.26.84.41,1.25.22.59.43,1.18.7,1.74a21.36,21.36,0,0,1,1.86,4.88,16.18,16.18,0,0,0,.57,1.79,1.5,1.5,0,0,0,1.6,1.06c.81,0,1.62-.12,2.44-.14,2.5-.05,5-.53,7.5-.06a1.7,1.7,0,0,0,.55,0c.88,0,1.75-.16,2.63-.16a28.73,28.73,0,0,0,5.24-.27,3.16,3.16,0,0,1,1.66.2,9.08,9.08,0,0,0,3.3.55c1.5,0,3,0,4.5,0,1.13,0,2.26,0,3.38.16a92.25,92.25,0,0,0,12,.46,32.39,32.39,0,0,1,3.94.08,102.77,102.77,0,0,0,11.23.73,2.36,2.36,0,0,1,.9.2,15.86,15.86,0,0,1,3.65,2.26,4.77,4.77,0,0,1,1.93,2.66c.15.72.64,1,1.32,1.14,1,.21,2.06.52,3.09.8a27.3,27.3,0,0,0,3.62,1,23.8,23.8,0,0,1,4.87,1.3,52.5,52.5,0,0,1,5.09,2.4,14.64,14.64,0,0,1,4.33,3.47,7.35,7.35,0,0,1,.46.58,5.41,5.41,0,0,1,.57-.19c1.67-.35,2.68.29,3,1.91.22,1.16.46,2.33.62,3.51.47,3.36.91,6.71,1.33,10.07.09.74.07,1.49.1,2.25a5.14,5.14,0,0,0,0,1.11c.67,2.63.57,5.34.87,8,.16,1.43.17,2.87.27,4.3a55.86,55.86,0,0,1,.5,5.78,2.11,2.11,0,0,0,.14.74,10.73,10.73,0,0,1,.34,3.34c0,1.37.13,2.74.12,4.11a28.15,28.15,0,0,0,.58,3.88,37,37,0,0,1,.15,6.57,5.24,5.24,0,0,0,.15,1.86,6,6,0,0,1,.2,2.22,15.73,15.73,0,0,0,0,2.06c.15,1.56.44,3.11.51,4.67.09,2,.06,4,0,6-.05,2.32-.17,4.63-.25,6.95,0,.94-.08,1.88-.1,2.82a57.93,57.93,0,0,1-.2,6.19c-.3,2.16,0,4.39-.77,6.5-.07,2.37-.15,4.75-.21,7.13a3.55,3.55,0,0,1-.29,2c-.18,0-.39-.08-.54,0s-.48.25-.5.42.2.4.36.56.24,0,.36.08c.81.26,1.12.66.82,1.32a10.81,10.81,0,0,0-.62,3.11,18.34,18.34,0,0,0-.33,5,3.76,3.76,0,0,1,0,.75,1.24,1.24,0,0,1-.75,1.2c-.17.07-.28.37-.33.59a5.1,5.1,0,0,1-.19,1.06,1,1,0,0,0,.14,1.2l.65.88a18.1,18.1,0,0,1-.45,1.89c-.59,1.78-1.21,3.55-1.84,5.36-.66.41-1.34.82-2,1.22,0,.65.18,1.24-.3,1.82a1.58,1.58,0,0,0-.16,1.68,4.4,4.4,0,0,1,.48-1,.67.67,0,0,1,1.19.27,1,1,0,0,1,.06.54c-.33,1.4-.67,2.8-1,4.18a14.94,14.94,0,0,1-.83,2.47c-.55,1.17-.83,2.5-1.85,3.44a1.94,1.94,0,0,0-.33.86,12.6,12.6,0,0,1-.32,1.28,79.43,79.43,0,0,1-5.88,13,15.34,15.34,0,0,1-1.88,2.58c-.35.37-.79.56-1,1.14s-.84.84-1.1,1.45a11.08,11.08,0,0,1-1,1.57,2,2,0,0,1-1.49,1,3.36,3.36,0,0,0-.67.24,6.23,6.23,0,0,1,.1,1.69,5.83,5.83,0,0,1-1,2.6c-.67.82-1.31,1.67-2,2.47-1.24,1.41-2.82,2.49-3.9,4.06a2.27,2.27,0,0,1-.87.69,3.88,3.88,0,0,1-1.07.16,1.43,1.43,0,0,1-.71,1.68c-1.71,1.37-3.4,2.78-5.17,4.06-2.24,1.61-4.51,3.18-6.84,4.66a22.2,22.2,0,0,1-5.29,2.81,1.74,1.74,0,0,0-1.3,1.65,12.24,12.24,0,0,1-.45,2.4,4.55,4.55,0,0,0,.46,3.79,17.78,17.78,0,0,1,1.72,3.95,3.67,3.67,0,0,0,.62,1.15c.61.88,1.2,1.78,1.89,2.59a7.09,7.09,0,0,0,2.69,2.27,4.65,4.65,0,0,1,1.53,1.35c1.69,1.94,3.34,3.9,5,5.85.32.37.69.7,1,1-.07.35-.11.59-.13.7a20.07,20.07,0,0,1,1.9,1.91c.89,1.13,1.67,2.34,2.5,3.52a25.92,25.92,0,0,0,2,2.73c1.66,1.8,3.41,3.51,5.15,5.23a71.23,71.23,0,0,1,5.27,5.58c.72.86,1.3,1.83,2,2.71a5.57,5.57,0,0,0,2.22,2.07,4,4,0,0,0,.55-1.18c.14-1.93.2-3.87.31-5.8a4.09,4.09,0,0,1,.24-1.09,7.55,7.55,0,0,0,.59-3.64,2.34,2.34,0,0,1,.18-1.1,7.79,7.79,0,0,0,.43-2.57,16.12,16.12,0,0,1,1.31-4.43,7.06,7.06,0,0,0,.68-2.31,40.62,40.62,0,0,1,.89-6.68,29.65,29.65,0,0,0,.34-3.16c.2-1.48.48-2.95.71-4.43s.59-2.93,1-4.38c.42-1.69.61-3.44,1.17-5.11s.7-3.18,1.12-4.73c.57-2.11,1.17-4.2,1.68-6.32a31.32,31.32,0,0,0,.87-7.64,20.55,20.55,0,0,0-.76-4.43c-.35-1.39-1-2.71-1.3-4.1a6.25,6.25,0,0,1,.05-3.87c.76-2,1.27-4.05,2-6.05.78-2.17,1.27-4.44,1.88-6.67a6.47,6.47,0,0,0,.15-.74c.45-2.4.92-4.8,1.34-7.21.27-1.54.48-3.09.7-4.64a46.85,46.85,0,0,1,1.54-8.3,7,7,0,0,0,.19-1.3c.23-1.42.45-2.84.69-4.25.13-.8.3-1.6.45-2.39a6.7,6.7,0,0,1,.26-1.29,25.88,25.88,0,0,0,1.13-6c.1-.81.22-1.61.31-2.42.14-1.24.3-2.48.4-3.72.16-2.24.29-4.49.42-6.73a24.87,24.87,0,0,0,.15-3.55,47.52,47.52,0,0,1,.11-6c.06-2,.08-4,.22-6,.08-1,.08-2,.16-3,.15-1.75.41-3.49.5-5.24.19-3.43.3-6.88.44-10.32a14.55,14.55,0,0,1,.1-1.87c.45-2.93.09-5.89.24-8.83.13-2.56.06-5.13.09-7.7,0-2,.07-4,.1-6s0-3.86.08-5.79a69.15,69.15,0,0,0,0-8.27c-.12-1.24-.21-2.49-.39-3.73a12.63,12.63,0,0,0-1-4.17,5.67,5.67,0,0,1-.58-2,28.81,28.81,0,0,0-1-4.95c-.36-1.34-.68-2.68-1-4-.18-.73-.37-1.46-.58-2.17s-.54-1.67-.81-2.51a26.94,26.94,0,0,0-2.28-5.54,37.59,37.59,0,0,1-3.28-6.75,15.66,15.66,0,0,0-3.71-6.45,1.74,1.74,0,0,1-.56-1.53c0-.5,0-1,.08-1.5a15.62,15.62,0,0,0-.39-8,3.85,3.85,0,0,1-.17-.73,31.75,31.75,0,0,0-1.81-6.9c-.26-.69-.24-1.48-.46-2.19s-.63-1.47-.92-2.22A4.08,4.08,0,0,1,571,84c-.14-1-.2-2-.41-3a26.89,26.89,0,0,0-.85-2.87c-.11-.35-.32-.68-.42-1a4.36,4.36,0,0,1-.36-1.62,6.83,6.83,0,0,0-.65-3.09c-.32-.93-1-1.71-.66-2.8,0-.19-.16-.46-.26-.68s-.28-.44-.28-.66a19.64,19.64,0,0,1,.41-4.84c0-.17.1-.41.23-.48,1.26-.68,1.08-1.89,1-3a4.68,4.68,0,0,1,.16-1.46,16.67,16.67,0,0,1,2-4A16.36,16.36,0,0,0,572.24,52a5.81,5.81,0,0,0,.16-2.21c0-.48-.53-.65-.9-.88a2,2,0,0,1-.5-.54,26.76,26.76,0,0,0-3.62-4.53,11.83,11.83,0,0,1-1.74-2.17c-1-1.52-1.92-3.08-2.86-4.64-.75-1.26-.67-2,.46-2.92a22.34,22.34,0,0,0,2.86-3.22.71.71,0,0,0,.18-.51,2.33,2.33,0,0,1,1-2,14.72,14.72,0,0,0,3.12-5.07c.58-1.38,1-2.8,1.72-4.13a22.5,22.5,0,0,0,1.53-4.59,6.39,6.39,0,0,0,.5-2c-.06-1.56.64-2.91,1-4.33-.56-1.65-.56-1.65.66-4.95A3.91,3.91,0,0,0,578.32,3a7.9,7.9,0,0,1,.23-.93,1.24,1.24,0,0,1,1.32-.83c1.68,0,3.37,0,5-.12.57,0,1.15,0,1.72,0,2.43,0,4.87.22,7.26-.48a1.2,1.2,0,0,1,1.42.39c-.09.31-.23.65-.31,1s0,.68.36.74c.16,0,.43-.21.52-.39.17-.33.32-.68.49-1.06A7.31,7.31,0,0,0,595.24-1.13ZM525,415.92c-2.16-.62-4.43-.85-6.48-1.88a3.94,3.94,0,0,0-.93-.13l-3.87-.69a31.53,31.53,0,0,0-6.93-.46c-.75,0-1.5,0-2.25,0-1,0-1.48-.58-1.05-1.62.07-.17.15-.34.3-.68a38.74,38.74,0,0,1,6-.45,20.5,20.5,0,0,0,4.5.09,4.15,4.15,0,0,1,1.31.08c1.72.33,3.44.7,5.16,1a20.43,20.43,0,0,1,4.32,1.8,2,2,0,0,1,1.09,1.66C526.45,415.72,526,416.2,525,415.92ZM377.89,536.24c1.86-.26,3.75-.3,5.61-.5a53.94,53.94,0,0,1,6.35-.25,2.62,2.62,0,0,0,.56,0,23.48,23.48,0,0,1,5.62.07c1.31.08,2.62,0,3.93,0,.81,0,1.61.12,2.45.18A5.12,5.12,0,0,1,403,537a3.56,3.56,0,0,0,1.37,2.69,2.25,2.25,0,0,1-2.15,1.74,7.55,7.55,0,0,1-2.42-.16,2.24,2.24,0,0,0-1.09,0,.72.72,0,0,0-.38.57c0,.2.16.56.31.6a7.18,7.18,0,0,0,1.83.28,3.16,3.16,0,0,0,1.26-.34c1.7-.78,3.28-.1,4.86.42a1.38,1.38,0,0,1,.67.62,4.29,4.29,0,0,0,1.91,1.88l-.71,1.58a7.09,7.09,0,0,1-2.78.54,21.39,21.39,0,0,0-3,.15,34.48,34.48,0,0,1-6.18.12c-2.75-.11-5.5-.12-8.25-.16-1.81,0-3.62-.23-5.43-.34a46.71,46.71,0,0,0-12.14.82c-1.72.35-3.47.53-5.18.91a43.12,43.12,0,0,0-4.73,1,37,37,0,0,1-4.2.93c-1.29.27-2.56.61-3.86.79-2.61.37-5.22-.06-7.86,0a3.45,3.45,0,0,1,.06-2.63c.48-1.82,1.24-3.53,1.89-5.29.55-1.46,1.21-2.87,1.82-4.31a2.57,2.57,0,0,1,1.75-1.56,49,49,0,0,1,5.49-1.12c1.05-.17,2.05.33,3.14,0a11,11,0,0,1,3-.17c1.06,0,2.12,0,3.19.05.86,0,1.73.3,2.59.31A64.42,64.42,0,0,0,377.89,536.24Zm12.47-114.87a1.94,1.94,0,0,1,.27-.43,2,2,0,0,1,.39.31,1,1,0,0,1,.1.35c0,.3-.1.52-.4.48-.13,0-.27-.2-.35-.35A.49.49,0,0,1,390.36,421.37ZM388.74,568a5.79,5.79,0,0,1-2.36.55,1.88,1.88,0,0,0-2.05,1,.79.79,0,0,1-.44.33c-2,.71-3.78,2-6,2.18a2.71,2.71,0,0,0-.73.19,77.36,77.36,0,0,1-8.48,2.41c-1.5.42-3,1-4.46,1.44a10.29,10.29,0,0,1-1.62.46c-3.88.66-7.76,1.29-11.64,1.94a8.25,8.25,0,0,0-1.08.3,4.12,4.12,0,0,1-.88.29c-2,.11-3.93.74-6,.72-1.37,0-2.74.28-4.12.4-.87.08-1.74.13-2.61.13a2.3,2.3,0,0,1-1-.32c-.9-.53-.83-1,0-1.65a14,14,0,0,1,6.06-2.77c1.9-.41,3.77-.93,5.64-1.43.79-.2,1.55-.5,2.34-.7a20.35,20.35,0,0,1,2.2-.43c1.73-.23,3.47-.41,5.21-.64.93-.13,1.84-.42,2.77-.47a27.67,27.67,0,0,0,4.23-.8,33.55,33.55,0,0,1,3.62-.89,40.76,40.76,0,0,0,8.87-2.36c1.88-.65,3.85-1,5.78-1.54a3.27,3.27,0,0,1,.94,0,5.17,5.17,0,0,0,2.38-.39,10.92,10.92,0,0,1,2-.42,47.88,47.88,0,0,0,5.37-1.46,14.65,14.65,0,0,1,2.58-.45,12.67,12.67,0,0,1,1.85-.1,3,3,0,0,1,.83.28,2,2,0,0,1-1.36,1.08Zm6.57,5.5c-.85.76-1.4,2-2.8,2a2.3,2.3,0,0,0-.88.3L383,579.94a1.32,1.32,0,0,0-.33.18c-2.16,1.93-4.94,2.6-7.52,3.62a10,10,0,0,1-3.34.41,24.59,24.59,0,0,0-3.92.33c-1.22.22-2.48.24-3.73.34s-2.37.19-3.56.27a23,23,0,0,1-5.43-.11,5.4,5.4,0,0,1-2.44-1.11c.19-.22.26-.38.35-.39a23.75,23.75,0,0,1,3.67-.57,22.33,22.33,0,0,0,4.79-.75c1-.22,2-.38,2.93-.64,2.66-.71,5.3-1.46,7.95-2.2a2.44,2.44,0,0,0,.87-.31c1.81-1.38,4-1.6,6.12-2.18.3-.09.61-.14.89-.25a69.64,69.64,0,0,1,8.21-2.68c1.81-.47,3.67-.78,5.51-1.14a2.91,2.91,0,0,1,.93,0C395.25,572.81,395.5,573.34,395.31,573.51Zm-40.49-85a12,12,0,0,1,1.72.08,8.81,8.81,0,0,1,4.3,1,7.59,7.59,0,0,0,1.26.36,19.62,19.62,0,0,1,3.7,1.31c1.45.71,3,1.3,4.48,1.89a2.66,2.66,0,0,0,1.09.12,2.36,2.36,0,0,1,1.83.81,1.71,1.71,0,0,1,.43,2,2.84,2.84,0,0,0-.38,2.3c.25.68-.92,2.41-1.6,2.77s-1.21.31-1.5,1a.9.9,0,0,1-.82.27c-1.05-.33-2.1.45-3.12-.09a9.65,9.65,0,0,0-1.73.65,3.54,3.54,0,0,1-2.9.34,17.61,17.61,0,0,1-2.48-.83c-2.29-1-4.63-1.94-6.8-3.16-2.84-1.6-5.91-2.68-8.72-4.33-1.07-.62-1.22-1.07-.9-2.26.45-1.65,1.82-2.19,3.16-2.55A64.67,64.67,0,0,1,354.82,488.47ZM325.41,34.61a1,1,0,0,1,1.72.2,24.53,24.53,0,0,1,1.1,2.59c.58,1.59,1.11,3.19,1.67,4.78.75,2.12,1.54,4.24,2.26,6.36.27.77.4,1.58.62,2.36s.47,1.56.72,2.33a22.18,22.18,0,0,1,1.48,6,5.9,5.9,0,0,1,0,.94c0,.1-.12.2-.3.49A18.28,18.28,0,0,1,332,54.89c-.82-2.56-1.68-5.11-2.65-7.62-.56-1.45-1.27-2.85-1.85-4.3-.86-2.14-1.66-4.31-2.5-6.47A1.65,1.65,0,0,1,325.41,34.61Zm1.29,439c-.29.31-.62.58-.89.84-.22-.07-.39-.07-.44-.15a9.49,9.49,0,0,1-2.27-4.84c-.17-1.92-.55-3.84-.57-5.76a26.52,26.52,0,0,1,.83-6.31,2.46,2.46,0,0,1,.26-.7c1.25-2,1.84-4.36,3.14-6.36a14,14,0,0,0,1.5-2.8,9.69,9.69,0,0,1,4.1-4.72c1.35-.9,2.59-2,4-2.78,2.6-1.49,4.89-3.49,7.75-4.53a8,8,0,0,0,1.16-.61,2.24,2.24,0,0,1,2.49.07c.89.56,1.77,1.16,2.74,1.8a3.24,3.24,0,0,1-.61,3.24,26.1,26.1,0,0,0-1.72,2.44c-.53.83-1,1.73-1.43,2.6a8.68,8.68,0,0,1-.82,1.25,5,5,0,0,0-1.43,2.58c0,.34-.39.64-.54,1-.59,1.31-1.16,2.63-1.73,3.95a1.31,1.31,0,0,0-.13.55,19,19,0,0,1-.88,4.6,39.94,39.94,0,0,0-.91,9.32,8.56,8.56,0,0,1-.69,4,7.47,7.47,0,0,0-.38,1.76c-1.49.07-2.66-.66-3.94-.93s-2.51-.83-3.8-1A5.2,5.2,0,0,0,326.7,473.59Zm67,139.88a10.35,10.35,0,0,1-2.13,4.72,9.15,9.15,0,0,0-.56.83c.87,1.82.39,3.66,0,5.5a2.79,2.79,0,0,0-.09,1.81,2.82,2.82,0,0,1,0,1.29c-.19,1.55-.38,3.1-.61,4.65-.1.67-.36,1.32-.46,2a9.75,9.75,0,0,0-.14,2.22,2.18,2.18,0,0,1-1.25,2.47c-.21.09-.4.21-.64.33.34.79,1,1,1.58,1.41.76.58.68,1.33-.22,1.71a3.7,3.7,0,0,1-1.44.37,14.86,14.86,0,0,0-3,.34,24.93,24.93,0,0,1-4.49.07c-1.81,0-3.62.12-5.42.18l-2.26,0c-2.81.1-5.62.21-8.43.28a14.18,14.18,0,0,1-2.06-.16c-1.37-.14-2.73-.33-4.09-.45-2.43-.22-4.87-.4-7.29-.62q-2.53-.22-5-.54a2.71,2.71,0,0,1-2.42-1.78c-.38-1-.36-1.95.48-2.48a2.25,2.25,0,0,0,1.13-1.6c.21-1.05,1.1-1.64,1.77-2.37a14.82,14.82,0,0,1,1.24-1.14,4.24,4.24,0,0,0,1.07-1.49,15.18,15.18,0,0,1,1.41-2.2c.52-.78,1.1-1.53,1.54-2.35a26.76,26.76,0,0,1,3.27-5,3.57,3.57,0,0,0,.54-.75,15.16,15.16,0,0,1,5-6,9.52,9.52,0,0,1,2.62-1.72,8.44,8.44,0,0,1,3.68-.56,6.3,6.3,0,0,0,2.39-.23,14.49,14.49,0,0,1,3.72-.48,25.38,25.38,0,0,0,7.41-.94,1.42,1.42,0,0,1,.54-.13c1.64.29,2.94-.57,4.18-1.36a4.27,4.27,0,0,1,4.48-.5,8,8,0,0,1,.13,1.23,1.35,1.35,0,0,0,1,1.44c.88.32,1.78.58,2.8.9A3.07,3.07,0,0,1,393.74,613.47Zm25.48-41.06c-.32,1.64-.33,3.37-1.09,4.92-.33.67-.64,1.35-1,2a7.57,7.57,0,0,0-1.07,2.17,1.58,1.58,0,0,1-.32.68c-.72.94-1.48,1.86-2.18,2.81a2.71,2.71,0,0,1-1.35,1c-.64.25-1.28.51-1.93.74A24.08,24.08,0,0,1,400,588.23a19.06,19.06,0,0,1-3.28-.78c-1-.28-2-.65-3-.94a3.36,3.36,0,0,0-2.21.12c-1,.42-2.1.82-3.14,1.25s-2.3,1-3.44,1.51a32.21,32.21,0,0,1-4.6,1.63,73.33,73.33,0,0,0-8.61,3.16,5,5,0,0,1-.86.38,50,50,0,0,0-7.66,2.49c-1.11.42-2.29.65-3.42,1-1.85.59-3.67,1.26-5.53,1.82a20.07,20.07,0,0,1-2.57.48.89.89,0,0,1-1-.6.79.79,0,0,1,.32-1.14c1-.54,1.31-1.65,2.08-2.37.18-.17.14-.57.21-.9a3.09,3.09,0,0,0-2.22-.42,60.2,60.2,0,0,0-7.47.62,4.11,4.11,0,0,1-1.31.05,4.61,4.61,0,0,0-5.11,3.72,46.32,46.32,0,0,1-2.17,6.6,13.78,13.78,0,0,1-1.2,2.32.94.94,0,0,1-1.11.54c0-.17-.1-.38,0-.52.7-1.67,1-3.48,1.63-5.17a24.12,24.12,0,0,0,1-4.15,7.92,7.92,0,0,1,.75-2.31,34.39,34.39,0,0,0,1.53-3.18,1.67,1.67,0,0,1,1.4-1.06c1.41-.26,2.79-.6,4.22-.74a11.08,11.08,0,0,1,3.54.08c1.19.25,2.4.7,3.65.24a.41.41,0,0,1,.19,0,15.77,15.77,0,0,0,3,.13,10.26,10.26,0,0,1,3,0,13.66,13.66,0,0,0,4.46-.14,11,11,0,0,1,3.88-.44,2.58,2.58,0,0,0,1.21-.34,7.61,7.61,0,0,1,1.19-.51,39.62,39.62,0,0,0,5-1.37c2.63-.81,5.28-1.55,7.85-2.52a12.05,12.05,0,0,0,3.59-1.56,1.16,1.16,0,0,1,.68-.28,6.66,6.66,0,0,0,3.47-1.24,2.64,2.64,0,0,1,.83-.4,3.65,3.65,0,0,0,2-1,8.47,8.47,0,0,1,2.76-1.2c.26.2.4.25.45.35,1,2,2.82,2.75,4.91,3a50.56,50.56,0,0,0,7.88-.1,11.47,11.47,0,0,0,2.55-.58c.72-.21,1.4-.51,2.17-.79a1.77,1.77,0,0,1,.29-.39,7.57,7.57,0,0,0,2.09-3.27,1.28,1.28,0,0,1,.25-.51c1.55-1.56,1.91-3.76,3-5.59a5.89,5.89,0,0,0,.35-1.83,1.53,1.53,0,0,1,1.13-1.43A2.6,2.6,0,0,1,419.22,572.41ZM474.55,654a10.35,10.35,0,0,1-.45-1c-.11-.39.06-.69.33-.67a.54.54,0,0,1,.53.59A5.56,5.56,0,0,1,474.55,654ZM478,608.63c-.73,2.13-1.05,4.4-2.29,6.35a2.12,2.12,0,0,0-.23.88,7.26,7.26,0,0,1-.12,1.49,28.82,28.82,0,0,0-1,5.68,13.72,13.72,0,0,0-.22,4.29,28.45,28.45,0,0,1,.09,4.13c0,2.37.27,4.74.39,7.12.08,1.5.09,3,.16,4.5a2.28,2.28,0,0,1-1,1.82c.52.92,1,1.63.63,2.61a2.9,2.9,0,0,0,.15,1.46,4.57,4.57,0,0,1-.11,1.87,5.15,5.15,0,0,1-1.71-2.79c-.51-2-1-4.11-1.55-6.16-.41-1.56-.78-3.15-1.32-4.67-.41-1.17-.84-2.33-1.22-3.51a15.37,15.37,0,0,1-.5-3.86,21.06,21.06,0,0,1,.19-4.49,5.46,5.46,0,0,1,1.62-3.7,2.76,2.76,0,0,0,.5-.77c.82-1.55,1.28-3.24,2-4.83a28.84,28.84,0,0,1,2-4.61,2.69,2.69,0,0,0,.33-1.06,7.89,7.89,0,0,1,1.07-3.11c.64-.36,1.22-.7,1.82-1a.56.56,0,0,1,.76.56A12.27,12.27,0,0,1,478,608.63Zm69.18-86.25c-.33,0-.56,0-.8,0-.51,0-.87.45-.71.85s.47.85.77,1.39a3,3,0,0,1-.73-.07,5.06,5.06,0,0,1-3.06-2.86,2.8,2.8,0,0,0-1-1.53,1.57,1.57,0,0,1-.43-.6,31.71,31.71,0,0,0-3.91-5.5,4.85,4.85,0,0,0-1.3-1c-1.71-1-3.58-1.82-5-3.28a3.5,3.5,0,0,0-2.68-1,17.66,17.66,0,0,1-6.32-1.61c-1.51-.61-3-1.16-4.55-1.73a1.55,1.55,0,0,0-.56-.11c-1.74,0-3.49,0-5.24,0-1,0-2,.12-3,.15-2.51.07-5,.11-7.52.17-.68,0-1.37,0-2.05.06a10,10,0,0,0-3.94,1.13,6.2,6.2,0,0,1-1.95.63,30.88,30.88,0,0,0-4.53,1.21c-1.29.47-2.62.83-3.95,1.2a2.75,2.75,0,0,0-1.25.76,31.72,31.72,0,0,1-2.5,2.28,13.06,13.06,0,0,1-1.75,1.08,2,2,0,0,1-1.47.14.85.85,0,0,1-.76-1.08c.07-.36.22-.72.28-1.08a2.7,2.7,0,0,0,0-.75,1.8,1.8,0,0,0-.23-.4l-1.68.18a2.32,2.32,0,0,1-1.15-2.16,7.9,7.9,0,0,1,1.38-5.15c1.16-1.47,2.11-3.1,3.2-4.63a11.49,11.49,0,0,0,1.65-2.71,3.9,3.9,0,0,1,1.42-1.7,31.39,31.39,0,0,0,3.66-3.24,11.92,11.92,0,0,1,2.76-1.93c1.75-.83,3.53-1.61,5.27-2.45a23.65,23.65,0,0,0,2.79-1.55,2.94,2.94,0,0,1,2.11-.53,48.94,48.94,0,0,1,6.12.95,20.86,20.86,0,0,0,3.69.59c2.81.21,5.58.69,8.36,1,.38,0,.75,0,1.12.09,4.49.61,8.69,1.88,12,5.15-.08.33-.15.62-.23,1a1.85,1.85,0,0,0,.56-.13,1.06,1.06,0,0,1,1.38,0c.87.62,1.75,1.22,2.6,1.86.53.38.51.41.82,1.46a3.15,3.15,0,0,1,2.59,1.8,3.87,3.87,0,0,1,.1,1,6.6,6.6,0,0,0-.8-.18c-.22,0-.55,0-.65.09s0,.45.26.59.21.17.32.17c1.45.1,2.19,1.08,2.83,2.2s1.58,2,1.67,3.39l-1.28,1.18c-1,.34-1.3-.68-2-.86a.61.61,0,0,0-.48.87,24.41,24.41,0,0,0,1.11,2.38,1,1,0,0,0,1.12.49c.43-.1.86-.33.84-.87a2.11,2.11,0,0,1,.69-1.6c.92.17.34.84.55,1.21.12,0,.3,0,.33,0,.28-.46.52-.93.85-1.55a6.8,6.8,0,0,1,.68.83c.3.55.55,1.13.84,1.68a1.21,1.21,0,0,1,.07,1.07,1.37,1.37,0,0,0,0,.87,1.18,1.18,0,0,1-.39,1.49.46.46,0,0,0,0,.79.68.68,0,0,0,.87,0,1.44,1.44,0,0,0,.31-.45c.15-.26.27-.54.41-.81,1.17.38.36,1.18.51,1.8s1,.8,1.61,1.36c-.08,1.17.77,2,1.56,2.85-1.17,1-2,0-3.07-.37,0,.27-.06.48,0,.57.5.55,1,1.07,1.57,1.64a6.84,6.84,0,0,0-.63,1A5,5,0,0,0,547.18,522.38ZM484.9,462.76a4.83,4.83,0,0,1,.37,1.07,2.42,2.42,0,0,1-.94,3,24.79,24.79,0,0,1-4.28,2.72,14.1,14.1,0,0,0-1.3.75,13.2,13.2,0,0,1-3.91,1.78,3.35,3.35,0,0,0-2.35,1.43,3,3,0,0,1-1.59,1.19.9.9,0,0,1-.82-1.07,9.27,9.27,0,0,1,1.48-4.57c.75-1.07,1.49-2.15,2.21-3.25.34-.52.57-1.11.93-1.62.89-1.28,1.8-2.56,2.75-3.8a4.17,4.17,0,0,0,1-1.76.87.87,0,0,1,.26-.49c1.06-.87,2.13-1.72,3.2-2.56,0,0,.12,0,.23,0,.54.52,1,1,1.45,1.37a3.35,3.35,0,0,1,1.16,3.71A2.58,2.58,0,0,0,484.9,462.76Zm70.81,74a30.32,30.32,0,0,1,2.25,7.69,11,11,0,0,0,.29,1.09c.76,2.64,1.62,5.25,2.24,7.93a15.48,15.48,0,0,1,.92,4.16,6,6,0,0,0,.37,1.45q.88,3.55,1.75,7.12c.06.24.07.5.15.73a39.38,39.38,0,0,1,1.4,5.84c.16.86.78,1.58.66,2.52-.09.73-.09,1.47-.14,2.46a4.81,4.81,0,0,1,.92,2.31c.3,1.72.76,3.42,1.09,5.13a20.71,20.71,0,0,1,.19,2.24c.16,2,.77,4,.61,6.14a5.53,5.53,0,0,0,.28,1.46,2.38,2.38,0,0,1,0,1.78c-.11,0-.21,0-.24,0a4,4,0,0,1-1.06-3c0-.23,0-.57-.1-.7-.71-.68-.57-1.46-.25-2.35a3.9,3.9,0,0,1-1.16-2.39c-.58-2.76-.79-5.56-1.27-8.33-.27-1.59-.77-3.13-1.17-4.7,0-.12-.12-.23-.14-.35-.45-3.27-2-6.32-2-9.7a2,2,0,0,0-.54-1.35,7.61,7.61,0,0,1-1.78-3.67,1.53,1.53,0,0,0-.23-.7,17.41,17.41,0,0,1-1.76-4.48,2.48,2.48,0,0,1-.22-.72c0-1.56-.82-2.87-1.38-4.26a11.77,11.77,0,0,1-.43-1.43,8.63,8.63,0,0,0-.22-.91,69.74,69.74,0,0,1-2.48-7.87c-.18-.6-.45-1.17-.65-1.76a2.43,2.43,0,0,1-.21-1.07,3.93,3.93,0,0,0-1.11-3.19,2.27,2.27,0,0,1-.47-1.75c.07-.65.31-1.23,1.11-1.29l.19,0c.34-.09.57-.31.51-.66a1,1,0,0,0-.38-.59c-.71-.49-1.45-.94-2.3-1.47l-.78.06a2.14,2.14,0,0,1-.74-1.85,5.18,5.18,0,0,0,.12-1.79,5,5,0,0,1,.44-1.57c.45.41.75.69,1.06,1s.34.4.56.48a.86.86,0,0,0,.69-.06.72.72,0,0,0,.25-.64,3.36,3.36,0,0,0-1.06-1.71c-.34-.25-.62-.57-1-.95l1.25-1.13c1,.75,1,.75.58,2.5l.78.43a1.56,1.56,0,0,1,.82,1c.63,2.23,1.75,4.29,2.17,6.59a6.61,6.61,0,0,0,.26.7c.31,1.21.63,2.41.92,3.63A10.85,10.85,0,0,0,555.71,536.8Zm-19.65-76.47a24.69,24.69,0,0,0,3.62,2.67,19,19,0,0,0,2.43,1.42,5.11,5.11,0,0,1,2.13,2.55,1.76,1.76,0,0,1,.14.73,1,1,0,0,1-1.23,1,11.87,11.87,0,0,1-1.37-.55c-.15.21-.36.39-.33.5a7.34,7.34,0,0,0,.78,2.27c1.68,2.26,3.51,4.41,5.23,6.63A32.35,32.35,0,0,1,550,481a25.92,25.92,0,0,0,2.7,3.59,8.68,8.68,0,0,1,1.53,2.34,8.46,8.46,0,0,0,.85,1.39c-.64.88-1,1.09-1.68.77a6.42,6.42,0,0,1-1.73-1.09,3.52,3.52,0,0,0-1.39-.9,8.57,8.57,0,0,1-3.5-2.44,59.77,59.77,0,0,0-5-4.8,33,33,0,0,1-4.16-4,10.38,10.38,0,0,0-1.36-1.29,6.11,6.11,0,0,1-.74-.58,47.12,47.12,0,0,0-4.37-4.11c-1.32-1.23-2.63-2.47-4-3.59a4.49,4.49,0,0,1-1.13-1c-1.11-1.73-2.93-2.29-4.72-2.75a2.93,2.93,0,0,1-2.36-1.89,6.52,6.52,0,0,0-2.24-2.92l-.76-.69a1.42,1.42,0,0,1,.82-1.47,2.83,2.83,0,0,0,1.3-2.45c-.31-.24-.65-.5-1-.77a.84.84,0,0,1,.26-1.57,5.67,5.67,0,0,1,3.83.09,34.36,34.36,0,0,1,6,2.7A38.63,38.63,0,0,1,536.06,460.33Zm-62.81-26.52a20.68,20.68,0,0,1,3.74-1.72c1.89-.52,3.62-1.41,5.45-2,1.66-.56,3.34-1.1,5-1.51,3.17-.76,6.34-1.48,9.53-2.11a43.61,43.61,0,0,1,9.12-1.06,47.39,47.39,0,0,1,6.53.68c1.36.21,2.73.35,4.09.53a39.78,39.78,0,0,1,6.71,1.8c1.73.55,3.45,1.15,5.15,1.78a6.84,6.84,0,0,1,1.79,1,2.78,2.78,0,0,1,1.2,2,41,41,0,0,1,.22,4.3,25.47,25.47,0,0,0,.68,6.14,1,1,0,0,1-1.06,1.34,2.14,2.14,0,0,1-1.76-.94,7.86,7.86,0,0,1-1.54-3.58c-.23-1.86-.46-3.73-.71-5.59a1.23,1.23,0,0,0-.26-.68.75.75,0,0,0-.64-.19,1.47,1.47,0,0,0-1,1.07c-.29,1.21-.62,2.42-.94,3.63-.12.42-.24.84-.35,1.27-.35,1.41-1.48,2.1-2.61,2.76-.19.11-.6,0-.84-.17s-.39-.49-.64-.67a2.87,2.87,0,0,0-1-.49,15.69,15.69,0,0,0-1.67-.27c-1.17-.17-1.57,0-2,1.15-.37.86-.68,1.75-1,2.61a9.92,9.92,0,0,1-.71,1.51,3.83,3.83,0,0,0-.68,1.71,4.66,4.66,0,0,1-.62,1.35,4.91,4.91,0,0,0-.67,2.86,4.33,4.33,0,0,1-.23,1.46c-.34,1.39-.84,2.76-.34,4.26a10.62,10.62,0,0,1-3.39.59,23.89,23.89,0,0,0-4.83.59,2.38,2.38,0,0,0-.72.18,4.25,4.25,0,0,1-2.81.53c-.4.39,0,.61.08,1a3,3,0,0,1-2,.62,5.41,5.41,0,0,0-3.51,1,2.74,2.74,0,0,1-.49.29c-1.13.45-1.72,0-1.67-.95a10.81,10.81,0,0,0-.77-4.21,16.74,16.74,0,0,1-.55-2.75,1,1,0,0,1,.05-.56c.71-1.3,1-2.8,1.78-4.06.14-.21.28-.47.48-.56,1.47-.65,2.85-1.69,4.59-1.31,2.19.47,4.38.08,6.56,0,1.5,0,3-.27,4.5-.38a2.6,2.6,0,0,0,2.46-2.2,4.71,4.71,0,0,0-.06-2.78c-.14-.41-.31-.82-.49-1.22a3.92,3.92,0,0,1-.58-2.86c.14-.51-.3-.93-.88-1a6.14,6.14,0,0,0-3.15.23,4.4,4.4,0,0,1-1.46.27,5.74,5.74,0,0,1-1.31,0c-2.88-.36-5.74.11-8.62.14a19.27,19.27,0,0,0-5,.81,57.13,57.13,0,0,1-7.74,1.4,5.63,5.63,0,0,1-3.59-.9,3.74,3.74,0,0,1-1.56-3.07c-.05-.55,0-1.1-.06-1.65-1.42-.64-2.72.63-3.84-.35C472.48,434.27,472.88,434,473.25,433.81Zm-7.73,21.41a7.44,7.44,0,0,0,.52-4.57,5.62,5.62,0,0,1,1.49-5l.76-.83c.87-1,.95-1,2.06-.6a11.52,11.52,0,0,1,2.7,1.27c.89.66.5,1.87.81,2.81a4.63,4.63,0,0,0,.22.42,2.15,2.15,0,0,0,1.65-.5,8.2,8.2,0,0,1,3.33-1.22c1.24-.2,2.45-.46,3.68-.67a4.69,4.69,0,0,1,1.67,0c.29.06.52.42.84.7a3.2,3.2,0,0,1-.65.56,25.21,25.21,0,0,1-4.69,1.91,13.18,13.18,0,0,0-2.75,1.16c-.67.33-1.29.77-1.93,1.15a26.16,26.16,0,0,0-3.54,2.13,17.47,17.47,0,0,0-2.7,3.1,6,6,0,0,1-2.12,1.49.8.8,0,0,1-1.1-.44A3.15,3.15,0,0,1,465.52,455.22Zm-13.14-42.83a9.19,9.19,0,0,1-.22,3.17,4,4,0,0,0,.38,2.73,16.88,16.88,0,0,1,1.44,5c.22,1.48.57,2.94.87,4.42a1,1,0,0,0,.19.52c.91,1,.84,2.33,1.32,3.47a2.53,2.53,0,0,1,.11.92,4,4,0,0,0,0,.92,12.53,12.53,0,0,1,.36,4.8,18,18,0,0,0,.84,6.3,6.4,6.4,0,0,1,.2,3.14,6.79,6.79,0,0,0,.2,2.22,5.9,5.9,0,0,1,.22,2.22,3.76,3.76,0,0,0,.2,1.29,4.82,4.82,0,0,1,.17,1.29,14,14,0,0,0,.19,3.54,11.91,11.91,0,0,1-.18,3.36,5,5,0,0,0,.27,2.76,1.63,1.63,0,0,1-.25,2c-.08.08-.08.22-.13.39a7.92,7.92,0,0,1,1.07.94.9.9,0,0,1-.35,1.53c-.28.11-.55.25-.78.35-.21,1.13.71,1.09,1.35,1.46a10.39,10.39,0,0,0,2,4.28c.41.62.93,1.22.62,2.08-.06.17.11.44.2.65s.29.54.42.82a1.88,1.88,0,0,1,.07,1.47c-.22.56-.74.61-1.22.74a3.76,3.76,0,0,0-.55.35c.23.44.33.92.62,1.16a2.42,2.42,0,0,1,.81,3.15,4.36,4.36,0,0,0-.2,2,2.09,2.09,0,0,0,.75,1.64,2.33,2.33,0,0,1,.63.91c.32.89.15,1.4-.74,2.41.42.27.81.54,1.23.77a1,1,0,0,1,.52,1.26,1.39,1.39,0,0,0,.13,1.39c.7,1.1.46,2.44.84,3.63.15.46-.18.8-.47,1.15-.48.58-.44.61.22,1.33.08.09.24.21.22.26-.33.75.08,1.23.52,1.79.23.3.16.84.17,1.27a41.66,41.66,0,0,0,.2,4.87,1.68,1.68,0,0,1-.05.74,10.08,10.08,0,0,0,0,3.55,1.36,1.36,0,0,0,.36.83,4,4,0,0,1,.8,2.07c.24,1.09.58,2.17.88,3.25.2.73.43,1.44.63,2.17a6.14,6.14,0,0,0,.41,1.44,10.08,10.08,0,0,1,.86,3.4,17.5,17.5,0,0,1,.08,4.68c-.12,1.56-.24,3.11-.26,4.68q0,3.55,0,7.13a16,16,0,0,0,.2,1.68,8.62,8.62,0,0,1,0,3.54c0,.05-.08.12-.07.17.39,1.28.1,2.6.19,3.9.15,2.18.5,4.35.74,6.52.09.81.07,1.63.12,2.44a11.56,11.56,0,0,0,.19,1.66,16.94,16.94,0,0,1,.46,4.48,12.92,12.92,0,0,0,.35,3.16,12.66,12.66,0,0,1,.24,4.83,13.84,13.84,0,0,0,.14,3.15,24.59,24.59,0,0,1-.34,3.16,4.91,4.91,0,0,0,.25,1.28,35.85,35.85,0,0,0-1.63,4.37c-.84,2.68-1.48,5.41-2.08,8.15s-1.81,5.05-2.61,7.62a8.66,8.66,0,0,0-.81,3.62,2.15,2.15,0,0,1-.33,1.06,15.22,15.22,0,0,0-1,3,7.76,7.76,0,0,0-.17,3.35,3.27,3.27,0,0,1-.4,2.35c-.87,1.37-1.28,3-2.47,4.19a3.27,3.27,0,0,0-.6,1.35,1.63,1.63,0,0,1-1.4,1.09c-.42.09-1-.19-1-.61,0-.91-.68-1.27-1.19-1.86a2.33,2.33,0,0,0-.69.17,7,7,0,0,1-4.35.66c-1.62-.08-3.24-.06-4.87-.08l-3.72-.08c-.75,0-1.51,0-2.26,0a2.58,2.58,0,0,1-1.27-.19c-1.15-.83-2.62-.79-3.77-1.48a3.23,3.23,0,0,0-2.62,2.9,5.52,5.52,0,0,1-1,2.78c-.45.55-.94.64-1.44.19s-1.24-1.08-1.09-2a1.7,1.7,0,0,0-.17-.91,1.52,1.52,0,0,1,0-1.25,11,11,0,0,0,.08-5,11.53,11.53,0,0,0-1.08-3.58,9.15,9.15,0,0,1-.59-2.54,12.69,12.69,0,0,1-.29-2,7.92,7.92,0,0,1,.66-3.28,9.58,9.58,0,0,0,.66-4.23,2.64,2.64,0,0,0,0-.75,4.15,4.15,0,0,1,.13-3c.87-1,1.53-1.69,2.22-2.41.3-.31.68-.53,1-.83s.65-.72,1-1.12c-.63-1.11-1-2.27-2.27-2.68a7.41,7.41,0,0,1-.12-3c.12-.8.14-1.62.23-2.43a12.67,12.67,0,0,1,.28-1.47,11.31,11.31,0,0,0,.34-5,7.46,7.46,0,0,1-.06-2.06,8,8,0,0,0-.61-3.83,21.93,21.93,0,0,1-2.09-6,2.44,2.44,0,0,1,.25-1.9,4.75,4.75,0,0,1,.84,0c.73.13,1.46.3,2.22.46a26.22,26.22,0,0,0,1.79,2.07,1.58,1.58,0,0,0,2.58-.26c.5-.93,1.41-1.56,1.78-2.59.1-.3.51-.52.81-.72,1.2-.81,1.39-1.89.33-2.73a4.2,4.2,0,0,1-1.14-1.64,15.58,15.58,0,0,1-1.46-5.6c-.32-3.17-.61-6.36-1-9.53-.15-1.36-.41-2.71-.6-4.07a7.07,7.07,0,0,1-.07-1.13,29.81,29.81,0,0,0-.41-4.1,32.54,32.54,0,0,1-.18-5c.06-1.75.38-3.47.4-5.22a42.84,42.84,0,0,1,.64-6.88c.2-1.12.22-2.22.36-3.33.09-.74.19-1.49.29-2.23.11-.93.23-1.87.33-2.8a5.25,5.25,0,0,0-.39-2.56c-.6-1.51-1.07-3.07-1.6-4.6a8,8,0,0,0-.47-1c-.14-.28-.35-.53-.46-.82-.78-2.11-1.54-4.22-2.31-6.33-.11-.3-.2-.6-.33-.88-.6-1.31-1-2.7-1.52-4-1.44-3.73-2.79-7.5-4.57-11.1-1.37-2.8-2.67-5.64-3.83-8.53a2.2,2.2,0,0,0-.25-.51,32.42,32.42,0,0,1-3.15-6.59,19,19,0,0,0-1.3-2.91,2.37,2.37,0,0,1-.36-.87,5,5,0,0,0-.77-1.88c-.47-.71-.42-1.7-1.09-2.34-.58-2.19-2-4.05-2.58-6.22a6.09,6.09,0,0,0-.51-1.21,23.61,23.61,0,0,1-1.5-3.64c-.54-1.66-1.33-3.24-1.9-4.89a35.92,35.92,0,0,1-2-6.08,10.9,10.9,0,0,0-.28-1.09c-.49-2.13-1-4.26-1.46-6.39a25.52,25.52,0,0,1-.34-2.61,8.42,8.42,0,0,0-.45-2.77,1.67,1.67,0,0,1-.08-.55c-.14-3.64-.84-7.22-1.19-10.83-.19-2-.36-4-.49-6-.17-2.62-.29-5.24-.4-7.86,0-.87.08-1.75,0-2.61s.36-1.67.05-2.6a10.6,10.6,0,0,1-.22-2.78c0-.88-.07-1.75-.07-2.63,0-1.93.05-3.86.09-5.78a4.14,4.14,0,0,1,.21-.91,4.43,4.43,0,0,0,0-2.6,6.14,6.14,0,0,1-.23-2.4c0-.82,0-1.63,0-2.45a5.91,5.91,0,0,1-.07-.93c.35-2.42-.09-4.86.19-7.3a45.08,45.08,0,0,0,0-5.45c0-2.88,0-5.77-.1-8.65-.15-4.63-.52-9.27-.48-13.9,0-2.83-.86-5.42-1.43-8.09-1-4.54-1.81-9.09-2.45-13.68a52.35,52.35,0,0,1-.71-6,77,77,0,0,1-.14-8.46c.3-3.43.45-6.87.8-10.3.16-1.61.65-3.18.95-4.78a17.61,17.61,0,0,0,.43-3,30.28,30.28,0,0,1,1-5.35,83.3,83.3,0,0,0,1.64-9.81,16.7,16.7,0,0,0,.07-1.87c0-2.2-.07-4.39-.12-6.59a28.26,28.26,0,0,0-.12-3.19,3.77,3.77,0,0,1,.28-1.86c-1.43-2.32-2.49-4.85-4.06-7.13a44.83,44.83,0,0,1-3.88-6.64,29.13,29.13,0,0,0-2-3.37c-1.91-2.94-3.62-6-5.31-9.07-.63-1.15-1.43-2.2-2.13-3.32a11.8,11.8,0,0,1-1-1.81,4.92,4.92,0,0,1-.14-1.34l1.7-.35a1.31,1.31,0,0,0,.28-.24,9.85,9.85,0,0,0,1.91-5.38,24.44,24.44,0,0,1,1-4.15,92.31,92.31,0,0,0,2.51-9.4c.15-.9-.33-1.75-.12-2.59a4.6,4.6,0,0,0,.12-2.66l1.22-1.07c.37-2,.76-4.11,1.2-6.25a15.46,15.46,0,0,1,.89-3.25,28.76,28.76,0,0,0,1.9-5.49,22,22,0,0,1,2.53-5.64c.42-.76.84-1.53,1.22-2.32,1.48-3,3.09-6,4.77-8.93a10.65,10.65,0,0,0,1.4-3.83,3,3,0,0,1,.15-.73,32,32,0,0,0,2.35-9.42,46,46,0,0,0,.13-5.25,68.43,68.43,0,0,0-.39-7.31c-.43-3.24-.17-6.5-.44-9.74s-.16-6.48-.13-9.72c0-.82-.08-1.63-.1-2.44,0-2.07,0-4.13.06-6.2.06-2.24-.07-4.48.21-6.71a13.58,13.58,0,0,1-.08-3.37,54.31,54.31,0,0,1,.38-7.65,2.29,2.29,0,0,0-.1-1.11c-.88-1.92-.87-4-1.24-6a22.89,22.89,0,0,1,0-4.68,18.22,18.22,0,0,0,0-4.11,1.51,1.51,0,0,1,0-.56,38.49,38.49,0,0,0,.44-7.11,8.52,8.52,0,0,1,.12-1.12c.45-2.58.38-5.25,1.27-7.76a17.31,17.31,0,0,1,.73-4.4c.32-1.59.74-3.17,1.11-4.75a2.68,2.68,0,0,0,.13-.74,11.34,11.34,0,0,1,.53-3.31,11.78,11.78,0,0,0,.22-3,27.72,27.72,0,0,1,.2-3.75,29,29,0,0,0,.11-3.37c.09-2.51.16-5,.33-7.51.22-3.26.43-6.51.81-9.74A41.84,41.84,0,0,1,413.21,9c.3-1.07.26-2.22.63-3.31a2.94,2.94,0,0,1,1.29-1.78,1.93,1.93,0,0,0,1-1.27,1,1,0,0,1,.95-.78c1.12,0,2.25-.06,3.38-.07a1.25,1.25,0,0,1,1.25.94c.23.65.48,1.28.69,1.83.94.48,1.87-.28,2.74.34a4,4,0,0,1,.28,3,25.89,25.89,0,0,0-.34,4.67,26.6,26.6,0,0,1-.78,5.95,7.5,7.5,0,0,0-.19,2.41c.22,2.49.53,5,.81,7.46a2.73,2.73,0,0,0,.14.92c.9,1.75.57,3.65.73,5.49a59.29,59.29,0,0,0,1,8.58c.53,2.24.78,4.56,1.2,6.83s.95,4.66,1.41,7,1,4.79,1.37,7.2a6.94,6.94,0,0,0,1,3,1.71,1.71,0,0,1,.15,1.78,15.5,15.5,0,0,1-1,2.23,11.69,11.69,0,0,0-1.66,5.33c-.08.74-.27,1.47-.4,2.2-.33,1.92-.64,3.84-1,5.75-.13.74-.29,1.48-.46,2.21-.48,2.2-.9,4.41-1.18,6.65a37,37,0,0,1-1.33,6.62,8.31,8.31,0,0,0,0,5.15,46.54,46.54,0,0,0,2.61,6.43q1.13,2.25,2,4.59a15.94,15.94,0,0,1,.62,2.35,63.28,63.28,0,0,1,.72,6.72,10,10,0,0,1-.25,3.36c-.14.54-.27,1.1-.43,1.64a3.3,3.3,0,0,0,.11,2.21c1.05,2.74,2,5.52,3.16,8.23a8.53,8.53,0,0,0,2.17,3.46,2.18,2.18,0,0,1,.76,2c-.13,1.43.09,2.87-.18,4.31a14.74,14.74,0,0,1-1.23,4.32,2.91,2.91,0,0,0,0,2.72c.36.73.76,1.45,1.15,2.16a41.46,41.46,0,0,1,2.5,4.63c.81,2.1,2,4,2.93,6,.31.69.69,1.34,1,2,.68,1.55,1.36,3.09,2,4.67a3.92,3.92,0,0,0,1.45,1.9,2.53,2.53,0,0,1,1.13,2.78,23.64,23.64,0,0,1-1,3.8,27.69,27.69,0,0,1-3,6.24,7.09,7.09,0,0,1-2.19,2.27,1.72,1.72,0,0,0-.9,1.73,5.13,5.13,0,0,0,.09,1.31c.71,2.09.69,4.32,1.23,6.44.35,1.39.91,2.73,1.36,4.1.33,1,.65,2,.93,3.05.37,1.33.61,2.69,1.05,4a31.15,31.15,0,0,0,1.41,3.06,11.41,11.41,0,0,1,.83,3.26,25.27,25.27,0,0,0,.56,2.75c.36,1.4.73,2.79,1.18,4.15a4,4,0,0,1,0,2.22c-.29,1.22-.66,2.42-1,3.61-.29,1-.63,1.9-.95,2.85a5.72,5.72,0,0,1-.45,1.24,12.06,12.06,0,0,0-1.27,3.32,11,11,0,0,1-1.33,2.89c-.92,1.5-1.76,3-2.62,4.53a36.81,36.81,0,0,1,1.33,7.8,20.39,20.39,0,0,0,.76,3.68,4.79,4.79,0,0,1,.49,2.53,1,1,0,0,0,.25.69,5.53,5.53,0,0,1,.73,2.87,22.14,22.14,0,0,0,.37,3.55,19.9,19.9,0,0,1,.24,5.81,35.76,35.76,0,0,0,0,5.07c.1,2.36.29,4.73.41,7.09a51.66,51.66,0,0,1-.18,5.42,37.45,37.45,0,0,0,.43,7.48,16.84,16.84,0,0,1,.31,2.23,21.36,21.36,0,0,1,.08,4.86.41.41,0,0,0,0,.19c.48,1.46.22,3,.43,4.47a50.43,50.43,0,0,1,.57,7.86,10.25,10.25,0,0,1-.17,3.36.4.4,0,0,0,0,.19c.44,3.17.05,6.36.22,9.54a21.84,21.84,0,0,1-.86,7.22c-.13.42-.38.8-.51,1.21a4.13,4.13,0,0,0-.3,1.45,29.45,29.45,0,0,1-.45,5.05,9,9,0,0,0,.11,2.59c.3,1.61.93,3.11,1.37,4.66a56.45,56.45,0,0,1,2.08,9.53,11,11,0,0,0,.39,2.22,13.06,13.06,0,0,1,.54,4.26,30.59,30.59,0,0,0,0,4.28,34.77,34.77,0,0,1,0,4.45,4.29,4.29,0,0,1-.24.9c-.06.24-.2.51-.14.72.5,1.73.08,3.5.33,5.24a33.14,33.14,0,0,1,.47,4.66,34.77,34.77,0,0,0,.7,5.57,4.39,4.39,0,0,1,0,1.49,18.79,18.79,0,0,0,.54,7.08C451.62,408.09,452.1,410.22,452.38,412.39Zm21-370.17a2.65,2.65,0,0,1-.58-.47,3.57,3.57,0,0,0-1.86-1.21,1.47,1.47,0,0,1-1.15-1.34c-.24-1.92-.51-3.84-.71-5.77a2.07,2.07,0,0,1,.28-1.07,1.23,1.23,0,0,1,1.9-.33,9.11,9.11,0,0,1,3.42,5,9.8,9.8,0,0,0,.52,1.21,6.5,6.5,0,0,1,.52,2.8C475.77,42.67,474.66,43,473.36,42.22ZM576.72,250.63a.92.92,0,0,1-.48-.47c-.08-.22.37-.58.63-.51s.25.22.32.29C577.23,250.41,577,250.73,576.72,250.63Zm-33-181.77c1.43.45,2.81,1.07,4.2,1.64a.76.76,0,0,1,.58.94,5.66,5.66,0,0,1-1.23-.14c-1.73-.56-3.55-.67-5.32-1.06-2.14-.48-4.28-.95-6.44-1.33a45.57,45.57,0,0,0-8-1c-1.31,0-2.62-.15-3.92-.21-2.76-.13-5.51-.26-8.27-.33a16.63,16.63,0,0,0-2.43.22,7.65,7.65,0,0,1-2.24,0c-.91-.16-1.88,0-2.8-.18-2.29-.37-4.61-.27-6.92-.42s-4.86-.36-7.28-.65c-1.74-.2-3.45-.56-5.18-.85a14.76,14.76,0,0,1-2.83-1,2.87,2.87,0,0,1-.9-.66.85.85,0,0,1-.2-1,2.25,2.25,0,0,1,1.84-1.44,12.45,12.45,0,0,1,3.55.12,52.73,52.73,0,0,0,7.84.79c1.75.11,3.48.43,5.22.64.62.08,1.24.13,1.85.2,1.25.13,2.5.22,3.73.4a10.76,10.76,0,0,0,3.92,0,21.52,21.52,0,0,1,5.25-.34c3.56.1,7.13.31,10.68.69a19,19,0,0,1,5.44,1.3Q538.75,67.26,543.75,68.86Zm-3.47-26a1.05,1.05,0,0,1,.77,1.56,1.5,1.5,0,0,1-.59.69,11.13,11.13,0,0,1-2.43.95c-1.95.39-3.95.56-5.89,1-2.51.56-5,.09-7.44-.12-.34,0-.65-.32-1.14-.58l.88-3a15.65,15.65,0,0,1,4.27-.75,12.31,12.31,0,0,0,3.28-.7,9.5,9.5,0,0,1,2.19-.47,1.57,1.57,0,0,1,1.06.18c1.07.81,2.36.75,3.56,1C539.29,42.75,539.8,42.75,540.28,42.85Zm-57.95-9.24a3.43,3.43,0,0,1,1.75-4.13,39,39,0,0,1,5.12-2.28,1.18,1.18,0,0,1,.55-.11,9.31,9.31,0,0,0,4.57-.86,7.71,7.71,0,0,1,4.93-.16,11.53,11.53,0,0,0,3.17.14c2.57,0,5.13-.11,7.7-.17,1.62,0,3.24-.09,4.86-.08,2.44,0,4.89,0,7.31.15a45.26,45.26,0,0,1,8.16,1.27c1.32.35,2.72.36,4.08.59s3,.54,4.42.82a.86.86,0,0,1,.73.75,2.23,2.23,0,0,1-.24,1.72,22.37,22.37,0,0,1-4.6-.37,52.58,52.58,0,0,0-7.82-.68,16,16,0,0,1-3.68-.68,9.73,9.73,0,0,0-3.69-.38c-1.91.2-3.86.11-5.79.18a21.46,21.46,0,0,0-4.65.53,20.46,20.46,0,0,1-2.61.33c-1.92.23-3.85.43-5.77.67-2.17.27-4.34.57-6.51.86a10.37,10.37,0,0,0-1.12.13c-1.7.42-3.39.86-5.08,1.3-.49.12-1,.22-1.45.37-.95.3-1.89.64-2.84,1A1,1,0,0,1,482.33,33.61ZM563.64,105c.08.24.47.39.7.59.94.82,1.89,1.63,2.8,2.48a4.2,4.2,0,0,1,.53.91,6.22,6.22,0,0,0-1.1.31,6.72,6.72,0,0,0-.93.64,11.15,11.15,0,0,1-1.2-.63,12.54,12.54,0,0,0-4.36-1.53,3.1,3.1,0,0,1-1.05-.35,84.51,84.51,0,0,0-12.61-6.25c-1.55-.67-3.06-1.43-4.59-2.15a5.7,5.7,0,0,0-2.49-.76,2.7,2.7,0,0,1-.9-.25c-1.29-.48-2.59-.94-3.86-1.46a49.4,49.4,0,0,0-6.66-1.85c-3.08-.78-6.08-1.92-9.11-2.92-.83-.27-1.66-.54-2.48-.86-1.22-.48-2.4-1.06-3.64-1.49-1.71-.61-3.45-1.14-5.2-1.66-2.69-.8-5.36-1.66-8-2.61-1.52-.54-3.08-1-4.62-1.53a7.91,7.91,0,0,1-1.73-.69,10.73,10.73,0,0,0-4.07-1.33,9.18,9.18,0,0,1-3.08-.81,1.52,1.52,0,0,0-1.27-.07,1.38,1.38,0,0,1-1.35-.48,1,1,0,0,1-.26-1.31,11.7,11.7,0,0,1,3.57-.44c1.37.07,2.74.31,4.1.47a10.87,10.87,0,0,0,1.5.14,57.48,57.48,0,0,1,7.29.71c1.24.14,2.49.2,3.74.32.87.09,1.74.23,2.61.31,1.37.11,2.75.09,4.11.28a28.44,28.44,0,0,1,6.24,1.2,16.23,16.23,0,0,0,2,.39c2,.43,4.05.86,6.06,1.33.72.16,1.43.44,2.14.67.29.09.58.23.88.3a60.61,60.61,0,0,1,12.86,4.64c2.3,1.1,4.72,2,7,3,3.91,1.83,7.78,3.76,11,6.68.92.82,2,1.51,3,2.28,0,.37.07.73.11,1.19A5.53,5.53,0,0,1,563.64,105Z" transform="translate(0 1.94)"/><path d="M484.66,108.49a2.93,2.93,0,0,1,2.45-.52,9.63,9.63,0,0,1,1.85.29,25.54,25.54,0,0,0,6.16.58c3,.09,6,.3,9,.46,2.7.14,5.34.6,8,.84s5.48.46,8.22.66a76.74,76.74,0,0,1,8.91,1.27c3,.56,6,1.41,9.08,1.38a8.63,8.63,0,0,1,2.34.58c1.26.37,2.51.79,3.78,1.13,1.75.46,3.51.88,5.28,1.31.48.12,1,.21,1.46.31,1.35.29,2.69.6,4,.86a29.55,29.55,0,0,0,3,.45,14.52,14.52,0,0,1,4,.87,3.85,3.85,0,0,0,.52.22,10.3,10.3,0,0,1,3.62,1.48,31.9,31.9,0,0,0,3.39,1.6,8.81,8.81,0,0,1,1,.66,1.18,1.18,0,0,1-.84,1.22,2.19,2.19,0,0,0-1.54,1.25l-1.79-.62c-.16.09-.36.22-.58.33-.77.41-1.51.6-2.15-.26a1.73,1.73,0,0,0-1.69-.6c-1.9.29-3.72-.51-5.6-.29a2.34,2.34,0,0,1-.73-.13,10.72,10.72,0,0,0-2.39-.46,11.68,11.68,0,0,1-3.43-.68,17,17,0,0,0-4.8-.65c-1.06,0-2.11-.11-3.17-.15-.62,0-1.25,0-1.82,0-.54.69-1,1.26-1.46,1.87a2.39,2.39,0,0,1-1.54,1,22.58,22.58,0,0,1-5.75.75c-1.45-.1-2.88.17-4.29.09-2.37-.15-4.75.49-7.1-.09a1.06,1.06,0,0,0-.56,0c-2.17.73-4.48.34-6.68.89a11.07,11.07,0,0,1-1.81,0c-.62.06-1.27.49-1.82.36a7.15,7.15,0,0,0-4.33.72c-1-.36-1.11-1.3-1.21-2a7.85,7.85,0,0,0-1.27-2.89,6.25,6.25,0,0,1-.59-1,2.16,2.16,0,0,0-1.14-1.18c-.27-.16-.73-.22-.8-.43-.52-1.53-2.23-2-2.94-3.34a4.15,4.15,0,0,0-1.37-1.25c-1.22-.87-2.5-1.67-3.71-2.55a32.66,32.66,0,0,0-6.49-3.34C485,109.28,484.65,109.06,484.66,108.49Z" transform="translate(0 1.94)"/><path d="M261.54,500.48c-.35-1-.61-1.74-.87-2.49s-.56-1.66-.82-2.49c-.19-.6-.36-1.2-.51-1.81a49.88,49.88,0,0,0-1.42-5.6,15.92,15.92,0,0,1-.58-5.38c0-1.56,0-3.12,0-4.69a10,10,0,0,1,0-2,26.19,26.19,0,0,0,.21-7.85c-.21-2.23-.47-4.47-.75-6.7-.21-1.67-.71-3.31-.45-5a1.18,1.18,0,0,0-.05-.56,10.8,10.8,0,0,1-.14-4.8,4.83,4.83,0,0,0-.26-2.76c-.08-.17-.21-.38-.17-.53.36-1.33-.33-2.58-.27-3.88a5.4,5.4,0,0,1,.12-1.67,3.8,3.8,0,0,0,0-2.36c-.23-1-.65-1.92-.18-2.92-.56-.93-.19-2-.34-2.93s-.15-1.73-.21-2.59c0-.25.11-.54,0-.75-.61-1.36-.06-2.85-.48-4.23a2.13,2.13,0,0,1,.07-.93c0-.09.16-.2.26-.21a.36.36,0,0,1,.31.13,7.59,7.59,0,0,0,.26,1.07c.41.9.21,1.9.5,2.86a7.69,7.69,0,0,1-.15,2.76c0,.12-.09.24-.08.36.11,1.62.24,3.23.36,4.84.08,1.11.63,2.16.29,3.32a1.42,1.42,0,0,0,.23.86c.24.51.6,1,.79,1.5a3.37,3.37,0,0,1,.33,1.62,7.68,7.68,0,0,0,0,2.79c.24,1.4.42,2.79.55,4.2.09,1,.31,2,.37,3a5.16,5.16,0,0,0,.27,1.47,2.77,2.77,0,0,1-.22,2.52,2.51,2.51,0,0,0,.09,2.81,10.13,10.13,0,0,1,.65,1.55,1.27,1.27,0,0,1-.09,1.25,1.43,1.43,0,0,0-.26.86c.13,1.42.29,2.84.52,4.25a3.17,3.17,0,0,1,0,1.47,2.77,2.77,0,0,0,0,1.66,13.87,13.87,0,0,1,.4,4.44c0,1.9.35,3.74.5,5.6a14.4,14.4,0,0,1,0,1.86,11.45,11.45,0,0,0,.31,2.78,10.3,10.3,0,0,1,.19,2.22,11.9,11.9,0,0,0,.29,3.16,27.35,27.35,0,0,1,.56,5.4c0,.62.15,1.23.17,1.85C262,499.88,261.78,500.07,261.54,500.48Z" transform="translate(0 1.94)"/><path d="M537.38,246.42l-.78-1a3.27,3.27,0,0,1,.69-.46,1.3,1.3,0,0,0,.91-1.09,3.62,3.62,0,0,0,.17-.53c.23-2.17,1.09-4.21,1.35-6.38a12.36,12.36,0,0,1,.73-2.31,2.74,2.74,0,0,0,.19-.72,7.39,7.39,0,0,1,.55-2.36c.61-2,1.11-4,1.68-5.95.44-1.57.93-3.12,1.4-4.68.54-1.8,1.12-3.58,1.61-5.39s1-3.76,1.41-5.63c.24-1,.47-1.95.72-2.92a2.3,2.3,0,0,1,1.56-1.74.74.74,0,0,1,.92.43,3.31,3.31,0,0,1,0,2c-.75,2.65-1.45,5.31-2.17,8a2,2,0,0,1-.19.53c-.9,1.61-.85,3.52-1.65,5.16a3.41,3.41,0,0,0-.17.92,3.93,3.93,0,0,1-.15.92,11.51,11.51,0,0,0-.93,2,6.94,6.94,0,0,1-.38,2.14,6.76,6.76,0,0,0-.61,2.53,23.39,23.39,0,0,1-.91,3.62c-.41,1.44-.88,2.86-1.33,4.28a9.41,9.41,0,0,1-.39,1.05c-.12.29-.32.54-.44.83-.57,1.44-1.11,2.9-1.69,4.34a3.18,3.18,0,0,1-.64,1.12,1.26,1.26,0,0,0-.32,1.68,2.64,2.64,0,0,1-.18,2.64c-.87,1.79-1.49,3.7-2.26,5.54-1.09,2.58-1.92,5.28-3.24,7.77a30.41,30.41,0,0,1-1.69,2.7c-.09.14-.45.19-.66.15a.57.57,0,0,1-.47-.7c.14-.54.39-1.05.57-1.58a68.85,68.85,0,0,1,3.26-8,9.85,9.85,0,0,0,.45-1.22c.43-1.24.86-2.49,1.28-3.73a6.08,6.08,0,0,0,.35-1.07A5.8,5.8,0,0,1,537.38,246.42Z" transform="translate(0 1.94)"/><path d="M241.52,285.9c.64.29,1.21.52,1.75.82a1,1,0,0,1,.5,1.27,22.56,22.56,0,0,0-.66,6.07c-.08,2.94-.34,5.88-.44,8.82a35.29,35.29,0,0,0-.12,5,14.84,14.84,0,0,1-.06,2.4c-.19,3.82-.39,7.63-.57,11.44,0,.68,0,1.37,0,2.06s-.05,1.37-.05,2.05c0,1.82,0,3.63,0,5.45,0,3.07,0,6.13-.07,9.2,0,1-.18,1.32-1.22,2.45-.11-.72-.22-1.39-.31-2.05a4.64,4.64,0,0,0,0-.75,29.5,29.5,0,0,1-.71-6.14c-.16-2.81-.49-5.61.08-8.42a16.61,16.61,0,0,0,.12-2.25c.1-2.3,0-4.6.3-6.91.2-1.72.12-3.48.16-5.22,0-.13-.07-.26-.05-.37.55-2.78.27-5.61.51-8.41.18-2.05.07-4.13.07-6.2,0-2.5-.05-5,0-7.51A3.81,3.81,0,0,1,241.52,285.9Z" transform="translate(0 1.94)"/><path d="M256.72,379.69c.16.27.37.47.39.68a8.4,8.4,0,0,1,0,3.53,3.53,3.53,0,0,0-.11,1.85,3.58,3.58,0,0,1-.28,2.38c-.62,1.22-.34,2.58-.51,3.87-.07.61,0,1.25,0,1.87a5.75,5.75,0,0,1-.16,1.67c-.65,1.82-.37,3.71-.51,5.56,0,.36,0,.89-.2,1-.74.56-.66,1.31-.66,2.05,0,.49.07,1,.11,1.48.06.82-.23,1-1.37.9a6.17,6.17,0,0,1-.2-2.19,3.9,3.9,0,0,0-.16-1.65,4.44,4.44,0,0,1-.34-2.53,91.72,91.72,0,0,0,.09-9.38,4.35,4.35,0,0,1,.85-2.81,7.66,7.66,0,0,0,1.7-6,2.13,2.13,0,0,1,.68-2A2.63,2.63,0,0,1,256.72,379.69Z" transform="translate(0 1.94)"/><path d="M255.89,275.48c-.16-.93-.34-1.84-.46-2.77-.28-2.1-.68-4.18-.76-6.32a39.88,39.88,0,0,0-.83-5.37,34.8,34.8,0,0,1-.63-6.52,42.21,42.21,0,0,1,.6-5.21.58.58,0,0,1,.39-.34.5.5,0,0,1,.38.31c.31,1.59.66,3.17.85,4.77s.22,3.12.31,4.68c.07,1.19.18,2.37.17,3.56a14,14,0,0,0-.1,2.59,13.7,13.7,0,0,1,0,4.24,4.74,4.74,0,0,0,.09,1.5A17.72,17.72,0,0,1,255.89,275.48Z" transform="translate(0 1.94)"/><path d="M570.81,367.21c1.12-.75,1.31-2,2-3a1.45,1.45,0,0,1,.85,1.61,31.2,31.2,0,0,1-.47,3.34,14.34,14.34,0,0,0-.3,3.33,30.38,30.38,0,0,1-.15,3.16c0,.2-.22.39-.41.71a4.26,4.26,0,0,1-.52-.66,9.19,9.19,0,0,1-.63-1.57,10.68,10.68,0,0,0-2.89-4.95,6,6,0,0,1-.73-.86,1.14,1.14,0,0,1,0-1.39,1.07,1.07,0,0,1,1.29-.5C569.49,366.66,570.11,366.94,570.81,367.21Z" transform="translate(0 1.94)"/><path d="M267.05,499.67l-1.17,2.11a2.09,2.09,0,0,1-2.12-.68,2.39,2.39,0,0,1-.58-1.91,23.7,23.7,0,0,0-.53-6.67,1.32,1.32,0,0,1,1.07-1.67,1.19,1.19,0,0,1,1.6,1.11c-.08,1.16,1.06,2,.7,3.11C267,496.47,266.32,498.23,267.05,499.67Z" transform="translate(0 1.94)"/><path d="M294.29,483.46a8,8,0,0,1-2.16-5.55c0-.75-.1-1.5-.06-2.24a1.19,1.19,0,0,1,1.23-1.17,1,1,0,0,1,1,.45,13.22,13.22,0,0,0,2.25,2.48,1.06,1.06,0,0,1,.26,1.36,4.23,4.23,0,0,1-.49,1c-1,1.08-1.33,2.49-2,3.71Z" transform="translate(0 1.94)"/><path d="M265.66,505.66c.58.84.58.84.54,2.49l2.26,1.77a7.4,7.4,0,0,1-.11,3.26,6.76,6.76,0,0,0,.37,3.75c-.18.59-.36,1.17-.53,1.74-1.08.29-1.19.25-1.44-.5s-.5-1.42-.74-2.13a3.2,3.2,0,0,1-.25-.89c-.06-1.5-.08-3-.1-4.5S265.66,507.55,265.66,505.66Z" transform="translate(0 1.94)"/><path d="M544.6,169a5.85,5.85,0,0,1,.85,2.87c.35,2.55-.46,4.92-.82,7.36a14.32,14.32,0,0,1-1.94,5,8.44,8.44,0,0,0-.48,1.53c-.17-.22-.4-.37-.4-.53a4.59,4.59,0,0,1,.34-2.18,7.35,7.35,0,0,0,.54-2c.44-2.76.82-5.53,1.25-8.29.09-.62.28-1.22.39-1.83S544.48,169.91,544.6,169Z" transform="translate(0 1.94)"/><path d="M260.45,628.72c-.79.33-1.22,1-2,1.38a7.61,7.61,0,0,1-4,.21A.78.78,0,0,1,254,629c.52-.7,1-1.42,2.05-1.41a1.56,1.56,0,0,0,.72-.2,4.19,4.19,0,0,1,3-.16Z" transform="translate(0 1.94)"/><path d="M268.13,129.23c-.22-1.19-.45-2.15-.55-3.12a7.35,7.35,0,0,1,.07-2c.21-1.22.5-2.43.77-3.64a.72.72,0,0,1,.82-.59c.38,0,.54.28.59.61a6,6,0,0,1,.15,1.46c-.17,1.53-.37,3.07-.63,4.59a18.07,18.07,0,0,1-.64,2.29C268.67,128.92,268.45,129,268.13,129.23Z" transform="translate(0 1.94)"/><path d="M526.17,216.51a2.2,2.2,0,0,1-.15-.68,11,11,0,0,1,.88-3.58,1.83,1.83,0,0,0,.3-1.76c-.06-.13,0-.35.09-.53a16.43,16.43,0,0,0,.68-3.26,2,2,0,0,1,.22-.7,1,1,0,0,1,1-.69.91.91,0,0,1,.74.95,6,6,0,0,1-.62,3c-.27.49-.59.95-.88,1.43-.13.21-.35.48-.3.66a3.34,3.34,0,0,1-.64,2.6,15.24,15.24,0,0,0-1,2.55Z" transform="translate(0 1.94)"/><path d="M458.92,285.38c0-1.94-.74-3.57-.23-5.39a6,6,0,0,1,2.28.91.77.77,0,0,1,.42.94c-.52,1.05-1.11,2.06-1.69,3.08C459.62,285.05,459.4,285.1,458.92,285.38Z" transform="translate(0 1.94)"/><path d="M244.42,116.93a1.39,1.39,0,0,1-.9-1.71c.12-.86.3-1.72.44-2.58a10,10,0,0,0,.08-1.09c0-.52.16-.58,1-.3-.12.28-.24.54-.36.81,0,.12,0,.28.11.35.72.71.84,1.76,1.41,2.56a.87.87,0,0,1-.36,1.14C245.36,116.42,244.87,116.67,244.42,116.93Z" transform="translate(0 1.94)"/><path d="M513.21,276.92a2.24,2.24,0,0,1,2.17.4c.28.19.45.79.25,1a9.89,9.89,0,0,1-1.62,1.55,4.06,4.06,0,0,1-1.39.36C511.54,278.78,512.46,277.85,513.21,276.92Z" transform="translate(0 1.94)"/><path d="M565.93,173.48c.41.56.77.85.87,1.22.33,1.25.71,2.52.07,3.81-.24.5-.38,1.05-.59,1.57-.08.19-.55.26-.64.08-.25-.53-.77-1-.38-1.7a1.3,1.3,0,0,0,.25-.69,9.73,9.73,0,0,1,.41-3.13A8.22,8.22,0,0,0,565.93,173.48Z" transform="translate(0 1.94)"/><path d="M492.15,307.74a8.67,8.67,0,0,1-1.35-.28,1,1,0,0,1-.62-1,1,1,0,0,1,.6-.87,2.48,2.48,0,0,1,3.58,1.06.7.7,0,0,1-.48,1C493.46,307.69,493,307.68,492.15,307.74Z" transform="translate(0 1.94)"/><path d="M564.13,117.66a6.08,6.08,0,0,1,4.33.61,14.78,14.78,0,0,1,2.23,1.31c.07,0,.09.23,0,.33s-.15.25-.23.25a20.31,20.31,0,0,1-2.21-.1,1.25,1.25,0,0,1-.77-.45,4.23,4.23,0,0,0-2.37-1.38A5.25,5.25,0,0,1,564.13,117.66Z" transform="translate(0 1.94)"/><path d="M276.37,625.88a7.34,7.34,0,0,1-1.09-.86,1.37,1.37,0,0,1,.57-2.28,3,3,0,0,1,1.28-.14.92.92,0,0,1,.65,1.16C277.38,624.44,276.91,625.08,276.37,625.88Z" transform="translate(0 1.94)"/><path d="M532.37,153.6a1.1,1.1,0,0,1,1.28,1,6.6,6.6,0,0,0,1,2.89c-.92.35-1.09.33-1.34-.11a10.07,10.07,0,0,0-.83-1.43A1.78,1.78,0,0,1,532.37,153.6Z" transform="translate(0 1.94)"/><path d="M565.38,139.72a3.48,3.48,0,0,1-.93,1.94,1,1,0,0,1-.8.22c-.3-.06-.46-.69-.32-1a.61.61,0,0,1,.21-.3c.9-.48.82-1.29.73-2.11,0-.3-.17-.6-.19-.9a.5.5,0,0,1,.25-.41c.12,0,.42.07.45.17C565,138.18,565.2,139,565.38,139.72Z" transform="translate(0 1.94)"/><path d="M293.77,625.06a2.09,2.09,0,0,1-1.31-1.53c.44-1,1.34-1.13,2.3-1,.19,0,.34.32.58.56Z" transform="translate(0 1.94)"/><path d="M267.93,626.08c1.41-.29,2.56-.82,3.83-.6.2,0,.43-.24.66-.3a.89.89,0,0,1,.5.09c.16.08-.06.49-.31.54-1.33.27-2.5,1.07-3.91,1.05C268.21,626.85,268.09,626.58,267.93,626.08Z" transform="translate(0 1.94)"/><path d="M593.14,70.32a6.84,6.84,0,0,1,.46,2.26.71.71,0,0,1-.65.76.7.7,0,0,1-.84-.54,4.22,4.22,0,0,1-.15-1.45A1.06,1.06,0,0,1,593.14,70.32Z" transform="translate(0 1.94)"/><path d="M528.64,325.1c-.11.15-.21.41-.4.53a2.32,2.32,0,0,1-.86.3.9.9,0,0,1-1.07-.51,1.14,1.14,0,0,1,.49-1.3,1.34,1.34,0,0,1,1.76.55A1.64,1.64,0,0,1,528.64,325.1Z" transform="translate(0 1.94)"/><path d="M553.58,285c-.34-.4-.15-.75,0-1.07a6.87,6.87,0,0,1,2.35-2.73c0,.11.16.27.13.32-.75,1.07-1,2.43-2,3.33C553.94,285,553.73,285,553.58,285Z" transform="translate(0 1.94)"/><path d="M235,288.29a15.14,15.14,0,0,1-.7-1.61,2.27,2.27,0,0,1,0-1.1.68.68,0,0,1,1.14-.29,1.71,1.71,0,0,1,.13,2.38A5.18,5.18,0,0,1,235,288.29Z" transform="translate(0 1.94)"/><path d="M268.44,527.91c-.09-.09-.25-.16-.26-.25-.22-1.77-.42-3.54-.62-5.3.52-.12.7.09.76.45a1.53,1.53,0,0,1,.08.55,5.5,5.5,0,0,0,.58,3.75C269.19,527.55,268.85,527.79,268.44,527.91Z" transform="translate(0 1.94)"/><path d="M577.39,512.41a1.1,1.1,0,0,1-1-1.12,1.06,1.06,0,0,1,.95-1,1.14,1.14,0,0,1,1.15,1.2A1.17,1.17,0,0,1,577.39,512.41Z" transform="translate(0 1.94)"/><path d="M254.16,421.4c.52-.14.82.09.86.49a10.1,10.1,0,0,1-.06,1.82c0,.11-.26.28-.4.28a.51.51,0,0,1-.41-.29A4.09,4.09,0,0,1,254.16,421.4Z" transform="translate(0 1.94)"/><path d="M245,182.31a3.84,3.84,0,0,1-.35-2.27c0-.37.55-.53.88-.25a5.15,5.15,0,0,1,.62.73Z" transform="translate(0 1.94)"/><path d="M595.58,52.18a4,4,0,0,1,.62,3c0,.36-.42.68-.84,1.32C595.08,54.78,595.62,53.5,595.58,52.18Z" transform="translate(0 1.94)"/><path d="M540,218.87a1.93,1.93,0,0,1-.39,2.37.53.53,0,0,1-.78-.19,1.33,1.33,0,0,1,.4-1.63C539.48,219.23,539.73,219.08,540,218.87Z" transform="translate(0 1.94)"/><path d="M267.78,620.93c-.13-.17-.4-.4-.36-.51a2.42,2.42,0,0,1,1.37-1.65.56.56,0,0,1,.48.12.59.59,0,0,1,.12.5,12.71,12.71,0,0,1-1,1.32C268.29,620.83,268.06,620.84,267.78,620.93Z" transform="translate(0 1.94)"/><path d="M461.55,289.31c0,.58-.26.93-.62.93a.62.62,0,0,1-.69-.47,2.38,2.38,0,0,1-.15-1.07,1,1,0,0,1,.62-.58.54.54,0,0,1,.68.45C461.46,288.87,461.52,289.17,461.55,289.31Z" transform="translate(0 1.94)"/><path d="M564.43,145.22c-.17-.14-.6-.31-.67-.57-.12-.49.48-1.06,1-1.11a.66.66,0,0,1,.61.59A1,1,0,0,1,564.43,145.22Z" transform="translate(0 1.94)"/><path d="M583.72,110.6c-1-.36-1.6-.84-1.71-1.71a.72.72,0,0,1,.36-.57.67.67,0,0,1,.6.22A7,7,0,0,1,583.72,110.6Z" transform="translate(0 1.94)"/><path d="M254.81,409.27c-.16.15-.36.49-.65.58-.53.16-1-.38-.95-1a.63.63,0,0,1,.68-.67A1,1,0,0,1,254.81,409.27Z" transform="translate(0 1.94)"/><path d="M557.39,279.32a6.31,6.31,0,0,1,1.39-2.47c.53.56.6.88.29,1.25A6.76,6.76,0,0,1,557.39,279.32Z" transform="translate(0 1.94)"/><path d="M599.42,109.26l1,1.07a1.12,1.12,0,0,1-1.32.59c-.42-.08-.46-.5-.44-.89s.27-.78.8-.74Z" transform="translate(0 1.94)"/><path d="M599.25,179.49a2.29,2.29,0,0,1-.16-2.38C599.72,177.92,599.72,177.92,599.25,179.49Z" transform="translate(0 1.94)"/><path d="M555.67,135.64a4,4,0,0,1-.67-.79.54.54,0,0,1,.29-.76,1.3,1.3,0,0,1,.83-.1c.33.15.19.53.08.81A6.47,6.47,0,0,1,555.67,135.64Z" transform="translate(0 1.94)"/><path d="M359.33,667.79a5.35,5.35,0,0,1-1,.23.73.73,0,0,1-.56-1.07.57.57,0,0,1,.45-.23C358.65,666.72,358.65,666.74,359.33,667.79Z" transform="translate(0 1.94)"/><path d="M254.05,413.87a9.44,9.44,0,0,1,.58,1.42.94.94,0,0,1-.23.64.44.44,0,0,1-.74-.09A2,2,0,0,1,254.05,413.87Z" transform="translate(0 1.94)"/><path d="M281.5,623.37a1,1,0,0,1-.73.93.67.67,0,0,1-.69-.69.81.81,0,0,1,.6-.81C281.07,622.76,281.5,623.05,281.5,623.37Z" transform="translate(0 1.94)"/><path d="M254.4,420.6a3.44,3.44,0,0,1-.48-.54.87.87,0,0,1,.26-1.13.38.38,0,0,1,.33,0c.36.13.44.47.25,1.09A3.52,3.52,0,0,1,254.4,420.6Z" transform="translate(0 1.94)"/><path d="M516.43,205.13c-.8-.24-.6-.76-.62-1.15a.69.69,0,0,1,.68-.8C516.72,203.86,516.27,204.44,516.43,205.13Z" transform="translate(0 1.94)"/><path d="M563.24,407.38c-.15-.58-.15-1,.28-1.3a.65.65,0,0,1,.53,0,.52.52,0,0,1,.24.44C564.2,407,564,407.49,563.24,407.38Z" transform="translate(0 1.94)"/><path d="M560.78,145.62c-.24-.72-.16-1,.27-1s.75.05,1.2.08Z" transform="translate(0 1.94)"/><path d="M581.93,107.24c-.12.1-.3.36-.53.41s-.67-.34-.6-.74a.73.73,0,0,1,.44-.47C581.63,106.34,581.93,106.65,581.93,107.24Z" transform="translate(0 1.94)"/><path d="M565.09,184.66c-.11-.56-.22-1-.26-1.37,0-.11.22-.32.35-.33a.5.5,0,0,1,.4.27A1.15,1.15,0,0,1,565.09,184.66Z" transform="translate(0 1.94)"/><path d="M595.08,95c-.8-.7-.8-.79.08-1.36A1.83,1.83,0,0,1,595.08,95Z" transform="translate(0 1.94)"/><path d="M598.42,215.13v1.74c-.37.12-.44-.15-.41-.37.06-.47.19-.93.28-1.39Z" transform="translate(0 1.94)"/><path d="M580,510.15a1.1,1.1,0,0,1-.2.31c-.25.21-.55.32-.81,0a.57.57,0,0,1-.09-.49c.14-.35.46-.39.93-.15C579.86,509.9,579.89,510.05,580,510.15Z" transform="translate(0 1.94)"/><path d="M263.54,69.69l-.21-1.63a1.61,1.61,0,0,1,.59,1.59Z" transform="translate(0 1.94)"/><path d="M597.93,219.73c.58.48.08.91,0,1.38Z" transform="translate(0 1.94)"/><path d="M596.31,103.33a8.1,8.1,0,0,1,.78.77c.16.23.11.52-.17.58s-.53-.08-.58-.21A4.28,4.28,0,0,1,596.31,103.33Z" transform="translate(0 1.94)"/><path d="M264.16,74c-.14-.16-.29-.27-.28-.32a5,5,0,0,1,.36-.82s.26,0,.29.08a.74.74,0,0,1,.09.49A3.19,3.19,0,0,1,264.16,74Z" transform="translate(0 1.94)"/><path d="M512.27,329.34a6.17,6.17,0,0,1,.73.75c.07.13.1.43,0,.49-.28.22-.43-.07-.52-.26A4.47,4.47,0,0,1,512.27,329.34Z" transform="translate(0 1.94)"/><path d="M308.47,558.35a8,8,0,0,1-.87-.05c-.07,0-.16-.2-.15-.29a.34.34,0,0,1,.22-.23C308,557.73,308.4,557.72,308.47,558.35Z" transform="translate(0 1.94)"/><path d="M576.44,509.26a8.49,8.49,0,0,1-.79.46s-.23-.12-.24-.19a.54.54,0,0,1,.49-.63C576,508.88,576.17,509.06,576.44,509.26Z" transform="translate(0 1.94)"/><path d="M264.11,71.2a6.19,6.19,0,0,1,.42.5s-.13.2-.22.21c-.3.06-.42-.13-.41-.39C263.91,71.43,264,71.35,264.11,71.2Z" transform="translate(0 1.94)"/><path d="M232.09,2.76a2.79,2.79,0,0,1-.35-.7.6.6,0,0,1,.23-.45c.2-.16.51.22.46.59C232.41,2.35,232.27,2.47,232.09,2.76Z" transform="translate(0 1.94)"/><path d="M582.31,483.92a3.15,3.15,0,0,1,.58.53c.05.07-.13.27-.2.41a2,2,0,0,1-.53-.37C582.1,484.42,582.23,484.21,582.31,483.92Z" transform="translate(0 1.94)"/><path d="M510.7,247.16c.31-.19.47-.35.66-.38s.27.16.4.26a1.72,1.72,0,0,1-.47.39C511.19,247.47,511,247.32,510.7,247.16Z" transform="translate(0 1.94)"/><path d="M259.22,367.35l-.41,1C258.61,367.71,258.61,367.71,259.22,367.35Z" transform="translate(0 1.94)"/><path d="M533,152.18a2.26,2.26,0,0,1-.31.17.78.78,0,0,1-.23-.41c0-.07.24-.15.37-.22Z" transform="translate(0 1.94)"/><path d="M294.77,615c-.15.07-.32.17-.34.15a4.45,4.45,0,0,1-.26-.43l.39-.19Z" transform="translate(0 1.94)"/><path d="M466.61,299.81c-.25.11-.42.26-.52.22a.48.48,0,0,1-.29-.38c0-.13.19-.26.3-.39Z" transform="translate(0 1.94)"/><path d="M217.76.59l-.22-.4c.1,0,.25-.15.29-.12a2.08,2.08,0,0,1,.29.36Z" transform="translate(0 1.94)"/><path d="M558,142a.55.55,0,0,1,0-.91C558.41,141.43,558.3,141.73,558,142Z" transform="translate(0 1.94)"/><path d="M582.05,448.91c-.09,0-.25,0-.26,0a.84.84,0,0,1,0-.32c.09,0,.24,0,.27,0A.74.74,0,0,1,582.05,448.91Z" transform="translate(0 1.94)"/><path d="M231.19,214.73c-.08.15-.12.33-.17.34a1.29,1.29,0,0,1-.42-.1c0-.1.05-.27.1-.28A2.15,2.15,0,0,1,231.19,214.73Z" transform="translate(0 1.94)"/><path d="M585.26,114.73c.07.1.18.19.19.29s-.15.13-.23.19a.81.81,0,0,1-.15-.29C585.07,114.86,585.19,114.79,585.26,114.73Z" transform="translate(0 1.94)"/><path d="M601.44,254.29c.11.05.25.07.3.15s-.08.19-.12.29-.25-.07-.29-.15S601.4,254.39,601.44,254.29Z" transform="translate(0 1.94)"/><path d="M266.82,627.05l-.27.13a.9.9,0,0,1-.08-.3c0-.06.16-.09.25-.13S266.78,627,266.82,627.05Z" transform="translate(0 1.94)"/><path d="M597.14,77c-.1,0-.24-.07-.28-.14s.06-.19.1-.28.24.06.27.14S597.17,76.88,597.14,77Z" transform="translate(0 1.94)"/><path d="M565.34,181.74c0-.1-.13-.24-.09-.29s.19-.11.29-.16c0,.1.13.23.1.31S565.44,181.69,565.34,181.74Z" transform="translate(0 1.94)"/><path d="M628.51,540.54l.37.33c-.08,0-.17.15-.24.14a.41.41,0,0,1-.24-.19C628.37,540.77,628.46,540.66,628.51,540.54Z" transform="translate(0 1.94)"/><path d="M236.11,650.17l-.25-.21c.06,0,.17-.14.18-.13a1.71,1.71,0,0,1,.2.27Z" transform="translate(0 1.94)"/><path d="M563.79,128.65s-.12,0-.12,0a.43.43,0,0,1,0-.16s.12,0,.13,0A.76.76,0,0,1,563.79,128.65Z" transform="translate(0 1.94)"/><path d="M383.82,667.08l0,.13-.23,0a.29.29,0,0,1,.05-.14S383.77,667.08,383.82,667.08Z" transform="translate(0 1.94)"/><path d="M234,643s.05.11,0,.14-.09,0-.14.06-.06-.12,0-.14S234,643,234,643Z" transform="translate(0 1.94)"/><path d="M356.7,665.22l-.19-.21.16-.15a2.49,2.49,0,0,1,.15.28Z" transform="translate(0 1.94)"/><path d="M517.23,199.83l.22.2c-.1.05-.18.12-.28.16s-.1-.06-.15-.09Z" transform="translate(0 1.94)"/><path d="M571.64,140.79c0,.07,0,.14-.07.16s-.09,0-.13,0Z" transform="translate(0 1.94)"/><path d="M532.12,230.62l-.16.06c0-.05-.05-.12,0-.15s.1-.05.15-.07Z" transform="translate(0 1.94)"/><path d="M600.66,255.35l-.08.14-.22-.17.25-.12Z" transform="translate(0 1.94)"/><path d="M580.57,451.48l-.3,0c0-.05,0-.14,0-.14s.21,0,.32,0Z" transform="translate(0 1.94)"/><path d="M579.34,471.33l-.29.11s-.06-.08-.1-.13l.29-.11S579.31,471.28,579.34,471.33Z" transform="translate(0 1.94)"/><path d="M294.24,483.5a2.25,2.25,0,0,1,.31.16.58.58,0,0,1,.13.31s-.2.14-.24.11a.44.44,0,0,1-.16-.27,1,1,0,0,1,0-.35Z" transform="translate(0 1.94)"/><path d="M599.47,109.29l-.07-.4a.64.64,0,0,1,.12.06c0,.1-.07.2-.1.31Z" transform="translate(0 1.94)"/><polygon points="597.17 104.67 597.27 104.67 597.22 104.79 597.17 104.67"/><path d="M597.4,75.42l.13-.07.06.22a.66.66,0,0,1-.15,0S597.41,75.46,597.4,75.42Z" transform="translate(0 1.94)"/><path d="M518.65,238.1l-.12.1s-.07-.1-.06-.14.07-.07.1-.1Z" transform="translate(0 1.94)"/><path d="M420.36,462.11l2-1.34a1.86,1.86,0,0,1,1.89,1.62,16.11,16.11,0,0,0,1.33,3.69c.26.5.58,1,.86,1.45.12.21.37.47.32.64-.39,1.41.77,2.16,1.29,3.17,1.65,1.16,1.42,2.89,1.5,4.52a.49.49,0,0,1-.7-.26c-.44-.76-.89-1.51-1.28-2.29a22.16,22.16,0,0,1-1-2.23,10.2,10.2,0,0,0-1.34-2.44,14.05,14.05,0,0,1-2.69-4.88c-.19-.79-.58-1.39-1.58-1.1C420.83,462.7,420.61,462.36,420.36,462.11Z" transform="translate(0 1.94)"/><path d="M441.58,325.2a2.45,2.45,0,0,1,.75,2.19c-.13.67-.32,1.33-.51,2a5.64,5.64,0,0,0-.28,2.93,8.16,8.16,0,0,1-.13,3,3.83,3.83,0,0,0-.07,1.78.23.23,0,0,1,0,.18c-.11.14-.27.38-.34.36s-.53-.22-.53-.36c-.13-1.92-.85-3.77-.76-5.73a2.6,2.6,0,0,1,.21-1.26,3.44,3.44,0,0,0,.49-1.95A4.68,4.68,0,0,1,441.58,325.2Z" transform="translate(0 1.94)"/><path d="M411.3,90.06a1.11,1.11,0,0,1,.5,1.36,6.19,6.19,0,0,0-.07,3.69,7.43,7.43,0,0,1,.09,2.74,18.23,18.23,0,0,0-.28,3.71,11.93,11.93,0,0,1-.42,3c-.29.17-.43-.07-.46-.3a20.87,20.87,0,0,1-.26-4.47c.21-2.68.22-5.37.33-8.06a4.55,4.55,0,0,1,.11-1.11C410.89,90.38,411.13,90.23,411.3,90.06Z" transform="translate(0 1.94)"/><path d="M435.89,607.6a3.31,3.31,0,0,1-1.29,2.93.72.72,0,0,1-.52.16,1.79,1.79,0,0,1-1.58-1.37,6.24,6.24,0,0,1,.64-3.45,1.29,1.29,0,0,1,1.39-.71,1.37,1.37,0,0,1,1.31,1.14c0,.12,0,.25.05.37Z" transform="translate(0 1.94)"/><path d="M416.52,312.07a32.36,32.36,0,0,1-.9-6.05.62.62,0,0,1,0-.19c0-.56-.1-1.21.52-1.49a1.54,1.54,0,0,1,2,.48,3.53,3.53,0,0,1,.25.42,8.33,8.33,0,0,1-.25,1,2.13,2.13,0,0,0-.12,1.61,4.5,4.5,0,0,1-.41,2.9C417.46,311.16,417,311.49,416.52,312.07Z" transform="translate(0 1.94)"/><path d="M424,223.39a8.81,8.81,0,0,1,.73,5.57,5.12,5.12,0,0,1-1.31,3A7.16,7.16,0,0,1,424,223.39Z" transform="translate(0 1.94)"/><path d="M402.65,301.88a16.44,16.44,0,0,1-.12,1.86,3.88,3.88,0,0,1-.56,1.36,1.09,1.09,0,0,1-.8.31c-.18,0-.39-.27-.53-.46a1.31,1.31,0,0,1-.16-.53,12.14,12.14,0,0,1,.47-4.64.88.88,0,0,1,.66-.54c.23,0,.54.24.73.45a1.24,1.24,0,0,1,.24.68c0,.5,0,1,0,1.5Z" transform="translate(0 1.94)"/><path d="M403.12,230.64a6.12,6.12,0,0,0,.84.65,8.18,8.18,0,0,0,.88.27c.41.18.66.77.42,1.08a11.14,11.14,0,0,1-1.39,1.44.69.69,0,0,1-1-.22,8.79,8.79,0,0,1-.51-1.75A1.64,1.64,0,0,1,403.12,230.64Z" transform="translate(0 1.94)"/><path d="M427.62,193.94l1.59,2.28c-.39.55-.73,1-1.08,1.5a.65.65,0,0,1-1.09,0,3.69,3.69,0,0,1-.4-1.2A2.92,2.92,0,0,1,427.62,193.94Z" transform="translate(0 1.94)"/><path d="M438.46,262.92c.88.65.48,1.57.93,2.15a2.93,2.93,0,0,1,.5,2.14c-.05.74,0,1.49,0,2.42-.2-.23-.38-.35-.43-.51A23.59,23.59,0,0,1,438.46,262.92Z" transform="translate(0 1.94)"/><path d="M427.77,188.81c-.66-1.63-.66-1.63.09-2.68.12,0,.28,0,.36.05C430,187.6,429.94,187.72,427.77,188.81Z" transform="translate(0 1.94)"/><path d="M439.13,610.52l1.18.48a13.51,13.51,0,0,1,0,1.8,1.24,1.24,0,0,1-.53.66.57.57,0,0,1-.86-.36A6.39,6.39,0,0,1,439.13,610.52Z" transform="translate(0 1.94)"/><path d="M455.5,616.1l-1,1.47c-1.12-.39-1.38-.7-1.31-1.51a.77.77,0,0,1,1.06-.7A12.56,12.56,0,0,1,455.5,616.1Z" transform="translate(0 1.94)"/><path d="M435.85,493.28a9.85,9.85,0,0,1-1.27-3.27c.47-.26.62.11.72.33.34.71.62,1.44.89,2.18C436.23,492.63,436.06,492.83,435.85,493.28Z" transform="translate(0 1.94)"/><path d="M460,617a5.66,5.66,0,0,1-1.5.05c-.24-.05-.46-.38-.58-.64s.21-.75.6-.7C459.13,615.83,459.44,616.28,460,617Z" transform="translate(0 1.94)"/><path d="M401.27,309.52c0-.81-.1-1.42-.07-2,0-.18.27-.34.41-.5.17.15.47.29.49.46a2.06,2.06,0,0,1-.13,1A6.27,6.27,0,0,1,401.27,309.52Z" transform="translate(0 1.94)"/><path d="M443.88,452.64a9,9,0,0,1-.79-1.43c-.07-.22.11-.54.22-.8a.33.33,0,0,1,.29-.15,1.21,1.21,0,0,1,.41.3.53.53,0,0,1,.1.35C444.05,451.42,444,451.94,443.88,452.64Z" transform="translate(0 1.94)"/><path d="M452.89,508.86a2.06,2.06,0,0,1,.76-.1c.2.06.5.33.47.44a1.2,1.2,0,0,1-.46.67c-.1.06-.44-.12-.56-.27A2.35,2.35,0,0,1,452.89,508.86Z" transform="translate(0 1.94)"/><path d="M438.1,257.54l-.24.23c-.11-.13-.29-.25-.32-.4s.09-.33.14-.49c.1,0,.25.06.28.13A2.6,2.6,0,0,1,438.1,257.54Z" transform="translate(0 1.94)"/><path d="M401.44,296.46l.57.89C401.38,297.35,401.38,297.35,401.44,296.46Z" transform="translate(0 1.94)"/><path d="M427.79,191.92v.72h-.08v-.72Z" transform="translate(0 1.94)"/><path d="M433.32,302.35l-.18.2a1.16,1.16,0,0,1-.14-.24s.08-.12.08-.12Z" transform="translate(0 1.94)"/><path d="M434.11,488.6a4.29,4.29,0,0,1-.28-.41s.16-.16.18-.15a.46.46,0,0,1,.21.23C434.24,488.36,434.16,488.46,434.11,488.6Z" transform="translate(0 1.94)"/><polygon points="427.79 191.82 427.82 191.96 427.73 191.93 427.79 191.82"/><path d="M445.82,595.21s.07.1.06.15-.06.08-.09.12-.08-.1-.07-.15S445.78,595.25,445.82,595.21Z" transform="translate(0 1.94)"/><path d="M353,637.86c-.92,1-2,.72-3,.6a1,1,0,0,1-1-.89,3.71,3.71,0,0,1,2-1.39,1.4,1.4,0,0,1,1.64.86C352.84,637.32,352.94,637.6,353,637.86Z" transform="translate(0 1.94)"/><path d="M374.84,622.74l-.16,0-.05-.14a.94.94,0,0,1,.16,0S374.82,622.69,374.84,622.74Z" transform="translate(0 1.94)"/><path d="M486.68,497.84c.39.87.46,1.65-.31,2.25a19.6,19.6,0,0,0-3,3.77c-.38.49-.67,1.05-1,1.54a2.5,2.5,0,0,1-.7.59c-.25.16-.72-.11-.69-.4a3.27,3.27,0,0,1,.3-1.23q1.71-2.78,3.53-5.48C485.15,498.27,485.59,497.6,486.68,497.84Z" transform="translate(0 1.94)"/><path d="M542.05,515.13c.86-.29,1.41-.5,1.85.22a12.06,12.06,0,0,0,.83,1.08c-.09.34-.18.7-.29,1.05-.19.6-.13,1.12.51,1.41a1.07,1.07,0,0,1,.66,1,1.72,1.72,0,0,0,.87,1.47c-.65.53-.86.55-1.07.13s-.32-.81-.49-1.21a3.43,3.43,0,0,0-.41-.81C543.48,518.25,543,516.69,542.05,515.13Z" transform="translate(0 1.94)"/><path d="M499.91,496s-.15,0-.31,0a.81.81,0,0,1-.32-.4.35.35,0,0,1,.12-.32c.32-.16.69-.43,1-.38a5.83,5.83,0,0,0,2.35.16c.05,0,.2.15.22.24a.36.36,0,0,1-.1.32,1,1,0,0,1-.49.22C501.63,495.83,500.89,495.88,499.91,496Z" transform="translate(0 1.94)"/><path d="M534.73,498.74c0,.56-.24.8-.55.68a7.72,7.72,0,0,1-1.6-.86c-.12-.08-.15-.44-.08-.62s.67-.4.75-.17C533.47,498.5,534.1,498.55,534.73,498.74Z" transform="translate(0 1.94)"/><path d="M519.56,435.83c-.23.18-.43.39-.46.37a1.24,1.24,0,0,1-.4-.49c0-.11.14-.29.22-.44Z" transform="translate(0 1.94)"/><path d="M336,468.3c-.13.13-.2.27-.27.26a.5.5,0,0,1-.31-.15s.06-.24.07-.24S335.79,468.25,336,468.3Z" transform="translate(0 1.94)"/><path d="M332.12,451.89c-.17.09-.31.2-.35.18a2,2,0,0,1-.29-.36c.1,0,.22-.15.29-.12A1.52,1.52,0,0,1,332.12,451.89Z" transform="translate(0 1.94)"/><path d="M552.41,529.4c-.21-.17-.41-.26-.46-.39a.49.49,0,0,1,.43-.66c.16,0,.35.22.52.33Z" transform="translate(0 1.94)"/></g></svg>