<svg id="Layer_1" data-name="Layer 1" xmlns="http://www.w3.org/2000/svg" viewBox="0 0 1366 768"><defs><style>.cls-1{fill:#fff;}.cls-2{fill:#e23d4d;}.cls-3{fill:#456065;}</style></defs><title>0</title><rect class="cls-1" width="1366" height="768"/><circle class="cls-2" cx="682.95" cy="357.71" r="94.36"/><path class="cls-1" d="M683,274.47a82.62,82.62,0,1,1-82.61,82.61A82.61,82.61,0,0,1,683,274.47m0-5.67a88.29,88.29,0,1,0,88.28,88.28A88.38,88.38,0,0,0,683,268.8Z" transform="translate(-0.06)"/><g id="hRclsA.tif"><path class="cls-1" d="M711.07,410.56c-1.85.66-3.72,1.27-5.62,1.79a77.56,77.56,0,0,1-21.7,2.9,85,85,0,0,1-28.41-5,2.6,2.6,0,0,1-2-2.79,2.79,2.79,0,0,1,3-2.09,5.2,5.2,0,0,1,1.3.28,80.57,80.57,0,0,0,23.59,4.58,75.36,75.36,0,0,0,28.4-4.25c1.49-.54,2.84,0,3.29,1.2A2.79,2.79,0,0,1,711.07,410.56Z" transform="translate(-0.06)"/><path class="cls-1" d="M701.92,402.11a57.09,57.09,0,0,1-7.26,1.61c-2.88.4-5.78.61-8.67.85a23.52,23.52,0,0,1-3.46.07,74.64,74.64,0,0,1-14.89-2.11c-.37-.09-.74-.19-1.1-.31a2.54,2.54,0,0,1-1.95-3.06,2.8,2.8,0,0,1,3.3-2c1.92.38,3.83.87,5.76,1.2a57.63,57.63,0,0,0,15.57.58c3.76-.38,7.48-1.13,11.21-1.78a2.75,2.75,0,0,1,3.3,1.6A2.64,2.64,0,0,1,701.92,402.11Z" transform="translate(-0.06)"/><path class="cls-1" d="M746.86,359a30.76,30.76,0,0,1-2.78,8.66,28.78,28.78,0,0,1-11.39,12.68,25.34,25.34,0,0,1-12.16,3.16c-3.83,0-7.94-1.89-11.44-5.11a34,34,0,0,1-10.64-18.11,21.49,21.49,0,0,1-.38-3,2.76,2.76,0,0,1,2.4-3.09c1.42-.09,2.2.79,2.5,2.58a29.26,29.26,0,0,0,10.47,18.51c4.49,3.69,9.57,4,14.85,2.06,5.94-2.21,9.58-6.74,12-12.39.81-1.93,1.26-4,1.89-6a7.21,7.21,0,0,1,.58-1.53,2.32,2.32,0,0,1,2.78-1.06A2.29,2.29,0,0,1,746.86,359Z" transform="translate(-0.06)"/><path class="cls-1" d="M667.06,359.26a62.7,62.7,0,0,1-1,7.37A25.31,25.31,0,0,1,662,376.3a15.16,15.16,0,0,1-10.17,6.17c-1.46.25-3,.31-3.81.4A41.72,41.72,0,0,1,632.86,380c-7.57-3.11-11.69-8.94-13.35-16.75a20.27,20.27,0,0,1-.37-2.46,2.68,2.68,0,0,1,2.32-3c1.32-.12,2.34.8,2.57,2.42a22.56,22.56,0,0,0,2.32,7.47,17.19,17.19,0,0,0,9.08,8.13,27.24,27.24,0,0,0,15,1.86,12.54,12.54,0,0,0,9.58-7.42A23.9,23.9,0,0,0,662.33,360a4.65,4.65,0,0,1,.19-1.33,2.39,2.39,0,0,1,2.62-1.85A2.22,2.22,0,0,1,667.06,359.26Z" transform="translate(-0.06)"/></g><path class="cls-1" d="M727,327.2a16.87,16.87,0,0,1-10.83,1c-4.62-.92-8.86-2.89-13.2-4.61s-8.48-3.36-12.81-4.75a27,27,0,0,0-16.47.06c-5.19,1.6-10.4,3.1-15.61,4.65l-1.76.52c0,.07,0,.15,0,.22l7.32-1c4-.52,8.08-1.08,12.12-1.53,5-.54,8.05,2.27,8.19,7.58.07,2.92-.24,5.85-.27,8.78,0,2.33,0,4.68.19,7,.69,7.56,1.54,15.12,2.18,22.69a121.19,121.19,0,0,1,.2,19.43,2.93,2.93,0,0,1-4.57,2.23,2.29,2.29,0,0,1-1-2.17c.06-4.46.18-8.92,0-13.38-.1-3.62-.48-7.23-.8-10.84-.7-7.84-1.78-15.65-1.79-23.54,0-2.34.13-4.67.2-7,0-.83.06-1.67.06-2.51,0-2.76-1-3.59-3.67-3.17-5,.79-10.11,1.56-15.16,2.37a58.88,58.88,0,0,1-15.74.49,8.54,8.54,0,0,1-5.61-2.73,5.45,5.45,0,0,1-1.07-1.89,2.5,2.5,0,0,1,2.18-3.57c2.14-.32,4.29-.56,6.43-.8a93.07,93.07,0,0,0,15.31-3.24c4.65-1.35,9.3-2.72,14-3.9a28.61,28.61,0,0,1,16.39.86c5.38,1.81,10.63,4,15.94,6,3.92,1.47,7.88,2.8,12.15,2.77a15.62,15.62,0,0,0,6.18-1.36,2.07,2.07,0,0,1,3.14,1.6A3.31,3.31,0,0,1,727,327.2Z" transform="translate(-0.06)"/><path class="cls-3" d="M614.73,486.57q0,8.69-4.57,13.15t-13.4,4.46h-8.27V469.62h9.34q8.26,0,12.58,4.32T614.73,486.57Zm-2.63.09q0-7.43-3.77-11.17t-11.07-3.74H590.9v30.3h5.72Q612.1,502.05,612.1,486.66Z" transform="translate(-0.06)"/><path class="cls-3" d="M633.08,504.65q-5.6,0-8.73-3.45t-3.13-9.67q0-6.15,3-9.84a10,10,0,0,1,8.16-3.7,8.81,8.81,0,0,1,7.16,3.16q2.63,3.17,2.62,8.61v1.89h-18.5q0,5.3,2.47,8.08a8.67,8.67,0,0,0,6.93,2.79,21.06,21.06,0,0,0,3.87-.31,22.83,22.83,0,0,0,4.22-1.32h0v1.45a1,1,0,0,1-.63.94,18.11,18.11,0,0,1-3.39,1A23.17,23.17,0,0,1,633.08,504.65Zm-.68-24.58a7.7,7.7,0,0,0-6,2.44,11.52,11.52,0,0,0-2.62,7.06H639.7a11.17,11.17,0,0,0-1.94-7A6.4,6.4,0,0,0,632.4,480.07Z" transform="translate(-0.06)"/><path class="cls-3" d="M657.16,504.18H650V469.62h19.81v6h-12.6v8.91h11.72v6H657.16Z" transform="translate(-0.06)"/><path class="cls-3" d="M693.36,504.18l-1.39-3.6h-.19a10.56,10.56,0,0,1-3.75,3.18,12.1,12.1,0,0,1-5,.89,8.12,8.12,0,0,1-6-2.18,8.33,8.33,0,0,1-2.19-6.19,7,7,0,0,1,2.94-6.2c2-1.34,4.92-2.07,8.88-2.21l4.58-.15v-1.15q0-4-4.11-4a18.81,18.81,0,0,0-7.44,1.91h0l-2.39-4.87a21.49,21.49,0,0,1,10.12-2.38q5.31,0,8.15,2.31c1.89,1.55,2.84,3.89,2.84,7.05v17.61Zm-2.13-12.25-2.78.1a8.92,8.92,0,0,0-4.68,1.13,3.55,3.55,0,0,0-1.54,3.17q0,3,3.5,3.05a5.53,5.53,0,0,0,4-1.44,5.08,5.08,0,0,0,1.5-3.83Z" transform="translate(-0.06)"/><path class="cls-3" d="M717.18,504.65q-12.34,0-12.34-13.55,0-6.74,3.36-10.29t9.62-3.56a18.29,18.29,0,0,1,8.22,1.8l-2.12,5.58c-1.14-.46-2.19-.83-3.17-1.12a10,10,0,0,0-2.93-.44q-5.62,0-5.63,8,0,7.76,5.63,7.75a12.84,12.84,0,0,0,3.85-.56,14.32,14.32,0,0,0,3.55-1.73v6.17a11.59,11.59,0,0,1-3.54,1.53A19.47,19.47,0,0,1,717.18,504.65Z" transform="translate(-0.06)"/><path class="cls-3" d="M743.1,498.9a15.68,15.68,0,0,0,4.54-.82v5.36a16.11,16.11,0,0,1-6.62,1.21q-4.32,0-6.3-2.19c-1.32-1.46-2-3.64-2-6.56V483.16H729.3v-3.05l4-2.41,2.08-5.58H740v5.63h7.39v5.41H740V495.9a2.79,2.79,0,0,0,.86,2.27A3.38,3.38,0,0,0,743.1,498.9Z" transform="translate(-0.06)"/><path class="cls-3" d="M777.62,490.92q0,6.45-3.4,10.09t-9.48,3.64A13.26,13.26,0,0,1,758,503a11.06,11.06,0,0,1-4.47-4.78,16.09,16.09,0,0,1-1.56-7.28q0-6.48,3.38-10.07t9.5-3.6a13.29,13.29,0,0,1,6.72,1.66,11,11,0,0,1,4.46,4.75A15.92,15.92,0,0,1,777.62,490.92Zm-18.27,0a11.08,11.08,0,0,0,1.29,5.93,4.61,4.61,0,0,0,4.2,2,4.52,4.52,0,0,0,4.14-2,11.16,11.16,0,0,0,1.27-5.94A10.93,10.93,0,0,0,769,485a5.42,5.42,0,0,0-8.34,0A10.9,10.9,0,0,0,759.35,490.92Z" transform="translate(-0.06)"/></svg>