<svg id="Layer_1" data-name="Layer 1" xmlns="http://www.w3.org/2000/svg" viewBox="0 0 1366 768"><defs><style>.cls-1{fill:#fff;}.cls-2{fill:#e23d4d;}.cls-3{fill:#d6d5d3;}.cls-4{fill:#00b4ac;}.cls-5{fill:#eb2346;}.cls-6{fill:#001e2d;}</style></defs><title>2</title><rect class="cls-1" width="1366" height="768"/><path class="cls-2" d="M1366,0V768H918.53a313.93,313.93,0,0,1-24.29-40.7c-99.31-198.36-.11-488,173.9-727.3Z"/><path id="_Path_" data-name="&lt;Path&gt;" class="cls-1" d="M791.89,215.58c8-9.36,19.59-13.4,31.47-5.23s33.14,12.77,39.26,5.23,33.66-23.71,50.94-2.73,39.46,14.61,44,10.77,30.94-5.1,40.78,1.6,13.4-.27,20.73-1.6,23.87-7,29.52,13.75,14.87,25.74,23.24,27.63,27.06,33.08,29.34,53.81,23,24.71,26.78,29.11-11.79,56.32-8.09,65.95,11,21.24,5.58,26.11-23.87,15.77-25.34,22.89,6.91,26.6,3.56,31-7.33,15.49-22,10.47-29.52-12.36-28.89-3.14,5,20.94,10.47,18.63,24.92-10.89,26-1.25-7.54,35.59-29.52,34.54-25.48-4-37.34-14.13S986,503.07,986.62,490.09s-8,.85-8.79,3.77-34.13,59.88-63.65,63.23-45.65.63-52.56-14.65-8.38-4-14.66-3.46-29.52-4-28.68-14.52,1.34-16.57-3.1-14.69-14.28,17.8-34,10.68-18.21-16.84-18-22.13-.21-9.91,8.37-18.07,10.89-10.64,6.91-14.74-26.17-26.36-23.24-35.23,13.82-35.88,9.84-42.37-13.82-8.73-17-22.9-5-40.13,4.61-46,17.59-10.34,16.54-20.66-13.19-39.64,4.82-59.12S786.87,221.45,791.89,215.58Z"/><g id="_Group_" data-name="&lt;Group&gt;"><path class="cls-3" d="M1019,437.59a60.78,60.78,0,0,1,16.77.34c3.34.54,7,1.6,8.72,4.51a10.11,10.11,0,0,1,.88,6.54,8.2,8.2,0,0,1-.94,3.12c-1.16,2-3.51,2.95-5.78,3.28a26.14,26.14,0,0,1-9.66-.82c-3.1-.73-6.36-1.78-8.37-4.26-2.73-3.34-2.36-8.15-1.85-12.44"/></g><g id="_Group_2" data-name="&lt;Group&gt;"><path class="cls-3" d="M878.2,392.5c11.56.05,21.92,3.92,32.39,8.83a4.51,4.51,0,0,0,2.55.65c1.61-.25,2.41-2.14,2.48-3.78.17-3.79-2-7.41-4.93-9.81a28.88,28.88,0,0,0-10.23-4.84,43.8,43.8,0,0,0-13.65-2.1,29.29,29.29,0,0,0-13,3.53,4.89,4.89,0,0,0-2.3,2.07c-.7,1.55.29,3.44,1.74,4.32a10.56,10.56,0,0,0,4.92,1.13"/></g><g id="_Group_3" data-name="&lt;Group&gt;"><path class="cls-3" d="M951.09,402.42a84.35,84.35,0,0,1,36.18,2.78c3.33,1,7.62,1.94,9.73-.82,2.23-2.93-.27-7.12-3.12-9.45-9.72-7.94-23.22-8.83-35.75-9.36-4.54-.2-10,.05-12.37,3.9a9.85,9.85,0,0,0-1.27,4.31,9,9,0,0,0,1.08,5.9c1.13,1.7,3.49,2.7,5.31,1.77"/></g><g id="_Group_4" data-name="&lt;Group&gt;"><path class="cls-3" d="M809.27,391.39a4.89,4.89,0,0,0,2.32,4.67,11.27,11.27,0,0,0,5.23,1.55,36,36,0,0,0,7,0,7.4,7.4,0,0,0,2.9-.74c2-1.09,2.72-3.52,3.13-5.74.91-5,.77-10.65-2.65-14.36-4-4.29-11.53-4.08-15.71,0s-4.79,11.07-2,16.19"/></g><g id="_Group_5" data-name="&lt;Group&gt;"><path class="cls-3" d="M873.64,286.82c-13.36,8-2.95,28,10.45,27.93s33.25-9.74,46.65-10.26,30.94-7.47,36.09,4.91a13.28,13.28,0,0,1,1.1,7.15c-.89,5.48-6.39,9.44-7,15-.76,7,6.5,12.1,13.06,14.73s14.28,5.34,16.6,12c2.89,8.29-4.45,16.28-7.25,24.6-6,17.92,9.43,38.79,1,55.74-4.31,8.7-13.77,13.55-19.73,21.22-10.39,13.37-8.48,32.7-16.24,47.76-9.15,17.75-32.69,26.47-51.19,19-4.63-1.88-12-3.28-12.81,1.65a6.25,6.25,0,0,0,.32,2.87c3.43,11.6,17.13,18,29.07,16.06s21.92-10.42,29-20.25,11.72-21.11,17.41-31.78a186.4,186.4,0,0,1,44.93-55.26c4.07-3.39,8.39-6.73,11-11.33,4.57-7.94,3.21-17.77,2.91-26.93-.61-19.17,4.1-38.11,5.13-57.26s-2.38-40-16.12-53.4c-4.49-4.38-26.25-20-49-19.91C959.09,271,912.69,263.37,873.64,286.82Z"/></g><path id="_Path_2" data-name="&lt;Path&gt;" class="cls-4" d="M917.29,362.93c2.93,1.58,6.68,15-1.67,14.07s-42-12.94-49-4.3-14,5.32-11.5.52,15.36-19.31,29.68-14.77S914.35,361.35,917.29,362.93Z"/><path id="_Path_3" data-name="&lt;Path&gt;" class="cls-4" d="M952.79,373.47c-2.82-4.78-1.41-7.59,2.25-9.28s28.12,2.53,36.84,12.37,13.78,5.49,14.34,8.23,1.13,7.46-4.22,5.1-11.54-5.73-23.07-9.11-17.15-3.55-20.24-3.6S952.79,373.47,952.79,373.47Z"/><path id="_Path_4" data-name="&lt;Path&gt;" class="cls-4" d="M950.26,231.46c-19.46.86-17.92,2.26-32.92-10.42s-21.15-16.48-36.75-10.79-14.78,14.53-25.94,17.08-36.41-20.87-47.2-13.28-44,38.81-36.88,58,7.24,46.41-6.43,45.14-19.61,49,0,59-7.85,41.63,0,60,32.31,36,16.91,43-15.6,33.26,0,35.62,28.74-3.69,32.61-15.21,7.7-7,7.63-5.94S821,526.47,833.58,530s25.4.15,19.87-15.2-17.63-35.45-12.22-51.26-8.17-60.5-18.1-47.26-27.18-6.33-28-11.45-8-47.84,9.8-58.12,22.58-2.12,26.66-4.93,15.54-42.47,15.72-50.06,36.33-37.69,98.55-28.13,78.17,32.63,82,47.25,3.83,59.42,0,70.07,12.79-3.18,17.59,4.3,10.15,26.54,6.78,41.9.56,20.39-1.13,24.2-12.46,15.59-27.46,4.64-19.15-7.57-21-2.09-12.34,24.71-5.2,41.89,40.88,57.85,63.24,50.8,29.69-19.71,20.33-24.77-19.7,13.08-26.55-.85-10.23-31.67,5.8-30,34.23,11.9,37.58,0-14.62-15.55-2.8-32.48,28.74-18.68,21.15-29.21-3-25.28,1.26-46.18,10.34-22.87-3.16-33-9.49-10.92-22.15-41.89-8.43-33.42-32.9-40.76-24.29-41.32-40.53-35.87-13-2-34.66-6.29S963,230.9,950.26,231.46Z"/><g id="_Group_6" data-name="&lt;Group&gt;"><path class="cls-5" d="M860.68,437.78c1.5-1.15,11.6-1.69,17.18-.14s10.73,5.18,13.26,10.39c1.78,3.65,1.91,8.66-1.26,11.21a10.31,10.31,0,0,1-5.8,1.85,22.05,22.05,0,0,1-9.64-1.26c-6-2.35-10.14-7.81-13-13.51a12.58,12.58,0,0,1-1.59-4.67c-.13-1.65-.43-2.87.9-3.87"/></g><g id="_Group_7" data-name="&lt;Group&gt;"><path class="cls-5" d="M977.8,439.8c4.41-1.71,8-5.57,12.71-6.44,1.81-.33,3.87-.41,5.32.74a5,5,0,0,1,1.62,4.18c-.25,4.76-5,8-9.62,9.25a12,12,0,0,1-5.65.35,5.92,5.92,0,0,1-4.29-3.41c-.67-1.78-1.82-3.88-.09-4.67"/></g><path id="_Path_5" data-name="&lt;Path&gt;" class="cls-5" d="M901.24,494.3s9.84-2.55,12.65-4.22,11.25-3.5,12.52-1.53,3-1.43,4.32-.85,7.61,3.75,8,6.6-2.53.3-4.36,1.42-3.93,3.57-8.86,3-18.58-3.18-21.15-2.59S899.27,496,901.24,494.3Z"/><path id="_Path_6" data-name="&lt;Path&gt;" class="cls-5" d="M897.84,502.18s4.64-2.25,11.11,0,9.84,3.77,15.61,2.73,10.26-3.62,10.4-1.7-3.64,10.78-11.24,11.35-17.62.49-24.48-7.6C898.54,505.42,896.89,503.83,897.84,502.18Z"/><path id="_Path_7" data-name="&lt;Path&gt;" class="cls-5" d="M934,470.23c-.75,0-1.5,0-2.26,0-6.59-.18-14.17-.68-20.75-4.26a14.54,14.54,0,0,1-6.08-5.62,13.57,13.57,0,0,1-1.46-7.33A14.73,14.73,0,0,1,909,441.83a21.47,21.47,0,0,1,4.32-2.25,17.2,17.2,0,0,0,3.7-1.93,13.76,13.76,0,0,0,3.33-4.33,39.58,39.58,0,0,0,4.77-16.86,1.94,1.94,0,1,1,3.87.2,43.58,43.58,0,0,1-5.23,18.52,17.15,17.15,0,0,1-4.38,5.55,20.34,20.34,0,0,1-4.54,2.42,18.17,18.17,0,0,0-3.55,1.82,10.79,10.79,0,0,0-3.95,8.22,9.74,9.74,0,0,0,1,5.25,10.94,10.94,0,0,0,4.54,4.08c5.82,3.18,12.86,3.62,19,3.79a29.21,29.21,0,0,0,7-.4,14.94,14.94,0,0,0,11.52-17.4,4.26,4.26,0,0,0-.82-2.09,6.25,6.25,0,0,0-1.84-1.16l-6.86-3.32a7.78,7.78,0,0,1-3.85-3.2,7.52,7.52,0,0,1-.69-3.05l-1.25-17.3a1.94,1.94,0,1,1,3.87-.28l1.25,17.3a2.71,2.71,0,0,0,2.37,3l6.85,3.32a9.18,9.18,0,0,1,3,2.07,8.14,8.14,0,0,1,1.74,3.94,18.84,18.84,0,0,1-14.52,21.93A27,27,0,0,1,934,470.23Z"/><path id="_Compound_Path_" data-name="&lt;Compound Path&gt;" class="cls-6" d="M1045.33,419c1.77-6.16,1.52-12.5,1.1-17.33-.22-2.64-.6-5.66-2.25-8.2-2.51-3.89-7.67-5.94-13.12-5.23a30.73,30.73,0,0,0-10.49,3.87c0-.35,0-.69,0-1-.27-9.15,1.4-18.55,3-27.65,2.34-13.22,4.76-26.89,1.37-40.19-4.46-17.54-18.5-32.83-41.72-45.46-6.74-3.68-17-8.78-28.19-10.66-8.53-1.43-17.28-1-25-.61-21.19,1.06-40.2,2.46-58.36,8.89-4.54,1.61-10.3,4-14.62,8.27-8.1,8-9.4,20.38-10.46,30.34-1,9.73-3.05,20.6-10.33,27.42-2,1.91-2.64,5.62-2.7,6v.12c-.11,1.2-.2,2.42-.28,3.62a12.89,12.89,0,0,0-8.73-4.52A15.81,15.81,0,0,0,813,351.22a34.5,34.5,0,0,0-6.8,9.63c-3.12,5.95-4.86,10.7-5.65,15.39a26.55,26.55,0,0,0,2.14,16.47,18.74,18.74,0,0,0,.91,11.39l.19.51.44.34c.38.29,3.84,2.9,7.06,3.42l.72.12A32.25,32.25,0,0,0,817,409l1,0a10.89,10.89,0,0,0,7.07-2.94,9.53,9.53,0,0,0,1.79-2.54H827c3.11,0,6.23-.25,8.86-1.66,1.79,12.06,4.2,23.62,6.64,34.36,2,8.66,4.11,17.42,6.19,25.89,4.85,19.8,9.88,40.27,12.88,60.72l.07.48c.73,5,1.49,10.24,4.42,14.65,2.61,3.92,6.76,7,12.7,9.33a50,50,0,0,0,18.5,3.48,51.7,51.7,0,0,0,30.85-10.07c6.75-5.06,12-11.64,17.16-18l20-24.87c1.24-1.3,5-5.28,5.58-6.07l39-53.8a25.46,25.46,0,0,0,5.71,1.32,15.17,15.17,0,0,0,.19,4.61,7.5,7.5,0,0,0,3.34,5,18.2,18.2,0,0,0,2.06,1,11.12,11.12,0,0,0,3.67.84h.87a69.38,69.38,0,0,0,11-.8,7.36,7.36,0,0,0,3.52-1.31c1.7-1.32,2.35-3.51,2.77-5.47.52-2.49.9-5.39-.26-8a8.49,8.49,0,0,0-4.64-4.3A25.18,25.18,0,0,0,1045.33,419ZM824.75,397.5c-.52,2.4-1.06,4.49-2.38,5.83a7.06,7.06,0,0,1-4.57,1.8,23.16,23.16,0,0,1-5.21-.47l-.74-.12a14.2,14.2,0,0,1-4.86-2.35,14.19,14.19,0,0,1-.51-8.79c.93-2.94,3.4-5.18,6-5.45a12.69,12.69,0,0,1,4,.46,18.2,18.2,0,0,1,5.79,2.11,5.77,5.77,0,0,1,2.82,4.06A10.11,10.11,0,0,1,824.75,397.5Zm3.5,2.12c.11-.45.2-.88.3-1.29a13.81,13.81,0,0,0,.43-4.11,9.68,9.68,0,0,0-4.58-7,21.46,21.46,0,0,0-7-2.63,16.06,16.06,0,0,0-5.28-.54,10.77,10.77,0,0,0-7.13,4.08,24.2,24.2,0,0,1-.62-11.29c.72-4.27,2.34-8.66,5.26-14.23a31.09,31.09,0,0,1,6-8.58,11.89,11.89,0,0,1,8.66-3.51,8.88,8.88,0,0,1,7.56,5.72,1.87,1.87,0,0,0,1.14,1.16,241.43,241.43,0,0,0,2.32,40.15C833.55,399.14,831,399.55,828.25,399.62Zm180,34-40.5,55.9c-.35.47-3,3.28-5.31,5.73l-20.17,25.06c-5,6.17-10.1,12.55-16.47,17.33a48,48,0,0,1-45.59,6.09c-5.18-2.06-8.74-4.63-10.89-7.88-2.45-3.68-3.15-8.45-3.82-13.06l-.07-.48c-3-20.63-8.08-41.2-12.95-61.08-2.08-8.46-4.22-17.2-6.18-25.83-5.88-25.89-11.54-56.52-8.91-87.39a8.17,8.17,0,0,1,1.5-3.72c8.21-7.69,10.45-19.4,11.54-29.84,1-9.84,2.21-21,9.32-28,3.75-3.7,8.78-5.8,13.2-7.37,17.66-6.26,36.38-7.63,57.25-8.67,7.52-.38,16-.8,24.16.56s16.51,4.53,27,10.23c22.23,12.1,35.62,26.57,39.81,43,3.18,12.5.94,25.16-1.43,38.56-1.65,9.29-3.35,18.9-3.07,28.44.08,2.77.33,5.58.57,8.29.61,7,1.19,13.55-.75,19.78C1014.84,424.48,1011.49,429.11,1008.25,433.58Zm31,3.13c.71,1.57.39,3.71,0,5.59-.16.77-.54,2.58-1.35,3.2a3.85,3.85,0,0,1-1.75.54,66,66,0,0,1-10.49.76h-.78a10.57,10.57,0,0,1-3.85-1.3,3.76,3.76,0,0,1-1.46-2.45,12.79,12.79,0,0,1,0-4.09c.35-3,1.16-5.08,2.4-6a4.31,4.31,0,0,1,2.73-.76,17.68,17.68,0,0,1,3,.34l5.4.94C1036.14,434,1038.36,434.76,1039.24,436.71Zm-5.89-7.14-5-.87c-2.36-.42-5.92-1-8.79,1.15a9.86,9.86,0,0,0-3.34,5.6,21.37,21.37,0,0,1-4-.79c3-4.2,6.26-8.92,7.91-14.25,2.17-7,1.54-14.24.91-21.28-.08-.91-.16-1.84-.23-2.76,3.41-1.89,6.94-3.8,10.71-4.29,3.26-.43,7.42.48,9.36,3.48,1.16,1.8,1.45,4.17,1.65,6.43.38,4.5.63,10.37-1,15.93C1040.13,423,1037.14,427.25,1033.35,429.57Z"/><path id="_Compound_Path_2" data-name="&lt;Compound Path&gt;" class="cls-6" d="M918.1,461.32a7.39,7.39,0,0,1-4.73-1.68,6.85,6.85,0,0,1-2.3-6.56,11.35,11.35,0,0,1,1.63-6h0c1.52-2.51,4.87-2.5,7.49-1.65a8.26,8.26,0,0,1,5.41,10.19,8.08,8.08,0,0,1-5.31,5.34A7.84,7.84,0,0,1,918.1,461.32Zm-1-12.48c-.59,0-1,.13-1.11.3h0a7.52,7.52,0,0,0-1.06,4l0,.33-.09.34a3,3,0,0,0,1,2.89,3.62,3.62,0,0,0,3.31.61,4.19,4.19,0,0,0,2.71-2.74,4.37,4.37,0,0,0-2.88-5.38A6.21,6.21,0,0,0,917.12,448.84Z"/><path id="_Compound_Path_3" data-name="&lt;Compound Path&gt;" class="cls-6" d="M940.85,461.86a7.3,7.3,0,0,1-1.46-.19l-.51-.1h0c-2.73-.35-4.84-3.54-5.24-4.17l-.18-.29-.07-.33a8.11,8.11,0,0,1,5.26-9.31,7.53,7.53,0,0,1,5.91.69,7.19,7.19,0,0,1,3.52,4.47,9.52,9.52,0,0,1,.12,3.5,6.76,6.76,0,0,1-1.06,3.08c-1.53,2.2-4.35,2.48-5.86,2.63Zm-1.47-4.13a7.51,7.51,0,0,1,.81.14,2.81,2.81,0,0,0,.71.1c1.32-.13,2.61-.34,3.07-1a3.52,3.52,0,0,0,.38-1.34,5.66,5.66,0,0,0,0-2.09,3.31,3.31,0,0,0-1.65-2,3.63,3.63,0,0,0-2.83-.37,4.25,4.25,0,0,0-2.7,4.47,5.6,5.6,0,0,0,2.25,2.09Z"/><path id="_Compound_Path_4" data-name="&lt;Compound Path&gt;" class="cls-6" d="M946.7,495.18a1.94,1.94,0,0,0-1.53-1.12c-1.37-.17-2.73-1.24-4.17-2.38-2.1-1.66-4.49-3.54-7.64-3a10.23,10.23,0,0,0-4.11,2.07,3.2,3.2,0,0,1-5.2.1,14.89,14.89,0,0,0-2.12-1.38c-3.38-1.69-7.58-1-12.49,2-.38.23-.77.47-1.15.72-2.72,1.71-5.3,3.32-8,3.22a2,2,0,0,0-1.65.81,1.91,1.91,0,0,0-.23,1.82l.62,1.64c.84,5.38,5,10.28,10.58,12.52a22.12,22.12,0,0,0,8.27,1.52,30.15,30.15,0,0,0,8-1.15A36,36,0,0,0,944.57,500l.08-.11,1-1.51.83-1.25.07-.11A1.94,1.94,0,0,0,946.7,495.18Zm-36.35.33,1.12-.69c3.69-2.27,6.63-2.89,8.72-1.84a12.12,12.12,0,0,1,1.57,1,8.22,8.22,0,0,0,4.58,2c2.16.09,3.77-1.08,5.19-2.1a7.23,7.23,0,0,1,2.53-1.41c1.33-.24,2.6.67,4.54,2.2.58.46,1.19.94,1.83,1.38l-9.67,3.15a12.46,12.46,0,0,1-9.63.17,23.91,23.91,0,0,0-8.25-1.08c-.76,0-1.48,0-2.19,0a22.9,22.9,0,0,1-4.2-.55A41.11,41.11,0,0,0,910.35,495.51Zm14.52,13.36c-3.55,1-8.83,1.76-13.83-.23a13.41,13.41,0,0,1-7.73-7.72,27.85,27.85,0,0,0,7.21,1.27c.8,0,1.6,0,2.36,0a25.28,25.28,0,0,1,3.74.16,29,29,0,0,1,3.51.78,22.25,22.25,0,0,0,5.83,1l.58,0A20.49,20.49,0,0,0,932,503l6.83-2.22A32.16,32.16,0,0,1,924.87,508.87Z"/><path id="_Path_8" data-name="&lt;Path&gt;" class="cls-6" d="M951.29,379.67a1.93,1.93,0,0,1-1.62-3,34.09,34.09,0,0,1,15-12.38,1.94,1.94,0,1,1,1.5,3.58,30.14,30.14,0,0,0-13.28,10.95A1.93,1.93,0,0,1,951.29,379.67Z"/><path id="_Path_9" data-name="&lt;Path&gt;" class="cls-6" d="M960.49,379.35a1.94,1.94,0,0,1-1.39-3.29c3.5-3.63,7.85-8.14,13.51-10a1.94,1.94,0,0,1,1.2,3.69c-4.74,1.54-8.55,5.5-11.92,9A1.92,1.92,0,0,1,960.49,379.35Z"/><path id="_Path_10" data-name="&lt;Path&gt;" class="cls-6" d="M966.59,380.25a2,2,0,0,1-1.63-.87,1.94,1.94,0,0,1,.56-2.69c4.47-2.94,9.53-6.28,15.39-7.29a1.94,1.94,0,1,1,.66,3.82c-5.06.87-9.77,4-13.92,6.71A1.9,1.9,0,0,1,966.59,380.25Z"/><path id="_Path_11" data-name="&lt;Path&gt;" class="cls-6" d="M976.28,381.73a2,2,0,0,1-1.53-.74,1.94,1.94,0,0,1,.33-2.73A25.18,25.18,0,0,1,988.24,373a1.94,1.94,0,0,1,.35,3.87,21.21,21.21,0,0,0-11.11,4.42A2,2,0,0,1,976.28,381.73Z"/><path id="_Path_12" data-name="&lt;Path&gt;" class="cls-6" d="M985.19,384.25a1.94,1.94,0,0,1-.73-3.74c.8-.33,1.6-.69,2.43-1.08,2.62-1.2,5.32-2.45,8.41-2.49a1.94,1.94,0,0,1,.06,3.88c-2.28,0-4.49,1.06-6.84,2.14-.84.39-1.72.79-2.6,1.15A2.1,2.1,0,0,1,985.19,384.25Z"/><path id="_Path_13" data-name="&lt;Path&gt;" class="cls-6" d="M991,386.57a1.94,1.94,0,0,1-.73-3.73,28.26,28.26,0,0,1,7.9-1.63l4-.42a1.94,1.94,0,0,1,.41,3.86l-3.95.42a25.17,25.17,0,0,0-6.84,1.36A1.91,1.91,0,0,1,991,386.57Z"/><path id="_Path_14" data-name="&lt;Path&gt;" class="cls-6" d="M997.37,390.7a1.94,1.94,0,0,1-.68-3.76c3.85-1.43,8-.85,11.41-.37a1.94,1.94,0,1,1-.53,3.84c-3.09-.43-6.6-.92-9.52.17A2,2,0,0,1,997.37,390.7Z"/><path id="_Path_15" data-name="&lt;Path&gt;" class="cls-6" d="M1007.4,395.75a1.72,1.72,0,0,1-.39,0,22.52,22.52,0,0,0-7.37-.28,1.94,1.94,0,0,1-.5-3.85,26.18,26.18,0,0,1,8.65.33,1.94,1.94,0,0,1-.39,3.84Z"/><path id="_Path_16" data-name="&lt;Path&gt;" class="cls-6" d="M917.61,379.1a2,2,0,0,1-1.94-1.88c-.08-2.43-1.35-4.91-2.47-7.1l-3.11-6.05a1.94,1.94,0,0,1,3.45-1.77l3.11,6.05c1.31,2.55,2.79,5.44,2.9,8.74a1.94,1.94,0,0,1-1.87,2Z"/><path id="_Path_17" data-name="&lt;Path&gt;" class="cls-6" d="M912.71,378.54a1.94,1.94,0,0,1-1.81-1.22c-1.86-4.72-4-10.06-8-13.39a1.94,1.94,0,0,1,2.48-3c4.78,4,7.18,10.06,9.11,14.95a1.93,1.93,0,0,1-1.8,2.65Z"/><path id="_Path_18" data-name="&lt;Path&gt;" class="cls-6" d="M905.33,378.76a1.94,1.94,0,0,1-1.51-.72,23,23,0,0,1-3.23-6,27.44,27.44,0,0,0-1.85-3.93,12.81,12.81,0,0,0-4.39-4.33,1.94,1.94,0,1,1,2-3.34,16.69,16.69,0,0,1,5.74,5.65,31.4,31.4,0,0,1,2.12,4.48,19.79,19.79,0,0,0,2.65,5,1.95,1.95,0,0,1-1.5,3.17Z"/><path id="_Path_19" data-name="&lt;Path&gt;" class="cls-6" d="M897.51,375.8a1.94,1.94,0,0,1-1.73-1.06,45.66,45.66,0,0,0-9.5-12.58,1.94,1.94,0,0,1,2.65-2.83A49.6,49.6,0,0,1,899.23,373a1.94,1.94,0,0,1-.84,2.61A1.88,1.88,0,0,1,897.51,375.8Z"/><path id="_Path_20" data-name="&lt;Path&gt;" class="cls-6" d="M890.92,374.87a1.94,1.94,0,0,1-1.77-1.14,20.5,20.5,0,0,0-9.29-9.69,1.94,1.94,0,0,1,1.76-3.46,24.38,24.38,0,0,1,11.06,11.54,1.93,1.93,0,0,1-1,2.57A1.9,1.9,0,0,1,890.92,374.87Z"/><path id="_Path_21" data-name="&lt;Path&gt;" class="cls-6" d="M883.79,375.21a1.93,1.93,0,0,1-1.57-.81,33.91,33.91,0,0,0-9.18-8.65,1.94,1.94,0,0,1,2.08-3.28,37.87,37.87,0,0,1,10.25,9.66,2,2,0,0,1-.44,2.71A1.92,1.92,0,0,1,883.79,375.21Z"/><path id="_Path_22" data-name="&lt;Path&gt;" class="cls-6" d="M879.12,376.53a1.93,1.93,0,0,1-1.46-.67,22.48,22.48,0,0,0-10.39-6.66,1.94,1.94,0,1,1,1.1-3.72,26.28,26.28,0,0,1,12.21,7.83,1.94,1.94,0,0,1-1.46,3.22Z"/><path id="_Path_23" data-name="&lt;Path&gt;" class="cls-6" d="M872.33,379.37a2,2,0,0,1-1.55-.77,14.52,14.52,0,0,0-8.92-5.47,1.94,1.94,0,1,1,.69-3.82,18.49,18.49,0,0,1,11.33,6.95,1.94,1.94,0,0,1-.38,2.72A1.89,1.89,0,0,1,872.33,379.37Z"/><path id="_Path_24" data-name="&lt;Path&gt;" class="cls-6" d="M866.93,381.67a1.94,1.94,0,0,1-1.57-.8,9.73,9.73,0,0,0-7.21-3.89,1.94,1.94,0,1,1,.2-3.88,13.58,13.58,0,0,1,10.14,5.48,1.93,1.93,0,0,1-.42,2.71A1.86,1.86,0,0,1,866.93,381.67Z"/><path id="_Path_25" data-name="&lt;Path&gt;" class="cls-6" d="M861.53,384.27a1.94,1.94,0,0,1-1.33-.53,16,16,0,0,0-5.42-3.37,1.94,1.94,0,0,1,1.34-3.64,20,20,0,0,1,6.75,4.19,1.94,1.94,0,0,1-1.34,3.35Z"/><path id="_Compound_Path_5" data-name="&lt;Compound Path&gt;" class="cls-6" d="M922.65,400.49a19.42,19.42,0,0,0-5.86-4.86,61.83,61.83,0,0,0-19.62-7.54c-7.13-1.42-12.89-1.07-17.61,1.07-6.52,2.94-9.54,8.9-9.43,13.83a6,6,0,0,1-2.25.79,19.52,19.52,0,0,1-3.78.13l-2.85-.06a1.94,1.94,0,1,0-.09,3.87l2.85.07c.51,0,1,0,1.54,0a17.71,17.71,0,0,0,3-.21,10.12,10.12,0,0,0,3.16-1,15,15,0,0,0,1.46,1.29l-.32.25-2.3,1.78a5.3,5.3,0,0,1-1,.7,4.73,4.73,0,0,1-1.63.25,25.2,25.2,0,0,1-4.34-.29,1.94,1.94,0,0,0-.61,3.83,28,28,0,0,0,4.38.34h.66a8.2,8.2,0,0,0,3.09-.56,8.75,8.75,0,0,0,1.87-1.2l2.3-1.78c.42-.32.85-.66,1.28-1.05,1,.63,2.11,1.21,3.21,1.75a15.7,15.7,0,0,1-4.69,2.8,8,8,0,0,1-4.4.71,1.94,1.94,0,0,0-.75,3.81,9.09,9.09,0,0,0,1.67.16,13.47,13.47,0,0,0,4.91-1.07,18.61,18.61,0,0,0,7.1-4.78q1,.38,2,.69a16,16,0,0,1-9.31,6.37,1.94,1.94,0,0,0,.45,3.83,1.74,1.74,0,0,0,.45-.06,19.89,19.89,0,0,0,12.37-9.14c.68.14,1.36.26,2,.35a16.52,16.52,0,0,1-1.82,2.84,8.07,8.07,0,0,1-3.77,2.7,1.95,1.95,0,0,0,.55,3.81,2.16,2.16,0,0,0,.56-.08,11.87,11.87,0,0,0,5.67-4,23.53,23.53,0,0,0,2.93-4.86c1.22.08,2.46.12,3.69.14a16,16,0,0,1-.93,2.06,6.46,6.46,0,0,1-2.49,2.6,1.94,1.94,0,0,0,.89,3.67,1.89,1.89,0,0,0,.89-.22,10.16,10.16,0,0,0,4.09-4.15,23,23,0,0,0,1.68-4c2.68-.09,5.39-.28,8.12-.48s10.72-.8,12.7-6.87A9.22,9.22,0,0,0,922.65,400.49Zm-2,7c-.79,2.41-3.83,3.79-9.3,4.2-6.52.49-12.41.84-18.32.12a36.79,36.79,0,0,1-16.43-6.26,13.43,13.43,0,0,1-2.54-2.17c-.47-4.67,3.25-9,7.12-10.73s9-2.05,15.26-.8a58.2,58.2,0,0,1,18.4,7.07,16.06,16.06,0,0,1,4.72,3.84A5.42,5.42,0,0,1,920.62,407.53Z"/><path id="_Compound_Path_6" data-name="&lt;Compound Path&gt;" class="cls-6" d="M994,420.42a9.83,9.83,0,0,1-2.35-1.32,14.42,14.42,0,0,1-2.41-1.89,6.06,6.06,0,0,1-1.58-4.68,2,2,0,0,0,0-.42A17,17,0,0,0,978.24,393a23.33,23.33,0,0,0-6.92-1.72,43.55,43.55,0,0,0-24.46,4.42,14.91,14.91,0,0,0-5,3.76,7.53,7.53,0,0,0-1.53,6.71c.09,1.09.55,4.09,2.88,5a99.54,99.54,0,0,0,12,4,19.52,19.52,0,0,0,3.46,10.27,1.94,1.94,0,0,0,1.6.84,2,2,0,0,0,1.11-.35,1.94,1.94,0,0,0,.47-2.71,15.74,15.74,0,0,1-2.68-7.11c1.14.25,2.29.47,3.44.67a20,20,0,0,0,1.1,4.73,9.17,9.17,0,0,0,4.66,5.17,1.91,1.91,0,0,0,.78.16,1.94,1.94,0,0,0,.78-3.72,5.39,5.39,0,0,1-2.61-3,13.41,13.41,0,0,1-.7-2.67c1.16.16,2.32.29,3.48.4a13.65,13.65,0,0,0,2.06,5.21,30.93,30.93,0,0,0,4.25,5,1.93,1.93,0,0,0,1.38.59,1.95,1.95,0,0,0,1.39-3.3,28,28,0,0,1-3.76-4.41,10.13,10.13,0,0,1-1.29-2.82c1.47.07,2.93.11,4.39.11h.21a15,15,0,0,0,.86,3.11,11.46,11.46,0,0,0,5.3,5.79,1.89,1.89,0,0,0,.89.22,1.94,1.94,0,0,0,.89-3.67,7.56,7.56,0,0,1-3.49-3.8,10.65,10.65,0,0,1-.56-1.94,5.94,5.94,0,0,0,1.93-.78,9.7,9.7,0,0,0,1.81,2.76,18.1,18.1,0,0,0,3,2.45,13.16,13.16,0,0,0,3.35,1.81,2.06,2.06,0,0,0,.59.09,1.94,1.94,0,0,0,.6-3.79Zm-10.32-8.48a3.63,3.63,0,0,1-1,1.74,3.52,3.52,0,0,1-1.84.56c-.36,0-.73,0-1.09,0h0a91.76,91.76,0,0,1-35.06-6.69,4.21,4.21,0,0,1-.52-1.9v-.29l-.1-.27a3.61,3.61,0,0,1,.82-3.28,11.19,11.19,0,0,1,3.75-2.72,39.58,39.58,0,0,1,22.26-4,19.39,19.39,0,0,1,5.78,1.41A13.2,13.2,0,0,1,983.63,411.94Z"/><path id="_Path_26" data-name="&lt;Path&gt;" class="cls-6" d="M980.84,414.24c-.36,0-.73,0-1.09,0h0a1.37,1.37,0,0,1,.35-.08A1.72,1.72,0,0,1,980.84,414.24Z"/><path id="_Compound_Path_7" data-name="&lt;Compound Path&gt;" class="cls-6" d="M1103,438.05a10.1,10.1,0,0,1-7.58-3.33c-3.72-4.29-3.42-10.51-1.9-14.9a45.82,45.82,0,0,1,4.71-9.07c.66-1.08,1.35-2.19,2-3.28,2.67-4.68,3.67-8.41,3.15-11.75-.92-5.86-6.18-9.49-11.75-13.34-4.82-3.33-9.8-6.78-12.54-12a18.38,18.38,0,0,1,1.91-19.54,17.45,17.45,0,0,1,2.07-2.14c-.25-.92-.48-1.88-.69-2.89a80,80,0,0,1-1.62-13.55c0-.73,0-1.46-.06-2.2-.07-3.4-.13-6.62-1.14-9.58,0-.13-.09-.26-.14-.39a10.64,10.64,0,0,1-2.49,2.91,9.07,9.07,0,0,1-7.34,1.73,7,7,0,0,1-4.88-3.49,6.77,6.77,0,0,1,.46-6.93,8.69,8.69,0,0,1,7.51-4.14,9.88,9.88,0,0,1,4.89,1.58,22.93,22.93,0,0,0-24.06-21.83,1.94,1.94,0,0,1-.38-3.86,26.78,26.78,0,0,1,28.32,25.81,21,21,0,0,1-.29,3.34,15.21,15.21,0,0,1,2.07,4c1.2,3.53,1.28,7.2,1.35,10.75,0,.72,0,1.44,0,2.15a76.53,76.53,0,0,0,1.55,12.89c.1.47.2.92.3,1.36a18.29,18.29,0,0,1,13.21-1.57c3.53,1,7.61,3.59,8.46,8a8.16,8.16,0,0,1-3.46,8.15,12,12,0,0,1-12.12,1.38c-3.53-1.78-6.21-4.94-8.12-9.57-.15.16-.29.33-.42.5a14.36,14.36,0,0,0-1.5,15.3c2.29,4.36,6.87,7.53,11.3,10.59,6,4.15,12.21,8.44,13.38,15.94.67,4.25-.48,8.79-3.61,14.27-.66,1.16-1.37,2.3-2,3.4a42.48,42.48,0,0,0-4.34,8.29c-1.17,3.37-1.48,8.05,1.16,11.1a6.43,6.43,0,0,0,5.28,2,4.17,4.17,0,0,0,3.28-1.9,1.94,1.94,0,0,1,3.37,1.92A7.91,7.91,0,0,1,1104,438C1103.67,438,1103.33,438.05,1103,438.05Zm-15.42-87.86c1.58,4.36,3.79,7.23,6.71,8.7a8.07,8.07,0,0,0,8-1,4.43,4.43,0,0,0,2-4.32c-.51-2.67-3.37-4.36-5.67-5A14.37,14.37,0,0,0,1087.58,350.19Zm-15.23-36.14a5,5,0,0,0-3.91,2.34,3,3,0,0,0-.33,3,3.15,3.15,0,0,0,2.24,1.51,5.21,5.21,0,0,0,4.13-.94,7.88,7.88,0,0,0,2.43-3.78,6.68,6.68,0,0,0-4.42-2.15Z"/><path id="_Compound_Path_8" data-name="&lt;Compound Path&gt;" class="cls-6" d="M1084.61,483.67c-12.35,0-24.1-10.78-26.28-24.19-1.07-6.58.73-15.28,3.64-22.41a22.51,22.51,0,0,1-3.31-7c-1.69-6.09-.89-12.56,0-18.15.3-1.89.65-3.87,1.16-5.83-2.7-3.83-4.11-9-4-14.78a71.26,71.26,0,0,1,1.27-10.54c.4-2.3.81-4.68,1-7,.5-5.13-.05-9.37-1.63-12.65-.18.22-.36.43-.55.64-3.94,4.39-10.4,5.78-15,3.23a6.72,6.72,0,0,1-1.4-11.47,10.89,10.89,0,0,1,8.28-2.69,14.56,14.56,0,0,1,8,3.23,21.64,21.64,0,0,0,.89-6.58,30.54,30.54,0,0,0-7.87-20.11,13.7,13.7,0,0,1-1.46,1.27,10.2,10.2,0,0,1-8.82,2.07,7.37,7.37,0,0,1-4.37-3.57,6,6,0,0,1-.5-4.7,5.74,5.74,0,0,1,4-3.81c3.48-1,7.94.63,10.54,2.77l.11.09a13.69,13.69,0,0,0,1.19-4.59,18.12,18.12,0,0,0-4.61-13.56,45.88,45.88,0,0,0-6.36-5.33,59.22,59.22,0,0,1-5.75-4.66,21.15,21.15,0,0,1-5-7.14,40.65,40.65,0,0,1-5.59-2.54c-5.78-3.05-11.73-6.59-16-11.78a24.43,24.43,0,0,1-5.16-10.52h0c-12,.49-20.59-1.91-25.65-7.13a51.43,51.43,0,0,1-23.57,5,1.94,1.94,0,0,1,0-3.88H952a47.47,47.47,0,0,0,21-4.27c0-.1-.11-.19-.17-.29-3-5.24-2.56-13.26,2.92-16.82a9.21,9.21,0,0,1,10.3.62c2.77,2,4,4.89,3.26,7.81s-2.83,4.74-4.82,6.27a51.55,51.55,0,0,1-5.44,3.64c4.35,3.82,11.58,5.55,21.6,5.18a17,17,0,0,1,.78-5.35,15.51,15.51,0,0,1,7.78-8.94,12.48,12.48,0,0,1,9.75-.78,5.16,5.16,0,0,1,3.68,6.48C1021,257.5,1011.55,260.2,1005,261a20.81,20.81,0,0,0,4.26,8.38c3.64,4.4,8.57,7.51,14.85,10.82.89.47,1.8.94,2.72,1.36a11.11,11.11,0,0,1,.68-4.44,9.7,9.7,0,0,1,8.84-5.91,7,7,0,0,1,7,4.08,7.34,7.34,0,0,1-.45,6.57,10.52,10.52,0,0,1-7.29,5.2,13.06,13.06,0,0,1-2.78.14,18.38,18.38,0,0,0,2.73,3.31,56.42,56.42,0,0,0,5.39,4.34,49.27,49.27,0,0,1,6.88,5.81,22.1,22.1,0,0,1,5.63,16.55,17.18,17.18,0,0,1-2.12,7,34.46,34.46,0,0,1,9.35,23.21,24.37,24.37,0,0,1-1.84,9.87c2.81,4.22,3.88,9.88,3.2,16.83-.25,2.47-.67,4.92-1.07,7.28a67.29,67.29,0,0,0-1.22,10,22.84,22.84,0,0,0,1.8,9.87,18.11,18.11,0,0,1,2.92-4.52,13.56,13.56,0,0,1,9.28-4.46,9.6,9.6,0,0,1,7.16,2.43,9.38,9.38,0,0,1,2.75,8.25,11.24,11.24,0,0,1-5.6,8.47c-4.53,2.41-10.59,1.54-15-1.93-.19,1-.36,2-.52,3-.86,5.42-1.58,11.16-.09,16.5a18.5,18.5,0,0,0,1.52,3.8c2.33-4.49,5-7.8,7.5-8.62,5.58-2,9.17-.58,11.19.94a11.73,11.73,0,0,1,4.36,9.68,7,7,0,0,1-2.47,4.86c-2.74,2.45-7.63,3.86-12.47,3.58a12,12,0,0,1-7.11-3c-2.51,6.84-3.54,13.73-2.76,18.56,1.89,11.6,11.92,20.93,22.44,20.93h.31a1.94,1.94,0,0,1,0,3.88Zm-18.11-47.21a8.76,8.76,0,0,0,5.75,2.94c3.74.22,7.71-.85,9.66-2.59a3.12,3.12,0,0,0,1.19-2.17,8,8,0,0,0-2.81-6.37c-1.85-1.38-4.41-1.51-7.62-.38C1071.26,428.36,1068.8,431.45,1066.5,436.46Zm-2.4-31.21c2.85,3.05,8.08,4.9,12.09,2.76a7.39,7.39,0,0,0,3.58-5.53,5.56,5.56,0,0,0-1.53-4.9,5.88,5.88,0,0,0-4.34-1.42,9.81,9.81,0,0,0-6.57,3.17A16.41,16.41,0,0,0,1064.1,405.25Zm-17.24-50.57a6.76,6.76,0,0,0-4.69,1.7,3.54,3.54,0,0,0-1.34,2.73,3.62,3.62,0,0,0,2,2.48c3.38,1.87,7.87.23,10.25-2.42a11.57,11.57,0,0,0,1.1-1.43,10.78,10.78,0,0,0-6.64-3ZM1040,322.21a4.53,4.53,0,0,0-1.2.15,1.83,1.83,0,0,0-1.36,1.27,2.21,2.21,0,0,0,.23,1.68,3.45,3.45,0,0,0,2,1.66,6.42,6.42,0,0,0,5.42-1.44,10.62,10.62,0,0,0,1-.86l-.32-.27A9.94,9.94,0,0,0,1040,322.21Zm-9-39.13a10.39,10.39,0,0,0,4,.18,6.62,6.62,0,0,0,4.51-3.22,3.58,3.58,0,0,0,.29-3.17,3.29,3.29,0,0,0-3.3-1.74c-2,.05-4.53,1.25-5.31,3.37A7.86,7.86,0,0,0,1030.94,283.08Zm-15.8-37.42a9.34,9.34,0,0,0-4.18,1,11.53,11.53,0,0,0-5.81,6.63,13,13,0,0,0-.6,3.85c5.22-.68,13.08-2.76,14.3-9a2.05,2.05,0,0,0,0-1.4,2.13,2.13,0,0,0-1.13-.68A7.53,7.53,0,0,0,1015.14,245.66Zm-34.93-9.07a4.21,4.21,0,0,0-2.32.64c-3.59,2.33-3.76,8-1.67,11.64l.27.45a46.77,46.77,0,0,0,5.66-3.72c1.46-1.12,3-2.49,3.42-4.13.47-1.89-1.07-3.22-1.75-3.71A6.42,6.42,0,0,0,980.21,236.59Z"/><path id="_Compound_Path_9" data-name="&lt;Compound Path&gt;" class="cls-6" d="M845.7,523.83a13.53,13.53,0,0,1-10.66-6c-2.59-3.61-3.6-7.95-4.2-11.33a69.36,69.36,0,0,1-.38-21.57c.12-.89.26-1.79.41-2.68.54-3.44,1.06-6.7.61-9.86a19,19,0,0,1-2.81,1.6c-3.19,1.46-8,2.06-10.89-1.06a6.48,6.48,0,0,1-.9-7.4,8.57,8.57,0,0,1,7.82-5.09,10.69,10.69,0,0,1,8.28,5.18,15.67,15.67,0,0,0,3.16-8.77,15.88,15.88,0,0,0-3.92-10.84,11.17,11.17,0,0,1-8.73,6.56,8.49,8.49,0,0,1-6.61-2.48,7,7,0,0,1-2.19-5.55,8.17,8.17,0,0,1,6.49-6.92,12.81,12.81,0,0,1,8.74,1.61h0a32.67,32.67,0,0,0-.08-4.66,69.21,69.21,0,0,0-4.1-18.74,1.94,1.94,0,1,1,3.64-1.35,73.45,73.45,0,0,1,4.33,19.8,30,30,0,0,1-.2,7.53,19.31,19.31,0,0,1,1.27,27.67,16.27,16.27,0,0,1,.43,1.77c.69,3.94.07,7.83-.53,11.59-.14.88-.28,1.75-.4,2.62a65.59,65.59,0,0,0,.36,20.36c.53,3,1.4,6.77,3.53,9.74s5,4.5,7.87,4.33a1.94,1.94,0,0,1,.22,3.88Zm-21.36-59.47a4.76,4.76,0,0,0-3.94,2.85,2.78,2.78,0,0,0,.21,3.11c1.42,1.51,4.26,1.18,6.45.18a15,15,0,0,0,3.14-1.95c-1.23-2.25-3.23-4.06-5.7-4.19Zm-1-23.05a6,6,0,0,0-1.34.14,4.28,4.28,0,0,0-3.46,3.44,3.28,3.28,0,0,0,1.05,2.49,4.61,4.61,0,0,0,3.54,1.36c2.74-.23,4.9-2.66,5.83-4.95.06-.15.12-.3.17-.45-.35-.24-.72-.46-1.1-.67A10.15,10.15,0,0,0,823.36,441.31Z"/><path id="_Compound_Path_10" data-name="&lt;Compound Path&gt;" class="cls-6" d="M785.85,492.9a14.31,14.31,0,0,1-6.25-1.4,1.94,1.94,0,0,1,1.71-3.49c4.22,2.06,10,.83,13.81-2.92,3.4-3.38,5.37-8.68,5.41-14.56a29.8,29.8,0,0,0-2.15-11.18,9.49,9.49,0,0,1-5.59,1.41,15.09,15.09,0,0,1-7.51-3.2,8.59,8.59,0,0,1-2.81-2.87,5.56,5.56,0,0,1,.39-5.77,7.62,7.62,0,0,1,6.64-3.51c3.42.21,6.65,2.47,9.35,6.54.17.25.33.51.5.77a8.6,8.6,0,0,0,1-4.31c-.22-4.09-3-8.23-7.53-11.38-1-.67-2-1.29-3.08-1.94A31.14,31.14,0,0,1,783,430.2c-3.89-4.08-5.69-10.23-5.12-17.27a17.76,17.76,0,0,1-3.48-14.69c1.19-5.42,4.78-9.76,8.25-13.95,3.82-4.62,7.43-9,7.42-14.28a9.68,9.68,0,0,0-.94-4.07,17.69,17.69,0,0,1-9.55,3,10.41,10.41,0,0,1-6.85-2.08,6.52,6.52,0,0,1-1.94-7.68c.93-1.88,2.92-3.19,5.6-3.7a14.66,14.66,0,0,1,12,3.38,18.4,18.4,0,0,1,1.44,1.34,13.43,13.43,0,0,0,1.06-1.42,14,14,0,0,0,1-12.93,1.94,1.94,0,0,1,3.55-1.56,17.47,17.47,0,0,1-3.29,19.1A13.6,13.6,0,0,1,794,370c0,6.7-4.22,11.82-8.31,16.76-3.33,4-6.46,7.81-7.45,12.31a13.66,13.66,0,0,0,.69,7.94,13.56,13.56,0,0,1,2.83-5.61,7.85,7.85,0,0,1,8.82-2.34,6.6,6.6,0,0,1,3.63,4.13,11.42,11.42,0,0,1-1.09,8.8c-1.7,3-4.09,4.81-6.73,5.13a7.82,7.82,0,0,1-4.66-.94c.1,3.74,1,8.09,4.13,11.34a27.65,27.65,0,0,0,5.86,4.25c1.08.65,2.2,1.32,3.28,2.07,5.57,3.83,8.92,9.07,9.2,14.36a12.6,12.6,0,0,1-2.76,8.42,33.52,33.52,0,0,1,3,13.93c0,6.9-2.43,13.2-6.56,17.29A17.22,17.22,0,0,1,785.85,492.9Zm3.25-43.62a3.81,3.81,0,0,0-3,1.73,1.85,1.85,0,0,0-.23,1.85,5.56,5.56,0,0,0,1.64,1.54,11.63,11.63,0,0,0,5.53,2.49,5.71,5.71,0,0,0,3.62-1.07c-.33-.59-.69-1.16-1.06-1.73-1.4-2.1-3.63-4.64-6.37-4.81ZM782,411.61a5.17,5.17,0,0,0,3.93,1.66c2-.24,3.34-2.32,3.84-3.2a7.59,7.59,0,0,0,.77-5.67,2.75,2.75,0,0,0-1.51-1.79c-1.46-.65-3.33.23-4.36,1.37a12.32,12.32,0,0,0-2.37,5.74C782.17,410.25,782.06,410.88,782,411.61Zm-3.16-52.48a9.15,9.15,0,0,0-1.66.15c-.68.13-2.32.54-2.85,1.6a2.67,2.67,0,0,0,.94,3,6.86,6.86,0,0,0,4.34,1.2,13.89,13.89,0,0,0,7.36-2.3,12.27,12.27,0,0,0-1-.91A11.35,11.35,0,0,0,778.81,359.13Z"/><path id="_Compound_Path_11" data-name="&lt;Compound Path&gt;" class="cls-6" d="M793.18,335.47c-2.39,0-4.66-.13-6.69-.24-8.14-.45-16.6-1.34-22.65-6.63a1.94,1.94,0,0,1,2.56-2.92c5.12,4.48,12.53,5.24,20.31,5.67s14.6.54,20.43-2.47c7.74-4,11.54-12.81,12.22-20.94-6.25,2.93-14.1.75-17.27-4.84a11.12,11.12,0,0,1,.06-10.51,9.59,9.59,0,0,1,7.51-5.45,9.91,9.91,0,0,1,7.62,2.53,19.19,19.19,0,0,1,5.53,10.15,16.41,16.41,0,0,0,2.52-7.81c.28-4.28-.84-8.49-2-12.94-.52-1.95-1-4-1.46-6-.85-4.18-2.07-14.51,4.87-20.26,4.48-3.71,10.73-3.89,15-3.71a23.77,23.77,0,0,1,9.53,2,54.39,54.39,0,0,1,9.91,0c5,.34,10,.7,15,1.07,7.11.53,14.46,1.08,20.93-1.52.44-.18.88-.38,1.31-.6A16,16,0,0,1,892,243.3a12.28,12.28,0,0,1,4.8-15.22,9.38,9.38,0,0,1,5.37-1.43c4.56.28,7.78,4.44,8.6,8.4a15.2,15.2,0,0,1-2.69,11.7,21.11,21.11,0,0,1-2.24,2.7A49.64,49.64,0,0,0,927.75,253a1.94,1.94,0,1,1,.26,3.87,53.4,53.4,0,0,1-25.54-4.61,21,21,0,0,1-3.91,2.09c-7.31,2.94-15.47,2.33-22.67,1.79-5-.37-10-.73-15-1.07-1.69-.11-3.46-.24-5.24-.25a14.5,14.5,0,0,1,2.74,6.28,12.12,12.12,0,0,1-2.76,10.47c-2.75,3-7.35,4-11.73,2.74-4.11-1.23-6.93-4.18-7.55-7.9a11.38,11.38,0,0,1,2.15-8.44,15.44,15.44,0,0,1,5.5-4.76c-.82-.09-1.64-.14-2.46-.17-4-.17-9,0-12.39,2.82-1.78,1.47-5.68,6-3.55,16.49.39,1.91.91,3.86,1.41,5.75,1.22,4.56,2.48,9.27,2.16,14.19a19.69,19.69,0,0,1-5.85,12.92c.07,12-5.51,22.55-14.45,27.15C804,334.88,798.31,335.47,793.18,335.47ZM810.65,291l-.6,0a5.82,5.82,0,0,0-4.46,3.37,7.36,7.36,0,0,0-.13,6.81c2.2,3.88,8,5.35,12.45,3.15a10.62,10.62,0,0,0,1.51-.91c-.31-4.33-2.16-8.62-4.69-10.82A6.11,6.11,0,0,0,810.65,291Zm39.84-35.82a17.57,17.57,0,0,0-3.69,1c-5,2-7.11,6.44-6.58,9.58.37,2.21,2.17,4,4.83,4.81,3,.88,6,.24,7.77-1.66a8.25,8.25,0,0,0,1.79-7.15A10.12,10.12,0,0,0,850.49,255.15Zm51.17-24.63a5.92,5.92,0,0,0-2.9.89,8.43,8.43,0,0,0-3.24,10.3c1,2.28,3.1,4.2,6.5,6,3.5-3,5.84-7.43,4.93-11.86-.51-2.46-2.45-5.16-5-5.31Z"/><path id="_Compound_Path_12" data-name="&lt;Compound Path&gt;" class="cls-6" d="M779.66,306.08a21.14,21.14,0,0,1-3.82-.37,32.44,32.44,0,0,1-19.9-12.21,1.95,1.95,0,0,1,3.1-2.35,28.47,28.47,0,0,0,17.49,10.74c3,.54,5.26.38,7-.49,4-2,5.07-7.66,4.69-12.28-.12-1.54-.36-3.14-.59-4.69a48.76,48.76,0,0,1-.72-7.95,14.38,14.38,0,0,1-7-12.65c.17-6,4-11.94,9.89-15.47,4.55-2.72,10.27-4.13,17.46-4.34,1,0,2-.05,3-.06,6.17-.11,12.49-.22,17-2.57-.95-.21-1.9-.44-2.85-.7-2.67-.75-6.54-2.08-9.33-5-3-3.15-3.9-7.58-2.33-11a10.38,10.38,0,0,1,6.1-5.22,13.64,13.64,0,0,1,16.6,19.15c11.32.58,22.55-2.58,31.64-5.69a1.94,1.94,0,1,1,1.25,3.67c-10.11,3.47-22.8,7-35.63,5.71-5.46,5.31-14.37,5.47-22.37,5.61q-1.53,0-3,.06c-6.51.19-11.61,1.43-15.59,3.79-4.8,2.86-7.86,7.55-8,12.24a10.64,10.64,0,0,0,3.67,8.2,13.53,13.53,0,0,1,7-8.68,8.5,8.5,0,0,1,7.55-.13l.73.35.26.76a9.56,9.56,0,0,1-1.83,9.12,11.18,11.18,0,0,1-9.64,4.41c-.23,0-.45,0-.68-.09a58.69,58.69,0,0,0,.67,6c.24,1.61.48,3.28.62,4.94.74,9-3.05,14.2-6.84,16.08A12.44,12.44,0,0,1,779.66,306.08ZM791,274a7.94,7.94,0,0,0,.83.13,7.38,7.38,0,0,0,6.22-3,6,6,0,0,0,1.41-4.63,5,5,0,0,0-3.39.43,9.64,9.64,0,0,0-4.92,6.28C791.12,273.47,791.08,273.72,791,274Zm32.19-51.42a9.2,9.2,0,0,0-3.07.51,6.45,6.45,0,0,0-3.85,3.16c-.91,2-.24,4.79,1.63,6.77,1.62,1.72,4,3,7.54,4a45.43,45.43,0,0,0,5.7,1.18,9.72,9.72,0,0,0-7.95-15.58Z"/></svg>