<svg id="Layer_1" data-name="Layer 1" xmlns="http://www.w3.org/2000/svg" viewBox="0 0 1366 768"><defs><style>.cls-1{fill:#fff;}.cls-2{fill:#e23d4d;}.cls-3{fill:#d6d5d3;}.cls-4{fill:#00b4ac;}.cls-5{fill:#eb2346;}.cls-6{fill:#001e2d;}</style></defs><title>3</title><path class="cls-1" d="M1366,184.63V768H0V0H918.53C1010.15,129.62,1177.82,145.75,1366,184.63Z"/><path class="cls-2" d="M1366,0V184.63c-188.18-38.88-355.85-55-447.47-184.63Z"/><path id="_Path_" data-name="&lt;Path&gt;" class="cls-1" d="M311.9,175.09c11.06,0,24.26-12.08,28.43-11.73s51.65,6.21,67.26,16.91S428,193,436,195.46s32.45,12.77,36.59,22.78,42.8,16.42,52.12,41,13.46,25.24,18,21.63,9.23-10.77,15.14-7.71,36.28,14.11,32.83,24.12-5.87,15.53-4.83,25.37,10.7,39.17-.35,42.62-25.54,1.38-20.36,16.23,9,65.92,4.83,74.2-10.09,26.24-12.12,32.45-5.48,23.2-13.07,33.86-36.93,50.36-48.32,55.19-78.94,34.51-122.48,25.88S320,577.2,315.51,564.43,293.76,546.91,291,522s-2.76-92.88-11.74-97-29-4.24-26.57-16.1-9.67-16-12.43-21.7-2.76-21.23,2.07-30-17.26-31.28-16.91-57.49,2.76-48.3,10.35-61.07,16.23-44.18,25.89-48.66S297.25,175.09,311.9,175.09Z"/><g id="_Group_" data-name="&lt;Group&gt;"><path class="cls-3" d="M290.87,255.43c4.12-5.64,11.42-7.76,18.21-9.38A462.09,462.09,0,0,1,425.9,233.62c2.82,6.4-1.74,13.93-7.7,17.57s-13.1,4.76-19.58,7.37c-18.52,7.44-30.19,26.91-33,46.67-1.68,11.7-1.41,25.17-10.19,33.09-5.37,4.84-13,6.36-18.73,10.8-8.11,6.34-10.85,17.56-10.36,27.84s3.61,20.26,4.92,30.47c4.12,32.35-10,66.59,1.49,97.1,7.85,20.79,26.76,35.94,47.49,43.93,17.61,6.8,39.18,8.49,54-3.21,9.51-7.51,14.56-19.16,21.65-29a81,81,0,0,1,54-32.47c5.66-.78,12-.76,16.38,2.9,6.46,5.4,5.37,15.67,2.26,23.49-6.63,16.68-19.41,30.1-32.73,42.12-8.61,7.77-17.66,15.21-28,20.53-17.7,9.14-38,11.52-57.82,13.59-13.42,1.4-27,2.73-40.35.5s-26.49-8.47-34.29-19.49c-3.34-4.73-5.58-10.16-8.75-15-5.64-8.62-14.16-15.32-18.5-24.67-3-6.4-3.76-13.58-4.5-20.6q-8.38-79.38-16.78-158.75c-1.13-10.69-2.26-21.52-.62-32.14.75-4.81,2.06-9.62,1.58-14.46-.35-3.45-1.59-6.73-2.36-10.1A37.9,37.9,0,0,1,287,269.78Z"/></g><path id="_Path_2" data-name="&lt;Path&gt;" class="cls-4" d="M431.16,272.85c-6.21-4.14-5.86-9,2.77-13.11s5.17-1,15.87-4.49,29.34-9,30.38,0-11.05,7.62-24.85,10.2-10.36,6.71-14.16,7.4S431.16,272.85,431.16,272.85Z"/><path id="_Path_3" data-name="&lt;Path&gt;" class="cls-4" d="M303.63,275.33s38.31-15.53,49.18-10.87,15.53-10.36,9.32-12.95-49.7-10.87-62.65,11.91S303.63,275.33,303.63,275.33Z"/><path id="_Path_4" data-name="&lt;Path&gt;" class="cls-4" d="M244.6,335.33c8.28,19.67,24.85,33.47,29,31.49s5.7-22.69,5.18-37.19,3.3-21.23.1-34.17-6.83-32.1-1.65-37.28,19.9-15.34,28.47-20.59c21.21-13,122.78-16.33,147.89-10.9,0,0,4.11-4.76-3.29-7.35S371,180.24,351.8,182.86s-51.29,15.79-61.12,12.68-23.82,5.69-29,14-30.54,54.36-28,81.8S244.6,335.33,244.6,335.33Z"/><path id="_Path_5" data-name="&lt;Path&gt;" class="cls-4" d="M341.61,494.33c4.83-7.32,15.28-6.27,18-13.18S376.57,468,384.36,468s65.9.06,67.41,13.14,3.62,20.29-5.94,21.37-31.73-1-46.23,0-26.14,3.81-30.76,7.08S327.89,515.09,341.61,494.33Z"/><path id="_Compound_Path_" data-name="&lt;Compound Path&gt;" class="cls-5" d="M411.61,435.75c-12.62,0-25.64-2.62-29.38-4l-.15-.05c-6.39-2.42-25.87-9.77-23.59-30.1,1-8.65,5.62-16.05,13.83-22a57.83,57.83,0,0,1,16.66-8.1c2.49-.73,2.68-3.43,2.15-8.84-.11-1.11-.21-2.15-.21-3.06,0-3.3-9.23-43.92-10.25-47.4a2.59,2.59,0,0,1,4.95-1.51c.11.35,10.48,44.15,10.48,48.91,0,.66.09,1.58.18,2.56.42,4.27,1.2,12.23-5.83,14.31-4.14,1.22-24.85,8.19-26.81,25.7-1.62,14.47,10,20.79,20.27,24.67l.15.06c5.93,2.24,35.19,6.83,46.07.21,13.4-8.16,14.67-15.36,14.46-20.06,0-.74-.06-1.52-.08-2.34-.24-6.49-.62-17.35-4.86-19.07a20.34,20.34,0,0,0-5.49-1.28c-3.26-.41-6.63-.84-11.73-5-8.27-6.69-18.74-36.59-19.67-39.78-1.09-3.73-6-16.6-6.7-18.22a2.66,2.66,0,0,1-.26-.6,2.59,2.59,0,0,1,1.77-3.2c1.49-.43,2.64.28,3.4,2.12.17.42.41,1,.7,1.76.59,1.5,1.36,3.52,2.12,5.54.93,2.48,3.18,8.53,3.94,11.15,1.65,5.67,11.75,32.18,17.95,37.2a15,15,0,0,0,9.14,3.87,25.05,25.05,0,0,1,6.78,1.61c7.34,3,7.77,14.95,8.08,23.69,0,.8.06,1.57.09,2.29.41,9.43-5.13,17.52-16.95,24.71C427.63,434.67,419.7,435.75,411.61,435.75ZM398.08,322.64a3,3,0,0,0,.92-.09A2.91,2.91,0,0,1,398.08,322.64Zm-1.93-1.13a2.45,2.45,0,0,0,.76.74A2.55,2.55,0,0,1,396.15,321.51Z"/><path id="_Compound_Path_2" data-name="&lt;Compound Path&gt;" class="cls-6" d="M316.24,329.66c-3.07,0-6.77-.54-8.57-3.31-1.45-2.2-1.23-5.09.63-8.59,5.27-9.88,6.87-12.87,18.09-15.7,10.57-2.66,19-4.49,23.44-1.81a5.89,5.89,0,0,1,2.75,3.71c1.63,6.74-4,16.3-5.61,18.14-2.26,2.6-7.7,5.86-15.61,6.45-2.43.18-4.49.36-6.31.52-2,.18-3.64.32-5,.39h0l-.61,0C318.62,329.57,317.48,329.66,316.24,329.66ZM344,304.09c-4.43,0-11.58,1.8-16.3,3-9,2.27-9.66,3.51-14.79,13.12-1.08,2-1.06,3-.87,3.32s1.46,1.27,7.08.82l.73,0h0c1.23-.07,2.8-.2,4.79-.38,1.83-.16,3.91-.34,6.37-.52,6.8-.51,10.88-3.29,12.09-4.68,1.46-1.69,5.49-9.39,4.49-13.53a.73.73,0,0,0-.39-.5A6.56,6.56,0,0,0,344,304.09Z"/><path id="_Compound_Path_3" data-name="&lt;Compound Path&gt;" class="cls-6" d="M471.44,310.72a12.49,12.49,0,0,1-2.17-.19A98.7,98.7,0,0,1,454,306c-1.09-.4-2-.74-2.73-1l-1.29-.4c-2.92-.87-6.56-2-7.7-5.13-1.08-3-.92-5.51.5-7.47,1.73-2.4,5-3.5,10-3.37,1.52,0,3.33.05,5.25.05,12.94.06,22.36.4,25.68,4.39a5.06,5.06,0,0,1,1.13,4.26C483.6,304.16,478.59,310.72,471.44,310.72ZM452,293.8c-3.79,0-4.78.93-5,1.23-.34.48-.28,1.41.18,2.69.25.71,3.31,1.62,4.31,1.92.51.15,1,.3,1.45.45h0c.76.25,1.73.6,2.86,1a94.31,94.31,0,0,0,14.38,4.33c5,.89,8.65-4,9.55-9v0c-.15-.19-1.3-1.36-7.25-2-4.44-.48-9.78-.5-14.48-.52-1.95,0-3.78,0-5.36-.06Z"/><path id="_Compound_Path_4" data-name="&lt;Compound Path&gt;" class="cls-6" d="M385.15,419.67c-4.6,0-10.33-1-12.49-4a13.72,13.72,0,0,1-2.79-8.13c-.32-7.13,2.44-9.92,4.82-11,4.25-1.93,16.8-2.93,20.81,4,2.57,4.41,1.66,9.9.11,13.27-1.42,3.07-3.63,5.08-6.06,5.52A25.71,25.71,0,0,1,385.15,419.67Zm-2.3-19.33a16.53,16.53,0,0,0-6,.94c-1.28.58-1.94,2.79-1.79,6.05a8.65,8.65,0,0,0,1.83,5.34c1.08,1.51,8,2.24,11.76,1.57.56-.11,1.52-1,2.27-2.6,1.32-2.86,1.37-6.35.13-8.5S386.23,400.34,382.85,400.34Z"/><path id="_Compound_Path_5" data-name="&lt;Compound Path&gt;" class="cls-6" d="M428.9,420.76a21.26,21.26,0,0,1-2.94-.2c-7.94-1.06-8.95-4.34-9.39-8.2-.06-.49-.11-.95-.19-1.4-.86-4.67-.58-11.34,2.77-16.07,4.49-6.35,13.26-2.81,18-.91,6.66,2.69,5.29,12.17,4.63,16.72-.08.58-.16,1.08-.2,1.49a8.63,8.63,0,0,1-3.44,5.75A14.82,14.82,0,0,1,428.9,420.76Zm-2.25-24.34a3.71,3.71,0,0,0-3.28,1.46c-2.42,3.42-2.54,8.68-1.9,12.14h0c.11.63.18,1.22.24,1.75.27,2.34.35,3.05,4.93,3.66,3.41.46,6.43-.12,8.29-1.57a3.55,3.55,0,0,0,1.48-2.24c0-.46.13-1,.23-1.66.47-3.25,1.45-10-1.45-11.18C431.64,397.35,428.77,396.42,426.65,396.42Z"/><path id="_Compound_Path_6" data-name="&lt;Compound Path&gt;" class="cls-6" d="M397.29,535l-1,0c-11.56-.38-24.19-3.19-27.75-5.45h0c-4.87-3.07-7.05-6.1-6.5-9,.75-3.84,5.77-4.76,7.42-5.06,3.34-.61,7.38-1.52,11.67-2.47,8.3-1.86,16.89-3.78,21.49-3.78,1.27,0,3-.05,5-.1,11.65-.29,21.59-.34,25.24,2,1.12.72,4.07,2.63,3.9,5.83-.19,3.37-3.76,5.53-6.43,6.86L428.09,525C420.15,529,408.28,535,397.29,535Zm-30-13.41a12.54,12.54,0,0,0,4.08,3.57h0c2.24,1.42,13.49,4.26,25.16,4.65,9.92.34,21.56-5.56,29.26-9.46l2.27-1.14c2.63-1.32,3.35-2.2,3.52-2.48a5.09,5.09,0,0,0-1.49-1.23c-2.61-1.69-16.41-1.34-22.3-1.19-2,0-3.78.09-5.11.09-4,0-12.71,1.94-20.36,3.66-4.34,1-8.43,1.88-11.87,2.51A8.93,8.93,0,0,0,367.25,521.61Z"/><path id="_Path_6" data-name="&lt;Path&gt;" class="cls-6" d="M343.39,512.48a2.58,2.58,0,0,1-2.25-3.86c.46-1.79-.32-10.19-.76-11.78a2.59,2.59,0,0,1,4.95-1.52,51.39,51.39,0,0,1,1,7.42c.46,6.36-.18,7.82-.82,8.69A2.58,2.58,0,0,1,343.39,512.48Z"/><path id="_Path_7" data-name="&lt;Path&gt;" class="cls-6" d="M349.85,515.33a2.54,2.54,0,0,1-1.64-.59,2.59,2.59,0,0,1-.37-3.64c1.28-1.63,1.29-11.88,0-21.94a2.59,2.59,0,1,1,5.14-.64c.79,6.38,2.27,21.66-1.17,25.86A2.56,2.56,0,0,1,349.85,515.33Z"/><path id="_Path_8" data-name="&lt;Path&gt;" class="cls-6" d="M359,515.33a2.56,2.56,0,0,1-1.8-.73,2.58,2.58,0,0,1-.15-3.57c.75-1.27,1.74-7.94,1.47-12.72-.29-5-2.42-14-3.75-15.93a2.59,2.59,0,1,1,4.24-3c2.4,3.41,4.42,14.13,4.68,18.59a52.47,52.47,0,0,1-.44,9.05c-.78,5.81-1.95,7-2.39,7.48A2.6,2.6,0,0,1,359,515.33Z"/><path id="_Path_9" data-name="&lt;Path&gt;" class="cls-6" d="M370,512.48a2.59,2.59,0,0,1-1.38-4.78c1.08-1.74.86-10.6-.73-15.47-1.78-5.41-3.5-17.92-3.42-21.57a2.59,2.59,0,1,1,5.17.12c-.06,2.92,1.52,14.82,3.17,19.84a42.54,42.54,0,0,1,1.66,11.46c.08,5.77-1,9-3.34,10.14A2.55,2.55,0,0,1,370,512.48Z"/><path id="_Path_10" data-name="&lt;Path&gt;" class="cls-6" d="M380.65,509.26a2.55,2.55,0,0,1-1.75-.69,2.59,2.59,0,0,1-.15-3.66s2.06-2.45-.5-18.14a150.09,150.09,0,0,0-4.2-18.92A2.59,2.59,0,0,1,378.9,466,156.73,156.73,0,0,1,383.37,486c3,18.36.22,21.35-.82,22.47A2.55,2.55,0,0,1,380.65,509.26Z"/><path id="_Path_11" data-name="&lt;Path&gt;" class="cls-6" d="M391.35,508.26a2.59,2.59,0,0,1-1.64-4.6c1.43-1.16,1.93-7.28.06-16.33-.72-3.48-4.44-16.38-5.82-20.77a2.59,2.59,0,1,1,4.93-1.56c1.31,4.15,5.14,17.32,6,21.28,1.31,6.35,2.81,17.58-1.85,21.39A2.6,2.6,0,0,1,391.35,508.26Z"/><path id="_Path_12" data-name="&lt;Path&gt;" class="cls-6" d="M409.12,505a2.52,2.52,0,0,1-1.37-.39c-3.45-2.15-6.26-7.24-8.87-16-1.91-6.44-3.4-18.49-3.22-22.11a2.59,2.59,0,1,1,5.17.27c-.14,2.8,1.19,14.24,3,20.36,2.7,9.07,5.11,12.12,6.65,13.09a2.59,2.59,0,0,1-1.37,4.78Z"/><path id="_Path_13" data-name="&lt;Path&gt;" class="cls-6" d="M417.13,504a2.5,2.5,0,0,1-1.28-.35c-4.06-2.33-5.7-8.78-7.44-15.61l-.15-.6a138.56,138.56,0,0,1-2.51-15.61c-.18-1.47-.33-2.74-.43-3.3a2.59,2.59,0,1,1,5.1-.88c.12.69.27,1.89.47,3.56a139.19,139.19,0,0,0,2.39,15l.15.59c1.2,4.71,2.84,11.16,5,12.4a2.59,2.59,0,0,1-1.29,4.84Z"/><path id="_Path_14" data-name="&lt;Path&gt;" class="cls-6" d="M425.51,503a2.67,2.67,0,0,1-1.13-.26c-4.72-2.29-6.77-9.62-8.3-17.2a147.49,147.49,0,0,1-1.83-16.31l0-.39a2.59,2.59,0,0,1,5.17-.37l0,.39a142.1,142.1,0,0,0,1.75,15.66c1.61,8,3.45,12.58,5.48,13.56a2.59,2.59,0,0,1-1.13,4.92Z"/><path id="_Path_15" data-name="&lt;Path&gt;" class="cls-6" d="M431.88,500.51a2.54,2.54,0,0,1-1.42-.43c-2.84-1.86-4.17-5.43-5.3-10.21-1.23-5.23-.08-14.77.8-19.59a2.59,2.59,0,1,1,5.1.93c-.88,4.78-1.83,13.38-.86,17.46s1.93,6.32,3.11,7.09a2.59,2.59,0,0,1-1.43,4.75Z"/><path id="_Path_16" data-name="&lt;Path&gt;" class="cls-6" d="M443,499.14a2.49,2.49,0,0,1-.92-.17c-4-1.53-8.5-6.11-8.9-11.58-.45-6,3.13-11.86,4.68-14.1a2.59,2.59,0,0,1,4.25,3c-1,1.39-4.1,6.28-3.77,10.76.26,3.51,3.49,6.32,5.58,7.12a2.59,2.59,0,0,1-.92,5Z"/><path id="_Path_17" data-name="&lt;Path&gt;" class="cls-6" d="M450.5,495.77a2.55,2.55,0,0,1-2-.93l-.27-.23a10.33,10.33,0,0,1-3.89-7.52,13.67,13.67,0,0,1,1.49-8.36c.27-.58.53-1.13.74-1.72a2.59,2.59,0,1,1,4.88,1.72,22.56,22.56,0,0,1-.93,2.19,8.76,8.76,0,0,0-1,5.6,5.33,5.33,0,0,0,2.07,4.13,6,6,0,0,1,1,.93,2.58,2.58,0,0,1-2,4.19Z"/><path id="_Path_18" data-name="&lt;Path&gt;" class="cls-6" d="M431,273.43a2.58,2.58,0,0,1-2.33-1.47c-.11-.24-2.81-6-1.42-11.43a36.76,36.76,0,0,1,5.95-11.92,14.79,14.79,0,0,1,3.34-3.28,2.59,2.59,0,0,1,2.84,4.33h0a10.57,10.57,0,0,0-2.08,2.11,31.05,31.05,0,0,0-5,10c-.92,3.63,1.05,7.9,1.07,7.94a2.59,2.59,0,0,1-2.34,3.69Z"/><path id="_Path_19" data-name="&lt;Path&gt;" class="cls-6" d="M453.12,267.78a2.5,2.5,0,0,1-1-.2,2.59,2.59,0,0,1-1.4-3.38c.18-.42,4.42-10.38,14.58-14.28a2.59,2.59,0,1,1,1.86,4.83c-8.12,3.11-11.62,11.35-11.66,11.44A2.58,2.58,0,0,1,453.12,267.78Z"/><path id="_Path_20" data-name="&lt;Path&gt;" class="cls-6" d="M463.13,265.11a2.59,2.59,0,0,1-1.61-4.62c.79-.63,1.53-1.25,2.23-1.84,3.11-2.6,5.8-4.85,10.13-5.52a2.59,2.59,0,0,1,.79,5.12c-2.9.44-4.77,2-7.59,4.37-.73.61-1.49,1.25-2.34,1.92A2.58,2.58,0,0,1,463.13,265.11Z"/><path id="_Path_21" data-name="&lt;Path&gt;" class="cls-6" d="M471.6,266.84a2.55,2.55,0,0,1-1.92-.85,2.58,2.58,0,0,1,.18-3.65c.26-.23,6.32-5.65,13.63-6.44a2.59,2.59,0,0,1,.56,5.14c-4.7.51-9.33,3.88-10.72,5.14A2.58,2.58,0,0,1,471.6,266.84Z"/><path id="_Path_22" data-name="&lt;Path&gt;" class="cls-6" d="M480.15,268.46a2.59,2.59,0,0,1-1.06-4.95,32.74,32.74,0,0,1,5.05-1.69c4.08-1,7.3-.77,9.57.61a2.59,2.59,0,0,1-2.7,4.42c-1.92-1.18-7,.13-9.81,1.39A2.6,2.6,0,0,1,480.15,268.46Z"/><path id="_Path_23" data-name="&lt;Path&gt;" class="cls-6" d="M367.74,268.79a2.58,2.58,0,0,1-2.22-1.25c-2.49-4.11-7.16-11.27-9-13-6-5.43-7.35-6.16-7.48-6.23a2.59,2.59,0,0,1,2.3-4.64c.52.26,1.9.94,8.65,7,3.07,2.77,9.31,13,10,14.14a2.59,2.59,0,0,1-.87,3.55A2.55,2.55,0,0,1,367.74,268.79Z"/><path id="_Path_24" data-name="&lt;Path&gt;" class="cls-6" d="M337.74,273.65A2.54,2.54,0,0,1,336,273c-8.75-7.7-15-11.55-16.67-11.82a2.59,2.59,0,0,1,.85-5.11c1.54.26,4.45,1.26,11.9,7,3.92,3,7.2,5.91,7.34,6a2.59,2.59,0,0,1-1.71,4.53Z"/><path id="_Path_25" data-name="&lt;Path&gt;" class="cls-6" d="M329.41,275.44a2.56,2.56,0,0,1-1.82-.74c-2.62-2.59-10.59-9.49-16-10.31a2.59,2.59,0,1,1,.78-5.12c3.52.54,7.78,2.7,12.68,6.44a69.53,69.53,0,0,1,6.17,5.31,2.58,2.58,0,0,1-1.82,4.42Z"/><path id="_Path_26" data-name="&lt;Path&gt;" class="cls-6" d="M321.23,276.37a2.56,2.56,0,0,1-1.59-.55h0c-.08-.06-7.92-6.12-14.44-6.12H305a2.59,2.59,0,0,1-.09-5.17h.27c8.33,0,17.26,6.93,17.64,7.23a2.59,2.59,0,0,1-1.6,4.62Z"/><path id="_Path_27" data-name="&lt;Path&gt;" class="cls-6" d="M313,280.87a2.58,2.58,0,0,1-1.72-.66c-.07-.06-5.26-4.62-11.34-5.38a2.59,2.59,0,0,1,.65-5.14c7.72,1,13.89,6.43,14.14,6.66a2.59,2.59,0,0,1-1.73,4.52Z"/><path id="_Path_28" data-name="&lt;Path&gt;" class="cls-6" d="M306.64,283.37a2.52,2.52,0,0,1-1.28-.35c-.08,0-5-2.76-9.18-2a2.59,2.59,0,1,1-.89-5.1c6.1-1.06,12.38,2.49,12.64,2.64a2.59,2.59,0,0,1-1.29,4.84Z"/><path id="_Compound_Path_7" data-name="&lt;Compound Path&gt;" class="cls-6" d="M582.89,306.49c3-9.92-6.61-14.7-21.19-21.92l-.64-.31a14.81,14.81,0,0,0-11.84-.8c-6.4,2.25-11.33,8.43-14.21,12.93-12.09-31.5-31.66-53.48-58.24-65.39a61.13,61.13,0,0,0-6-2.3c-4.37-6.58-14.14-16.67-21.78-19.11-6.46-2.05-29-14.62-33.7-17.69-4.94-3.2-36.87-14.27-49.06-16.12-2.92-.44-5.5-1-8-1.48-7.65-1.57-14.26-2.92-23.69.24-3.11,1-6.15,2.2-9.08,3.33-7.83,3-15.21,5.84-21.59,5.35-11.42-.9-24.63,13.66-28.41,18.15-5.65,6.72-17.21,27.66-20.52,58.85-3.39,31.92-3.9,38.85-3.64,49.47.27,11.09,2,20.43,9.62,29.93,2.48,3.1,5.43,6.53,8.24,9.69-3.57-.63-7.41-.45-10.38,1.83-1.25,1-2.66,1.88-4,2.77-5.11,3.34-10.89,7.13-10.81,14.84a27.73,27.73,0,0,0,11.58,22.13c3.82,2.61,5.41,4.78,5.62,5.95a.6.6,0,0,1-.07.52c-1.67,2.36-2.82,8.5-.86,12.75a8.18,8.18,0,0,0,7,4.78c1.11.1,2.34.15,3.64.15a62.27,62.27,0,0,0,10.17-.87,34,34,0,0,0,5.37-1.27c0,.11,0,.22.05.33,1.12,7.28,2,13,2.44,16.25,1.91,14.25,6.79,64.88,6.79,74,0,1,.1,24.5,9.06,30.67,5.21,3.6,16.35,21.95,21.7,30.78l.34.53c4.84,8,13.84,22.82,50.13,28.49A100.89,100.89,0,0,0,392.32,595c29.91,0,63.34-10.95,80.77-16.66l1.3-.43c16.26-5.32,30.19-20.9,41.38-33.42,2.35-2.63,4.57-5.11,6.64-7.3,12-12.73,22.7-34.49,23.13-39,.28-3,6.63-19.52,11.15-29,3.79-8,3.17-32.23,1.88-65.64-.08-2.23-.17-4.44-.25-6.6-.37-9.89-2.28-22.15-4.89-34.73,1.41.07,3.18.13,5.14.13,4.95,0,11.15-.37,16-1.85,10.74-3.23,7.78-24.1,6.2-35.31q-.13-.92-.24-1.68c-.93-6.83-.39-8.54,1.26-13.64C582.14,308.87,582.5,307.76,582.89,306.49ZM265,336.39c-6.73-8.41-8.23-16.5-8.49-26.83s.26-17.17,3.61-48.79c3.3-31.06,15.08-51,19.34-56.07,5.34-6.34,16.41-16.92,24.05-16.33s15.46-2.45,23.84-5.66c2.88-1.11,5.87-2.25,8.87-3.26,8.11-2.72,13.52-1.61,21-.08,2.43.5,5.19,1.07,8.24,1.53,12.33,1.87,43.06,12.78,47,15.35,4.26,2.76,27.67,16,34.94,18.28,4.33,1.38,10.49,6.63,15.11,11.94a151.82,151.82,0,0,0-21.12-3c-3.14-3.36-16.26-16.52-34-22.54l-6.67-2.27c-15.22-5.22-23.61-8.1-34.42-7.8-11.84.33-26.63-2.72-29-5.24a2.59,2.59,0,1,0-3.74,3.57c4.46,4.69,22.19,7.15,32.93,6.85,9.87-.27,17.46,2.33,32.6,7.52l6.67,2.28C417.89,210,428,218,433.51,223c-5.5-.23-11.16-.3-16.87-.23-1.38-2-4.53-5.31-11.23-8.27-8.84-3.9-22.55-9.17-39.4-9.86-17.63-.72-30.85-3.83-35.66-6.41a57.08,57.08,0,0,1-11-8.4,2.59,2.59,0,1,0-3.65,3.67,61.88,61.88,0,0,0,12.24,9.29c6.61,3.54,21.83,6.37,37.9,7,15.79.65,28.35,5.38,37.52,9.43A28.8,28.8,0,0,1,409.6,223c-6.11.18-12.23.49-18.25.89h0c-2-2.47-7.43-7.1-20.44-9.11-6-.94-12-1.45-17.72-2-9.49-.82-18.46-1.6-24.59-4.14-10.32-4.28-20.09-10.53-21.31-12.2a2.59,2.59,0,0,0-4.55,2.48c1.91,3.61,15.42,11,23.88,14.5,6.87,2.85,16.22,3.66,26.11,4.52,5.67.5,11.53,1,17.39,1.92,6.89,1.06,11.22,2.89,13.86,4.53-8.18.64-16.08,1.42-23.37,2.23-1.8-1.59-6-4.87-14.34-5.89-3.49-.43-6.91-.7-10.22-.95-6.38-.49-12.4-1-18.23-2.51-9.81-2.61-20.36-7.73-23.51-11.4a2.59,2.59,0,0,0-3.93,3.37c4.39,5.12,16.73,10.54,26.11,13,6.29,1.68,12.54,2.16,19.16,2.67,3.25.25,6.62.51,10,.93a25.93,25.93,0,0,1,6.75,1.69c-6.75.81-12.78,1.59-17.78,2.24-3,.39-5.69.74-7.86,1h0c-2.2-1.1-10.4-4.93-18.2-5.3-2.16-.1-4.12-.1-5.84-.11-5,0-8.33,0-11.73-2.19-5.73-3.65-8.57-6-9.2-6.81a2.59,2.59,0,0,0-5,1.16c.14,1.11.38,3,11.43,10,4.67,3,9,3,14.5,3,1.76,0,3.57,0,5.62.1a35.53,35.53,0,0,1,9,1.85,79,79,0,0,0-11.84,3.92c-1.62-1.07-4.57-2.32-9.75-2.59-7.33-.37-13.21-1-16.74-4.87l-4.26-4.71a2.59,2.59,0,0,0-3.84,3.48l4.26,4.71c4.84,5.35,12.07,6.14,20.32,6.57a23.53,23.53,0,0,1,3.62.44,79.74,79.74,0,0,0-9.3,5.77h0a24.1,24.1,0,0,0-6.16-1.47c-4.84-.64-7.53-2.07-8.36-3.11a24.78,24.78,0,0,1-2.74-5,2.59,2.59,0,0,0-5.1.91c.24,1.52,2.47,5.67,3.8,7.33,2,2.49,6.16,4.27,11.73,5,.68.08,1.29.18,1.82.28-1.62,1.38-2.92,2.62-3.91,3.62a12.07,12.07,0,0,0-2,2.82c-3.57-.17-6.17-1.11-6.77-1.84a20.41,20.41,0,0,1-3.52-5.72,2.59,2.59,0,0,0-5.16.41c.13,2.1,2.52,6,4.7,8.63,2,2.4,6,3.26,9,3.56a24.68,24.68,0,0,0-.39,8.93,7.05,7.05,0,0,1-3.12-1.45c-4.29-3.33-5.27-5.85-5.27-5.87a10,10,0,0,1-.32-1.65,2.59,2.59,0,1,0-5.15.55,17,17,0,0,0,.52,2.64c.56,1.79,2.73,5.07,7,8.42a11.78,11.78,0,0,0,7.29,2.62c.24,0,.47,0,.69,0,.34,1.86.68,4.95,1,8.65-2.59-.8-5.82-2.15-7.73-4.06-4.17-4.17-4.67-6-4.83-6.58a2.59,2.59,0,1,0-5,1.38c.49,1.74,1.62,4.32,6.17,8.86,3.36,3.36,8.83,5.14,11.76,5.89.16,2.75.29,5.65.38,8.53a17.88,17.88,0,0,0-4.54-2.74c-4.74-1.91-8.55-5.11-9.13-6.9-1-3-1.74-5.38-1.75-5.39a2.59,2.59,0,1,0-4.93,1.57s.78,2.44,1.76,5.43c1.35,4.12,7.22,8.12,12.11,10.09,3.16,1.27,5.67,4.26,6.6,5.46,0,1.58,0,3.1-.07,4.53l0,1a15.86,15.86,0,0,0-5-3.72,31,31,0,0,1-11.89-10.27,2.59,2.59,0,1,0-4.41,2.7,35.59,35.59,0,0,0,14.06,12.24c5.53,2.66,6.52,8.56,6.69,11v0c-.21,3.78-.47,7.53-.72,11.23a24.88,24.88,0,0,1-2.71-4.48,24.37,24.37,0,0,1-1-3.13c-.82-2.91-1.66-5.92-6.38-8.47a10.8,10.8,0,0,1-5.18-6.28,2.59,2.59,0,0,0-5,1.24,16.13,16.13,0,0,0,7.75,9.6c2.79,1.5,3.14,2.78,3.85,5.31a29.35,29.35,0,0,0,1.27,3.77c1.64,3.83,5.32,8.2,6.94,10-.1,1.39-.19,2.77-.28,4.14a49.9,49.9,0,0,0,.14,6.09c.69.76,1.34,1.45,1.93,2.09a2.82,2.82,0,0,0-.68-.56c-.19-.11-.61-.33-1.19-.62,0-.31,0-.62-.06-.91C274.28,347.31,269,341.41,265,336.39Zm2.7,73.33a3,3,0,0,1-2.73-1.8c-1.19-2.58-.21-6.73.39-7.59a5.77,5.77,0,0,0,.93-4.43c-.55-3-3.17-6.14-7.8-9.29a22.75,22.75,0,0,1-9.31-17.91c-.05-4.65,3.18-7,8.46-10.46,1.44-.94,2.93-1.91,4.34-3,3.58-2.76,11.56.52,14.55,2.12l2.42,2.59c1.46,13.3,4.29,32.22,6.66,47.69C283,408.91,274.12,410.31,267.67,409.72ZM552,467c-3.63,7.62-11.21,26.25-11.63,30.72-.29,2.94-10.32,23.89-21.73,36-2.12,2.24-4.36,4.75-6.74,7.41-10.78,12-24.19,27-39.13,31.94l-1.3.43c-20.13,6.6-62,20.32-93.79,15.35-31.29-4.89-40.41-16-46.51-26l-.33-.54c-8.26-13.61-17.55-28.45-23.19-32.35-4.27-2.94-6.82-15.74-6.82-26.41,0-9.78-5.11-61.76-6.84-74.66-.44-3.26-1.33-9-2.45-16.35-.2-1.33-.41-2.71-.64-4.14l0-.25c-2.35-15.37-5.43-35.84-6.9-49.45a.09.09,0,0,0,0,0,91.79,91.79,0,0,1-.8-12.77c.11-1.7.23-3.41.34-5.14a2.46,2.46,0,0,0,0-.26l.18-2.57c.31-4.39.62-8.85.9-13.36h0c0-.61.07-1.21.11-1.83v-.05c.24-4.25.45-8.53.57-12.85.18-6-.05-15-.56-23-.92-14.08-2-15.7-2.6-16.46-.69-1.28-.82-7,.72-11l.06-.15a8.1,8.1,0,0,1,1.63-2.65,73.54,73.54,0,0,1,42.82-20.51c2.19-.26,4.85-.61,7.92-1,6.56-.85,14.93-1.93,24.37-3h0l.92-.1h0c23.63-2.63,53.74-5.06,79-3.3h0l.79.06h0c10.33.76,19.83,2.23,27.7,4.68a0,0,0,0,1,0,0l.37.12a59.57,59.57,0,0,1,6.19,2.33c26.65,11.95,45.94,34.68,57.36,67.54,0,0,0,.08,0,.13a.42.42,0,0,0,0,.1.49.49,0,0,0,0,.11,550.49,550.49,0,0,1,15.52,56.3c2.91,13.46,5.09,26.75,5.48,37.25.09,2.16.17,4.37.26,6.6C554.36,428.6,555.56,459.53,552,467Zm25.92-162c-.38,1.24-.72,2.33-1,3.3-1.7,5.28-2.56,7.94-1.46,15.93.07.52.15,1.09.24,1.7,1,6.85,3.91,27.68-2.57,29.64-6.68,2-16.7,1.67-20.8,1.42a557.52,557.52,0,0,0-15-54.24c1.52-2.91,6.73-12,13.63-14.38a9.64,9.64,0,0,1,7.83.55l.63.31C573.82,296.36,579.61,299.48,577.93,305Z"/><path id="_Path_29" data-name="&lt;Path&gt;" class="cls-6" d="M436.91,271.61a2.58,2.58,0,0,1-2.51-2c-.15-.61-1.36-6.08,1.4-10.17.53-.78,1.25-1.82,2.06-3,1.71-2.45,4.85-6.94,5.42-8.24a2.59,2.59,0,0,1,5.13,0c.18,1.48-.38,2.69-6.31,11.17-.78,1.12-1.49,2.13-2,2.89-1.28,1.9-.9,5.1-.67,6.08a2.58,2.58,0,0,1-2.52,3.19Z"/><path id="_Path_30" data-name="&lt;Path&gt;" class="cls-6" d="M345.14,273a2.6,2.6,0,0,1-2.54-2.11c-.68-3.58-10.37-9.89-13.56-12-.74-.48-1.35-.87-1.76-1.16a2.59,2.59,0,0,1,3-4.25l1.62,1.07c7.65,5,14.86,10.28,15.83,15.33a2.59,2.59,0,0,1-2.06,3A2.72,2.72,0,0,1,345.14,273Z"/><path id="_Path_31" data-name="&lt;Path&gt;" class="cls-6" d="M351.78,270.09a2.6,2.6,0,0,1-2.54-2.11c-.68-3.58-10.38-9.89-13.56-12l-1.76-1.16a2.59,2.59,0,0,1,3-4.25c.37.26.93.63,1.62,1.07,7.65,5,14.86,10.27,15.83,15.33a2.6,2.6,0,0,1-2.06,3A2.81,2.81,0,0,1,351.78,270.09Z"/><path id="_Path_32" data-name="&lt;Path&gt;" class="cls-6" d="M359.77,270.57a2.6,2.6,0,0,1-2.57-2.27c-.22-1.81-2.57-6.41-15.75-16.79l-.5-.39a2.59,2.59,0,0,1,3.21-4.06l.49.38c15.07,11.87,17.32,17.23,17.69,20.22a2.58,2.58,0,0,1-2.25,2.89A1.77,1.77,0,0,1,359.77,270.57Z"/><path id="_Path_33" data-name="&lt;Path&gt;" class="cls-6" d="M444.56,271.41h-.2a2.6,2.6,0,0,1-2.39-2.78c.44-5.79,2.27-9.38,5.5-14,2.46-3.51,4.53-5.45,6.14-5.76a2.59,2.59,0,0,1,1.39,5,14.83,14.83,0,0,0-3.3,3.77c-2.81,4-4.21,6.74-4.56,11.39A2.59,2.59,0,0,1,444.56,271.41Z"/></svg>