<?xml version="1.0" encoding="utf-8"?>
<!-- Generator: Adobe Illustrator 22.0.1, SVG Export Plug-In . SVG Version: 6.00 Build 0)  -->
<svg version="1.1" id="Layer_1" xmlns="http://www.w3.org/2000/svg" xmlns:xlink="http://www.w3.org/1999/xlink" x="0px" y="0px"
	 viewBox="0 0 91 124.6" style="enable-background:new 0 0 91 124.6;" xml:space="preserve">
<style type="text/css">
	.st0{opacity:0.25;}
	.st1{fill:#005A64;}
</style>
<g class="st0">
	<path class="st1" d="M91,124.6H1.5v-22.4L31.4,72c8.4-8.8,14-14.9,16.6-18.2c2.6-3.2,4.4-6,5.4-8.3c1-2.3,1.5-4.7,1.5-7.1
		c0-3-1-5.4-2.9-7.1c-2-1.7-4.8-2.6-8.3-2.6c-3.7,0-7.6,1.1-11.4,3.2c-3.9,2.2-8.3,5.4-13.2,9.7l-0.4,0.3L0,20l0.4-0.3
		C6.6,14,12,9.9,16.3,7.5c4.3-2.4,9-4.3,14.1-5.6C35.4,0.6,41.2,0,47.5,0c7.9,0,15.1,1.4,21.3,4.2C75.1,7,80,11.1,83.4,16.3
		c3.5,5.2,5.2,11.1,5.2,17.6c0,4.8-0.6,9.3-1.8,13.4c-1.2,4.1-3.1,8.1-5.6,12.1c-2.5,3.9-5.9,8.1-10,12.5
		c-4.1,4.3-13,12.6-26.3,24.6v0.1H91V124.6z M2.5,123.6H90V97.4H43.9v-1.6l0.2-0.1c13.4-12,22.3-20.3,26.4-24.6
		c4.1-4.3,7.4-8.4,9.9-12.3c2.5-3.9,4.3-7.8,5.5-11.8c1.2-4,1.8-8.4,1.8-13.1c0-6.3-1.7-12-5-17c-3.3-5-8.1-9-14.2-11.7
		C62.3,2.4,55.2,1,47.5,1c-6.2,0-11.9,0.6-16.8,1.9C25.7,4.2,21,6,16.8,8.4c-4.1,2.3-9.3,6.3-15.4,11.7l17.4,20.4
		c4.8-4.1,9.2-7.3,13-9.4c4-2.2,8-3.4,11.9-3.4c3.8,0,6.9,1,9,2.9c2.2,1.9,3.3,4.6,3.3,7.9c0,2.6-0.5,5.1-1.6,7.5
		c-1,2.4-2.9,5.2-5.5,8.5c-2.6,3.3-8.2,9.4-16.7,18.2l-29.6,30V123.6z"/>
</g>
</svg>
