<?xml version="1.0" encoding="utf-8"?>
<!-- Generator: Adobe Illustrator 22.0.1, SVG Export Plug-In . SVG Version: 6.00 Build 0)  -->
<svg version="1.1" id="Layer_1" xmlns="http://www.w3.org/2000/svg" xmlns:xlink="http://www.w3.org/1999/xlink" x="0px" y="0px"
	 viewBox="0 0 90 126.3" style="enable-background:new 0 0 88.2 126.3;" xml:space="preserve">
<style type="text/css">
	.st0{opacity:0.25;}
	.st1{fill:#005A64;}
</style>
<g class="st0">
	<path class="st1" d="M36.9,126.3c-6.6,0-12.7-0.5-18.3-1.4s-11.7-2.7-18.2-5.2L0,119.6V91.1l0.7,0.4c5.3,2.7,10.7,4.7,16.2,6
		s10.6,1.9,15.2,1.9c7.1,0,12.3-1,15.5-3c3.2-1.9,4.7-4.9,4.7-9.1c0-3.2-0.8-5.7-2.4-7.4c-1.7-1.7-4.4-3.1-8.1-3.9
		c-3.8-0.9-8.8-1.4-14.9-1.4h-8V48.9h8.2c16.3,0,24.6-4.2,24.6-12.3c0-3.1-1.1-5.3-3.5-6.7c-2.4-1.5-5.6-2.3-9.7-2.3
		c-7.6,0-15.7,2.6-23.9,7.8l-0.4,0.3L0,12.7l0.4-0.3C6.9,8,13.6,4.8,20.3,2.9C27.1,1,35,0,43.7,0c12.7,0,22.7,2.6,30,7.6
		c7.3,5.1,11,12.2,11,21.1c0,7.6-2.4,14.3-7,19.8c-4.5,5.2-10.9,9.2-19.2,11.6c19.8,2.8,29.8,12.6,29.8,29.2
		c0,11.5-4.6,20.6-13.7,27.2C65.5,123,52.8,126.3,36.9,126.3z M1,118.9c6.3,2.4,12.3,4.1,17.7,5c5.5,0.9,11.6,1.4,18.1,1.4
		c15.8,0,28.2-3.2,37.1-9.7c8.8-6.4,13.3-15.2,13.3-26.4c0-16.3-10.1-25.8-30.1-28.3l-0.4-0.1v-1.3l0.4-0.1
		c8.6-2.4,15.2-6.3,19.8-11.6c4.5-5.3,6.8-11.7,6.8-19.1c0-8.6-3.5-15.4-10.5-20.3l0,0C66,3.5,56.1,1,43.7,1
		c-8.6,0-16.4,0.9-23.1,2.8C14.1,5.6,7.6,8.7,1.4,13l13.2,21.2c8.2-5.1,16.3-7.6,24-7.6c4.2,0,7.7,0.8,10.2,2.4
		c2.6,1.6,3.9,4.2,3.9,7.6c0,8.8-8.6,13.3-25.6,13.3h-7.2v23.8h7c6.2,0,11.3,0.5,15.1,1.4c3.9,0.9,6.8,2.4,8.6,4.2
		c1.8,1.9,2.7,4.6,2.7,8.1c0,4.5-1.7,7.9-5.2,10c-3.4,2.1-8.8,3.1-16.1,3.1c-4.7,0-9.9-0.7-15.4-2C11.4,97.1,6.1,95.2,1,92.7V118.9z
		"/>
</g>
</svg>
