<svg id="Layer_1" data-name="Layer 1" xmlns="http://www.w3.org/2000/svg" viewBox="0 0 92.34 92.12"><title>QRL</title><g id="CwqY8I"><path d="M34.9,66.84c0,1.86,0,3.5,0,5.14,0,.92.27,1.39,1.25,1.29.21,0,.43,0,.65,0,1.47,0,1.51,0,1.52-1.55s-.37-1.62,1.65-1.62c1.5,0,1.54,0,1.54-1.53,0-1.28,0-2.56,0-3.83,0-1-.37-1.33-1.35-1.32-2.07,0-2.11,0-2.07,2.07,0,.92-.25,1.29-1.17,1.16a4.81,4.81,0,0,1-1.08,0c-.29-.11-.69-.45-.69-.69,0-4.74,0-9.48,0-14.22,0-.78.52-.75,1-.75,3.36,0,6.71,0,10.07,0,.5,0,1.37-.2,1.42-.43a7.65,7.65,0,0,0,0-2.57c0-.17-.75-.32-1.15-.33-1.86,0-1.81.24-1.8-1.87a29.21,29.21,0,0,0,0-3c-.12-1.16.36-1.52,1.43-1.36a.81.81,0,0,0,.22,0c1.11-.19,1.46.26,1.4,1.39-.09,1.78,0,1.85,1.78,1.77,1.07,0,1.39.32,1.35,1.37a1.86,1.86,0,0,0,2.87,1.75.86.86,0,0,0,.38-.49,2.66,2.66,0,0,0,.06-.75c0-2.33.09-2.1-2-2.05-1,0-1.29-.3-1.24-1.25.07-1.31,0-2.63,0-3.94,0-.74.22-1.11,1-1.05a3.86,3.86,0,0,0,.76,0c1-.13,1.39.23,1.24,1.21a5,5,0,0,0,0,.55c0,1.42.07,1.49,1.47,1.49s2.56.05,3.83,0c.84,0,1.14.29,1.05,1.08a2,2,0,0,0,0,.55c.2,1.12-.27,1.48-1.38,1.38-.56,0-1.58.12-1.64.37a9.34,9.34,0,0,0,0,2.59c0,.12.23.26.39.33a1,1,0,0,0,.43,0c2.93,0,2.49.24,2.51-2.27a5.28,5.28,0,0,1,.08-.72c.1-.06.16-.13.23-.13,2.66-.2,2.66-.2,2.66,2.45,0,.94,0,1.89,0,2.84,0,.76.33,1,1.06,1,2.2.07,2.2.09,2.2,2.3,0,2,0,3.94,0,5.91,0,.79-.2,1.1-1,1.1-2,0-2,0-2-1.91,0-1.09,0-2.19,0-3.28,0-.79-.29-1.16-1.09-1.13s-1.3,0-2.14,0c0-.82,0-1.53,0-2.24s-.26-.95-.91-.92c-.18,0-.36,0-.54,0-2,0-2,0-2,1.94,0,1-.3,1.35-1.26,1.22a6.32,6.32,0,0,0-.87,0c-.71,0-1.11.28-1.07,1v.33c0,1.71-.77,2.24-2.45,1.68-.23-.07-.42-.43-.51-.7a2.73,2.73,0,0,1,0-.86C51,54,50.93,54,49.53,54s-2.56,0-3.83,0c-.83,0-1.2.26-1.18,1.14,0,2,.38,2-2,2-1.13,0-2.27,0-3.4,0-.75,0-1,.32-1.05,1-.13,2.3-.14,2.3,2.15,2.3,2.12,0,4.24,0,6.35,0,.87,0,1.21.3,1.14,1.14a5.46,5.46,0,0,0,0,1c.05.65-.23.88-.89.9-2.29.09-2.29.11-2.29,2.37,0,1.13-.06,2.27,0,3.39,0,.32.52.6.81.88,0,0,.14,0,.21,0,2.25.08,2.25.08,2.25-2.17,0-1.13,0-2.26,0-3.39,0-.66.24-.88.9-.9,2.11-.07,2.11-.09,2.11,2,0,3.14-.05,6.28,0,9.41,0,1.25-.66,1.21-1.53,1.22s-1.64-.05-1.5-1.25a2.17,2.17,0,0,0,0-1.08,1.46,1.46,0,0,0-.79-.79,7.76,7.76,0,0,0-1.53,0c-.7,0-1,.26-1,1,0,1.39,0,2.78,0,4.16,0,.93-.34,1.27-1.22,1.17h-.22c-1.6,0-1.6,0-1.61-1.56s0-1.58-1.6-1.58c-2.23,0-4.45-.06-6.68,0-1.09,0-1.37-.36-1.34-1.39q.09-3.43,0-6.89c0-.92.28-1.26,1.18-1.16C33.63,66.89,34.21,66.84,34.9,66.84Z" transform="translate(0.01 0)"/><path d="M60.22,85.72c-2.84,0-5.64,0-8.43,0a1.07,1.07,0,0,1-.74-.77c-.06-2.55,0-5.11,0-7.66,0-.71.42-.85,1-.83,2.39.11,2.16,0,2.17-2.34,0-1,0-2,0-3.06,0-.64.17-.91.84-.94,2.22-.13,2.24-.15,2.35-2.43,0-.62.25-.86.85-.81h.11c2.45,0,2-.13,2,1.94,0,1,.32,1.35,1.33,1.33,2.2,0,2.2,0,2.2-2.21,0-1.13,0-2.26,0-3.39,0-.67.25-1,.91-.87a1.82,1.82,0,0,0,.33,0c1.93,0,2,0,1.92-2,0-.94.23-1.32,1.22-1.26,1.31.08,2.63.05,3.94,0,.78,0,1.07.3,1,1a5,5,0,0,0,0,.55c0,1.65,0,1.65,1.62,1.66s1.74,0,1.66-1.91c0-1.23.52-1.36,1.52-1.34s1.63,0,1.53,1.3,0,2.77,0,4.15c0,.69.28,1,1,1,2.89,0,2.43.27,2.45-2.32,0-2,0-4.08,0-6.12,0-.93.31-1.28,1.21-1.16a2.36,2.36,0,0,0,.65,0c.95-.14,1.19.32,1.16,1.19-.06,1.35,0,2.7,0,4,0,.94.33,1.27,1.21,1.17a5,5,0,0,1,.55,0c1.44,0,1.44,0,1.44,1.42,0,1.57,0,1.57-1.61,1.57s-1.58,0-1.58,1.54c0,1.35,0,2.7,0,4,0,.67-.24,1-.9.87h-.22c-2.19,0-1.82.23-1.89-1.85,0-.45-.25-1.26-.43-1.27-.92-.08-2.07-.25-2.7.22-.44.32-.28,1.63-.14,2.46,0,.26.84.44,1.31.59a1.77,1.77,0,0,0,.76,0c.79-.08,1.06.3,1,1a.4.4,0,0,0,0,.11c0,2.24,0,1.82-1.79,1.85-1.3,0-1.39.11-1.4,1.48,0,1.65,0,1.65-1.66,1.66-1.37,0-1.48.13-1.5,1.51s-1.09,2.22-2.54,1.6A.85.85,0,0,1,73.4,82a1.74,1.74,0,0,1-.05-.65c0-1.89-.95-2.56-2.74-1.92-.29.1-.56.72-.57,1.11q-.08,3.6,0,7.22c0,.89-.31,1.2-1.14,1.1a5,5,0,0,0-.55,0c-1.51,0-1.49,0-1.52,1.52,0,.53,0,1.45-.22,1.5a7.81,7.81,0,0,1-2.37.11c-.14,0-.37-.44-.37-.67,0-2.63,0-5.25,0-7.88,0-.55.22-.82.79-.75H65c2.13,0,2.09,0,2.08-2.1,0-.9-.35-1.25-1.23-1.24-2.48,0-5,0-7.44,0-.9,0-1.28.36-1.21,1.25a6.41,6.41,0,0,1,0,1c-.05.78.27,1.11,1.08,1.13,2.24.08,2.24.11,2.09,2.39A5.14,5.14,0,0,1,60.22,85.72Zm6.63-14.21c0,1.31,0,2.62,0,3.93,0,.69.28,1,1,1,2.51,0,5,0,7.54,0,.78,0,1.13-.32,1.13-1.11q0-3.82,0-7.65c0-.73-.26-1-1-1-2.55,0-5.1,0-7.65,0-.79,0-1,.34-1,1.06C66.87,69,66.85,70.23,66.85,71.51ZM58.91,73.1c-1.74,0-1.74,0-1.74,1.52,0,1.78,0,1.8,1.86,1.8,1.6,0,1.6,0,1.6-1.8C60.63,73.1,60.63,73.1,58.91,73.1Z" transform="translate(0.01 0)"/><path d="M18.89,63.42c-.77,0-1.53,0-2.28,0-.21,0-.39-.38-.56-.6s0-.21,0-.32c0-2.41,0-2.27-2.19-2.2-.9,0-1-.4-1-1.13,0-4.41,0-8.83,0-13.24,0-1.51,0-1.51-1.52-1.52H9.59c0-.68-.05-1.32,0-2,.11-1-.34-1.41-1.32-1.27a.41.41,0,0,1-.11,0c-2,0-1.75.18-1.82-1.83,0-.91.26-1.22,1.17-1.18,1.39.06,2.78,0,4.16,0,.83,0,1.18-.25,1.19-1.13,0-2.25.06-2.25-2.17-2.25-1.1,0-2.19,0-3.29,0-.87,0-1.24.31-1.25,1.21,0,2-.06,2-2,2H.86C.28,38,0,37.72,0,37.11c0-2.52,0-5,0-7.55,0-.64.27-1,.91-.95.29,0,.59,0,.88,0,1.05.13,1.42-.32,1.4-1.37C3.15,25.57,4,25,5.64,25.54a1.21,1.21,0,0,1,.51.91c0,1.35.06,2.7,0,4.05,0,.93.3,1.31,1.26,1.31,2.17,0,2.17,0,2.17-2.09,0-1.09,0-2.19,0-3.28,0-.69.2-1,.94-1,3.54,0,7.08,0,10.62,0,.81,0,1.06.33,1.06,1.12,0,1.85,0,1.9-1.84,1.85-1.09,0-1.38.41-1.35,1.43,0,1.74,0,1.79-1.79,1.74-1,0-1.46.27-1.4,1.35a37,37,0,0,1,0,3.94c-.05.94.23,1.33,1.22,1.27,1.35-.07,2.7,0,4.05,0,.79,0,1.19.22,1.09,1.05a2.91,2.91,0,0,0,0,.66c.18,1.1-.34,1.38-1.36,1.32-1.31-.07-2.63,0-3.94,0-.82,0-1.08.3-1.06,1.09.05,2.74-.25,2.32,2.32,2.35,1,0,2,0,3,0,.77,0,1.2.2,1.08,1.05a2.53,2.53,0,0,0,0,.55c.17,1.1-.26,1.48-1.39,1.43C19,47.52,19,47.59,19,49.29c0,1.51,0,1.51-1.49,1.51-1.69,0-1.69,0-1.69,1.66,0,1.24,0,2.48,0,3.72,0,.82.31,1.1,1.1,1.08,1.35,0,2.7,0,4.05,0,.9,0,1.3.3,1.21,1.2a6.54,6.54,0,0,0,0,1c0,.62-.27.8-.85.84-2.21.13-2.21.15-2.32,2.4A7.12,7.12,0,0,1,18.89,63.42Z" transform="translate(0.01 0)"/><path d="M92.31,11.12c0,3.25,0,6.49,0,9.74,0,1.08-.34,1.33-1.37,1.33-6.53-.05-13.07,0-19.6,0-.92,0-1.2-.29-1.19-1.18q0-10,0-19.92C70.16.23,70.5,0,71.27,0q10,0,19.92,0c.86,0,1.15.29,1.14,1.15C92.29,4.48,92.31,7.8,92.31,11.12Zm-11.06,8c2.29,0,4.59,0,6.89,0,.81,0,1.19-.24,1.19-1.12q0-6.94,0-13.89c0-.81-.3-1.1-1.09-1.1q-6.95,0-13.9,0c-.86,0-1.16.34-1.15,1.17q0,6.9,0,13.79c0,.84.33,1.16,1.17,1.15C76.65,19.12,79,19.14,81.25,19.14Z" transform="translate(0.01 0)"/><path d="M22.19,11.11c0,3.25,0,6.5,0,9.74,0,.94-.21,1.35-1.28,1.34-6.56-.05-13.13,0-19.69,0C.34,22.19,0,21.94,0,21Q0,11,0,1C0,.28.26,0,1,0H21.3c.85,0,.9.48.9,1.14C22.18,4.48,22.19,7.8,22.19,11.11Zm-11.1,8c2.26,0,4.52,0,6.78,0,.91,0,1.34-.25,1.33-1.24q0-6.84,0-13.68C19.2,3.4,18.91,3,18.05,3q-6.94,0-13.9,0C3.3,3,3,3.39,3,4.22,3,8.78,3,13.34,3,17.9c0,1,.4,1.27,1.31,1.25C6.56,19.12,8.83,19.14,11.09,19.14Z" transform="translate(0.01 0)"/><path d="M11,92.1c-3.25,0-6.49,0-9.74,0C.35,92.13,0,91.9,0,90.9Q0,81,0,71.2c0-.9.3-1.13,1.13-1.12q10,0,19.92,0c.92,0,1.17.31,1.17,1.2q-.06,9.81,0,19.6c0,.95-.27,1.26-1.24,1.25C17.65,92.07,14.33,92.1,11,92.1Zm.07-3c2.26,0,4.52,0,6.77,0,1,0,1.36-.28,1.35-1.32,0-4.48,0-9,0-13.44,0-1-.3-1.29-1.25-1.29q-6.84.06-13.67,0c-1,0-1.31.38-1.3,1.36,0,4.41,0,8.82,0,13.23,0,1.36.08,1.44,1.41,1.45Z" transform="translate(0.01 0)"/><path d="M41.5,15.69c0-.77,0-1.38,0-2,.06-.91-.36-1.28-1.24-1.2a2.16,2.16,0,0,1-.44,0c-1.52,0-1.52,0-1.52-1.56s0-1.46,1.52-1.46c1.67,0,1.67,0,1.67-1.71,0-1.21,0-2.41,0-3.62,0-.67.18-1,.93-1,1.46,0,2.92,0,4.38,0,.64,0,.92.25.91.91,0,1.42,0,2.85,0,4.27,0,.73-.32,1-1,.94-2.42-.15-2.18-.1-2.19,2.53,0,.58.22.87.83.87,2.66,0,5.33,0,8,0,.28,0,.56-.47.8-.76.08-.09,0-.28,0-.43,0-2.1.23-2.28,2.35-2,.23,0,.45.34.62.56s0,.28,0,.42c.06,2.24.58,2.67,2.81,2.18a1.14,1.14,0,0,0,.62-.81,20.45,20.45,0,0,0,0-2.37c.81,0,1.53,0,2.25,0s1-.29,1-1c0-1.46,0-2.92,0-4.38,0-.71.23-.94.95-1,2,0,2-.06,2,2s0,4.24,0,6.35c0,.75-.2,1-1,1-2.26.05-2.25.08-2.3,2.37,0,.22,0,.43-.05.8-.73,0-1.44,0-2.16,0s-1.06.27-1,1c0,1.46-.05,2.92,0,4.37,0,.9-.29,1.21-1.13,1.08h-.11c-1.75,0-1.75,0-1.75-1.78,0-1.47,0-1.47-1.42-1.48-2,0-1.75.19-1.77-1.74,0-1.46,0-1.47-1.46-1.47H49.11c-1.35,0-1.39.05-1.39,1.44s0,2.56,0,3.83c0,.88-.25,1.33-1.19,1.21a3.62,3.62,0,0,0-.87,0c-.72.08-1-.25-1-1,0-1.42,0-2.85,0-4.27,0-1-.36-1.33-1.29-1.27C42.86,15.72,42.28,15.69,41.5,15.69Z" transform="translate(0.01 0)"/><path d="M82.81,88.9h-.65c-2.45,0-2.43,0-2.7,2.41a1.11,1.11,0,0,1-.75.75c-1.49.07-3,0-4.49,0-.67,0-.92-.3-.88-.93a2.91,2.91,0,0,0,0-.66c-.16-1.12.31-1.46,1.42-1.41,1.73.07,1.73,0,1.73-1.73,0-1.21,0-2.41,0-3.61,0-.76.28-1.09,1-1h.22c2.11,0,2,.08,1.93-2,0-.87.22-1.24,1.16-1.23,1.84,0,1.84,0,1.85,1.8,0,1.34.06,1.39,1.44,1.4.25,0,.51,0,.76,0,1,.12,1.37-.29,1.26-1.24a.4.4,0,0,1,0-.11c0-1.79.73-2.33,2.46-1.8a1,1,0,0,1,.46.5,1.37,1.37,0,0,1,0,.54c0,2.44,0,2.13,2.16,2.09.81,0,1.1.29,1.07,1.09,0,1.39,0,2.77,0,4.16,0,.72-.26,1-1,.93a2.36,2.36,0,0,0-.65,0c-1.1.17-1.52-.24-1.42-1.38,0-.56-.12-1.56-.39-1.64a6.77,6.77,0,0,0-2.58,0c-.18,0-.37.72-.39,1.11-.08,1.94-.06,1.94-2,1.94Z" transform="translate(0.01 0)"/><path d="M38.19,38c-.7,0-1.39,0-2.08,0s-1.06-.29-1-1a5.35,5.35,0,0,0,0-1c-.07-.76.25-1,1-1,2.39,0,2.17.24,2.18-2.28,0-2,0-4.08,0-6.12,0-1-.33-1.27-1.27-1.26-2,0-2,0-2-2,0-.7.26-.94,1-1,2.17,0,2.2-.07,2.21-2.24,0-.71.23-1,.94-.95h.44c1.61,0,1.61,0,1.62,1.59s0,1.59,1.67,1.63c.51,0,1.39.1,1.44.32a6.53,6.53,0,0,1,0,2.25c0,.15-.44.33-.7.37a6.37,6.37,0,0,1-1.31,0c-.77,0-1.18.24-1.11,1.07,0,.18,0,.36,0,.54,0,1.68,0,1.68,1.71,1.69,1.54,0,1.54,0,1.54,1.5,0,1.24,0,2.48,0,3.72,0,.69-.21,1-.94,1H43.4c-2.06,0-2.1,0-2.09,2.07,0,.87-.31,1.18-1.16,1.11C39.5,37.92,38.84,38,38.19,38Z" transform="translate(0.01 0)"/><path d="M38.24,85.73c-1.76,0-3.51,0-5.26,0-.79,0-1.12-.21-1.09-1,.09-2.47-.11-2.11-2.14-2.13-1.1,0-2.19,0-3.29,0-.7,0-1-.28-1-1q0-3.73,0-7.45c0-.69.31-.86.93-.89,2.09-.11,2.09-.13,2.09,1.9,0,1.06,0,2.12,0,3.18,0,.9.36,1.23,1.24,1.22,2.41,0,4.82,0,7.23,0,.86,0,1.16.26,1.14,1.12C38,83,38,82.72,40.25,82.73c1.1,0,2.19,0,3.29,0,.66,0,1,.2,1,.94.08,2.06.11,2.06-1.93,2.06Z" transform="translate(0.01 0)"/><path d="M51,25.49h.54c2.23,0,2.24,0,2.47,2.19.06.63.35.92,1,.92h.54c1.65,0,1.65,0,1.66,1.66,0,1.46.06,1.48,1.44,1.53.55,0,1.5.05,1.57.29a7.42,7.42,0,0,1,.1,2.36c0,.13-.37.3-.58.34a5.34,5.34,0,0,1-1,0c-1.46,0-1.51.09-1.56,1.56,0,.51-.09,1.4-.31,1.45a8.09,8.09,0,0,1-2.36,0c-.11,0-.26-.39-.29-.61a5.36,5.36,0,0,1,0-1.2c.07-1-.36-1.3-1.3-1.26-1.34.05-2.69,0-4,0-.76,0-1.07-.28-1-1a6.54,6.54,0,0,0,0-1c0-.74.29-1.09,1-1H49c2,0,2.53-.79,2-2.68-.07-.25-.39-.46-.65-.6a1.72,1.72,0,0,0-.65,0c-1.72,0-2.3-.79-1.75-2.43a1.11,1.11,0,0,1,.8-.53C49.45,25.44,50.22,25.49,51,25.49Z" transform="translate(0.01 0)"/><path d="M0,58.85c0-2.26,0-4.52,0-6.77,0-.89.31-1.2,1.14-1.14a4.82,4.82,0,0,0,.76,0c.87-.1,1.16.26,1.12,1.13C3,53.38,3,54.69,3,56c0,.87.31,1.31,1.21,1.24h.33c1.63,0,1.63,0,1.64,1.66s0,1.49,1.55,1.53c.51,0,1.41.07,1.46.28a8.15,8.15,0,0,1,.07,2.37c0,.12-.38.25-.6.33a1.6,1.6,0,0,1-.44,0c-2,0-2.08,0-2,2,0,1-.31,1.26-1.26,1.2-1.3-.07-2.62,0-3.93,0-.75,0-1-.24-1-1C0,63.37,0,61.11,0,58.85Z" transform="translate(0.01 0)"/><path d="M60.63,22.42l.69-.07c2.16-.07,2.19-.07,2.26,2.1,0,.82.4,1.06,1.16,1.05,2.4,0,4.8,0,7.21,0,1.07,0,1.31.43,1.25,1.38s.16,1.79-1.21,1.63c-.28,0-.58,0-.87,0-.79,0-1.1.29-1.12,1.09,0,2.08-.07,2.08-2.11,2.08-1,0-2,0-3.06,0-.7,0-1-.21-1-.93.14-2.56-.11-2.22-2.36-2.25-1.06,0-2.11,0-3.17,0-.7,0-1-.26-1-1a2.36,2.36,0,0,0,0-.65c-.18-1.15.36-1.52,1.43-1.37.21,0,.44,0,.65,0,.93.1,1.25-.36,1.19-1.23C60.6,23.69,60.63,23.11,60.63,22.42Z" transform="translate(0.01 0)"/><path d="M63.8,38.16h2.29c.62,0,1-.25.94-.91,0-.14,0-.29,0-.43,0-1.81.73-2.33,2.46-1.81a1,1,0,0,1,.49.49A1.07,1.07,0,0,1,70,36c0,2.28-.34,2.13,2.32,2.13.68,0,1-.27,1-1,0-.15,0-.3,0-.44,0-1.75.68-2.25,2.42-1.74a1,1,0,0,1,.53.78c.06,1.52,0,3.06,0,4.59,0,.65-.35.76-.9.78-2.16.09-2.19.1-2.24,2.22,0,.76-.3,1.06-1,1a5.46,5.46,0,0,0-1,0c-.77.08-1-.28-1-1,0-2.33.24-2.21-2.27-2.21-2.11,0-4.23,0-6.34,0-.72,0-1-.22-.94-.94.05-2.54-.21-2,2-2.07.4,0,.81,0,1.21,0Z" transform="translate(0.01 0)"/><path d="M82.68,44.59c0,.8,0,1.44,0,2.09,0,.81.33,1.14,1.11,1.08h.11c2.32,0,2.28.32,2.24-2.11,0-.79.22-1.18,1.05-1.06a1.82,1.82,0,0,0,.33,0c1.8,0,1.78,0,1.82-1.78,0-.45.11-1.25.26-1.27a10.83,10.83,0,0,1,2.48,0c.1,0,.22.5.23.77,0,1.42,0,2.85,0,4.27,0,.75-.25,1-1,1-2.16,0-2.19,0-2.2,2.23,0,.79-.29,1-1,1-1.42,0-2.84,0-4.26,0-.83,0-1.25.28-1.15,1.15a3.35,3.35,0,0,1,0,.55c0,1.47,0,1.47-1.5,1.47s-1.5,0-1.5-1.53c0-2.26,0-4.52,0-6.78,0-.78.19-1.15,1-1.07C81.31,44.64,81.92,44.59,82.68,44.59Z" transform="translate(0.01 0)"/><path d="M35,6.17h-.77c-2.37,0-2.38,0-2.54,2.3,0,.6-.27.87-.87.83h-.22c-1.89,0-1.94,0-1.9-1.82,0-1-.36-1.42-1.35-1.32a2,2,0,0,1-1,0,2,2,0,0,1-.84-.86c-.14-.3,0-.72,0-1.08-.07-.78.33-1.06,1.05-1h.33c1.8,0,1.78,0,1.82-1.82,0-.42.17-1.19.34-1.2a7.15,7.15,0,0,1,2.44.1c.17,0,.1.93.21,1.42S32,3,32.19,3a6.62,6.62,0,0,0,2.66-.11c.22-.06.3-1.06.25-1.61C35,.28,35.4,0,36.4,0c1.31.07,2.63,0,3.94,0,.71,0,1,.28.95,1,0,.18,0,.36,0,.54,0,1.51,0,1.51-1.5,1.51-1.7,0-1.7,0-1.71,1.67,0,1.45,0,1.45-1.45,1.45Z" transform="translate(0.01 0)"/><path d="M25.36,60.42h.43c.8,0,1.83-.23,2.33.16s.2,1.46.42,2.19c.1.35.53.63.87.85.18.11.5,0,.75,0,1.51,0,1.51,0,1.51,1.46s0,1.52-1.55,1.53-1.62,0-1.62,1.66a2.24,2.24,0,0,1,0,.86,2,2,0,0,1-.63.68c-.09.07-.29,0-.43,0-2.3,0-1.88.1-1.91-1.82,0-1.36-.05-1.4-1.43-1.4s-2.7,0-4,0c-.6,0-.83-.21-.86-.83-.1-2.09-.12-2.11,2-2.15.74,0,1.13-.22,1.16-1,.09-2.19.12-2.19,2.34-2.19Z" transform="translate(0.01 0)"/><path d="M82.68,31.78c0,1.72,0,3.43,0,5.15,0,.83-.28,1.13-1.08,1a2,2,0,0,0-.54,0c-1.1.17-1.48-.26-1.42-1.39.1-1.76,0-1.82-1.8-1.75-1,0-1.42-.27-1.38-1.35.08-2.3,0-4.6,0-6.9,0-.8.27-1.12,1.08-1.1,1.35,0,2.7,0,4,0,.8,0,1.11.22,1.08,1.06C82.64,28.28,82.68,30,82.68,31.78Z" transform="translate(0.01 0)"/><path d="M34.9,50.79a20.73,20.73,0,0,1-2.39,0c-.23,0-.53-.43-.58-.7-.13-.74.12-1.75-.28-2.18s-1.41-.26-2.16-.29-.87-.28-.82-.87v-.11c-.08-2.13-.08-2.15-2.2-2.21-.69,0-1-.25-1-1,0-1.42,0-2.84,0-4.26,0-.75.23-1.1,1-1a2.43,2.43,0,0,0,.66,0c1-.14,1.52.22,1.35,1.31,0,.32,0,.66,0,1,0,.63.27,1,.91,1h.33c1.9.05,1.94.05,1.91,1.93,0,.95.33,1.28,1.27,1.27,2,0,2,0,2,2Z" transform="translate(0.01 0)"/><path d="M25.5,23.75c0-1.24,0-2.48,0-3.72,0-.67.24-.94.89-.89h.33c1.77,0,1.77,0,1.8,1.73,0,1.36.13,1.46,1.53,1.48,1.64,0,1.64,0,1.64,1.69,0,1.16,0,2.33,0,3.5,0,.61-.14,1-.85.94-1.46,0-2.92,0-4.37,0-.72,0-1-.33-1-1C25.51,26.23,25.5,25,25.5,23.75Z" transform="translate(0.01 0)"/><path d="M67,47.68c0-.73,0-1.46,0-2.19s.22-1,.89-.9a3.23,3.23,0,0,0,.44,0c1.65,0,1.65,0,1.67,1.64s0,1.5,1.53,1.54c.51,0,1.41.1,1.47.31a7.24,7.24,0,0,1,0,2.37c0,.14-.53.33-.81.34-1.46,0-2.92,0-4.38,0-.59,0-.87-.2-.84-.83S67,48.45,67,47.68Z" transform="translate(0.01 0)"/><path d="M32.05,15.69c-.51-2.88-.42-3,2.24-3,.94,0,1.89,0,2.84,0,.67,0,1,.18,1,.93-.05,1.49,0,3,0,4.47,0,.63-.23.87-.83.81h-.11c-2,.07-2,.07-2-1.91,0-1-.28-1.43-1.3-1.31A17.72,17.72,0,0,1,32.05,15.69Z" transform="translate(0.01 0)"/><path d="M25.41,47.76a15.89,15.89,0,0,1,2.29,0,1.12,1.12,0,0,1,.76.75c.07,1.52,0,3.06,0,4.59,0,.61-.28.86-.88.82a6.41,6.41,0,0,0-1,0c-.86.08-1.21-.32-1.15-1.15,0-.29,0-.59,0-.88.08-.87-.34-1.2-1.17-1.13a.41.41,0,0,1-.11,0c-1.78,0-2.38-.83-1.82-2.54a1,1,0,0,1,.71-.47C23.87,47.72,24.64,47.76,25.41,47.76Z" transform="translate(0.01 0)"/><path d="M54,3.07c0,.73,0,1.46,0,2.18s-.26,1-.91.92c-.36,0-.73,0-1.09,0-.67,0-1-.27-1-1,0-.25,0-.51,0-.76.1-1-.28-1.52-1.36-1.39a2.45,2.45,0,0,1-1.08,0,1.92,1.92,0,0,1-.71-.63c-.07-.09,0-.29,0-.43C47.79,0,47.79,0,49.69,0c1.12,0,2.25,0,3.38,0,.71,0,1,.28.94,1S54,2.38,54,3.07Z" transform="translate(0.01 0)"/><path d="M63.86,19.1c0-.84,0-1.68,0-2.52a1,1,0,0,1,.6-.66c2.15-.35,2.36-.16,2.36,2,0,1.1,0,2.19,0,3.28,0,.68-.2,1-.94,1-2.51-.07-2,.25-2.06-2C63.85,19.83,63.86,19.46,63.86,19.1Z" transform="translate(0.01 0)"/><path d="M15.74,63.74a2.16,2.16,0,0,1,.09.33c0,3.15.47,2.49-2.43,2.56-1.13,0-2.26,0-3.38,0-.07,0-.14,0-.32-.06V63.74Z" transform="translate(0.01 0)"/><path d="M60.45,3.05c-.69,0-1.39,0-2.08,0s-1-.32-1-1.05a4.22,4.22,0,0,0,0-.87C57.23.25,57.64,0,58.48,0c1.38,0,2.77,0,4.15,0,.68,0,1,.18,1,.92-.06,2.49.27,2.06-2.07,2.11C61.18,3.06,60.81,3.05,60.45,3.05Z" transform="translate(0.01 0)"/><path d="M28.5,12.6c0,.73,0,1.46,0,2.19s-.21.91-.88.91c-2.64,0-2.08.07-2.12-2,0-1.06,0-2.12,0-3.17,0-.78.25-1.13,1.08-1.1,2.06.08,1.92-.37,1.93,1.93Z" transform="translate(0.01 0)"/><path d="M47.8,85.91c.51,0,1,0,1.52,0s1.31.11,1.36.31a8.77,8.77,0,0,1,.07,2.35c0,.11-.4.29-.62.3-1.56,0-3.12.05-4.68,0a1,1,0,0,1-.71-.67c-.3-2.14-.17-2.28,2-2.28Z" transform="translate(0.01 0)"/><path d="M86.14,28.52v-1.2c0-1.76.79-2.36,2.46-1.78a.93.93,0,0,1,.47.72c0,1.52.06,3,0,4.58a1.08,1.08,0,0,1-.75.76c-2.09.27-2.16.18-2.16-1.88Z" transform="translate(0.01 0)"/><path d="M76.43,57.08a15.76,15.76,0,0,1-2.28,0c-.3,0-.65-.45-.77-.77a3.83,3.83,0,0,1,0-1.18c0-.7.29-1,1-1,1.41,0,2.83,0,4.24,0,.63,0,.91.2,1,.87.12,2.09.14,2.09-2,2.09H76.43Z" transform="translate(0.01 0)"/><path d="M31.67,57.1c0,.51,0,1,0,1.52s-.08,1.42-.3,1.47a7.74,7.74,0,0,1-2.36.07c-.12,0-.31-.45-.31-.7,0-1.49,0-3,0-4.47,0-.59.24-.82.83-.87,2.13-.19,2.18-.17,2.18,2Z" transform="translate(0.01 0)"/><path d="M92.31,76.35v1.31c0,1.62-1,2.29-2.56,1.67a.84.84,0,0,1-.41-.65c0-1.56-.06-3.12,0-4.67,0-.26.44-.5.68-.74,0,0,.07,0,.11,0,2.17-.18,2.18-.17,2.18,2Z" transform="translate(0.01 0)"/><path d="M34.86,38.05v3.17c-1-.09-2.1.08-2.8-.38a2.39,2.39,0,0,1,0-2.29C32.69,38.06,33.81,38.2,34.86,38.05Z" transform="translate(0.01 0)"/><path d="M32,22.07a2.36,2.36,0,0,1-.11-.38c-.22-2.61.19-3,2.9-2.4a1.59,1.59,0,0,1,.08.39C35,22.39,34.91,22.45,32,22.07Z" transform="translate(0.01 0)"/><path d="M57.17,65.2c0,1.44,0,1.44-1.4,1.44-1.59,0-1.59,0-1.59-1.38,0-1.61,0-1.61,1.49-1.62S57.17,63.64,57.17,65.2Z" transform="translate(0.01 0)"/><path d="M86.14,39.58c0-1.42,0-1.42,1.54-1.42s1.42,0,1.41,1.53,0,1.47-1.47,1.47S86.14,41.16,86.14,39.58Z" transform="translate(0.01 0)"/><path d="M27,88.9c-1.52,0-1.52,0-1.52-1.34,0-1.65,0-1.65,1.6-1.65,1.4,0,1.4,0,1.4,1.49S28.5,88.9,27,88.9Z" transform="translate(0.01 0)"/><path d="M71.62,34.81c-1.44,0-1.44,0-1.44-1.45s0-1.57,1.55-1.57,1.46,0,1.46,1.58S73.19,34.81,71.62,34.81Z" transform="translate(0.01 0)"/><path d="M27,31.79c1.46,0,1.46,0,1.46,1.55s0,1.47-1.53,1.46-1.48,0-1.47-1.52S25.5,31.79,27,31.79Z" transform="translate(0.01 0)"/><path d="M46.21,38c-1.51,0-1.51,0-1.5-1.49s0-1.5,1.48-1.5,1.53,0,1.52,1.61C47.71,38,47.71,38,46.21,38Z" transform="translate(0.01 0)"/><path d="M20.48,51c1.71,0,1.71,0,1.71,1.44s0,1.57-1.58,1.57c-1.42,0-1.36,0-1.45-1.72C19.1,51,19.63,50.78,20.48,51Z" transform="translate(0.01 0)"/><path d="M23.91,38c-1.56,0-1.56,0-1.56-1.55s0-1.44,1.57-1.44,1.44,0,1.44,1.57S25.36,38,23.91,38Z" transform="translate(0.01 0)"/><path d="M50.85,58.82c0,1.43,0,1.43-1.57,1.43s-1.44,0-1.44-1.44,0-1.57,1.58-1.56S50.85,57.25,50.85,58.82Z" transform="translate(0.01 0)"/><path d="M20.7,34.8c-1.51,0-1.51,0-1.52-1.39,0-1.62,0-1.62,1.38-1.62,1.63,0,1.63,0,1.63,1.51S22.19,34.8,20.7,34.8Z" transform="translate(0.01 0)"/><path d="M52.43,22.16c-1.42,0-1.34,0-1.45-1.92-.08-1.26.67-1.11,1.44-1.1,1.58,0,1.58,0,1.58,1.39C54,22.16,54,22.16,52.43,22.16Z" transform="translate(0.01 0)"/><path d="M89.31,58.76c0-1.52,0-1.52,1.58-1.52,1.42,0,1.42,0,1.42,1.57s0,1.44-1.66,1.44C89.31,60.25,89.31,60.25,89.31,58.76Z" transform="translate(0.01 0)"/><path d="M83,44.38c0-.49,0-.81,0-1.13,0-2.12-.13-1.83,1.8-1.82.38,0,1.08.18,1.1.33a10.66,10.66,0,0,1-.1,2.46c0,.1-.66.14-1,.16C84.17,44.4,83.63,44.38,83,44.38Z" transform="translate(0.01 0)"/><path d="M89.31,52.16c-.27-1,.23-1.29,1.33-1.24,1.66.08,1.67,0,1.67,1.35,0,1.68,0,1.68-1.42,1.69S89.32,54,89.31,52.16Z" transform="translate(0.01 0)"/><path d="M78,41.41c1.48,0,1.48,0,1.48,1.49s0,1.49-1.59,1.48c-1.42,0-1.42,0-1.42-1.56S76.5,41.41,78,41.41Z" transform="translate(0.01 0)"/><path d="M28.67,17.38c0-1.49,0-1.49,1.34-1.49,1.66,0,1.66,0,1.66,1.4,0,1.61,0,1.61-1.48,1.61S28.67,18.9,28.67,17.38Z" transform="translate(0.01 0)"/><path d="M41.29,46.06c0,1.52,0,1.52-1.47,1.52s-1.51,0-1.51-1.47,0-1.52,1.46-1.52S41.29,44.6,41.29,46.06Z" transform="translate(0.01 0)"/><path d="M7.9,44.59c1.44,0,1.44,0,1.44,1.54s0,1.45-1.41,1.45c-1.57,0-1.57,0-1.57-1.54S6.36,44.59,7.9,44.59Z" transform="translate(0.01 0)"/><path d="M36.72,41.41c1.37,0,1.37,0,1.36,1.61,0,1.37,0,1.37-1.59,1.36-1.37,0-1.37,0-1.36-1.59C35.13,41.41,35.13,41.41,36.72,41.41Z" transform="translate(0.01 0)"/><path d="M31.67,36.45c0,1.51,0,1.51-1.57,1.51s-1.43,0-1.43-1.51S28.67,35,30.3,35C31.67,35,31.67,35,31.67,36.45Z" transform="translate(0.01 0)"/><path d="M44.54,90.57c0,1.53,0,1.53-1.56,1.53s-1.48,0-1.48-1.5,0-1.48,1.51-1.48S44.54,89.12,44.54,90.57Z" transform="translate(0.01 0)"/><path d="M92.31,36.5c0,1.46,0,1.46-1.51,1.46s-1.49,0-1.49-1.68c0-1.32,0-1.32,1.55-1.31S92.31,35,92.31,36.5Z" transform="translate(0.01 0)"/><path d="M60.34,61.93c0,1.5,0,1.5-1.34,1.5-1.63,0-1.63,0-1.63-1.32,0-1.69,0-1.69,1.29-1.69C60.34,60.42,60.34,60.42,60.34,61.93Z" transform="translate(0.01 0)"/><path d="M60.34,55.64c-.06.65.32,1.54-1,1.47-1.93-.1-1.94,0-1.94-1.44s0-1.55,1.57-1.55C60.34,54.12,60.34,54.12,60.34,55.64Z" transform="translate(0.01 0)"/><path d="M8.12,57.08c-1.77,0-1.77,0-1.76-1.68,0-1.29,0-1.23,1.86-1.31,1.57-.07,1,1,1.12,1.78C9.5,57,8.93,57.3,8.12,57.08Z" transform="translate(0.01 0)"/><path d="M59.14,6.32c.89-.26,1.26.15,1.22,1.24C60.3,9.3,60.36,9.3,59,9.3c-1.63,0-1.63,0-1.63-1.34C57.36,6.34,57.36,6.34,59.14,6.32Z" transform="translate(0.01 0)"/><path d="M30.08,92.1c-1.41,0-1.41,0-1.41-1.53s0-1.46,1.62-1.45c1.38,0,1.38,0,1.38,1.59C31.67,92.1,31.67,92.1,30.08,92.1Z" transform="translate(0.01 0)"/><path d="M57.37,90.59c0-1.47,0-1.47,1.51-1.47s1.47,0,1.46,1.52,0,1.46-1.52,1.46S57.37,92.1,57.37,90.59Z" transform="translate(0.01 0)"/><path d="M71.7,70.09c1.49,0,1.49,0,1.49,1.36,0,1.65,0,1.65-1.58,1.65-1.43,0-1.43,0-1.43-1.68C70.18,70.09,70.18,70.09,71.7,70.09Z" transform="translate(0.01 0)"/><path d="M85.9,11.13c0,1.2,0,2.4,0,3.6,0,.71-.19,1-.92,1-2.51,0-5,0-7.54,0-.78,0-1-.31-1-1q.06-3.56,0-7.1c0-.89.3-1.25,1.2-1.24,2.45,0,4.89,0,7.33,0,.67,0,.91.24.9.89C85.89,8.5,85.9,9.82,85.9,11.13Z" transform="translate(0.01 0)"/><path d="M11.06,15.69c-1.24,0-2.48,0-3.72,0-.65,0-1-.16-1-.92,0-2.47,0-4.95,0-7.43,0-.75.31-1,1-1q3.72,0,7.43,0c.74,0,1,.28,1,1q-.06,3.7,0,7.43c0,.77-.32.92-1,.91C13.61,15.67,12.33,15.69,11.06,15.69Z" transform="translate(0.01 0)"/><path d="M11.12,85.73c-1.24,0-2.48,0-3.72,0-.72,0-1.06-.21-1.05-1,0-2.44,0-4.88,0-7.32,0-.78.32-1,1.05-1q3.72,0,7.43,0c.73,0,1,.23,1,1,0,2.44,0,4.89,0,7.32,0,.81-.31,1-1,1C13.6,85.7,12.36,85.73,11.12,85.73Z" transform="translate(0.01 0)"/></g></svg>