<svg id="Layer_1" data-name="Layer 1" xmlns="http://www.w3.org/2000/svg" viewBox="0 0 114.13 93.34"><defs><style>.cls-1{fill:#ff3fb4;}</style></defs><title>0</title><path class="cls-1" d="M72.27,60.49s0-.11.11,0c.31.24.46.55.78.79l.07,0,.65.7c.46.39.92.78,1.39,1.14,0,0,0,0,.06,0a8.2,8.2,0,0,1,.71.62l.13.09s.06,0,.08,0l.32.29c1.42,1,2.89,2,4.49,3.07.35.2.71.39,1,.61s1,.81,1.47,1.16c.07-.24,1.23.5,1.15.14a3.57,3.57,0,0,0,.8.54c.19-.11.56-.11,1.42.38.33.21.76.63.9.68s-.33-.41-.12-.34c-2.28-1.76-4.54-3.36-6.81-5.15-.41-.27-1.93-1.42-3.47-2.69s-3.1-2.66-3.71-3.24l-.12-.11c-.68-.63-1.51-1.39-2.14-1.87l-.91-.63.25.41a4.28,4.28,0,0,0-.65-.6c-.63-.49-.4-.09-.29.24s-.18.07,0,.36l-.44-.45c-.07,0,.57.52.37.47a6.85,6.85,0,0,0-.55-.52c0,.12.59.63.51.67s-.42-.59-.53-.54.15.19.24.28c-.57-.53-.94-.76-.53-.17-.17-.18-.38-.46-.57-.63h0l.31.36-.31-.32,0,.09a2.32,2.32,0,0,0,.21.25l-.2-.21c0,.08.06.16.1.25a7.23,7.23,0,0,0,.49.74C70.07,58.38,71.15,59.47,72.27,60.49Z" transform="translate(0 0)"/><path class="cls-1" d="M79.37,56.05s0-.09.11,0c.17.23.15.5.31.74l.07,0,.22.66.61,1.14s0,0,.06,0a5.33,5.33,0,0,1,.29.62l.06.09a.07.07,0,0,0,.06,0l.12.29c.65,1.08,1.31,2.19,2,3.4a7.71,7.71,0,0,1,.47.75c.19.38.35.89.5,1.27.19-.15.66.74.8.47.1.26.24.64.31.64s.5.1.86.75c.13.26.21.7.28.78s0-.4.11-.27c-.67-2-1.52-3.9-2.38-5.87-.36-.64-2.5-5.08-3.06-6.21l-.06-.1A11.64,11.64,0,0,0,80,53.37l-.55-.62.07.35a3,3,0,0,0-.34-.56c-.38-.46-.32-.11-.34.16s-.18,0-.12.29l-.22-.41c-.06,0,.31.48.15.42a3.33,3.33,0,0,0-.28-.48c0,.1.28.57.19.59s-.15-.51-.26-.49.07.17.11.25c-.3-.47-.54-.69-.4-.19a5.56,5.56,0,0,0-.27-.55h0l.14.31-.15-.28v.07a2.29,2.29,0,0,0,.1.23l-.1-.19a1.34,1.34,0,0,0,0,.21,4.31,4.31,0,0,0,.16.63Z" transform="translate(0 0)"/><path class="cls-1" d="M84.42,66.91s0-.06.07-.06,0,.15.08.17l.05,0a.52.52,0,0,1,0,.18l.21.2s0,0,0,0,0,.08.08.13l0,0,0,0a.19.19,0,0,1,0,.07,3.88,3.88,0,0,1,.77.71.91.91,0,0,1,.2.19,1,1,0,0,1,0,.35c.22-.05.36.22.59.15,0,.08,0,.21.07.21a.58.58,0,0,1,.54.32c0,.1-.07.25,0,.28s.15-.11.21,0a4.38,4.38,0,0,0-.31-2.18c-.09-.1-.29-.54-.57-1a11,11,0,0,0-.75-1l0,0a1.32,1.32,0,0,0-.6-.41h-.33a.5.5,0,0,1,0,.16c-.07,0-.14-.11-.19-.09-.21,0-.18.14-.21.31s-.1.13-.08.23l-.11-.07s.15,0,.06.12-.09,0-.13-.07.13.12.07.19,0-.17-.11-.08,0,0,0,0c-.14,0-.26,0-.21.18,0,0-.06-.1-.11-.11h0S84,66,84,66l-.07,0v0a.1.1,0,0,0,0,0l0,0,0,.11c0,.09,0,.21,0,.23Z" transform="translate(0 0)"/><path class="cls-1" d="M85.69,68.48s0-.06.08,0,0,.18.1.23l.06,0,0,.23.25.29s0,0,0,0a.45.45,0,0,1,.1.18l0,0s0,0,0,0l0,.09a8.58,8.58,0,0,1,.92.9,1,1,0,0,1,.24.2,1.22,1.22,0,0,1,.1.34c.23-.06.44.27.68.25,0,0,.06.13,0,.17s0,.07,0,.09.36.23.17.59c-.09.13-.33.25-.34.31s.25,0,.23,0c.25-.22.49-.45.72-.68.05-.06.13-.11.16-.18l-.08-.24-.16-.49L89,70.22l-.12-.28-.24-.53c-.09-.1-.34-.54-.63-1s-.6-.89-.73-1.08l0,0a1.46,1.46,0,0,0-.56-.52,3,3,0,0,0-.32-.09.91.91,0,0,1,0,.17c-.06-.08-.12-.15-.17-.15-.22-.07-.22.09-.28.25s-.14.11-.13.22l-.1-.11s.15.11,0,.15-.09-.08-.13-.12.11.17,0,.22,0-.2-.11-.13,0,.06,0,.08c-.15-.1-.29-.1-.26.1,0,0-.06-.13-.11-.16h0a.47.47,0,0,0,0,.1l-.06-.08,0,.05,0,.07,0,0a.45.45,0,0,0,0,.11c0,.11,0,.23,0,.26Z" transform="translate(0 0)"/><path class="cls-1" d="M87.62,77.19s0-.12.12,0a11.62,11.62,0,0,0,.71,1.11h.07c.2.3.41.61.63.91.47.52.95,1,1.42,1.46,0,0,0,0,.07,0,.2.19.45.48.72.76l.13.12a.12.12,0,0,0,.08,0l.32.36,4.5,4c.36.29.71.57,1,.86.47.44,1,1.06,1.44,1.51.1-.23,1.24.79,1.19.41.29.3.72.75.79.73s.59,0,1.45.72c.32.29.72.83.86.91s-.29-.5-.08-.37c-2.19-2.36-4.41-4.53-6.67-6.86-.42-.36-1.93-1.86-3.5-3.46-.79-.8-1.59-1.6-2.22-2.31a13.54,13.54,0,0,1-1.31-1.71l-.09-.14a10.79,10.79,0,0,1-1.18-2.6,6.41,6.41,0,0,1-.3-1.06l-.09.47c0-.38,0-.76,0-.91,0-.81-.18-.39-.37-.06s-.18-.11-.26.28a4.15,4.15,0,0,1,.07-.7c-.08-.05,0,.87-.14.67s0-.59.08-.87c-.12.08-.14,1-.21.94s.18-.8.09-.87a1.35,1.35,0,0,0-.08.42c.07-.9.16-1.44-.17-.62a7.72,7.72,0,0,1,.32-1h0c-.06.15-.17.4-.21.55a4.56,4.56,0,0,1,.18-.52l-.08.07a2.62,2.62,0,0,0-.15.39,2.91,2.91,0,0,1,.12-.35,1.89,1.89,0,0,0-.2.27,4.15,4.15,0,0,0-.39,1.06A8.3,8.3,0,0,0,87.62,77.19Z" transform="translate(0 0)"/><path class="cls-1" d="M89.85,75s0-.13.11,0c.33.35.46.74.78,1.09h.08l.63,1,1.35,1.68s0,0,.07,0c.19.22.42.57.68.91l.12.15a.09.09,0,0,0,.08,0l.3.43c1.36,1.61,2.75,3.24,4.21,5,.33.37.66.74.95,1.11.43.55.9,1.31,1.28,1.88.13-.22,1.16,1.09,1.17.69a4.43,4.43,0,0,0,.7.94c.22,0,.6.15,1.37,1.09.29.38.62,1,.75,1.15s-.23-.59,0-.4c-1.88-3-3.88-5.75-6-8.63-1-1.25-5.69-7.42-7-9.1l-.12-.15a32.13,32.13,0,0,0-2.26-2.67l-1-.93.27.52a6.83,6.83,0,0,0-.71-.83c-.7-.68-.43-.18-.32.2s-.19,0,0,.41L86.93,70c-.07,0,.63.7.41.61-.17-.25-.41-.47-.6-.71,0,.14.65.83.55.85s-.45-.73-.57-.7.16.24.26.35c-.62-.69-1-1-.58-.29-.18-.23-.42-.58-.63-.81h0l.34.46-.33-.42,0,.1.24.33-.22-.27c0,.09.07.19.11.29.22.37.4.74.54.92Z" transform="translate(0 0)"/><path class="cls-1" d="M89.94,77.94s0-.1.1,0c.22.26.28.56.51.82l.07,0,.41.71c.32.41.64.81,1,1.19,0,0,0,0,.06,0s.31.4.5.64l.1.1h.07l.22.3c1.06,1.06,2.18,2.08,3.4,3.16.28.21.56.42.81.64s.76.81,1.08,1.16c.12-.21,1,.54,1,.21.21.23.54.57.61.55s.52-.07,1.2.44c.25.21.55.63.66.69s-.2-.41,0-.32c-1.68-1.79-3.4-3.39-5-5.19a35.16,35.16,0,0,1-2.52-2.72A37,37,0,0,1,91.62,77l-.07-.11c-.44-.64-1-1.42-1.38-1.94l-.63-.69.1.39a3.92,3.92,0,0,0-.4-.63c-.41-.54-.33-.15-.34.15s-.19,0-.1.32c-.11-.18-.15-.28-.25-.47-.07,0,.34.56.18.48s-.22-.37-.32-.56c0,.11.32.67.23.68s-.18-.58-.3-.57.08.2.13.29c-.34-.56-.61-.84-.43-.25a6.39,6.39,0,0,0-.31-.65h0l.16.37-.17-.34v.08a2,2,0,0,0,.11.26l-.11-.22a2.09,2.09,0,0,0,0,.24,6.51,6.51,0,0,0,.2.74A29.84,29.84,0,0,0,89.94,77.94Z" transform="translate(0 0)"/><path class="cls-1" d="M86.77,72.79s.06-.05.09,0,0,.19,0,.26L87,73v.24a2.77,2.77,0,0,0,.22.37s0,0,0,0a.84.84,0,0,1,.08.21l0,0h0l0,.1c.29.31.61.62,1,.94a1.3,1.3,0,0,1,.26.17,2.09,2.09,0,0,1,.19.4c.19-.13.44.09.62-.08,0,.07.09.19.15.16a.65.65,0,0,1,.62,0c.07.06.07.22.12.22s.06-.16.14-.15c-.27-.59-.65-1.08-.94-1.66a7.39,7.39,0,0,1-1-1.84l0,0a1.37,1.37,0,0,0-.33-.56L88,71.33l-.06.14c0-.08-.06-.16-.11-.18s-.23,0-.35.13-.17,0-.2.14l0-.13c-.06,0,.1.15,0,.15s0-.1-.07-.16,0,.2,0,.22,0-.19-.06-.16,0,.06,0,.09c-.09-.16-.23-.22-.28,0,0-.06,0-.15,0-.2h0a.49.49,0,0,1,0,.12l0-.1,0,0a.11.11,0,0,0,0,.08l0-.06a.73.73,0,0,0-.08.09c0,.1-.1.21-.09.25A6.14,6.14,0,0,0,86.77,72.79Z" transform="translate(0 0)"/><path class="cls-1" d="M88.09,71.6s0,.07-.09,0-.1-.32-.23-.45l-.06,0c0-.13-.1-.28-.16-.42s-.31-.45-.48-.66c0,0,0,0,0,0a2,2,0,0,1-.23-.37l-.05-.05h0l-.1-.17c-.54-.61-1.1-1.21-1.71-1.86a4,4,0,0,1-.42-.39,6.87,6.87,0,0,1-.44-.74c-.18.16-.61-.31-.74-.08-.09-.14-.22-.36-.29-.34s-.44.08-.79-.24c-.12-.13-.2-.41-.27-.44s0,.27-.09.22C82.5,66.83,83.26,67.86,84,69a40.87,40.87,0,0,1,2.42,3.58l0,.06a5.52,5.52,0,0,0,.79,1.06c.13.11.28.22.43.33a2.29,2.29,0,0,1,0-.25,1,1,0,0,0,.25.33c.28.26.26,0,.32-.18s.16-.07.14-.24c.06.1.09.15.14.25s-.21-.28-.08-.27a1.79,1.79,0,0,0,.2.28c.05-.08-.19-.35-.11-.38s.08.34.18.3,0-.11-.07-.16c.22.28.41.39.34,0a2.31,2.31,0,0,0,.18.35h0c0-.06-.06-.15-.09-.2l.1.17s0,0,0,0a.47.47,0,0,0-.06-.15l.07.12a.77.77,0,0,0,0-.15,1.82,1.82,0,0,0-.06-.43C88.81,72.8,88.46,72.19,88.09,71.6Z" transform="translate(0 0)"/><path class="cls-1" d="M84.56,66s0,.08-.1,0-.15-.37-.31-.52l-.06,0-.23-.48c-.21-.25-.42-.5-.64-.74,0,0,0,0-.06,0a2.56,2.56,0,0,1-.31-.41l-.07-.05a.07.07,0,0,0-.06,0l-.14-.19c-.71-.64-1.47-1.25-2.3-1.87a4.88,4.88,0,0,1-.56-.34c-.24-.2-.51-.5-.72-.71-.12.2-.74-.2-.79.07-.14-.14-.37-.33-.42-.29s-.42.19-.9,0c-.17-.1-.36-.36-.44-.38s.12.28,0,.26c1.13,1,2.25,1.88,3.29,3A13.38,13.38,0,0,1,81.34,65a23.74,23.74,0,0,1,1.58,2l0,.07a9.66,9.66,0,0,0,.92,1.18l.46.38,0-.26a1.84,1.84,0,0,0,.28.38c.3.31.28,0,.33-.18s.17-.05.13-.25l.17.29c.06,0-.24-.33-.11-.31a4,4,0,0,0,.22.34c.06-.08-.2-.41-.12-.44s.09.38.2.35-.05-.12-.08-.18c.24.34.45.48.36.09a3.11,3.11,0,0,0,.2.41h0l-.11-.23.12.21,0-.06a.87.87,0,0,0-.07-.17l.08.14s0-.11,0-.17a2.4,2.4,0,0,0-.1-.49A19.69,19.69,0,0,0,84.56,66Z" transform="translate(0 0)"/><path class="cls-1" d="M81.94,65.11s0,.09-.09.06-.25-.34-.45-.45l-.05,0L81,64.33c-.27-.21-.54-.42-.82-.62,0,0,0,0-.05,0a3.91,3.91,0,0,1-.4-.36l-.08-.05-.06,0-.18-.17-2.64-1.67a4.06,4.06,0,0,1-.62-.33,9.14,9.14,0,0,1-.81-.71c-.11.21-.78-.21-.81.07-.16-.14-.4-.35-.46-.32s-.43.19-.95-.09c-.18-.12-.39-.41-.48-.43s.13.3,0,.26c1.22,1.13,2.5,2.09,3.77,3.17.5.29,3.46,2.72,4.19,3.39l.07.06a8.18,8.18,0,0,0,1.32,1c.19.1.4.18.6.27a2.1,2.1,0,0,1-.13-.26,1.6,1.6,0,0,0,.41.31c.41.22.29,0,.25-.27s.15-.11,0-.29c.11.1.17.14.27.24s-.36-.26-.21-.28a2.24,2.24,0,0,0,.34.27c0-.1-.36-.34-.29-.39s.24.35.33.28-.09-.11-.15-.15c.36.25.62.33.38,0,.11.09.23.26.35.34h0l-.18-.2.18.17v-.06l-.13-.15.13.12a.84.84,0,0,0-.05-.17,2.18,2.18,0,0,0-.26-.46C83.24,66.26,82.59,65.68,81.94,65.11Z" transform="translate(0 0)"/><path class="cls-1" d="M83.47,61s-.06.08-.1,0-.1-.4-.23-.58l-.07,0L82.92,60c-.16-.3-.32-.59-.49-.88,0,0,0,0-.06,0s-.14-.3-.23-.48l0-.07s0,0-.06,0l-.09-.22c-.55-.82-1.13-1.63-1.75-2.53a5.25,5.25,0,0,1-.43-.53,9.27,9.27,0,0,1-.45-1c-.19.15-.63-.49-.77-.24-.09-.19-.23-.48-.29-.47s-.47,0-.83-.44c-.12-.19-.2-.52-.27-.57s0,.31-.11.23c.67,1.49,1.45,2.85,2.18,4.31.34.46,2.07,3.8,2.46,4.68l0,.08a8.87,8.87,0,0,0,.81,1.4c.14.16.29.31.44.47,0-.1,0-.2,0-.29a1.6,1.6,0,0,0,.25.44c.29.36.28.08.34-.15s.18,0,.15-.24l.15.32c.07,0-.22-.38-.08-.34a2.75,2.75,0,0,0,.2.38c.06-.08-.19-.45-.1-.47s.07.41.18.38,0-.13-.07-.19c.22.37.42.53.35.13a4.17,4.17,0,0,0,.19.44h0c0-.07-.07-.19-.1-.25l.11.22s0,0,0-.06a1.27,1.27,0,0,0-.06-.18l.07.15,0-.17a3.77,3.77,0,0,0-.06-.51C84.19,62.59,83.84,61.81,83.47,61Z" transform="translate(0 0)"/><path class="cls-1" d="M83.53,63.54s0,.08-.11,0c-.14-.22-.11-.46-.26-.67H83.1l-.19-.59c-.18-.34-.37-.68-.57-1,0,0,0,0-.06,0a4.73,4.73,0,0,1-.27-.55L82,60.68s0,0-.06,0l-.12-.25c-.64-.93-1.33-1.84-2.09-2.82a5.55,5.55,0,0,1-.52-.58c-.22-.3-.43-.72-.62-1-.16.17-.73-.51-.83-.23-.13-.21-.32-.51-.38-.49s-.48,0-.93-.42c-.16-.19-.31-.55-.39-.6s.07.35-.06.27c1,1.54,2,3,2.9,4.56a37.76,37.76,0,0,1,2.87,5.19l0,.08A11.57,11.57,0,0,0,82.62,66l.45.56,0-.32a2.11,2.11,0,0,0,.26.51c.29.42.28.11.35-.13s.18,0,.16-.25l.15.37c.06,0-.23-.44-.09-.38a4.39,4.39,0,0,0,.21.44c.06-.09-.19-.52-.1-.53s.07.46.18.44,0-.15-.07-.23c.22.44.43.65.36.19a5.34,5.34,0,0,0,.18.52h0l-.09-.28.11.26,0-.06-.06-.21.07.17s0-.12,0-.18a5.19,5.19,0,0,0-.06-.59C84.32,65.34,83.94,64.43,83.53,63.54Z" transform="translate(0 0)"/><path class="cls-1" d="M84.14,63s0,.08-.09,0-.11-.34-.24-.47l-.06,0-.17-.43-.51-.68s0,0-.06,0a2.31,2.31,0,0,1-.24-.38l0,0a.07.07,0,0,0-.06,0l-.1-.18c-.57-.61-1.18-1.21-1.83-1.86a4.23,4.23,0,0,1-.45-.37c-.18-.21-.35-.51-.51-.73-.16.17-.64-.28-.74,0-.11-.15-.26-.36-.32-.34s-.44.12-.82-.18c-.13-.12-.24-.4-.31-.42s0,.27-.08.23c.78,1.11,1.62,2.1,2.41,3.21A28.55,28.55,0,0,1,82.46,64l0,.06a6.27,6.27,0,0,0,.8,1.09l.43.34a2.29,2.29,0,0,1,0-.25c.09.16.17.31.25.34.27.27.26,0,.32-.17s.17-.06.14-.24l.15.26c.06,0-.22-.3-.08-.28a1.37,1.37,0,0,0,.19.3c.06-.08-.18-.37-.1-.4s.07.35.18.31,0-.11-.07-.16c.22.29.41.41.34.06a2.42,2.42,0,0,0,.18.36h0l-.09-.2.1.18,0-.06a.35.35,0,0,0-.06-.14l.07.12,0-.16a1.92,1.92,0,0,0-.07-.44C84.88,64.29,84.53,63.65,84.14,63Z" transform="translate(0 0)"/><path class="cls-1" d="M85.49,68.19s0,.09-.08.06-.22-.31-.41-.41l0,0-.32-.38-.73-.56s0,0-.05,0a2.58,2.58,0,0,1-.36-.33l-.07,0a.08.08,0,0,0-.06,0l-.16-.16c-.76-.49-1.54-1-2.38-1.55a4.14,4.14,0,0,1-.55-.31,9.13,9.13,0,0,1-.7-.69c-.12.2-.72-.21-.78.05-.14-.14-.34-.35-.4-.31s-.43.16-.89-.12c-.16-.13-.33-.41-.41-.43s.09.28,0,.25c1,1.13,2.16,2.08,3.3,3.12.44.29,3.14,2.56,3.83,3.15l.06,0a6.76,6.76,0,0,0,1.24.88l.57.21a2.67,2.67,0,0,1-.12-.24,1.23,1.23,0,0,0,.39.26c.39.18.27-.06.24-.28s.14-.11,0-.28l.25.21s-.34-.22-.2-.25a2.35,2.35,0,0,0,.32.23c0-.1-.33-.3-.27-.36s.22.32.31.25-.09-.1-.14-.14c.34.22.58.27.36,0a3.11,3.11,0,0,0,.33.29h0l-.18-.17.18.14v-.06a.74.74,0,0,0-.13-.12l.12.09a1.24,1.24,0,0,0,0-.16,2.15,2.15,0,0,0-.25-.41C86.69,69.2,86.09,68.69,85.49,68.19Z" transform="translate(0 0)"/><path class="cls-1" d="M90,77.24s0-.09.1,0,.22.42.41.59l.06,0,.31.53c.25.3.51.58.77.87,0,0,0,0,.06,0s.23.3.37.48l.07.07a.06.06,0,0,0,.07,0l.16.23c.81.79,1.65,1.58,2.54,2.44a6.33,6.33,0,0,1,.61.51c.25.28.52.67.74,1,.15-.19.8.43.86.14.15.2.38.48.44.46s.48-.08,1,.34c.18.18.36.54.45.58s-.1-.34,0-.27c-1.12-1.5-2.33-2.85-3.52-4.31-.48-.44-3.25-3.77-3.92-4.66L91.5,76a10.59,10.59,0,0,0-1.24-1.38l-.59-.44c0,.11.07.21.1.31a1.72,1.72,0,0,0-.39-.43c-.4-.34-.31,0-.31.21s-.16.07-.08.29c-.09-.13-.14-.19-.24-.32-.07,0,.34.37.18.35a3.79,3.79,0,0,0-.32-.38c0,.1.33.46.25.49s-.2-.42-.3-.38.08.14.13.2c-.34-.36-.6-.51-.4-.08A4.6,4.6,0,0,0,88,74h0c0,.07.12.19.17.25L88,74.06v.07a.94.94,0,0,0,.12.18L88,74.16a1.37,1.37,0,0,0,0,.19,4.4,4.4,0,0,0,.22.55C88.78,75.69,89.37,76.47,90,77.24Z" transform="translate(0 0)"/><path class="cls-1" d="M76.53,56.36s.06-.07.1,0,.07.35.19.5l.07,0,.12.46c.14.25.29.5.44.74,0,0,0,0,.06,0a3.69,3.69,0,0,1,.2.4l0,.07h.06l.09.19c.5.68,1,1.36,1.62,2.09a4.24,4.24,0,0,1,.42.43,8.83,8.83,0,0,1,.43.8c.17-.15.6.36.74.13.08.16.22.39.28.37s.45-.06.8.29c.12.15.19.43.26.47s0-.28.1-.22c-.65-1.22-1.39-2.33-2.06-3.54a31.59,31.59,0,0,1-2.18-3.92l0-.07a6.1,6.1,0,0,0-.69-1.18l-.39-.4a1.93,1.93,0,0,1,0,.25,1,1,0,0,0-.21-.37c-.25-.3-.26-.06-.34.14s-.18,0-.17.22l-.12-.27c-.06,0,.19.32.06.29a2.59,2.59,0,0,0-.17-.33c-.06.08.15.4.06.42s0-.36-.14-.33,0,.11,0,.17c-.19-.32-.37-.47-.34-.11a1.74,1.74,0,0,0-.14-.38h0l.07.22-.08-.2,0,.05a.43.43,0,0,0,0,.16l-.06-.13a.83.83,0,0,0,0,.15,2,2,0,0,0,0,.46C75.92,55,76.21,55.7,76.53,56.36Z" transform="translate(0 0)"/><path class="cls-1" d="M37.73,53.78s.11,0,.06.09c-.16.32-.42.49-.57.81l0,0-.53.67c-.27.46-.53.92-.78,1.39,0,0,0,0,0,.06s-.28.44-.44.71l-.06.13a.07.07,0,0,0,0,.07l-.21.33c-.67,1.4-1.3,2.85-2,4.42-.11.34-.23.69-.36,1s-.55,1-.78,1.47c.24,0-.19,1.18.12,1.06-.15.29-.37.74-.32.79s.23.48,0,1.32c-.11.33-.41.77-.43.9s.32-.35.29-.15c1.13-2.28,2.15-4.51,3.37-6.76.16-.41.93-1.91,1.81-3.44S38.85,55.6,39.27,55l.07-.11a23.88,23.88,0,0,0,1.3-2.17l.39-.91-.32.28a4.3,4.3,0,0,0,.41-.67c.32-.64,0-.37-.29-.24s-.1-.15-.33.06l.32-.45c0-.06-.36.58-.36.39s.24-.38.37-.56c-.12,0-.46.61-.51.54s.45-.45.38-.55-.14.17-.21.26c.36-.59.49-1,0-.51a7.28,7.28,0,0,0,.46-.6h0l-.26.33.23-.32-.07,0a2.11,2.11,0,0,0-.19.23l.15-.21-.21.12a5.88,5.88,0,0,0-.59.54C39.24,51.54,38.46,52.65,37.73,53.78Z" transform="translate(0 0)"/><path class="cls-1" d="M37.08,68.38s-.11,0,0-.11c.27-.25.59-.31.86-.56,0,0,0,0,0-.07l.77-.45,1.32-1s0,0,0-.06.45-.32.72-.51l.11-.1a.1.1,0,0,0,0-.07l.34-.23L45,61.85c.27-.28.54-.55.81-.79.42-.34,1-.71,1.43-1-.2-.13.76-1,.42-1,.28-.21.71-.51.7-.58s0-.55.71-1.19c.28-.24.78-.51.86-.62s-.47.17-.34,0c-2.22,1.55-4.27,3.17-6.47,4.78-.69.63-5.71,4.38-7,5.3L36,66.8a21.57,21.57,0,0,0-2.11,1.66l-.72.76.42-.17a4.2,4.2,0,0,0-.66.53c-.54.52-.13.36.19.32s0,.18.35,0l-.48.34c0,.07.56-.45.5-.27s-.38.3-.57.43c.12,0,.67-.45.69-.36s-.59.3-.57.41.2-.11.29-.18c-.56.45-.81.77-.21.48a6.88,6.88,0,0,0-.66.44h0c.1-.07.28-.17.37-.24l-.33.24h.08l.27-.16-.22.16.24-.06a4.43,4.43,0,0,0,.76-.34C34.77,70,35.94,69.21,37.08,68.38Z" transform="translate(0 0)"/><path class="cls-1" d="M47.66,56.1s.07,0,.05.09-.28.1-.37.22l0,.06-.34.16c-.16.16-.33.31-.48.48a0,0,0,0,1,0,0,2.3,2.3,0,0,1-.27.22l0,0a.08.08,0,0,0,0,0l-.14.1c-.4.53-.78,1.09-1.21,1.68a2.71,2.71,0,0,1-.23.41,5.72,5.72,0,0,1-.53.45c.18.15-.12.58.11.68-.1.09-.27.23-.23.28a.64.64,0,0,1,0,.75c-.1.12-.33.21-.34.27s.24,0,.21.08c.91-.68,1.59-1.45,2.4-2.18a18.68,18.68,0,0,1,2.52-2.34l0,0a3.83,3.83,0,0,0,.75-.68l.21-.35h-.19c.11-.07.22-.13.24-.19.18-.21,0-.24-.17-.33s-.06-.16-.21-.16l.22-.11c0-.06-.25.17-.24.05a1.83,1.83,0,0,0,.26-.16c-.07-.06-.32.14-.35.06s.3,0,.27-.14-.1,0-.14,0c.23-.18.45-.35.06-.33.11,0,.3-.06.42-.12h0l-.23,0,.21-.07-.05,0-.17,0,.15,0-.16,0a1.51,1.51,0,0,0-.47,0A7.85,7.85,0,0,0,47.66,56.1Z" transform="translate(0 0)"/><path class="cls-1" d="M28.81,69.28s.09,0,.1,0-.12.16-.09.25h.07l0,.07h.06l-.07.15a1.24,1.24,0,0,0,.06.47s.05,0,.06,0,0,.15.05.24l0,0s0,0,.05,0l0,.1a1.52,1.52,0,0,0,1.14.53,1.58,1.58,0,0,1,.26-.06c.1,0,.22.07.33.07,0-.22.19-.36.1-.58,0,0,.09,0,.07-.07l-.1-.28c-.05-.12,0,0,0-.05l0,0-.08-.07h0l.12.1h0c.08.09,0,0,0-.19s0-.1,0-.15-.15.06-.12,0h0s0,0,0,0h0s0,0,0-.09a.5.5,0,0,1-.08-.12l-.1-.06s.05,0,0,0-.08-.13-.21-.22-.09-.12-.2-.16l.1,0s-.09,0-.14,0,.06,0,.11,0S30,69,30,69s.2.06.13,0-.06,0-.08,0,.12-.18-.09-.24c.05,0,.14,0,.18,0h0l0,0h0l-.12-.08a.72.72,0,0,0-.3-.07A1.29,1.29,0,0,0,28.81,69.28Z" transform="translate(0 0)"/><path class="cls-1" d="M31.12,71.9s0-.07,0-.1.18.08.27,0v-.06a2,2,0,0,0,.24,0,1.9,1.9,0,0,0,.37-.2s0,0,0,0a1.09,1.09,0,0,1,.19-.1l0,0a.08.08,0,0,0,0,0l.09,0a2,2,0,0,0,.34-1,1.2,1.2,0,0,1,0-.24,1.09,1.09,0,0,1,.14-.23c-.21-.09-.24-.31-.47-.36,0,0,.06-.11,0-.14a.8.8,0,0,1-.44-.36s.1-.1.06-.13-.15,0-.2,0c-.19.33-.23.64-.37.83.05.17-.22.41-.31.34h0s-.05,0-.08.08a.76.76,0,0,1-.11.16v.12s-.05,0-.07,0-.14.16-.18.32-.09.15-.07.24l-.08-.06c0,.06.11,0,0,.12s-.07,0-.11-.06.11.11.07.18-.05-.17-.12-.08,0,0,.05.06c-.13,0-.27,0-.21.17-.05,0-.08-.11-.13-.14h0l.06.08-.07-.06v0a.16.16,0,0,0,0,.07l-.05,0a.37.37,0,0,0,0,.11c0,.11,0,.24.08.27A1.63,1.63,0,0,0,31.12,71.9Z" transform="translate(0 0)"/><path class="cls-1" d="M30.76,65.76l0,.09s-.08-.07-.07,0l0,.06-.08-.07a.25.25,0,0,0,0,.07.18.18,0,0,1,0,.06s0,0,0,0h0v0h0a1.17,1.17,0,0,1-.24.47.32.32,0,0,1-.1.14s-.09,0-.13,0c0,.23-.18.31-.22.54,0,0-.09,0-.12,0s-.17.39-.36.44-.11-.11-.14-.08,0,.16,0,.2a2,2,0,0,0,1.32.24c.07-.06.35-.12.62-.24a5.62,5.62,0,0,0,.65-.32h0a.52.52,0,0,0,.26-.35,1.05,1.05,0,0,0,0-.24l-.12,0s.07-.07.05-.11-.15-.16-.29-.24-.13-.11-.2-.13a.08.08,0,0,1,0,0s0,.07-.09,0,0,0,0,0-.07,0-.14,0,.13,0,0,0,0,0,0,0-.07-.14-.19-.18.06,0,.06,0h0l0,0,0,0s0,0,0,0h0l-.09,0-.16-.08A.58.58,0,0,0,30.76,65.76Z" transform="translate(0 0)"/><path class="cls-1" d="M14.43,58.47s0-.11.1,0c.33.21.49.52.83.73l.06,0,.68.66,1.42,1.07s0-.05.06,0a7.28,7.28,0,0,1,.73.59l.13.09a.1.1,0,0,0,.08,0l.32.28,4.5,3c.35.21.7.41,1,.63s1,.83,1.45,1.18c.08-.23,1.22.53,1.16.18.29.24.72.59.79.56s.56-.09,1.41.43c.32.22.74.66.87.71s-.3-.42-.09-.33c-2.23-1.85-4.46-3.52-6.75-5.33-.84-.54-6.11-4.65-7.42-5.76L15.65,57a25.67,25.67,0,0,0-2.3-1.71l-1-.54.3.38a5.37,5.37,0,0,0-.72-.53c-.68-.41-.4,0-.26.27s-.16.09.07.36l-.49-.39c-.06,0,.63.45.42.43a5.59,5.59,0,0,0-.6-.46c0,.12.66.56.58.6s-.48-.52-.58-.47.17.17.27.25c-.63-.45-1-.63-.54-.1-.19-.15-.43-.4-.64-.55h0l.35.31-.34-.27,0,.08a2.73,2.73,0,0,0,.25.23l-.23-.19c0,.08.08.16.13.24a7.18,7.18,0,0,0,.57.67C12.09,56.56,13.26,57.53,14.43,58.47Z" transform="translate(0 0)"/><path class="cls-1" d="M16.87,58.63s-.05-.11.09-.07c.42.15.69.42,1.11.57l.06-.05.93.53,1.85.79s0-.06.06,0c.26.11.59.3.93.48l.16.07a.1.1,0,0,0,.08,0l.41.24a14.18,14.18,0,0,1,4.7,3.44,10.58,10.58,0,0,1,.92,1,16.49,16.49,0,0,1,1.11,1.78c.16-.21,1,1.08,1.07.7a4.11,4.11,0,0,0,.57.94c.22,0,.58.19,1.19,1.15.23.38.45,1,.56,1.15s-.13-.57,0-.38a31.27,31.27,0,0,0-5.36-8.44c-.22-.2-.74-.72-1.49-1.31A17.33,17.33,0,0,0,23,59.37c-1-.55-2.1-1-3-1.43l-2.12-1-.17-.07a32.34,32.34,0,0,0-3-1.25l-1.22-.35.44.32a5.75,5.75,0,0,0-.94-.39c-.86-.28-.44,0-.18.33s-.15.12.18.35l-.64-.3c-.06,0,.81.32.58.34s-.53-.22-.78-.34c0,.12.88.43.8.5s-.68-.44-.77-.36a2.21,2.21,0,0,0,.37.19c-.81-.33-1.28-.43-.61,0-.25-.12-.58-.32-.85-.43h0l.47.24-.45-.21.06.08.33.18-.29-.14.21.21c.33.22.63.47.82.56C13.78,57.19,15.32,57.93,16.87,58.63Z" transform="translate(0 0)"/><path class="cls-1" d="M22.9,63.73s0-.09.08-.07.21.29.38.38l.05,0,.31.35.71.5s0,0,0,0a2.17,2.17,0,0,1,.35.3l.07,0,.05,0,.16.14,2.3,1.34a3.86,3.86,0,0,1,.54.26,8,8,0,0,1,.69.6c.11-.2.69.15.74-.12.14.13.34.31.4.27s.41-.2.86,0c.16.11.33.36.4.38s-.09-.27,0-.25c-1-1-2.13-1.81-3.23-2.72-.43-.24-3-2.26-3.67-2.8l-.06,0a6.1,6.1,0,0,0-1.17-.78l-.54-.18.11.23a1.06,1.06,0,0,0-.37-.24c-.37-.16-.26.07-.24.28s-.13.12,0,.28l-.24-.19c-.05,0,.32.19.19.23a2,2,0,0,0-.3-.21c0,.09.31.28.25.33s-.21-.3-.29-.22.08.09.13.13c-.32-.2-.55-.24-.35.06a2.8,2.8,0,0,0-.31-.28h0l.17.16-.17-.13v.06l.12.12-.11-.09,0,.15a2.9,2.9,0,0,0,.23.4C21.76,62.8,22.32,63.27,22.9,63.73Z" transform="translate(0 0)"/><path class="cls-1" d="M22,62.39s0-.09.09-.06.26.33.46.45l.05-.05.37.42.83.61s0,0,.05,0a3.9,3.9,0,0,1,.41.36l.08,0s0,0,.06,0l.18.17L27.25,66c.22.11.43.22.62.34s.56.52.79.74c.12-.2.79.25.83,0,.16.15.39.38.45.34s.44-.16.95.15c.19.13.39.43.47.45s-.12-.3,0-.26c-1.2-1.21-2.47-2.24-3.76-3.35-.5-.32-3.54-2.78-4.31-3.43l-.08,0a8.84,8.84,0,0,0-1.38-1l-.62-.24.14.25a1.87,1.87,0,0,0-.43-.29c-.43-.2-.29.05-.24.29s-.14.11,0,.28L20.39,60c-.05,0,.38.24.23.27a2,2,0,0,0-.36-.26c0,.1.38.33.31.39s-.25-.34-.34-.27.1.1.16.14c-.38-.24-.64-.3-.39,0a2.83,2.83,0,0,0-.37-.32h0l.2.18-.2-.15v.06l.14.14-.13-.11a1.09,1.09,0,0,0,.05.17,2.49,2.49,0,0,0,.3.44C20.66,61.29,21.33,61.85,22,62.39Z" transform="translate(0 0)"/><path class="cls-1" d="M24.89,66.69s0-.09.08-.07.2.28.36.37l.05,0,.29.34c.23.16.45.32.69.47,0,0,0-.05,0,0a3.29,3.29,0,0,1,.34.28l.07,0a.09.09,0,0,0,.05,0l.15.14c.72.37,1.47.71,2.29,1.08a4.84,4.84,0,0,1,.54.17c.23.13.49.34.7.49.09-.22.68,0,.7-.24.14.09.36.23.4.18a.72.72,0,0,1,.81-.14c.16.06.35.27.42.27s-.12-.24,0-.24c-1.08-.72-2.17-1.31-3.25-2a23.51,23.51,0,0,1-3.43-2.42l-.06,0a5.76,5.76,0,0,0-1.05-.74l-.5-.19a1.36,1.36,0,0,1,.09.23.83.83,0,0,0-.33-.24c-.33-.16-.25.06-.25.27s-.14.11-.07.26l-.21-.19c-.05,0,.29.2.16.23a2.88,2.88,0,0,0-.27-.22c0,.1.27.29.2.34s-.16-.3-.25-.23.07.09.11.13c-.29-.21-.5-.26-.34,0a3.5,3.5,0,0,0-.27-.28h0l.15.17-.15-.14v.06a.47.47,0,0,0,.09.12l-.1-.1c0,.05,0,.1,0,.16a2,2,0,0,0,.19.39A21,21,0,0,0,24.89,66.69Z" transform="translate(0 0)"/><path class="cls-1" d="M17.12,60.52s0-.1.1-.05c.3.17.45.44.75.61l.06,0,.62.56,1.31.88s0-.05.05,0,.42.31.67.5l.12.07s.06,0,.07,0l.3.23,4.12,2.44c.32.16.64.31.94.49s.93.69,1.32,1c.08-.23,1.12.38,1.06,0,.27.2.67.49.73.45s.51-.15,1.29.27c.29.18.67.55.8.59s-.29-.37-.09-.31c-2-1.55-4.07-2.91-6.16-4.41-.77-.43-5.58-3.84-6.78-4.76L18.29,59a18.74,18.74,0,0,0-2.11-1.4c-.29-.15-.59-.28-.89-.42.1.12.19.23.26.33a3.47,3.47,0,0,0-.65-.43c-.63-.33-.38,0-.25.28s-.16.1,0,.33l-.44-.33c-.06,0,.57.37.38.37s-.37-.25-.55-.38c0,.12.6.47.52.52s-.43-.45-.53-.39.16.14.25.21c-.57-.37-.93-.5-.5-.05-.17-.12-.39-.34-.59-.46h0l.32.27-.31-.23,0,.07.22.19-.2-.15a1.13,1.13,0,0,0,.12.21,5.15,5.15,0,0,0,.51.59C15,58.93,16.05,59.74,17.12,60.52Z" transform="translate(0 0)"/><path class="cls-1" d="M19.85,61.2s0-.08.07-.07.18.24.33.3l.05,0,.25.3.6.4s0,0,0,0a1.47,1.47,0,0,1,.29.24l.06,0,.05,0,.12.12a21.48,21.48,0,0,1,1.9,1.18,2.69,2.69,0,0,1,.44.26,4.68,4.68,0,0,1,.5.6c.15-.18.61.18.71,0,.1.12.24.32.3.29a.67.67,0,0,1,.79.13c.12.12.21.38.28.41s0-.26.09-.22a17.67,17.67,0,0,0-2.47-2.85c-.19-.12-.82-.68-1.51-1.22S21.3,59.87,21,59.64l-.06,0A4.12,4.12,0,0,0,19.84,59a4,4,0,0,0-.5-.08l.12.19c-.14-.08-.28-.17-.35-.16-.35-.08-.23.12-.2.32s-.11.13,0,.27l-.22-.14s.3.13.18.19-.19-.09-.28-.14.3.2.24.27-.2-.25-.27-.16.08.07.12.09c-.29-.12-.49-.11-.3.13a1.45,1.45,0,0,0-.29-.19h0l.16.11-.15-.09v.06l.11.09-.1-.06a.65.65,0,0,0,0,.13c.09.13.16.29.22.32Z" transform="translate(0 0)"/><path class="cls-1" d="M14.34,58.37s0-.11.1,0c.36.24.53.56.89.8l.06,0,.74.73L17.65,61s0,0,.07,0c.21.15.49.4.78.65l.13.1c.05,0,.07,0,.08,0l.36.31,4.79,3.37c.38.23.76.46,1.1.71.5.37,1.09.91,1.55,1.3.07-.24,1.29.61,1.21.25a3.75,3.75,0,0,0,.84.62c.19-.1.57-.08,1.48.51.34.25.79.72.93.78s-.34-.45-.12-.35c-2.37-2-4.75-3.88-7.19-5.88-.89-.6-6.51-5.14-7.92-6.35l-.13-.11A30.19,30.19,0,0,0,13.15,55l-1-.62.32.41a5.67,5.67,0,0,0-.77-.59c-.73-.47-.43-.07-.27.26s-.18.08.07.37l-.52-.43c-.06,0,.67.5.45.46s-.43-.33-.64-.51c0,.13.7.62.62.66s-.52-.57-.63-.52.19.18.29.27c-.66-.5-1.08-.71-.57-.14-.2-.17-.46-.44-.69-.61h0l.38.34-.37-.3,0,.08a3.07,3.07,0,0,0,.26.25l-.24-.2.14.25c.25.29.46.59.61.72C11.83,56.26,13.08,57.33,14.34,58.37Z" transform="translate(0 0)"/><path class="cls-1" d="M31.66,70.94s0-.08,0-.1.2.1.54.06v-.06a5.36,5.36,0,0,0,.71.06l.42-.52c.07-.08.14-.18.19-.25l.1-.15s0,0,0,0,.15-.18.24-.29l0-.06a.09.09,0,0,0,0,0L34,69.4a12.1,12.1,0,0,0,.7-2.08,3.71,3.71,0,0,1,.05-.48c.07-.21.21-.46.29-.67-.22,0-.17-.57-.43-.54,0-.13.12-.33.06-.36a.66.66,0,0,1-.4-.61c0-.14.13-.32.1-.38s-.17.15-.22.06a14.83,14.83,0,0,1-1,2.78,5.68,5.68,0,0,1-.71,1.36c-.1.14-.2.29-.31.42L32,69s0,0-.06,0h-.3a3.78,3.78,0,0,0-1.08.1l-.41.18.18.11c-.14,0-.29,0-.34,0-.3.1-.13.21,0,.37s0,.17.1.24h-.24c0,.07.29,0,.23.08a1,1,0,0,0-.29,0c0,.09.33,0,.32.12s-.27-.12-.29,0,.09,0,.14,0c-.29,0-.45.13-.18.25a1.73,1.73,0,0,0-.32,0h0l.18,0h-.17l0,0,.12,0h-.1a.28.28,0,0,0,.09.1,1.61,1.61,0,0,0,.33.18C30.51,70.9,31.09,70.94,31.66,70.94Z" transform="translate(0 0)"/><path class="cls-1" d="M33.05,68.29s-.08,0,0-.09.3-.14.4-.28l0-.06.37-.2c.19-.18.38-.36.55-.55a0,0,0,0,1,0,0,2.22,2.22,0,0,1,.31-.27l0-.05a.08.08,0,0,0,0,0,.79.79,0,0,1,.15-.12c.48-.6,1-1.22,1.47-1.88a3.33,3.33,0,0,1,.3-.46,6.2,6.2,0,0,1,.62-.53c-.18-.14.19-.62,0-.72.12-.1.31-.26.28-.32a.69.69,0,0,1,.08-.8c.11-.13.36-.24.38-.31s-.26,0-.23-.07c-1,.79-1.84,1.66-2.79,2.5a36.32,36.32,0,0,1-3,2.8l0,0a4.59,4.59,0,0,0-.87.9c-.09.14-.16.3-.24.45l.23-.05c-.13.11-.25.21-.27.29-.2.3,0,.26.23.28s.09.16.25.11L30.9,69c0,.06.23-.24.25-.11a1.26,1.26,0,0,0-.24.22c.08,0,.3-.22.35-.14s-.31.11-.26.2.1-.05.14-.08c-.23.25-.3.45,0,.33-.08.07-.22.14-.3.22h0l.17-.11-.15.12h.06a.42.42,0,0,0,.12-.08l-.1.09h.15a2,2,0,0,0,.4-.12C32,69.13,32.55,68.72,33.05,68.29Z" transform="translate(0 0)"/><path class="cls-1" d="M32.78,68.76s-.09,0-.05-.09.34-.25.46-.46l0,0,.43-.37c.21-.29.41-.57.59-.87,0,0,0,0,0,0s.21-.27.33-.44l.05-.08a.09.09,0,0,0,0-.06l.16-.2a22.83,22.83,0,0,0,1.21-2.92,7,7,0,0,1,.16-.69c.12-.3.32-.67.46-1-.23,0,0-.8-.33-.74.09-.19.2-.49.14-.53s-.32-.33-.27-.89c0-.21.22-.49.2-.58s-.21.23-.24.1a28.93,28.93,0,0,1-1.77,4.29,12,12,0,0,1-1.16,2.1A16.85,16.85,0,0,1,31.4,67.4l-.06.06a13,13,0,0,0-1,1.2l-.3.55.26-.09a2,2,0,0,0-.34.36c-.26.37,0,.29.24.29s.09.16.28.07l-.27.24c0,.06.3-.32.3-.18a2.94,2.94,0,0,0-.31.3c.09,0,.39-.3.43-.23s-.38.19-.33.29.12-.08.18-.12c-.31.31-.42.56,0,.37-.11.1-.29.19-.39.3h0l.22-.16-.19.17h.06a.57.57,0,0,0,.16-.11l-.13.11a.55.55,0,0,0,.18,0,2.53,2.53,0,0,0,.49-.2A17.79,17.79,0,0,0,32.78,68.76Z" transform="translate(0 0)"/><path class="cls-1" d="M35,65.91s-.09,0-.06-.08.32-.3.42-.52l-.05,0,.4-.42.58-.91s0,0,0,0a4.43,4.43,0,0,1,.34-.46l.05-.08a.11.11,0,0,0,0-.06l.16-.2c.52-.92,1-1.86,1.66-2.86a5.87,5.87,0,0,1,.35-.66,10.26,10.26,0,0,1,.75-.86c-.21-.11.25-.82,0-.85.16-.17.39-.42.35-.48s-.16-.45.16-1c.15-.2.46-.42.48-.51s-.31.14-.26,0A46.47,46.47,0,0,0,36.77,60c-.33.53-2.74,3.9-3.33,4.79l0,.08a8.53,8.53,0,0,0-.89,1.55c-.07.22-.14.45-.2.67l.25-.18a2.09,2.09,0,0,0-.27.48,1,1,0,0,0-.05.21L33,68c0-.12-.05-.12-.14-.09l-.44-.28.22-.08c.13-.08.12.13.29,0l-.18.29-.21-.12,0,0s0,0,0,0l.23.15c.07-.09.19-.38.22-.26a1.38,1.38,0,0,0-.17.29l-.33-.22.07-.11s-.07,0-.12.08l.43.27c.1-.12.21-.32.25-.27s-.17.18-.23.28l-.46-.29s0-.07,0-.09,0,0-.07.06l.57.36.08-.11L32.9,68l-.6-.38c.17-.34.19-.54-.11-.27.08-.13.23-.28.31-.42h0l-.18.23.15-.22H32.4s-.09.1-.13.16l.1-.15L32.2,67c-.13.11-.28.2-.37.28l1.55,1,.06-.07Z" transform="translate(0 0)"/><path class="cls-1" d="M36.65,67.35s-.1,0,0-.09c.17-.22.42-.28.59-.5l0-.06.54-.39.87-.9s0,0,0,0a5.93,5.93,0,0,1,.49-.45l.07-.08a.06.06,0,0,0,0-.06l.23-.2c.81-.91,1.62-1.85,2.53-2.84a6,6,0,0,1,.54-.66c.29-.29.71-.59,1-.84-.2-.13.47-.84.17-.89.21-.17.52-.42.49-.48s-.06-.49.41-1c.2-.19.58-.39.63-.49s-.36.12-.28,0c-1.65,1.22-3.11,2.56-4.66,3.93-.48.52-3.92,3.78-4.8,4.62l-.07.08a12.48,12.48,0,0,0-1.37,1.51l-.41.69.31-.16a2.19,2.19,0,0,0-.42.47c-.32.48,0,.33.25.28s.09.16.31,0l-.31.32s.35-.42.34-.26a3.42,3.42,0,0,0-.36.4c.11,0,.44-.42.49-.34s-.43.27-.37.37.13-.1.19-.16c-.35.41-.47.7-.05.42a5.51,5.51,0,0,0-.43.41h0l.25-.22-.22.22h.07c.06,0,.12-.09.18-.15l-.14.14.19,0a3.18,3.18,0,0,0,.54-.32Z" transform="translate(0 0)"/><path class="cls-1" d="M37.66,65s-.09,0,0-.1.39-.22.55-.42l0-.06.5-.33.8-.77s0,0,0-.05a3.85,3.85,0,0,1,.45-.38l.07-.07a.06.06,0,0,0,0-.06l.22-.17c.75-.79,1.51-1.6,2.38-2.45a7.11,7.11,0,0,1,.51-.57c.28-.24.68-.48,1-.68-.18-.15.47-.75.19-.84.2-.13.5-.33.47-.39s0-.49.42-.94c.2-.16.56-.31.61-.39s-.34.06-.26-.06A46.59,46.59,0,0,0,41,59.52c-.47.44-3.72,3.24-4.53,4l-.07.07a9.28,9.28,0,0,0-1.27,1.34l-.37.63.29-.13a1.82,1.82,0,0,0-.38.42c-.29.43,0,.31.24.28s.09.16.3,0l-.29.28c0,.06.32-.37.32-.22a2.73,2.73,0,0,0-.33.35c.1,0,.41-.37.45-.29s-.39.24-.34.33.13-.09.18-.14c-.31.37-.42.63,0,.4-.11.1-.29.23-.4.35h0L35,67l-.19.2h.06L35,67.1l-.13.13.18,0a3.59,3.59,0,0,0,.5-.26Z" transform="translate(0 0)"/><path class="cls-1" d="M41.86,63s-.08,0,0-.09.37-.18.51-.36l0-.06.47-.27.72-.69s0,0,0-.06.26-.21.41-.34l.06-.06a.06.06,0,0,0,0-.06l.19-.15c.65-.74,1.29-1.51,2-2.35a5.58,5.58,0,0,1,.39-.56c.22-.23.55-.48.79-.69-.19-.14.29-.74,0-.81.16-.14.39-.35.36-.4s-.14-.45.18-.92c.14-.17.44-.34.47-.42s-.3.09-.26,0c-1.21,1.06-2.29,2.18-3.49,3.26A43.54,43.54,0,0,1,40.7,61.4l-.07.06a8.78,8.78,0,0,0-1.16,1.1l-.36.53.28-.08a1.4,1.4,0,0,0-.37.35c-.28.36,0,.28.22.3s.08.16.27.09l-.27.22c0,.06.31-.3.3-.16a2.79,2.79,0,0,0-.32.28c.1,0,.4-.28.44-.2s-.38.16-.33.26.12-.07.17-.11c-.31.3-.43.53,0,.37a3.39,3.39,0,0,0-.39.27h0l.23-.14-.2.15h.06l.16-.1-.13.1h.18a3.09,3.09,0,0,0,.48-.17C40.53,64,41.21,63.5,41.86,63Z" transform="translate(0 0)"/><path class="cls-1" d="M44.18,56.64s.1,0,0,.1c-.23.23-.51.3-.73.53l0,.07-.65.43c-.36.33-.72.65-1.06,1,0,0,.05,0,0,.06s-.36.32-.57.51l-.09.1a.08.08,0,0,0,0,.07l-.27.23C40,60.81,39.09,62,38.18,63.21a9.54,9.54,0,0,1-.52.82c-.28.37-.68.81-1,1.15.23.1-.36,1,0,1-.19.23-.46.59-.42.64s.15.49-.21,1.2c-.16.26-.5.6-.53.71s.35-.24.3-.07c1.36-1.82,2.66-3.58,4.2-5.27a27.53,27.53,0,0,1,2.37-2.56,37.28,37.28,0,0,1,2.93-2.59l.1-.07c.58-.46,1.27-1,1.72-1.46l.6-.66-.37.12a2.91,2.91,0,0,0,.56-.44c.47-.44.11-.33-.19-.32s-.05-.18-.31-.07l.41-.29c0-.06-.49.38-.43.22a5.6,5.6,0,0,0,.49-.36c-.11,0-.59.37-.61.28s.53-.22.5-.34-.18.09-.26.15c.49-.38.72-.66.18-.43.17-.11.42-.23.58-.36h0l-.33.2.3-.2h-.08a1.71,1.71,0,0,0-.23.13l.19-.13-.22,0a5.81,5.81,0,0,0-.68.25A35.32,35.32,0,0,0,44.18,56.64Z" transform="translate(0 0)"/><path class="cls-1" d="M43.63,55.39s.09,0,0,.1-.4.26-.56.47l0,.06-.52.37c-.27.28-.54.57-.8.86,0,0,0,0,0,.06s-.28.27-.45.43l-.07.08s0,0,0,.06l-.21.2c-.72.9-1.43,1.84-2.19,2.86a6.46,6.46,0,0,1-.44.67c-.24.3-.61.62-.86.89.2.11-.33.85,0,.88-.17.18-.43.44-.39.5s.14.47-.21,1c-.15.21-.48.44-.51.53s.32-.15.27,0c1.33-1.36,2.52-2.75,3.85-4.12a57.23,57.23,0,0,1,4.28-4.44L45,56.8a12.61,12.61,0,0,0,1.3-1.37l.39-.63-.3.13a1.89,1.89,0,0,0,.41-.43c.32-.43,0-.31-.24-.29s-.08-.16-.29-.05l.3-.28c0-.06-.34.37-.33.22a3.85,3.85,0,0,0,.35-.35c-.1,0-.44.36-.48.28s.42-.23.37-.33-.13.09-.19.15c.35-.38.48-.64.06-.41a4.82,4.82,0,0,0,.43-.36h0l-.25.19.22-.19h-.07l-.18.13.15-.13-.19,0a4,4,0,0,0-.54.26C45.1,54,44.35,54.7,43.63,55.39Z" transform="translate(0 0)"/><path class="cls-1" d="M41.69,55.18s.1,0,.06.08-.35.3-.48.52l0,0-.44.42c-.23.3-.45.61-.66.91,0,0,0,0,0,.06a4.13,4.13,0,0,1-.38.46l0,.08a.08.08,0,0,0,0,.06c-.06.08-.13.15-.18.21-.58.94-1.15,1.92-1.77,3a6.36,6.36,0,0,1-.35.69c-.21.3-.53.64-.75.92.21.1-.23.85.06.86-.15.18-.38.46-.34.51s.19.45-.11,1c-.13.21-.43.46-.45.55s.31-.17.27,0c1.19-1.4,2.21-2.84,3.34-4.3.31-.55,2.88-3.92,3.59-4.75l.06-.08a10.92,10.92,0,0,0,1-1.49c.1-.21.2-.44.29-.66l-.27.16a1.83,1.83,0,0,0,.32-.46c.23-.46,0-.31-.28-.25s-.1-.15-.29,0l.25-.3c0-.06-.28.4-.29.25s.18-.27.28-.39c-.1,0-.36.41-.41.34s.36-.28.3-.37-.12.11-.17.17c.28-.41.36-.68,0-.4a4.79,4.79,0,0,0,.36-.41h0l-.21.22.18-.21h-.07l-.15.15.12-.15-.18.07a2.47,2.47,0,0,0-.47.32C42.91,53.69,42.29,54.43,41.69,55.18Z" transform="translate(0 0)"/><path class="cls-1" d="M40.15,54s.09,0,.07.08-.3.25-.38.45l0,0c-.11.12-.24.23-.36.36s-.34.54-.5.81c0,0,0,0,0,0a3.56,3.56,0,0,1-.29.41l0,.07a.08.08,0,0,0,0,.06,1.41,1.41,0,0,1-.14.18c-.41.83-.82,1.69-1.27,2.61a4.07,4.07,0,0,1-.24.61,9.19,9.19,0,0,1-.58.81c.22.09-.1.75.17.77-.11.16-.29.4-.24.45s.23.4,0,.9c-.09.19-.34.41-.35.49s.27-.15.25,0c.93-1.22,1.7-2.49,2.57-3.77.22-.49,2.19-3.45,2.74-4.18l0-.07a7,7,0,0,0,.79-1.31l.18-.58-.24.14a1.42,1.42,0,0,0,.25-.41c.15-.41-.08-.27-.3-.23s-.12-.13-.28,0c.08-.11.12-.16.19-.27s-.2.36-.24.22a2,2,0,0,0,.22-.34c-.1,0-.29.36-.35.3s.31-.24.24-.33-.09.09-.13.15c.2-.36.24-.6-.07-.36a3.07,3.07,0,0,0,.28-.35h0l-.16.19.14-.19h-.06l-.13.13.09-.13-.15,0a2.76,2.76,0,0,0-.41.28C41.1,52.74,40.61,53.38,40.15,54Z" transform="translate(0 0)"/><path class="cls-1" d="M39.35,53.3s.09,0,.07.07c-.09.24-.31.34-.39.57l0,.05-.37.46c-.18.33-.35.66-.51,1,0,0,.05,0,0,0a3.69,3.69,0,0,1-.3.51l0,.09a.06.06,0,0,0,0,0l-.14.23c-.41,1-.8,2.05-1.22,3.17a5.6,5.6,0,0,1-.21.73c-.14.32-.39.71-.55,1,.23.06,0,.86.23.82-.11.2-.27.51-.22.55s.27.4.11,1c-.08.23-.32.52-.32.62s.26-.22.26-.07c.84-1.57,1.54-3.14,2.39-4.72A50.07,50.07,0,0,1,41,54.38l0-.09a9.79,9.79,0,0,0,.81-1.57l.2-.67-.25.18a2,2,0,0,0,.26-.48c.17-.48-.08-.3-.31-.22s-.12-.13-.29,0l.2-.33s-.21.43-.25.28a2.71,2.71,0,0,0,.23-.41c-.1,0-.3.44-.36.38s.32-.31.24-.4-.09.12-.14.18c.22-.42.27-.7-.06-.39.08-.13.24-.29.31-.43h0l-.17.24.15-.23H41.5l-.13.17.1-.16-.17.08a3.85,3.85,0,0,0-.43.37C40.34,51.69,39.83,52.49,39.35,53.3Z" transform="translate(0 0)"/><path class="cls-1" d="M44.26,54s0-.09,0-.1.17.14.28.12l0-.06.22.16.48.1s0,0,0,0a.77.77,0,0,1,.24.1h0l0,0,.1.06a7.3,7.3,0,0,1,1.54.37,1.43,1.43,0,0,1,.37.09,2.46,2.46,0,0,1,.41.38c.13-.19.52,0,.62-.2.09.08.2.22.25.18a.6.6,0,0,1,.71,0c.11.09.17.3.23.31s0-.22.1-.2a7.23,7.23,0,0,0-2.23-2c-.18-.05-.76-.37-1.41-.61a16.51,16.51,0,0,0-1.64-.5h0a2.44,2.44,0,0,0-1,0l-.38.17.15.12a.51.51,0,0,0-.29,0c-.26.11-.11.22,0,.38s0,.17.08.24H43c0,.07.23,0,.18.08s-.16,0-.23,0,.26,0,.25.12-.21-.12-.22,0,.07,0,.1,0c-.22,0-.34.15-.14.26a.9.9,0,0,0-.24,0h0l.14,0H42.7l0,0,.09,0h-.08l.08.1c.09.06.18.16.23.16C43.46,53.88,43.86,53.94,44.26,54Z" transform="translate(0 0)"/><path class="cls-1" d="M44.56,54.55s0-.07.07-.07,0,.16.14.18l0,0,.09.2a3.3,3.3,0,0,0,.32.18s0,0,0,0,.09.08.14.12h0s0,0,0,0l.06.06c.36.1.73.18,1.12.25h.28a1.29,1.29,0,0,1,.3.22c.1-.21.39-.17.46-.4.06,0,.15.1.18,0a.68.68,0,0,1,.49-.35c.07,0,.13.14.17.12s0-.17,0-.21c-.42-.31-.89-.49-1.33-.79a4.65,4.65,0,0,1-1.43-.93h0a1,1,0,0,0-.46-.27h-.28v.15s-.09-.1-.14-.09-.19.12-.26.27-.12.12-.12.22l-.08-.09c-.05,0,.13.08,0,.13s-.08-.05-.11-.09.1.14,0,.2,0-.18-.1-.11,0,0,0,.07c-.14-.07-.27-.05-.25.13,0,0-.05-.12-.1-.14h0a.92.92,0,0,1,0,.08L44,53.46l0,0a.16.16,0,0,0,0,.07l0,0a.42.42,0,0,0,0,.1,1.56,1.56,0,0,0,0,.25A5,5,0,0,0,44.56,54.55Z" transform="translate(0 0)"/><path class="cls-1" d="M34.68,59.61s.08,0,.09,0-.16.15-.17.26l.06,0-.18.21a4.34,4.34,0,0,0-.14.48.05.05,0,0,1,0,0,1,1,0,0,1-.11.23V61l0,0-.06.11c-.06.49-.09,1-.15,1.54a1.5,1.5,0,0,1,0,.36,3.35,3.35,0,0,1-.21.47c.22.07.19.46.43.47,0,.1-.11.24-.05.27a.62.62,0,0,1,.37.55c0,.11-.15.23-.13.28s.18-.08.21,0c.36-.71.56-1.46.86-2.21a15.64,15.64,0,0,1,.85-2.45l0,0a2.14,2.14,0,0,0,.2-.77c0-.11,0-.23-.06-.35l-.15.08c0-.09.08-.19.06-.24,0-.24-.17-.17-.34-.15s-.16-.08-.26,0l.07-.15s0,.21-.12.12,0-.13.06-.2-.12.21-.19.17.18-.14.08-.19,0,0-.06.09c0-.21,0-.36-.19-.22,0-.06.11-.14.12-.21h0l-.08.11.05-.11h-.05a.18.18,0,0,0,0,.07l0-.07-.12,0c-.1.07-.23.11-.25.16C35,58.85,34.84,59.23,34.68,59.61Z" transform="translate(0 0)"/><path class="cls-1" d="M42.72,55.47s0-.08,0-.09,0,.11.07.08l0-.06,0,.11a.43.43,0,0,0,.16,0,.08.08,0,0,1,0,0s0,0,.07,0h0l0,0,0,0c.18-.06.38-.15.6-.21a.85.85,0,0,1,.17-.08c.06,0,.1.07.14.1.1-.2.28-.24.37-.45,0,0,.07.05.11,0s.25-.35.4-.39.07.11.1.08,0-.15.08-.19a2.93,2.93,0,0,0-.88-.45,4,4,0,0,1-1-.27h0a.35.35,0,0,0-.33,0,1.14,1.14,0,0,0-.16.15l0,.12a.08.08,0,0,0-.1,0c-.1.08-.07.2-.07.36s0,.17,0,.24l-.06,0c0,.07.08,0,0,.09s0,0-.07,0,.07,0,.05.14,0-.13-.07,0,0,0,0,0-.13.11-.09.24,0-.06-.07-.05h0l0,0h0v0s0,0,0,0h0v.11c0,.07,0,.18,0,.18A1.46,1.46,0,0,0,42.72,55.47Z" transform="translate(0 0)"/><path class="cls-1" d="M42.85,54.44s0-.08,0-.1.1.13.17.11l0-.06.13.13.3,0s0,0,0,0a.32.32,0,0,1,.15.06h0l0,0,.06,0,1-.18a1,1,0,0,1,.24-.09,1.08,1.08,0,0,1,.3.11c0-.23.3-.28.31-.51.06,0,.15.05.17,0a.69.69,0,0,1,.37-.46c.07,0,.14.1.18.06s-.05-.15,0-.2a9.62,9.62,0,0,0-1.4-.37,5.59,5.59,0,0,1-1.56-.31h0a.83.83,0,0,0-.49,0l-.23.13a1.12,1.12,0,0,1,0,.13c-.06,0-.12,0-.15,0s-.12.2-.11.36-.06.17,0,.25l-.1,0c0,.06.14,0,.08.1s-.09,0-.13,0,.14.07.11.15-.09-.14-.12,0,0,0,0,0-.23.08-.15.23c0,0-.08-.08-.13-.08h0l.07,0-.07,0v.05l0,0,0,0a.41.41,0,0,0,0,.11c0,.08.07.2.1.21A6.22,6.22,0,0,0,42.85,54.44Z" transform="translate(0 0)"/><path class="cls-1" d="M72.32,57.8s0-.08.08-.07.12.24.25.31l0,0,.18.29a6.12,6.12,0,0,0,.5.39s0,0,0,0a1.8,1.8,0,0,1,.24.24l0,0,0,0,.11.12,1.69,1a3.89,3.89,0,0,1,.41.18,5.1,5.1,0,0,1,.47.46c.13-.19.56,0,.64-.18.1.09.24.23.29.19a.62.62,0,0,1,.71-.08c.12.07.22.27.28.28s0-.23.06-.22c-.7-.74-1.47-1.34-2.22-2a22.59,22.59,0,0,1-2.5-2.15l0,0a3.21,3.21,0,0,0-.8-.61l-.42-.13a1.8,1.8,0,0,1,0,.19c-.1-.09-.19-.18-.25-.18-.28-.12-.24.07-.27.26s-.14.11-.1.24L71.71,56s.22.16.1.2-.14-.11-.2-.17.2.23.13.28-.1-.25-.19-.18,0,.07.08.1c-.22-.16-.41-.18-.3.07-.07-.06-.12-.17-.2-.22h0l.1.13-.11-.11v0a.36.36,0,0,0,.07.1l-.07-.07a.57.57,0,0,0,0,.13c0,.13.06.29.11.33C71.56,57,71.93,57.43,72.32,57.8Z" transform="translate(0 0)"/><path class="cls-1" d="M74.69,57.79s0-.08.09,0,.19.31.36.42l.06,0,.27.39.68.58s0-.05,0,0a3.35,3.35,0,0,1,.34.33l.06,0s0,0,.06,0l.14.15,2.25,1.53a3.85,3.85,0,0,1,.53.3,8.13,8.13,0,0,1,.66.65c.13-.2.7.18.75-.08.14.13.33.32.39.29s.41-.19.85.06c.16.11.32.37.39.39s-.09-.28,0-.25c-1-1-2.05-1.91-3.09-2.89-.42-.26-2.86-2.49-3.44-3.1l-.06,0a6,6,0,0,0-1.1-.9l-.52-.24.09.23a1.34,1.34,0,0,0-.35-.28c-.36-.2-.27,0-.27.25s-.15.1-.08.27l-.22-.22s.3.24.16.26a1.35,1.35,0,0,0-.28-.25c0,.09.29.31.22.36s-.17-.32-.27-.26.07.1.12.14c-.31-.23-.53-.31-.36,0a2.8,2.8,0,0,0-.28-.31h0l.15.18-.16-.16v.06a.64.64,0,0,0,.1.13l-.1-.1a.92.92,0,0,0,0,.16,3.68,3.68,0,0,0,.19.42C73.63,56.73,74.15,57.27,74.69,57.79Z" transform="translate(0 0)"/><path class="cls-1" d="M75.61,56.3s0-.06.09,0,0,.25.15.34l.06,0,.1.31c.11.16.23.31.35.47,0,0,0,0,0,0a1.18,1.18,0,0,1,.16.26l0,0h0a.38.38,0,0,1,.06.13L78,59.05a1.76,1.76,0,0,1,.33.27,3.6,3.6,0,0,1,.29.55c.18-.14.5.21.66,0,.06.12.14.28.21.26a.62.62,0,0,1,.69.15c.09.1.11.32.17.34s0-.21.13-.18a25.32,25.32,0,0,0-1.44-2.53,31.57,31.57,0,0,1-1.79-2.64l0,0a2.92,2.92,0,0,0-.63-.75l-.36-.2a1.15,1.15,0,0,1,0,.19c-.06-.1-.13-.21-.19-.22-.24-.17-.25,0-.32.2s-.15.08-.14.21l-.12-.17s.18.19.06.2-.11-.13-.16-.2.14.26.06.3,0-.26-.13-.21,0,.08,0,.11c-.18-.19-.34-.24-.31,0a1.19,1.19,0,0,0-.13-.25h0a1,1,0,0,0,.07.15l-.08-.13,0,0a.54.54,0,0,0,0,.11l-.06-.08,0,.12a1.43,1.43,0,0,0,0,.33C75.09,55.46,75.34,55.89,75.61,56.3Z" transform="translate(0 0)"/><path class="cls-1" d="M76.33,54.79s.06,0,.09,0,0,.19.06.25l.06,0v.23l.21.34a.07.07,0,0,1,.06,0,.47.47,0,0,1,.07.2l0,0h0l0,.1.88,1a1.21,1.21,0,0,1,.24.2,1.87,1.87,0,0,1,.13.4c.21-.1.43.15.63,0,0,.08.06.21.12.19a.62.62,0,0,1,.62.11c.06.07,0,.23.08.25s.09-.16.16-.13A13.89,13.89,0,0,0,79.1,56a12.87,12.87,0,0,1-1-2l0,0a1.43,1.43,0,0,0-.38-.57l-.28-.14,0,.15c0-.08-.07-.16-.13-.17s-.22,0-.33.16-.16.06-.19.16l-.06-.13c-.06,0,.11.14,0,.16s-.07-.1-.09-.15.06.19,0,.22,0-.19-.07-.15,0,.06,0,.08c-.12-.14-.25-.18-.28,0,0-.05,0-.14-.06-.19h0s0,.08,0,.1l0-.09,0,0a.22.22,0,0,0,0,.08l0-.06-.06.09a1.13,1.13,0,0,0-.07.26A8.55,8.55,0,0,0,76.33,54.79Z" transform="translate(0 0)"/><path class="cls-1" d="M76.74,54.35s.06,0,.09,0,0,.15,0,.2l.06,0,0,.19a2.33,2.33,0,0,0,.17.26s0,0,.05,0,0,.09.06.15l0,0h0s0,.06,0,.08l.75.72a.61.61,0,0,1,.22.15,1.09,1.09,0,0,1,.1.32c.21-.1.4.09.6,0,0,.06,0,.16.11.14a.65.65,0,0,1,.59.06c0,.06,0,.19.06.2s.09-.13.17-.12a10,10,0,0,0-.57-1.49,7.56,7.56,0,0,1-.79-1.56v0a.93.93,0,0,0-.31-.44l-.26-.1-.06.12c0-.06-.05-.13-.1-.13s-.22,0-.34.16-.16.06-.2.15l0-.11c-.06,0,.09.11,0,.13s0-.07-.07-.12,0,.16,0,.19,0-.16,0-.12,0,0,0,.07-.22-.13-.27,0c0,0,0-.11,0-.15h0s0,.07,0,.09l0-.07,0,0a.06.06,0,0,0,0,.06l0,0-.07.08c0,.09-.1.18-.09.21A4.86,4.86,0,0,0,76.74,54.35Z" transform="translate(0 0)"/><path class="cls-1" d="M75.72,57.06s0-.08.09-.05.13.32.28.44l.06,0,.19.4c.19.21.37.42.56.61a0,0,0,0,1,0,0,2.87,2.87,0,0,1,.27.35l0,.05h.06l.11.16c.61.54,1.25,1.07,1.93,1.64a3.53,3.53,0,0,1,.47.33,5.75,5.75,0,0,1,.55.67c.15-.18.65.22.74,0,.11.13.27.33.33.3a.72.72,0,0,1,.82.11c.14.12.26.38.33.4s0-.27.06-.23c-.82-1-1.72-1.94-2.58-3a32.68,32.68,0,0,1-2.79-3.26l0-.06a5.54,5.54,0,0,0-.88-1l-.45-.29c0,.09,0,.17,0,.24-.1-.14-.2-.28-.28-.31-.3-.23-.26,0-.3.22s-.16.07-.12.24l-.17-.23c-.06,0,.24.26.11.26a1.86,1.86,0,0,0-.22-.27c0,.09.21.34.13.38s-.1-.33-.2-.28,0,.1.08.15c-.24-.27-.44-.36-.34,0a2,2,0,0,0-.21-.33h0l.11.19-.12-.16v0a.61.61,0,0,0,.07.14l-.08-.11c0,.05,0,.1,0,.15a1.46,1.46,0,0,0,.11.43C74.89,55.92,75.29,56.5,75.72,57.06Z" transform="translate(0 0)"/><path class="cls-1" d="M74.3,58.63s0-.09.09,0,.19.39.36.54l.06,0,.28.5c.22.26.46.52.7.77,0,0,0,0,0,0a4.56,4.56,0,0,1,.35.43l.06.06a.06.06,0,0,0,.06,0l.16.2c.76.69,1.55,1.35,2.42,2.06a4.07,4.07,0,0,1,.59.4c.25.22.52.55.74.79.13-.2.77.28.82,0,.15.16.37.39.43.35s.45-.15.94.16c.18.13.37.43.45.45s-.11-.3,0-.26c-1.15-1.17-2.32-2.24-3.44-3.46a33.14,33.14,0,0,1-3.54-4l-.06-.06a8.94,8.94,0,0,0-1.07-1.24l-.52-.4.07.28a1.84,1.84,0,0,0-.33-.39c-.35-.32-.29,0-.32.2s-.16.06-.1.27l-.21-.3c-.06,0,.29.34.15.32s-.19-.23-.27-.35c0,.1.27.43.18.46s-.14-.4-.24-.36.06.13.1.19c-.29-.34-.52-.48-.38-.08a3.58,3.58,0,0,0-.25-.42h0l.14.24-.14-.21v.06a.56.56,0,0,0,.09.17l-.1-.14v.18a2.2,2.2,0,0,0,.16.51C73.25,57.2,73.76,57.93,74.3,58.63Z" transform="translate(0 0)"/><path class="cls-1" d="M72.93,59.13s0-.09.09-.05.23.36.42.5l0,0,.34.45c.26.24.53.47.8.68,0,0,0,0,.05,0s.26.24.41.38l.07,0,.06,0,.18.18c.86.56,1.75,1.09,2.73,1.63a6.36,6.36,0,0,1,.65.28c.28.18.61.45.87.64.09-.22.81.12.8-.16.18.12.45.3.49.25s.41-.23,1,0c.2.09.44.34.53.34s-.17-.26,0-.25c-1.35-.89-2.69-1.69-4-2.68a17,17,0,0,1-2-1.49,22.57,22.57,0,0,1-2-1.9l-.06-.06a9.81,9.81,0,0,0-1.19-1.09l-.55-.34.09.27a1.26,1.26,0,0,0-.36-.35c-.37-.28-.29,0-.29.23s-.16.08-.08.27l-.23-.27c-.06,0,.31.31.17.3s-.21-.21-.3-.32c0,.1.3.4.23.44s-.18-.38-.28-.33.07.12.12.17c-.32-.31-.56-.43-.38,0-.09-.11-.19-.29-.3-.4h0l.16.22-.16-.2v.07l.11.16L71,56.45a1.11,1.11,0,0,0,0,.17,2.68,2.68,0,0,0,.2.5A20.82,20.82,0,0,0,72.93,59.13Z" transform="translate(0 0)"/><path class="cls-1" d="M74.34,58.45s0-.09.09-.06.25.35.45.48l.05,0,.35.45.81.67s0-.05,0,0,.25.24.4.38l.08.06.06,0,.17.19,2.62,1.86a5.39,5.39,0,0,1,.62.38c.26.22.54.55.78.79.12-.21.78.28.83,0,.15.16.38.4.44.36s.46-.15,1,.19c.18.14.38.45.46.48s-.11-.31,0-.27c-1.17-1.26-2.42-2.35-3.68-3.54-.49-.34-3.44-3-4.18-3.7L75.65,57A9,9,0,0,0,74.31,56l-.61-.29.14.27a2,2,0,0,0-.42-.33c-.43-.23-.3,0-.27.27s-.14.1,0,.29l-.27-.25s.37.27.22.29a2.45,2.45,0,0,0-.35-.29c0,.1.37.36.29.41s-.23-.36-.33-.3.09.12.15.16c-.37-.27-.62-.35-.39,0a2.89,2.89,0,0,0-.35-.35h0l.19.2-.19-.17v.06l.13.15L72.09,56a1.16,1.16,0,0,0,0,.18,3.11,3.11,0,0,0,.27.46C73,57.23,73.68,57.85,74.34,58.45Z" transform="translate(0 0)"/><path class="cls-1" d="M76.31,59.05s0-.08.09,0,.13.32.28.44l.06,0,.2.4.57.62s0,0,0,0a2.87,2.87,0,0,1,.27.35l.06,0,.06,0,.11.17c.63.54,1.28,1.07,2,1.65a3.34,3.34,0,0,1,.48.32,6.86,6.86,0,0,1,.56.67c.15-.18.66.22.75,0,.11.13.28.33.34.3A.72.72,0,0,1,83,64c.15.11.27.37.34.39s0-.27.06-.23c-.85-1-1.77-1.94-2.65-3a30.94,30.94,0,0,1-2.85-3.28l0,0a5.35,5.35,0,0,0-.9-1l-.46-.29a2,2,0,0,1,0,.24,1.28,1.28,0,0,0-.28-.31c-.31-.23-.27,0-.31.21s-.16.08-.11.25l-.17-.23c-.06,0,.24.26.11.26a1.94,1.94,0,0,0-.23-.27c0,.08.22.34.14.38s-.1-.34-.2-.29,0,.11.08.15c-.25-.26-.45-.35-.34,0a3.26,3.26,0,0,0-.22-.34h0l.11.19L75,56.65v.06a.91.91,0,0,0,.07.14L75,56.74s0,.1,0,.15a2.58,2.58,0,0,0,.11.43C75.46,57.91,75.87,58.49,76.31,59.05Z" transform="translate(0 0)"/><path class="cls-1" d="M76,61.39s0-.08.08-.06.16.26.3.34l0,0,.23.32c.19.15.39.3.59.43,0,0,0,0,0,0a2.1,2.1,0,0,1,.29.26l0,0a.09.09,0,0,0,0,0l.13.13c.62.35,1.27.68,2,1a2.87,2.87,0,0,1,.47.18,5.38,5.38,0,0,1,.59.48c.11-.21.62,0,.67-.22.11.09.29.23.34.18a.68.68,0,0,1,.76-.11c.14.07.28.27.35.27s-.08-.23,0-.23c-.88-.72-1.81-1.32-2.72-2A21.75,21.75,0,0,1,77.3,60l0,0a4.7,4.7,0,0,0-.9-.69l-.45-.16.06.21c-.11-.1-.21-.21-.28-.21-.3-.15-.25.06-.27.26s-.14.11-.08.25l-.18-.18c-.06,0,.25.19.12.22s-.16-.13-.23-.2c0,.09.23.26.16.32s-.12-.28-.21-.22.05.09.09.12c-.25-.18-.45-.22-.32.06a1.86,1.86,0,0,0-.23-.26h0l.12.15-.12-.12v0a.44.44,0,0,0,.08.11l-.08-.08a.33.33,0,0,0,0,.14,1.6,1.6,0,0,0,.14.37C75.07,60.54,75.51,61,76,61.39Z" transform="translate(0 0)"/><path class="cls-1" d="M74.38,55.18s.07,0,.09,0-.06.1,0,.11l.06,0,0,.11a.52.52,0,0,0,.11.1l0,0s0,0,0,.07h0l0,0v0l.59.17h.18s0,.11,0,.15c.2-.12.36-.08.55-.21,0,0,0,.07.08,0a1.1,1.1,0,0,1,.53-.16s0,.09,0,.08.1-.1.17-.11a2.43,2.43,0,0,0-.37-.62c-.13,0-.44-.47-.47-.62h0a.24.24,0,0,0-.2-.16h-.2l-.08.09s0,0-.07,0-.19.08-.32.18-.15.08-.2.14l0,0s.06,0,0,.08,0,0,0,0,0,.07-.07.11.08-.1,0-.05,0,0,0,0-.16,0-.24.09,0-.07,0-.08h0v0l0,0s0,0,0,0v0l-.08.07a.83.83,0,0,0-.12.15A1.44,1.44,0,0,0,74.38,55.18Z" transform="translate(0 0)"/><path class="cls-1" d="M5.34,56s.1,0,0,.1a1.52,1.52,0,0,1-.43.24l-.33.18a3.62,3.62,0,0,0-.41.27l0,.06-1.46.85L.36,59.39c.09,0,.16,0,.1,0a4.91,4.91,0,0,1-.46.32c.16,0,.25.09.5.14l.24,0,.17,0,.54.11c.58.06,1.14.11,1.68.14A10.23,10.23,0,0,0,4.93,60a6.18,6.18,0,0,0,.93-.2c.16,0,.32-.07.46-.12l.31-.13A8.66,8.66,0,0,0,7.82,59c.32-.2.61-.45.9-.65a14.28,14.28,0,0,0,1.39-1c-.19-.1.56-1.07.21-1,.22-.24.5-.63.46-.69s-.08-.54,0-1.09c0-.22,0-.25,0-.25s-.05,0-.05,0,0,0,0,0,0,0,0,0l-.12,0v0a.67.67,0,0,1-.05.19,2,2,0,0,1-.32.57,7,7,0,0,1-1.07,1.24A7.54,7.54,0,0,1,6.22,58a2.89,2.89,0,0,0-.41.19l-.19,0s-.24,0-.13,0l.23-.16.5-.3.12-.08c.7-.43,1.54-1,2.1-1.4l.74-.65-.42.11a4.15,4.15,0,0,0,.67-.43c.56-.44.16-.34-.16-.34s0-.18-.33-.09l.49-.27c0-.07-.58.37-.5.2a6,6,0,0,0,.58-.35c-.11,0-.68.36-.7.27s.6-.21.58-.33a1.63,1.63,0,0,0-.29.14c.57-.37.85-.65.25-.44.19-.11.48-.22.67-.35h0l-.38.19.34-.19H9.9l-.27.13.23-.13-.24,0a6.43,6.43,0,0,0-.76.24C7.66,54.63,6.48,55.3,5.34,56Z" transform="translate(0 0)"/><path class="cls-1" d="M6.86,58.41s-.06-.06,0-.1.24,0,.32-.12l0-.06.3-.07.44-.33s0,0,0,0a.82.82,0,0,1,.25-.14l0,0a.43.43,0,0,1,0,0l.12-.05,1.17-1.23a2,2,0,0,1,.23-.32,4.91,4.91,0,0,1,.5-.28c-.14-.18.15-.5,0-.65.1-.06.25-.14.22-.2a.64.64,0,0,1,.07-.68c.09-.08.29-.11.3-.16s-.2,0-.18-.13c-.79.4-1.46.92-2.22,1.39A17.08,17.08,0,0,1,5.9,56.72l0,0a2.37,2.37,0,0,0-.69.54,3.54,3.54,0,0,0-.19.33l.18,0c-.1.06-.2.12-.22.17-.15.22,0,.24.19.33s.07.16.2.16l-.17.09c0,.06.18-.15.19,0s-.12.09-.19.13.24-.11.28,0-.24,0-.2.11.08,0,.11,0c-.18.15-.24.31,0,.29a1.75,1.75,0,0,0-.24.11h0l.14,0L5.14,59l0,0a.29.29,0,0,0,.1,0l-.07,0,.11,0c.13,0,.27,0,.32,0C6.06,58.85,6.47,58.64,6.86,58.41Z" transform="translate(0 0)"/><path class="cls-1" d="M10.7,56l0-.09,0,.06,0-.06,0,.08v0l0,0s0,0,0,0v-.06h0a.94.94,0,0,1,.05-.43,1.3,1.3,0,0,1,0-.15s0,0,.06,0c0-.23.1-.33.14-.56,0,0,0,0,.06,0a1.06,1.06,0,0,1,.23-.5s.06.08.09,0,0-.15,0-.2a1.15,1.15,0,0,0-.75-.09,5.1,5.1,0,0,1-.75.3h0a.21.21,0,0,0-.15.2,1.62,1.62,0,0,0,0,.2l.09.07s0,0,0,.06.11.19.22.3.1.14.15.19h0c0,.05,0,0,.06,0s0,0,0,0,0,0,.09.07-.08-.08,0,0a0,0,0,0,0,0,0,.46.46,0,0,0,.14.21l0,0h0l0,0h0l0,0,0,0h0l.07.07.11.13Z" transform="translate(0 0)"/><path class="cls-1" d="M107.63,87.81s-.1,0,0-.11a9.22,9.22,0,0,1,.91-.39v-.07a7.19,7.19,0,0,1,.83-.21,8.07,8.07,0,0,1,1.53-.35s0-.05,0-.06a3.41,3.41,0,0,1,.66,0L111,85l-.15.11-.12.11a.12.12,0,0,0,0,.08l-.35.26c-1.29,1.19-2.55,2.44-3.89,3.82-.26.32-.52.63-.79.92s-1,.87-1.4,1.25c.22.11-.69,1.14-.33,1.12-.15.13-.29.27-.3.37s0,.11.06.1a.78.78,0,0,0,.26-.17s0,0,0,0a.7.7,0,0,0,0,.2c0,.07,0,.09,0,.06h0a.54.54,0,0,0-.22.13s0,0,0-.1a.28.28,0,0,0,0-.21s0,0,0,0l.29.27h0v0h0l-.34-.31v0h0s0,.15,0,0c0,.16-.12.36,0,.25a.69.69,0,0,1,.19-.12c.08,0,.11,0,.06,0h0s0,0,0,0a.4.4,0,0,1,0-.21c0-.19,0-.09-.1,0s-.14.08-.13.07h0l.12,0,.14.06a2.5,2.5,0,0,1,.3.21l0,0,.16-.16.76-.73c1-1,2.05-1.93,3.14-2.87.37-.39,2-1.83,3.68-3.17l2-1.59-2.54,0A10.13,10.13,0,0,0,106.83,86l-.14.09a7.7,7.7,0,0,0-2.36,2.06,8.31,8.31,0,0,0-.59,1,3.61,3.61,0,0,1,.39-.33,3,3,0,0,0-.51.79c-.33.78,0,.41.29.23s.11.15.35-.1c-.13.21-.2.31-.32.53,0,.05.36-.67.36-.47a3.39,3.39,0,0,0-.36.65c.11,0,.45-.72.51-.63s-.46.51-.38.61.13-.19.19-.29c-.33.66-.38,1.06,0,.53a5.12,5.12,0,0,0-.36.7h0l.2-.39-.17.37.07-.05a1.43,1.43,0,0,0,.15-.27l-.11.24a1.29,1.29,0,0,0,.18-.16c.18-.27.44-.47.51-.61A8.7,8.7,0,0,1,107.63,87.81Z" transform="translate(0 0)"/><path class="cls-1" d="M105.83,90.86s-.07,0-.06-.08.2-.07.25-.17l0,0,.25-.11.3-.37s0,0,0,0,.12-.11.19-.17l0,0,0,0,.1-.07c.24-.42.46-.86.72-1.33a2.09,2.09,0,0,1,.12-.33,3,3,0,0,1,.38-.34c-.18-.14,0-.48-.22-.6.08-.06.19-.17.15-.22a.61.61,0,0,1-.12-.64c0-.09.23-.15.22-.2s-.19,0-.19-.09c-.6.5-1.07,1.09-1.63,1.64a12.91,12.91,0,0,1-1.71,1.84l0,0a2,2,0,0,0-.48.6c0,.11,0,.23-.08.34h.17c-.07.07-.15.14-.14.2-.09.22.08.21.25.27s.11.13.22.12l-.12.11s.12-.17.16-.06-.08.11-.13.15.19-.14.24-.07-.22.05-.15.14.06,0,.09,0c-.12.16-.13.32.09.27a1.27,1.27,0,0,0-.19.13h0s.09,0,.11-.07l-.09.08h0l.08,0-.06,0,.12,0a1.32,1.32,0,0,0,.29,0A11.75,11.75,0,0,0,105.83,90.86Z" transform="translate(0 0)"/><path class="cls-1" d="M100.56,89.92s.06,0,.09,0,0,.19.08.24l.06,0,0,.23c.09.1.17.2.27.3a.05.05,0,0,1,0,0,.94.94,0,0,1,.11.18l0,0,0,0,0,.09c.33.22.69.42,1.08.63a1.15,1.15,0,0,1,.28.08,1.42,1.42,0,0,1,.25.3c.16-.17.44-.05.56-.26,0,0,.13.14.18.09a.67.67,0,0,1,.56-.21c.07,0,.1.16.15.15s0-.17.09-.19c-.37-.41-.79-.72-1.16-1.14a4.25,4.25,0,0,1-1.13-1.37l0,0a1.08,1.08,0,0,0-.36-.43l-.26-.1-.06.13c0-.06-.06-.13-.11-.14s-.22,0-.33.17-.16.06-.19.16l-.05-.12c-.07,0,.1.13,0,.14s-.07-.08-.09-.13.06.17,0,.21,0-.19-.07-.15,0,.06,0,.08-.23-.16-.27,0c0,0,0-.14-.05-.18h0s0,.08,0,.1l0-.09,0,0a.15.15,0,0,0,0,.07l0,0-.07.09c0,.1-.08.21-.07.25A5.1,5.1,0,0,0,100.56,89.92Z" transform="translate(0 0)"/><path class="cls-1" d="M102.73,92.15l.06-.08s0,.09,0,.07l0,0,0,.09h.07l0,0s0,0,0,.1h0l.05,0s0,0,0,.08a2,2,0,0,0,.44.36,2.72,2.72,0,0,0,.25-.12,1,1,0,0,1,.21-.18c.07,0,.15,0,.21,0,.06-.24.2-.37.21-.61,0,0,.07,0,.07-.06l.07-.55s0,0,0,0,0-.14,0-.2,0,0-.06,0h0s0,.06-.08,0l-.1-.1-.13-.14-.21-.2h0a.5.5,0,0,0-.41-.14,1.51,1.51,0,0,0-.22.11.49.49,0,0,1,0,.12s-.08,0-.11,0-.11.19-.13.35a1.68,1.68,0,0,0-.07.24l0,0c0,.06.07,0,0,.09s-.05,0-.06,0,0,0,0,.13,0-.13,0,0,0,0,0,0-.11.11-.11.23,0-.05,0,0h0s0,0,0,0h0v0s0,0,0,0h0l0,.1,0,.17A.35.35,0,0,0,102.73,92.15Z" transform="translate(0 0)"/><path class="cls-1" d="M105.49,90.87s-.08,0-.08-.05.14,0,.13-.12l-.05,0,.16-.07c0-.08.08-.17.12-.25s0,0,0,0,.06-.07.1-.11v0l0,0,0,0a5.72,5.72,0,0,1,.32-.93.91.91,0,0,1,.07-.25,1,1,0,0,1,.28-.18c-.15-.18,0-.41-.17-.58.06,0,.16-.08.13-.14a.63.63,0,0,1,0-.61c.06-.06.22,0,.22-.1s-.16-.07-.14-.15A4.86,4.86,0,0,0,105,88.23a8.42,8.42,0,0,1-.57.77c-.26.34-.5.72-.61.87v0a1,1,0,0,0-.2.58,1.53,1.53,0,0,0,.07.29l.14,0c0,.06-.07.13,0,.17s.18.14.34.15.16.08.25,0l0,.1c.06,0,0-.14.11-.07s0,.09,0,.13.08-.14.16-.1-.15.08,0,.12,0,0,0,0c0,.14.06.24.21.17,0,0-.08.08-.08.12h0a.34.34,0,0,0,.06-.06l0,.07h0l0,0,0,0h.11c.08,0,.19,0,.21-.07Z" transform="translate(0 0)"/><path class="cls-1" d="M44.56,47.85s-.11,0-.05-.1c.23-.33.54-.48.77-.81l0-.06.72-.64c.41-.45.82-.88,1.24-1.31,0,0-.05,0,0-.06a4.37,4.37,0,0,1,.67-.58l.1-.09s0-.06,0-.07a3.19,3.19,0,0,1,.32-.2,2.3,2.3,0,0,1,.86-.41.79.79,0,0,1,.69.19,3.88,3.88,0,0,1,.8,2.28,4.76,4.76,0,0,1,.07,1.19A8.74,8.74,0,0,1,50.27,49c.26,0-.12,1.36.19,1.18a4,4,0,0,0-.35,1c.13.17.22.55-.15,1.54-.16.38-.52.9-.56,1s.37-.4.32-.17a22.14,22.14,0,0,0,1.89-4.23,9.71,9.71,0,0,0,.33-4.93,5.75,5.75,0,0,0-.25-.75,3.22,3.22,0,0,0-.88-1.26,2.5,2.5,0,0,0-2-.53,4.19,4.19,0,0,0-1.76.79,9.76,9.76,0,0,0-1.28,1.12c-.38.37-.74.73-1.06,1.07-.65.68-1.17,1.27-1.48,1.62l-.1.13a15.67,15.67,0,0,0-1.77,2.48c-.18.35-.34.72-.5,1.08l.37-.35a4.38,4.38,0,0,0-.49.81c-.35.76,0,.41.29.23s.11.16.36-.11l-.35.55s.39-.7.39-.49a5.64,5.64,0,0,0-.4.67c.12,0,.49-.74.55-.66s-.49.55-.42.65.15-.2.22-.3c-.38.69-.51,1.12,0,.56a7.61,7.61,0,0,0-.47.73h0l.27-.4-.23.38.08,0a2,2,0,0,0,.19-.28l-.15.26a1.57,1.57,0,0,0,.21-.17,8.77,8.77,0,0,0,.6-.66A42.63,42.63,0,0,1,44.56,47.85Z" transform="translate(0 0)"/><path class="cls-1" d="M49.64,56.7s-.08,0-.07-.08.21-.11.26-.23l0,0,.26-.17.31-.47s0,0,0,0,.12-.14.19-.23l0,0,0,0,.09-.1c.24-.5.47-1,.72-1.59a1.61,1.61,0,0,1,.12-.39,4,4,0,0,1,.38-.44c-.19-.12,0-.53-.25-.61.08-.09.19-.22.15-.27a.62.62,0,0,1-.16-.67c.06-.11.24-.21.23-.27s-.2,0-.21,0c-.62.67-1.1,1.4-1.67,2.12a17.87,17.87,0,0,1-1.75,2.37l0,0a2.93,2.93,0,0,0-.49.77c0,.12,0,.25-.07.38l.18,0c-.07.09-.15.17-.15.24-.07.25.1.21.29.24s.12.12.24.08L48,57.3c0,.05.13-.21.18-.1s-.09.13-.14.19.19-.19.25-.12-.23.09-.15.17.07,0,.09-.07c-.12.21-.12.38.11.28-.05.06-.16.11-.2.19h0a1.09,1.09,0,0,1,.11-.1l-.09.1h0l.08-.06-.06.07h.13c.12,0,.27-.06.31-.11C49,57.41,49.34,57.06,49.64,56.7Z" transform="translate(0 0)"/><path class="cls-1" d="M50.84,55.37s-.09,0-.06-.08.34-.27.45-.47l0-.06c.13-.12.28-.25.41-.39a10.3,10.3,0,0,0,.55-.9s0,0,0,0a5.33,5.33,0,0,1,.31-.47l0-.08a.09.09,0,0,0,0-.06l.14-.21a16.66,16.66,0,0,0,.88-3,5.21,5.21,0,0,1,.06-.7c.08-.32.21-.71.3-1-.24,0-.2-.78-.46-.67.06-.2.1-.5,0-.53s-.37-.26-.44-.8c0-.2.1-.51.07-.58s-.16.25-.21.13a17.88,17.88,0,0,1-1,4.36,9.2,9.2,0,0,1-.9,2.13,12.67,12.67,0,0,1-1.49,2.15l-.05.07a11.91,11.91,0,0,0-.95,1.17l-.3.54.26-.09a1.51,1.51,0,0,0-.34.35c-.26.35,0,.28.23.29s.09.16.28.08l-.27.23c0,.06.3-.31.3-.17s-.21.2-.32.29c.1,0,.4-.29.43-.21s-.38.17-.32.27.12-.07.17-.12c-.31.31-.43.55,0,.38a3.58,3.58,0,0,0-.39.29h0l.22-.16-.19.16h.06l.16-.1-.13.1h.17a3.18,3.18,0,0,0,.51-.2A12.57,12.57,0,0,0,50.84,55.37Z" transform="translate(0 0)"/><path class="cls-1" d="M51.41,45.17s.05-.06.09-.05,0,.18.09.24l.06,0a1.64,1.64,0,0,1,0,.23c.07.12.14.24.2.36a.07.07,0,0,1,.06,0,.67.67,0,0,1,0,.22l0,0h0a.33.33,0,0,1,0,.1,3.77,3.77,0,0,1,.34,1.5,1.31,1.31,0,0,1,0,.39,2.76,2.76,0,0,1-.19.55c.23,0,.18.5.43.5-.05.11-.12.28-.06.31a.64.64,0,0,1,.33.62c0,.13-.17.27-.16.33s.19-.1.23,0a9.66,9.66,0,0,0,.89-2.87,9.62,9.62,0,0,0-.12-1.73A5,5,0,0,0,53,44l0-.05a2.1,2.1,0,0,0-1-.74,2.19,2.19,0,0,0-.51,0,1,1,0,0,1,.13.17.69.69,0,0,0-.34-.1c-.33,0-.18.17-.13.35s-.07.15,0,.26a.87.87,0,0,0-.17-.07c0,.06.23,0,.14.13s-.14,0-.21-.06.23.1.18.19-.15-.17-.19-.07.06,0,.09,0c-.21,0-.32.07-.18.21a1.06,1.06,0,0,0-.19-.06h0a.49.49,0,0,0,.11,0l-.1,0v0l.07,0-.06,0,0,.11c.07.08.09.2.13.21A2.11,2.11,0,0,1,51.41,45.17Z" transform="translate(0 0)"/><path class="cls-1" d="M51,43.73s0-.07.06-.08,0,.12.05.12l0,0s0,.07,0,.13a2.26,2.26,0,0,1,.16.21l.05,0a.58.58,0,0,1,0,.17l0,0h0a.27.27,0,0,1,0,.09,6.31,6.31,0,0,1,.58,1.29,1.59,1.59,0,0,1,.17.31,2.19,2.19,0,0,1,0,.51c.23,0,.37.32.59.23,0,.11,0,.26.08.26a.62.62,0,0,1,.56.34c0,.1,0,.27,0,.3s.12-.14.19-.09a22.84,22.84,0,0,0-.18-2.33c-.06-.13-.11-.68-.3-1.35a3.29,3.29,0,0,0-.45-1,2.94,2.94,0,0,0-.59-.64l-.06,0a1.64,1.64,0,0,0-1.17-.32,1.68,1.68,0,0,0-.48.2l.21.09c-.15,0-.31,0-.35.1-.26.2,0,.24.1.36s0,.17.13.21l-.14,0c0,.06.16-.09.15,0s-.1,0-.15.06.18,0,.2.06-.17-.07-.14,0,.05,0,.08,0c-.13.08-.1.2,0,.26,0,0-.09,0-.11,0h.07l0,0,0,0a0,0,0,0,0,0,0l0,0,.08.07a.54.54,0,0,1,.12.14S50.9,43.64,51,43.73Z" transform="translate(0 0)"/><path class="cls-1" d="M46.59,42.58s0,.07,0,.1-.35,0-.52.1v.07a2.53,2.53,0,0,0-.46.06,5.34,5.34,0,0,0-.75.39s0,0,0,.05-.25.12-.4.2l-.06,0a.11.11,0,0,0,0,.06l-.18.09a9.16,9.16,0,0,0-1.68,1.87,3.33,3.33,0,0,1-.25.5c-.15.2-.37.44-.53.64.21.1,0,.66.25.68-.1.12-.21.33-.16.37a.74.74,0,0,1,.24.72c0,.15-.2.33-.19.39s.21-.12.23,0A8.12,8.12,0,0,1,44,46.28a5,5,0,0,1,1.3-1.08A6.23,6.23,0,0,1,47,44.47l.06,0a7.24,7.24,0,0,0,1.05-.3l.41-.22-.19-.1a1,1,0,0,0,.36-.06c.31-.09.14-.21,0-.37s0-.18-.12-.24h.27c0-.07-.34,0-.26-.07s.22,0,.33,0-.38,0-.37-.11.31.11.33,0-.1,0-.16,0c.34,0,.54-.13.22-.25.11,0,.27.05.39,0h0l-.22,0h.2l0,0-.15,0h.13l-.11-.1a1.7,1.7,0,0,0-.41-.17A7.15,7.15,0,0,0,46.59,42.58Z" transform="translate(0 0)"/><path class="cls-1" d="M41.85,46.9s.09,0,.07.08-.28.24-.36.43l0,0-.34.36c-.15.26-.3.52-.43.79,0,0,0,0,0,0a4.13,4.13,0,0,1-.25.41l0,.07a.06.06,0,0,0,0,.05l-.11.19A23.5,23.5,0,0,0,39.73,52a3,3,0,0,1-.08.61c-.08.27-.24.6-.34.85.23,0,.12.71.38.66-.06.16-.14.42-.09.45s.35.3.34.78c0,.19-.18.44-.16.51s.2-.2.23-.08A34.77,34.77,0,0,1,41.34,52a9.9,9.9,0,0,1,.83-1.9,15.76,15.76,0,0,1,1.22-2l0-.07a7.18,7.18,0,0,0,.72-1.14l.18-.52-.23.1a1,1,0,0,0,.24-.35c.17-.36-.05-.27-.27-.25s-.11-.14-.27-.06l.2-.23c0-.05-.22.31-.24.18a2.21,2.21,0,0,0,.22-.29c-.09,0-.29.3-.35.24s.31-.19.25-.28-.1.07-.14.12c.22-.31.27-.54,0-.35.08-.09.22-.19.3-.3h0l-.17.16.15-.16h-.06a.45.45,0,0,0-.13.11l.1-.11-.16,0a1.5,1.5,0,0,0-.41.22A15.6,15.6,0,0,0,41.85,46.9Z" transform="translate(0 0)"/><path class="cls-1" d="M40.8,47.45s.09,0,.07.08-.31.34-.4.57l.05,0q-.18.23-.36.48c-.15.33-.3.67-.43,1,0,0,.05,0,0,0a3.8,3.8,0,0,1-.24.52l0,.09a.15.15,0,0,0,0,.06l-.12.23c-.28,1-.51,2.05-.78,3.15a5,5,0,0,1-.13.71,8.37,8.37,0,0,1-.45,1c.24,0,0,.83.28.78-.09.2-.25.5-.2.54s.29.4.09,1c-.09.23-.34.51-.35.61s.27-.21.26-.06a26.31,26.31,0,0,0,2.15-4.78,22.47,22.47,0,0,1,.86-2.45,17.52,17.52,0,0,1,1.25-2.54l0-.07c.28-.44.62-1,.82-1.36l.26-.58-.26.12a1.66,1.66,0,0,0,.31-.4c.25-.38,0-.29-.26-.27s-.09-.16-.28,0a3.19,3.19,0,0,1,.26-.26c0-.06-.3.35-.3.2s.21-.23.31-.33c-.1,0-.39.34-.43.28s.38-.23.32-.33-.12.09-.18.14c.31-.35.44-.61,0-.39a4.36,4.36,0,0,0,.4-.35h0l-.23.19.2-.19h-.06a1.09,1.09,0,0,0-.17.13l.13-.13-.18,0a3.54,3.54,0,0,0-.52.26A11.21,11.21,0,0,0,40.8,47.45Z" transform="translate(0 0)"/><path class="cls-1" d="M43.27,48.54s.09,0,.07.07-.26.26-.33.45l.05,0-.31.37c-.13.27-.26.54-.37.82,0,0,0,0,0,0a4.39,4.39,0,0,1-.22.41l0,.08a.09.09,0,0,0,0,.05l-.11.19a27.11,27.11,0,0,0-.63,2.65,5.82,5.82,0,0,1,0,.6c-.07.28-.22.61-.31.87.23,0,.16.7.42.64-.06.17-.14.43-.08.46s.36.28.36.76c0,.19-.16.45-.13.52s.19-.2.22-.09c.37-1.3.68-2.58,1.17-3.86a11.63,11.63,0,0,1,.73-1.95,16.81,16.81,0,0,1,1.09-2.07l0-.07a6.37,6.37,0,0,0,.64-1.2l.13-.53-.21.12a1.34,1.34,0,0,0,.21-.37c.14-.37-.08-.26-.3-.23s-.12-.13-.27,0L45.3,47s-.19.33-.23.2a2.4,2.4,0,0,0,.21-.31c-.1,0-.28.33-.34.26s.3-.21.22-.29S45.07,47,45,47c.19-.33.23-.56-.07-.35a2.85,2.85,0,0,0,.27-.32h0l-.16.17.13-.17h-.06l-.12.12.09-.11-.15,0a2.63,2.63,0,0,0-.4.25A16.12,16.12,0,0,0,43.27,48.54Z" transform="translate(0 0)"/><path class="cls-1" d="M44.76,47.39s.09,0,.09,0-.2.27-.22.45l.06,0-.23.37c-.08.25-.15.51-.22.77,0,0,0,0,0,0a2.18,2.18,0,0,1-.15.39v.07l0,0-.08.18-.39,2.41a3.26,3.26,0,0,1,0,.55c-.07.25-.21.55-.3.78.23,0,.13.64.4.6-.06.16-.15.39-.09.42a.7.7,0,0,1,.31.74c0,.17-.2.39-.18.46s.2-.17.23-.06c.49-1.18.82-2.37,1.25-3.58a36,36,0,0,1,1.27-3.94l0-.07a5,5,0,0,0,.33-1.23v-.52l-.17.15a.88.88,0,0,0,.1-.38c0-.37-.15-.22-.34-.15s-.15-.1-.27,0l.1-.26c-.06,0-.08.34-.16.23a1.6,1.6,0,0,0,.11-.33c-.1,0-.16.36-.24.31s.22-.25.12-.31-.06.09-.08.14c.08-.33,0-.55-.16-.3a3.49,3.49,0,0,0,.15-.34h0L46,45.3l.07-.19-.06,0a.54.54,0,0,0-.07.13l.05-.12-.14.07c-.11.12-.26.22-.29.3C45.25,46.13,45,46.75,44.76,47.39Z" transform="translate(0 0)"/><path class="cls-1" d="M46.39,47.31s.09,0,.09,0-.17.3-.18.49l.06,0-.2.42c-.06.27-.11.55-.15.83,0,0,0,0,.05,0s-.08.27-.12.43v.07s0,0,0,0l-.06.2-.19,2.58a3.9,3.9,0,0,1,0,.59,7.57,7.57,0,0,1-.23.85c.23,0,.19.68.44.61,0,.17-.12.42-.06.45s.37.28.37.76c0,.19-.16.44-.14.51s.19-.19.23-.08c.39-1.31.63-2.62.95-4a43.78,43.78,0,0,1,1-4.34v-.08a6,6,0,0,0,.24-1.34c0-.17,0-.38-.06-.61a2.5,2.5,0,0,1-.16.24,1.06,1.06,0,0,0,0-.51c-.12-.52-.22-.18-.37,0s-.17,0-.25.11a2.35,2.35,0,0,0,0-.27c-.06,0,0,.34-.08.26a.54.54,0,0,0,0-.31c-.07,0,0,.34-.11.32s.12-.27,0-.27,0,.08,0,.12c-.05-.27-.21-.26-.27-.1,0,0,0-.13,0-.16h0a.36.36,0,0,1,0,.09l-.05-.07,0,0a.13.13,0,0,1,0,.06.08.08,0,0,0,0,0l-.07.07c0,.09-.15.08-.15.12s-.12.43-.23.79Z" transform="translate(0 0)"/><path class="cls-1" d="M48.09,46.7s.08,0,.09,0S48,47,48,47.19l.06,0-.17.38-.12.76s.05,0,.05,0a2,2,0,0,1-.1.39v.07a.05.05,0,0,0,0,0,.78.78,0,0,1,0,.18c-.05.76-.09,1.54-.17,2.38a3.25,3.25,0,0,1,0,.54,7.13,7.13,0,0,1-.26.78c.23,0,.16.63.42.59,0,.16-.13.39-.08.42a.69.69,0,0,1,.33.74c0,.18-.19.4-.18.47s.21-.16.24,0a32.53,32.53,0,0,0,1.1-3.68c0-.45.67-3.35.84-4.1v-.07a4.77,4.77,0,0,0,.13-1.27l-.1-.52-.15.19a1,1,0,0,0,0-.4c0-.36-.19-.18-.36-.07s-.17-.06-.26.08l0-.27c-.06,0,0,.34-.11.25a1.86,1.86,0,0,0,0-.33c-.1,0-.09.36-.18.33s.17-.28.06-.32,0,.1,0,.16c0-.34-.06-.54-.22-.25A2.37,2.37,0,0,0,49,44.3h0l-.06.2,0-.19,0,0a1,1,0,0,0,0,.14l0-.12-.12.09a2.25,2.25,0,0,0-.23.34Q48.29,45.74,48.09,46.7Z" transform="translate(0 0)"/><path class="cls-1" d="M48.13,51.51s.11,0,.07.08c-.12.39-.37.63-.5,1l0,.06c-.15.27-.33.54-.5.83-.26.55-.52,1.1-.79,1.63,0,0,0,0,0,.06A9.25,9.25,0,0,1,46,56l-.07.14c0,.05,0,.07,0,.08a4,4,0,0,1-.24.37c-.22.43-.45.85-.71,1.31l1.22.94a27,27,0,0,0,2.27-3.57L49,54.11c.28-.54.68-1.21.94-1.75-.24,0,.24-1.37-.1-1.2a3.26,3.26,0,0,0,.33-.95c-.16-.15-.25-.51,0-1.5.1-.38.33-1,.33-1.09s-.27.45-.27.23a26.87,26.87,0,0,1-3.69,7.76,16.71,16.71,0,0,1-1.57,2.12l1.47,1.13a46,46,0,0,0,3.44-6.41l.06-.15a17.58,17.58,0,0,0,1-2.92c.07-.39.12-.78.17-1.18l-.25.45a5.43,5.43,0,0,0,.23-.92c.12-.85-.11-.41-.35-.14s-.14-.13-.31.2l.18-.62c0-.05-.17.78-.23.58s.12-.52.19-.77c-.11.06-.26.86-.34.8s.31-.67.22-.75-.09.23-.13.36c.18-.78.17-1.23-.11-.56.06-.24.19-.57.24-.83h0l-.15.46.12-.44-.07.07a2.58,2.58,0,0,0-.1.33l.07-.29-.16.22c-.15.33-.33.63-.39.81C49.26,48.64,48.72,50.09,48.13,51.51Z" transform="translate(0 0)"/><path class="cls-1" d="M50.36,53.7s-.09,0-.08-.06.24-.23.29-.4l-.06,0,.28-.33a7.76,7.76,0,0,0,.3-.72,0,0,0,0,1,0,0,2.57,2.57,0,0,1,.19-.36l0-.07s0,0,0,0l.09-.17c.19-.75.34-1.51.47-2.34a2.33,2.33,0,0,1,0-.53,6.81,6.81,0,0,1,.26-.76c-.23,0-.18-.62-.44-.57.05-.15.12-.38.06-.4a.7.7,0,0,1-.39-.68c0-.17.15-.39.12-.45s-.18.17-.22.07c-.33,1.13-.57,2.24-1,3.36a11.14,11.14,0,0,1-.59,1.71,15.41,15.41,0,0,1-.91,1.81l0,.06a4.88,4.88,0,0,0-.51,1.06l-.09.48.2-.1c-.09.13-.18.26-.17.33-.1.33.1.24.3.22s.13.12.27,0l-.16.22s.16-.29.2-.17a1.87,1.87,0,0,0-.16.28c.09,0,.23-.29.29-.23s-.26.18-.18.26.07-.07.11-.12c-.16.3-.17.51.09.32a2.26,2.26,0,0,0-.23.29h0l.14-.16-.11.16h0l.11-.11-.08.1a.4.4,0,0,0,.15,0,1.8,1.8,0,0,0,.35-.22A15.48,15.48,0,0,0,50.36,53.7Z" transform="translate(0 0)"/><path class="cls-1" d="M49.37,43.46s.1,0,0,.12-.28.25-.41.4a1.23,1.23,0,0,0-.25.3l0,0-.41.42c-.2.3-.38.62-.55.94,0,0,0,0,0,0a3.61,3.61,0,0,1-.3.49l0,.09a.06.06,0,0,0,0,0l-.14.23a20.79,20.79,0,0,0-.94,3.13c0,.25,0,.5-.09.72s-.24.74-.33,1.06c.24,0,.15.81.42.71-.05.21-.13.52-.07.55s.38.3.4.86c0,.22-.13.54-.11.62s.18-.26.23-.13a22.21,22.21,0,0,1,1.19-4.58,10.86,10.86,0,0,1,1-2.26c.27-.49.56-1,.84-1.39a5.24,5.24,0,0,1,.54-.72v0c0-.07.12,0,.23,0a1.6,1.6,0,0,1,.38.23v-.23a1.39,1.39,0,0,0,.2.33c.18.31.26.12.36-.1s.18,0,.17-.23a2.26,2.26,0,0,1,.11.37c.08,0-.17-.44,0-.38s.12.3.14.47c.1-.08-.11-.56,0-.56s0,.48.14.49,0-.17,0-.25c.16.49.24.84.32.29a3,3,0,0,1,0,.66h0a2.46,2.46,0,0,0,0-.37,2.06,2.06,0,0,1,0,.35l0-.06a1.17,1.17,0,0,0,0-.27c0,.08,0,.16,0,.24a1.22,1.22,0,0,0,.18-1,2.94,2.94,0,0,0-.39-.89,2.55,2.55,0,0,0-.3-.39,2.79,2.79,0,0,0-.5-.42C50.77,43,49.83,42.61,49.37,43.46Z" transform="translate(0 0)"/><path class="cls-1" d="M46.65,45.37s.1,0,.05.1-.38.28-.53.5l0,.06-.47.42c-.23.31-.45.62-.66.94,0,0,0,0,0,0s-.23.3-.37.49l-.05.09a.08.08,0,0,0,0,.06l-.17.22a12.66,12.66,0,0,0-1.23,3.36l-.06.8c-.06.36-.18.83-.21,1.2.22,0,.32.83.56.65,0,.22,0,.56.09.57.21,0,.44.18.68.66a4.17,4.17,0,0,0,.17.57c.1.08,0-.3.14-.22A6.42,6.42,0,0,1,45,51.41a8.8,8.8,0,0,1,1.17-2.29A18.91,18.91,0,0,1,48,46.78l.06-.07c.38-.39.85-.85,1.15-1.19l.41-.51-.29.05a2,2,0,0,0,.42-.31c.26-.25.08-.29-.17-.33s0-.17-.27-.12a1.75,1.75,0,0,1,.36-.19c0-.08-.43.28-.38.13s.27-.21.46-.25c0,0-.21,0-.34.08s-.22.12-.23.08.46-.15.48-.25-.2.05-.27.1a1.35,1.35,0,0,1,.59-.23c.06,0,.07-.14-.29-.16.23-.08.62.16.29.17h0c.2,0,.12-.11,0-.14.08,0,.15.1,0,.11,0,0,0,0,.06-.07s0-.08,0-.11.1.06.06.08a.14.14,0,0,0,0-.17,1,1,0,0,0-.9,0A9.36,9.36,0,0,0,46.65,45.37Z" transform="translate(0 0)"/><path class="cls-1" d="M46.41,45.18s.1,0,.07.09-.33.35-.41.6l0,0-.33.49c-.13.34-.24.66-.34,1,0,0,0,0,0,0a5.24,5.24,0,0,1-.2.51l0,.09,0,0-.09.24a21.58,21.58,0,0,0-.36,3.1c0,.24,0,.47,0,.69s-.13.73-.18,1c.23,0,.27.75.52.62,0,.2-.06.51,0,.53s.4.24.49.78c0,.21-.07.53,0,.6s.14-.27.2-.15A30.24,30.24,0,0,1,46.45,51,12.49,12.49,0,0,1,47,48.68a10,10,0,0,1,1-2.35l0-.06a4.18,4.18,0,0,1,.74-.83,2,2,0,0,1,.34-.3l-.21-.07a1.65,1.65,0,0,0,.36-.09c.33-.09.18-.21,0-.37s0-.18-.17-.24a2.26,2.26,0,0,1,.37,0c0-.08-.45,0-.36-.07a3.69,3.69,0,0,1,.47,0c0-.12-.54-.05-.52-.13s.45.11.49,0-.16,0-.24,0c.5,0,.86,0,.37-.23a3.69,3.69,0,0,1,.6.23h0A1.91,1.91,0,0,0,50,44l.31.13,0-.06a1.34,1.34,0,0,0-.24-.12l.22.08a.8.8,0,0,0-.16-.16,1.84,1.84,0,0,0-.69-.3A3.37,3.37,0,0,0,46.41,45.18Z" transform="translate(0 0)"/><path class="cls-1" d="M48.21,47.4s.08,0,.08.06-.21.25-.24.43l.05,0-.24.36c-.09.25-.17.51-.24.76,0,0,.05,0,.05,0a2.69,2.69,0,0,1-.16.39v.07s0,0,0,0l-.08.17c-.13.77-.22,1.56-.31,2.41a3.36,3.36,0,0,1,0,.55,7.15,7.15,0,0,1-.23.79c.23,0,.2.62.46.56-.05.16-.11.39-.05.42a.68.68,0,0,1,.4.69c0,.17-.13.4-.11.47s.18-.19.22-.08c.32-1.19.52-2.36.88-3.54A19.21,19.21,0,0,1,50,48.22l0-.06A5,5,0,0,0,50.39,47l0-.5-.19.13a.93.93,0,0,0,.13-.36c.06-.35-.12-.23-.32-.17s-.15-.11-.28,0l.13-.24s-.12.31-.18.2a1.69,1.69,0,0,0,.13-.31c-.09,0-.19.33-.26.28s.24-.23.15-.29-.07.08-.09.13c.11-.32.1-.53-.14-.31a1.69,1.69,0,0,0,.19-.32h0l-.11.18.09-.17h-.06a.62.62,0,0,0-.09.12l.06-.12-.14.06a1.35,1.35,0,0,0-.32.27A15.31,15.31,0,0,0,48.21,47.4Z" transform="translate(0 0)"/><path class="cls-1" d="M50.09,46.56s.08,0,.1,0-.1.16-.06.26h.06l-.09.23a3,3,0,0,0,0,.42h0a.58.58,0,0,1,0,.22v0l0,0a.36.36,0,0,1,0,.1c.11.41.24.84.35,1.32a1.25,1.25,0,0,1,.12.3,2.34,2.34,0,0,1-.07.45c.23,0,.3.35.54.31,0,.09,0,.23,0,.24a.63.63,0,0,1,.49.41c0,.1-.09.24-.06.28s.16-.1.21,0A12.11,12.11,0,0,0,52,49a20.76,20.76,0,0,1,0-2.38v0a1.6,1.6,0,0,0-.1-.73l-.19-.27-.11.12c0-.09,0-.18,0-.22s-.22-.07-.37,0-.18,0-.25.08V45.4c-.07,0,0,.19-.07.15s0-.12,0-.18,0,.21-.11.2.11-.17,0-.18,0,.06,0,.09c0-.18-.15-.28-.26-.11,0,0,0-.14,0-.2h0s0,.09,0,.11v-.1l-.05,0a.24.24,0,0,0,0,.08v-.07l-.1.06c-.06.09-.16.17-.16.22A9.77,9.77,0,0,0,50.09,46.56Z" transform="translate(0 0)"/><path class="cls-1" d="M50.64,47.78s.08,0,.1,0-.09.36-.06.56l.07,0c0,.15-.08.31-.12.47s0,.6-.07.9c0,0,0,0,0,0a4.33,4.33,0,0,1-.11.47v.08s0,0,0,0l-.07.21c0,.3-.1.61-.18,1L49.2,56.29l2.35-4a6.68,6.68,0,0,0,.77-2c0-.25,0-.49.06-.72s.18-.73.24-1c-.23,0-.25-.77-.5-.64,0-.21.07-.52,0-.54s-.4-.24-.48-.79c0-.21.08-.54,0-.62s-.15.27-.21.15a13.4,13.4,0,0,1-.79,4.32,2.83,2.83,0,0,1-.46.9l1.61.93a12.5,12.5,0,0,0,.61-2.41,13.4,13.4,0,0,0,.13-1.92v-.09A5.23,5.23,0,0,0,52.28,46a6,6,0,0,0-.33-.6,2.43,2.43,0,0,1,0,.3,1.69,1.69,0,0,0-.16-.51c-.23-.42-.27-.12-.37.09s-.17,0-.19.21l-.09-.34c-.07,0,.16.4,0,.34a3.84,3.84,0,0,0-.14-.4c-.07.08.11.47,0,.47s0-.4-.11-.39,0,.13,0,.2c-.15-.4-.33-.56-.32-.18,0-.12-.06-.31-.11-.43h0l.06.24-.07-.21,0,.05,0,.17,0-.14-.06.15a2.91,2.91,0,0,0,0,.48A12.47,12.47,0,0,1,50.64,47.78Z" transform="translate(0 0)"/><path class="cls-1" d="M53.93,47.22s-.08,0-.1,0,.13-.22.1-.35l-.06,0,.12-.31a4.4,4.4,0,0,0,0-.62s0,0-.05,0a1.67,1.67,0,0,1,0-.33l0,0h0v-.16a4.15,4.15,0,0,0-1-1.62l-.35-.24c-.13-.13-.27-.33-.4-.46-.14.18-.53,0-.59.27-.08-.06-.21-.14-.25-.08a.87.87,0,0,1-.48.38c-.07,0-.16-.09-.19-.06s.06.16,0,.21a2,2,0,0,1,1.15,1,1.64,1.64,0,0,1,.36.91,3.76,3.76,0,0,1,0,1.25v0a2.71,2.71,0,0,0,0,.8l.11.35.14-.11c0,.1-.06.21,0,.26.05.25.19.15.36.09s.17.06.26,0l-.05.18c.06,0,0-.23.11-.16s0,.15,0,.23.09-.25.17-.22-.16.18-.06.22,0-.07.05-.1c0,.23.06.38.22.2,0,.07-.09.16-.09.24h0s.05-.1.06-.13l0,.12h0a.41.41,0,0,0,.05-.09l0,.08.11,0c.09-.09.22-.16.23-.22A7.25,7.25,0,0,0,53.93,47.22Z" transform="translate(0 0)"/><path class="cls-1" d="M43.05,47.79s-.14.06,0-.12c.31-.57.69-.92,1-1.45l0-.08c.29-.38.61-.76.94-1.12a9,9,0,0,1,1.86-1.8s-.06,0,0-.07A3.87,3.87,0,0,1,48,42.6l.21-.08a.12.12,0,0,0,.06-.07,4.85,4.85,0,0,1,.59-.1,3.34,3.34,0,0,1,3.23.9,5.84,5.84,0,0,1,1.22,3.81,10.92,10.92,0,0,1-.05,1.9,13.37,13.37,0,0,1-.81,2.88c.13,0,0,.49-.08,1s-.26.92,0,.77c-.26.56-.76,1.34-.73,1.42s.06.78-.93,2.18a19.22,19.22,0,0,1-1.34,1.39c-.22.3.72-.51.5-.2a16.61,16.61,0,0,0,4.84-9.81,11,11,0,0,0-.1-3.86A6.09,6.09,0,0,0,53,41.89a4.65,4.65,0,0,0-2.3-1.25,6,6,0,0,0-2.8.07,7.2,7.2,0,0,0-2.51,1.2,10.77,10.77,0,0,0-1.81,1.74,28.61,28.61,0,0,0-2,2.83l-.14.21c-.82,1.29-1.79,2.87-2.4,4l-.79,1.62.5-.59A13.25,13.25,0,0,0,38,53c-.61,1.16-.12.59.28.25s.08.2.44-.24l-.55.86c0,.07.64-1.08.58-.78-.23.32-.43.71-.65,1,.15-.07.78-1.17.82-1.08s-.71.91-.66,1a2.9,2.9,0,0,0,.34-.49c-.64,1.08-.91,1.72-.21.82-.21.33-.55.78-.76,1.14h0l.42-.63-.38.6.11-.08.3-.44-.25.4.3-.29c.36-.44.73-.85.9-1.1Q41.07,50.91,43.05,47.79Z" transform="translate(0 0)"/><path class="cls-1" d="M45.31,53.75s-.47-.33.37.08l1.9,1c.61.29,1.24.52,1.85.78l.93.37c.31.12.64.2,1,.3.66.19,1.33.4,2,.57l.22,0a34.45,34.45,0,0,0,7,.91,33.85,33.85,0,0,0,13-2.27c-.12,0-.18,0,.22-.16a28.22,28.22,0,0,0,2.91-1.38L78.37,53,80,51.83a7.19,7.19,0,0,0,.92-.73,1.54,1.54,0,0,0,.28-.33l1.27-1.15c.38-.38.7-.79,1-1.16A22.74,22.74,0,0,0,88,39.81,31.12,31.12,0,0,0,89,30,32.74,32.74,0,0,0,82.12,11.2a29.8,29.8,0,0,0-6.37-6A30.41,30.41,0,0,0,63.16.07c.3.16-2-.13-4.2-.06a27.41,27.41,0,0,0-2.73.31c-.63.13-.87.22-.37.21a22,22,0,0,0-4.28,1c-.64.24-1.22.42-1.63.61a6.73,6.73,0,0,0-.7.37c-.23.24-.83.54-2,1.4a26,26,0,0,0-5.37,4.77,29.09,29.09,0,0,0-2.74,3.7,14.82,14.82,0,0,0-1,1.77l-.57,1.12c-.64,1.38,1.76-3.09,1.11-1.71a28,28,0,0,1,4.52-6,23.29,23.29,0,0,1,6.07-4.22A23.44,23.44,0,0,1,63.69,1.54a30.48,30.48,0,0,1,7.08,2.28A28,28,0,0,1,82,13.54a29.85,29.85,0,0,1,3.47,6.77,31.33,31.33,0,0,1,2,11.32,28.3,28.3,0,0,1-1.54,9,21.36,21.36,0,0,1-2.18,4.52,14.73,14.73,0,0,1-1.54,2.06l-.84,1c-.3.31-.64.59-1,.89a24.78,24.78,0,0,1-9.07,5.13,33.23,33.23,0,0,1-18.16.56,25.71,25.71,0,0,1-3.2-1l-1.32-.52c-.41-.18-.76-.38-1.1-.55l-1-.49A23,23,0,0,1,35,36.64a28.48,28.48,0,0,1-.64-7.73l-.1.89,0,.85-.06,1.57a36.9,36.9,0,0,1,.43-6.34c.08-.71.21-1.27.3-1.71l.2-1c.09-.46.07-.53,0-.36a27.45,27.45,0,0,0-.82,2.73c-.32,1.57-.09-.59-.55,1.88l.36-2.24c.12-.67.31-1.33.52-2.21A19.38,19.38,0,0,0,34,25.46c-.21,1.25-.38,2.38-.34,1.75.17-.86.27-1.79.48-2.7a26.2,26.2,0,0,1,.69-2.71A22,22,0,0,0,34,25c-.25,1.44-.46,2.78-.46,2.64,0-.49.28-1.76.5-2.94s.55-2.26.57-2.43-.44,1.7-.66,2.58c.32-1.37.57-2.59.9-3.54l.37-1.25.3-.82c.13-.4.14-.49,0-.18a15,15,0,0,0-.89,2.25A37.31,37.31,0,0,1,37,15.61h0c-.41.86-1.18,2.3-1.47,3.13.37-1,.89-2,1.36-2.94l-.29.49a20.8,20.8,0,0,0-1,2.23c.25-.68.58-1.32.89-2a16.89,16.89,0,0,0-.86,1.62,30.71,30.71,0,0,0-2.11,6.06A29.42,29.42,0,0,0,34.39,41a24.62,24.62,0,0,0,4.33,7.36A27.16,27.16,0,0,0,45.31,53.75Z" transform="translate(0 0)"/><path class="cls-1" d="M79.9,21.7s.11-.07.08.08c-.13.47-.36.8-.46,1.28l0,.05c-.11.35-.25.72-.35,1.11A14.62,14.62,0,0,0,79,26.39s0,0,0,.05l-.07,1.15v.19a.08.08,0,0,0,0,.07l0,.53a18.24,18.24,0,0,0,1.74,6.27l.72,1.24c.32.6.72,1.37,1.08,1.94.13-.2,1.14,1,1.15.63a3.47,3.47,0,0,0,.73.83c.22-.06.59.06,1.45.75.32.29.78.77.91.85s-.33-.48-.11-.37a17.49,17.49,0,0,1-5.06-7.8,14.48,14.48,0,0,1-.82-4.78,16,16,0,0,1,.9-5.39l0-.16c.35-1,.87-2.13,1.23-2.93.16-.37.31-.77.5-1.14l-.39.38a7.18,7.18,0,0,0,.54-.86c.46-.78.06-.45-.28-.25s-.09-.18-.38.11c.17-.24.27-.35.44-.58,0-.07-.51.74-.47.52s.34-.49.52-.73c-.13,0-.64.8-.67.72s.58-.6.53-.71-.19.21-.28.33c.51-.76.78-1.2.14-.63.19-.23.49-.51.68-.76h0l-.38.42.34-.41-.09,0c-.09.1-.19.19-.28.3l.23-.27-.27.16a6.81,6.81,0,0,0-.79.73A17.38,17.38,0,0,0,79.9,21.7Z" transform="translate(0 0)"/><path class="cls-1" d="M86.93,29.7s-.06.06-.09,0,0-.22-.1-.29l-.06,0a2.45,2.45,0,0,1,0-.27c-.06-.13-.13-.26-.18-.39s0,0,0,0a.44.44,0,0,1,0-.21v0h0a.14.14,0,0,1,0-.09,2.41,2.41,0,0,1,0-1.51,1.47,1.47,0,0,1,0-.42,4.45,4.45,0,0,1,.33-.55c-.21-.08-.11-.55-.37-.56.06-.11.13-.27.07-.3A.85.85,0,0,1,86,24.6c0-.1.09-.22.06-.25s-.15.1-.21,0a14.08,14.08,0,0,1-1,2.35,5.32,5.32,0,0,0-.26,1.93,5.41,5.41,0,0,0,.66,2l0,.05a2.62,2.62,0,0,0,.69.83l.39.19a1.41,1.41,0,0,1,0-.2c.08.1.16.21.22.22.26.14.24-.05.29-.23s.15-.09.13-.23l.13.17s-.2-.18-.08-.2.13.12.18.18-.16-.24-.09-.29.06.26.16.2,0-.08-.06-.11c.19.17.36.21.3,0a1.94,1.94,0,0,0,.15.24h0s-.06-.11-.09-.14l.1.11v-.05l0-.1.06.08a.59.59,0,0,0,0-.13c0-.13,0-.28,0-.33C87.4,30.45,87.14,30.07,86.93,29.7Z" transform="translate(0 0)"/><path class="cls-1" d="M88,29.54s-.07,0-.1,0,.09-.15,0-.23h-.06l.08-.19c0-.12,0-.24-.06-.36h-.05a.6.6,0,0,1,0-.19v0l0,0a.19.19,0,0,1,0-.08c-.13-.35-.27-.72-.38-1.13a1.07,1.07,0,0,1-.12-.27,1.36,1.36,0,0,1,.08-.39c-.23,0-.3-.32-.54-.3,0-.08.05-.2,0-.22a.62.62,0,0,1-.47-.41c0-.1.1-.21.07-.25s-.16.08-.21,0a7.84,7.84,0,0,0-.28,2c0,.24.1,1.79.12,2.19v0a1.19,1.19,0,0,0,.17.65,2.28,2.28,0,0,0,.22.22,1.25,1.25,0,0,1,.09-.12c0,.08,0,.17.07.19s.22,0,.36,0,.18,0,.23-.1l0,.13c.06,0-.06-.15.05-.14s0,.11,0,.16,0-.19.09-.19-.09.16,0,.16,0-.06,0-.08c.06.15.18.22.27.05,0,.05,0,.13,0,.18h0s0-.08,0-.1v.09l0,0a.15.15,0,0,0,0-.07v.06l.09-.07c.06-.08.14-.16.14-.2C88,30.14,88,29.84,88,29.54Z" transform="translate(0 0)"/></svg>