<svg id="Layer_1" data-name="Layer 1" xmlns="http://www.w3.org/2000/svg" viewBox="0 0 77.2 99.11"><defs><style>.cls-1{fill:#ff3fb4;}</style></defs><title>1</title><path class="cls-1" d="M26.37,53.75s-.48-.33.37.08l1.89,1c.62.29,1.24.52,1.86.78l.92.38c.32.11.64.19,1,.29.66.19,1.33.4,2,.57l.23,0a35,35,0,0,0,7,.92,33.82,33.82,0,0,0,13-2.28c-.11,0-.17,0,.23-.16a28,28,0,0,0,2.91-1.37L59.43,53,61,51.83A7.1,7.1,0,0,0,62,51.1a1.44,1.44,0,0,0,.29-.33l1.27-1.15c.38-.38.7-.79,1-1.16A22.74,22.74,0,0,0,69,39.81a31.38,31.38,0,0,0,1.07-9.76A32.81,32.81,0,0,0,63.18,11.2a29.8,29.8,0,0,0-6.37-6A30.41,30.41,0,0,0,44.22.07c.29.16-2-.13-4.2-.06-1.08.11-2.11.16-2.74.31s-.86.22-.37.21a21.94,21.94,0,0,0-4.27,1c-.64.24-1.22.42-1.63.61a6.73,6.73,0,0,0-.7.37c-.23.24-.84.54-2,1.4a26,26,0,0,0-5.36,4.77,29.09,29.09,0,0,0-2.74,3.7,15.64,15.64,0,0,0-1,1.77l-.58,1.12c-.64,1.39,1.76-3.09,1.12-1.7a27.79,27.79,0,0,1,4.52-6,23.23,23.23,0,0,1,6.06-4.22A23.48,23.48,0,0,1,44.75,1.54a30.48,30.48,0,0,1,7.08,2.28,28,28,0,0,1,11.22,9.72,29.85,29.85,0,0,1,3.47,6.77,31.33,31.33,0,0,1,2,11.32,28.6,28.6,0,0,1-1.54,9,21.88,21.88,0,0,1-2.19,4.52,13.9,13.9,0,0,1-1.54,2l-.83,1c-.31.31-.64.59-1,.89a24.74,24.74,0,0,1-9.08,5.13,33.37,33.37,0,0,1-9.79,1.57,33.06,33.06,0,0,1-8.36-1,25.18,25.18,0,0,1-3.2-1l-1.33-.51c-.4-.18-.76-.39-1.09-.55l-1-.49a24,24,0,0,1-7.72-6.81A24.24,24.24,0,0,1,16,36.64a28.88,28.88,0,0,1-.63-7.73l-.11.89,0,.85-.06,1.57a37,37,0,0,1,.43-6.34,15,15,0,0,1,.3-1.71l.2-1c.08-.46.07-.53,0-.36-.13.35-.57,1.65-.83,2.73-.32,1.57-.08-.59-.54,1.88l.36-2.24c.12-.67.31-1.33.51-2.21a23,23,0,0,0-.57,2.49c-.21,1.25-.38,2.38-.34,1.75.17-.86.27-1.79.47-2.7s.38-1.85.69-2.7A21.78,21.78,0,0,0,15,25c-.25,1.45-.46,2.78-.46,2.64,0-.49.28-1.76.5-2.94s.55-2.25.57-2.43S15.17,24,15,24.9c.31-1.37.57-2.6.89-3.55l.38-1.25.29-.82c.14-.4.15-.49,0-.18a16,16,0,0,0-.88,2.25,37.31,37.31,0,0,1,2.42-5.74h0c-.41.86-1.19,2.3-1.47,3.13.37-1,.89-2,1.35-2.94l-.29.49a20.77,20.77,0,0,0-1,2.23,17.3,17.3,0,0,1,.89-2,16.89,16.89,0,0,0-.86,1.62,31.54,31.54,0,0,0-2.12,6.06A29.46,29.46,0,0,0,15.44,41a24.91,24.91,0,0,0,4.33,7.35A27.4,27.4,0,0,0,26.37,53.75Z" transform="translate(0 0)"/><path class="cls-1" d="M61,21.7s.11-.06.07.09c-.12.46-.36.79-.45,1.27l.05.05c-.12.36-.26.72-.36,1.11A17.86,17.86,0,0,0,60,26.39s0,0,0,.05L60,27.59v.19s0,.07,0,.07v.53a18.13,18.13,0,0,0,1.74,6.28l.72,1.23c.31.6.72,1.37,1.07,1.94.13-.2,1.15,1,1.16.63a3.47,3.47,0,0,0,.73.83c.21-.06.58.06,1.45.75.31.29.77.77.91.85s-.33-.47-.11-.36a17.58,17.58,0,0,1-5.06-7.81,14,14,0,0,1-.82-4.78,16.07,16.07,0,0,1,.89-5.39l.06-.16c.34-1,.86-2.12,1.23-2.93.16-.37.31-.77.49-1.14l-.38.38a8.24,8.24,0,0,0,.53-.86c.47-.78.07-.45-.27-.25s-.09-.18-.38.11c.16-.24.26-.35.44-.58,0-.07-.51.74-.47.52s.34-.49.52-.73c-.14,0-.64.8-.68.72s.59-.6.53-.71-.19.21-.28.33c.51-.76.78-1.2.15-.63.18-.23.49-.51.67-.76h0l-.38.42.34-.41-.09.05a2.57,2.57,0,0,0-.28.29l.23-.27a1.69,1.69,0,0,0-.27.17,6.08,6.08,0,0,0-.79.72A17.38,17.38,0,0,0,61,21.7Z" transform="translate(0 0)"/><path class="cls-1" d="M68,29.7s-.06.06-.1,0,0-.22-.09-.29l-.06,0a2.6,2.6,0,0,1,0-.26c-.06-.14-.12-.27-.17-.4s0,0-.06,0a.46.46,0,0,1,0-.21l0,0h0s0-.07,0-.1a2.49,2.49,0,0,1,0-1.51,1.93,1.93,0,0,1,.06-.42A4.45,4.45,0,0,1,67.8,26c-.22-.08-.12-.55-.37-.56,0-.11.13-.27.07-.3a.77.77,0,0,1-.41-.52c0-.09.09-.22,0-.25s-.15.1-.2,0a15,15,0,0,1-1,2.35,5.48,5.48,0,0,0-.27,1.93,5.49,5.49,0,0,0,.67,2l0,.05a2.64,2.64,0,0,0,.7.83c.12.07.26.13.39.19a1.5,1.5,0,0,1,0-.2c.08.11.16.21.23.22.25.15.24-.05.29-.23s.15-.09.13-.23l.13.17s-.2-.18-.08-.2.12.12.18.18-.17-.24-.09-.28.06.25.15.19,0-.08-.06-.11c.19.17.37.21.3,0a1.6,1.6,0,0,0,.16.23h0a.64.64,0,0,0-.08-.14l.09.11,0,0a.31.31,0,0,0-.05-.1l.06.07s0-.08,0-.13a3,3,0,0,0-.05-.33C68.46,30.45,68.2,30.07,68,29.7Z" transform="translate(0 0)"/><path class="cls-1" d="M69,29.54s-.08,0-.1,0,.09-.15,0-.23h-.06l.08-.19-.06-.36h-.06a.42.42,0,0,1,0-.19v0h-.05s0-.07,0-.09c-.12-.35-.26-.72-.37-1.13a1.07,1.07,0,0,1-.12-.27,1.78,1.78,0,0,1,.07-.39c-.23,0-.29-.32-.53-.3,0-.08.05-.2,0-.22a.61.61,0,0,1-.46-.41c0-.09.1-.21.06-.25s-.15.08-.2,0a8.39,8.39,0,0,0-.29,2c.06.25.11,1.79.13,2.19v0a1.4,1.4,0,0,0,.17.65l.22.22.1-.12c0,.08,0,.17.06.19s.23,0,.37,0,.17,0,.23-.1l0,.13c.06,0-.07-.15,0-.13s0,.1,0,.15,0-.18.08-.19-.09.17,0,.16,0-.06,0-.08c.07.15.18.22.27.05,0,.05,0,.13,0,.18h0s0-.08,0-.1v.09l0,0s0,0,0-.08v.06l.1-.07c0-.08.14-.16.14-.2C69.06,30.14,69.05,29.84,69,29.54Z" transform="translate(0 0)"/><path class="cls-1" d="M52.37,60.52s0-.11.09-.05c.33.21.49.51.82.72l.06,0,.67.65,1.42,1s0,0,.06,0,.45.35.72.57l.13.08s.06,0,.07,0l.33.27,4.47,2.83a11.23,11.23,0,0,1,1,.58c.47.31,1,.78,1.45,1.11.07-.23,1.2.48,1.13.13.29.23.72.57.78.53s.55-.11,1.39.38c.32.21.74.63.87.68s-.31-.41-.1-.33c-2.21-1.78-4.44-3.34-6.71-5-.84-.49-6-4.38-7.32-5.46L53.6,59c-.71-.57-1.58-1.25-2.23-1.67l-.94-.53.28.37a4.48,4.48,0,0,0-.69-.52c-.66-.43-.4-.06-.27.26s-.17.08,0,.35l-.47-.4c-.06,0,.6.46.4.43s-.39-.3-.57-.46c0,.12.62.57.54.61s-.45-.53-.56-.48.17.17.26.25c-.6-.46-1-.64-.53-.11-.18-.16-.41-.41-.61-.56h0l.33.32-.33-.28,0,.08a2.61,2.61,0,0,0,.24.23l-.22-.19a1.34,1.34,0,0,0,.12.24,8,8,0,0,0,.54.68C50.08,58.63,51.21,59.6,52.37,60.52Z" transform="translate(0 0)"/><path class="cls-1" d="M65,62.63s0,.09-.1,0-.19-.45-.37-.65l-.06,0-.28-.58-.72-1s0,0,0,0a6.11,6.11,0,0,1-.35-.53L63,59.89H63l-.15-.25-2.4-2.76a7.76,7.76,0,0,1-.57-.58c-.24-.31-.48-.74-.69-1.06-.16.18-.77-.52-.86-.24-.14-.21-.34-.52-.41-.5s-.49,0-1-.46c-.17-.2-.33-.58-.42-.64s.08.36-.05.28c1,1.64,2.16,3.14,3.26,4.76.46.5,3,4.19,3.64,5.17l.06.09a12.13,12.13,0,0,0,1.16,1.54l.57.51L65,65.42a2.29,2.29,0,0,0,.37.48c.38.39.3.07.32-.19s.17,0,.1-.29l.23.36c.06,0-.32-.41-.17-.38a4,4,0,0,0,.3.42c0-.1-.3-.5-.22-.53s.17.46.28.42-.07-.14-.12-.22c.32.41.57.59.4.13a4.85,4.85,0,0,0,.29.49h0l-.15-.28.16.25V66a2,2,0,0,0-.11-.2l.11.17a1.41,1.41,0,0,0,0-.2c-.08-.23-.12-.47-.18-.58C66.12,64.33,65.57,63.47,65,62.63Z" transform="translate(0 0)"/><path class="cls-1" d="M59.22,56.47s0-.09.1,0c.18.22.19.48.37.7l.07,0,.27.63.71,1s0,0,.06,0a5.36,5.36,0,0,1,.34.57l.07.09a.09.09,0,0,0,.07,0l.15.27,2.4,3a8.55,8.55,0,0,1,.57.65c.24.33.48.8.69,1.15.16-.17.77.6.87.31.14.23.34.58.41.56s.5,0,1,.56c.17.22.32.62.41.69s-.07-.38.06-.28c-1-1.8-2.16-3.45-3.26-5.23-.46-.55-3-4.6-3.63-5.67l-.07-.09a11.89,11.89,0,0,0-1.16-1.69l-.57-.57.08.34a2,2,0,0,0-.36-.52c-.38-.43-.31-.1-.32.18s-.18,0-.11.29l-.23-.38c-.06,0,.32.45.17.4a4.4,4.4,0,0,0-.3-.45c0,.1.3.54.21.57s-.16-.49-.27-.46.07.16.11.23c-.31-.45-.56-.65-.39-.15-.09-.15-.18-.39-.29-.54h0l.15.3-.16-.27v.07a2,2,0,0,0,.1.21l-.1-.17a.69.69,0,0,0,0,.2,4.91,4.91,0,0,0,.17.62C58.12,54.61,58.66,55.55,59.22,56.47Z" transform="translate(0 0)"/><path class="cls-1" d="M67.49,67.86s.07,0,.1,0,0,.24,0,.35h.07c0,.1,0,.2,0,.3a4.84,4.84,0,0,1,0,.53s0,0,0,0a.59.59,0,0,1-.08.27v0l0,0a.27.27,0,0,1-.06.12l0,.17-1.4,7.58,2.86-6.76a3.68,3.68,0,0,0,.1-2.51l-.27-.53a6.32,6.32,0,0,0-.32-.82c-.17.13-.6-.3-.72,0-.08-.13-.24-.29-.29-.25a.88.88,0,0,1-.71.11c-.11,0-.24-.19-.29-.18s.08.19,0,.22a2.47,2.47,0,0,1,1.18,2.11,1.51,1.51,0,0,1-.17,1l1.59.91a4,4,0,0,0,.41-1.87,5.31,5.31,0,0,0-.21-1.33l0-.08a2.84,2.84,0,0,0-.85-1.3,3.17,3.17,0,0,0-.55-.28,1.63,1.63,0,0,1,.1.25,1.06,1.06,0,0,0-.36-.28c-.39-.14-.26.09-.24.29s-.13.12-.06.27a1,1,0,0,0-.2-.16s.28.15.15.2-.17-.11-.25-.17.26.22.19.29-.15-.26-.23-.18.07.08.1.1c-.26-.14-.44-.1-.28.12a1.31,1.31,0,0,0-.24-.17h0a.64.64,0,0,0,.13.1l-.13-.07v0a.31.31,0,0,0,.09.07l-.09,0,0,.12c.07.11.09.26.13.29A2.67,2.67,0,0,1,67.49,67.86Z" transform="translate(0 0)"/><path class="cls-1" d="M66.44,75.53s.09-.06.09.06c0,.36-.17.64-.17,1l.06,0c-.06.27-.13.56-.19.85,0,.55-.1,1.1-.14,1.64,0,0,0,0,0,0,0,.23-.06.54-.11.86v.15s0,0,0,0c0,.15,0,.28-.06.4-.05,1.6-.08,3.23-.13,5,0,.37,0,.75,0,1.11,0,.53-.15,1.2-.22,1.71.24,0,.21,1.22.47,1a3,3,0,0,0,0,.89c.19.11.38.39.4,1.32,0,.36-.16.9-.13,1s.19-.45.23-.24c.36-2.65.57-5.21.87-7.88,0-.92.64-7,.86-8.62,0,0,0-.09,0-.14a25.76,25.76,0,0,0,.2-2.64c0-.34,0-.68-.07-1-.06.16-.11.3-.16.42a4,4,0,0,0,.06-.82c0-.75-.18-.34-.37-.08s-.16-.09-.27.22c0-.23,0-.34.08-.57-.07,0,0,.71-.14.53s0-.46.07-.69c-.1.07-.12.79-.21.74s.19-.63.09-.68,0,.21-.06.33c0-.71,0-1.11-.21-.48,0-.22.11-.53.12-.77h0c0,.12-.06.32-.07.43l0-.4-.06.06-.06.3,0-.26a1.93,1.93,0,0,0-.13.21,7,7,0,0,0-.26.77C66.79,72.76,66.6,74.15,66.44,75.53Z" transform="translate(0 0)"/><path class="cls-1" d="M62.5,74.88s.09-.1.09.07c0,.54-.17,1-.14,1.51l.06,0c0,.42-.07.85-.08,1.29,0,.81.11,1.6.21,2.38,0,0,0,0,.06,0,.06.32.08.77.14,1.24l0,.2a.14.14,0,0,0,.06.07l.06.57c.45,2.24.93,4.46,1.28,6.92.1.52.2,1,.26,1.54.07.75.07,1.7.08,2.43.24-.12.39,1.67.61,1.31a6,6,0,0,0,.06,1.26c.19.12.43.5.51,1.81,0,.52-.09,1.3-.06,1.48s.16-.66.21-.37a69.53,69.53,0,0,0-.38-11.35l-.86-5.74a27.34,27.34,0,0,1-.3-6.28l0-.19a22.18,22.18,0,0,1,.63-3.47,13,13,0,0,1,.34-1.33l-.34.49c.18-.43.4-.84.45-1,.42-.91,0-.5-.3-.22-.19.22-.1-.18-.38.19.16-.29.23-.44.41-.71,0-.08-.47.9-.45.65.17-.28.31-.6.49-.88-.15,0-.6,1-.65.9s.56-.77.5-.88a2.54,2.54,0,0,0-.27.41c.49-.9.78-1.43.13-.7.18-.28.5-.64.71-.93h0c-.1.14-.31.37-.41.5l.37-.48-.1.06-.3.35.25-.32a2.47,2.47,0,0,0-.29.22,6.28,6.28,0,0,0-.81.92A14.34,14.34,0,0,0,62.5,74.88Z" transform="translate(0 0)"/><path class="cls-1" d="M66.44,86.34s-.08.07-.1,0c0-.31.08-.57,0-.88l-.07,0,.09-.75-.05-1.41s0,0-.06,0c0-.2,0-.47,0-.75v-.12s0,0,0,0l0-.34c-.1-1.38-.19-2.78-.24-4.31a8.1,8.1,0,0,1-.08-1c0-.46.11-1,.15-1.49-.23,0-.24-1-.49-.86a2.39,2.39,0,0,0,0-.78c-.18-.09-.39-.34-.41-1.16,0-.31.16-.78.13-.9s-.19.39-.23.21a66.38,66.38,0,0,0-.63,6.92c0,.41,0,2,0,3.59l0,4v.12a14.89,14.89,0,0,0,.19,2.31l.24.88.09-.38a2.7,2.7,0,0,0,.08.71c.14.64.23.27.37,0s.17,0,.23-.23l0,.5c.07,0-.07-.61,0-.48s0,.4.06.6c.08-.07,0-.69.07-.66s-.08.56,0,.59,0-.19,0-.29c.08.61.21.94.28.37,0,.2,0,.47,0,.68h0v-.37l0,.35,0-.07a2.17,2.17,0,0,0,0-.26v.23l.09-.2a4.43,4.43,0,0,0,.12-.7Z" transform="translate(0 0)"/><path class="cls-1" d="M65.19,79.27s-.08,0-.1,0c0-.24.11-.42.07-.65l-.06,0,.1-.56V77s0,0,0,0a4.07,4.07,0,0,1,0-.56v-.09l0,0,0-.26c0-1-.1-2.08-.09-3.23A6.06,6.06,0,0,1,65,72a10.16,10.16,0,0,1,.21-1.1c-.24,0-.2-.81-.46-.7,0-.22.12-.55.06-.58s-.37-.31-.35-.93c0-.24.19-.57.17-.66s-.21.26-.24.12a37.82,37.82,0,0,0-.91,5.19c0,.31-.09,1.48-.15,2.71l-.12,3v.1A8.19,8.19,0,0,0,63.37,81l.21.67.1-.29a1.73,1.73,0,0,0,.06.54c.12.48.22.2.37,0s.17,0,.24-.17v.38c.06,0-.06-.46,0-.36a2.35,2.35,0,0,0,0,.45c.08-.06,0-.52.09-.5s-.09.42,0,.45,0-.15,0-.22c.06.45.18.7.27.28a4.17,4.17,0,0,0,0,.5h0v0l0,0a1.36,1.36,0,0,0,0-.2v.17a.56.56,0,0,0,.1-.15,3,3,0,0,0,.14-.52Z" transform="translate(0 0)"/><path class="cls-1" d="M66.21,75s-.09,0-.09,0,.16-.27.17-.44l-.06,0,.18-.37q.07-.37.12-.75s0,0,0,0a2.62,2.62,0,0,1,.09-.39v-.07s0,0,0,0,0-.12,0-.18c0-.74,0-1.49,0-2.3a2.43,2.43,0,0,1-.08-.52,4.94,4.94,0,0,1,.12-.77c-.23,0-.28-.56-.53-.48,0-.15,0-.38,0-.4a.69.69,0,0,1-.49-.6c0-.16.09-.39,0-.45s-.15.19-.21.1c-.15,1.15-.2,2.28-.39,3.44a18.35,18.35,0,0,1-.66,3.74v.06a4.87,4.87,0,0,0-.22,1.14l.06.49c0-.06.11-.11.16-.16,0,.15-.1.3-.07.36,0,.34.16.2.35.13s.15.08.26,0l-.08.25c.06,0,.06-.32.14-.22a1.67,1.67,0,0,0-.08.3c.1,0,.14-.33.22-.29s-.2.25-.1.3,0-.09.07-.14c-.07.31,0,.52.18.27a3.27,3.27,0,0,0-.14.33h0l.09-.18-.06.17,0,0a.47.47,0,0,0,.07-.12l0,.11.13-.06c.11-.12.25-.23.27-.3C65.83,76.25,66,75.64,66.21,75Z" transform="translate(0 0)"/><path class="cls-1" d="M66.87,74.91s-.09,0-.1,0,.13-.37.11-.58l-.06,0,.13-.5c0-.31,0-.63,0-.94,0,0,0,0,0,0s0-.31,0-.49v-.08s0,0,0,0l0-.23c-.08-.92-.21-1.85-.35-2.86a4.8,4.8,0,0,1-.15-.63c0-.3,0-.69,0-1-.23,0-.36-.67-.59-.52,0-.19,0-.48-.06-.5s-.43-.18-.57-.69c0-.19,0-.51,0-.58s-.13.27-.2.16c0,1.49.12,2.92.1,4.42A30.13,30.13,0,0,1,65,74.63v.08a7.58,7.58,0,0,0,0,1.49l.11.58.14-.22a1.52,1.52,0,0,0,0,.46c0,.42.19.21.37.07s.17.06.26-.11l0,.32c.06,0,0-.4.11-.3a2.58,2.58,0,0,0,0,.4c.09,0,.09-.45.17-.42s-.16.35,0,.39,0-.12,0-.19c0,.41,0,.64.22.29a3.12,3.12,0,0,0-.09.44h0l.06-.24,0,.22,0,0a.84.84,0,0,0,0-.17l0,.15.11-.11a2.56,2.56,0,0,0,.24-.44C66.67,76.51,66.79,75.71,66.87,74.91Z" transform="translate(0 0)"/><path class="cls-1" d="M67.48,73.7s-.08,0-.09,0,.12-.24.1-.39l-.06,0,.13-.33c0-.21,0-.43,0-.64,0,0,0,0-.06,0a1.55,1.55,0,0,1,0-.34v-.05l-.05,0a.77.77,0,0,1,0-.15,18.86,18.86,0,0,0-.45-1.92,1.72,1.72,0,0,1-.17-.4,4.87,4.87,0,0,1,0-.66c-.23.06-.4-.4-.61-.27,0-.13,0-.32-.1-.32a.66.66,0,0,1-.61-.37c0-.12,0-.33,0-.36s-.1.19-.18.13c.11.93.29,1.82.32,2.77a10.29,10.29,0,0,1-.05,3.07v0a3.12,3.12,0,0,0-.06,1l.11.39.14-.13a.56.56,0,0,0,0,.3c0,.28.18.16.36.09s.17.07.26,0l-.06.21c.07,0,0-.26.12-.18s0,.17,0,.26.09-.29.18-.26-.17.21-.07.25,0-.07,0-.11c0,.26,0,.43.21.22a2.31,2.31,0,0,0-.1.28h0s0-.11.06-.15l0,.15,0,0a.37.37,0,0,0,0-.11l0,.1a.67.67,0,0,0,.12-.06c.1-.1.23-.2.24-.26A9.8,9.8,0,0,0,67.48,73.7Z" transform="translate(0 0)"/><path class="cls-1" d="M68.45,69.67s-.08,0-.1,0,.11-.22.05-.35h-.07a1.55,1.55,0,0,0,0-.29,1.65,1.65,0,0,0-.16-.35.07.07,0,0,1-.06,0s0-.1-.05-.17l0,0a0,0,0,0,0,0,0,.29.29,0,0,1,0-.09,5.12,5.12,0,0,0-.85-.67.75.75,0,0,1-.24-.09c-.08-.06-.12-.19-.18-.27-.17.15-.4.06-.55.25,0-.05-.08-.12-.14-.08a.85.85,0,0,1-.52.23c-.06,0-.06-.13-.1-.11s0,.14-.11.17c.22.3.51.53.71.86a1.26,1.26,0,0,1,.36.47,1.9,1.9,0,0,1,.13.34c0,.07,0,0,0,.06h0s0,0,0,.07l.07,0,.1,0s-.06,0,0,0,.07,0,.18.1l.08,0,.16.09a.17.17,0,0,1-.06-.08c.07,0,0,.08.13.12,0,0,0,0,0-.1s.08.15.18.19-.18-.16,0-.12,0,.07,0,.08.3-.29.35,0a.64.64,0,0,0,0-.07s.06,0-.07-.11l-.13-.08-.06,0s0,0,0,0a.64.64,0,0,1,0-.07h0l0,.08.25.15-.24-.15,0-.06,0,0s0,0,0,.06l.22.12c-.12-.07-.29-.15-.22-.17s0,0,0,.06l.24.11c.21.09.16.13.18.18l0,.13a.28.28,0,0,1,0,.14c0,.15,0,.09.15,0A1.3,1.3,0,0,0,68.45,69.67Z" transform="translate(0 0)"/><path class="cls-1" d="M67.21,66.68s-.08,0-.1,0,0-.28,0-.42h0l-1.86.28h0l-.06.34.07.62s0,0,.06,0a1.33,1.33,0,0,1,0,.34v0a.06.06,0,0,0,0,0,.81.81,0,0,1,0,.16,15.83,15.83,0,0,1,.28,2,1.86,1.86,0,0,1,.08.45,3.73,3.73,0,0,1-.15.68c.24,0,.23.54.48.49,0,.14-.1.34,0,.37a.64.64,0,0,1,.38.66c0,.16-.17.36-.15.42s.19-.15.23,0a13.12,13.12,0,0,0,.69-3.36c0-.34,0-2.37-.09-3.35l-1.78.28.07.36v0a4.08,4.08,0,0,0,.32,1l.27.36a2,2,0,0,1,.07-.19.66.66,0,0,0,.11.32c.16.27.23.08.36-.07s.18,0,.22-.15l0,.23c.07,0-.09-.27,0-.23s0,.18.07.28c.08-.06,0-.33,0-.33s-.06.28.05.27,0-.09,0-.14c.09.28.23.41.28.13a1.75,1.75,0,0,0,0,.32h0v-.18l0,.16,0,0v-.13l0,.11.08-.11a1.64,1.64,0,0,0,.1-.35C67.41,67.8,67.32,67.23,67.21,66.68Z" transform="translate(0 0)"/><path class="cls-1" d="M67.88,69.16s-.08,0-.1,0,.06-.35,0-.53h-.07c0-.14,0-.3,0-.46a5.44,5.44,0,0,0-.25-.81s0,0-.06,0a3.6,3.6,0,0,1-.13-.42l0-.07s0,0-.06,0l0-.2a12,12,0,0,0-1.5-1.94,3.58,3.58,0,0,1-.41-.35,7,7,0,0,1-.44-.67c-.17.17-.61-.23-.72,0-.09-.13-.23-.32-.29-.29a.69.69,0,0,1-.78-.13c-.12-.11-.21-.35-.28-.38s0,.26-.08.22c.7,1,1.46,1.84,2,2.83a5.9,5.9,0,0,1,.84,1.48,5.42,5.42,0,0,1,.41,1.81v0c0,.35,0,.75.07,1s.09.29.12.43l.14-.15a.94.94,0,0,0,0,.34c0,.32.17.19.36.11s.16.07.26-.06a2,2,0,0,1-.07.26c.06,0,0-.33.13-.23s0,.22-.07.32S67,71,67.06,71s-.19.27-.09.32,0-.1.07-.15c-.06.34,0,.56.18.29,0,.11-.13.24-.16.36h0l.1-.2-.07.2,0,0a.64.64,0,0,0,.08-.14l0,.13.13-.08a1.6,1.6,0,0,0,.3-.36A5.75,5.75,0,0,0,67.88,69.16Z" transform="translate(0 0)"/><path class="cls-1" d="M66.45,66.91s-.06.06-.09,0,0-.14,0-.17l0,0s0-.11,0-.17a1.8,1.8,0,0,0-.19-.2l0,0s-.05-.08-.07-.13h0l0,0,0-.06c-.26-.15-.53-.28-.82-.44a.7.7,0,0,1-.23-.06.89.89,0,0,1-.14-.25c-.18.14-.4,0-.57.2,0,0-.07-.13-.12-.09a.74.74,0,0,1-.57.13s0-.16-.08-.15-.07.14-.14.15a8.08,8.08,0,0,0,.76,1.08A4.35,4.35,0,0,1,64.84,68v0a.71.71,0,0,0,.33.31l.25,0,0-.12s.06.1.11.09.2-.07.3-.2.15-.09.18-.18l.05.09c.06,0-.1-.08,0-.12s.05.06.07.09,0-.13,0-.17,0,.15.06.1,0-.05,0-.06a.14.14,0,0,0,.25-.09s0,.1,0,.13h0s0-.06,0-.08l0,.06,0,0V67.8l0,0,.06-.09a1,1,0,0,0,.07-.21A4.65,4.65,0,0,0,66.45,66.91Z" transform="translate(0 0)"/><path class="cls-1" d="M62.08,61.65s0,.08-.1,0-.16-.38-.32-.54l-.07,0c-.08-.15-.15-.32-.24-.48s-.42-.53-.64-.79c0,0,0,0-.06,0s-.19-.27-.31-.44l-.06-.06a.07.07,0,0,0-.06,0l-.13-.21c-.69-.71-1.41-1.42-2.18-2.2a5.87,5.87,0,0,1-.52-.46,9.78,9.78,0,0,1-.61-.87c-.16.18-.71-.38-.81-.11-.12-.18-.31-.44-.37-.41s-.46.08-.89-.3c-.16-.16-.3-.48-.37-.52s.06.31-.07.25c.93,1.36,1.94,2.57,2.92,3.9.42.39,2.72,3.41,3.27,4.21l0,.07A8.34,8.34,0,0,0,61.56,64a5,5,0,0,0,.52.39c0-.1,0-.19-.07-.28a1.41,1.41,0,0,0,.33.39c.35.31.29,0,.31-.2s.17-.07.1-.27l.21.29c.06,0-.29-.33-.14-.32a2.18,2.18,0,0,0,.26.34c0-.09-.26-.41-.18-.44s.14.38.25.34-.07-.12-.11-.18c.29.33.52.46.37.07a4.65,4.65,0,0,0,.26.41h0c0-.06-.09-.17-.13-.23l.14.21a.13.13,0,0,0,0-.06.56.56,0,0,0-.09-.17l.1.13a1,1,0,0,0,0-.17,2.81,2.81,0,0,0-.15-.5C63.07,63.05,62.59,62.34,62.08,61.65Z" transform="translate(0 0)"/><path class="cls-1" d="M62.12,63s0,.09-.09,0-.22-.41-.41-.58l-.06,0-.31-.53c-.25-.29-.5-.57-.76-.85,0,0,0,0-.06,0s-.23-.29-.37-.47L60,60.57h-.07l-.16-.22c-.8-.77-1.63-1.55-2.53-2.39a5.89,5.89,0,0,1-.6-.5c-.25-.26-.51-.65-.74-.94-.14.19-.78-.41-.85-.13-.15-.18-.37-.47-.43-.44s-.48.08-1-.33c-.18-.18-.36-.52-.44-.57s.1.34,0,.27c1.12,1.48,2.32,2.79,3.5,4.23.48.42,3.23,3.69,3.89,4.57l.07.07a11,11,0,0,0,1.24,1.36l.59.42a2.85,2.85,0,0,1-.11-.3,2.07,2.07,0,0,0,.39.42c.4.33.31,0,.3-.22s.17-.07.08-.28l.25.31c.06,0-.34-.36-.19-.34a3.59,3.59,0,0,0,.32.36c0-.09-.32-.44-.24-.48s.19.42.3.38-.08-.14-.13-.2c.34.36.59.5.39.08.1.12.2.32.32.44h0c-.05-.06-.12-.18-.17-.24l.18.22V66a.94.94,0,0,0-.12-.18l.12.15a1.23,1.23,0,0,0,0-.19,2.78,2.78,0,0,0-.22-.54C63.32,64.5,62.73,63.73,62.12,63Z" transform="translate(0 0)"/><path class="cls-1" d="M64,63.14s0,.09-.1,0-.22-.45-.42-.64l-.06,0L63.08,62l-.78-.94s0,0-.06,0a5.2,5.2,0,0,1-.38-.51l-.08-.08h-.06l-.17-.24L59,57.57a5.59,5.59,0,0,1-.62-.56c-.26-.29-.53-.72-.76-1-.15.19-.82-.49-.89-.2-.15-.2-.38-.51-.45-.49s-.49.05-1-.42c-.19-.2-.37-.57-.46-.62s.1.35,0,.27c1.16,1.62,2.39,3.08,3.62,4.67.49.48,3.34,4.08,4,5l.07.09a13,13,0,0,0,1.28,1.5l.6.48-.1-.32a2,2,0,0,0,.4.46c.41.37.31.06.3-.21s.17-.07.08-.3l.25.35c.07,0-.34-.4-.19-.37s.23.26.33.4c0-.1-.34-.49-.25-.52s.2.45.3.41-.08-.15-.13-.21c.35.39.61.56.4.1a5.11,5.11,0,0,0,.33.48h0l-.17-.27.18.24v-.07a1.32,1.32,0,0,0-.12-.2l.12.16a.75.75,0,0,0,0-.2,3.25,3.25,0,0,0-.22-.57C65.21,64.81,64.6,64,64,63.14Z" transform="translate(0 0)"/><path class="cls-1" d="M61.94,60.67s0,.08-.1,0-.11-.35-.25-.49l-.06,0-.18-.44c-.17-.24-.34-.48-.52-.71,0,0,0,0-.06,0a3.23,3.23,0,0,1-.24-.4l-.05-.05h-.06l-.11-.19-1.83-2a3.49,3.49,0,0,1-.44-.41,8.48,8.48,0,0,1-.49-.79c-.17.16-.64-.35-.76-.1-.1-.16-.24-.4-.31-.38s-.45.08-.82-.27c-.13-.14-.22-.44-.29-.47s0,.28-.09.23c.73,1.24,1.55,2.34,2.34,3.55a43.28,43.28,0,0,1,2.64,3.83l.05.07a6.33,6.33,0,0,0,.86,1.13l.45.36a1.22,1.22,0,0,1,0-.26,1.18,1.18,0,0,0,.27.36c.3.27.27,0,.32-.19s.16-.06.13-.25l.16.27c.06,0-.24-.3-.1-.29a3,3,0,0,0,.22.31c0-.09-.21-.38-.13-.41s.09.35.2.32,0-.12-.08-.17c.24.3.44.42.35.06a3.35,3.35,0,0,0,.2.37h0c0-.06-.07-.16-.1-.21l.11.18s0,0,0,0a.69.69,0,0,0-.07-.15l.07.12a.78.78,0,0,0,0-.16,1.66,1.66,0,0,0-.09-.45C62.73,62,62.34,61.3,61.94,60.67Z" transform="translate(0 0)"/><path class="cls-1" d="M54.37,55.88s.05-.06.09,0,0,.2.1.26l.06,0c0,.08,0,.17.05.25s.19.24.29.35,0,0,0,0a.68.68,0,0,1,.12.21l0,0h.05l0,.1,1.11.9c.1.06.21.11.29.17a2.38,2.38,0,0,1,.23.41c.19-.14.47.09.63-.1,0,.08.12.21.17.18a.61.61,0,0,1,.64,0c.08.07.1.24.15.24s0-.18.13-.17c-.35-.65-.8-1.19-1.21-1.8A12.51,12.51,0,0,1,56,54.86l0,0a1.64,1.64,0,0,0-.48-.56,2.71,2.71,0,0,0-.3-.13l0,.16c0-.08-.1-.16-.15-.17-.2-.11-.23,0-.32.2s-.15.07-.16.19l-.08-.14c-.06,0,.13.14,0,.17s-.09-.1-.12-.16.09.2,0,.24,0-.21-.1-.16,0,.06,0,.09c-.14-.14-.28-.18-.28,0,0-.06,0-.15-.09-.2h0a.56.56,0,0,0,0,.12l-.06-.1,0,0a.29.29,0,0,0,0,.09l0-.07,0,.11c0,.11-.05.24,0,.28A7.58,7.58,0,0,0,54.37,55.88Z" transform="translate(0 0)"/><path class="cls-1" d="M52.54,58.27s0-.08.08-.05.17.32.33.43l.06,0,.25.4c.21.2.42.4.64.59,0,0,0,0,.05,0a2.67,2.67,0,0,1,.31.34l.07,0,.05,0,.14.16c.69.51,1.41,1,2.19,1.51a5.24,5.24,0,0,1,.53.28c.22.17.46.44.66.63.12-.2.69.15.74-.11.14.12.34.3.39.26s.41-.2.85,0c.16.1.32.34.4.35s-.1-.26,0-.24c-1-.93-2-1.75-3.06-2.7A27.57,27.57,0,0,1,54,57L54,57A6.26,6.26,0,0,0,53,56l-.49-.27c0,.09,0,.17.07.24a1.36,1.36,0,0,0-.31-.3c-.33-.22-.27,0-.29.23s-.16.09-.1.26L51.67,56c-.06,0,.27.26.13.26a2,2,0,0,0-.25-.26c0,.09.25.33.17.38s-.13-.34-.23-.28.06.1.1.15c-.27-.26-.49-.35-.35,0a4.15,4.15,0,0,0-.24-.34h0l.13.19L51,55.88v.06a1,1,0,0,0,.08.14L51,56a.92.92,0,0,0,0,.16,1.65,1.65,0,0,0,.14.43C51.57,57.15,52,57.72,52.54,58.27Z" transform="translate(0 0)"/><path class="cls-1" d="M53.91,58.54s0-.09.1,0,.24.4.44.57l.06,0c.11.17.22.35.34.52s.54.55.82.82c0,0,0,0,0,0s.26.29.41.46l.07.06a.11.11,0,0,0,.06,0l.18.21c.86.75,1.74,1.48,2.68,2.29.22.16.44.31.63.48a11.57,11.57,0,0,1,.8.91c.14-.2.82.38.87.09.16.18.4.45.46.42s.48-.1,1,.29c.19.17.39.51.48.55s-.12-.33,0-.27c-1.21-1.43-2.49-2.7-3.76-4.09-.51-.41-3.47-3.57-4.19-4.42l-.07-.07A10.84,10.84,0,0,0,54,56c-.2-.14-.41-.27-.62-.4a3.11,3.11,0,0,1,.12.3,2.19,2.19,0,0,0-.41-.41c-.42-.31-.31,0-.29.24s-.16.08-.06.29l-.27-.3c-.06,0,.36.34.2.33a3.75,3.75,0,0,0-.34-.36c0,.11.36.44.28.48s-.22-.41-.32-.36.08.13.14.19c-.36-.35-.63-.48-.41-.06a4.58,4.58,0,0,0-.34-.43h0a2.5,2.5,0,0,0,.18.24l-.18-.21a.09.09,0,0,0,0,.07.66.66,0,0,0,.12.17l-.12-.14a.68.68,0,0,0,0,.19,3.39,3.39,0,0,0,.25.53C52.62,57.07,53.26,57.82,53.91,58.54Z" transform="translate(0 0)"/><path class="cls-1" d="M52,58.35s0-.09.08-.06.19.28.35.37l.06,0,.27.36c.22.16.44.33.67.48,0,0,0,0,0,0a3.65,3.65,0,0,1,.32.29l.07,0a.09.09,0,0,0,.05,0l.14.14,2.2,1.26a3.08,3.08,0,0,1,.52.24c.22.15.45.4.65.57.11-.21.67.11.72-.16.13.12.32.29.37.25a.71.71,0,0,1,.83,0c.15.09.31.33.39.34s-.1-.26,0-.24c-1-.9-2-1.65-3-2.51a37.21,37.21,0,0,1-3.39-2.67l-.06,0a6.16,6.16,0,0,0-1.08-.77l-.51-.18.1.22a1.26,1.26,0,0,0-.34-.24c-.35-.15-.26.07-.26.28s-.14.11-.06.26l-.22-.19s.3.2.17.23a1.46,1.46,0,0,0-.28-.21c0,.09.29.28.22.33s-.18-.29-.26-.23.07.09.11.13c-.3-.2-.51-.24-.34.05-.09-.07-.18-.21-.28-.27h0l.15.16-.15-.13v0a.63.63,0,0,0,.11.12l-.1-.09a.77.77,0,0,0,0,.15,2.36,2.36,0,0,0,.19.39C51,57.42,51.46,57.9,52,58.35Z" transform="translate(0 0)"/><path class="cls-1" d="M52.78,58.41s0-.09.09-.06.22.34.41.46l.06,0,.31.43.76.63s0,0,.05,0a2.44,2.44,0,0,1,.37.36l.07,0,.06,0,.17.17,2.48,1.71a5.51,5.51,0,0,1,.58.34,10.09,10.09,0,0,1,.74.72c.12-.2.75.22.8,0,.15.14.37.36.42.32s.44-.17.92.11c.17.13.36.41.44.43s-.11-.29,0-.25c-1.12-1.14-2.3-2.11-3.48-3.2-.47-.29-3.2-2.76-3.86-3.43L54.13,57a8.38,8.38,0,0,0-1.22-1l-.58-.28a2.49,2.49,0,0,1,.11.26,1.28,1.28,0,0,0-.38-.31c-.39-.23-.29,0-.27.26s-.15.09-.06.27L51.48,56s.34.27.19.28a2.8,2.8,0,0,0-.31-.28c0,.1.33.35.25.4s-.2-.35-.3-.29.08.11.13.16c-.33-.26-.57-.35-.37,0a3.4,3.4,0,0,0-.32-.34h0l.17.2-.17-.17V56a.76.76,0,0,0,.11.14L50.75,56a.55.55,0,0,0,0,.17,2.58,2.58,0,0,0,.23.45C51.59,57.24,52.18,57.84,52.78,58.41Z" transform="translate(0 0)"/><path class="cls-1" d="M53.79,55.69s.05-.07.08-.06,0,.14.07.16l.05,0,0,.18.22.18s0,0,.05,0,0,.08.08.12h0l0,0a.09.09,0,0,1,0,.06l.88.35a.8.8,0,0,1,.24,0,1,1,0,0,1,.17.24c.17-.16.39-.08.54-.26,0,0,.09.12.14.08A.73.73,0,0,1,57,56.5c.06,0,.06.15.11.14s0-.15.12-.16a9.55,9.55,0,0,0-.9-1,4.54,4.54,0,0,1-1.05-1h0a.74.74,0,0,0-.37-.28h-.25l0,.13s-.07-.09-.12-.08-.19.1-.28.24-.14.11-.15.2L54,54.53s.1.07,0,.12-.06,0-.08-.09.06.13,0,.18,0-.16-.07-.09,0,0,0,.06-.22-.05-.24.11c0,0,0-.1-.06-.12h0s0,.06,0,.07l0-.05,0,0a.07.07,0,0,0,0,.05l0,0-.05.09a1.16,1.16,0,0,0,0,.22A4.17,4.17,0,0,0,53.79,55.69Z" transform="translate(0 0)"/><path class="cls-1" d="M57.31,60.42s0-.07.09-.05.06.26.18.35l.06,0,.12.32a5.87,5.87,0,0,0,.41.46s0,0,0,0a1.57,1.57,0,0,1,.19.27l0,0s0,0,0,0a.6.6,0,0,1,.09.13c.47.39,1,.77,1.51,1.17a1.72,1.72,0,0,1,.38.22,3.89,3.89,0,0,1,.41.5c.15-.18.55.09.66-.13.08.09.21.24.26.2a.65.65,0,0,1,.71,0c.11.08.19.28.25.29s0-.22.08-.21c-.62-.75-1.3-1.38-1.92-2.13a14.1,14.1,0,0,1-2-2.42l0,0a3,3,0,0,0-.63-.73l-.36-.2v.2c-.07-.11-.14-.22-.2-.24-.23-.16-.24,0-.31.2s-.16.08-.16.21l-.11-.18c-.06,0,.18.2.06.21s-.11-.13-.16-.21c-.06.08.14.27.06.31s0-.27-.14-.22,0,.08,0,.12c-.17-.21-.34-.27-.31,0a1.26,1.26,0,0,0-.13-.26h0l.07.15-.08-.13,0,0a.37.37,0,0,0,0,.11l-.06-.08,0,.13c0,.13,0,.29,0,.34A12.67,12.67,0,0,0,57.31,60.42Z" transform="translate(0 0)"/><path class="cls-1" d="M64.85,91.56s.08,0,.1,0-.12.2-.09.32l.07,0-.12.27c0,.18,0,.35,0,.53h.06a1.49,1.49,0,0,1,0,.28v0l0,0a.43.43,0,0,1,0,.12c.11.52.25,1,.4,1.6a1.76,1.76,0,0,1,.15.35,3.25,3.25,0,0,1,0,.54c.23,0,.36.36.59.27,0,.11,0,.27.06.27a.64.64,0,0,1,.56.36c0,.11,0,.28,0,.32s.12-.15.19-.1c0-.81-.09-1.58-.08-2.39a10.53,10.53,0,0,1,0-2.63v-.05a2,2,0,0,0,0-.81l-.14-.33-.13.12a.45.45,0,0,0,0-.26c-.07-.23-.2-.12-.37,0s-.17,0-.25,0l0-.17c-.07,0,0,.22-.1.16s0-.15,0-.22-.07.24-.15.22.14-.19,0-.21,0,.06,0,.1c0-.23-.09-.37-.24-.18a1,1,0,0,0,.07-.24h0s0,.1,0,.13l0-.12h0a.18.18,0,0,0,0,.1v-.09l-.11.06c-.08.09-.19.18-.2.23A8.63,8.63,0,0,0,64.85,91.56Z" transform="translate(0 0)"/><path class="cls-1" d="M65.55,97.72a.33.33,0,0,1-.1,0s.09,0,.06-.08h-.07l.1-.06,0-.13-.06,0s0,0,0-.06v0h0s0,0,0,0a2.14,2.14,0,0,1-.24-.59.37.37,0,0,1-.07-.18c0-.06.08-.1.12-.15-.2-.12-.19-.31-.4-.43,0,0,.09-.09,0-.13a.63.63,0,0,1-.26-.51c0-.06.15-.07.13-.12s-.15,0-.17-.11a2.52,2.52,0,0,0-.79,1.17c0,.1-.07.39-.11.71s-.06.64-.08.78v0a.65.65,0,0,0,.13.45l.22.13a.38.38,0,0,1,.09-.09s0,.11.06.12.22,0,.36-.09.17,0,.23-.08v.07c.07,0,0-.08.06-.08s0,0,0,.07,0-.09.1-.11-.1.1,0,.08,0,0,0,0,.16.08.26,0,0,.07,0,.09h0s0,0,0,0v0l0,0,0,0v0l.09,0c.06,0,.16-.1.15-.11A2.1,2.1,0,0,0,65.55,97.72Z" transform="translate(0 0)"/><path class="cls-1" d="M65.8,98.58s0-.08,0-.1.24,0,.31,0v-.07l.2,0a2.19,2.19,0,0,0,.33-.12,0,0,0,0,1,0,0s.11,0,.18,0l0,0v0h.08l.95-.65a.91.91,0,0,1,.19-.2,1.18,1.18,0,0,1,.37,0c-.07-.22.17-.39.06-.61.08,0,.19,0,.18-.09a.67.67,0,0,1,.14-.59c.07,0,.2,0,.22,0s-.12-.11-.1-.18a11.79,11.79,0,0,0-1.64.38,10.34,10.34,0,0,1-1.73.51l0,.23a1.08,1.08,0,0,1,0,.37h0l0-.06h0v0s0,0,0,0l0,0a.6.6,0,0,1,.35-.06c.25,0,.08,0,0-.05h-.12s0-.06,0-.09S65.7,97,65.53,97s-.16-.08-.25,0a.45.45,0,0,1,.06-.12c-.06,0,0,.16-.12.09s0-.11.06-.16-.11.17-.19.13.17-.11.08-.17,0,.05-.06.07c0-.18,0-.35-.17-.23,0-.06.13-.12.16-.19h0l-.1.1.08-.11h0a.3.3,0,0,0-.08.08l0-.08h-.13c-.12.06-.26.12-.29.18a1.52,1.52,0,0,0-.21,1,1.26,1.26,0,0,0,.56.86A1.34,1.34,0,0,0,65.8,98.58Z" transform="translate(0 0)"/><path class="cls-1" d="M30.43,59.81s.09,0,.1,0c0,.26-.13.46-.1.72l.06,0-.13.61q0,.59,0,1.17s0,0,.05,0,0,.39,0,.62v.1s0,0,.05,0l0,.28c.1,1.13.26,2.28.44,3.51a5.62,5.62,0,0,1,.17.77c0,.37,0,.85,0,1.21.23-.07.4.81.62.62,0,.24,0,.6.09.61s.44.21.61.83c0,.24,0,.63,0,.71s.11-.33.18-.2c-.1-1.83-.28-3.59-.31-5.44a38.83,38.83,0,0,1,.06-6V60a11.52,11.52,0,0,0,.06-1.83l-.11-.72-.14.29a2.34,2.34,0,0,0,0-.57c0-.52-.19-.25-.36-.07s-.17-.07-.26.15l.05-.4c-.07,0,0,.49-.12.37s0-.33.05-.49c-.1,0-.1.56-.18.52s.17-.44.06-.48,0,.15-.05.23c0-.5-.05-.78-.22-.34,0-.16.09-.38.1-.54h0l-.06.3,0-.29-.05,0a1.6,1.6,0,0,0-.05.21l0-.19a.44.44,0,0,0-.12.15,2.73,2.73,0,0,0-.24.54C30.64,57.84,30.51,58.83,30.43,59.81Z" transform="translate(0 0)"/><path class="cls-1" d="M37.66,72s-.11,0-.06-.09c.16-.29.42-.44.58-.75l0,0,.53-.63c.28-.43.55-.86.8-1.31,0,0,0,0,0-.05s.27-.42.44-.68l.06-.12s0,0,0-.07l.21-.31c.67-1.33,1.3-2.71,1.95-4.21.11-.33.22-.66.35-1s.53-1,.76-1.4c-.24,0,.18-1.13-.13-1a2.65,2.65,0,0,0,.31-.76c-.15-.15-.24-.46,0-1.27.11-.31.39-.73.41-.85s-.31.32-.29.13c-1.07,2.18-2.06,4.3-3.25,6.43a36.63,36.63,0,0,1-1.8,3.26c-.87,1.45-1.86,2.91-2.29,3.49l-.07.11a21.59,21.59,0,0,0-1.32,2l-.41.86.33-.25a3.73,3.73,0,0,0-.43.62c-.33.6,0,.37.28.25s.1.16.33,0l-.33.42c0,.06.37-.54.37-.36s-.25.35-.38.52c.11,0,.47-.57.52-.49s-.46.4-.39.5.14-.14.21-.23c-.38.54-.51.89-.06.49-.12.16-.34.37-.46.55h0l.27-.3-.24.29.08,0a1.9,1.9,0,0,0,.19-.21l-.15.2.21-.11a6.81,6.81,0,0,0,.59-.48C36.12,74.11,36.92,73.08,37.66,72Z" transform="translate(0 0)"/><path class="cls-1" d="M30.86,75s.06-.08.11,0c.12.23.08.48.26.69l.07,0a2.56,2.56,0,0,0,.33.53,2.3,2.3,0,0,0,1.13.58s0,0,0,0a2.73,2.73,0,0,0,.74,0l.12,0a.07.07,0,0,0,0-.06l.32-.09a2.63,2.63,0,0,0,1.06-1.18,2,2,0,0,0,0-2.09,1.73,1.73,0,0,0-.56-.83c0,.11-.23.09-.39.11s-.28.09-.26.22c-.13-.06-.33-.07-.34,0s-.15.43-.13.57,0,0,0,0,0,0,0,0,0,0,.07.11,0,.06,0,.06,0,0,0,0a.51.51,0,0,1,.22.06c0-.06.17.21,0,.53a.7.7,0,0,1-.13.39c-.09.18-.35.41-.4.4s-.18,0-.33-.12a.76.76,0,0,1-.23-.38l0,0c-.05-.19-.07-.54-.11-.83,0-.13-.07-.28-.1-.43l-.15.15a.92.92,0,0,0,.06-.36c0-.34-.17-.2-.36-.11s-.16-.08-.26,0l.08-.26c-.06,0-.06.33-.14.23a3.18,3.18,0,0,0,.08-.33c-.1,0-.14.36-.22.32s.2-.26.1-.31-.05.09-.07.14c.06-.33,0-.54-.18-.28a2.83,2.83,0,0,0,.14-.35h0c0,.06-.07.14-.09.19l.06-.18-.05,0a.54.54,0,0,0-.07.13l0-.12-.13.07a2.13,2.13,0,0,0-.28.33A4,4,0,0,0,30.86,75Z" transform="translate(0 0)"/><path class="cls-1" d="M33.56,70.84s-.08,0-.1,0,.06-.37,0-.57h-.07l0-.49-.12-.89s0,0-.06,0a3.09,3.09,0,0,1,0-.47l0-.08s0,0-.05,0v-.22l-.6-2.71a5.06,5.06,0,0,1-.18-.6c0-.3,0-.67,0-1-.23.05-.36-.64-.59-.5,0-.19,0-.48-.06-.49s-.43-.18-.56-.69c0-.2.05-.51,0-.58s-.13.26-.2.15c0,1.49.08,2.93.16,4.43.11.51.43,3.94.49,4.82V71a7.15,7.15,0,0,0,.26,1.46l.25.54c0-.09.06-.18.09-.25a1.1,1.1,0,0,0,.09.45c.15.39.23.14.37,0s.17,0,.22-.17l0,.32c.07,0-.08-.39,0-.31a2.71,2.71,0,0,0,.06.38c.08,0,0-.44.06-.43s-.07.37,0,.38,0-.13,0-.19c.08.38.21.58.28.21a3,3,0,0,0,0,.43h0v-.24l0,.22,0,0a1,1,0,0,0,0-.17v.15l.09-.14a2.86,2.86,0,0,0,.11-.46C33.69,72.37,33.63,71.6,33.56,70.84Z" transform="translate(0 0)"/><path class="cls-1" d="M16,72.17s-.05-.1.07-.08c.39.07.65.29,1,.37l0-.06.88.36c.57.16,1.14.32,1.71.46,0,0,0,0,.05,0,.24.06.55.18.89.28l.15,0a.14.14,0,0,0,.07,0l.4.14,5.27,1.13a11.17,11.17,0,0,1,1.18.2c.55.14,1.24.39,1.77.55,0-.24,1.32,0,1.13-.26a3,3,0,0,0,.93.22c.14-.16.48-.3,1.46-.13.37.09.92.34,1.06.34s-.44-.28-.22-.28c-2.73-.89-5.4-1.6-8.17-2.43-1-.18-7.34-2-9-2.57l-.15,0a25.32,25.32,0,0,0-2.76-.73l-1.1-.14.42.24a4.65,4.65,0,0,0-.86-.22c-.79-.13-.39.11-.15.34s-.12.15.19.31L11.71,70c-.05,0,.74.19.54.24s-.49-.13-.72-.21c.05.11.81.28.75.35s-.63-.31-.71-.22.22.09.34.13c-.74-.19-1.17-.21-.54.11-.23-.08-.55-.22-.8-.28h0l.43.16-.41-.14.06.07a2.85,2.85,0,0,0,.31.12l-.28-.09a1.93,1.93,0,0,0,.21.17,5.55,5.55,0,0,0,.77.41C13.09,71.26,14.53,71.73,16,72.17Z" transform="translate(0 0)"/><path class="cls-1" d="M27.2,70.82s.05.1-.08.08c-.41-.1-.7-.32-1.11-.38l-.05.06L25,70.29c-.6-.11-1.17-.18-1.76-.26,0,0,0,0,0,0-.24,0-.57-.09-.92-.16h-.15s-.06,0-.06,0l-.42-.08-5.34-.43a11.53,11.53,0,0,1-1.19,0c-.57-.06-1.28-.22-1.82-.32.05.25-1.31.14-1.08.42a2.94,2.94,0,0,0-.94-.1c-.12.18-.43.35-1.42.32-.38,0-1-.21-1.09-.19s.47.21.25.24c2.8.52,5.52.87,8.35,1.33.49,0,2.36.29,4.32.58,1,.16,2,.3,2.83.46a14.15,14.15,0,0,1,1.86.46l.13,0a13.34,13.34,0,0,1,2.31,1.1c.31.15.62.32.93.49l-.27-.37a4.72,4.72,0,0,0,.68.52c.65.44.4.06.27-.25s.17-.09,0-.36l.46.41c.07,0-.6-.47-.4-.44s.39.32.58.48c0-.12-.63-.59-.55-.63s.46.55.56.5-.16-.18-.25-.26c.6.48,1,.69.53.13.18.16.41.43.61.59h0l-.33-.33.32.3,0-.09a2.55,2.55,0,0,0-.23-.24l.22.2a1.79,1.79,0,0,0-.12-.24,7.64,7.64,0,0,0-.53-.71A11.36,11.36,0,0,0,27.2,70.82Z" transform="translate(0 0)"/><path class="cls-1" d="M16.31,72s0-.1.07-.09c.34,0,.57.25.91.3l0-.06.78.29c.51.12,1,.22,1.53.31,0,0,0,0,0,0,.21,0,.5.12.8.19h.13a.06.06,0,0,0,.06,0L21,73c1.5.17,3,.3,4.69.4.35,0,.7,0,1,0,.5,0,1.12.17,1.6.24-.05-.25,1.13-.17.95-.43a3.62,3.62,0,0,0,.84.14c.13-.15.44-.36,1.4,0a6.62,6.62,0,0,1,1,.63c.21.08-.34-.43-.12-.35a8,8,0,0,0-3.94-1.32c-1.23-.15-2.41-.29-3.64-.5a36.82,36.82,0,0,1-3.73-.59c-1.68-.32-3.41-.76-4.12-1l-.13,0a22.59,22.59,0,0,0-2.38-.57l-1-.1.35.23a3,3,0,0,0-.74-.19c-.68-.11-.35.11-.14.34s-.12.15.15.3L12.61,70c0,.06.65.17.47.23a5.79,5.79,0,0,0-.63-.19c.05.11.71.26.65.33s-.54-.29-.62-.2.19.09.3.12c-.65-.17-1-.18-.49.11-.2-.06-.47-.2-.68-.25h0l.38.15-.36-.12,0,.06.26.12-.24-.09a1.49,1.49,0,0,0,.18.17,6.38,6.38,0,0,0,.66.39C13.78,71.28,15,71.68,16.31,72Z" transform="translate(0 0)"/><path class="cls-1" d="M25.06,73.54s0-.09.05-.09.25.18.42.2l0-.06.35.21.72.19s0,0,0,0a3.38,3.38,0,0,1,.37.13h.06s0,0,0,0l.17.07,2.27.3a3,3,0,0,1,.52,0,6.39,6.39,0,0,1,.73.27c0-.23.62-.16.59-.42.14,0,.36.13.39.08a.71.71,0,0,1,.72-.34c.16,0,.37.18.44.16S32.8,74,32.91,74c-1.13-.45-2.26-.73-3.41-1.11a33.08,33.08,0,0,1-3.76-1.12l-.07,0a4.66,4.66,0,0,0-1.16-.28l-.49,0,.15.17a1,1,0,0,0-.37-.09c-.34,0-.2.16-.13.35s-.08.16,0,.27l-.25-.09c0,.06.32.07.22.15s-.21,0-.31-.09.33.14.29.22-.24-.2-.29-.1.09.05.13.07c-.31-.07-.51,0-.27.18a1.15,1.15,0,0,0-.32-.14h0l.18.08-.18-.06,0,.06a.52.52,0,0,0,.13.06l-.12,0a.83.83,0,0,0,.07.13c.11.11.21.25.29.28C23.88,73.1,24.47,73.34,25.06,73.54Z" transform="translate(0 0)"/><path class="cls-1" d="M34.21,73.77s-.09,0-.09,0,.16-.14.17-.25l-.06,0,.18-.21a2.56,2.56,0,0,0,.11-.46s0,0-.05,0a1.86,1.86,0,0,1,.09-.24v0l-.05,0,.05-.11a9.19,9.19,0,0,0-.16-1.45,1.15,1.15,0,0,1-.12-.32,2.38,2.38,0,0,1,0-.46c-.23,0-.34-.32-.57-.25,0-.09,0-.22-.06-.22a.7.7,0,0,1-.56-.28c0-.08,0-.22,0-.24s-.12.12-.19.08a13.67,13.67,0,0,1,0,1.81,2.6,2.6,0,0,1-.09,1,4.28,4.28,0,0,1-.36,1v0a1.46,1.46,0,0,0-.19.59l0,.3.15,0c0,.07-.09.14-.07.19,0,.21.14.18.31.2s.14.11.24.07l-.09.13c.06,0,.08-.18.14-.09s0,.12-.08.17.14-.17.21-.12-.2.09-.11.16,0,0,.07-.06c-.07.18-.05.33.15.24,0,0-.12.1-.14.16h0a.6.6,0,0,0,.08-.08l-.06.09h0l.07-.06-.05.06h.12c.11,0,.24-.06.27-.1A4.94,4.94,0,0,0,34.21,73.77Z" transform="translate(0 0)"/><path class="cls-1" d="M14.38,69.24s0,.08,0,.09-.15-.13-.26-.12l0,.06-.2-.15L13.43,69s0,0,0,0a.79.79,0,0,1-.22-.07h0l0,0L13,69c-.45,0-.92,0-1.42,0a1.38,1.38,0,0,1-.34,0,2.19,2.19,0,0,1-.44-.2c-.06.22-.43.19-.46.43-.09,0-.22-.11-.25-.06a.62.62,0,0,1-.56.35c-.1,0-.21-.16-.26-.14s.06.18,0,.21a12.6,12.6,0,0,0,2.15.88c.29,0,2,.5,2.46.63h0a1.86,1.86,0,0,0,.77.08,3,3,0,0,0,.32-.12,1.1,1.1,0,0,1-.09-.14c.09,0,.19,0,.23,0,.23-.06.13-.19.08-.36s.06-.17,0-.26l.16,0c0-.06-.2,0-.14-.1s.13,0,.2,0-.21-.08-.19-.16.16.15.19,0-.06,0-.09,0c.2,0,.32-.08.17-.23a.76.76,0,0,0,.21.08h0l-.12,0,.11,0v0l-.08,0,.08,0a1.17,1.17,0,0,0,0-.11c-.07-.09-.13-.2-.18-.21C15.1,69.45,14.74,69.34,14.38,69.24Z" transform="translate(0 0)"/><path class="cls-1" d="M12.89,69s0,.08-.06.08-.05-.15-.13-.15l0,.06-.09-.17a1.78,1.78,0,0,0-.29-.12s0,0,0,0-.08-.06-.13-.09h0s0,0,0,0l-.06,0c-.33-.05-.67-.08-1-.12a1.14,1.14,0,0,1-.25,0,1,1,0,0,1-.27-.19c-.11.2-.37.18-.45.4-.05,0-.13-.09-.17,0a.67.67,0,0,1-.48.34c-.08,0-.12-.14-.16-.12s0,.17-.06.2a9.71,9.71,0,0,0,1.29.76,6.15,6.15,0,0,1,1.45.76h0a.77.77,0,0,0,.47.18l.26,0s0-.1,0-.14.11.07.15.05.16-.15.2-.32.1-.14.08-.23l.09.06s-.13,0-.05-.11.09,0,.12.06-.11-.11-.06-.18,0,.16.11.08,0-.05,0-.06.24,0,.2-.18c0,0,.06.1.11.11h0s0-.06-.06-.07l.07,0s0,0,0,0a.1.1,0,0,0,0,0l0,0a.43.43,0,0,0,0-.11c0-.09,0-.21,0-.23A4.85,4.85,0,0,0,12.89,69Z" transform="translate(0 0)"/><path class="cls-1" d="M3.57,73.38s-.09,0,0-.09.34-.21.47-.39l0-.06.44-.3.67-.72s-.05,0,0,0a4.58,4.58,0,0,1,.38-.36l0-.07a.07.07,0,0,0,0-.06l.18-.15,1.82-2.41.17-.29a2.26,2.26,0,0,1,.13-.2A1.6,1.6,0,0,1,8,68l.3.22c0-.13.16-.14.34-.11s.34.11.37,0c.18.19.31.54.37.56a.41.41,0,0,1,.33.25,1.11,1.11,0,0,1,0,1,1.3,1.3,0,0,1-.61.53,1.93,1.93,0,0,1-.64.13c-.07,0,0,.08.21.09s.41,0,.24.06a1.68,1.68,0,0,0,1.11-1,1.92,1.92,0,0,0,.14-1.23,2.73,2.73,0,0,0-1.49-1.72l-.49-.28-.24-.14c-.08,0-.15.09-.22.13a9.79,9.79,0,0,0-.84.77l-1,1c-.32.46-2.92,3.09-3.62,3.72L2.23,72a8.22,8.22,0,0,0-1.07,1.18l-.3.56.26-.1A1.6,1.6,0,0,0,.79,74c-.24.38,0,.29.25.28s.09.15.28.07l-.26.24s.28-.33.29-.18a2.76,2.76,0,0,0-.29.3c.1,0,.36-.31.41-.24s-.36.19-.3.29.11-.08.16-.12c-.28.32-.37.56,0,.37a3.37,3.37,0,0,0-.36.3H1l.21-.16L1,75.31h.06a.83.83,0,0,0,.15-.11l-.12.11a.51.51,0,0,0,.17,0,2.42,2.42,0,0,0,.47-.21C2.35,74.52,3,74,3.57,73.38Z" transform="translate(0 0)"/><path class="cls-1" d="M6.33,68.53s.06,0,.06.07-.16,0-.19.11l0,.05-.19.06a2.83,2.83,0,0,0-.2.28.05.05,0,0,1,0,0s-.08.08-.13.12v0l0,0-.07,0c-.13.33-.25.67-.38,1a1,1,0,0,1,0,.26c-.06.1-.18.17-.25.25.18.14.1.4.31.52,0,0-.12.12-.08.17a.64.64,0,0,1,.25.53c0,.08-.15.11-.14.15s.17,0,.19.09c.39-.35.65-.79,1-1.17a5.15,5.15,0,0,1,1.1-1.29l0,0a1,1,0,0,0,.3-.43l0-.27-.14,0s.1-.08.09-.13-.1-.2-.25-.28-.11-.13-.2-.14l.09-.07s-.08.12-.13,0,0-.07.09-.1-.14.08-.19,0,.17,0,.1-.08,0,0-.06,0,.06-.25-.11-.25c0,0,.11,0,.14-.08h0l-.08,0,.07,0,0,0s0,0-.06,0l0,0-.1,0C7.15,68,7,68,7,68A5,5,0,0,0,6.33,68.53Z" transform="translate(0 0)"/><path class="cls-1" d="M8.3,70.32s0-.07,0-.1.15,0,.2,0v-.07l.18,0L9,70.1s0,0,0,0a.36.36,0,0,1,.18,0l0,0a.11.11,0,0,1,0,0h.08a4.83,4.83,0,0,1,1.17-.31.84.84,0,0,1,.3-.08,1.51,1.51,0,0,1,.41.13c0-.23.39-.25.39-.49.09,0,.22.08.24,0a.63.63,0,0,1,.48-.42c.1,0,.21.13.25.1s-.07-.17,0-.21a8.93,8.93,0,0,0-2.14-.55c-.15,0-.67,0-1.25,0a6.85,6.85,0,0,0-1.44.28l0,0a1.57,1.57,0,0,0-.74.48,3.54,3.54,0,0,0-.16.34H6.9c-.09.06-.18.13-.18.18-.1.23.08.22.24.29s.1.14.21.14a.48.48,0,0,0-.11.09s.1-.14.15,0-.08.09-.12.13.16-.11.21,0-.19,0-.12.09.05,0,.07,0c-.1.14-.06.26.11.25,0,0-.11,0-.13.09h0l.08,0-.06.05,0,0a.08.08,0,0,0,.06,0l0,0,.11,0c.09,0,.2,0,.22,0A3.29,3.29,0,0,1,8.3,70.32Z" transform="translate(0 0)"/><path class="cls-1" d="M9,69.59s0-.09,0-.09.12.17.23.18l0-.05.18.19L9.9,70s0,0,0,0a.71.71,0,0,1,.21.11h0l0,0,.1.06a13.23,13.23,0,0,0,1.43.06,2.21,2.21,0,0,1,.33,0,3.26,3.26,0,0,1,.44.15c0-.22.4-.25.39-.49.08,0,.21.07.24,0a.64.64,0,0,1,.43-.45c.1,0,.22.1.26.07s-.09-.16,0-.21c-.63-.2-1.27-.29-1.9-.51a6.34,6.34,0,0,1-2-.74l0,0a1.72,1.72,0,0,0-.63-.23l-.32,0,0,.15c-.07,0-.15-.1-.2-.08-.21,0-.18.14-.19.32s-.11.14-.07.24l-.13-.09c0,.06.18.07.09.14s-.11,0-.17-.08.17.13.12.2-.09-.19-.16-.1,0,0,.07.07c-.18-.07-.33,0-.24.16-.05,0-.1-.12-.16-.14h0l.08.08-.09-.06v0l.06.06-.06,0v.12c0,.11.06.24.1.27A7.35,7.35,0,0,0,9,69.59Z" transform="translate(0 0)"/><path class="cls-1" d="M71,96s0-.08,0-.09a6,6,0,0,1,.75.25l0-.05c.08,0,.26.11.25.13a.25.25,0,0,1,0,.07l.13,0h.11s0,0,0,.06l0,0,.13,0s0,0,0,0l.13.08s0,0,0,0-.06.12-.25.17a2.18,2.18,0,0,1-.38.07l-.93,0c-.34,0-.68.06-1,.06-.48,0-1.08-.12-1.55-.18,0,.24-1.1.22-.9.47a2.49,2.49,0,0,0-.81,0c-.1.19-.37.38-1.21.38-.33,0-.82-.18-.94-.16s.4.2.21.24c1.2.22,2.4.37,3.59.49l1.8.16,2,.15,4.78.11c-.17-.31-.84-1.12-1.21-1.6-.22-.28-.46-.53-.68-.79a9.29,9.29,0,0,0-.88-.74,7.15,7.15,0,0,0-1-.6,7,7,0,0,0-.86-.38c-.4-.14-.75-.22-1-.28l-.15,0a5.89,5.89,0,0,0-2.69.09,5.41,5.41,0,0,0-.94.45,2.27,2.27,0,0,1,.44,0,3.09,3.09,0,0,0-.76.29c-.61.4-.18.33.11.36s0,.18.3.15a4.62,4.62,0,0,0-.47.19c0,.06.56-.29.47-.12a2.31,2.31,0,0,0-.55.26c.1,0,.64-.27.65-.16s-.56.11-.55.23.19-.06.27-.1c-.54.28-.73.56-.22.39a5.93,5.93,0,0,0-.56.29h0l.31-.17-.28.17H67a1,1,0,0,0,.23-.11l-.19.11h.21c.24-.08.51-.07.62-.13A6,6,0,0,1,71,96Z" transform="translate(0 0)"/><path class="cls-1" d="M69.64,97.26s0-.07,0-.1.31.09.47,0v-.07l.4.1h.76s0,0,0-.06a2.17,2.17,0,0,1,.4,0h.06a.05.05,0,0,0,0,0l.19,0h.75l3.66.09-3.09-1.44a5.71,5.71,0,0,0-1.82-.51l-.61,0c-.28,0-.63-.09-.9-.09,0,.22-.59.38-.43.6-.17,0-.41,0-.41.12a.79.79,0,0,1-.4.66c-.13.07-.36.08-.4.14s.23,0,.18.14a4.47,4.47,0,0,1,3.06,0,2.17,2.17,0,0,1,.78.33l.72-1.69a19.84,19.84,0,0,0-3.45-.24h-.08a4.29,4.29,0,0,0-1.38.24c-.17.08-.33.18-.49.27l.24.07a.91.91,0,0,0-.41.12c-.35.17-.12.24,0,.36s0,.18.17.22l-.27,0c0,.06.33-.11.27,0a2,2,0,0,0-.33.09c.06.08.39-.06.39,0s-.33,0-.33.06.11,0,.17,0c-.33.1-.48.26-.16.29-.1,0-.26,0-.37.06h0l.21,0-.19,0,0,0a.22.22,0,0,0,.14,0l-.12,0,.13.07a2.55,2.55,0,0,0,.4.09C68.36,97.34,69,97.3,69.64,97.26Z" transform="translate(0 0)"/><path class="cls-1" d="M70.68,94.93s0,.08,0,.1-.14-.13-.24-.12l0,.06-.2-.15-.47-.09a.05.05,0,0,1,0,0c-.06,0-.15-.06-.24-.09h-.05l0,0-.11,0a6.34,6.34,0,0,0-1.71.14l-.36.16c-.18,0-.4,0-.58.07.07.21-.25.44-.09.63-.09,0-.21.09-.18.15a1.32,1.32,0,0,1,.1.58s-.14.07-.13.11.16,0,.18.1a1.8,1.8,0,0,1,1.32-.32,2.53,2.53,0,0,1,1,.12l1.39.4h0a1.41,1.41,0,0,0,1.33-.16.62.62,0,0,1-.16-.1.5.5,0,0,0,.28,0c.25-.14.08-.23,0-.37s0-.18-.1-.24h.16c0-.06-.19.06-.16-.06.07,0,.13,0,.19,0s-.22,0-.22-.1.19.1.19,0-.07,0-.1,0c.19-.06.25-.19.08-.27a.54.54,0,0,0,.18,0h0s-.08,0-.1,0l.09,0,0,0h0l-.07-.08c-.08,0-.16-.15-.19-.15A5,5,0,0,1,70.68,94.93Z" transform="translate(0 0)"/><path class="cls-1" d="M66.71,94.65a.18.18,0,0,1-.06.08c-.06,0,0-.12-.06-.12l0,0a.76.76,0,0,1,0-.15l-.16-.14-.05,0a.28.28,0,0,1,0-.11h0l0,0a.13.13,0,0,1,0-.06,1.63,1.63,0,0,1-.48-.85.77.77,0,0,1-.11-.27,1,1,0,0,1,.11-.38c-.23,0-.26-.37-.5-.37,0-.09.08-.21,0-.23a.62.62,0,0,1-.41-.47c0-.1.13-.2.1-.25s-.17.07-.21,0a5.67,5.67,0,0,0-.47,2.19A6,6,0,0,0,64.57,95a3.47,3.47,0,0,0,1,1.27l0,0a1.38,1.38,0,0,0,1,.3A1.44,1.44,0,0,0,67,96.4l-.15-.12c.11,0,.24,0,.28,0,.24-.14.06-.22,0-.37s0-.17-.08-.23h.12c0-.07-.15.05-.12-.06s.09,0,.14,0-.16,0-.16-.1.13.1.12,0,0,0-.06,0,.12-.18,0-.27.08,0,.11,0h0s0,0-.06,0h.05l0,0,0,0h0L67.06,95s-.08-.16-.09-.16Z" transform="translate(0 0)"/><path class="cls-1" d="M32.38,62.62s.08,0,.1,0,0,.37,0,.57h.06l0,.49.13.91s0,0,.06,0a3.23,3.23,0,0,1,0,.48l0,.08s0,0,0,0v.23l.62,2.74a4.56,4.56,0,0,1,.18.6c0,.3,0,.68,0,1,.22-.06.37.65.59.5,0,.19,0,.48.07.5s.43.18.56.69c0,.2,0,.52,0,.59s.14-.27.2-.16c0-1.51-.11-3-.21-4.48-.12-.51-.46-4-.53-4.87v-.08A6.6,6.6,0,0,0,34,61l-.25-.54c0,.09-.06.18-.09.25a1.1,1.1,0,0,0-.09-.45c-.15-.4-.23-.15-.37,0s-.17,0-.22.17l0-.32c-.06,0,.09.38,0,.31a2.63,2.63,0,0,0-.06-.39c-.08.06,0,.45-.06.44s.07-.37,0-.38,0,.12,0,.19c-.08-.39-.21-.59-.28-.22,0-.12,0-.31,0-.43h0v.24l0-.22,0,0a1,1,0,0,0,0,.17l0-.15a1,1,0,0,0-.08.14,2.14,2.14,0,0,0-.12.47C32.24,61.07,32.3,61.85,32.38,62.62Z" transform="translate(0 0)"/><path class="cls-1" d="M33.11,60.75s.09,0,.1,0c0,.22-.13.38-.1.6l.06,0-.13.5c0,.33,0,.65,0,1,0,0,0,0,0,0a3.31,3.31,0,0,1,0,.5v.09a.05.05,0,0,0,0,0l0,.24c.08.94.19,1.9.31,2.93a5.42,5.42,0,0,1,.14.65c0,.31,0,.71,0,1,.23,0,.34.7.57.55,0,.2,0,.5.05.52s.42.2.55.73c0,.2,0,.52,0,.6s.13-.28.2-.16c.05-1.54,0-3,0-4.57A35.26,35.26,0,0,1,35,61v-.08a9,9,0,0,0,.05-1.54L35,58.8l-.13.24a1.3,1.3,0,0,0,0-.48c-.05-.44-.19-.21-.36-.06s-.17-.06-.26.12l0-.34c-.06,0,0,.42-.11.31a2.58,2.58,0,0,0,0-.4c-.1,0-.09.46-.17.43s.16-.37,0-.4,0,.12,0,.19c0-.42-.07-.66-.23-.29a3.25,3.25,0,0,0,.08-.45h0l-.05.25,0-.24,0,0a.84.84,0,0,0-.05.17l0-.15-.12.12a3.21,3.21,0,0,0-.23.45C33.31,59.12,33.19,59.93,33.11,60.75Z" transform="translate(0 0)"/><path class="cls-1" d="M31.08,59.23c.05,0,.08,0,.11,0s-.07.39,0,.6h.07l-.05.53.13,1s.05,0,.06,0a3.68,3.68,0,0,1,0,.51l0,.09a.07.07,0,0,0,.06,0v.24l.7,2.91a3.93,3.93,0,0,1,.2.64,8.91,8.91,0,0,1,.07,1c.22-.07.4.67.62.51,0,.2,0,.51.1.52s.44.18.61.72c.05.21,0,.55,0,.62S34,68.89,34,69c-.08-1.6-.3-3.12-.44-4.72-.15-.54-.53-4.21-.57-5.15v-.09a8,8,0,0,0-.23-1.56l-.24-.59-.09.27a1.71,1.71,0,0,0-.07-.49c-.14-.42-.23-.16-.38,0s-.17,0-.22.17l0-.34c-.06,0,.07.42,0,.33a3.05,3.05,0,0,0-.05-.41c-.08.06,0,.48-.08.47s.08-.4,0-.41,0,.13,0,.2c-.08-.42-.2-.64-.28-.24a3.73,3.73,0,0,0,0-.47h0v0l0,0a.59.59,0,0,0,0,.19v-.16a1,1,0,0,0-.09.15,2.25,2.25,0,0,0-.13.49C31,57.58,31,58.41,31.08,59.23Z" transform="translate(0 0)"/><path class="cls-1" d="M31.12,58.65s.08,0,.1,0c.05.25-.08.46,0,.71h.07L31.2,60q0,.57.12,1.14s0,0,.05,0a5,5,0,0,1,0,.6l0,.1a.09.09,0,0,0,.06,0v.28c.22,1.09.48,2.19.76,3.38.09.25.18.5.24.74s.09.83.12,1.18c.23-.08.46.76.66.56,0,.23.08.58.14.59.21,0,.45.17.67.77.06.24,0,.62.09.7s.09-.33.17-.21c-.22-1.8-.53-3.51-.73-5.33a43.77,43.77,0,0,1-.54-5.86v-.1a11.2,11.2,0,0,0-.15-1.8l-.2-.69-.11.3a2,2,0,0,0,0-.56c-.11-.5-.22-.22-.38,0s-.17,0-.24.17v-.39c-.07,0,0,.49-.07.38a3.77,3.77,0,0,0,0-.48c-.09.05,0,.54-.11.52s.11-.44,0-.47,0,.15,0,.23c0-.49-.15-.76-.26-.31a4.87,4.87,0,0,0,0-.54h0l0,.3V55l0,0a.76.76,0,0,0,0,.21V55l-.1.16a3.61,3.61,0,0,0-.16.55C31.09,56.72,31.08,57.69,31.12,58.65Z" transform="translate(0 0)"/><path class="cls-1" d="M32,66.61s.08-.09.1,0c0,.41-.09.74,0,1.15l.07,0-.08,1c0,.62.06,1.24.1,1.86,0,0,0,0,.06,0,0,.26,0,.61,0,1v.17s0,0,.06,0v.46l.25,2L34,74.26c-.2-1.1-.37-2.31-.49-3.58a10.74,10.74,0,0,1-.15-1.24c0-.59,0-1.35.09-1.93-.24.08-.25-1.35-.5-1.09a3.7,3.7,0,0,0,0-1c-.18-.11-.39-.44-.36-1.5,0-.42.2-1,.19-1.18s-.22.51-.25.27a41,41,0,0,0-.48,9.13l.24,2.29,1.87-.14c-.2-2.49-.31-6.24-.29-7.48v-.17c0-1,0-2.14-.1-3l-.17-1.14-.12.48a6.53,6.53,0,0,0,0-.93c-.09-.83-.21-.36-.37,0s-.18-.09-.25.27l0-.65c-.07,0,0,.8-.09.62s0-.53,0-.79c-.09.09-.06.9-.14.86s.13-.73,0-.78a1.46,1.46,0,0,0,0,.38c0-.81-.11-1.25-.25-.52,0-.26.07-.61.06-.88h0l0,.49,0-.46-.05.08c0,.11,0,.23,0,.34l0-.3a1.56,1.56,0,0,0-.11.26,8.27,8.27,0,0,0-.2.9C32,63.43,32,65,32,66.61Z" transform="translate(0 0)"/><path class="cls-1" d="M36.18,67.1s-.09,0-.08-.06.22-.26.26-.43l-.06,0,.26-.35c.1-.25.2-.51.28-.76a0,0,0,0,1,0,0A2.52,2.52,0,0,1,37,65L37,65s0,0,0,0l.09-.18c.19-.77.36-1.56.54-2.41a4.63,4.63,0,0,1,.06-.55c.08-.25.24-.54.34-.78-.23,0-.12-.66-.38-.63.07-.15.16-.38.1-.42s-.33-.3-.29-.76c0-.17.21-.39.19-.46s-.21.16-.23,0C36.87,60,36.5,61.15,36,62.34a28.22,28.22,0,0,1-1.56,3.87l0,.07A5,5,0,0,0,34,67.47l0,.52.19-.14a1.09,1.09,0,0,0-.14.37c-.07.37.13.24.33.18s.14.11.27,0l-.13.25s.12-.33.18-.21a1.44,1.44,0,0,0-.13.31c.09,0,.19-.34.26-.28s-.24.23-.15.3.07-.09.1-.14c-.12.33-.11.54.13.31a3.62,3.62,0,0,0-.2.33h0l.11-.18-.09.17h.06l.09-.12-.06.12.14-.06c.13-.11.28-.2.32-.28C35.56,68.32,35.89,67.71,36.18,67.1Z" transform="translate(0 0)"/><path class="cls-1" d="M37.17,70.09s-.09,0-.07-.07c.08-.24.3-.37.38-.62l0,0,.37-.51.49-1.07s0,0,0,0a6.1,6.1,0,0,1,.29-.54l0-.1a.09.09,0,0,0,0-.06l.14-.24,1.24-3.36a6.25,6.25,0,0,1,.23-.77c.15-.35.4-.76.58-1.08-.23-.06.08-.92-.21-.87.12-.21.29-.54.25-.59s-.26-.42-.07-1.06c.1-.24.35-.55.35-.65s-.27.23-.26.07c-.93,1.67-1.69,3.35-2.57,5.06-.21.63-2.18,4.58-2.74,5.57l0,.09a11.67,11.67,0,0,0-.78,1.72l-.16.73.24-.22a1.74,1.74,0,0,0-.24.54c-.15.51.09.29.32.18s.13.12.3,0l-.19.36c.05,0,.2-.46.24-.32s-.14.31-.22.45c.11,0,.29-.49.36-.43s-.32.36-.23.44a.86.86,0,0,0,.13-.21c-.2.47-.23.76.08.4-.07.14-.22.33-.28.48h0l.17-.26-.14.25.06,0a1.27,1.27,0,0,0,.13-.19l-.09.17a.7.7,0,0,0,.16-.1,3.21,3.21,0,0,0,.42-.43Q36.48,71.41,37.17,70.09Z" transform="translate(0 0)"/><path class="cls-1" d="M34.29,71.78" transform="translate(0 0)"/><path class="cls-1" d="M39,66.1s-.08,0-.07-.07.24-.21.29-.38l-.05,0,.29-.3c.12-.23.24-.45.35-.68,0,0,0,0,0,0a3.14,3.14,0,0,1,.22-.34l0-.06a.1.1,0,0,0,0-.05l.11-.15c.27-.7.53-1.43.82-2.21a4,4,0,0,1,.14-.52,5.87,5.87,0,0,1,.43-.67c-.22-.09,0-.65-.27-.67.08-.14.21-.34.16-.38a.73.73,0,0,1-.16-.78c.06-.16.27-.34.26-.41s-.23.12-.23,0c-.7,1-1.24,2.1-1.88,3.18a35,35,0,0,1-2,3.51l0,.06a4.91,4.91,0,0,0-.55,1.1c0,.17-.06.34-.08.5l.2-.11c-.09.13-.18.27-.17.34-.09.35.11.24.31.21s.13.12.27,0l-.15.22c0,.05.14-.3.2-.18a1.56,1.56,0,0,0-.16.28c.09,0,.22-.3.28-.24s-.25.2-.17.27.08-.07.1-.12c-.14.3-.14.51.12.31a2.1,2.1,0,0,0-.22.3h0s.1-.12.13-.16l-.1.16h0a.52.52,0,0,0,.1-.11l-.07.11.14,0c.14-.09.3-.16.34-.23C38.32,67.19,38.69,66.65,39,66.1Z" transform="translate(0 0)"/><path class="cls-1" d="M40.28,60.39s.09,0,.07.07-.27.31-.34.52l.05,0-.33.42-.43.9a0,0,0,0,1,0,0,3.88,3.88,0,0,1-.26.46l0,.08a.06.06,0,0,0,0,0l-.13.21L37.9,66a4.24,4.24,0,0,1-.19.66c-.13.3-.36.64-.51.91.22.07,0,.8.23.78-.1.18-.26.46-.21.5s.27.4.11,1c-.08.2-.31.46-.31.55s.25-.18.25,0c.83-1.39,1.49-2.82,2.27-4.26.17-.54,1.91-3.87,2.4-4.7l0-.08a7.92,7.92,0,0,0,.68-1.46l.13-.63-.22.18a1.43,1.43,0,0,0,.2-.45c.13-.44-.1-.27-.32-.19s-.13-.11-.29,0l.18-.3c-.05,0-.18.39-.23.26a2.69,2.69,0,0,0,.19-.38c-.1,0-.26.41-.32.35s.29-.29.2-.36-.08.11-.12.17c.18-.4.2-.65-.1-.36.07-.12.2-.27.26-.4h0l-.15.22.12-.21h-.06a.91.91,0,0,0-.11.16l.08-.14a.56.56,0,0,0-.16.07,2.81,2.81,0,0,0-.38.35C41.11,58.93,40.68,59.66,40.28,60.39Z" transform="translate(0 0)"/><path class="cls-1" d="M40.76,59.14s.09,0,.08.06-.22.24-.26.42l.05,0-.26.33c-.11.25-.21.49-.3.74,0,0,0,0,0,0a2.18,2.18,0,0,1-.19.37l0,.07a0,0,0,0,0,0,0,1.31,1.31,0,0,1-.09.17c-.22.75-.42,1.52-.65,2.34a3,3,0,0,1-.09.54c-.09.24-.27.52-.38.74.22.06.06.66.33.65-.08.15-.19.37-.14.41a.69.69,0,0,1,.22.77c-.05.17-.23.37-.22.45s.22-.15.23,0c.62-1.12,1.07-2.27,1.63-3.43a36.71,36.71,0,0,1,1.7-3.79l0-.06A5,5,0,0,0,43,58.81c0-.17,0-.34,0-.52l-.19.14a1,1,0,0,0,.14-.37c.06-.36-.13-.23-.33-.17s-.14-.11-.27,0c0-.1.07-.15.13-.25s-.12.32-.18.21a2.88,2.88,0,0,0,.13-.31c-.1,0-.2.33-.27.28s.24-.23.16-.3-.07.09-.1.14c.12-.32.11-.54-.14-.31a3.45,3.45,0,0,0,.2-.32h0s-.1.13-.12.17l.09-.17H42.2l-.08.12.06-.11L42,57.1a2.27,2.27,0,0,0-.33.27C41.38,58,41.06,58.54,40.76,59.14Z" transform="translate(0 0)"/><path class="cls-1" d="M38.79,60s.1,0,.08.08c-.1.26-.32.39-.41.66l0,.05-.38.55c-.17.38-.33.76-.48,1.15,0,0,.05,0,0,.05s-.18.37-.28.59l0,.11a.06.06,0,0,0,0,.05l-.13.28c-.36,1.16-.66,2.36-.93,3.66a6.9,6.9,0,0,1-.12.83c-.1.39-.28.87-.4,1.24.24,0,.1.94.38.82-.08.24-.18.61-.12.65s.34.35.3,1c0,.26-.2.64-.18.73s.21-.3.24-.14c.49-1.88.92-3.7,1.58-5.54A21.59,21.59,0,0,1,39,64a30.75,30.75,0,0,1,1.43-3l0-.1a15.24,15.24,0,0,0,.84-1.74l.22-.73-.26.21a2,2,0,0,0,.28-.54c.2-.51-.06-.31-.3-.21s-.13-.14-.31,0l.23-.36c0-.05-.24.47-.27.31s.17-.31.26-.45c-.11,0-.34.49-.4.42s.35-.35.28-.43-.11.12-.16.2c.25-.47.32-.78,0-.43a4.14,4.14,0,0,0,.34-.48h0l-.2.26.17-.25-.07,0-.14.18.11-.17-.18.1a3.41,3.41,0,0,0-.46.42A31.24,31.24,0,0,0,38.79,60Z" transform="translate(0 0)"/><path class="cls-1" d="M36.94,61.32s.09,0,.08.07c-.07.26-.28.42-.34.69l0,0-.33.58c-.14.39-.27.79-.39,1.18,0,0,.05,0,0,0a5.86,5.86,0,0,1-.24.62l0,.1a.09.09,0,0,0,0,.06l-.11.28c-.28,1.18-.52,2.39-.76,3.7a7.27,7.27,0,0,1-.09.83c-.09.39-.26.87-.37,1.24.23,0,.1,1,.37.82-.07.25-.17.62-.11.66s.34.35.3,1c0,.26-.21.64-.19.74s.21-.3.24-.15c.51-1.89.93-3.74,1.52-5.63a42.55,42.55,0,0,1,2.06-6.05l0-.1a13.86,13.86,0,0,0,.67-1.84l.14-.76-.23.24a2.41,2.41,0,0,0,.22-.57c.13-.53-.1-.3-.33-.18s-.14-.12-.3.07l.19-.39s-.19.5-.24.35.13-.33.21-.48c-.11,0-.28.53-.35.47s.31-.4.22-.47-.09.14-.13.22c.2-.5.23-.81-.09-.42A4.3,4.3,0,0,0,39,57.8h0l-.16.29.13-.28-.06,0a1.06,1.06,0,0,0-.12.2l.08-.18-.16.11a4.27,4.27,0,0,0-.41.48C37.8,59.39,37.34,60.34,36.94,61.32Z" transform="translate(0 0)"/><path class="cls-1" d="M37.68,58.71s.08,0,.08.06-.19.17-.21.3l.05,0-.22.24c-.07.18-.14.36-.2.55,0,0,0,0,0,0a1,1,0,0,1-.14.28v0l0,0a.54.54,0,0,1-.07.13c-.11.57-.19,1.16-.28,1.78a1.93,1.93,0,0,1,0,.42,3.88,3.88,0,0,1-.23.56c.22,0,.18.5.43.5-.05.11-.11.27-.05.3a.69.69,0,0,1,.37.59c0,.12-.15.28-.13.33s.18-.11.22,0c.35-.84.57-1.68.91-2.53a13.19,13.19,0,0,1,1.12-2.72l0,0a3,3,0,0,0,.32-.85v-.39l-.17.08a.56.56,0,0,0,.11-.27c0-.27-.14-.2-.32-.18s-.15-.11-.26,0l.1-.18s-.08.24-.15.14.06-.15.1-.22-.16.23-.23.17.21-.14.13-.2-.06.05-.08.09c.08-.24.06-.41-.15-.26a1.88,1.88,0,0,0,.16-.23h0l-.1.12.07-.12h0a.27.27,0,0,0-.07.08l0-.08-.13,0c-.12.07-.26.11-.29.17A12.62,12.62,0,0,0,37.68,58.71Z" transform="translate(0 0)"/><path class="cls-1" d="M35.65,58.79s.09,0,.09,0-.18.31-.19.48l.06,0-.18.37c-.06.25-.1.5-.14.75,0,0,.05,0,.05,0a2.93,2.93,0,0,1-.11.38v.07a.05.05,0,0,0,0,0l-.06.18-.13,2.33a4.78,4.78,0,0,1,0,.53,6.61,6.61,0,0,1-.22.76c.24,0,.21.61.46.56,0,.15-.11.38-.05.41s.37.25.39.69c0,.17-.16.39-.13.46s.18-.17.22-.07c.37-1.18.57-2.34.87-3.54a33.22,33.22,0,0,1,.85-3.88v0c.11-.34.24-.7.29-.92s0-.23,0-.35l-.17,0c.08-.08.16-.15.16-.2s0-.25-.2-.31-.08-.17-.24-.12a1.25,1.25,0,0,1,.24-.16c0-.07-.27.23-.27.1a3.21,3.21,0,0,1,.3-.21c-.08-.07-.38.2-.41.13s.36-.11.33-.21-.13,0-.18.07c.32-.24.58-.39.12-.36a3.21,3.21,0,0,1,.52-.11h0a2.58,2.58,0,0,0-.29,0,1.17,1.17,0,0,1,.27-.05l-.06,0a.75.75,0,0,0-.21,0l.18,0-.18-.06a1.58,1.58,0,0,0-.64.09A3.57,3.57,0,0,0,35.65,58.79Z" transform="translate(0 0)"/><path class="cls-1" d="M34.59,59.12s.09,0,.09.05-.16.22-.17.37l.06,0-.18.32a4.64,4.64,0,0,0-.11.65s0,0,0,0a3.4,3.4,0,0,1-.09.33V61a.05.05,0,0,0,0,0,.75.75,0,0,1-.05.16c0,.65,0,1.31.1,2a2.62,2.62,0,0,1,.1.45c0,.21-.07.47-.09.67.23,0,.31.49.55.4,0,.13,0,.33,0,.35a.65.65,0,0,1,.52.49c0,.14-.06.34,0,.39s.14-.17.2-.09c.09-1,.08-1.94.22-2.93a12.33,12.33,0,0,1,.59-3.16v-.06a3.14,3.14,0,0,0,.21-1l0-.42-.17.11a.61.61,0,0,0,.08-.3c0-.3-.16-.19-.34-.15s-.16-.08-.27,0l.09-.21c-.06,0-.07.27-.14.18a1.12,1.12,0,0,0,.08-.26c-.09,0-.14.28-.22.24s.2-.2.11-.25-.06.07-.07.11c.06-.27,0-.45-.18-.26a2.29,2.29,0,0,0,.14-.27h0l-.09.15.06-.15h0a.53.53,0,0,0-.06.1l0-.09-.13,0c-.11.1-.25.18-.28.24A12.49,12.49,0,0,0,34.59,59.12Z" transform="translate(0 0)"/><path class="cls-1" d="M33.82,57.83s.08,0,.09,0-.12.16-.1.26l.06,0-.13.21a3.38,3.38,0,0,0,0,.45s.05,0,.05,0a.74.74,0,0,1,0,.23v0l0,0,0,.1c.09.44.2.88.34,1.35a1.92,1.92,0,0,1,.14.29,2.12,2.12,0,0,1,0,.44c.24,0,.35.31.58.24,0,.09,0,.22.06.22a.66.66,0,0,1,.55.3c0,.08,0,.22,0,.25s.13-.12.19-.08c0-.64,0-1.26,0-1.91a6.4,6.4,0,0,1,.14-2.09v0a1.43,1.43,0,0,0,0-.65l-.13-.28-.13.08c0-.08,0-.17,0-.21,0-.2-.19-.12-.36-.09S35,57,34.89,57l0-.14c-.06,0,0,.18-.1.12s0-.12,0-.18-.08.19-.16.16.15-.13,0-.17,0,0,0,.08c0-.19-.06-.31-.22-.17,0-.06.08-.13.08-.2h0l-.05.11,0-.1h0s0,.05,0,.08l0-.07-.12,0c-.08.07-.2.12-.22.17A6.67,6.67,0,0,0,33.82,57.83Z" transform="translate(0 0)"/><path class="cls-1" d="M32.16,58.15s.08,0,.1,0-.08.16,0,.23h.07l-.07.21c0,.12,0,.24.07.36h.06a.6.6,0,0,1,0,.19v0h.05s0,.07,0,.09c.14.36.29.73.42,1.14a1.25,1.25,0,0,1,.12.27,1.34,1.34,0,0,1-.06.4c.23,0,.31.32.55.3,0,.08,0,.2,0,.22a.62.62,0,0,1,.48.4c0,.1-.1.22-.07.26s.16-.09.21,0a7.81,7.81,0,0,0,.22-2c-.06-.25-.17-1.83-.21-2.24v0a1.28,1.28,0,0,0-.2-.65,2.39,2.39,0,0,0-.23-.22l-.09.13c0-.09,0-.17-.07-.2s-.23,0-.37.07-.17,0-.22.11l0-.13c-.07,0,.07.15-.05.14s0-.11,0-.16,0,.19-.07.2.08-.17,0-.16,0,.06,0,.08c-.07-.15-.19-.21-.27,0,0-.05,0-.13,0-.18h0a.33.33,0,0,0,0,.1l0-.09,0,0a.22.22,0,0,0,0,.08v-.06l-.09.07c0,.09-.13.18-.13.22C32.11,57.53,32.13,57.84,32.16,58.15Z" transform="translate(0 0)"/><path class="cls-1" d="M30.36,57.61s.08,0,.1,0-.08.23,0,.35h.06l-.07.3c0,.19,0,.37.08.55,0,0,0,0,.05,0a1.3,1.3,0,0,1,0,.29v0h.05a.61.61,0,0,1,0,.14c.15.53.31,1.07.47,1.67a1.4,1.4,0,0,1,.14.37,2.92,2.92,0,0,1,0,.59c.23,0,.34.41.57.33,0,.12,0,.3,0,.31a.62.62,0,0,1,.53.46c0,.12-.07.31,0,.36s.14-.16.2-.09a19.68,19.68,0,0,0,0-2.77c-.09-.32-.23-2.47-.24-3v-.05a2.68,2.68,0,0,0-.17-.91l-.22-.33a.86.86,0,0,1-.1.16c0-.12,0-.24-.06-.28-.12-.24-.22-.09-.37,0s-.17,0-.23.11v-.2c-.07,0,.06.24-.06.19s0-.15,0-.23,0,.27-.1.27.1-.23,0-.24,0,.08,0,.12c-.06-.24-.17-.35-.27-.12a1.22,1.22,0,0,0,0-.27h0a.76.76,0,0,0,0,.15v-.14l-.05,0a.41.41,0,0,0,0,.11v-.09l-.09.09c-.06.11-.15.22-.14.28Q30.32,56.91,30.36,57.61Z" transform="translate(0 0)"/><path class="cls-1" d="M35.85,57.91s0-.08,0-.09.13.13.22.11l0-.06.18.14.39.05s0-.05,0-.06a1.15,1.15,0,0,1,.21.06h0L37,58l.09,0,1.26-.14a1.92,1.92,0,0,1,.3-.08,2.37,2.37,0,0,1,.47.14c0-.24.29-.29.16-.55h.06s.08-.08.06-.13a3.51,3.51,0,0,1-.12-.62s.09,0,.07,0-.11-.08-.14-.14a.14.14,0,0,0-.1.06h0l-.08,0-.63-.13a8.84,8.84,0,0,1-2-.39h0a1.41,1.41,0,0,0-.64-.06l-.28.12.08.14c-.08,0-.16,0-.2,0-.2.06-.13.19-.1.36s-.06.17,0,.25l-.13,0c0,.07.17,0,.11.11s-.11,0-.17,0,.18.08.16.16S35,56.87,35,57s0,0,.07,0c-.18,0-.29.08-.17.23,0,0-.11-.08-.17-.08h0s.07.05.09.05l-.09,0v0l.06.05-.06,0,0,.11c.06.08.11.2.15.21A6.4,6.4,0,0,0,35.85,57.91Z" transform="translate(0 0)"/><path class="cls-1" d="M35.35,58.34s0-.08,0-.1.2.14.33.12l0-.06.28.14a5.46,5.46,0,0,0,.56,0s0,0,0,0a1.15,1.15,0,0,1,.29.06h0a.05.05,0,0,0,0,0l.13,0c.56,0,1.12-.14,1.73-.23a1.47,1.47,0,0,1,.38-.11,3.68,3.68,0,0,1,.58.07c0-.24.42-.32.35-.56.11,0,.28,0,.3,0a.6.6,0,0,1,.44-.52c.12,0,.29.07.34,0s-.15-.14-.08-.2c-.86-.11-1.7-.09-2.57-.18a12.19,12.19,0,0,1-2.81-.3h0a2.39,2.39,0,0,0-.87-.07l-.36.11a1.34,1.34,0,0,1,.11.14c-.11,0-.22-.06-.27,0-.26,0-.15.19-.09.36s-.06.17,0,.26l-.18-.05c0,.06.23,0,.16.11s-.16,0-.23,0,.25.09.22.17-.19-.16-.22,0,.06,0,.1,0c-.24,0-.39.05-.2.21-.08,0-.17-.09-.25-.09h0l.14.06-.14,0,0,.05.09,0-.09,0,.06.12c.09.09.17.21.22.23A11.4,11.4,0,0,0,35.35,58.34Z" transform="translate(0 0)"/><path class="cls-1" d="M41.5,58.45s.08,0,.08.06-.19.13-.21.25l.05,0L41.2,59c-.08.16-.15.32-.22.48s0,0,0,0a1.14,1.14,0,0,1-.15.24v0l0,0-.08.1c-.14.51-.27,1-.42,1.58a1.48,1.48,0,0,1,0,.38,3.64,3.64,0,0,1-.3.46c.21.09.11.5.35.54-.06.1-.15.24-.09.28a.63.63,0,0,1,.26.61c0,.11-.19.22-.18.28s.2-.06.22,0c.48-.7.82-1.45,1.25-2.18a15.59,15.59,0,0,1,1.28-2.43l0,0a2.27,2.27,0,0,0,.34-.77c0-.12,0-.25,0-.37l-.16.06a.42.42,0,0,0,.1-.24c0-.25-.14-.2-.32-.2s-.14-.1-.25,0l.1-.16s-.08.22-.15.12.06-.14.1-.2-.15.2-.22.15.2-.12.12-.19-.06.05-.08.08c.08-.21,0-.37-.15-.25,0-.06.13-.12.15-.2h0a1.06,1.06,0,0,1-.09.11l.07-.11h0a.16.16,0,0,0-.07.07l0-.07h-.12c-.11.05-.25.08-.28.13C42,57.71,41.73,58.07,41.5,58.45Z" transform="translate(0 0)"/><path class="cls-1" d="M41.08,59.44s.09,0,.07.07-.26.21-.33.38l0,0-.32.3a7.76,7.76,0,0,0-.4.69s0,0,0,0a2.43,2.43,0,0,1-.24.34l0,.07a.09.09,0,0,0,0,.05l-.12.15c-.31.72-.6,1.46-.91,2.26a2.74,2.74,0,0,1-.15.53c-.11.23-.31.49-.44.7.22.09,0,.67.28.68-.09.14-.22.35-.17.39a.71.71,0,0,1,.18.79c-.06.16-.26.35-.25.42s.23-.13.24,0c.66-1.07,1.2-2.16,1.86-3.24a25.52,25.52,0,0,1,2.16-3.47l0-.06a5.78,5.78,0,0,0,.65-1.07l.13-.49-.21.09c.1-.13.2-.25.2-.33.13-.34-.08-.25-.28-.23s-.12-.14-.27-.05l.17-.22s-.17.29-.22.17a1.42,1.42,0,0,0,.2-.28c-.1,0-.26.29-.32.22s.28-.18.21-.26-.09.07-.12.12c.17-.3.2-.51-.08-.33a3.45,3.45,0,0,0,.26-.28h0l-.14.15.12-.15h-.06a.52.52,0,0,0-.11.1l.08-.1-.14,0a1.82,1.82,0,0,0-.38.2C41.9,58.36,41.47,58.89,41.08,59.44Z" transform="translate(0 0)"/><path class="cls-1" d="M33.22,73.33s.08,0,.07.07-.23.16-.3.3l0,0h0l1.62.68h0v-.1l0-.1.06-.23,0-.84s0,0,0,0a2,2,0,0,1,.06-.44v-.07s0,0,0,0l0-.2c0-.83-.06-1.67,0-2.59a4,4,0,0,1,0-.59,6.11,6.11,0,0,1,.19-.87c-.24,0-.21-.67-.47-.59,0-.18.11-.44,0-.47s-.37-.27-.38-.77c0-.19.17-.45.14-.53s-.19.21-.23.09a33.71,33.71,0,0,0-.81,4.12c0,.43-.28,2.89-.38,4.1L32.61,77l1.8-2.08c.16-.18.28-.33.36-.44l0-.08a3.32,3.32,0,0,0,.61-1.5,3.43,3.43,0,0,0,0-.64,1.34,1.34,0,0,1-.16.23A1.16,1.16,0,0,0,35.3,72c0-.43-.19-.19-.36-.07s-.17-.06-.27.09l0-.29c-.06,0,0,.36-.11.27a1.39,1.39,0,0,0,0-.35c-.09,0-.09.39-.17.35s.16-.29.05-.33,0,.11,0,.16c0-.35-.1-.52-.23-.24a2,2,0,0,0,.05-.35h0l0,.2v-.19l0,0a.31.31,0,0,0,0,.13v-.12l-.1.1c-.08.14-.19.25-.2.33A4.62,4.62,0,0,1,33.22,73.33Z" transform="translate(0 0)"/><path class="cls-1" d="M14,70.8s-.06-.1.08-.07c.41.1.69.34,1.1.44l.05-.06.93.42,1.84.56s0,0,.05,0c.26.07.6.2,1,.33l.16,0a.12.12,0,0,0,.08,0l.43.16c1.82.44,3.67.86,5.67,1.3.43.07.87.13,1.27.22.6.15,1.35.41,1.93.58,0-.24,1.41,0,1.2-.26a3.66,3.66,0,0,0,1,.23c.15-.17.5-.3,1.56-.14.41.08,1,.33,1.15.33s-.48-.27-.24-.28c-3-.86-5.85-1.59-8.82-2.49-1.05-.18-7.86-2.33-9.57-3L14.69,69c-.94-.34-2.09-.73-2.91-.93l-1.17-.23.43.28a6.54,6.54,0,0,0-.91-.3c-.84-.2-.42.08-.17.34s-.14.13.19.33l-.63-.24c0,.05.79.25.58.29-.24-.11-.52-.18-.77-.27.06.11.86.35.79.42s-.66-.37-.75-.29.23.11.36.16c-.79-.25-1.25-.31-.58.06-.25-.1-.58-.27-.84-.35h0l.46.2-.44-.16.06.07.33.15-.29-.12a2,2,0,0,0,.21.19c.32.19.62.41.81.49C11,69.68,12.48,70.27,14,70.8Z" transform="translate(0 0)"/><path class="cls-1" d="M13.62,71.67s0-.1.07-.09c.39.07.66.29,1.05.36l0-.06.89.35,1.73.43s0,0,.05,0c.24,0,.57.16.91.26l.15,0a.09.09,0,0,0,.07,0L19,73l5.33,1c.41,0,.82.1,1.2.18.56.13,1.26.37,1.8.53,0-.25,1.33,0,1.13-.29a3.31,3.31,0,0,0,.95.21c.13-.17.47-.31,1.46-.15.39.07.94.31,1.09.31s-.45-.27-.23-.27c-2.77-.84-5.49-1.51-8.3-2.29-1-.16-7.45-1.91-9.1-2.42l-.15,0a27.4,27.4,0,0,0-2.79-.68L10.27,69l.42.23A5.38,5.38,0,0,0,9.82,69c-.79-.12-.39.12-.13.35s-.13.15.19.31l-.6-.18c0,.06.75.18.55.23s-.49-.12-.73-.19c.06.11.83.26.76.34s-.64-.3-.72-.21a1.31,1.31,0,0,0,.35.12c-.75-.17-1.19-.19-.54.12-.24-.07-.56-.21-.81-.26h0c.12,0,.33.12.45.15l-.43-.12.07.06.31.12-.28-.09a1.93,1.93,0,0,0,.21.17,7.33,7.33,0,0,0,.79.4C10.71,70.81,12.16,71.26,13.62,71.67Z" transform="translate(0 0)"/><path class="cls-1" d="M15,72.42s0-.11.09-.07c.44.14.73.41,1.16.55l.06-.05,1,.52c.65.27,1.3.52,2,.77,0,0,0-.06.06,0,.27.1.63.27,1,.43l.18.06a.1.1,0,0,0,.08,0l.47.21a46.13,46.13,0,0,0,6.23,1.54l1.43.13a8.7,8.7,0,0,0,2.28,0c-.07-.1.31-.25.61-.44s.55-.41.36-.44c.38-.16.87-.55.84-.63s.09-.56.31-1.37a1.65,1.65,0,0,0,.1-.85c-.08-.15-.1.39-.18.23a2,2,0,0,1-.71,1.41,2.9,2.9,0,0,1-1.65.75,11.76,11.76,0,0,1-4.53-.63A34.53,34.53,0,0,1,21.33,73c-2.16-.84-4.42-1.83-5.34-2.23l-.17-.07a28.62,28.62,0,0,0-3.18-1.18l-1.28-.28.48.3a4.93,4.93,0,0,0-1-.32c-.92-.22-.45.06-.16.33s-.14.13.21.33l-.68-.24s.86.26.63.3a7.52,7.52,0,0,0-.84-.28c.07.11.94.36.87.43s-.73-.39-.82-.3a1.89,1.89,0,0,0,.39.16c-.85-.26-1.35-.29-.62.06-.26-.09-.63-.25-.91-.33h0l.5.2-.48-.17.07.08.36.14L9,69.77l.24.19c.36.19.69.4.89.47C11.79,71.05,13.4,71.73,15,72.42Z" transform="translate(0 0)"/><path class="cls-1" d="M6,71.64s.1,0,.06.09-.39.28-.55.49l0,.06a4.24,4.24,0,0,1-.56.3,1.75,1.75,0,0,1-.25.16c-.08.05,0,0,0,0l0,0a.41.41,0,0,0,0,.07s-.06,0-.08,0l0,0L4.41,73s0,0,0,0a2.64,2.64,0,0,1-.44.16c-.25.07-.22,0-.23,0a1.62,1.62,0,0,1,.36-.65,1.22,1.22,0,0,1,.16-.27c.1-.14.2-.26.3-.38.32-.34.78-.73,1.12-1-.22-.11.51-1,.18-1,.23-.21.56-.52.53-.58s-.07-.51.43-1.16c.21-.24.61-.51.66-.62s-.39.18-.3,0c-.87.79-1.7,1.59-2.52,2.39L1.09,73.31c-.05.06-.16.16-.24.26l-.14.27-.43.76L0,75.06a5.35,5.35,0,0,0,.77.1c.53,0,1,.12,1.57.12A6.89,6.89,0,0,0,4.2,75a6.14,6.14,0,0,0,1-.37c.15-.07.34-.16.44-.22l.27-.16A6.91,6.91,0,0,0,7.37,73l.09-.11A5.19,5.19,0,0,0,8.61,70.5a5.8,5.8,0,0,0,0-1,2.38,2.38,0,0,1-.18.39,2.15,2.15,0,0,0,.07-.78c-.07-.71-.19-.3-.36-.06s-.17-.07-.26.2c0-.2,0-.3,0-.5-.05,0,0,.61-.1.47a2.4,2.4,0,0,0,0-.6c-.08.07-.06.67-.15.63s.15-.53,0-.57,0,.19,0,.28c0-.59-.16-.88-.24-.37a3.14,3.14,0,0,0,0-.61h0v.34l0-.32,0,.06v0a1.5,1.5,0,0,0-.09.18c0,.25-.15.47-.16.6A5.26,5.26,0,0,1,6,71.64Z" transform="translate(0 0)"/><path class="cls-1" d="M5.07,73.69s-.07,0-.06-.08.18,0,.22-.14l0,0,.21-.09A4,4,0,0,0,5.66,73s0,0,0,0,.09-.1.16-.15v0a.08.08,0,0,0,0-.05l.08-.06.6-1.17a1.24,1.24,0,0,1,.1-.29,1.81,1.81,0,0,1,.34-.28c-.17-.16,0-.45-.21-.59.07,0,.17-.13.13-.19a.62.62,0,0,1-.11-.61c0-.09.21-.12.21-.17s-.18,0-.18-.11a15.35,15.35,0,0,0-1.51,1.39,14,14,0,0,1-1.52,1.65l0,0a1.56,1.56,0,0,0-.4.56,3.11,3.11,0,0,0,0,.32H3.4c-.07.07-.13.13-.12.18-.06.21.1.21.27.26s.11.13.22.12l-.11.1s.1-.16.15-.05-.07.09-.11.14.16-.13.22-.07-.2,0-.13.13.06,0,.08,0c-.1.16-.08.3.11.26,0,0-.13.07-.15.12h0l.09-.06-.07.07,0,0s.06,0,.07,0l0,0a.35.35,0,0,0,.11,0c.11,0,.23,0,.26,0A8.72,8.72,0,0,0,5.07,73.69Z" transform="translate(0 0)"/><path class="cls-1" d="M44.29,52.48s-.06.13-.11,0a15.08,15.08,0,0,0-.35-1.62l-.07,0c-.12-.44-.25-.9-.41-1.36a5.73,5.73,0,0,0-.75-1.31,3.52,3.52,0,0,0-1.33-1s0,.06-.08,0a8.09,8.09,0,0,0-1.46-.47l-.23,0a.14.14,0,0,0-.1,0l-.62-.11a7.2,7.2,0,0,0-2.06.06,4.34,4.34,0,0,0-2,.94,9,9,0,0,0-2.33,3.39c-.2.55-.39,1.1-.56,1.62A23.56,23.56,0,0,0,31,55.1c.23-.07,0,1.84.31,1.49a4.32,4.32,0,0,0-.09,1.33c.2.13.36.54.52,1.86a12.66,12.66,0,0,0,.12,1.49c.1.28.06-.68.15-.4a16.72,16.72,0,0,1,2.54-10.76,4.64,4.64,0,0,1,1.3-1.4,2.72,2.72,0,0,1,1.3-.45,7.4,7.4,0,0,1,1.82.12,4.71,4.71,0,0,1,1.66.51A2.29,2.29,0,0,1,41.53,50a11.43,11.43,0,0,1,.8,2.55c0,.07,0,.14.05.2a20.9,20.9,0,0,1,.29,3.76c0,.48,0,1,0,1.47l.21-.6c-.07.5-.19,1-.19,1.19-.18,1.07.08.52.35.14s.14.15.32-.31c-.07.35-.13.51-.22.85.06.06.23-1.06.27-.8s-.16.71-.26,1.05c.14-.09.35-1.18.41-1.11s-.35.94-.27,1a2.91,2.91,0,0,0,.16-.5c-.25,1.07-.37,1.69.06.75-.1.34-.32.8-.44,1.15h0l.27-.63-.23.6.08-.09a4.68,4.68,0,0,0,.19-.45l-.15.4a2.77,2.77,0,0,0,.22-.31A7.09,7.09,0,0,0,44,59.21,14.86,14.86,0,0,0,44.29,52.48Z" transform="translate(0 0)"/><path class="cls-1" d="M33.2,53.56s-.1,0-.09-.07c.07-.31.29-.49.37-.78l-.06-.05c.12-.2.26-.41.4-.61a8.46,8.46,0,0,1,.68-1.13s0,0,0-.06a2.66,2.66,0,0,1,.47-.51l.07-.09a.08.08,0,0,0,0-.07c.09-.07.17-.15.25-.2a5,5,0,0,1,1.55-1.14,3.08,3.08,0,0,1,.86-.27,1.38,1.38,0,0,1,.8.33,4.66,4.66,0,0,1,.81.56,6.77,6.77,0,0,1,.95,1.2c.16-.21.85.72.93.42.16.28.36.72.43.72s.54.12.94.95c.14.34.19.89.25,1s0-.49.14-.31A10.14,10.14,0,0,0,40,48.3c-.25-.23-.49-.45-.77-.67a2.82,2.82,0,0,0-1.29-.6,2.78,2.78,0,0,0-.83,0,5.67,5.67,0,0,0-1,.31,7.1,7.1,0,0,0-2.26,1.48,10.37,10.37,0,0,0-2.41,3.9l0,.13a10.21,10.21,0,0,0-.56,2.47c0,.32,0,.64,0,1L31,56a3.07,3.07,0,0,0-.11.76c0,.68.15.33.36.1s.16.09.28-.18l-.11.52c.06,0,.09-.65.17-.49a4.58,4.58,0,0,0-.1.63c.09,0,.16-.71.24-.66s-.23.57-.12.62a1.66,1.66,0,0,0,.07-.3c-.05.35,0,.53,0,.58s.09,0,.16-.16c0,.15-.06.25,0,.34h0s-.05-.12-.05-.16a.28.28,0,0,0,.06.15l0,0a.41.41,0,0,1,0-.11.16.16,0,0,0,0,.09.16.16,0,0,1,.07-.09.89.89,0,0,0,.22-.42A33.19,33.19,0,0,1,33.2,53.56Z" transform="translate(0 0)"/><path class="cls-1" d="M40.05,52s.06-.07.1,0,0,.35.12.53h.07l0,.48c.07.28.17.56.24.84,0,0,0,0,.06,0s0,.29.07.46l0,.08,0,0v.21a12.17,12.17,0,0,1,.44,2.74,3.47,3.47,0,0,1,.06.64,4.39,4.39,0,0,1-.23.95c.25,0,.15.75.41.67-.06.2-.16.49-.11.53s.33.33.22.91c-.07.22-.28.49-.28.58s.25-.2.25-.06a11.6,11.6,0,0,0,1.2-4.83,23,23,0,0,0-.21-2.55,16.23,16.23,0,0,0-.69-2.78l0-.08a4.94,4.94,0,0,0-.77-1.46,4.67,4.67,0,0,0-.5-.49,2.37,2.37,0,0,1,.06.31,1.14,1.14,0,0,0-.36-.44c-.47-.33-.29,0-.29.23s-.15.08-.09.26a1.55,1.55,0,0,0-.21-.23c-.05,0,.29.25.15.26a1,1,0,0,0-.26-.24c0,.08.26.3.17.35s-.12-.32-.21-.24.05.08.09.12c-.28-.21-.38-.09-.3.08,0,0-.09-.11-.17-.11h0l.09.06-.09,0v0l.05.05-.05,0s0,.07,0,.1,0,.19,0,.22a5.37,5.37,0,0,1,.42.82C39.78,51.27,39.92,51.61,40.05,52Z" transform="translate(0 0)"/><path class="cls-1" d="M40.24,52.49s.08,0,.09,0-.12.25-.09.4l.06,0c0,.11-.08.22-.12.34s0,.44,0,.67c0,0,0,0,0,0a1.56,1.56,0,0,1,0,.35v.06s0,0,0,0a.45.45,0,0,1,0,.16c.08.65.17,1.32.26,2a2.68,2.68,0,0,1,.11.45,3.83,3.83,0,0,1-.09.69c.24,0,.3.51.55.43,0,.14-.05.35,0,.36a.66.66,0,0,1,.49.56c0,.14-.09.36,0,.41s.15-.17.21-.09c.16-1.06.17-2.11.26-3.19a26.25,26.25,0,0,1,.2-3.49v-.06a3.83,3.83,0,0,0,0-1.07,3.52,3.52,0,0,0-.15-.42l-.12.16c0-.14,0-.28,0-.33-.07-.31-.2-.15-.37,0s-.17,0-.25.08c0-.09,0-.14,0-.23s0,.29-.09.21a1.29,1.29,0,0,0,0-.28c-.09,0-.06.32-.15.3s.15-.25,0-.28,0,.09,0,.13c0-.29-.1-.45-.24-.2a1.7,1.7,0,0,0,.06-.31h0a1.36,1.36,0,0,0,0,.17l0-.16,0,0a.56.56,0,0,0,0,.12l0-.1-.11.08c-.08.12-.2.24-.2.3C40.38,51.37,40.29,51.93,40.24,52.49Z" transform="translate(0 0)"/><path class="cls-1" d="M40.71,52.17s.09,0,.1,0-.11.21-.09.34h.07l-.12.29,0,.55h.06a2,2,0,0,1-.05.29v0l0,0a.58.58,0,0,1,0,.14c.06.54.13,1.11.18,1.72a3.14,3.14,0,0,1,.08.4,3.65,3.65,0,0,1-.14.57c.23,0,.26.46.5.43,0,.11-.07.29,0,.31a.6.6,0,0,1,.43.54c0,.13-.12.3-.09.35s.17-.12.21,0a18.16,18.16,0,0,0,.53-2.74c0-.33.2-2.48.27-3v0a2.4,2.4,0,0,0,0-.93,2.83,2.83,0,0,0-.16-.36l-.12.14a.51.51,0,0,0,0-.29c-.09-.26-.21-.12-.37,0s-.17,0-.25.08l0-.2c-.06,0,0,.25-.08.19s0-.17,0-.24-.05.27-.13.25.12-.21,0-.23,0,.07,0,.11c0-.24-.12-.38-.24-.17a2,2,0,0,0,0-.26h0a.8.8,0,0,0,0,.15v-.14l0,0a.45.45,0,0,0,0,.11v-.09l-.11.07c-.07.1-.18.2-.18.26C40.82,51.24,40.76,51.71,40.71,52.17Z" transform="translate(0 0)"/><path class="cls-1" d="M39,51.81s.08,0,.09,0-.15.26-.14.42l.06,0c0,.11-.11.23-.16.35s-.07.48-.09.72c0,0,.05,0,.05,0a2.27,2.27,0,0,1-.08.37v.06a.05.05,0,0,0,0,0,.69.69,0,0,1,0,.17c0,.71,0,1.43,0,2.21a3,3,0,0,1,.06.5,6.11,6.11,0,0,1-.17.74c.23,0,.24.57.49.5,0,.15-.08.37,0,.39a.69.69,0,0,1,.42.65c0,.15-.13.37-.1.44s.18-.18.22-.08c.29-1.13.42-2.24.64-3.39a30.61,30.61,0,0,1,.62-3.72V52.2A4.25,4.25,0,0,0,41,51.05c0-.15-.06-.31-.09-.47a1.17,1.17,0,0,1-.15.16.83.83,0,0,0,0-.36c0-.33-.19-.17-.36-.08s-.17-.07-.26.06l.05-.25c-.06,0,0,.31-.12.22a1,1,0,0,0,0-.3c-.09,0-.1.34-.18.31s.17-.26.07-.3-.05.09-.06.14c0-.31,0-.49-.21-.24a3.18,3.18,0,0,0,.1-.33h0s-.05.14-.06.18l0-.17,0,0a.5.5,0,0,0-.05.13l0-.12-.12.08a1.87,1.87,0,0,0-.24.31C39.23,50.63,39.08,51.22,39,51.81Z" transform="translate(0 0)"/><path class="cls-1" d="M37.83,51.28s.09,0,.09,0-.16.23-.16.38l.06,0-.18.32-.12.65s0,0,0,0a1.53,1.53,0,0,1-.1.34v0s0,0,0,0a.88.88,0,0,1,0,.15l-.09,2.05a2.53,2.53,0,0,1,0,.47,5.16,5.16,0,0,1-.2.67c.23,0,.21.55.46.52,0,.13-.1.33,0,.36A.7.7,0,0,1,38,58c0,.15-.15.34-.12.41s.18-.15.22,0c.34-1,.52-2.07.8-3.13a25.09,25.09,0,0,1,.79-3.44v-.06a3.81,3.81,0,0,0,.18-1.07l-.08-.44a1.06,1.06,0,0,1-.15.15.63.63,0,0,0,.05-.33c0-.31-.18-.17-.36-.1s-.16-.06-.26,0l.07-.23c-.07,0,0,.29-.13.2a2.3,2.3,0,0,0,.06-.28c-.1,0-.12.31-.2.28s.18-.23.08-.27,0,.08-.06.12c0-.28,0-.45-.2-.23a2.49,2.49,0,0,0,.11-.29h0l-.07.16,0-.16-.06,0a.54.54,0,0,0-.05.11l0-.1-.12.07c-.1.11-.24.2-.26.27C38.15,50.21,38,50.74,37.83,51.28Z" transform="translate(0 0)"/><path class="cls-1" d="M38.38,52.39s.08,0,.1,0-.08.24,0,.37h.06l-.07.32.06.59s0,0,0,0a1.11,1.11,0,0,1,0,.31v.05s0,0,.05,0a.68.68,0,0,1,0,.15,18.76,18.76,0,0,1,.28,1.86,1.63,1.63,0,0,1,.08.42,3.31,3.31,0,0,1-.14.64c.23,0,.24.51.49.46,0,.13-.09.33,0,.35a.64.64,0,0,1,.4.62c0,.15-.15.34-.13.4s.18-.14.22,0a12.85,12.85,0,0,0,.62-3.14c0-.19,0-.9,0-1.65s0-1.52,0-1.84v-.06a3.43,3.43,0,0,0-.21-1c-.08-.12-.16-.25-.25-.37,0,.07-.05.13-.08.19a.68.68,0,0,0-.09-.32c-.15-.26-.23-.08-.36,0s-.18,0-.23.14l0-.22c-.07,0,.08.26,0,.22s-.05-.17-.06-.26,0,.3-.07.3.07-.25,0-.25,0,.08,0,.13c-.08-.26-.21-.38-.28-.12a2.83,2.83,0,0,0,0-.29h0s0,.12,0,.16l0-.14,0,0a.49.49,0,0,0,0,.12v-.1l-.09.1a2.93,2.93,0,0,0-.12.32Z" transform="translate(0 0)"/><path class="cls-1" d="M39,53s.08,0,.1,0-.06.22,0,.32h.07l-.06.29.1.51s0,0,.06,0a1.15,1.15,0,0,1,0,.27v.05h.05v.13c.15.5.31,1,.43,1.6a1.49,1.49,0,0,1,.13.37,2.7,2.7,0,0,1-.08.57c.24,0,.3.43.54.38,0,.11-.06.29,0,.3a.64.64,0,0,1,.46.53c0,.13-.11.3-.08.36s.16-.14.21-.06a11.6,11.6,0,0,0,.29-2.82c0-.17-.07-.8-.14-1.46l-.18-1.62v-.05a2.56,2.56,0,0,0-.27-.9,3.88,3.88,0,0,0-.26-.31l-.08.18c0-.12,0-.24-.1-.27-.16-.23-.23,0-.36.08s-.17,0-.22.14l0-.19c-.06,0,.1.22,0,.2s-.06-.15-.07-.23,0,.27,0,.28.06-.24-.05-.22,0,.07,0,.11c-.09-.22-.23-.31-.29-.08a.72.72,0,0,0,0-.25h0s0,.11,0,.14l0-.12,0,0v0a.39.39,0,0,0-.08.1c0,.11-.12.23-.1.29Z" transform="translate(0 0)"/><path class="cls-1" d="M37.82,50.4s.09,0,.08.06-.2.21-.24.37l.06,0-.24.3c-.09.22-.18.44-.25.66,0,0,.05,0,0,0a2,2,0,0,1-.16.33v.06s0,0,0,0l-.08.15c-.16.68-.28,1.38-.41,2.13a2.48,2.48,0,0,1,0,.48,5.11,5.11,0,0,1-.28.68c.23.05.16.59.41.56,0,.14-.13.34-.07.37a.68.68,0,0,1,.34.67c0,.15-.17.34-.15.41s.19-.14.22-.05c.42-1,.7-2,1.11-3.07a19.39,19.39,0,0,1,1.34-3.32l0,0a4.13,4.13,0,0,0,.4-1l0-.45-.18.1a.71.71,0,0,0,.13-.32c0-.31-.13-.21-.32-.18s-.15-.11-.27,0l.12-.21c-.05,0-.11.28-.17.17a1.11,1.11,0,0,0,.12-.27c-.09,0-.18.29-.25.23s.23-.18.14-.25-.06.07-.09.11c.11-.28.1-.47-.14-.28a2.75,2.75,0,0,0,.19-.28h0l-.11.15.08-.15h0l-.09.11.06-.1-.14,0c-.12.09-.27.15-.31.22A14.88,14.88,0,0,0,37.82,50.4Z" transform="translate(0 0)"/><path class="cls-1" d="M35.42,50.66s.09,0,.08.06-.25.28-.29.48l0,0-.28.38c-.11.27-.2.54-.29.81,0,0,0,0,0,0a3.29,3.29,0,0,1-.18.42l0,.07,0,0-.09.19c-.18.82-.33,1.66-.47,2.57a3.63,3.63,0,0,1,0,.58,7.49,7.49,0,0,1-.27.84c.23,0,.16.68.42.61-.05.17-.12.42-.06.45s.36.28.37.75c0,.18-.16.43-.14.5s.19-.2.23-.09c.37-1.26.64-2.51,1.07-3.77a19.77,19.77,0,0,1,1.51-4l0-.06a10.76,10.76,0,0,0,.54-1.07l.14-.46-.21.07c.11-.12.22-.23.23-.3.17-.31,0-.27-.25-.28s-.1-.15-.27-.07l.22-.21c0-.06-.24.28-.26.15a3.31,3.31,0,0,0,.26-.27c-.1,0-.33.28-.37.21s.32-.17.27-.26-.11.06-.15.11c.25-.29.36-.52,0-.36.1-.09.27-.17.37-.26h0l-.21.14.18-.14h-.06l-.15.09.12-.1h-.17a1.86,1.86,0,0,0-.47.19A6.73,6.73,0,0,0,35.42,50.66Z" transform="translate(0 0)"/><path class="cls-1" d="M33.89,50.81s.09,0,.09.06-.21.26-.24.43l0,0-.24.35c-.09.24-.17.49-.25.74,0,0,.05,0,0,0a2.58,2.58,0,0,1-.16.37l0,.07,0,0-.08.17-.5,2.36a3.19,3.19,0,0,1-.06.54,7.11,7.11,0,0,1-.33.75c.23,0,.11.65.37.62-.07.15-.16.38-.11.42a.55.55,0,0,1,.22.25.65.65,0,0,1,.06.21s.16.29-.28.1a.83.83,0,0,0-.34,0h0l0,.06h0c0-.07-.11-.07,0-.05a.1.1,0,0,0,.06,0s0,0,0,.07l.24.69h0v0h0l-.25-.76s0,0,0,0,0,0,0,0H32s.08.11.07,0h0l0-.06h0l0,0a.86.86,0,0,1,.3,0l.17.05.08,0,.28.11v0l.18-.43.34-.87.68-1.76a37.68,37.68,0,0,1,1.45-3.85l0-.06a10.61,10.61,0,0,0,.41-1,2.57,2.57,0,0,1,.08-.38l-.18,0c.08-.09.18-.16.19-.22.15-.22,0-.26-.21-.31s-.08-.16-.25-.11a1.31,1.31,0,0,1,.24-.17c0-.07-.27.24-.27.11a3.3,3.3,0,0,1,.3-.22c-.09-.07-.38.21-.41.14s.35-.12.32-.22-.12,0-.18.08c.31-.25.55-.42.1-.36a4.13,4.13,0,0,1,.5-.15h0a1.4,1.4,0,0,0-.28.06,1.53,1.53,0,0,1,.26-.08l-.06,0a.71.71,0,0,0-.2,0l.17,0a.48.48,0,0,0-.18,0,1.29,1.29,0,0,0-.6.12A4.15,4.15,0,0,0,33.89,50.81Z" transform="translate(0 0)"/><path class="cls-1" d="M33.41,51s.09,0,.09,0-.2.2-.22.35l.06,0-.21.28c-.07.21-.12.42-.17.63,0,0,0,0,0,0a2,2,0,0,1-.11.32v.05a.1.1,0,0,0,0,0l-.06.14a11.66,11.66,0,0,0,.06,1.95,2.38,2.38,0,0,1,.11.42A4.48,4.48,0,0,1,33,56c.23,0,.35.44.58.35,0,.12,0,.3.06.31a.66.66,0,0,1,.56.4c0,.12,0,.31,0,.35s.13-.17.19-.11a16.16,16.16,0,0,1,.06-2.6,5.27,5.27,0,0,1,.18-1.35,6.33,6.33,0,0,1,.53-1.43v-.05a3.12,3.12,0,0,0,.31-.83v-.39l-.17.07a.48.48,0,0,0,.12-.26c0-.15,0-.14-.08-.19s-.14,0-.23,0-.14-.11-.26-.05L35,50c-.06,0-.1.25-.17.14s0-.14.16-.25c-.14,0-.21.26-.28.2s.21-.12.16-.24-.1.1-.11.12a.7.7,0,0,1,.14-.24.58.58,0,0,1,.41-.18c.4.13-.07-.32-.57,0a.72.72,0,0,1,.32-.16.61.61,0,0,1,.27,0,.66.66,0,0,1,.41.26.62.62,0,0,1,0,.64.61.61,0,0,1-.33.31.63.63,0,0,1-.43,0,.81.81,0,0,1-.23-.16h0a.61.61,0,0,0,.25.17.64.64,0,0,0,.49,0,.71.71,0,0,0,.29-.35.63.63,0,0,0,0-.34.64.64,0,0,0-.26-.4.62.62,0,0,1,.25.71.57.57,0,0,1-.16.29.72.72,0,0,1-.33.18.63.63,0,0,1-.45-.1.57.57,0,0,0,.27.12.57.57,0,0,0,.37,0,.72.72,0,0,0,.38-.49.68.68,0,0,0-.16-.61.73.73,0,0,1,0,1,1,1,0,0,0,.22-.32.79.79,0,0,0,0-.49.86.86,0,0,0-.57-.49,1,1,0,0,0-.42,0,1.2,1.2,0,0,0-.47.22,2.23,2.23,0,0,0-.24.22A7.77,7.77,0,0,0,33.41,51Z" transform="translate(0 0)"/><path class="cls-1" d="M36.12,51.23s.08,0,.09,0-.12.22-.09.35l.06,0-.12.29a5.62,5.62,0,0,0,0,.58s.05,0,.05,0a1.25,1.25,0,0,1-.05.3v0s0,0,.05,0,0,.1,0,.14l.19,1.8a2.17,2.17,0,0,1,.09.41,3,3,0,0,1-.12.6c.23,0,.27.46.52.41,0,.12-.06.3,0,.32a.64.64,0,0,1,.46.54c0,.13-.11.31-.08.36s.16-.14.21-.06a24.12,24.12,0,0,0,.43-2.81A27.1,27.1,0,0,1,38,51.48v0a3,3,0,0,0,0-1c0-.13-.1-.25-.16-.38l-.12.15c0-.13,0-.25,0-.3-.08-.27-.2-.13-.37,0s-.17,0-.25.06l0-.2c-.07,0,0,.25-.09.19a1,1,0,0,0,0-.25c-.09,0-.06.28-.15.26s.14-.22,0-.24,0,.07,0,.11c0-.25-.11-.39-.24-.18a1.08,1.08,0,0,0,.05-.27h0l0,.15,0-.14,0,0a.23.23,0,0,0,0,.11v-.1l-.11.08c-.08.1-.19.2-.2.26C36.25,50.26,36.17,50.74,36.12,51.23Z" transform="translate(0 0)"/><path class="cls-1" d="M36.85,50.41s.08,0,.09,0-.13.16-.12.26l.06,0-.15.21a3.87,3.87,0,0,0-.06.46.05.05,0,0,1,0,0,1,1,0,0,1-.07.23v0l.05,0a.93.93,0,0,1-.05.1l.09,1.47a2.58,2.58,0,0,1,.07.34,3.23,3.23,0,0,1-.14.47c.22,0,.25.41.49.4,0,.1-.07.24,0,.26a.65.65,0,0,1,.44.49c0,.11-.12.24-.09.29s.17-.1.21,0c.25-.73.35-1.46.53-2.21a13.07,13.07,0,0,1,.49-2.43v0a1.68,1.68,0,0,0,.09-.76c0-.1-.07-.21-.11-.32l-.14.1c0-.1.06-.19,0-.24-.05-.22-.19-.13-.36-.09s-.17,0-.26,0l.05-.16c-.06,0,0,.2-.11.14s0-.14,0-.2-.09.21-.17.19.16-.16.05-.19,0,0-.05.08c0-.2-.06-.33-.22-.17,0-.07.09-.14.09-.21h0s0,.08-.06.11l0-.11h0a.35.35,0,0,0-.05.08l0-.07-.11,0c-.09.07-.21.13-.23.18A11.29,11.29,0,0,0,36.85,50.41Z" transform="translate(0 0)"/><path class="cls-1" d="M36.29,51s.09,0,.1,0-.14.21-.13.34l.06,0c0,.09-.1.18-.15.28s-.05.39-.06.58c0,0,0,0,0,0a1.28,1.28,0,0,1-.07.3v.06l0,0s0,.1,0,.14c0,.58.06,1.17.09,1.81a1.53,1.53,0,0,1,.07.41,3.08,3.08,0,0,1-.14.6c.24,0,.26.47.51.43,0,.12-.07.3,0,.32a.62.62,0,0,1,.44.54c0,.13-.11.31-.08.36s.17-.14.22-.06c.24-.91.33-1.82.51-2.75a20,20,0,0,1,.48-3v-.05a2.79,2.79,0,0,0,.08-.94c0-.13-.07-.26-.11-.39l-.14.13c0-.12.06-.24,0-.29,0-.27-.19-.15-.37-.08s-.16-.06-.25,0l0-.2c-.06,0,0,.25-.1.18a2.13,2.13,0,0,0,0-.25c-.09,0-.09.27-.17.24s.16-.2.06-.24,0,.08,0,.12c0-.26-.06-.41-.22-.21a1.29,1.29,0,0,0,.08-.26h0a.78.78,0,0,0-.05.14l0-.14,0,0a.31.31,0,0,0-.05.1l0-.09a.34.34,0,0,0-.12.06c-.09.09-.21.18-.23.24C36.52,50,36.39,50.47,36.29,51Z" transform="translate(0 0)"/><path class="cls-1" d="M34.74,55.62s.09,0,.1,0-.15.19-.15.32l.06,0,0,.09,1.85.42.1-.18.07-.55s0,0,0,0a1.33,1.33,0,0,1,.07-.29v0l0,0s0-.09,0-.13c0-.55,0-1.12,0-1.74a3,3,0,0,1,0-.4,3.08,3.08,0,0,1,.2-.56c-.23,0-.21-.49-.45-.48,0-.12.1-.28,0-.31a.63.63,0,0,1-.37-.59c0-.13.16-.29.14-.34s-.19.1-.22,0a19.28,19.28,0,0,0-.82,2.68c0,.28-.32,1.78-.48,2.61l1.75.39.11-.39v-.05a2.46,2.46,0,0,0,.14-.91l-.09-.38-.14.11c0-.11.07-.23,0-.28,0-.27-.18-.16-.36-.11s-.16-.06-.26,0l.06-.19c-.06,0,0,.25-.12.17s0-.16,0-.24-.1.26-.18.23.17-.19.07-.23,0,.07-.06.1c0-.24,0-.4-.2-.21a1.86,1.86,0,0,0,.1-.25h0s0,.1-.06.14l0-.14h-.05a.47.47,0,0,0,0,.1l0-.09-.12.05c-.1.09-.22.17-.24.22C35,54.7,34.87,55.16,34.74,55.62Z" transform="translate(0 0)"/><path class="cls-1" d="M35.26,56.3s.07,0,.08.06-.09,0-.06,0l0,0-.09,0a.14.14,0,0,0,0,.06l.05,0s0,0,0,0h0l0,0h0l.29.33.11.1s0,0,0,0c.19.12.27.21.47.33,0,0,0,0,0,.05a4.28,4.28,0,0,1,.44.32s-.06,0,0,0l.18.11c.09,0,0-.11.08-.16s0-.22,0-.22h0s0,0-.05-.1l-.14-.12-.1,0s0,0,0,0a1.49,1.49,0,0,0-.31-.21l-.2-.13h0s0,0-.07,0,0,0,0,0,0,0-.11-.06.11.06,0,0h0a.59.59,0,0,0-.21-.15s0,0,0,0h0l0,0h0l-.08,0-.16-.09A.21.21,0,0,0,35.26,56.3Z" transform="translate(0 0)"/><path class="cls-1" d="M34.16,49.07s-.12,0-.06-.1a5.09,5.09,0,0,1,.82-1l0-.07a3.86,3.86,0,0,1,.9-.61,3.27,3.27,0,0,1,1.88-.5s0-.05,0-.05a7.2,7.2,0,0,1,1.23.14l.21,0a.11.11,0,0,0,.09,0,3.93,3.93,0,0,1,.58.12,4.33,4.33,0,0,1,2.87,1.25,5.45,5.45,0,0,1,1,3.34,10.35,10.35,0,0,1,0,1.67c-.1.8-.33,1.83-.5,2.6.26-.07-.06,1.86.25,1.53a7.64,7.64,0,0,0-.29,1.35c.15.18.28.64,0,2-.14.55-.5,1.34-.52,1.54s.36-.64.32-.33a42.85,42.85,0,0,0,1.65-6,17.12,17.12,0,0,0,.41-6.5,5.85,5.85,0,0,0-1.28-2.51,5.19,5.19,0,0,0-1.89-1.28,10,10,0,0,0-2.22-.55,12.08,12.08,0,0,0-2.31-.22,5.18,5.18,0,0,0-2.33.62,6.54,6.54,0,0,0-2.39,2.38l-.12.22a12.09,12.09,0,0,0-1.26,4.14c-.06.53-.09,1.08-.11,1.61.07-.24.15-.46.22-.65a7.06,7.06,0,0,0-.17,1.29c-.05,1.15.14.52.36.1s.15.14.29-.34l-.12.88c.05.05.11-1.09.18-.83s-.08.72-.13,1.07c.1-.11.19-1.21.28-1.14s-.26,1-.15,1,.06-.33.09-.51c-.11,1.09,0,1.68.17.72A11,11,0,0,0,32,56.64h0l.09-.65L32,56.6l0-.1c0-.15,0-.3.07-.46l0,.4c0-.1.09-.21.13-.33.11-.48.27-.92.31-1.18.16-1,.37-2.06.62-3.07A12.57,12.57,0,0,1,34.16,49.07Z" transform="translate(0 0)"/><path class="cls-1" d="M39.78,47.35s0,.09,0,.09-.33-.16-.56-.13l0,.06a3.24,3.24,0,0,0-.56,0,2.38,2.38,0,0,0-.89.43s0,0,0,.06l-.35.24,0,.05a.08.08,0,0,0,0,.06l-.15.11a7.52,7.52,0,0,0-1,1.85,3.11,3.11,0,0,1-.1.46c-.08.19-.24.41-.33.6.21.07.13.56.39.55-.06.12-.13.3-.07.33a.67.67,0,0,1,.39.58c0,.12-.13.28-.1.33s.17-.12.21,0a8,8,0,0,1,1.07-2.35,3.89,3.89,0,0,1,.83-1.06c.46-.41.59-.35.82-.29h0a4.69,4.69,0,0,0,.89.21,4.35,4.35,0,0,0,.48,0,1.1,1.1,0,0,1-.15-.16.66.66,0,0,0,.36.06c.36,0,.16-.19.09-.36s0-.17,0-.26l.2,0c0-.06-.25,0-.17-.1s.16,0,.24,0-.27-.08-.24-.17.2.16.22.05-.06,0-.1,0c.24,0,.32-.11.16-.24.06,0,.14.06.19,0h0l-.1,0h.09l0,0-.06,0h0l0-.1c-.06-.07-.11-.18-.15-.19C40.92,47.82,40.48,47.54,39.78,47.35Z" transform="translate(0 0)"/><path class="cls-1" d="M39.72,48.91s0-.08.06-.08.06.15.14.16l0-.05.09.18.27.2s0,0,0,0a1,1,0,0,1,.11.15l0,0,0,0a.59.59,0,0,1,0,.08,3.57,3.57,0,0,1,.88,1,1.05,1.05,0,0,1,.22.26,2,2,0,0,1,.07.49c.23-.06.39.29.61.18,0,.11,0,.26.09.26A.61.61,0,0,1,43,52c0,.11,0,.28,0,.31s.12-.15.19-.1a8.5,8.5,0,0,0-.49-2.51A12.33,12.33,0,0,0,42,48.42a5.26,5.26,0,0,0-1.27-1.17l0,0a1.84,1.84,0,0,0-1-.29,2.25,2.25,0,0,0-.42.13l.15.13a.48.48,0,0,0-.3,0c-.27.11-.1.22,0,.38s0,.17.07.24H39c0,.06.19,0,.15.07s-.13,0-.19,0,.21,0,.2.12S39,47.91,39,48s.05,0,.08,0c-.18,0-.23.17-.09.26,0,0-.12,0-.16,0h0l.09,0h-.08l0,0a.08.08,0,0,0,.07,0h-.06l.06.09c.07.06.12.16.15.16A2.34,2.34,0,0,1,39.72,48.91Z" transform="translate(0 0)"/><path class="cls-1" d="M41.45,49.1s.07,0,.09,0-.06.13,0,.18l.07,0-.06.16a2.56,2.56,0,0,0,.11.24s.05,0,.06,0,0,.08,0,.14l0,0h0v.07c.17.23.36.47.54.76a.86.86,0,0,1,.16.18,1,1,0,0,1,0,.3c.23,0,.34.21.57.16,0,.07,0,.16.05.17a.66.66,0,0,1,.54.26c0,.07-.07.18,0,.21s.14-.09.2,0a5.06,5.06,0,0,0-.05-1.6,16.3,16.3,0,0,1-.45-1.69v0a.87.87,0,0,0-.26-.47,1.92,1.92,0,0,0-.25-.12.75.75,0,0,1-.07.12c0-.07,0-.13-.09-.14s-.22,0-.34.14-.17,0-.21.13l0-.1c-.07,0,.08.11,0,.12S42,48.14,42,48.1s0,.14-.06.17.06-.15,0-.11,0,0,0,.06-.2-.12-.27,0c0,0,0-.1,0-.13h0a.16.16,0,0,1,0,.07l0-.06,0,0a.13.13,0,0,0,0,.06v0l-.08.08c0,.08-.12.16-.11.19C41.35,48.66,41.39,48.88,41.45,49.1Z" transform="translate(0 0)"/><path class="cls-1" d="M51.35,57.39s-.06-.07,0-.1.33,0,.48-.07v-.07l.42,0,.74-.28s0,0,0-.06a4,4,0,0,1,.4-.12l.06,0a.06.06,0,0,0,0-.06l.19,0a22.9,22.9,0,0,0,2-1.27,4.47,4.47,0,0,1,.41-.35c.21-.12.51-.23.73-.33-.14-.19.33-.55.11-.71.15-.06.36-.17.34-.23a.68.68,0,0,1,.23-.75c.12-.11.38-.16.41-.22s-.25,0-.21-.11c-1,.53-2,1.12-3.12,1.59a11,11,0,0,1-1.65.75,15.54,15.54,0,0,1-2,.6l-.06,0a4.6,4.6,0,0,0-1.12.37l-.41.27.21.07a.89.89,0,0,0-.35.11c-.31.15-.11.23,0,.36s0,.18.16.22l-.26,0c0,.07.31-.09.26,0a1.23,1.23,0,0,0-.32.07c.06.08.37,0,.37,0s-.31-.06-.31,0,.1,0,.16,0c-.32.09-.48.23-.16.29-.11,0-.26,0-.37,0H49l-.19,0,0,0H49l-.12,0,.12.08a1.48,1.48,0,0,0,.41.1A13,13,0,0,0,51.35,57.39Z" transform="translate(0 0)"/><path class="cls-1" d="M56.77,53.84s.07,0,.08,0-.12,0-.1.06l0,0-.12,0a.84.84,0,0,0,0,.17l0,0s0,0-.06.07v0l0,0,0,0c0,.21,0,.44,0,.68a.81.81,0,0,1,0,.19c0,.06-.1.09-.15.13.18.15.17.33.36.47,0,0-.08.07,0,.11a.8.8,0,0,1,.28.49c0,.06-.12,0-.11.09s.14.05.17.12a3.57,3.57,0,0,0,.69-.81,4.73,4.73,0,0,1,.56-1h0a.42.42,0,0,0,.08-.36,1.24,1.24,0,0,0-.1-.2H58.3s.05-.07,0-.1S58.14,54,58,54s-.15-.08-.23-.07l0-.06c-.06,0,0,.09-.1,0s0-.06,0-.08-.07.07-.15,0,.14,0,0-.06,0,0,0,0-.07-.16-.21-.15c0,0,.07,0,.07-.06h0l0,0,0,0h0l0,0,0,0-.1,0H57A2.12,2.12,0,0,0,56.77,53.84Z" transform="translate(0 0)"/><path class="cls-1" d="M56.89,53.56l.06.08s-.09-.06-.08,0l0,.06-.09,0a.2.2,0,0,0,0,.08l0,0s0,0,0,0v0l0,0h0l0,.37.72.83,0-.11-.07-.14s.06,0,.08,0c-.17-.16-.2-.29-.37-.44,0,0,0,0,0-.07a1.72,1.72,0,0,1-.34-.43s.07,0,.05,0-.12-.08-.15-.13a.26.26,0,0,0-.15.12l-.06.08,0,0v0h0l1.33,1.53h0c0-.11.19-.32.28-.33h0s.07-.06.05-.15L58,54.78l-.09-.08s0,0,0-.05a.87.87,0,0,0-.22-.3c0-.05-.1-.14-.15-.18h0c0-.06,0,0-.06,0s0,0,0,0-.05,0-.1-.07.09.07,0,0,0,0,0,0a.28.28,0,0,0-.14-.22s.06,0,.06,0h0l0,0h0l-.07-.07-.14-.12A.38.38,0,0,0,56.89,53.56Z" transform="translate(0 0)"/><path class="cls-1" d="M57.17,52.82s0,.06,0,.09-.12,0-.14,0l0,.06L57,53l-.14.15s0,0,0,0,0,0-.09,0v0l0,0h0c-.09.21-.17.44-.27.68a.84.84,0,0,1,0,.19c0,.06-.13.07-.19.09.13.19.07.37.22.55,0,0-.09,0-.06.1a.88.88,0,0,1,.16.53c0,.05-.12,0-.11.06s.12.08.13.15a4.15,4.15,0,0,0,.79-.52,2.38,2.38,0,0,1,.81-.63l0,0a.36.36,0,0,0,.21-.24V54l-.1-.07s.07,0,.06-.08-.08-.2-.19-.31-.09-.16-.16-.19l.06,0c0-.06-.05.07-.09,0s0,0,.06-.06-.09,0-.14,0,.13.06.08,0,0,0,0,0,0-.18-.09-.24c0,0,.08,0,.09,0h-.06l0,0,0,0h0l0,0-.08-.07c-.07,0-.15-.11-.17-.1A2.2,2.2,0,0,0,57.17,52.82Z" transform="translate(0 0)"/></svg>