<svg id="Layer_1" data-name="Layer 1" xmlns="http://www.w3.org/2000/svg" viewBox="0 0 56.41 90.06"><defs><style>.cls-1{fill:#ff3fb4;}</style></defs><title>2</title><path class="cls-1" d="M12.64,53.74s-.47-.34.37.08l1.9,1c.61.29,1.24.51,1.85.78l.93.37c.31.11.64.2,1,.3.65.19,1.32.4,2,.57l.22,0a34.45,34.45,0,0,0,7,.91,33.85,33.85,0,0,0,13-2.27c-.12,0-.18,0,.23-.16a29.16,29.16,0,0,0,2.9-1.38L45.7,53l1.61-1.14a7.19,7.19,0,0,0,.92-.73,1.46,1.46,0,0,0,.28-.33l1.27-1.15c.38-.38.7-.79,1-1.17a22.71,22.71,0,0,0,4.48-8.65A31.05,31.05,0,0,0,56.37,30a32.71,32.71,0,0,0-6.92-18.84,29.87,29.87,0,0,0-6.37-6A30.35,30.35,0,0,0,30.5.06c.29.16-2-.14-4.21-.06a25.08,25.08,0,0,0-2.73.3c-.63.14-.87.23-.37.21a22.06,22.06,0,0,0-4.28,1c-.64.24-1.22.42-1.63.61a6.73,6.73,0,0,0-.7.37c-.23.23-.83.54-2,1.4A26.24,26.24,0,0,0,9.19,8.63a30.08,30.08,0,0,0-2.74,3.7,16.34,16.34,0,0,0-1,1.77l-.57,1.12C4.23,16.6,6.63,12.13,6,13.51a28.3,28.3,0,0,1,4.52-6,23.56,23.56,0,0,1,6.07-4.23A23.51,23.51,0,0,1,31,1.53a30.56,30.56,0,0,1,7.09,2.28,28.13,28.13,0,0,1,11.21,9.71,30.27,30.27,0,0,1,3.47,6.77,31.15,31.15,0,0,1,2,11.32,28.32,28.32,0,0,1-1.54,9,21.59,21.59,0,0,1-2.18,4.52,14.73,14.73,0,0,1-1.54,2.06l-.84,1c-.3.31-.64.59-1,.88a24.66,24.66,0,0,1-9.07,5.14,33.23,33.23,0,0,1-18.16.56,25.71,25.71,0,0,1-3.2-1L16,53.24c-.41-.18-.76-.38-1.1-.55l-1-.49a23.78,23.78,0,0,1-7.72-6.8,24.14,24.14,0,0,1-3.85-8.77,29,29,0,0,1-.64-7.73l-.1.88,0,.86-.06,1.57a36.9,36.9,0,0,1,.43-6.34,14.66,14.66,0,0,1,.31-1.71l.2-1c.08-.46.06-.53,0-.36-.12.35-.57,1.65-.82,2.73-.32,1.56-.09-.59-.55,1.88l.36-2.24c.13-.67.31-1.33.52-2.22a20.36,20.36,0,0,0-.58,2.5C1.14,26.7,1,27.83,1,27.19c.16-.86.26-1.78.47-2.69s.38-1.85.69-2.71A23.41,23.41,0,0,0,1.28,25C1,26.47.83,27.81.82,27.67c0-.5.28-1.76.5-2.94s.55-2.26.57-2.44-.44,1.7-.66,2.59c.32-1.37.58-2.59.9-3.54l.37-1.26.3-.82c.13-.39.14-.48,0-.17a15.19,15.19,0,0,0-.89,2.24A37.62,37.62,0,0,1,4.32,15.6h0c-.41.85-1.18,2.3-1.47,3.13.37-1,.89-2,1.36-2.94l-.29.49a21.58,21.58,0,0,0-1.05,2.22c.25-.67.58-1.31.89-2a16.89,16.89,0,0,0-.86,1.62A30.71,30.71,0,0,0,.78,24.24,29.42,29.42,0,0,0,1.72,41a24.62,24.62,0,0,0,4.33,7.36A27.35,27.35,0,0,0,12.64,53.74Z" transform="translate(0 0.01)"/><path class="cls-1" d="M47.23,21.68s.11-.06.08.09c-.13.47-.36.8-.46,1.28l.06.05c-.12.35-.26.72-.36,1.11a14.62,14.62,0,0,0-.27,2.17s0,0,0,.05l-.07,1.15v.19a.08.08,0,0,0,0,.07l0,.53A18.3,18.3,0,0,0,48,34.64l.72,1.24c.32.6.72,1.37,1.08,1.93.13-.19,1.14,1,1.15.63a3.28,3.28,0,0,0,.73.83c.22-.05.59.07,1.45.76.32.29.78.77.91.85s-.33-.48-.11-.37a17.49,17.49,0,0,1-5.06-7.8,14.48,14.48,0,0,1-.82-4.78,16,16,0,0,1,.9-5.39l0-.17c.35-1,.87-2.12,1.23-2.92.16-.38.31-.77.5-1.14l-.39.37a7.28,7.28,0,0,0,.54-.85c.46-.78.07-.45-.28-.25s-.09-.18-.37.11c.16-.24.26-.35.43-.59,0-.07-.5.75-.47.53.18-.23.34-.5.52-.73-.13,0-.64.8-.67.72s.58-.6.53-.72a2.52,2.52,0,0,0-.28.33c.51-.75.78-1.19.15-.62.18-.23.48-.51.67-.76h0l-.39.41.35-.4-.1,0a3.85,3.85,0,0,0-.27.3l.22-.27-.27.16a6.77,6.77,0,0,0-.79.73A17.33,17.33,0,0,0,47.23,21.68Z" transform="translate(0 0.01)"/><path class="cls-1" d="M54.26,29.69s-.06.06-.09,0,0-.22-.1-.3l-.06,0a2.45,2.45,0,0,1,0-.27c-.06-.13-.13-.26-.18-.39h-.05a.47.47,0,0,1,0-.21l0,0h0a.34.34,0,0,1,0-.1,2.38,2.38,0,0,1,0-1.5,1.86,1.86,0,0,1,.05-.42c.08-.18.24-.38.33-.55-.21-.08-.11-.55-.37-.56.06-.11.13-.28.07-.31a.83.83,0,0,1-.41-.51c0-.1.09-.22.06-.25s-.15.09-.21,0a13.28,13.28,0,0,1-1.05,2.35,5.32,5.32,0,0,0-.26,1.93,5.19,5.19,0,0,0,.67,2l0,.05a2.75,2.75,0,0,0,.69.83l.4.19a1.5,1.5,0,0,1,0-.2c.08.1.16.21.22.22.26.14.24,0,.29-.23s.15-.1.13-.23l.13.16c.06,0-.19-.17-.07-.2s.12.12.17.19c.05-.08-.16-.24-.09-.29s.06.26.16.2,0-.08-.06-.11c.19.17.36.21.3-.05a1.25,1.25,0,0,0,.16.24h0s-.06-.1-.09-.13l.1.11v-.05a.47.47,0,0,0-.05-.1l.06.08a.59.59,0,0,0,0-.13c0-.13,0-.28-.05-.33C54.73,30.44,54.47,30.05,54.26,29.69Z" transform="translate(0 0.01)"/><path class="cls-1" d="M55.31,29.53c-.05,0-.08,0-.1,0s.08-.15,0-.23h-.07l.08-.2c0-.11,0-.23-.06-.35s0,0-.05,0,0-.11,0-.18v0h0a.19.19,0,0,1,0-.08c-.13-.35-.27-.72-.38-1.13a1.07,1.07,0,0,1-.12-.27,1.8,1.8,0,0,1,.08-.39c-.23,0-.3-.32-.54-.3,0-.09.05-.21,0-.22a.62.62,0,0,1-.47-.41c0-.1.1-.21.07-.25s-.16.08-.21,0a7.84,7.84,0,0,0-.28,2c.06.24.1,1.79.12,2.19v0a1.19,1.19,0,0,0,.17.65,2.28,2.28,0,0,0,.22.22.62.62,0,0,1,.09-.12c0,.08,0,.16.07.19s.22,0,.36-.05.18,0,.23-.1l0,.13c.06,0-.06-.16.05-.14s0,.11,0,.16,0-.19.09-.19-.09.16,0,.15,0-.05,0-.08c.06.16.18.22.27.06,0,.05,0,.13,0,.18h0s0-.08,0-.1v.09l0,0a.09.09,0,0,0,0-.07v.06l.09-.07c.06-.08.15-.17.14-.2C55.33,30.13,55.33,29.83,55.31,29.53Z" transform="translate(0 0.01)"/><path class="cls-1" d="M48.54,64.19s.05-.06.08-.06,0,.17.09.2l0,0,.05.2.25.28s0,0,0,0a.61.61,0,0,1,.1.18l0,0h0a.36.36,0,0,1,0,.09l.38.31c.11.1.18.1.26.19a.28.28,0,0,1,.09.14.41.41,0,0,1,.09.22c0,.09-.14.19-.22.26.19.14,0,.45.22.58-.07.06-.19.14-.16.2a.55.55,0,0,1,0,.65c-.07.08-.26.09-.27.14s.19.06.17.14a3.43,3.43,0,0,0,1.06-.77,2.8,2.8,0,0,0,.24-.33,2,2,0,0,0,.23-.44,1.93,1.93,0,0,0,.11-1v-.07a3.08,3.08,0,0,0-.3-.66c-.15-.23-.27-.39-.41-.61-.29-.42-.63-.88-.79-1.07l0,0a1.48,1.48,0,0,0-.68-.51,1.58,1.58,0,0,0-.38,0,1.77,1.77,0,0,1,.06.17c-.09-.06-.18-.13-.24-.11-.24,0-.18.15-.19.32s-.1.14-.07.24l-.12-.07c0,.05.17.05.09.13s-.11,0-.16-.07.15.11.1.19-.07-.18-.13-.09,0,0,.05.06c-.16-.05-.27,0-.2.18,0,0-.08-.08-.13-.09h0l.07.06-.07,0v0a.1.1,0,0,0,0,.05l-.05,0v.11c0,.09,0,.21.05.22A7,7,0,0,1,48.54,64.19Z" transform="translate(0 0.01)"/><path class="cls-1" d="M36.41,60.5s0-.1.09,0c.24.16.34.42.58.59l.06,0,.48.54c.35.29.7.57,1.06.83,0,0,0,0,0,0a6.1,6.1,0,0,1,.54.46l.1.06s.06,0,.07,0l.25.22c1.1.71,2.26,1.39,3.53,2.06.29.11.58.23.84.36s.83.53,1.18.76c.07-.23,1,.17.94-.13.24.14.61.34.66.29s.43-.24,1.13,0c.27.1.62.36.73.37s-.27-.29-.11-.28a43.1,43.1,0,0,1-5.36-3.11,23.59,23.59,0,0,1-2.64-1.86c-1.16-.9-2.32-1.93-2.78-2.36l-.09-.08a17.09,17.09,0,0,0-1.63-1.35l-.72-.42.18.31a2.94,2.94,0,0,0-.51-.43c-.5-.33-.33,0-.27.26s-.17.08,0,.31l-.33-.33c-.06,0,.44.37.27.36a5,5,0,0,0-.41-.38c0,.11.44.47.36.51s-.3-.44-.4-.39.11.14.18.21c-.44-.37-.74-.51-.44-.07-.13-.12-.29-.33-.44-.46h0l.24.26-.23-.23v.07a1.46,1.46,0,0,0,.16.19l-.16-.15c0,.06,0,.13.07.2a4.31,4.31,0,0,0,.35.57C34.75,58.93,35.56,59.73,36.41,60.5Z" transform="translate(0 0.01)"/><path class="cls-1" d="M48.29,60.14s0,.07-.09,0-.09-.32-.22-.44l-.06,0c-.06-.13-.1-.26-.16-.4s-.31-.42-.48-.62c0,0,0,0-.05,0a1.78,1.78,0,0,1-.22-.35l0,0H46.9l-.09-.16-1.69-1.73a3.76,3.76,0,0,1-.42-.36,8.09,8.09,0,0,1-.44-.69c-.17.16-.6-.28-.72,0-.09-.14-.22-.35-.29-.32a.69.69,0,0,1-.78-.2c-.12-.12-.2-.39-.26-.41s0,.26-.1.21c.66,1.1,1.41,2.06,2.13,3.13a36.66,36.66,0,0,1,2.4,3.36l0,.06a5.33,5.33,0,0,0,.78,1l.43.3a2,2,0,0,1,0-.23c.09.13.17.27.24.3.28.24.27,0,.32-.19s.16-.07.14-.24l.14.24c.06,0-.21-.26-.08-.26a2.61,2.61,0,0,0,.19.27c.06-.08-.18-.34-.1-.37s.08.32.18.28,0-.1-.07-.15c.22.26.41.36.33,0a3.3,3.3,0,0,0,.18.32h0s-.06-.14-.09-.18l.1.16a.17.17,0,0,0,0-.05.35.35,0,0,0-.06-.14l.07.11a.77.77,0,0,0,0-.15,1.71,1.71,0,0,0-.06-.41C49,61.27,48.66,60.69,48.29,60.14Z" transform="translate(0 0.01)"/><path class="cls-1" d="M35.17,58.51s0-.08.07-.07.1.2.21.24l0,0,.16.24.43.28s0,0,0,0a.78.78,0,0,1,.21.17l0,0,0,0,.09.08c.48.2,1,.37,1.5.56a1.77,1.77,0,0,1,.36.07,3.43,3.43,0,0,1,.43.32c.11-.2.49-.08.56-.31.08.06.21.15.25.11a.62.62,0,0,1,.62-.24c.11,0,.2.2.25.18s0-.19,0-.21c-.64-.5-1.32-.86-2-1.33A12.22,12.22,0,0,1,36.41,57l0,0a2.24,2.24,0,0,0-.68-.42l-.36,0a.51.51,0,0,1,0,.17c-.08-.07-.15-.14-.21-.14-.24-.06-.21.11-.24.29s-.13.12-.1.23L34.68,57s.19.12.08.17-.12-.08-.17-.13.17.18.1.24-.08-.22-.15-.14,0,.06.06.09c-.19-.12-.35-.11-.27.11,0,0-.1-.15-.17-.18h0s.06.08.09.1l-.09-.08,0,0,.06.08-.06-.06a.57.57,0,0,0,0,.13,1,1,0,0,0,.08.29A10.12,10.12,0,0,0,35.17,58.51Z" transform="translate(0 0.01)"/><path class="cls-1" d="M35.93,60.38s0-.09.09-.05.31.4.54.56l.06,0,.44.51c.32.26.64.52,1,.77,0,0,0-.05.05,0s.31.27.5.43l.09.06s0,0,.06,0l.23.2c1,.66,2.08,1.3,3.23,2,.26.12.52.24.76.38s.73.54,1,.78c.08-.23.92.22.9-.08.21.16.53.38.58.34s.45-.2,1.08.08c.24.12.53.42.63.44s-.21-.31,0-.28c-1.61-1.14-3.21-2.17-4.8-3.38a47,47,0,0,1-5-4L37.24,59a13.47,13.47,0,0,0-1.51-1.25l-.68-.39.16.3a2.07,2.07,0,0,0-.47-.39c-.46-.32-.32,0-.28.24s-.16.09,0,.31l-.31-.31c-.06,0,.41.35.25.34a4.4,4.4,0,0,0-.39-.35c0,.1.41.44.33.48s-.27-.42-.37-.37.11.14.17.2c-.41-.35-.69-.48-.42-.05-.12-.12-.26-.32-.4-.44h0l.21.25-.21-.22v.07l.15.18-.14-.14a1.8,1.8,0,0,0,.05.19,4.48,4.48,0,0,0,.31.55C34.39,58.92,35.14,59.68,35.93,60.38Z" transform="translate(0 0.01)"/><path class="cls-1" d="M44.37,65.41s0-.07,0-.08.05.12.11.11l0,0a.58.58,0,0,1,0,.14l.17.08s0,0,0,0,0,.05.06.08h0l0,0s0,0,0,.05a.67.67,0,0,1,.48.52.46.46,0,0,1,.06.25,1,1,0,0,1-.2.33c.21.09.17.41.4.47,0,.07-.1.17,0,.2a1,1,0,0,1,.4.42S46,68,46,68s.15,0,.21,0l.3-.58a3.65,3.65,0,0,0,.42-1.3,2.92,2.92,0,0,0-.56-1.52,3.55,3.55,0,0,0-1.23-1h0a1.32,1.32,0,0,0-.78-.14,1.94,1.94,0,0,0-.3.13l.09.13c-.09,0-.18,0-.21,0-.2.07-.11.2-.07.37s0,.16,0,.25l-.14,0c0,.06.17,0,.12.09s-.11,0-.16,0,.18.06.15.14-.13-.14-.15,0,.05,0,.07,0c-.16,0-.26.1-.13.24-.05,0-.12-.07-.17-.06h0l.09,0h-.09v0l.07,0h-.06a.42.42,0,0,0,0,.1c.06.08.11.19.15.2C44,65.24,44.18,65.33,44.37,65.41Z" transform="translate(0 0.01)"/><path class="cls-1" d="M44.36,69.58s.13,0,0,.12c-.33.34-.7.48-1,.83l0,.07-.9.69c-.52.49-1,1-1.52,1.49,0,0,.05,0,0,.07-.2.21-.51.48-.82.77l-.12.13a.12.12,0,0,0,0,.09l-.38.35c-1.38,1.54-2.73,3.14-4.15,4.91-.28.4-.56.79-.84,1.15-.44.53-1,1.16-1.47,1.69.23,0-.65,1.42-.26,1.3a4,4,0,0,0-.59,1c.13.19.1.58-.27,1.62A10.47,10.47,0,0,0,31.59,87c0,.24.32-.47.3-.23,1.15-2.88,3.44-5.26,5.75-7.78.36-.46,1.88-2.12,3.56-3.78s3.5-3.32,4.27-4l.14-.12c.83-.72,1.83-1.61,2.49-2.27l.87-1-.49.26a6.74,6.74,0,0,0,.79-.69c.67-.67.18-.42-.2-.32s0-.19-.4,0l.58-.47c0-.07-.68.61-.59.39s.45-.39.69-.57c-.14,0-.82.62-.84.52s.72-.43.7-.55-.24.16-.36.25c.69-.6,1-1,.3-.56.22-.18.57-.4.8-.6h0l-.45.32.41-.32-.1,0-.33.23.27-.21-.29.1a8.78,8.78,0,0,0-.91.51C47.12,67.25,45.72,68.4,44.36,69.58Z" transform="translate(0 0.01)"/><path class="cls-1" d="M34.86,80.69s-.12,0-.06-.1c.21-.4.51-.63.72-1l0-.07.66-.85L37.21,77s-.06,0,0-.07c.14-.24.38-.55.61-.87l.09-.15a.12.12,0,0,0,0-.09l.29-.39a22.75,22.75,0,0,1,3.51-4.84,9.29,9.29,0,0,1,1-.92,13.79,13.79,0,0,1,1.81-1.06c-.21-.17,1.13-1,.76-1a4.53,4.53,0,0,0,1-.52c0-.21.22-.56,1.23-1.11.4-.2,1.06-.38,1.19-.48s-.58.09-.38-.06c-3,1.18-6.19,2.58-8.69,5.18-1,.88-5.15,7.28-6.2,8.94l-.1.15a30.71,30.71,0,0,0-1.62,2.86l-.47,1.18.36-.4a5.55,5.55,0,0,0-.48.9c-.36.84,0,.44.3.22s.11.16.36-.14l-.36.61c0,.06.41-.78.4-.55s-.27.51-.41.75c.12,0,.51-.84.57-.75s-.5.63-.43.73a2.23,2.23,0,0,0,.22-.35c-.4.78-.54,1.25-.05.61-.14.24-.37.56-.5.82h0l.28-.45-.25.43.08,0a2.2,2.2,0,0,0,.21-.32L31.3,86l.22-.2c.25-.31.53-.58.64-.76Z" transform="translate(0 0.01)"/><path class="cls-1" d="M40.13,74s-.09,0-.06-.08.35-.24.47-.44l0-.06.44-.33.69-.77s0,0,0,0a3,3,0,0,1,.4-.37l.06-.07a.35.35,0,0,0,0-.06l.19-.16a30.51,30.51,0,0,1,2.16-2.34c.16-.18.32-.37.49-.53a9.1,9.1,0,0,1,.93-.59c-.17-.17.47-.7.21-.81.19-.12.49-.28.47-.34s0-.49.46-.89c.2-.13.56-.23.61-.31s-.33,0-.25-.09a24.35,24.35,0,0,0-4.45,2.88c-.21.23-1.12,1-2,1.85s-1.77,1.82-2.14,2.2l-.06.07a8.21,8.21,0,0,0-1,1.43l-.26.65.26-.16a1.71,1.71,0,0,0-.3.45c-.19.45.06.3.29.24s.11.13.29,0l-.22.3s.24-.4.27-.25a1.92,1.92,0,0,0-.25.38c.1,0,.32-.4.38-.33s-.34.27-.27.35.1-.1.15-.16c-.24.39-.29.65,0,.39a3.93,3.93,0,0,0-.31.38h0l.18-.21-.15.21h.06a.61.61,0,0,0,.13-.15l-.1.14a.58.58,0,0,0,.17-.06,2.87,2.87,0,0,0,.43-.31C39,75.3,39.55,74.63,40.13,74Z" transform="translate(0 0.01)"/><path class="cls-1" d="M39.51,75.05s-.09,0,0-.09.4-.27.56-.49l0-.06L40.5,74l.81-.87s0,0,0,0a5.35,5.35,0,0,1,.47-.43l.06-.08s0,0,0-.06l.22-.19c.76-.88,1.54-1.78,2.43-2.72.17-.22.34-.44.52-.63s.7-.54,1-.77c-.19-.14.48-.8.19-.87.2-.16.51-.38.49-.44s-.06-.49.42-1c.2-.18.58-.36.63-.45s-.36.1-.27,0a46.48,46.48,0,0,0-4.62,3.67c-.23.26-1.2,1.15-2.19,2.11l-2.43,2.39-.07.08a10.07,10.07,0,0,0-1.28,1.49l-.37.69.3-.16a2,2,0,0,0-.38.47c-.28.48,0,.32.26.27s.1.15.3,0l-.28.32s.32-.42.32-.26a4,4,0,0,0-.33.39c.11,0,.41-.41.46-.34s-.4.28-.34.38.12-.11.18-.17c-.32.41-.42.69,0,.42a5,5,0,0,0-.4.4h0l.23-.22-.2.22h.07a1.1,1.1,0,0,0,.16-.15l-.13.15.19-.06a4,4,0,0,0,.51-.32Z" transform="translate(0 0.01)"/><path class="cls-1" d="M44.22,70.69s-.07,0,0-.08.23-.08.3-.19l0,0,.29-.13c.14-.13.27-.27.4-.41,0,0,0,0,0,0a1.25,1.25,0,0,1,.24-.18l0,0s0,0,0,0l.11-.08,1-1.46a2.25,2.25,0,0,1,.19-.38c.12-.14.32-.28.45-.41-.18-.14,0-.54-.21-.63.08-.08.2-.22.15-.26a.71.71,0,0,1-.2-.64c0-.1.19-.19.18-.25s-.19,0-.22,0a10.92,10.92,0,0,1-1.63,1.79,20.45,20.45,0,0,1-2.2,2l0,0a3,3,0,0,0-.63.67l-.14.37h.18c-.09.07-.19.15-.19.21-.13.24,0,.23.23.29s.1.15.23.13l-.16.12c0,.06.16-.18.19-.07s-.11.12-.18.17.24-.16.28-.08-.24.06-.18.15.07,0,.1-.06c-.16.19-.2.35.05.3-.06,0-.17.08-.23.15h0s.11,0,.14-.08l-.11.09,0,0,.1,0-.07.06.13,0c.13,0,.27,0,.32-.05C43.46,71.29,43.85,71,44.22,70.69Z" transform="translate(0 0.01)"/><path class="cls-1" d="M46.94,68.2s-.07,0-.07-.07.15,0,.16-.13L47,68l.18-.08c.05-.1.1-.2.14-.3s0,0,0,0,.06-.08.1-.13v0s0,0,0,0l0-.06a5.87,5.87,0,0,0,0-1,.84.84,0,0,1-.06-.24,1.08,1.08,0,0,1,.13-.29c-.23-.06-.27-.3-.51-.32,0-.05,0-.13,0-.16a.8.8,0,0,1-.47-.32c0-.06.08-.12.05-.15s-.15,0-.21,0c-.15.36-.18.73-.34,1.09A2.29,2.29,0,0,1,45.41,67v0a.53.53,0,0,0-.17.36l0,.24.13,0s-.08.07-.07.11.12.19.27.26.12.13.21.14l-.08.06c.05,0,.07-.11.12,0s0,.07-.07.1.12-.08.18,0-.17,0-.09.08,0,0,.06,0,0,.24.12.24c0,0-.1,0-.12.08h0a.3.3,0,0,0,.08,0l-.06.05,0,0s0,0,.06,0l0,0,.1,0c.1,0,.21,0,.24,0A3.61,3.61,0,0,0,46.94,68.2Z" transform="translate(0 0.01)"/><path class="cls-1" d="M46.09,66.21s.07,0,0,.08-.22.07-.3.18l0,0-.3.12-.07.06-3.26,2.87,4.09-1.09a2.63,2.63,0,0,0,.63-.23s0,0,0-.06.24-.1.38-.17l0,0s0,0,0-.06l.16-.08a3.55,3.55,0,0,0,1.1-1.93c0-.17,0-.33,0-.48s.11-.47.12-.68c-.22,0-.34-.44-.58-.33,0-.11,0-.29-.09-.28a.79.79,0,0,1-.61-.22c-.06-.08,0-.24-.09-.25s-.08.16-.15.14a2.17,2.17,0,0,1-.09,1.8,1.07,1.07,0,0,1-.35.54,1.86,1.86,0,0,1-.87.47l.74,1.58.61-.48.05,0a2.72,2.72,0,0,0,.71-.84,2.47,2.47,0,0,0,.11-.47,1.63,1.63,0,0,1-.19.09c.09-.12.17-.24.16-.31.07-.32-.12-.21-.31-.2s-.13-.11-.25,0l.11-.17c-.06,0-.1.23-.16.12s.07-.14.1-.21-.16.22-.23.16.21-.12.13-.19-.06,0-.08.08c.08-.22,0-.36-.16-.24,0,0,.11-.12.12-.19h0a.86.86,0,0,1-.07.1l0-.1h0l-.06.07,0-.07-.12,0c-.1,0-.23.07-.25.1A6.25,6.25,0,0,1,46.09,66.21Z" transform="translate(0 0.01)"/><path class="cls-1" d="M48.08,66.76l0-.08c0-.05.07.07.07,0l0-.06.08.06a.18.18,0,0,0,.05-.07s0,0,0,0,0,0,.05,0h0v0h0A2.09,2.09,0,0,1,48.4,66a1.16,1.16,0,0,1,0-.16s.09,0,.12,0c0-.22,0-.35,0-.58,0,0,.07,0,.07-.06a1.08,1.08,0,0,1,.06-.55s.09,0,.1,0,0-.13,0-.2a1.72,1.72,0,0,0-.78.14,2.49,2.49,0,0,1-.76.4h0a.28.28,0,0,0-.18.21,1.36,1.36,0,0,1,0,.2l.1.08s-.06,0,0,.06.1.2.2.31.09.15.15.2h0c0,.06,0-.05.08,0s0,0,0,0,.07,0,.11.07-.1-.07,0,0a0,0,0,0,0,0,0s0,.15.13.22-.06,0-.06,0h0l0,0s0,0,0,0h0l.07.08.13.12A.49.49,0,0,0,48.08,66.76Z" transform="translate(0 0.01)"/><path class="cls-1" d="M49.26,67.35s0-.06,0-.08.14,0,.17,0l0-.06.19,0a2,2,0,0,0,.27-.3.05.05,0,0,1,0,0c0-.06.11-.11.18-.18l0,0,0,0a.3.3,0,0,1,.08-.08,2.07,2.07,0,0,0,0-1.28,1.62,1.62,0,0,1-.14-.24c0-.1,0-.24,0-.35-.22.06-.39-.12-.6,0,0,0,0-.12-.09-.09a3,3,0,0,1-.54.15s0-.08,0-.07-.09.12-.15.14.14.25.1.44a.28.28,0,0,1,0,.28c0,.07-.28.26-.41.33l0,0a1,1,0,0,0-.41.48,1.34,1.34,0,0,0,0,.35l.16,0c-.06.08-.11.15-.09.2,0,.21.16.16.33.19s.14.09.23.08l0,.07s0-.11.1,0,0,.06,0,.09.08-.08.15,0-.14,0,0,.07,0,0,0,0,.09.15.22.15-.06,0,0,0h0s0,0,0,0v0h.07l.1,0a.94.94,0,0,1,.17,0S49.08,67.48,49.26,67.35Z" transform="translate(0 0.01)"/><path class="cls-1" d="M49.9,64.19s-.06.07-.1,0-.06-.45-.19-.66h-.07c0-.18-.1-.37-.17-.56a8,8,0,0,0-.61-.85s0,0-.06,0-.19-.27-.31-.42l-.06-.06a.06.06,0,0,0-.06,0l-.14-.19c-.7-.63-1.39-1.16-2.09-1.86a2.37,2.37,0,0,1-.48-.4,6.92,6.92,0,0,1-.53-.8c-.17.17-.64-.36-.76-.12-.1-.17-.25-.42-.31-.4s-.47.05-.84-.35c-.12-.17-.2-.49-.27-.53s0,.3-.11.23a21.29,21.29,0,0,0,2.57,3.82c.19.18.92,1,1.57,1.69A5.25,5.25,0,0,1,48,64.67l0,.06a9.28,9.28,0,0,1,.22,1.1c0,.12.06.34.1.41s.1-.06.15-.11,0,.14,0,.17a.36.36,0,0,0,0,.1c-.07.22.07.25.3.22s.12.14.28,0a1.18,1.18,0,0,1-.22.28c.05.07.24-.37.27-.23a1.64,1.64,0,0,1-.29.36c.12.06.38-.39.42-.34s-.35.31-.31.39.14-.09.19-.16a3,3,0,0,1-.38.42c-.06.05,0,.12.3,0a.89.89,0,0,1-.61.14h0a.66.66,0,0,0,.34,0,.6.6,0,0,1-.32,0l.07,0a.53.53,0,0,0,.25,0,.83.83,0,0,1-.22,0,.56.56,0,0,0,.23.07,1.22,1.22,0,0,0,.76-.32,2,2,0,0,0,.31-.47c.09-.21.12-.34.16-.45a4.3,4.3,0,0,0-.07-2.24Z" transform="translate(0 0.01)"/><path class="cls-1" d="M48.64,61.8s0,.08-.1,0-.12-.38-.26-.54l-.07,0L48,60.82l-.55-.8s0,0,0,0a3.2,3.2,0,0,1-.26-.44l-.05-.06a0,0,0,0,0-.06,0L47,59.32c-.6-.74-1.23-1.48-1.93-2.28-.17-.15-.34-.3-.49-.46s-.39-.6-.57-.85c-.16.17-.69-.35-.79-.09-.12-.17-.3-.4-.36-.38s-.45.11-.88-.21c-.15-.13-.3-.41-.37-.44s.07.29-.05.24a38.23,38.23,0,0,1,2.68,3.6,48.68,48.68,0,0,1,2.74,4.27l0,.07a8,8,0,0,0,.89,1.28l.47.41c0-.1,0-.19,0-.27a1.71,1.71,0,0,0,.28.39c.31.32.28.05.33-.17s.17-.06.13-.25l.17.29c.07,0-.24-.34-.1-.31a1.79,1.79,0,0,0,.22.34c0-.08-.21-.41-.13-.44s.1.38.2.35,0-.12-.08-.18c.25.34.46.48.36.09.07.12.13.3.21.41h0l-.11-.23.12.2,0-.06a1.11,1.11,0,0,0-.07-.16l.08.13a.86.86,0,0,0,0-.16,2.87,2.87,0,0,0-.09-.5C49.46,63.23,49.06,62.51,48.64,61.8Z" transform="translate(0 0.01)"/><path class="cls-1" d="M46.62,61.79s0,.07-.1,0-.1-.36-.24-.52l-.07,0L46,60.86c-.17-.26-.34-.51-.52-.76,0,0,0,0-.05,0a3.45,3.45,0,0,1-.24-.41l0-.07a.11.11,0,0,0-.06,0L45,59.44c-.57-.7-1.17-1.39-1.81-2.15a3.71,3.71,0,0,1-.44-.45,7.74,7.74,0,0,1-.48-.83c-.18.16-.64-.39-.77-.14-.09-.17-.24-.42-.3-.4s-.46.05-.83-.32c-.12-.16-.21-.46-.28-.5s0,.29-.1.23c.72,1.3,1.53,2.48,2.31,3.76.35.38,2.18,3.29,2.6,4.07l.05.06A7.15,7.15,0,0,0,45.8,64c.15.14.3.26.45.39a2.46,2.46,0,0,1,0-.26,1.26,1.26,0,0,0,.26.37c.3.3.28,0,.33-.17s.17-.06.14-.25c.06.11.09.17.16.28S46.88,64,47,64a2.3,2.3,0,0,0,.21.33c.05-.09-.2-.4-.12-.43s.09.37.2.34-.05-.12-.08-.18c.24.32.44.45.35.08a2.87,2.87,0,0,0,.2.39h0c0-.06-.07-.17-.1-.22l.11.2s0,0,0-.06a.77.77,0,0,0-.07-.16l.07.13a.9.9,0,0,0,0-.16,2.44,2.44,0,0,0-.09-.47C47.39,63.14,47,62.45,46.62,61.79Z" transform="translate(0 0.01)"/><path class="cls-1" d="M45.42,59.66s0-.07.08,0,.07.25.18.33l.06,0,.11.31.39.45s0,0,0,0a1.17,1.17,0,0,1,.17.26l0,0,.06,0s0,.09.07.13c.43.4.88.81,1.35,1.28a1.92,1.92,0,0,1,.34.27,3.06,3.06,0,0,1,.31.56c.18-.14.51.21.67,0,.06.11.15.29.21.26a.65.65,0,0,1,.7.16c.09.11.12.33.17.35s0-.22.13-.18A20.66,20.66,0,0,0,49,61.17c-.25-.25-1.63-2.15-2-2.64l0,0a3.06,3.06,0,0,0-.7-.73,2.32,2.32,0,0,0-.39-.18,1.37,1.37,0,0,1,0,.19c-.08-.1-.16-.2-.22-.21-.26-.15-.24,0-.29.22s-.15.09-.13.23l-.13-.17c-.06,0,.19.18.07.21s-.12-.13-.18-.19.17.24.09.29S45,57.89,45,58s0,.07.06.11c-.2-.18-.37-.22-.31,0a1.4,1.4,0,0,0-.15-.24h0a1,1,0,0,0,.08.14l-.09-.12,0,0a.31.31,0,0,0,0,.1L44.51,58a.69.69,0,0,0,0,.13,1.16,1.16,0,0,0,0,.34C44.82,58.84,45.12,59.25,45.42,59.66Z" transform="translate(0 0.01)"/><path class="cls-1" d="M46.2,62.53s0,.08-.1,0-.14-.38-.3-.53l-.06,0-.22-.49-.6-.79s0,0-.06,0-.18-.27-.29-.43l-.06-.07h-.06l-.12-.2-2.06-2.23a5.56,5.56,0,0,1-.5-.47c-.2-.24-.39-.6-.57-.87-.16.18-.68-.38-.78-.12-.12-.18-.29-.44-.35-.41s-.46.07-.87-.31c-.14-.16-.26-.48-.34-.52s0,.31-.07.25c.85,1.35,1.79,2.57,2.7,3.9.4.39,2.53,3.41,3,4.22l0,.07a8,8,0,0,0,1,1.25l.5.4c0-.1,0-.19,0-.27a1.86,1.86,0,0,0,.31.39c.33.31.29,0,.32-.19s.17-.06.12-.26l.19.29c.06,0-.27-.33-.12-.31a2.08,2.08,0,0,0,.24.34c0-.09-.24-.41-.16-.44s.13.38.23.35S47.08,65,47,65c.27.33.49.47.37.08a2.91,2.91,0,0,0,.24.41h0l-.13-.23.14.21v-.06a.89.89,0,0,0-.08-.17l.08.14a1,1,0,0,0,0-.17,2.33,2.33,0,0,0-.13-.5Q46.91,63.58,46.2,62.53Z" transform="translate(0 0.01)"/><path class="cls-1" d="M45.34,63s0,.09-.07.07-.18-.26-.33-.34l0,.05-.26-.32L44,62s0,0-.05,0a2.12,2.12,0,0,1-.3-.26l-.06,0a.09.09,0,0,0,0,0l-.13-.13-2-1.15a2.34,2.34,0,0,1-.48-.22,4.33,4.33,0,0,1-.58-.55c-.13.2-.64-.1-.71.15-.12-.11-.29-.28-.34-.24a.7.7,0,0,1-.8,0c-.14-.09-.27-.33-.34-.34s.06.25,0,.23c.87.9,1.82,1.64,2.77,2.46.39.21,2.64,2,3.2,2.48l.06,0a4.76,4.76,0,0,0,1,.67l.49.14-.09-.21a.85.85,0,0,0,.32.2l2,.29-1.21-.89h0c-.24-.26-.26,0-.35.15a0,0,0,0,1,0,0l-.14.19V65c0-.08.12-.1.06-.23l.06.06-.18.15L46,64.81s0,.1,0,.17l.21-.17s-.08-.07,0-.09a.12.12,0,0,0,0,0L46,65c0-.08-.09-.15-.12-.22s0,.16,0,.25l.41-.33s-.07-.08-.05-.1.05,0,.07.07l-.46.38c0-.09,0-.21-.1-.19s0,.1.05.15c-.17-.28-.34-.4-.32-.08a3.42,3.42,0,0,0-.13-.34h0l.06.19-.07-.17,0,0a.74.74,0,0,0,0,.14l0-.12a.78.78,0,0,0-.05.14,1.81,1.81,0,0,0,0,.41l0,.09,1.41-1.15C46.28,63.76,45.82,63.37,45.34,63Z" transform="translate(0 0.01)"/><path class="cls-1" d="M44,61s0,.09-.08.06-.16-.3-.31-.4l-.06,0-.23-.37-.59-.56s0,0,0,0a2.36,2.36,0,0,1-.28-.32l-.06,0a.07.07,0,0,0-.06,0l-.12-.15c-.63-.5-1.28-1-2-1.56a2.77,2.77,0,0,1-.47-.32,6.6,6.6,0,0,1-.54-.67c-.15.18-.64-.24-.74,0-.11-.14-.27-.34-.33-.31s-.43.13-.81-.16c-.14-.12-.25-.39-.32-.41s0,.27-.07.23c.78,1.09,1.69,2,2.58,3.06.37.29,2.51,2.55,3,3.14l.05.05a5.86,5.86,0,0,0,1,.89l.49.22c0-.08-.05-.16-.07-.23a1,1,0,0,0,.32.27c.33.18.26,0,.27-.26s.15-.09.08-.26l.2.21c.06,0-.28-.22-.14-.24a1.84,1.84,0,0,0,.25.23c0-.09-.26-.3-.18-.35s.14.31.24.25-.07-.1-.11-.14c.28.22.49.28.34,0a2.43,2.43,0,0,0,.26.3h0L45.38,63l.14.14v-.06a.94.94,0,0,0-.09-.12l.09.1a.92.92,0,0,0,0-.16,1.63,1.63,0,0,0-.16-.4C44.9,62,44.44,61.47,44,61Z" transform="translate(0 0.01)"/><path class="cls-1" d="M36.44,58.94s0-.09.08-.06.15.3.3.4l.06,0,.22.37c.19.18.39.36.6.53,0,0,0,0,0,0a3.05,3.05,0,0,1,.29.31l.05,0,.06,0,.13.14c.65.45,1.33.86,2.07,1.29a2.9,2.9,0,0,1,.5.23,6.67,6.67,0,0,1,.64.53c.11-.21.65.07.7-.19.12.1.32.25.37.2a.71.71,0,0,1,.79-.09c.15.07.31.28.38.28s-.1-.23,0-.23c-1-.75-1.94-1.41-2.88-2.22a19.4,19.4,0,0,1-3-2.71l0,0a5.92,5.92,0,0,0-.9-.85l-.45-.24c0,.09,0,.16,0,.23-.1-.12-.21-.25-.28-.27-.3-.2-.26,0-.29.23s-.16.09-.11.25l-.17-.22c-.06,0,.24.24.11.25s-.15-.16-.22-.25c0,.09.22.32.14.36s-.11-.31-.21-.26.05.1.09.14c-.25-.24-.45-.31-.34,0a2.82,2.82,0,0,0-.21-.31h0l.11.17-.12-.15v.06a.75.75,0,0,0,.07.12l-.08-.1c0,.05,0,.1,0,.15a2.36,2.36,0,0,0,.12.41A19.21,19.21,0,0,0,36.44,58.94Z" transform="translate(0 0.01)"/><path class="cls-1" d="M37,57.79s.05-.08.09-.06.07.22.19.28l0,0,.13.28.41.36s0,0,0,0a1,1,0,0,1,.19.21l0,0,0,0,.08.1,1.44.89A2.43,2.43,0,0,1,40,60a3,3,0,0,1,.37.43c.15-.18.51,0,.62-.19.08.09.19.22.24.18a.59.59,0,0,1,.66-.08c.1.06.17.25.23.25s0-.21.08-.2c-.55-.68-1.18-1.23-1.79-1.86a16.7,16.7,0,0,1-2-2l0,0a2.32,2.32,0,0,0-.66-.56l-.36-.12c0,.07,0,.13,0,.18s-.15-.17-.21-.17c-.24-.11-.23.07-.28.24s-.15.1-.13.22l-.12-.14s.19.15.07.18-.12-.1-.17-.16.16.21.09.26-.06-.23-.15-.17,0,.07,0,.1c-.18-.14-.35-.17-.29.07,0-.06-.08-.17-.15-.21h0a.83.83,0,0,0,.08.12l-.09-.1,0,.05,0,.09-.06-.07s0,.08,0,.12a1.3,1.3,0,0,0,.05.31C36.37,57.09,36.66,57.45,37,57.79Z" transform="translate(0 0.01)"/><path class="cls-1" d="M38.48,57.51s0-.07.08,0,.12.24.25.31l0,0L39,58l.5.41s0,0,.05,0a1.8,1.8,0,0,1,.24.24l0,0,.05,0,.11.12,1.7,1a1.92,1.92,0,0,1,.41.19,4.25,4.25,0,0,1,.47.48c.13-.19.56.06.65-.18.09.1.23.25.29.2a.62.62,0,0,1,.71-.06c.12.08.22.28.28.29s0-.23.06-.22c-.7-.76-1.47-1.38-2.22-2.1a24,24,0,0,1-2.49-2.24l0,0a3.36,3.36,0,0,0-.8-.64l-.42-.14a1.62,1.62,0,0,1,0,.19c-.09-.09-.18-.19-.25-.2-.28-.12-.24.07-.27.26s-.15.1-.11.23l-.15-.16c-.06,0,.22.17.1.2s-.14-.11-.21-.18c0,.09.2.24.13.29s-.1-.25-.19-.19.05.08.08.11c-.22-.17-.41-.2-.31.06a2.23,2.23,0,0,0-.19-.24h0s.08.11.11.14l-.11-.11,0,0a.61.61,0,0,0,.07.1l-.07-.08a.66.66,0,0,0,0,.14,1.81,1.81,0,0,0,.1.34C37.72,56.73,38.09,57.13,38.48,57.51Z" transform="translate(0 0.01)"/><path class="cls-1" d="M40.6,56.24s0-.07.08-.05.06.22.16.28l.06,0,.1.27.36.35s0,0,0,0a1,1,0,0,1,.16.21l0,0,0,0,.07.11,1.32.89a2,2,0,0,1,.33.16,2.73,2.73,0,0,1,.33.43c.16-.17.5.06.63-.15.06.08.16.21.22.17a.63.63,0,0,1,.66,0c.1.06.15.25.2.25s0-.2.1-.19c-.48-.68-1.06-1.23-1.6-1.86a15,15,0,0,1-1.81-2l0,0a2.25,2.25,0,0,0-.6-.56,3.59,3.59,0,0,0-.35-.12.48.48,0,0,1,0,.17c-.06-.08-.13-.17-.19-.17-.22-.11-.22.07-.28.23s-.15.1-.14.22l-.11-.14s.17.15.06.18-.11-.1-.15-.16.13.21.06.26,0-.23-.13-.17,0,.07,0,.1c-.17-.15-.33-.17-.29.06a.92.92,0,0,0-.13-.21h0l.07.12-.08-.1,0,0a.19.19,0,0,0,0,.09l0-.06s0,.08,0,.12a1.05,1.05,0,0,0,0,.3C40.08,55.56,40.33,55.91,40.6,56.24Z" transform="translate(0 0.01)"/><path class="cls-1" d="M41.23,55.47s.06,0,.08,0,0,.14,0,.16l.06,0v.17a1.53,1.53,0,0,0,.18.18s0,0,0,0,0,.08.06.12h0l.05,0a.14.14,0,0,1,0,.06l.8.4a.71.71,0,0,1,.22.07.86.86,0,0,1,.13.23c.18-.13.39,0,.56-.19,0,.05.07.12.13.09a.77.77,0,0,1,.56-.13c.06,0,0,.15.09.15s.07-.14.14-.14a7.57,7.57,0,0,0-.73-1.05,4.23,4.23,0,0,1-.86-1.09l0,0a.69.69,0,0,0-.31-.3l-.24,0-.06.12s-.05-.1-.1-.09-.2.08-.3.21-.15.1-.18.18l0-.08c-.06,0,.09.07,0,.11s-.06-.05-.07-.08,0,.12,0,.17,0-.16-.06-.1,0,.05,0,.06a.15.15,0,0,0-.25.09s0-.1,0-.12h0s0,.06,0,.08l0-.06,0,0s0,0,0,0l0,0-.06.09a1,1,0,0,0-.07.21A2.94,2.94,0,0,0,41.23,55.47Z" transform="translate(0 0.01)"/><path class="cls-1" d="M42,54.66l.09,0s-.08.07,0,.07l.06,0-.06.08a.28.28,0,0,0,.08.06l.05,0s0,0,0,0h0l0,0v0l.49,0,.16,0s0,.07,0,.09c.2-.1.34-.09.54-.2,0,0,0,0,.07,0a2,2,0,0,1,.52-.17s0,.07,0,.06.11-.08.17-.1-.13-.24-.19-.37-.3-.27-.29-.37h0c0-.05,0-.09-.14-.09l-.19,0-.09.07s0,0,0,0a.8.8,0,0,0-.33.17,1.43,1.43,0,0,0-.21.12v0c-.06,0,.05,0,0,0s0,0,0,0,0,0-.09.09.09-.09,0,0,0,0,0,0a.28.28,0,0,0-.24.09s0,0,0,0h0v0l0,0a0,0,0,0,0,0,0h0l-.08.05-.14.12A.36.36,0,0,0,42,54.66Z" transform="translate(0 0.01)"/><path class="cls-1" d="M40.92,55.89s.06,0,.09,0,0,.19.06.24l.06,0,0,.22a3.62,3.62,0,0,0,.22.32l.05,0a.67.67,0,0,1,.09.19l0,0h.06l0,.09.93.83a1.28,1.28,0,0,1,.26.16,1.76,1.76,0,0,1,.17.37c.2-.12.44.09.62-.07,0,.08.08.19.15.17a.63.63,0,0,1,.62,0c.07.06.05.22.1.22s.07-.16.15-.14a18,18,0,0,0-.91-1.67A9.33,9.33,0,0,1,42.63,55l0,0a1.35,1.35,0,0,0-.38-.52L42,54.32l-.05.15c0-.08-.07-.15-.12-.16s-.22,0-.32.18-.16.07-.19.17l-.05-.12c-.06,0,.11.13,0,.15s-.06-.09-.08-.14.06.18,0,.22,0-.2-.07-.15,0,.06,0,.08c-.11-.13-.24-.16-.27,0,0-.05,0-.14-.06-.18h0s0,.08,0,.1l0-.09,0,0a.19.19,0,0,0,0,.08l0-.06-.06.1a1.09,1.09,0,0,0-.07.25A8.3,8.3,0,0,0,40.92,55.89Z" transform="translate(0 0.01)"/><path class="cls-1" d="M39.15,55.66s.06,0,.08,0,0,.12,0,.13l0,0,0,.13a.62.62,0,0,0,.14.14l0,0s0,.06,0,.09h0l0,0a.09.09,0,0,1,0,0l.68.26a.53.53,0,0,1,.19,0c.06,0,.06.13.09.18.19-.12.37-.05.55-.2,0,0,0,.1.1.07a.91.91,0,0,1,.55-.14s0,.12.06.11.09-.11.15-.12a4.37,4.37,0,0,0-.52-.82,2.45,2.45,0,0,1-.65-.84h0a.38.38,0,0,0-.25-.23h-.21l-.07.11s0-.08-.08-.07-.2.09-.31.21-.15.09-.19.16l0-.06c-.05,0,.08.05,0,.09s0,0-.06-.06,0,.1,0,.14.06-.13,0-.07,0,0,0,.05a.15.15,0,0,0-.24.09s0-.08,0-.09h0s0,0,0,.06l0,0,0,0a.06.06,0,0,0,0,0v0l-.07.08c0,.07-.11.16-.1.18A1.83,1.83,0,0,0,39.15,55.66Z" transform="translate(0 0.01)"/><path class="cls-1" d="M38.62,56.36s.05-.07.08-.06,0,.16.09.2l.05,0,0,.2.25.23s0,0,0,0,.07.09.11.14l0,0,.05,0,0,.07,1,.51a1.26,1.26,0,0,1,.25.07,1.15,1.15,0,0,1,.2.29c.17-.16.41,0,.56-.23,0,0,.1.14.15.1a.63.63,0,0,1,.57-.16c.06,0,.07.17.11.16s0-.16.12-.17a11.25,11.25,0,0,0-1-1.19,6.5,6.5,0,0,1-1.16-1.26l0,0a.87.87,0,0,0-.4-.34l-.28,0,0,.14c0-.06-.08-.11-.13-.11s-.21.08-.3.22-.15.1-.16.19l-.07-.09c-.05,0,.12.09,0,.13s-.07-.07-.09-.11.07.15,0,.2,0-.18-.08-.12,0,.05,0,.07-.25-.09-.26.09c0,0,0-.12-.07-.15h0s0,.06,0,.08l0-.07,0,0a.64.64,0,0,0,0,.07l0,0-.05.1c0,.09-.06.2,0,.23A5.56,5.56,0,0,0,38.62,56.36Z" transform="translate(0 0.01)"/><path class="cls-1" d="M36.18,56.89s.06-.06.08-.06,0,.11,0,.12l.05-.05V57a.56.56,0,0,0,.15.1l0,0s0,0,0,.08h0l0,0s0,0,0,0l.66.09a.59.59,0,0,1,.18,0c.06,0,.07.1.1.14.17-.16.34-.14.49-.32,0,0,.05.08.1,0a1,1,0,0,1,.49-.27s0,.1.06.08.07-.13.13-.15a2.84,2.84,0,0,0-.56-.59,1.81,1.81,0,0,1-.67-.58h0a.28.28,0,0,0-.25-.14l-.21,0,0,.11s0-.06-.08,0-.18.12-.28.25-.13.11-.16.18l0,0s.08,0,0,.09,0,0-.06,0,0,.08,0,.14,0-.13,0-.06,0,0,0,0-.17,0-.22.14,0-.08,0-.08h0s0,0,0,0l0,0,0,0v0l-.06.08c0,.07-.09.16-.08.18A1.57,1.57,0,0,0,36.18,56.89Z" transform="translate(0 0.01)"/><path class="cls-1" d="M34.72,57.56a.18.18,0,0,1,.06-.08s0,.1,0,.08l0-.05v.11l.12,0,0,0s0,0,0,0h0l0,0,0,0,.51-.17a1.15,1.15,0,0,1,.15-.08s0,.06.08.09c.12-.19.26-.24.37-.44,0,0,0,0,.08,0a1.63,1.63,0,0,1,.37-.4s0,.08.05.05,0-.13.1-.18c-.11-.16-.29-.18-.44-.28s-.46-.14-.53-.24h0a.16.16,0,0,0-.2,0l-.16.11,0,.11s0,0-.07,0a.76.76,0,0,0-.21.31c0,.06-.1.14-.13.21l0,0c0,.05,0,0,0,.08s0,0,0,0,0,.06,0,.13,0-.12,0,0,0,0,0,0a.24.24,0,0,0-.17.19s0-.06,0-.06h0s0,0,0,0l0,0,0,0s0,0,0,0l0,0,0,.09a1.18,1.18,0,0,0-.06.18A.89.89,0,0,0,34.72,57.56Z" transform="translate(0 0.01)"/><path class="cls-1" d="M31.46,82.8s.08,0,.08.06-.18.1-.2.21l.05,0-.21.15c-.07.14-.14.28-.2.42s0,0,0,0a.67.67,0,0,1-.13.2l0,0s0,0,0,0l-.07.09-.38,1.4a1.25,1.25,0,0,1,0,.35,2.7,2.7,0,0,1-.27.39c.2.11.1.48.34.55-.06.08-.14.2-.09.24a.64.64,0,0,1,.25.6c0,.11-.18.19-.17.25s.19,0,.21,0c.46-.61.78-1.28,1.19-1.93a12.68,12.68,0,0,1,1.22-2.15l0,0a1.87,1.87,0,0,0,.32-.69c0-.11,0-.22,0-.34l-.16,0c.06-.08.11-.16.1-.21,0-.23-.14-.19-.32-.2s-.14-.1-.25-.06l.1-.13c-.06,0-.08.18-.15.09s.06-.12.09-.17-.14.17-.21.12.2-.09.11-.16-.06,0-.08.07c.08-.19.05-.33-.15-.24,0-.05.12-.1.14-.16h0l-.09.08.07-.09h-.05a.13.13,0,0,0-.07.06l.05-.07h-.13c-.11,0-.24.06-.27.1A9.17,9.17,0,0,0,31.46,82.8Z" transform="translate(0 0.01)"/><path class="cls-1" d="M31.48,87.75l.28-.17c.17-.06-.25.17-.12.11l.24-.1a1,1,0,0,1-.33.15h.29l.3,0c.11,0,0,0,0,.06h.4s0,0-.06,0a5.93,5.93,0,0,1,1.18.38c.42.26.63.35.44.43.09.07.12.13,0,.15s-.85-.1-1.18-.14c.35.15.38.24.36.32s-.27.11,0,.23a2.62,2.62,0,0,0-.79,0c0,.17-.09.36-1.08.43-.4,0-1-.1-1.14-.07s.51.16.29.21c1.55.09,3.09.14,4.61.18l2.26.06,1.14,0h1l0,0s0-.07.16-.13l.7-.38A15.59,15.59,0,0,0,38,86.8a8.16,8.16,0,0,0-2.4-1.44l-.14,0a4.79,4.79,0,0,0-2.89-.09,4.39,4.39,0,0,0-1.25.61,2.43,2.43,0,0,1,.47-.08,2.27,2.27,0,0,0-.87.48c-.68.63-.17.37.09.38s0,.2.23.13a4,4,0,0,0-.35.26c0,.06.42-.36.35-.17a1.57,1.57,0,0,0-.38.31c.09,0,.43-.31.44-.19s-.37.13-.33.24.11-.07.16-.1a1.54,1.54,0,0,0-.18.2.53.53,0,0,0-.09.19c0,.09.06.08.25,0a1.71,1.71,0,0,0-.38.38h0l.21-.22c-.07.07-.12.15-.18.22h.06l.16-.15-.12.14a.58.58,0,0,0,.17-.06c.09,0,.22-.12.26-.11s.07,0,.07,0S31.49,87.74,31.48,87.75Z" transform="translate(0 0.01)"/><path class="cls-1" d="M30.34,88.06s0,.08,0,.1-.14,0-.15,0,0,0,0,0v.07a.34.34,0,0,1,0-.1.16.16,0,0,1-.06.05l-.05,0s0,0,0,0h0l-.07,0,0,0a.19.19,0,0,1-.19-.13.69.69,0,0,1,0-.19l.07-.42a1.18,1.18,0,0,1,0-.38,2.08,2.08,0,0,1,.28-.48c-.22-.09-.11-.51-.35-.55.06-.1.16-.25.1-.29a.6.6,0,0,1-.22-.65c.05-.13.23-.24.22-.3s-.21.06-.22,0a9.84,9.84,0,0,0-1.34,2.47c0,.21-.66,1.42-.22,2.16A1.23,1.23,0,0,0,29.2,90h1.13a2.45,2.45,0,0,0,.87-.1l.34-.18-.14-.12a.44.44,0,0,0,.27,0c.24-.1.1-.21,0-.37s0-.17-.08-.24h.19c0-.07-.24,0-.19-.08s.16,0,.24,0-.27,0-.26-.12.22.12.23,0-.07,0-.11,0c.23,0,.36-.13.15-.25.07,0,.18.05.26,0h0l-.15,0h.14l0,0-.1,0h.09l-.07-.1a1.54,1.54,0,0,0-.27-.18Q31,88.07,30.34,88.06Z" transform="translate(0 0.01)"/><path class="cls-1" d="M30.68,88.4l-.09,0c0-.06.12,0,.09-.09l-.06,0,.13-.05c0-.06,0-.12.05-.18s0,0,0,0,0,0,.07-.08v0l0,0,0,0a2,2,0,0,1,.22-.76.63.63,0,0,1,.08-.22.54.54,0,0,1,.25-.09c-.1-.21.08-.39,0-.59.07,0,.17,0,.16-.1a.55.55,0,0,1,.18-.58c.08,0,.22,0,.25,0s-.12-.13-.08-.2A3,3,0,0,0,30,86c-.06.1-.37.39-.63.76a5.54,5.54,0,0,0-.53,1v0a1.13,1.13,0,0,0-.07.6l1.59.46v0l-.09-.24-.14,0s.06-.11,0-.15-.17-.14-.33-.15-.16-.09-.24-.06l0-.09c-.06,0,0,.12-.11,0s0-.08,0-.11-.09.11-.17.07.16-.06.06-.11,0,0,0,0,0-.24-.19-.18c0,0,.08-.07.08-.12h0a.34.34,0,0,1-.06.06l0-.06h-.05s0,0,0,0l0,0h-.11a1.87,1.87,0,0,0-.22.06l-.18.27,1.88.55Z" transform="translate(0 0.01)"/><path class="cls-1" d="M31.43,88.66s0-.07,0-.1.14.09.2,0v-.06l.18.08.31-.07s0,0,0-.06a.48.48,0,0,1,.17,0h0s0,0,0,0h.08c.31-.14.63-.29,1-.42a.71.71,0,0,1,.24-.13,1.06,1.06,0,0,1,.35,0c0-.23.28-.32.25-.55.07,0,.18,0,.2,0a.63.63,0,0,1,.34-.5c.09,0,.2.09.23,0s-.08-.15,0-.21a7.73,7.73,0,0,0-1.8-.15,17.35,17.35,0,0,1-1.95.18h0a1,1,0,0,0-.57.18,1.37,1.37,0,0,0-.19.22l.11.09c-.08,0-.15,0-.17.06s0,.23.06.37,0,.17.09.23h-.12c0,.07.14-.06.13.06s-.09,0-.14,0,.17,0,.18.09-.16-.09-.14,0,0,0,.07,0c-.14.06-.19.18,0,.27-.05,0-.12,0-.16,0h0l0,0,.07,0h-.06l.07.09c.07.06.15.15.18.14A5.57,5.57,0,0,0,31.43,88.66Z" transform="translate(0 0.01)"/><path class="cls-1" d="M31.36,89.43s0-.08,0-.1.19.08.29,0V89.3l.25.08.46-.08a0,0,0,0,1,0,0,.68.68,0,0,1,.25,0l0,0a.07.07,0,0,0,0,0h.11l1.34-.56a1.53,1.53,0,0,1,.29-.18,2.48,2.48,0,0,1,.47,0c0-.23.29-.38.19-.6.09,0,.23,0,.23-.09a.63.63,0,0,1,.27-.57c.1-.05.26,0,.28,0s-.14-.12-.09-.19c-.73,0-1.41.2-2.13.27a10,10,0,0,1-2.33.29h0a1.88,1.88,0,0,0-.72.13l-.26.2.12.11c-.1,0-.19,0-.22,0-.2.1-.08.22,0,.37s0,.17.08.24H30.1c0,.06.19,0,.15.07s-.13,0-.19,0,.22,0,.22.12-.19-.11-.2,0,.07,0,.1,0c-.2,0-.3.15-.12.26-.06,0-.15,0-.22,0h0l.12,0h-.12l0,0,.09,0h-.07l.06.1c.09.07.18.17.23.17A11.63,11.63,0,0,0,31.36,89.43Z" transform="translate(0 0.01)"/><path class="cls-1" d="M32.34,89.58s0-.08,0-.1.18.11.29.07v-.06l.25.1.48,0s0-.05,0-.06a1.12,1.12,0,0,1,.25,0h0a.11.11,0,0,0,0,0h.12c.45-.15.9-.33,1.38-.53a1.2,1.2,0,0,1,.29-.19,2.59,2.59,0,0,1,.48,0c0-.22.27-.39.17-.61.09,0,.23,0,.22-.09a.65.65,0,0,1,.23-.59c.09,0,.25,0,.27,0s-.14-.11-.11-.19c-.69.08-1.33.26-2,.32a7,7,0,0,1-2.26.17h0a1.8,1.8,0,0,0-.7,0l-.28.16.1.13c-.09,0-.18,0-.22,0-.21.08-.11.2,0,.37s0,.17,0,.25l-.15,0c0,.07.2,0,.14.09s-.13,0-.19,0,.21.06.2.14-.17-.13-.2,0,.06,0,.1,0c-.2,0-.33.1-.16.24a1.29,1.29,0,0,0-.21-.06h0l.12,0-.12,0,0,0a.2.2,0,0,0,.08,0h-.08l.06.11c.08.07.16.19.21.19A7,7,0,0,0,32.34,89.58Z" transform="translate(0 0.01)"/><path class="cls-1" d="M35.19,89.51s0-.08,0-.1.11.1.17.06v-.06l.15.09a1.51,1.51,0,0,0,.28,0s0,0,0,0,.1,0,.15,0h0s0,0,0-.05h.06c.28-.12.56-.27.86-.42a.83.83,0,0,1,.19-.15c.09,0,.21,0,.3,0,0-.23.2-.34.16-.57,0,0,.14,0,.15-.06a.68.68,0,0,1,.22-.53c.06,0,.15,0,.17,0s-.08-.14,0-.2a8.82,8.82,0,0,0-1.36,0,4.75,4.75,0,0,1-1.49.1h0a.68.68,0,0,0-.46.09c-.06,0-.11.12-.17.18l.07.12c-.06,0-.12,0-.14,0s0,.21,0,.37,0,.17,0,.24h-.1c0,.06.12,0,.09.07s-.08,0-.12,0,.14,0,.13.12-.11-.12-.12,0,0,0,.06,0-.19.13-.08.25-.09,0-.13,0h0l.07,0h-.06a.09.09,0,0,0,0,.05l.05,0h-.05a.42.42,0,0,1,0,.1c.06.07.11.17.14.18A4.43,4.43,0,0,0,35.19,89.51Z" transform="translate(0 0.01)"/><path class="cls-1" d="M34.74,89.15s0-.08,0-.1.1.12.17.09v-.06l.14.12h.3a.07.07,0,0,1,0,0c.05,0,.1,0,.16,0h0a.17.17,0,0,0,0-.05l.07,0a8,8,0,0,0,.91-.35.72.72,0,0,1,.19-.13.92.92,0,0,1,.29,0c0-.23.21-.34.17-.57.05,0,.14,0,.14-.06a.78.78,0,0,1,.19-.54s.14,0,.16,0-.08-.14,0-.2c-.4-.06-.79,0-1.2,0a2.88,2.88,0,0,1-1.32-.08h0a.67.67,0,0,0-.42,0l-.16.12-.78.4a.76.76,0,0,0,0,.27.5.5,0,0,1,.09-.24l.53-.88.16.53,0,.07h0l-.4-.13-.21.44a.6.6,0,0,0,0,.49.36.36,0,0,0,.21.19c.28.09.27,0,.27-.06s0-.15,0-.24,0-.08,0-.11.06-.08,0,0,0,0,0-.05a0,0,0,0,0,0,0s0,0,0,0,0,0,0,0,.08-.16.08-.12v0l0,.09c0,.07-.05.06-.05.06s.1-.17.08-.18,0,.08,0,.12c0-.15,0-.19,0-.17v0c0-.07,0,0,0,.09h0a.36.36,0,0,1,0-.11.84.84,0,0,0,0,.1v0a.25.25,0,0,1,0-.08.2.2,0,0,0,0,.07v-.06c0-.06,0,.07,0,.13s-.11.09,0,.1l-.33.89A3.19,3.19,0,0,0,34.74,89.15Z" transform="translate(0 0.01)"/><path class="cls-1" d="M38,67.72s.09.06,0,.11c-.36.11-.68,0-1,.14V68l-.91.08-1.66.36s0,0,0,.06c-.23.06-.55.09-.89.15l-.14,0s0,0,0,.06l-.41.06-5,1.31c-.37.12-.74.24-1.1.33-.55.11-1.25.18-1.78.25.12.22-1.16.53-.87.72a3.11,3.11,0,0,0-.91.19c-.05.21-.29.47-1.22.73-.36.08-.95.08-1.07.14s.5.07.3.16c2.77-.33,5.4-.83,8.16-1.29.93-.24,7.25-1.43,8.87-1.72l.15,0A24.64,24.64,0,0,0,41,69l1-.4-.46,0a4.35,4.35,0,0,0,.83-.2c.73-.26.28-.28,0-.37s0-.19-.3-.19l.59-.11c0-.07-.71.18-.57,0a6.53,6.53,0,0,0,.71-.16c-.1-.07-.82.14-.8,0s.68,0,.7-.13-.23,0-.35,0c.72-.18,1.09-.37.41-.34.23,0,.56-.07.8-.14h0l-.45.07.41-.08-.08,0a1.65,1.65,0,0,0-.31,0l.27-.06-.25,0a7.87,7.87,0,0,0-.85,0Z" transform="translate(0 0.01)"/><path class="cls-1" d="M23.15,73s-.06-.07,0-.11c.26-.08.49,0,.74-.06v-.06h.64l1.18-.22s0,0,0-.06.39-.05.62-.08l.1,0a0,0,0,0,0,0,0l.29,0,3.55-.9a7.75,7.75,0,0,1,.78-.24C31.51,71,32,71,32.39,71c-.09-.22.82-.43.61-.65.25,0,.63,0,.65-.12s.2-.44.86-.63c.26,0,.67,0,.76,0s-.35-.11-.21-.18c-2,.11-3.83.4-5.79.65-.66.17-5.14.85-6.29,1l-.11,0a12.69,12.69,0,0,0-1.9.41l-.7.31.33.06A2.11,2.11,0,0,0,20,72c-.51.19-.19.25,0,.37s0,.18.22.21l-.41.06c0,.07.5-.12.4,0a5,5,0,0,0-.5.11c.08.07.58-.07.57,0s-.48,0-.5.08.17,0,.25,0c-.5.12-.76.28-.28.31a3.85,3.85,0,0,0-.57.07h0l.31,0-.29.05.06,0h.22l-.19,0,.18.07a3.32,3.32,0,0,0,.61.07C21.14,73.24,22.15,73.1,23.15,73Z" transform="translate(0 0.01)"/><path class="cls-1" d="M26.53,70.6s-.11,0,0-.11c.42-.22.82-.22,1.25-.43V70l1.09-.32,2-.79s0,0,0-.07c.27-.12.66-.23,1.06-.37l.17-.07a.08.08,0,0,0,0-.07l.5-.16c1.9-.79,3.86-1.57,6-2.3.45-.18.91-.35,1.35-.49.67-.19,1.54-.33,2.19-.46-.15-.22,1.45-.62,1.09-.79a6.65,6.65,0,0,0,1.16-.21c.09-.2.4-.5,1.68-.63a14.19,14.19,0,0,1,1.45.13c.29,0-.63-.22-.35-.25a16.46,16.46,0,0,0-5.43.43c-1.7.36-3.38.8-5.08,1.29-.57.21-2.8.91-5.09,1.74S27,68.35,26,68.71l-.17.07a32.71,32.71,0,0,0-3.16,1.4l-1.15.68.56-.11a7.28,7.28,0,0,0-1,.44c-.85.47-.3.36.1.36s0,.2.39.1l-.69.29c0,.07.84-.39.69-.21s-.56.25-.84.36c.13,0,1-.37,1-.27s-.82.22-.83.34a2.18,2.18,0,0,0,.41-.15c-.83.39-1.26.69-.44.47-.27.11-.67.23-.95.36h0l.53-.19-.48.2h.1l.38-.13-.33.13.32,0c.41-.1.81-.16,1-.24Z" transform="translate(0 0.01)"/><path class="cls-1" d="M30.2,70.16s-.09-.06,0-.11c.3-.13.6-.07.9-.2v-.07l.79-.13,1.44-.43s0,0,0-.07.48-.12.76-.18l.13,0a.06.06,0,0,0,0-.06l.36-.07c1.39-.48,2.8-1,4.35-1.43.33-.13.65-.26,1-.35s1.09-.19,1.56-.27c-.11-.21,1-.53.74-.71a3.15,3.15,0,0,0,.81-.19c0-.21.24-.47,1.07-.72.32-.08.84-.07,1-.13s-.45-.07-.27-.16c-2.47.29-4.81.8-7.25,1.33l-7.77,2.09-.13,0a17.42,17.42,0,0,0-2.32.81l-.84.47.42,0a3.7,3.7,0,0,0-.72.27c-.61.31-.21.3.09.36s0,.19.29.16l-.5.16c0,.07.61-.24.5-.09a5.65,5.65,0,0,0-.61.22c.1.06.71-.21.71-.11s-.6.08-.61.19a1.14,1.14,0,0,0,.3-.07c-.6.24-.91.45-.31.37-.19.07-.48.12-.69.2h0l.38-.1-.35.11.07,0,.28-.07-.24.07a.88.88,0,0,0,.24,0,5.77,5.77,0,0,0,.74-.06Z" transform="translate(0 0.01)"/><path class="cls-1" d="M35.45,68.81s-.06-.07,0-.11.33,0,.48-.07v-.06l.42,0,.75-.24a0,0,0,0,1,0-.06,2.69,2.69,0,0,1,.4-.09l.06,0a.08.08,0,0,0,0-.06l.18,0,2.22-1a3.78,3.78,0,0,1,.49-.25,5.72,5.72,0,0,1,.81-.14c-.08-.22.49-.45.33-.65.17,0,.41-.07.41-.13a.72.72,0,0,1,.51-.64c.17-.06.44,0,.5-.08s-.25-.09-.16-.17a37.18,37.18,0,0,0-3.78.76c-.42.18-3.32.93-4.06,1.11l-.07,0a4.82,4.82,0,0,0-1.21.45l-.42.31.23,0a1,1,0,0,0-.37.15c-.31.2-.08.25.09.36s0,.17.19.2l-.27.07c0,.06.31-.13.27,0a1.63,1.63,0,0,0-.31.11c.06.08.37-.08.38,0s-.33,0-.32.09.11,0,.16,0c-.31.13-.46.28-.13.3a2.74,2.74,0,0,0-.37.08h0l.2,0-.18,0,0,0a.39.39,0,0,0,.15,0l-.13,0,.14.06a2,2,0,0,0,.41.06C34.16,69.13,34.81,69,35.45,68.81Z" transform="translate(0 0.01)"/><path class="cls-1" d="M38.73,66.8s0-.07,0-.1.24,0,.36,0V66.6l.31,0,.54-.18s0,0,0-.06a1.72,1.72,0,0,1,.29,0l0,0s0,0,0,0h.13c.52-.24,1.05-.48,1.65-.7a1.85,1.85,0,0,1,.37-.19,4.16,4.16,0,0,1,.61,0c-.05-.23.39-.37.29-.6.13,0,.31,0,.32-.07a.63.63,0,0,1,.44-.55c.14,0,.34,0,.39,0s-.18-.14-.1-.2a14.63,14.63,0,0,0-2.95.24c-.34.11-2.57.61-3.15.75l-.05,0a2.87,2.87,0,0,0-.91.38l-.3.29.19.06a.61.61,0,0,0-.28.12c-.22.19,0,.25.11.36s0,.17.17.2l-.2.06c0,.07.23-.12.21,0s-.15.08-.23.1.28-.07.3,0-.26,0-.24.07.08,0,.12,0c-.22.12-.31.26-.06.29-.07,0-.19,0-.27.06h0l.16,0-.14,0,0,0H37l-.09,0a.41.41,0,0,0,.11.07c.13,0,.26.09.32.07Z" transform="translate(0 0.01)"/><path class="cls-1" d="M39.59,68.58s0-.08,0-.1.22,0,.32,0v-.07l.28,0,.49-.14s0,0,0,0a1.06,1.06,0,0,1,.27,0l0,0a.11.11,0,0,0,0,0h.13l1.47-.64a1.79,1.79,0,0,1,.33-.18,2.46,2.46,0,0,1,.54,0c-.05-.22.33-.38.23-.6.11,0,.28,0,.28-.08a.61.61,0,0,1,.35-.57c.11,0,.3,0,.33,0s-.16-.13-.1-.2a19.77,19.77,0,0,0-2.53.28,23.13,23.13,0,0,1-2.73.54h0a2.14,2.14,0,0,0-.81.26,3.22,3.22,0,0,0-.28.24l.15.09a.39.39,0,0,0-.25.08c-.2.15,0,.23.07.37s0,.17.13.22l-.18,0c0,.06.21-.08.18,0s-.14.05-.21.06.25,0,.26.07-.22-.07-.21,0,.07,0,.11,0c-.21.08-.31.21-.09.28a1,1,0,0,0-.24,0H38l-.13,0,0,0a.33.33,0,0,0,.1,0l-.08,0,.09.08c.11,0,.23.13.28.12C38.73,68.7,39.16,68.65,39.59,68.58Z" transform="translate(0 0.01)"/><path class="cls-1" d="M40,68.13s0-.08,0-.1.2.06.29,0V68l.26,0,.44-.13s0,0,0-.06a1.17,1.17,0,0,1,.23,0h0a.13.13,0,0,0,0-.06h.11l1.31-.63a1.27,1.27,0,0,1,.29-.18,2.53,2.53,0,0,1,.48,0c0-.23.29-.38.2-.6.1,0,.25,0,.25-.08a.61.61,0,0,1,.31-.57c.1,0,.27,0,.3,0s-.15-.12-.09-.19a16.05,16.05,0,0,0-2.29.26,19,19,0,0,1-2.45.52h0a1.92,1.92,0,0,0-.73.25l-.25.24.15.09c-.1,0-.19,0-.22.08s0,.23.07.36,0,.18.12.23l-.16,0c0,.07.19-.07.17,0s-.12,0-.19.06.23,0,.24.07-.2-.08-.19,0,.06,0,.1,0c-.19.08-.27.21-.07.28-.06,0-.16,0-.22,0h0a.56.56,0,0,0,.13,0l-.11,0,0,0h0l.09.08c.1,0,.2.13.25.12A11,11,0,0,0,40,68.13Z" transform="translate(0 0.01)"/><path class="cls-1" d="M42.87,68s0-.07,0-.09.15,0,.19,0l0-.06h.19l.25-.19s0,0,0,0a.42.42,0,0,1,.15-.06l0,0a.08.08,0,0,1,0,0l.07,0a8.55,8.55,0,0,0,.52-.84,1,1,0,0,1,.07-.23c.06-.08.18-.11.26-.16-.15-.18,0-.4-.23-.55,0,0,.12-.08.09-.14a.76.76,0,0,1-.19-.54c0-.06.14,0,.13-.09s-.14-.06-.16-.13c-.35.21-.61.51-1,.74a2.88,2.88,0,0,1-1.11.76h0a.63.63,0,0,0-.33.25l-.08.24.11.07s-.1,0-.11.08,0,.22.14.35.05.17.13.21l-.1,0c0,.06.1-.08.12,0s-.07,0-.11.06.14,0,.17.06-.15-.07-.12,0,0,0,.07,0-.13.2,0,.26c0,0-.11,0-.14,0h.08l-.07,0,0,0h0l.08.08c.08,0,.17.12.2.11A3,3,0,0,0,42.87,68Z" transform="translate(0 0.01)"/><path class="cls-1" d="M43.07,68.39s0-.07,0-.09.14,0,.19,0v-.07l.18,0,.27-.13s0-.05,0-.06a.57.57,0,0,1,.15,0l0,0s0,0,0-.05h.07l.76-.68a1,1,0,0,1,.16-.22,2.52,2.52,0,0,1,.33-.13c-.12-.19,0-.41-.16-.58,0,0,.11-.07.07-.12s-.24-.35-.31-.45.07,0,0,0-.13,0-.18-.09-.18.17-.61.3a5.37,5.37,0,0,1-1.47.55h0a.73.73,0,0,0-.43.23L42,67l.11.08c-.07,0-.13,0-.14.08s0,.22.1.35,0,.17.12.22l-.11,0c0,.06.12-.07.12,0s-.08,0-.12,0,.15,0,.17.07-.15-.08-.12,0,0,0,.06,0-.15.19,0,.26c0,0-.11,0-.15,0h0l0,0a.07.07,0,0,0,.06,0h-.05l.07.09c.08,0,.16.13.19.12A3.9,3.9,0,0,0,43.07,68.39Z" transform="translate(0 0.01)"/><path class="cls-1" d="M44.13,64.9s0,.08,0,.1-.06-.1-.1-.06V65l-.08-.1a.61.61,0,0,0-.13,0,.43.43,0,0,1,0,0s0,0-.06,0h0V65l0,0a1,1,0,0,1-.34.15l.07.9a1.5,1.5,0,0,1,0-.2,1,1,0,0,1,0-.19c0-.06.13-.06.19-.09-.12-.19,0-.37-.14-.57,0,0,.12,0,.1-.1a.65.65,0,0,1,0-.58c.06,0,.19,0,.2,0s-.12-.12-.09-.19a2.5,2.5,0,0,0-1.41.77s0,0,0,0l-.7,1.17.83.35a3.89,3.89,0,0,0,.87.3c.34.07.64.08.76.11h0a.57.57,0,0,0,.42-.11,1.56,1.56,0,0,0,.14-.19l-.07-.11c.05,0,.1,0,.11,0s0-.22,0-.37,0-.17-.05-.24h.07c0-.06-.09,0-.08-.07s.07,0,.1,0-.11,0-.11-.12.09.12.09,0,0,0,0,0a.15.15,0,0,0,0-.26s.08,0,.11,0h0l-.05,0h.05v0l-.05,0h0l0-.1c0-.06-.1-.16-.12-.16A3.55,3.55,0,0,0,44.13,64.9Z" transform="translate(0 0.01)"/><path class="cls-1" d="M43.23,66a.58.58,0,0,1,0-.1s0,.09.06.05v-.07l.05.09.07,0v-.06s0,0,0,0h0v0h0a1.6,1.6,0,0,1,.32-.4.36.36,0,0,1,.1-.13s.08,0,.11,0c.06-.22.19-.3.24-.53,0,0,.08,0,.1,0s.18-.39.32-.45.08.09.11.06,0-.15,0-.19a1.85,1.85,0,0,0-.94-.26,7.64,7.64,0,0,1-1,.15h0a.33.33,0,0,0-.28.17s-.06,0-.13.11a.55.55,0,0,0-.16.18.58.58,0,0,0-.1.32.64.64,0,0,1,.22-.14c-.14.16-.15.28-.12.33.09.25.21.06.37,0a2,2,0,0,1,.24,0h0s0,0,0,0,0,0,0,0,0,0,0,0,0,0,0,0h0a.25.25,0,0,0-.14,0s0,0,.08,0l-.09,0s-.05,0-.1-.07h0a.23.23,0,0,1,.11.07s0,0-.1-.06h0a.17.17,0,0,1,.06,0,.11.11,0,0,0-.05,0s.05,0,.05,0,.17,0,.15,0-.06,0-.07,0h0l.3.85h.12Z" transform="translate(0 0.01)"/><path class="cls-1" d="M15.62,76.8s.11,0,0,.1a2.44,2.44,0,0,1-.39.34l-.2.14c-.05,0,0,0-.05,0l0,.06s-.06,0-.06-.07a.84.84,0,0,1-.13.12l-.1.11s-.09,0,0,0h0l-.12.09.08-.08s-.05-.05,0-.13a.44.44,0,0,1,0-.14l0-.09c0-.05,0,0,.07-.17l1.31-2.43c.17-.37.33-.75.52-1.08a6.71,6.71,0,0,1,1.14-1.38c-.11-.06.05-.33.23-.58s.4-.45.22-.48c.34-.22.93-.37.94-.43s.31-.62,1.57-.58A4.53,4.53,0,0,1,22,70.6c.27.06-.51-.41-.24-.34A4.26,4.26,0,0,0,19,70a4.64,4.64,0,0,0-2.33,1.34,11,11,0,0,0-1.41,1.86L14.09,75c-.05.11-.16.3-.3.54l-.59,1-1.32,2.09a1.72,1.72,0,0,0-.34.81l-.16.68-.09.35c-.06.08.06.07.15.07H12.6a4.35,4.35,0,0,0,1.77-.4A7.51,7.51,0,0,0,16.08,79l.48-.41.29-.27.11-.12a10.37,10.37,0,0,0,1.88-2.37,7.31,7.31,0,0,0,.43-1.13,3.71,3.71,0,0,1-.33.4,3.79,3.79,0,0,0,.39-.87c.2-.84-.08-.41-.33-.18s-.13-.13-.33.15c.1-.22.14-.34.23-.56,0,0-.24.71-.28.51a3.32,3.32,0,0,0,.24-.69c-.09.06-.32.76-.39.69s.37-.57.27-.65-.1.2-.14.31c.21-.7.16-1.09-.1-.51a3.31,3.31,0,0,0,.19-.72h0c0,.11-.07.3-.1.4,0-.12,0-.25.07-.38l-.06.06-.07.28c0-.08,0-.16,0-.24a1.56,1.56,0,0,0-.14.19c-.13.27-.31.51-.37.65A11,11,0,0,1,15.62,76.8Z" transform="translate(0 0.01)"/><path class="cls-1" d="M16.66,76.33s-.08,0-.08-.06.18-.12.2-.23l-.05,0a1.92,1.92,0,0,1,.21-.16l.23-.42s0,0,0,0a1.24,1.24,0,0,1,.16-.19l0,0,0,0a.6.6,0,0,1,.08-.08,9.17,9.17,0,0,1,.73-1.37,1.13,1.13,0,0,1,.16-.33,2.19,2.19,0,0,1,.44-.31c-.15-.17.12-.49-.08-.64.1-.06.25-.14.22-.2a.63.63,0,0,1,.1-.69c.1-.08.31-.1.33-.16s-.21,0-.17-.13a8,8,0,0,0-2.29,1.65c-.09.15-.51.61-.9,1.14s-.75,1.11-.91,1.34l0,0a2.33,2.33,0,0,0-.33.87c0,.13,0,.27,0,.4l.16-.1c-.05.11-.1.22-.08.27,0,.27.17.18.34.15s.16.08.26,0l-.07.17c.06,0,.05-.22.13-.14s0,.15-.07.21.12-.22.2-.18-.18.15-.08.2,0-.06.06-.09c0,.22,0,.36.19.22a.84.84,0,0,0-.11.21h0a.75.75,0,0,0,.07-.12l0,.12h0a.16.16,0,0,0,.06-.08l0,.08.12,0c.1-.07.22-.12.24-.16Z" transform="translate(0 0.01)"/><path class="cls-1" d="M17.27,74.25s-.08,0-.07-.08.24-.12.31-.25l0,0a2.27,2.27,0,0,1,.31-.17l.46-.43s0,0,0-.06a1.85,1.85,0,0,1,.29-.17l0,0s0,0,0-.06l.14-.06a6.76,6.76,0,0,1,1.81-1.1,2.13,2.13,0,0,1,.45-.23,3.32,3.32,0,0,1,.77,0c-.06-.24.52-.37.4-.59.17,0,.41,0,.42,0s.18-.42.64-.51c.18,0,.44.1.51.07s-.21-.16-.11-.21a9.34,9.34,0,0,0-4,.27,13.32,13.32,0,0,0-1.92.92,8.78,8.78,0,0,0-1.84,1.53l0,.07a3.22,3.22,0,0,0-.7,1.22,3.43,3.43,0,0,0-.05.56,2.31,2.31,0,0,1,.19-.16,1.12,1.12,0,0,0-.13.4c0,.38.16.21.35.14s.15.08.27,0a1.73,1.73,0,0,0-.1.24c.06,0,.07-.32.15-.21s0,.2-.09.29.14-.32.23-.27-.21.23-.11.28,0-.08.07-.13c-.07.3,0,.48.18.26a2,2,0,0,0-.11.29h0c0-.05.06-.12.07-.16l0,.15h0a.54.54,0,0,0,.05-.11l0,.1.13-.07c.09-.1.23-.18.25-.23A5.41,5.41,0,0,1,17.27,74.25Z" transform="translate(0 0.01)"/><path class="cls-1" d="M20.45,72.94s-.08,0,0-.09.38-.15.54-.31l0-.06.19-.09L20,70.81l-.32.14c-.29.2-.56.42-.83.64,0,0,0,0,0,.06s-.28.2-.44.33l-.06.06a.11.11,0,0,0,0,.06l-.2.15a17.52,17.52,0,0,0-1.89,2.51,6,6,0,0,1-.31.62c-.17.27-.45.58-.64.84.21.09-.1.79.18.79-.12.17-.28.43-.23.48s.25.38.11.9c-.07.19-.29.44-.28.52s.24-.18.24,0a19.58,19.58,0,0,1,2.52-3.69,8.35,8.35,0,0,1,1.18-1.3A13.73,13.73,0,0,1,21,72.36l-1-1.48-.61.42-.07,0a7.51,7.51,0,0,0-1.24,1l-.4.5.28-.06a1.5,1.5,0,0,0-.38.32c-.31.33,0,.28.19.31s.07.17.27.11l-.29.2c0,.06.33-.28.31-.13a2.46,2.46,0,0,0-.34.25c.1,0,.42-.25.45-.17s-.39.13-.35.24.13-.06.18-.1c-.32.27-.46.49-.07.37a2.82,2.82,0,0,0-.4.24h0l.23-.13-.2.14h.06l.16-.08-.13.09h.17a2.56,2.56,0,0,0,.49-.14C19.06,73.88,19.76,73.42,20.45,72.94Z" transform="translate(0 0.01)"/><path class="cls-1" d="M17.35,72.82s.07,0,0,.08-.27.12-.36.25l0,0-.33.19c-.16.17-.31.34-.45.52,0,0,0,0,0,0a3.17,3.17,0,0,1-.26.26l0,0a.08.08,0,0,0,0,0l-.12.11c-.34.59-.64,1.2-.94,1.85a2.53,2.53,0,0,1-.14.44,3.8,3.8,0,0,1-.42.55c.21.11,0,.58.26.63-.08.11-.2.28-.15.32a.66.66,0,0,1,.17.71c-.06.14-.25.27-.24.33s.21-.07.22,0c.64-.83,1.14-1.7,1.76-2.51a7.52,7.52,0,0,1,.9-1.26,9.09,9.09,0,0,1,1.21-1.19l0,0a3.74,3.74,0,0,0,.7-.67l.21-.36h-.2c.11-.07.22-.14.24-.2.18-.22,0-.24-.19-.32s-.07-.16-.21-.15a1.28,1.28,0,0,1,.2-.11c0-.07-.23.17-.23,0a1.19,1.19,0,0,0,.23-.16c-.07-.06-.29.14-.32.06s.28,0,.24-.14-.09,0-.13,0c.23-.18.32-.35,0-.31a2.75,2.75,0,0,0,.3-.14h0l-.17.07.15-.09-.05,0-.12,0,.1,0-.14,0a1.28,1.28,0,0,0-.38,0A7.69,7.69,0,0,0,17.35,72.82Z" transform="translate(0 0.01)"/><path class="cls-1" d="M30.53,54.56s.08.18-.15,0c-.71-.59-1.16-1.2-1.83-1.83h-.1C28,52.2,27.5,51.63,27,51s-.91-1-1.33-1.6A4,4,0,0,1,24.8,48s0,0-.07,0a1.91,1.91,0,0,1,.57-1.37l.2-.27a.26.26,0,0,0,0-.13c.24-.28.46-.51.67-.72,1.29-1.44,2.95-2.51,4.88-2.24a9,9,0,0,1,5.26,3.11c.68.67,1.33,1.39,1.93,2.1.88,1.06,1.9,2.49,2.67,3.59.08-.32,2,2.32,1.85,1.66a22.18,22.18,0,0,0,1.31,1.91c.27.08.86.53,2.18,2.55.5.8,1.12,2.11,1.31,2.38.31.43-.46-1.14-.16-.71a79,79,0,0,0-5.52-8.8Q40.4,49,38.75,47a19.53,19.53,0,0,0-3.85-3.86,8.65,8.65,0,0,0-4.17-1.48,6.36,6.36,0,0,0-3.52.84,11,11,0,0,0-2.9,2.5,6.12,6.12,0,0,0-1.16,1.75,3.07,3.07,0,0,0-.24,1.23,2.93,2.93,0,0,0,.31,1.22,8.69,8.69,0,0,0,1.09,1.6c.35.46.71.9,1.07,1.31a43.93,43.93,0,0,0,3.49,3.61l.28.26a46.79,46.79,0,0,0,5.49,4.28c.74.48,1.51.94,2.27,1.4l-.86-.74c.74.52,1.48,1,1.78,1.2,1.64,1,.81.29.29-.25-.4-.36.25,0-.39-.57l1.23.86c.09,0-1.54-1-1.13-.87.46.34,1,.68,1.5,1-.12-.19-1.69-1.2-1.56-1.22a11.36,11.36,0,0,0,1.47,1s-.46-.34-.7-.51c1.53,1,2.43,1.49,1.11.45.48.33,1.14.83,1.66,1.16h0l-.91-.66.86.6L41.13,63c-.21-.16-.42-.32-.65-.47l.58.39c-.13-.12-.27-.27-.44-.41-.64-.53-1.24-1.06-1.61-1.31A90.19,90.19,0,0,1,30.53,54.56Z" transform="translate(0 0.01)"/><path class="cls-1" d="M34.1,48.88s0-.1.09,0c.24.2.31.47.55.67l.06,0,.44.61,1,1s0,0,.06,0,.31.34.49.55l.1.08a.06.06,0,0,0,.06,0l.22.26,3.21,2.82c.26.19.52.38.75.58s.69.77,1,1.1c.12-.21.94.5,1,.19.19.22.49.55.56.52s.51-.06,1.13.43c.23.21.49.61.6.66s-.17-.38,0-.3c-1.5-1.72-3.06-3.27-4.63-5-.61-.5-4.23-4.32-5.13-5.34l-.08-.09A17.11,17.11,0,0,0,33.91,46l-.72-.51.17.35a2.68,2.68,0,0,0-.51-.49c-.5-.39-.34,0-.28.24s-.17.07,0,.32l-.32-.37c-.07,0,.43.42.26.4a5.51,5.51,0,0,0-.41-.43c0,.11.44.52.35.56s-.29-.49-.39-.44.11.16.18.23c-.44-.42-.74-.59-.45-.1a5.27,5.27,0,0,0-.43-.51h0l.23.29-.23-.26v.08l.16.21-.15-.17a1.15,1.15,0,0,0,.06.21,5.28,5.28,0,0,0,.33.62C32.51,47.11,33.29,48,34.1,48.88Z" transform="translate(0 0.01)"/><path class="cls-1" d="M34.23,46.24s0-.1.1,0c.25.21.33.49.58.69l.07,0,.46.63,1,1s0,0,.06,0a7.15,7.15,0,0,1,.5.59l.09.09h.07l.22.28c1,1,2,2,3.07,3.23a7.89,7.89,0,0,1,.7.72A15.09,15.09,0,0,1,42,54.73c.16-.19.87.7.94.39.17.26.42.66.48.65s.5,0,1,.63l1.68,2-2.74-.78-.08,0c-.31-.11-.72-.4-.84-.41s.32.3.13.28l.7.35,3.12,1.55-1.79-3A52.38,52.38,0,0,0,41,51c-.29-.3-1.3-1.57-2.42-2.84s-2.32-2.57-2.82-3.1l-.09-.1a13.87,13.87,0,0,0-1.79-1.62l-.8-.5.21.35a3.38,3.38,0,0,0-.57-.48c-.57-.37-.36,0-.28.25s-.16.09,0,.33L32,42.89c-.06,0,.5.4.32.38s-.32-.27-.47-.41c0,.11.51.5.42.55s-.35-.48-.45-.42.13.15.21.22c-.5-.4-.83-.55-.48-.08-.14-.14-.33-.36-.49-.49h0l.27.28-.27-.24,0,.07a1.8,1.8,0,0,0,.19.2l-.18-.16a1.8,1.8,0,0,0,.08.21,5.52,5.52,0,0,0,.42.61C32.5,44.47,33.37,45.36,34.23,46.24Z" transform="translate(0 0.01)"/><path class="cls-1" d="M40.24,50.35s0,.1-.11,0c-.24-.24-.31-.53-.55-.76l-.07,0L39.07,49l-1-1.15s0,0-.06,0-.32-.38-.51-.62l-.09-.1h-.07l-.23-.3a11,11,0,0,0-1.85-1.56,8.23,8.23,0,0,0-2.34-1l-1-.19c-.5-.11-1.07-.31-1.57-.44,0,.13-.28.14-.55.22s-.45.21-.33.3c-.27,0-.61.26-.57.33s.1.4,0,1.06a5.16,5.16,0,0,0-.26.81c0,.17.23-.36.25-.17a2.67,2.67,0,0,1,.54-1.13.42.42,0,0,1,.22-.11,2,2,0,0,1,.53,0,16.36,16.36,0,0,1,3.26,1,4.67,4.67,0,0,1,1,.59,10.22,10.22,0,0,1,1.54,1.55c1.11,1.31,2.25,2.69,2.71,3.27l.08.1a18.85,18.85,0,0,0,1.64,1.83l.74.61-.17-.38a3.38,3.38,0,0,0,.51.56c.52.46.36.09.31-.21s.18-.06,0-.33l.34.42c.06,0-.45-.49-.27-.44a4,4,0,0,0,.39.45l-.3.28,0,0a.39.39,0,0,0,0,.06l.34-.32c-.08-.17-.42-.54-.35-.56s.3.53.4.5-.11-.18-.17-.26l.22.23-.53.5c-.35-.26-.52-.3-.23.11-.15-.15-.33-.38-.5-.52h0l.27.29-.27-.26,0,.08a1.9,1.9,0,0,0,.19.21l-.18-.17a1.28,1.28,0,0,0,.09.22l.25.42,1.29-1.21a2.09,2.09,0,0,0-.13-.23C41.86,52.37,41.06,51.34,40.24,50.35Z" transform="translate(0 0.01)"/><path class="cls-1" d="M26.5,51.15s0-.09.1,0,.21.39.4.55l.06,0,.31.5.78.78s0,0,.06,0,.24.26.39.42l.07.06a.08.08,0,0,0,.07,0l.17.2c.84.67,1.73,1.3,2.7,1.95a5,5,0,0,1,.65.35c.29.21.61.52.87.74.1-.21.82.2.83-.08.18.14.44.35.5.31s.42-.21,1,0c.2.11.44.38.53.4s-.16-.29,0-.27c-1.35-1-2.68-2-4-3.12A18.09,18.09,0,0,1,30,52.15a27.16,27.16,0,0,1-2-2.16L28,49.92a10.81,10.81,0,0,0-1.14-1.25l-.54-.41.08.29c-.12-.17-.27-.38-.33-.39-.25-.23-.28,0-.32.19s-.17.06-.11.27a1.6,1.6,0,0,1-.2-.34c-.08,0,.29.4.14.37a3.65,3.65,0,0,1-.26-.44c-.09.11.27.54.18.55s-.17-.46-.26-.46.05.18.1.26A2.84,2.84,0,0,1,25,48c0-.09-.14,0-.1.31a1.08,1.08,0,0,1,.06-.76h0a.78.78,0,0,0-.12.4.79.79,0,0,1,.09-.38l-.08,0a.78.78,0,0,0-.07.31.86.86,0,0,1,0-.28.63.63,0,0,0-.14.24,1.53,1.53,0,0,0,.09.93c.21.35.29.44.44.67l.41.57C25.92,50.42,26.21,50.79,26.5,51.15Z" transform="translate(0 0.01)"/><path class="cls-1" d="M32.71,47.84s0-.1.09-.05c.24.17.31.43.55.6l.06,0,.44.55,1,.84s0,0,0,0a6.61,6.61,0,0,1,.5.47l.09.06a.06.06,0,0,0,.06,0l.22.23c1,.75,2,1.5,3.12,2.36a7.47,7.47,0,0,1,.7.52c.31.28.63.7.9,1,.13-.2.86.47.91.17.18.21.42.54.49.51s.51-.05,1,.47c.19.22.39.63.48.69s-.11-.38,0-.29a29.9,29.9,0,0,0-4.24-4.79c-.58-.47-4.21-3.69-5.06-4.57l-.08-.08a16.77,16.77,0,0,0-1.52-1.37l-.67-.44L32,45a2.58,2.58,0,0,0-.47-.45c-.45-.35-.32,0-.29.23s-.17.08,0,.31l-.3-.34c-.07,0,.4.39.23.37s-.26-.26-.38-.4c0,.11.4.49.32.53s-.26-.46-.36-.42.1.15.16.22c-.4-.39-.69-.56-.43-.1-.12-.13-.25-.35-.39-.48h0l.21.28-.21-.25v.07a1.43,1.43,0,0,0,.14.2l-.14-.16a1.94,1.94,0,0,0,.05.2,4.7,4.7,0,0,0,.3.6A31.31,31.31,0,0,0,32.71,47.84Z" transform="translate(0 0.01)"/><path class="cls-1" d="M32.12,47.48s0-.09.1,0,.19.44.37.64l.06,0,.28.57.71,1s0,0,.06,0a3.61,3.61,0,0,1,.34.52l.07.08s0,0,.06,0l.15.25,2.39,2.74a7.93,7.93,0,0,1,.58.58c.23.3.48.73.68,1,.16-.17.77.52.87.25.13.21.34.52.4.5s.5,0,1,.47c.18.2.33.57.42.63s-.08-.36.06-.27c-1-1.64-2.16-3.14-3.27-4.76-.46-.49-3-4.17-3.64-5.15l-.06-.08a11.46,11.46,0,0,0-1.16-1.54l-.57-.5.09.32a2.26,2.26,0,0,0-.36-.47c-.39-.39-.31-.07-.32.19s-.17.06-.1.29l-.23-.35c-.06,0,.32.41.17.38a4,4,0,0,0-.3-.42c0,.1.3.5.22.53s-.17-.46-.28-.42.07.15.12.22c-.32-.41-.56-.58-.39-.12a4.85,4.85,0,0,0-.29-.49h0l.15.28L30.31,44v.07a.78.78,0,0,0,.11.2l-.11-.16a1.28,1.28,0,0,0,0,.19,4.14,4.14,0,0,0,.18.58C31,45.78,31.56,46.64,32.12,47.48Z" transform="translate(0 0.01)"/><path class="cls-1" d="M32.47,48.71s0-.09.1,0,.2.45.39.65l.06,0,.3.58.74,1s0,0,.06,0,.22.33.36.53l.07.08h.06l.16.25,2.48,2.75a8.11,8.11,0,0,1,.59.58c.24.31.5.74.71,1.06.16-.19.79.51.87.22.14.21.35.53.42.5s.48,0,1,.44c.17.2.34.58.43.63s-.09-.36,0-.28c-1.08-1.64-2.24-3.13-3.38-4.74-.47-.49-3.13-4.17-3.77-5.15l-.06-.08a12.48,12.48,0,0,0-1.2-1.54l-.58-.5.08.32a2.29,2.29,0,0,0-.37-.48c-.4-.39-.32-.07-.32.19s-.18,0-.1.28l-.24-.35c-.07,0,.33.41.17.37s-.21-.27-.3-.41c0,.1.31.5.22.53s-.18-.46-.29-.43.08.15.13.22c-.33-.41-.59-.58-.41-.13-.09-.14-.19-.35-.3-.49h0l.16.28-.17-.25v.07a1.28,1.28,0,0,0,.11.2l-.11-.16a1.28,1.28,0,0,0,0,.19,3.73,3.73,0,0,0,.2.58C31.31,47,31.88,47.87,32.47,48.71Z" transform="translate(0 0.01)"/><path class="cls-1" d="M30.8,48.61s0-.09.09,0,.16.42.33.6l.06,0,.25.54c.22.3.43.6.66.89,0,0,0,0,.06,0a5.26,5.26,0,0,1,.32.49l.06.07h.07l.14.23c.72.8,1.49,1.58,2.32,2.42a4,4,0,0,1,.57.49c.24.26.49.64.7.91.15-.19.77.39.84.11.14.18.35.45.42.42s.46-.09.94.29c.18.16.35.49.43.53s-.09-.33,0-.27c-1.08-1.36-2.21-2.62-3.27-4a38.06,38.06,0,0,1-3.34-4.59l-.06-.07a9.89,9.89,0,0,0-1-1.42l-.51-.47,0,.3a1.77,1.77,0,0,0-.31-.45c-.33-.36-.29-.07-.33.17s-.17,0-.12.27L30,45.65c-.06,0,.27.38.13.35s-.18-.26-.25-.39c0,.09.24.47.15.49s-.12-.43-.22-.4.05.14.09.21c-.27-.39-.5-.56-.38-.13a4,4,0,0,0-.23-.46h0l.12.26-.13-.23,0,.06a1.54,1.54,0,0,0,.08.19l-.08-.16a1.09,1.09,0,0,0,0,.18,2.92,2.92,0,0,0,.12.55C29.83,47,30.29,47.82,30.8,48.61Z" transform="translate(0 0.01)"/><path class="cls-1" d="M32.57,48.37s0-.09.09,0,.23.39.43.55l.06,0,.33.5.77.81s0,0,.06,0a5.27,5.27,0,0,1,.37.45l.08.07a.07.07,0,0,0,.06,0l.16.22c.8.74,1.62,1.51,2.48,2.36a7.11,7.11,0,0,1,.57.51,10,10,0,0,1,.69,1c.16-.18.76.46.85.18.14.19.34.49.4.47s.48-.05.94.4c.17.19.32.55.4.6s-.07-.34.06-.26a50.27,50.27,0,0,0-3.29-4.43c-.45-.46-3.26-3.7-4-4.51L34,47.08a9.28,9.28,0,0,0-1.34-1.27l-.62-.37.12.29a1.73,1.73,0,0,0-.42-.39c-.43-.28-.31,0-.28.25s-.16.09,0,.29l-.28-.28c-.05,0,.37.32.22.32a3.76,3.76,0,0,0-.35-.34c0,.11.37.41.29.46s-.23-.4-.33-.34.09.12.14.18c-.37-.32-.63-.43-.4,0-.1-.11-.23-.29-.35-.4h0l.19.23-.19-.2v.07l.13.17-.13-.14a1.62,1.62,0,0,0,0,.19,3.59,3.59,0,0,0,.26.5Z" transform="translate(0 0.01)"/><path class="cls-1" d="M25.59,44.87s.12,0,0,.11a5.59,5.59,0,0,0-.79,1.07l0,.06a4.71,4.71,0,0,0-.47,1.09,3.51,3.51,0,0,0,.37,2.35s0,0,.07,0a5.67,5.67,0,0,0,.68,1l.13.12a.13.13,0,0,0,.08,0l.35.34c1.48,1,2.91,1.91,4.51,3,.35.19.7.39,1,.6.47.33,1,.81,1.45,1.15.07-.23,1.21.51,1.14.16a3.37,3.37,0,0,0,.79.54c.19-.11.55-.11,1.4.4.32.21.74.64.87.69s-.31-.42-.11-.33C35,55.36,32.72,53.75,30.45,52c-.21-.13-.7-.48-1.33-.94S27.65,50,27,49.43a1.9,1.9,0,0,1-.76-1.78,3,3,0,0,1,.67-1.38l.08-.09a6.66,6.66,0,0,1,1.91-1.4,7,7,0,0,1,.87-.42l-.43,0c.33-.09.66-.11.79-.17.71-.14.32-.23,0-.37s.07-.19-.28-.22l.62,0c0-.07-.77.09-.6,0s.51-.07.77-.06c-.09-.11-.89,0-.86-.07s.73.06.78,0-.25,0-.38,0c.79-.07,1.27-.1.52-.27.26,0,.63.09.91.12h0a4.91,4.91,0,0,0-.5-.1c.15,0,.31,0,.47.07l-.07-.06a2.2,2.2,0,0,0-.37-.07l.32,0-.26-.13a3.84,3.84,0,0,0-1-.2A6.52,6.52,0,0,0,25.59,44.87Z" transform="translate(0 0.01)"/><path class="cls-1" d="M28.43,49.08s0-.09.1,0,.23.47.43.68l.06,0,.35.62c.27.34.55.68.84,1,0,0,0,0,.06,0a4.86,4.86,0,0,1,.42.55l.09.08h.06l.2.25c.92.88,1.89,1.73,3,2.61a8.46,8.46,0,0,1,.73.5c.31.28.67.67,1,.95.11-.21.91.37.92.06.2.19.5.45.56.42s.47-.14,1.09.21c.23.15.5.49.6.52s-.19-.34,0-.29c-1.54-1.33-3-2.59-4.46-4.08a23,23,0,0,1-2.15-2.25,34.12,34.12,0,0,1-2.15-2.77L30,48a15.88,15.88,0,0,0-1.21-1.62l-.58-.56.08.34a2,2,0,0,0-.36-.52c-.38-.44-.31-.1-.33.17s-.18,0-.11.29l-.23-.39c-.06,0,.32.46.16.41a4.43,4.43,0,0,0-.29-.46c0,.1.29.55.21.57s-.16-.5-.28-.47.07.16.12.24c-.32-.46-.57-.67-.4-.17-.09-.15-.18-.39-.29-.55h0l.15.3-.16-.27v.07a2.14,2.14,0,0,0,.1.22l-.1-.19a.74.74,0,0,0,0,.21,3.64,3.64,0,0,0,.18.63A30.4,30.4,0,0,0,28.43,49.08Z" transform="translate(0 0.01)"/><path class="cls-1" d="M28.58,50.29s.06-.07.1,0,.1.37.23.54l.07,0,.16.48a8.88,8.88,0,0,0,.53.78s0,0,.06,0a3.72,3.72,0,0,1,.26.43l.06.06a0,0,0,0,0,.05,0l.12.2a24.46,24.46,0,0,0,2.07,2,5.45,5.45,0,0,1,.53.36c.21.2.45.5.65.72.13-.2.71.21.77-.06.13.14.33.33.39.29s.42-.17.86,0c.17.11.34.36.41.37s-.1-.27,0-.24a32.85,32.85,0,0,1-3-3,11.47,11.47,0,0,1-1.38-1.67,14.77,14.77,0,0,1-1.24-2.08l0-.07a8.3,8.3,0,0,0-.7-1.22l-.38-.43V48a1.19,1.19,0,0,0-.21-.4c-.23-.33-.26-.08-.35.12s-.18,0-.17.22l-.11-.3c-.07,0,.17.36,0,.31a2.63,2.63,0,0,0-.15-.35c-.07.07.13.42,0,.44s0-.38-.13-.37,0,.13,0,.19c-.17-.36-.35-.53-.33-.14a3.45,3.45,0,0,0-.12-.43h0l.07.24-.08-.21,0,0a.85.85,0,0,0,0,.17l-.05-.14a.88.88,0,0,0-.05.15,2.6,2.6,0,0,0,0,.49A17.42,17.42,0,0,0,28.58,50.29Z" transform="translate(0 0.01)"/><path class="cls-1" d="M26.74,50.87s0-.1.1,0,.26.48.48.68l.06,0,.4.58c.3.31.62.61.93.88,0,0,0,0,.06,0s.29.29.47.47l.09.06a.06.06,0,0,0,.06,0l.21.22c1,.75,2,1.46,3.11,2.2.26.14.51.28.74.43s.69.59,1,.84c.09-.22.91.28.9,0,.2.16.51.4.56.36s.46-.17,1.08.14c.23.13.52.44.61.47s-.19-.32,0-.28C36,56.6,34.46,55.48,33,54.17a28.41,28.41,0,0,1-4.58-4.35l-.06-.08c-.36-.48-.71-1.07-.95-1.47-.12-.18-.25-.37-.36-.57l0,.3a3.71,3.71,0,0,0-.14-.53c-.14-.47-.24-.21-.37,0s-.18,0-.22.22c0-.18,0-.26,0-.44-.08,0,.1.54,0,.43s-.07-.36-.06-.55c-.1.07,0,.64-.06.62s.05-.53-.05-.56a.62.62,0,0,0,0,.28c-.08-.57-.16-.92-.28-.36,0-.2.06-.47.06-.68h0l-.06.37,0-.35-.05.05a2.56,2.56,0,0,0-.05.27l0-.24a1.28,1.28,0,0,0-.11.2,2.63,2.63,0,0,0-.17.73A6.49,6.49,0,0,0,26.74,50.87Z" transform="translate(0 0.01)"/><path class="cls-1" d="M30.15,49.25s0-.1.1,0c.23.18.3.45.53.64l.07,0,.42.57c.32.32.65.63,1,.93,0,0,0,0,0,0a6.18,6.18,0,0,1,.49.51l.09.08a.08.08,0,0,0,.07,0l.22.24c1,.83,2.07,1.64,3.21,2.52a8.21,8.21,0,0,1,.75.51c.33.28.71.68,1,1,.11-.21.94.4,1,.09.2.19.51.48.57.44s.48-.12,1.12.28c.23.18.51.53.61.57s-.19-.35,0-.29c-1.56-1.48-3.14-2.82-4.7-4.32a67.34,67.34,0,0,1-5-4.87l-.08-.08a15.16,15.16,0,0,0-1.53-1.49L29.36,46l.15.33a2.39,2.39,0,0,0-.47-.46c-.48-.38-.33-.05-.3.22s-.16.08,0,.32L28.39,46c-.06,0,.41.4.25.37s-.27-.27-.39-.41c0,.11.41.5.32.54s-.26-.47-.37-.42.11.15.17.22c-.42-.4-.71-.57-.44-.1a6.12,6.12,0,0,0-.4-.49h0l.21.28-.21-.25v.07l.15.21-.14-.17a.8.8,0,0,0,.05.21,4.7,4.7,0,0,0,.3.6C28.62,47.56,29.38,48.42,30.15,49.25Z" transform="translate(0 0.01)"/><path class="cls-1" d="M26.44,48.87s.06-.09.1,0a6.75,6.75,0,0,0,.24,1h.07a6.82,6.82,0,0,0,.27.84A9.27,9.27,0,0,0,28,52.09s0-.05.06,0,.3.42.48.66l.09.1a.1.1,0,0,0,.07,0l.22.29a40,40,0,0,0,3.41,3,9.84,9.84,0,0,1,.82.56c.37.3.79.72,1.14,1,.1-.22,1,.4,1,.08.23.19.59.48.65.44s.49-.14,1.2.25c.26.16.6.51.72.54s-.25-.35-.07-.3a53.17,53.17,0,0,1-5.22-4.41,20.61,20.61,0,0,1-2.45-2.5,7.79,7.79,0,0,1-1.74-3.17l0-.1a5.37,5.37,0,0,1,0-1.87,4,4,0,0,1,.13-.74l-.25.23c.11-.23.27-.45.29-.55.28-.5,0-.35-.28-.25s-.1-.16-.32,0A4.12,4.12,0,0,1,28.2,45c0-.07-.37.53-.36.35a5.93,5.93,0,0,1,.4-.51c-.14,0-.5.56-.55.49s.46-.42.42-.52-.16.14-.23.23c.4-.54.69-.86.11-.51a6.72,6.72,0,0,1,.64-.49h0c-.1.07-.29.18-.38.25.11-.09.23-.17.35-.25h-.09a1.61,1.61,0,0,0-.28.17l.23-.17a1.71,1.71,0,0,0-.26.07,2.68,2.68,0,0,0-.74.5A5,5,0,0,0,26.44,48.87Z" transform="translate(0 0.01)"/><path class="cls-1" d="M30.86,48s0-.09.09-.05.25.36.45.49l.06,0,.34.46.8.72s0,0,0,0A3.3,3.3,0,0,1,33,50l.07.06s0,0,.06,0l.17.2c.81.67,1.63,1.38,2.48,2.19a5.23,5.23,0,0,1,.56.48c.24.26.47.65.68.93.15-.18.73.44.83.17.13.19.32.48.38.46s.48,0,.93.41c.16.19.29.55.37.6s0-.34.07-.26a33.36,33.36,0,0,0-3.22-4.36c-.24-.21-1.05-1.11-1.93-2S32.65,47,32.26,46.62l-.08-.07a8.75,8.75,0,0,0-1.41-1.12l-.65-.29.15.27a2.3,2.3,0,0,0-.45-.33c-.25-.13-.22,0-.28,0s0,.17,0,.3-.15.1,0,.29l-.3-.26c0,.06.4.28.25.3s-.25-.16-.4-.34c0,.18.43.41.35.47s-.26-.35-.39-.34.15.17.19.2a1.29,1.29,0,0,1-.33-.28.69.69,0,0,1-.1-.53c.06-.18.11-.26,0-.1a.59.59,0,0,0-.12.3.76.76,0,0,0,.09.45.82.82,0,0,1-.13-.41.8.8,0,0,1,.06-.3.7.7,0,0,1,.42-.38.68.68,0,0,1,.66.16A.62.62,0,0,1,30,45a.61.61,0,0,1-.17.45.66.66,0,0,1-.24.16h0a.55.55,0,0,0,.26-.17.61.61,0,0,0,.13-.54.67.67,0,0,0-.28-.41.76.76,0,0,0-.33-.13.67.67,0,0,0-.5.15.67.67,0,0,1,.52-.15.76.76,0,0,1,.29.11.65.65,0,0,1,.25.25,1.11,1.11,0,0,1,.07.16.57.57,0,0,1,0,.26.62.62,0,0,1-.27.42.61.61,0,0,0,.23-.21A.67.67,0,0,0,30,45,.77.77,0,0,0,29,44.39a.78.78,0,0,1,.61,0,.91.91,0,0,1,.37.31.77.77,0,0,0-.27-.31.73.73,0,0,0-.48-.15.86.86,0,0,0-.71.47,1,1,0,0,0-.11.44,1.19,1.19,0,0,0,.17.6,1.72,1.72,0,0,0,.28.38Z" transform="translate(0 0.01)"/><path class="cls-1" d="M32.31,49.25s0-.08.11,0c.17.22.18.48.36.69h.07l.27.61c.24.35.48.7.73,1,0,0,0,0,.06,0s.22.35.36.56l.07.09a.06.06,0,0,0,.06,0l.16.26c.79.95,1.63,1.87,2.55,2.86a6.94,6.94,0,0,1,.62.58c.27.31.55.74.78,1.06.15-.19.83.49.89.2.16.21.4.51.46.49s.49-.06,1,.4c.2.19.4.56.49.61s-.12-.36,0-.29c-1.22-1.58-2.47-3-3.65-4.67A45.75,45.75,0,0,1,34,48.36L34,48.27a13.68,13.68,0,0,0-1.11-1.66l-.54-.56.07.33a2.72,2.72,0,0,0-.34-.52c-.36-.43-.31-.1-.34.16s-.18,0-.12.28l-.2-.38c-.07,0,.29.45.14.4s-.19-.3-.27-.46c-.05.1.26.55.18.57s-.14-.49-.25-.47.06.16.1.24c-.29-.45-.53-.66-.39-.17-.08-.15-.16-.39-.26-.54h0l.14.3-.14-.27,0,.07a1.47,1.47,0,0,0,.1.22l-.1-.18a.67.67,0,0,0,0,.2,3.44,3.44,0,0,0,.14.62C31.25,47.4,31.76,48.34,32.31,49.25Z" transform="translate(0 0.01)"/><path class="cls-1" d="M33.45,52.92s0-.07.09-.05.1.27.23.36l0,0,.17.33a5.44,5.44,0,0,0,.48.48,0,0,0,0,1,.05,0,2.28,2.28,0,0,1,.23.27l0,0,.05,0,.1.13c.54.41,1.11.79,1.72,1.2a2.35,2.35,0,0,1,.42.21,6,6,0,0,1,.49.52c.13-.19.58.08.67-.15.09.1.24.24.3.2a.65.65,0,0,1,.73,0c.13.07.23.28.3.29s0-.23.05-.22c-.73-.77-1.52-1.42-2.26-2.19A17.52,17.52,0,0,1,35,51.73l0,0a3.76,3.76,0,0,0-.74-.75l-.39-.21a1.48,1.48,0,0,1,0,.21c-.08-.11-.16-.23-.23-.24-.26-.17-.24,0-.3.22s-.15.08-.13.23L33,51c-.06,0,.2.2.08.22S33,51,32.92,51c-.05.08.17.28.1.32s-.07-.28-.17-.23,0,.09.06.13c-.2-.21-.38-.28-.31,0a1.61,1.61,0,0,0-.17-.28h0l.09.15-.1-.13,0,.05a.39.39,0,0,0,.06.11L32.39,51a.68.68,0,0,0,0,.14,1.88,1.88,0,0,0,.06.37C32.75,52,33.09,52.48,33.45,52.92Z" transform="translate(0 0.01)"/><path class="cls-1" d="M25.32,44.07s-.1,0-.05-.08c.15-.26.42-.31.62-.52l0-.07a4.27,4.27,0,0,1,.65-.29,5.17,5.17,0,0,1,1.28-.47s0,0,0-.06a2.77,2.77,0,0,1,.74,0h.12a.05.05,0,0,0,0-.05,2.9,2.9,0,0,1,.34,0,7.21,7.21,0,0,1,4.24,1.63,5.75,5.75,0,0,1,.86.66,10.51,10.51,0,0,1,1,1.37c.15-.21.94.8,1,.47.18.3.44.76.51.75s.55.09,1.1.87c.2.31.39.84.49.94s-.1-.48.05-.33a17.16,17.16,0,0,0-5.13-6.68,9.16,9.16,0,0,0-4.37-1.49,6.81,6.81,0,0,0-3.07.64A6,6,0,0,0,24,42.69l-.11.13a4.66,4.66,0,0,0-1.09,2.93,8.32,8.32,0,0,0,.1,1.12l.13-.46a3.7,3.7,0,0,0,0,.87c.12.77.22.32.37,0s.18.07.24-.25v.58c.06,0-.05-.71.06-.55a4.19,4.19,0,0,0,0,.7c.08-.09,0-.8.1-.77s-.1.65,0,.69a1.49,1.49,0,0,0,0-.34c.06.71.19,1.09.27.44,0,.22,0,.54,0,.78h0v-.44l0,.41,0-.08c0-.1,0-.2,0-.3v.27l.09-.24c0-.32.14-.62.13-.79A5.23,5.23,0,0,1,25.32,44.07Z" transform="translate(0 0.01)"/><path class="cls-1" d="M31.26,44.1s0-.07.09-.06,0,.21.15.25l.05,0,.1.24.34.33s0,0,.05,0a1.29,1.29,0,0,1,.15.2l0,0,.05,0,.06.1c.38.28.78.57,1.19.93a1.72,1.72,0,0,1,.3.19,2.88,2.88,0,0,1,.24.46c.19-.14.47.14.64,0,0,.1.11.24.18.22a.6.6,0,0,1,.66.11c.07.09.07.29.13.31s.06-.2.14-.17a11.35,11.35,0,0,0-1.28-2.21c-.22-.21-1.48-1.73-1.82-2.11l0,0a2.06,2.06,0,0,0-.66-.53l-.36-.08a1.11,1.11,0,0,1,0,.17c-.08-.07-.15-.15-.21-.15-.24-.08-.22.1-.26.27s-.13.12-.11.23L31,42.56s.18.12.07.17-.11-.09-.16-.13.16.18.09.24-.07-.22-.15-.15,0,.06.06.09c-.18-.12-.33-.11-.27.1-.05,0-.09-.14-.15-.17h0s.05.08.08.1l-.09-.08v.05a.35.35,0,0,0,0,.08l-.06-.06a.49.49,0,0,0,0,.12,1.19,1.19,0,0,0,0,.29Z" transform="translate(0 0.01)"/><path class="cls-1" d="M31.63,46.85s0-.08.09,0,.16.35.32.49l.06,0,.24.45.61.72s0,0,.06,0a3.16,3.16,0,0,1,.29.41l.06,0h.06l.13.19,2.07,2.05a5.19,5.19,0,0,1,.49.43c.2.23.4.58.57.82.16-.17.67.36.78.11.11.17.28.42.34.39s.46-.08.86.3c.15.15.26.46.34.5s0-.3.07-.24c-.83-1.32-1.77-2.49-2.7-3.76-.39-.37-2.61-3.21-3.16-4l-.05-.07a7.24,7.24,0,0,0-1-1.14l-.52-.34a1.45,1.45,0,0,1,.07.26,1.25,1.25,0,0,0-.32-.35c-.35-.27-.29,0-.3.22s-.16.08-.1.27l-.21-.27c-.06,0,.29.3.15.29a2.52,2.52,0,0,0-.27-.3c0,.09.27.38.19.42s-.15-.37-.25-.32.06.12.11.17c-.29-.3-.51-.41-.37,0a4.17,4.17,0,0,0-.26-.37h0l.14.21L30,44.19v.06a.6.6,0,0,0,.09.15l-.1-.12a1,1,0,0,0,0,.17,1.84,1.84,0,0,0,.16.46C30.65,45.57,31.13,46.22,31.63,46.85Z" transform="translate(0 0.01)"/></svg>