<svg id="Layer_1" data-name="Layer 1" xmlns="http://www.w3.org/2000/svg" viewBox="0 0 60.67 102.57"><defs><style>.cls-1{fill:#ff3fb4;}</style></defs><title>3</title><path class="cls-1" d="M12.64,53.75s-.47-.33.37.08l1.9,1c.61.29,1.24.52,1.85.78l.93.38c.31.11.64.19,1,.29.65.19,1.32.4,2,.57l.22,0a35.17,35.17,0,0,0,7,.92,33.86,33.86,0,0,0,13-2.28c-.12,0-.18,0,.23-.16a28.89,28.89,0,0,0,2.9-1.37L45.7,53l1.61-1.14a7.19,7.19,0,0,0,.92-.73,1.25,1.25,0,0,0,.28-.33l1.27-1.15c.38-.38.7-.79,1-1.16a22.86,22.86,0,0,0,4.48-8.65,31.09,31.09,0,0,0,1.07-9.76A32.74,32.74,0,0,0,49.45,11.2a29.57,29.57,0,0,0-6.37-6A30.37,30.37,0,0,0,30.5.07c.29.16-2-.13-4.21-.06a27.41,27.41,0,0,0-2.73.31c-.63.13-.87.22-.37.21a22,22,0,0,0-4.28,1c-.64.24-1.22.42-1.63.61a6.73,6.73,0,0,0-.7.37c-.23.24-.83.54-2,1.4A26.24,26.24,0,0,0,9.19,8.64a30.08,30.08,0,0,0-2.74,3.7,16.34,16.34,0,0,0-1,1.77l-.57,1.12c-.64,1.39,1.76-3.09,1.11-1.7a28.11,28.11,0,0,1,4.52-6,23.29,23.29,0,0,1,6.07-4.22A23.44,23.44,0,0,1,31,1.54a30.56,30.56,0,0,1,7.09,2.28A28.12,28.12,0,0,1,44.34,7.9a27.34,27.34,0,0,1,5,5.64,29.85,29.85,0,0,1,3.47,6.77,31.1,31.1,0,0,1,2,11.32,28.32,28.32,0,0,1-1.54,9,21.83,21.83,0,0,1-2.18,4.52,14.64,14.64,0,0,1-1.54,2l-.84,1c-.3.31-.64.59-1,.89a24.78,24.78,0,0,1-9.07,5.13,33.38,33.38,0,0,1-9.8,1.57,33.12,33.12,0,0,1-8.36-1,25.71,25.71,0,0,1-3.2-1L16,53.26c-.41-.18-.76-.39-1.1-.55l-1-.49a23.82,23.82,0,0,1-7.72-6.81,24.07,24.07,0,0,1-3.85-8.77,28.88,28.88,0,0,1-.64-7.73l-.1.89,0,.85-.06,1.57a36.9,36.9,0,0,1,.43-6.34,14.66,14.66,0,0,1,.31-1.71l.2-1c.08-.46.06-.53,0-.36-.12.35-.57,1.65-.82,2.73C1.27,27.11,1.5,25,1,27.42l.36-2.24c.13-.67.31-1.33.52-2.21a19.38,19.38,0,0,0-.58,2.49C1.14,26.71,1,27.84,1,27.21c.16-.86.26-1.79.47-2.7s.38-1.85.69-2.71A23.41,23.41,0,0,0,1.28,25C1,26.48.83,27.82.82,27.68c0-.49.28-1.76.5-2.94s.55-2.25.57-2.43S1.45,24,1.23,24.9c.32-1.38.58-2.6.9-3.55L2.5,20.1l.3-.82c.13-.4.14-.49,0-.18a15.51,15.51,0,0,0-.89,2.25,37.31,37.31,0,0,1,2.42-5.74h0c-.41.86-1.18,2.3-1.47,3.13.37-1,.89-2,1.36-2.94l-.29.49a20.8,20.8,0,0,0-1.05,2.23c.25-.68.58-1.32.89-2a16.89,16.89,0,0,0-.86,1.62A30.71,30.71,0,0,0,.78,24.25,29.46,29.46,0,0,0,1.72,41a24.7,24.7,0,0,0,4.33,7.35A27.35,27.35,0,0,0,12.64,53.75Z" transform="translate(0 0)"/><path class="cls-1" d="M47.23,21.7s.11-.07.08.09c-.13.46-.36.79-.46,1.27l.06.05c-.12.36-.26.72-.36,1.11a14.62,14.62,0,0,0-.27,2.17s0,0,0,.05l-.07,1.15v.19a.08.08,0,0,0,0,.07l0,.53A18.24,18.24,0,0,0,48,34.65l.72,1.24c.32.6.72,1.37,1.08,1.94.13-.2,1.14,1,1.15.63a3.72,3.72,0,0,0,.73.83c.22-.06.59.06,1.45.75.32.29.78.77.91.85s-.33-.47-.11-.36a17.58,17.58,0,0,1-5.06-7.81,14.48,14.48,0,0,1-.82-4.78,16,16,0,0,1,.9-5.39l0-.16c.35-1,.87-2.12,1.23-2.93.16-.37.31-.77.5-1.14l-.39.38a7.18,7.18,0,0,0,.54-.86c.46-.78.07-.45-.28-.25s-.09-.18-.37.11c.16-.24.26-.35.43-.58,0-.07-.5.74-.47.52.18-.22.34-.49.52-.73-.13,0-.64.8-.67.72s.58-.6.53-.71-.19.21-.28.33c.51-.76.78-1.2.14-.63.19-.23.49-.51.68-.76h0l-.39.42.35-.41-.1.05a2.5,2.5,0,0,0-.27.29l.22-.27a2.29,2.29,0,0,0-.27.17,6.84,6.84,0,0,0-.79.72A17.38,17.38,0,0,0,47.23,21.7Z" transform="translate(0 0)"/><path class="cls-1" d="M54.26,29.7s-.06.06-.09,0,0-.22-.1-.29l-.06,0a2.45,2.45,0,0,1,0-.27c-.06-.13-.13-.26-.18-.39s0,0-.05,0a.46.46,0,0,1,0-.21l0,0h0a.31.31,0,0,1,0-.1,2.41,2.41,0,0,1,0-1.51,1.93,1.93,0,0,1,.05-.42c.08-.18.24-.38.33-.55-.21-.08-.11-.55-.37-.56.06-.11.13-.27.07-.3a.85.85,0,0,1-.41-.52c0-.09.09-.22.06-.25s-.15.1-.21,0a13.28,13.28,0,0,1-1.05,2.35,5.32,5.32,0,0,0-.26,1.93,5.33,5.33,0,0,0,.66,2l0,.05a2.75,2.75,0,0,0,.69.83l.4.19a1.5,1.5,0,0,1,0-.2c.08.11.16.21.22.22.26.15.24-.05.29-.23s.15-.09.13-.23l.13.17c.06,0-.19-.18-.07-.2s.12.12.17.18-.16-.24-.09-.29.06.26.16.2,0-.08-.06-.11c.19.17.36.21.3,0a1.6,1.6,0,0,0,.16.23h0s-.06-.11-.09-.14l.1.11v0a.31.31,0,0,0-.05-.1l.06.07a.51.51,0,0,0,0-.13c0-.13,0-.28-.05-.33C54.73,30.45,54.47,30.07,54.26,29.7Z" transform="translate(0 0)"/><path class="cls-1" d="M55.31,29.54c-.05,0-.08,0-.1,0s.08-.15,0-.23h-.07l.08-.19c0-.12,0-.24-.06-.36h-.05a.6.6,0,0,1,0-.19v0h0a.2.2,0,0,1,0-.09c-.13-.35-.27-.72-.38-1.13a1.07,1.07,0,0,1-.12-.27,1.8,1.8,0,0,1,.08-.39c-.23,0-.3-.32-.54-.3,0-.08.05-.2,0-.22a.62.62,0,0,1-.47-.41c0-.09.1-.21.07-.25s-.16.08-.21,0a7.9,7.9,0,0,0-.28,2c.06.25.1,1.79.12,2.19v0a1.19,1.19,0,0,0,.17.65,2.28,2.28,0,0,0,.22.22,1.25,1.25,0,0,1,.09-.12c0,.08,0,.17.07.19s.22,0,.36,0,.18,0,.23-.1l0,.13c.06,0-.06-.15.05-.13s0,.1,0,.15,0-.18.09-.19-.09.17,0,.16,0-.06,0-.08c.06.15.18.22.27.05,0,.05,0,.13,0,.18h0s0-.08,0-.1v.09l0,0a.11.11,0,0,0,0-.08v.06l.09-.07c.06-.08.15-.16.14-.2C55.33,30.14,55.33,29.84,55.31,29.54Z" transform="translate(0 0)"/><path class="cls-1" d="M25.9,61.7s.09,0,.08.07c-.06.34-.27.57-.33.91l.06,0-.33.77L25,65s.05,0,.05,0c-.05.21-.16.49-.26.78l0,.14s0,0,0,.06l-.13.36c-.33,1.49-.67,3-1.06,4.65-.06.36-.11.71-.2,1-.14.49-.39,1.08-.56,1.55.24,0-.06,1.18.24,1-.11.31-.29.77-.23.82s.28.46.09,1.32c-.09.34-.35.81-.36.93s.29-.37.28-.17c.95-2.38,1.69-4.74,2.5-7.19.21-.86,1.93-6.52,2.37-8l0-.13a19.27,19.27,0,0,0,.61-2.47l.07-1-.21.37a3.53,3.53,0,0,0,.17-.77c.09-.71-.12-.35-.35-.13s-.15-.11-.29.16l.15-.53c-.06,0-.15.67-.21.49s.1-.44.16-.65c-.1.05-.23.73-.3.67s.27-.56.18-.63-.08.2-.11.3c.14-.66.14-1.05-.14-.48.06-.21.18-.49.23-.71h0l-.14.39.11-.37-.06,0a1.33,1.33,0,0,0-.1.28l.07-.25c0,.06-.11.12-.16.19a5.25,5.25,0,0,0-.36.69Z" transform="translate(0 0)"/><path class="cls-1" d="M20,67.48s-.07.06-.1,0c-.08-.25,0-.47,0-.72h-.07l0-.63-.15-1.16s-.05,0-.06,0a5.46,5.46,0,0,1,0-.62l0-.1s0,0-.05,0v-.28c-.18-1.13-.35-2.29-.45-3.56a7.67,7.67,0,0,1-.11-.8,12.4,12.4,0,0,1,.12-1.24c-.24,0-.26-.89-.51-.73,0-.25.09-.63,0-.65s-.39-.31-.41-1c0-.27.16-.66.13-.76s-.19.32-.23.17a33.79,33.79,0,0,0-.5,5.87c.05.34.07,1.66.17,3s.26,2.8.32,3.39l0,.1a8.91,8.91,0,0,0,.41,1.92l.33.71.05-.34a2,2,0,0,0,.15.59c.22.5.26.18.37,0s.18,0,.2-.23l.08.41c.07,0-.14-.5,0-.41a3.89,3.89,0,0,0,.12.49c.07-.07-.1-.56,0-.56s0,.48.1.49,0-.16,0-.24c.15.49.31.74.32.26a5.25,5.25,0,0,0,.09.55h0l0-.31.06.28,0-.06a1.8,1.8,0,0,0,0-.22l0,.19a1.89,1.89,0,0,0,.06-.18,2.73,2.73,0,0,0,0-.59C20.32,69.44,20.17,68.46,20,67.48Z" transform="translate(0 0)"/><path class="cls-1" d="M19.66,58s-.08,0-.1,0,.1-.11.06-.17h-.06l.1-.14a2.51,2.51,0,0,0,0-.27h-.06a.36.36,0,0,1,0-.14v0h-.05s0,0,0-.06l-.4-.82a.68.68,0,0,1-.14-.18.65.65,0,0,1,0-.28c-.23,0-.34-.21-.57-.18,0-.06,0-.14-.05-.15a.72.72,0,0,1-.53-.24c0-.06.05-.14,0-.17s-.14.07-.21,0a8.15,8.15,0,0,0,0,1.31A4.44,4.44,0,0,1,17.72,58v0a.73.73,0,0,0,.08.44l.18.17.12-.07c0,.06,0,.11,0,.14s.21,0,.37,0,.17,0,.24,0v.09c.07,0,0-.11.08-.09s0,.08,0,.12,0-.13.12-.13-.12.11,0,.12,0,0,0-.06a.15.15,0,0,0,.26.08s-.05.09,0,.12h0a.21.21,0,0,0,0-.07v.07h0l0-.05v0l.1,0c.08-.05.18-.1.18-.13A3.93,3.93,0,0,0,19.66,58Z" transform="translate(0 0)"/><path class="cls-1" d="M26.06,58.87s.09,0,.09.05-.19.22-.21.37l.06,0-.22.3-.21.64s0,0,0,0a1.76,1.76,0,0,1-.15.32v.06s0,0,0,0l-.08.14c-.15.66-.28,1.33-.47,2a2.41,2.41,0,0,1-.07.48,4.77,4.77,0,0,1-.34.63c.22.08.08.6.33.61-.07.13-.18.32-.13.36a.64.64,0,0,1,.22.72c-.05.15-.23.32-.22.38s.21-.1.23,0a26.71,26.71,0,0,0,1.53-3c.09-.39,1.09-2.81,1.35-3.44l0-.05a3.6,3.6,0,0,0,.31-1.09l0-.47-.17.13a.78.78,0,0,0,.09-.34c0-.32-.16-.19-.35-.13s-.15-.09-.26,0l.08-.23c-.06,0-.06.29-.14.2a1.29,1.29,0,0,0,.08-.28c-.09,0-.14.3-.22.26s.2-.22.11-.27-.06.08-.07.12c.06-.29,0-.47-.18-.26,0-.09.11-.2.13-.29h0l-.08.16.06-.16h-.06a.67.67,0,0,0-.06.12l0-.11L27,57c-.11.1-.25.19-.27.25C26.5,57.81,26.27,58.34,26.06,58.87Z" transform="translate(0 0)"/><path class="cls-1" d="M24.55,60.64s.09,0,.09,0c0,.27-.2.45-.23.72l.06,0-.24.61L24,63.23s0,0,0,0a6.28,6.28,0,0,1-.16.61l0,.11a.11.11,0,0,0,0,.05l-.09.28L23.28,68a7.15,7.15,0,0,1-.07.82c-.08.39-.26.86-.37,1.22.23,0,.08.94.36.82-.08.25-.19.61-.13.65s.33.37.25,1.05c-.05.26-.25.63-.24.73s.23-.29.25-.13c.64-1.88,1.08-3.73,1.6-5.66.1-.68,1.18-5.13,1.48-6.26l0-.11a11.12,11.12,0,0,0,.35-1.93l0-.78-.18.29a2.19,2.19,0,0,0,.1-.6c0-.56-.16-.28-.35-.11s-.16-.09-.28.13l.1-.42c-.06,0-.08.52-.16.38a4,4,0,0,0,.1-.5c-.1,0-.16.57-.24.52s.22-.44.12-.49-.06.15-.08.23c.08-.52,0-.82-.18-.38,0-.16.13-.38.16-.55h0l-.09.3.07-.29-.06.05a1.72,1.72,0,0,0-.07.21l.05-.19-.14.14a2.69,2.69,0,0,0-.29.54C25.06,58.65,24.79,59.64,24.55,60.64Z" transform="translate(0 0)"/><path class="cls-1" d="M19.1,70.27s.08,0,.1,0-.08.18,0,.28h.06l-.08.25.07.45s0,0,.05,0a.62.62,0,0,1,0,.23v0l.06,0s0,.08,0,.11c.13.44.26.9.36,1.41a1.66,1.66,0,0,1,.12.33,2,2,0,0,1-.09.49c.24,0,.29.39.53.35,0,.1-.05.25,0,.27a.61.61,0,0,1,.46.48c0,.11-.11.26-.08.31s.17-.11.22,0a11.1,11.1,0,0,0,.32-2.44c-.05-.29-.09-2.18-.12-2.67v0a1.87,1.87,0,0,0-.18-.79,3.11,3.11,0,0,0-.23-.28l-.09.14c0-.1,0-.21-.07-.24-.13-.2-.22-.06-.37,0s-.17,0-.23.11v-.17c-.07,0,.06.2-.05.17s0-.13-.05-.19,0,.23-.08.23.09-.2,0-.2,0,.07,0,.1c-.07-.19-.19-.28-.28-.08,0-.06,0-.16,0-.22h0s0,.09,0,.12v-.11l0,0a.14.14,0,0,0,0,.09v-.08l-.09.08c-.05.1-.14.2-.14.25C19.06,69.51,19.08,69.89,19.1,70.27Z" transform="translate(0 0)"/><path class="cls-1" d="M22.35,73.87s.07,0,.08.06-.13,0-.13.09l.05,0-.15,0-.11.22s0,0,0,0-.06.06-.09.09v0l0,0a.1.1,0,0,1,0,0,6.39,6.39,0,0,1-.24.84,1.2,1.2,0,0,1,0,.23.69.69,0,0,1-.24.15c.15.18,0,.4.2.57-.05,0-.14.07-.1.13a.67.67,0,0,1,.08.58c-.05.06-.18,0-.18.09s.15.08.14.15a4.59,4.59,0,0,0,1.28-1c.09-.18.86-1.12,1-1.38v0a.82.82,0,0,0,.2-.49c0-.08-.05-.17-.07-.26l-.14,0c0-.06.07-.11,0-.15s-.17-.15-.33-.18-.15-.08-.23-.07l.05-.08c-.06,0,0,.12-.11,0s0-.08,0-.11-.09.1-.16.06.15,0,.06-.1,0,0,0,0-.05-.22-.2-.18c0,0,.08-.06.08-.1h0l-.05,0,0,0h-.05l0,0,0,0-.1,0c-.09,0-.2,0-.21,0A5.71,5.71,0,0,0,22.35,73.87Z" transform="translate(0 0)"/><path class="cls-1" d="M19.12,80.88s.1-.06.08.08c-.11.44-.34.75-.43,1.19l.05,0-.4,1c-.18.65-.36,1.31-.51,2,0,0,.05,0,0,.06-.05.27-.18.64-.29,1l0,.17a.1.1,0,0,0,0,.08l-.14.47-1.15,6c-.06.45-.13.9-.22,1.33-.16.63-.44,1.41-.63,2,.25,0-.12,1.48.2,1.26a5.25,5.25,0,0,0-.31,1.05c.15.16.27.55,0,1.66-.13.42-.46,1-.48,1.19s.34-.49.31-.23a67.66,67.66,0,0,0,3-9.35c.2-1.12,2-8.42,2.71-10.2l.05-.17c.33-1,.74-2.18,1-3l.29-1.2-.3.44a6.78,6.78,0,0,0,.34-.94c.27-.85,0-.44-.32-.18s-.13-.15-.34.18c.1-.26.17-.38.28-.64-.05-.06-.32.81-.33.59s.22-.54.33-.79c-.12,0-.43.88-.48.81s.42-.69.34-.78a2.21,2.21,0,0,0-.19.37c.33-.81.43-1.3,0-.61.12-.26.32-.6.43-.87h0l-.25.48.21-.46-.07.06a2.21,2.21,0,0,0-.18.34l.14-.3a2.08,2.08,0,0,0-.21.21A9,9,0,0,0,21,76,45.53,45.53,0,0,0,19.12,80.88Z" transform="translate(0 0)"/><path class="cls-1" d="M16.45,92.34s-.09.08-.1-.07c0-.46.18-.81.18-1.27l-.06,0,.2-1.09.15-2.07s0,0-.05,0c0-.28.08-.67.13-1.08V86.5s0-.07,0-.07l.07-.5a22.42,22.42,0,0,1,1-6,7,7,0,0,1,.46-1.28,9.24,9.24,0,0,1,1.21-1.75c-.28-.08.73-1.32.36-1.25a9.38,9.38,0,0,0,.83-.81c0-.2.07-.64,1.14-1.37a10.64,10.64,0,0,1,1.33-.55c.25-.15-.66.09-.42-.06a9.86,9.86,0,0,0-4.39,3.28,14.81,14.81,0,0,0-2.45,4.77,36.69,36.69,0,0,0-.94,5.25l-.58,5.79,0,.18c-.11,1.09-.22,2.41-.22,3.34l.06,1.29.16-.53a6.41,6.41,0,0,0-.06,1c0,.94.17.42.36.08s.17.11.27-.29l-.07.73c.06,0,.05-.9.14-.69a8.46,8.46,0,0,0-.08.88c.1-.09.13-1,.21-.94s-.19.8-.09.87a2.28,2.28,0,0,0,.07-.43c0,.9,0,1.4.2.6,0,.28-.12.68-.13,1h0l.08-.54-.05.51.05-.08a2.63,2.63,0,0,0,.06-.39l0,.34.13-.28c.1-.39.24-.77.27-1C16.07,95.85,16.27,94.09,16.45,92.34Z" transform="translate(0 0)"/><path class="cls-1" d="M17.37,89.6s-.09.05-.09-.06c0-.32.2-.55.22-.88l-.06,0,.23-.75.26-1.43s-.05,0-.05,0c0-.21.11-.47.18-.75l0-.13a.06.06,0,0,0,0-.06l.1-.34c.22-1.41.46-2.85.8-4.39a7.86,7.86,0,0,1,.17-1c.12-.46.37-1,.53-1.45-.24,0,.05-1.12-.24-1,.11-.29.29-.72.24-.77s-.28-.45-.07-1.27c.1-.31.38-.74.38-.86s-.29.34-.28.14a52.25,52.25,0,0,0-2.46,6.82c-.08.42-.5,2-.87,3.63s-.71,3.4-.85,4.11l0,.13a14.11,14.11,0,0,0-.27,2.4l.07.94.16-.37a3.26,3.26,0,0,0-.06.74c0,.68.19.31.37.08s.16.08.27-.2l-.07.52c.06,0,0-.64.13-.49-.05.2,0,.42-.06.63.1-.06.11-.71.19-.67s-.17.57-.07.62,0-.2.06-.3c0,.64,0,1,.21.43,0,.2-.1.48-.11.69h0l.06-.38,0,.36.05-.06.06-.27,0,.23a1.57,1.57,0,0,0,.12-.19,4.68,4.68,0,0,0,.25-.69C17,92,17.15,90.81,17.37,89.6Z" transform="translate(0 0)"/><path class="cls-1" d="M18.28,83.68s-.09,0-.08-.06c0-.25.24-.39.28-.64l-.05,0,.29-.53.35-1.08s0,0,0,0a5.17,5.17,0,0,1,.23-.56l0-.09a.06.06,0,0,0,0,0l.12-.25c.29-1.08.58-2.17.95-3.34.06-.26.11-.52.19-.76s.38-.75.54-1.08c-.23,0,.06-.89-.23-.83.12-.22.29-.54.24-.58s-.27-.41-.07-1c.1-.24.35-.54.36-.64s-.28.22-.27.07a50.06,50.06,0,0,0-2.45,5c-.2.62-1.77,4.68-2.14,5.74l0,.1a10.41,10.41,0,0,0-.5,1.8l0,.74.2-.25a1.64,1.64,0,0,0-.14.56c-.06.52.14.28.34.13s.16.1.29-.09l-.12.38c.05,0,.1-.49.17-.35a3.59,3.59,0,0,0-.12.47c.1,0,.19-.52.26-.47s-.24.4-.14.46.06-.14.09-.22c-.11.48-.08.77.16.37a4.45,4.45,0,0,0-.19.51h0l.11-.28-.08.27.06,0a1.08,1.08,0,0,0,.08-.19l-.06.18.15-.13a3,3,0,0,0,.32-.48Z" transform="translate(0 0)"/><path class="cls-1" d="M20,80.07s-.09,0-.08-.06.2-.28.23-.47l-.05,0,.24-.38.27-.8s-.05,0,0,0a2.18,2.18,0,0,1,.18-.4v-.08s0,0,0,0l.09-.18c.2-.81.41-1.63.67-2.51a3.5,3.5,0,0,1,.12-.58,6.5,6.5,0,0,1,.43-.78c-.23-.07,0-.71-.28-.7.08-.16.22-.39.17-.44s-.28-.36-.15-.84c.07-.18.29-.39.28-.47s-.24.15-.24,0A33.85,33.85,0,0,0,19.92,75c-.14.47-1.37,3.5-1.68,4.28l0,.07a5.65,5.65,0,0,0-.37,1.36v.56a1.53,1.53,0,0,0,.18-.18,1.14,1.14,0,0,0-.1.43c0,.39.15.22.35.13s.15.08.27-.05l-.1.28c.06,0,.08-.36.16-.25a2,2,0,0,0-.1.35c.1,0,.15-.38.23-.34s-.21.28-.12.34.06-.1.08-.16c-.08.36,0,.58.18.3,0,.11-.13.25-.16.37h0l.09-.2-.07.2.06,0s.05-.09.07-.14l-.05.13A.57.57,0,0,0,19,82.4c.12-.14.26-.25.29-.34Z" transform="translate(0 0)"/><path class="cls-1" d="M20.09,79.86s-.09,0-.08-.06.25-.33.3-.55l0,0,.3-.45.36-.94s-.05,0,0,0a3.75,3.75,0,0,1,.22-.48l0-.08a.07.07,0,0,0,0,0l.12-.22.9-2.94a6.56,6.56,0,0,1,.17-.67,9.26,9.26,0,0,1,.49-.94c-.23-.06,0-.81-.26-.77.1-.19.26-.47.21-.52s-.28-.38-.12-.94c.07-.21.3-.47.31-.56s-.26.19-.26,0c-.83,1.44-1.47,2.9-2.19,4.4-.16.55-1.7,4-2.11,4.94l0,.09a7.89,7.89,0,0,0-.54,1.54l-.07.66.21-.21a1.35,1.35,0,0,0-.16.49c-.08.45.12.26.33.15s.15.11.29,0l-.14.33c.05,0,.13-.42.19-.29s-.09.28-.15.41c.1,0,.22-.45.29-.39s-.26.32-.17.39.08-.12.1-.19c-.13.42-.12.68.14.36a4.3,4.3,0,0,0-.21.43h0l.13-.24-.1.23.06,0a1.4,1.4,0,0,0,.09-.17l-.06.15.14-.09a3.33,3.33,0,0,0,.35-.39C19.4,81.42,19.76,80.64,20.09,79.86Z" transform="translate(0 0)"/><path class="cls-1" d="M23,75s-.09,0-.06-.07.3-.29.4-.5l0,0c.12-.13.25-.26.37-.41.16-.31.33-.61.46-.92,0,0-.05,0,0,0a4.53,4.53,0,0,1,.25-.47l0-.09a.11.11,0,0,0,0,0l.12-.22a16,16,0,0,0,.57-3c0-.23,0-.47,0-.68s.14-.71.19-1c-.23,0-.27-.73-.52-.6,0-.2.05-.5,0-.52s-.4-.22-.52-.73c0-.19.05-.5,0-.57s-.13.26-.2.15a16.43,16.43,0,0,1-.53,4.29,9.13,9.13,0,0,1-.68,2.14,11.88,11.88,0,0,1-1.25,2.2l0,.06a11.33,11.33,0,0,0-.82,1.22l-.25.54.25-.1a1.24,1.24,0,0,0-.29.36c-.23.36,0,.28.25.27s.1.16.27.07c-.09.1-.14.14-.24.24s.27-.32.28-.18a2.68,2.68,0,0,0-.28.3c.09,0,.36-.31.4-.24s-.36.19-.3.29.12-.08.17-.13c-.28.32-.38.57,0,.38a3.37,3.37,0,0,0-.36.3h0l.21-.17-.18.17h.06l.15-.11-.12.11.17,0a3.29,3.29,0,0,0,.48-.22A12,12,0,0,0,23,75Z" transform="translate(0 0)"/><path class="cls-1" d="M24.63,73.19s-.09,0-.08-.06.24-.33.29-.55l-.05,0c.09-.15.19-.3.27-.46a6.9,6.9,0,0,0,.27-1s0,0,0,0a4,4,0,0,1,.16-.5v-.08a.11.11,0,0,0,0-.05l.07-.22a25.66,25.66,0,0,0,.15-2.95c0-.22-.05-.44-.05-.65a7.7,7.7,0,0,1,.15-1c-.24,0-.27-.71-.52-.6,0-.19.06-.48,0-.51s-.4-.23-.46-.76c0-.21.1-.51.07-.59s-.17.25-.22.13c-.21,1.51-.27,3-.52,4.42A12.65,12.65,0,0,1,23.71,70a12.42,12.42,0,0,1-.81,2.35l0,.07a10.19,10.19,0,0,0-.56,1.3l-.14.55.22-.13a1.16,1.16,0,0,0-.21.39c-.16.39.06.27.29.23s.12.14.28,0c-.07.11-.12.16-.2.27s.21-.35.25-.22a4,4,0,0,0-.23.34c.1,0,.3-.36.36-.3s-.32.24-.25.33.1-.09.14-.15c-.22.36-.27.61.05.37a3.58,3.58,0,0,0-.3.36h0l.18-.2-.15.2h.06a1.59,1.59,0,0,0,.13-.13l-.1.12.16,0a2.34,2.34,0,0,0,.43-.3A11.23,11.23,0,0,0,24.63,73.19Z" transform="translate(0 0)"/><path class="cls-1" d="M23.3,69.31s-.09,0-.09,0c0-.23.2-.38.22-.61l-.06,0,.24-.51.22-1s0,0,0,0,.1-.33.16-.53l0-.09s0,0,0,0l.08-.25.48-3.18a5.52,5.52,0,0,1,.06-.72c.08-.34.25-.74.35-1-.23,0-.09-.83-.36-.75.07-.21.18-.53.12-.56s-.33-.34-.26-.94c.05-.23.24-.55.23-.64s-.23.25-.25.1c-.61,1.62-1,3.24-1.52,4.9-.09.6-1.12,4.45-1.4,5.44l0,.09a8.38,8.38,0,0,0-.32,1.68l0,.68.18-.24a1.35,1.35,0,0,0-.09.52c0,.49.16.25.35.11s.16.09.28-.1l-.1.36c.06,0,.07-.45.16-.32a2.84,2.84,0,0,0-.1.44c.1,0,.15-.49.23-.45s-.21.37-.11.43.06-.14.08-.21c-.07.45,0,.72.18.34a3.82,3.82,0,0,0-.15.48h0l.09-.26-.06.25.05,0a.62.62,0,0,0,.07-.19l0,.17.13-.12a2.88,2.88,0,0,0,.29-.46C22.83,71,23.07,70.17,23.3,69.31Z" transform="translate(0 0)"/><path class="cls-1" d="M25.32,67.56s-.09,0-.08-.07.23-.34.28-.57l-.05,0,.28-.47q.16-.5.3-1s-.05,0-.05,0a4.9,4.9,0,0,1,.19-.51l0-.09a.11.11,0,0,0,0-.05l.09-.23c.19-1,.33-2,.46-3.09a3.92,3.92,0,0,1,0-.69c.05-.33.18-.73.26-1-.23,0-.18-.78-.44-.67.05-.21.11-.52.05-.55s-.37-.28-.39-.85c0-.21.15-.53.13-.61s-.19.25-.23.13c-.34,1.56-.59,3.08-1,4.63a17.67,17.67,0,0,1-.61,2.38c-.33,1.06-.75,2.15-.94,2.59l0,.08a10,10,0,0,0-.53,1.5l-.08.63.21-.19a1.7,1.7,0,0,0-.18.47c-.1.45.12.27.33.18s.14.11.29,0l-.16.32c.05,0,.15-.41.21-.28a2.83,2.83,0,0,0-.17.4c.1,0,.24-.43.31-.38s-.28.31-.19.38.08-.11.11-.17c-.15.41-.16.67.11.36a4.16,4.16,0,0,0-.23.42h0l.14-.23-.11.22.06,0s.07-.1.1-.16l-.07.15.15-.08a2.5,2.5,0,0,0,.37-.38C24.61,69.15,25,68.36,25.32,67.56Z" transform="translate(0 0)"/><path class="cls-1" d="M22.75,69.59s-.09,0-.1,0c0-.24.17-.4.17-.63l-.06,0,.19-.53.15-1s-.05,0-.05,0,.07-.34.11-.54v-.09a.05.05,0,0,0-.05,0l.07-.25.21-3.21a5.76,5.76,0,0,1,0-.72c.05-.34.19-.76.27-1.08-.24,0-.17-.82-.43-.71.05-.22.14-.54.08-.57s-.36-.31-.34-.92c0-.23.19-.56.17-.65s-.21.26-.24.12c-.47,1.67-.75,3.31-1.11,5,0,.59-.74,4.51-.94,5.52l0,.09a9.61,9.61,0,0,0-.19,1.7l.08.67.16-.25a1.59,1.59,0,0,0-.05.53c0,.48.18.23.36.08s.16.07.27-.12l-.07.36c.06,0,0-.45.13-.34a3.47,3.47,0,0,0-.06.45c.1,0,.11-.5.19-.46s-.18.39-.07.43,0-.13.06-.21c0,.46,0,.72.2.33a3.54,3.54,0,0,0-.1.49h0l.07-.27-.05.25.05,0a.6.6,0,0,0,.06-.19l0,.17a.77.77,0,0,0,.12-.13,3.25,3.25,0,0,0,.25-.47C22.41,71.34,22.59,70.47,22.75,69.59Z" transform="translate(0 0)"/><path class="cls-1" d="M20.75,69.59s-.08,0-.1,0,0-.37,0-.56h-.07l0-.48-.12-.88s-.05,0-.06,0a3.48,3.48,0,0,1,0-.47l0-.08s0,0-.05,0v-.22A24.09,24.09,0,0,1,20,64.13a4.55,4.55,0,0,1-.09-.63,7.36,7.36,0,0,1,.15-.94c-.24,0-.23-.71-.48-.61,0-.19.1-.48,0-.51s-.38-.27-.38-.82c0-.21.17-.5.15-.58s-.19.23-.23.1a20.19,20.19,0,0,0-.67,4.59c0,.27,0,1.3.09,2.38s.2,2.2.24,2.66l0,.09a5.91,5.91,0,0,0,.37,1.49l.31.54q0-.15.06-.27a1.25,1.25,0,0,0,.14.45c.2.38.25.12.36-.07s.18,0,.21-.2l.07.32c.06,0-.14-.38,0-.32a2.72,2.72,0,0,0,.11.38c.08-.07-.08-.44,0-.44s0,.37.09.37,0-.12,0-.19c.13.38.29.55.31.18a3.1,3.1,0,0,0,.08.42h0l0-.24.06.22,0,0a1,1,0,0,0,0-.17l0,.14a.61.61,0,0,0,.07-.14,2.7,2.7,0,0,0,.06-.47Q20.9,70.7,20.75,69.59Z" transform="translate(0 0)"/><path class="cls-1" d="M24.33,70.74s-.08,0-.08,0,.19-.3.2-.49l-.05,0,.21-.41c.07-.28.14-.56.19-.84,0,0-.05,0-.05,0a3.9,3.9,0,0,1,.13-.43v-.08a.05.05,0,0,0,0,0l.06-.2c.09-.84.14-1.69.18-2.61a4,4,0,0,1,0-.59c0-.27.14-.6.2-.86-.23,0-.23-.66-.48-.58,0-.17.09-.43,0-.45s-.39-.25-.43-.72c0-.19.13-.45.1-.52s-.17.21-.22.1c-.28,1.32-.43,2.6-.73,3.92a25.29,25.29,0,0,1-1,4.24l0,.07a6.15,6.15,0,0,0-.32,1.3V72a1.41,1.41,0,0,1,.18-.17,1,1,0,0,0-.1.4c0,.39.14.23.34.14s.15.09.27,0l-.1.28c.05,0,.09-.36.16-.24a1.93,1.93,0,0,0-.11.34c.1,0,.17-.38.24-.33s-.22.27-.12.33.06-.1.08-.15c-.09.35-.06.58.16.3,0,.11-.13.25-.16.37h0l.1-.2-.07.19.05,0a.64.64,0,0,0,.08-.14l-.05.13.13-.07a2.72,2.72,0,0,0,.31-.34C23.85,72.11,24.11,71.43,24.33,70.74Z" transform="translate(0 0)"/><path class="cls-1" d="M22.48,71.54s-.09,0-.1,0,.15-.3.14-.49l-.06,0,.16-.41c0-.27.05-.54.07-.81,0,0-.05,0-.05,0a2.81,2.81,0,0,1,.07-.42v-.07a.07.07,0,0,0-.05,0l0-.2c0-.8-.07-1.61-.12-2.49a3.7,3.7,0,0,1-.09-.55,7.72,7.72,0,0,1,.12-.84c-.24,0-.29-.61-.53-.51,0-.17.05-.42,0-.44s-.4-.21-.48-.66c0-.18.09-.44.06-.5s-.16.21-.21.11c-.18,1.28-.22,2.53-.37,3.82a28.68,28.68,0,0,1-.48,4.18v.07a5.27,5.27,0,0,0-.12,1.28l.09.52a1.43,1.43,0,0,1,.15-.18,1,1,0,0,0,0,.4c0,.37.19.19.37.08s.16.07.26-.08l-.06.28c.06,0,0-.35.12-.25a1.86,1.86,0,0,0-.05.34c.09,0,.1-.38.18-.35s-.17.29-.07.33.05-.1.06-.15c0,.34,0,.55.21.26a2.24,2.24,0,0,0-.1.37h0l.07-.2-.05.19.05,0a.47.47,0,0,0,.06-.15l0,.13.12-.09c.1-.14.23-.27.24-.36C22.21,72.89,22.36,72.22,22.48,71.54Z" transform="translate(0 0)"/><path class="cls-1" d="M21.56,68.87s-.08.06-.1,0c-.06-.27.08-.5,0-.77l-.07,0,.07-.67-.07-1.25s0,0-.05,0a5,5,0,0,1,0-.66v-.11s0,0-.05,0V65c-.12-1.22-.24-2.47-.33-3.82a8.47,8.47,0,0,1-.09-.85c0-.41.08-.92.11-1.32-.23,0-.26-.93-.51-.76,0-.27.07-.66,0-.69s-.4-.31-.44-1c0-.28.13-.7.1-.8s-.17.35-.22.18a55,55,0,0,0-.46,6.16c0,1.21.09,5.48.11,6.74v.12a12.66,12.66,0,0,0,.21,2l.25.78.08-.34a2.61,2.61,0,0,0,.08.63c.15.56.24.23.38,0s.17,0,.22-.21l0,.44c.07,0-.08-.54,0-.43a5.24,5.24,0,0,0,.06.54c.08-.07,0-.62.07-.6s-.08.51,0,.53,0-.17,0-.26c.08.54.21.83.28.33,0,.17,0,.41,0,.59h0v-.33l0,.31,0-.06a1.93,1.93,0,0,0,0-.24v.21l.09-.19a3.28,3.28,0,0,0,.12-.62Z" transform="translate(0 0)"/><path class="cls-1" d="M19.13,61.2s.08-.07.09,0c0,.38-.13.67-.1,1l.06,0-.12.9c0,.57,0,1.13.05,1.69,0,0,.05,0,.06,0,0,.23,0,.56,0,.89l0,.15s0,0,.05,0v.41l.09.69L21,67c-.22-1.37-.45-2.79-.65-4.31-.08-.37-.16-.75-.2-1.11,0-.53,0-1.21,0-1.73-.23.08-.35-1.2-.58-.94a3.5,3.5,0,0,0,0-.91c-.2-.08-.42-.36-.5-1.3,0-.37.1-.94.07-1.07s-.17.47-.22.26A56.54,56.54,0,0,0,19,64.06c.06.37.18,1.64.31,3.11L21.09,67a38.33,38.33,0,0,1,0-5.55v-.14c.06-.85.14-1.89.13-2.62l-.05-1-.17.41a4.35,4.35,0,0,0,.08-.82c0-.74-.17-.35-.37-.09s-.16-.09-.27.22l.09-.58c-.06,0-.07.72-.15.54s.05-.47.09-.7c-.1.06-.16.79-.23.75s.21-.64.11-.7a1.27,1.27,0,0,0-.08.34c.07-.72,0-1.13-.18-.5,0-.23.13-.54.16-.78h0l-.1.43.07-.4-.06.06a2.82,2.82,0,0,0-.07.31l.05-.28a1.64,1.64,0,0,0-.14.22,5.29,5.29,0,0,0-.3.78A34.43,34.43,0,0,0,19.13,61.2Z" transform="translate(0 0)"/><path class="cls-1" d="M18.87,58.26s.08,0,.1,0-.11.33-.08.52H19l-.1.44c0,.28,0,.56.05.84,0,0,.05,0,.06,0a3.2,3.2,0,0,1,0,.44v.07s0,0,.06,0v.2c.17.8.39,1.59.66,2.44a4.61,4.61,0,0,1,.23.52c.06.26.08.59.12.85.22-.08.45.5.65.33,0,.17.08.41.15.41s.44.08.66.47c.07.16.05.43.1.48s.08-.25.17-.17c-.25-1.23-.56-2.41-.7-3.67a9.53,9.53,0,0,1-.26-1.91,17.37,17.37,0,0,1,0-2.17v-.07a5.84,5.84,0,0,0,0-1.26l-.14-.5-.13.2a1.09,1.09,0,0,0,0-.4c-.06-.36-.2-.18-.37-.06s-.17,0-.25.1l0-.28c-.06,0,0,.35-.1.26a2,2,0,0,0,0-.34c-.09,0-.08.38-.16.36s.15-.31,0-.34,0,.1,0,.16c0-.35-.07-.56-.23-.25a2.33,2.33,0,0,0,.08-.38h0l-.05.21,0-.2-.05,0a.66.66,0,0,0-.05.15l0-.14-.11.1a1.83,1.83,0,0,0-.22.38A15,15,0,0,0,18.87,58.26Z" transform="translate(0 0)"/><path class="cls-1" d="M21.32,58.83s.08,0,.09,0-.11.32-.09.49l.07,0-.12.42c0,.27,0,.53,0,.8,0,0,0,0,.05,0a3.58,3.58,0,0,1,0,.42v.07s0,0,.05,0l0,.19c.09.78.21,1.57.34,2.43a3.71,3.71,0,0,1,.13.53,7.75,7.75,0,0,1,0,.84c.23,0,.33.57.57.46,0,.16,0,.41.05.42a.73.73,0,0,1,.53.62c0,.17-.06.43,0,.49s.14-.22.21-.13c.07-1.27,0-2.5.05-3.78a29.64,29.64,0,0,1,.1-4.14V59a5.36,5.36,0,0,0,0-1.27l-.14-.5L23,57.4A.83.83,0,0,0,23,57c-.07-.36-.2-.17-.37,0s-.17-.05-.25.1l0-.28c-.07,0,0,.35-.1.26a1.27,1.27,0,0,0,0-.34c-.09,0-.07.38-.15.36s.14-.3,0-.33,0,.1,0,.16c0-.35-.09-.54-.24-.24,0-.11.07-.26.07-.37h0l-.05.2,0-.19-.05,0a.7.7,0,0,0,0,.14v-.13l-.11.11a1.64,1.64,0,0,0-.21.37C21.46,57.48,21.37,58.15,21.32,58.83Z" transform="translate(0 0)"/><path class="cls-1" d="M21.23,58.39s.09,0,.1,0-.13.24-.11.38l.07,0-.13.33c0,.21,0,.42,0,.64,0,0,.05,0,.05,0a1.55,1.55,0,0,1,0,.34v0a.05.05,0,0,0,0,0,.61.61,0,0,1,0,.15c.07.63.18,1.27.29,2a1.9,1.9,0,0,1,.13.43,4.91,4.91,0,0,1-.05.67c.23,0,.33.46.56.37,0,.13,0,.33.05.34a.63.63,0,0,1,.53.48c0,.14-.06.35,0,.39s.14-.17.2-.09c.08-1,0-2,.09-3a16.33,16.33,0,0,1,.19-3.25v-.06a3.4,3.4,0,0,0,0-1l-.13-.4-.14.14a.47.47,0,0,0,0-.31c-.05-.29-.19-.15-.36-.07s-.17-.05-.26.06l.05-.22c-.07,0,0,.28-.11.2s0-.18,0-.27-.08.3-.16.28.15-.23.05-.26,0,.08-.05.12c0-.27-.07-.44-.23-.21A1.57,1.57,0,0,0,22,56.4h0l0,.16,0-.16-.05,0a.28.28,0,0,0,0,.12l0-.1-.12.07c-.09.11-.21.21-.22.28A14.57,14.57,0,0,0,21.23,58.39Z" transform="translate(0 0)"/><path class="cls-1" d="M19.76,58.22s.09,0,.1,0-.09.31-.05.48h.06l-.09.41c0,.26,0,.52.07.77,0,0,0,0,0,0a1.7,1.7,0,0,1,0,.4v.07a.06.06,0,0,0,0,0,1.2,1.2,0,0,1,0,.19c.17.74.38,1.48.62,2.28a3.44,3.44,0,0,1,.21.49,7,7,0,0,1,.08.79c.22-.07.43.49.64.33,0,.16.05.39.12.39a.71.71,0,0,1,.63.47c.05.15,0,.41.07.46s.1-.23.17-.16c-.16-1.17-.41-2.29-.52-3.49a17.63,17.63,0,0,1-.29-3.86v-.06a5.12,5.12,0,0,0-.07-1.19l-.16-.46-.12.19a.81.81,0,0,0,0-.37c-.08-.34-.2-.16-.37,0s-.17,0-.25.1l0-.26c-.06,0,0,.32-.08.24a1.71,1.71,0,0,0,0-.32c-.09,0,0,.37-.14.35s.14-.3,0-.32,0,.1,0,.15c0-.33-.11-.51-.25-.22a2.25,2.25,0,0,0,.06-.36h0l0,.2v-.19l0,0a.74.74,0,0,0,0,.14V55.8l-.1.1a1.73,1.73,0,0,0-.2.36A16.18,16.18,0,0,0,19.76,58.22Z" transform="translate(0 0)"/><path class="cls-1" d="M26.12,58.28s.09,0,.1,0-.15.14-.14.24l.06,0-.15.19c0,.14-.06.28-.08.43s0,0,.05,0a.85.85,0,0,1-.08.22v0a.05.05,0,0,0,.05,0l-.05.1,0,1.38a1.28,1.28,0,0,1,.06.32,2,2,0,0,1-.16.43c.23,0,.24.41.48.42,0,.08-.08.21,0,.24a.64.64,0,0,1,.42.49c0,.1-.12.22-.1.26s.17-.08.22,0c.27-.67.38-1.35.59-2A10.92,10.92,0,0,1,28,58.86v0a1.59,1.59,0,0,0,.12-.7c0-.11-.07-.21-.1-.31l-.15.08c0-.09.07-.18,0-.22,0-.21-.19-.14-.36-.11s-.16-.06-.25,0l0-.14c-.06,0,0,.19-.11.12s0-.12,0-.18-.1.19-.18.16.17-.13.07-.17,0,0-.06.08c0-.19-.05-.32-.21-.18,0-.06.09-.13.09-.19h0s0,.07-.06.1l0-.1H26.9a.18.18,0,0,0,0,.07l0-.07-.12,0c-.09.06-.21.11-.23.16C26.38,57.59,26.24,57.94,26.12,58.28Z" transform="translate(0 0)"/><path class="cls-1" d="M23.57,59.44s.09,0,.1,0-.15.31-.13.5l.06,0-.16.42c0,.28-.05.55-.07.83,0,0,.05,0,.05,0a2.72,2.72,0,0,1-.07.43v.08a.05.05,0,0,0,0,0l0,.2.08,2.54a3.68,3.68,0,0,1,.06.56,8.11,8.11,0,0,1-.14.86c.23,0,.25.63.5.53,0,.17-.07.43,0,.45s.4.22.45.69c0,.18-.12.44-.09.51s.17-.21.22-.11c.26-1.31.35-2.58.54-3.91,0-.47.36-3.52.51-4.3v-.07a6.1,6.1,0,0,0,.1-1.32l-.11-.53-.15.19a1,1,0,0,0,0-.41c-.05-.38-.19-.19-.36-.08s-.17-.06-.26.08l.05-.28c-.07,0,0,.36-.11.26a2.07,2.07,0,0,0,0-.35c-.09,0-.09.39-.17.36s.16-.3.06-.34,0,.1-.05.16c0-.36-.06-.57-.22-.27a2.34,2.34,0,0,0,.09-.38h0l-.06.21,0-.2-.05,0a.83.83,0,0,0,0,.15l0-.13-.12.09a2.74,2.74,0,0,0-.23.37Q23.74,58.41,23.57,59.44Z" transform="translate(0 0)"/><path class="cls-1" d="M22.07,59s.08,0,.1,0-.12.3-.09.47h.06l-.11.41c0,.25,0,.51,0,.77,0,0,.05,0,.05,0a2,2,0,0,1,0,.41v.07l.05,0a1.37,1.37,0,0,0,0,.19c.1.75.24,1.51.39,2.32a4.07,4.07,0,0,1,.15.51,7.09,7.09,0,0,1,0,.8c.23,0,.35.54.58.42,0,.16,0,.4.07.41s.42.14.56.56c0,.16,0,.41,0,.47s.13-.22.2-.13c0-1.21-.09-2.38-.08-3.6a22.81,22.81,0,0,1,0-4v-.06a4.88,4.88,0,0,0,0-1.21l-.14-.48-.13.19a1.16,1.16,0,0,0,0-.38c-.07-.34-.2-.17-.37,0s-.17-.05-.26.09l0-.26c-.07,0,0,.33-.1.25a1.77,1.77,0,0,0,0-.33c-.09,0-.07.37-.15.34s.14-.29,0-.32,0,.1-.05.16c0-.33-.09-.52-.23-.23,0-.11.07-.25.07-.36h0l0,.2,0-.19-.05,0s0,.09,0,.14l0-.13a.52.52,0,0,0-.11.1,1.86,1.86,0,0,0-.21.35A18.53,18.53,0,0,0,22.07,59Z" transform="translate(0 0)"/><path class="cls-1" d="M22.79,58s.08,0,.1,0-.11.18-.08.29l.06,0-.11.25c0,.16,0,.32,0,.49,0,0,.05,0,.05,0a.63.63,0,0,1,0,.26v0l.05,0a.36.36,0,0,1,0,.11l.32,1.5a1.81,1.81,0,0,1,.13.34,4.26,4.26,0,0,1-.06.5c.23,0,.31.37.55.31,0,.1,0,.25,0,.26a.6.6,0,0,1,.51.4c0,.1-.08.26,0,.3s.15-.13.21-.07c.12-.77.09-1.53.15-2.31a13.86,13.86,0,0,1,.08-2.53v0a2,2,0,0,0,0-.78l-.16-.31-.12.11c0-.1,0-.2,0-.24-.08-.22-.21-.11-.37,0s-.17,0-.25,0l0-.17c-.06,0,0,.21-.08.15s0-.14,0-.2-.05.23-.13.21.13-.18,0-.2,0,.06,0,.09c0-.21-.12-.33-.25-.15a1,1,0,0,0,.05-.23h0a.56.56,0,0,1,0,.12l0-.11h-.05a.32.32,0,0,0,0,.09V56.5l-.11.06c-.07.09-.18.17-.19.22C22.89,57.18,22.83,57.6,22.79,58Z" transform="translate(0 0)"/><path class="cls-1" d="M19.92,99.37s0-.1.09-.06c.26.13.36.39.59.57l.07,0a5.44,5.44,0,0,1,.39.62l.09.12h0a.13.13,0,0,1,.06,0s.07,0,.08,0,0,0,0,0h-.07l0,.05-.07,0a.46.46,0,0,1-.1,0l-.56,0-1.21,0c-.82,0-1.66,0-2.53,0-.37,0-.75,0-1.1,0a10.77,10.77,0,0,1-1.32-.23l-.12.06c-.12,0-.13-.17-.14-.37s0-.41-.17-.29a3.47,3.47,0,0,0,.28-.94c-.14-.14-.27-.48,0-1.4.12-.35.44-.82.46-1s-.33.38-.3.16a28.12,28.12,0,0,0-1.84,4.83l2,.32.73.11.52.07c.69.08,1.38.16,2.08.22l1.83.06,1.55,0h2.87c-.25-.64-.5-1.28-.77-1.89a8,8,0,0,0-.91-1.5,6.92,6.92,0,0,0-1.31-1.31L21,97.78a4.39,4.39,0,0,0-1.52-.68A3.89,3.89,0,0,0,18,97a3.77,3.77,0,0,0-1.15.42,2.31,2.31,0,0,1,.51,0,2.31,2.31,0,0,0-.88.34c-.68.52-.19.35.13.35s0,.18.33.12a2.52,2.52,0,0,0-.49.25c0,.05.58-.36.49-.18a1.88,1.88,0,0,0-.56.33c.1,0,.65-.35.67-.23s-.58.16-.55.28.17-.09.27-.13c-.54.36-.64.68-.19.42a1.58,1.58,0,0,0-.45.41h0a1.88,1.88,0,0,1,.25-.24,1.58,1.58,0,0,0-.22.23h.07l.18-.16a1,1,0,0,0-.14.15l.18-.06a5.9,5.9,0,0,1,.56-.2A3,3,0,0,1,19.92,99.37Z" transform="translate(0 0)"/><path class="cls-1" d="M16.27,101s0-.08,0-.1.23.09.35,0v-.06l.3.08a4.87,4.87,0,0,0,.55-.06s0,0,0,0a1,1,0,0,1,.29,0l0,0a.08.08,0,0,0,0,0l.13,0,1.69-.42a1.46,1.46,0,0,1,.38-.14,1.81,1.81,0,0,1,.46,0l0-.63h-.13c.07.22-.34.4-.22.61-.12,0-.3,0-.3.1a.63.63,0,0,1-.34.6c-.12.05-.32,0-.36,0s.18.11.12.18a11.19,11.19,0,0,0,1.43-.2l-.11-2.07H19.27a30,30,0,0,1-3,.14h-.05a2.67,2.67,0,0,0-.91.14,3.79,3.79,0,0,0-.34.2s.11.07.15.11c-.12,0-.24,0-.28,0-.25.11-.09.22,0,.37s0,.17.1.24h-.19c0,.07.23,0,.19.06s-.16,0-.24,0,.27,0,.27.1-.23-.1-.24,0,.08,0,.12,0c-.24.05-.37.16-.14.26a1.13,1.13,0,0,0-.26,0h0l.14,0h-.13l0,0,.11,0H14.5a.39.39,0,0,0,.08.1c.12.06.22.16.28.16C15.33,101,15.81,101,16.27,101Z" transform="translate(0 0)"/><path class="cls-1" d="M19.64,99.64s0,.08,0,.09-.11-.12-.2-.1l0,.06-.16-.14-.36,0a.08.08,0,0,1,0,.06.6.6,0,0,1-.18-.07h0l0,.05-.08-.05c-.37,0-.77,0-1.2,0a1,1,0,0,1-.29,0,1.48,1.48,0,0,1-.34-.21c-.1.21-.42.16-.48.39-.07,0-.18-.12-.22-.07a.6.6,0,0,1-.56.29c-.09,0-.16-.18-.21-.16s0,.18-.06.2a7.14,7.14,0,0,0,1.84,1c.26,0,1.8.49,2.2.59h0a1.4,1.4,0,0,0,.7,0l.28-.15-.1-.13c.09,0,.18,0,.21,0,.2-.08.1-.2.05-.37s0-.17,0-.24l.13,0c0-.07-.17,0-.12-.09s.11,0,.17,0-.19,0-.17-.13.14.13.16,0-.05,0-.08,0c.17,0,.27-.11.13-.25.05,0,.12.06.17,0h0l-.09,0h.09v0l-.07,0h.06a1,1,0,0,0,0-.1c-.07-.08-.13-.19-.16-.2C20.23,99.78,19.94,99.7,19.64,99.64Z" transform="translate(0 0)"/><path class="cls-1" d="M15.58,100.56s-.08,0-.1,0,.09-.18,0-.27h-.06c0-.07.06-.15.09-.23l0-.44h-.06a.7.7,0,0,1,0-.23v0l-.05,0,0-.11a7.38,7.38,0,0,1-.09-1.45,1.06,1.06,0,0,1,0-.35,1.57,1.57,0,0,1,.22-.45c-.22-.08-.16-.47-.4-.51.06-.09.14-.23.09-.27a.59.59,0,0,1-.26-.63c.05-.12.22-.23.21-.29s-.2.06-.22,0a7.21,7.21,0,0,0-1.13,2.47c0,.16-.12.75-.17,1.38a14.05,14.05,0,0,0-.06,1.56v0c0,.11,0,.22,0,.33l.1.82h.78a1.49,1.49,0,0,0,.81-.23,2.37,2.37,0,0,0,.34-.37h-.22c.13-.06.25-.14.27-.21.17-.27-.05-.23-.22-.3s-.09-.15-.2-.15l.13-.09s-.13.15-.16,0,.09-.09.13-.12-.17.1-.22,0,.2,0,.13-.09-.05,0-.07,0c.11-.14.06-.26-.1-.25,0,0,.1,0,.11-.08h0l-.07,0,0,0,0,0-.05,0,0,0-.1,0a1.47,1.47,0,0,1-.19-.06.47.47,0,0,1-.3,0l1,.92Z" transform="translate(0 0)"/><path class="cls-1" d="M16.93,99.4s0-.08,0-.1.13.11.2.08l0-.07.17.11h.34a.08.08,0,0,1,0,0,.45.45,0,0,1,.18,0h0s0,0,0,0l.08,0a9.12,9.12,0,0,1,1.15-.16.94.94,0,0,1,.28-.06,1.09,1.09,0,0,1,.35.15c.07-.22.38-.22.42-.45.07,0,.18.09.21,0a.62.62,0,0,1,.51-.36c.09,0,.18.15.23.13s-.05-.18,0-.21a7.16,7.16,0,0,0-1.9-.72c-.25,0-1.79-.23-2.19-.27h0a1.25,1.25,0,0,0-.67.07c-.09,0-.17.12-.26.18l.11.12c-.08,0-.17,0-.2,0s-.07.22,0,.37,0,.18.07.25H16c0,.07.16,0,.12.07s-.1,0-.15,0,.18,0,.17.11-.15-.11-.15,0,.05,0,.07,0c-.16,0-.23.15-.09.26-.05,0-.12,0-.17,0h0l.1,0H15.8l0,0a.09.09,0,0,0,.07,0h-.06a.31.31,0,0,0,.05.1c.07.07.14.17.18.17Z" transform="translate(0 0)"/><path class="cls-1" d="M17.88,100.2s0-.08,0-.09.09.11.16.08v-.06l.13.12.28,0s0,0,0,0,.08,0,.13,0h0l0,0,.06,0a3.77,3.77,0,0,1,1,0,.76.76,0,0,1,.26,0c.1,0,.18.16.25.23.13-.19.41-.1.53-.3.05,0,.13.14.18.1a.58.58,0,0,1,.6-.15c.08,0,.1.21.15.21s0-.18.11-.18a4.41,4.41,0,0,0-1.55-1.3c-.13,0-.54-.2-1-.34s-.92-.23-1.11-.28h0a1.06,1.06,0,0,0-.66,0,2.27,2.27,0,0,0-.25.18l.1.12c-.08,0-.16,0-.19,0s-.06.22,0,.37,0,.17.06.24H17.1c0,.07.15,0,.12.07s-.09,0-.14,0,.16,0,.16.11-.14-.11-.14,0,0,0,.07,0c-.14,0-.2.15-.07.26,0,0-.1,0-.15,0h0l.09,0H17l0,0,.06,0H17l.05.1c.06.06.12.16.15.16Z" transform="translate(0 0)"/><path class="cls-1" d="M20,100.45l.08-.07s-.07.07,0,.05l.05,0-.07.07s0,0,.06,0l0,0s0,0,0,0h0l.05,0h0a1.37,1.37,0,0,1,.46,0h.15s0,.06,0,.08c.23,0,.35,0,.58,0,0,0,0,.06.06,0a1,1,0,0,1,.54.07s-.05.09,0,.11.14,0,.2,0a1.37,1.37,0,0,0-.15-.8,4.78,4.78,0,0,1-.52-.69h0a.26.26,0,0,0-.24-.12l-.2.08,0,.11s0,0-.07,0-.15.15-.24.29-.11.13-.14.19l0,0s.05,0,0,.07,0,0,0,0,0,0-.05.12.05-.11,0,0,0,0,0,0a.32.32,0,0,0-.17.19s0,0,0,0h0v0h0l0,0v0h0l-.06.09-.09.15S20,100.42,20,100.45Z" transform="translate(0 0)"/><path class="cls-1" d="M45,58.5s0-.1.09-.06c.27.15.38.4.64.55l.06,0,.53.5c.37.26.75.51,1.13.75,0,0,0,0,0,0s.36.27.58.43l.1.06.06,0,.26.2c1.15.65,2.34,1.28,3.62,2,.28.13.57.25.83.39s.81.57,1.15.82c.08-.23,1,.26,1,0,.23.16.58.4.63.36s.47-.19,1.16.14c.26.14.59.46.7.49s-.24-.33-.07-.29C55.75,63.38,54,62.27,52.15,61a68.24,68.24,0,0,1-5.83-4L46.23,57a18.44,18.44,0,0,0-1.77-1.23l-.77-.36.21.31a2.49,2.49,0,0,0-.55-.39c-.53-.3-.34,0-.25.27s-.16.1,0,.32l-.36-.3c-.06,0,.48.33.31.33s-.32-.22-.46-.34c0,.11.49.43.41.48s-.34-.42-.43-.36.12.13.2.19c-.48-.34-.8-.46-.46,0a5,5,0,0,0-.48-.43h0l.27.25-.26-.22,0,.08a1,1,0,0,0,.18.17l-.17-.14.08.2a4.09,4.09,0,0,0,.41.55C43.23,57.08,44.13,57.81,45,58.5Z" transform="translate(0 0)"/><path class="cls-1" d="M52.22,52.05s0-.1.1,0c.19.24.18.52.35.76h.07l.26.67.65,1.18s0,0,.06,0a5.78,5.78,0,0,1,.31.65l.06.1.06,0,.13.3c.68,1.13,1.36,2.29,2,3.58a8.32,8.32,0,0,1,.47.8,13.57,13.57,0,0,1,.48,1.35c.2-.14.65.81.8.53.1.28.23.69.3.69s.49.14.84.84c.12.28.18.75.25.84s0-.42.12-.28a51.39,51.39,0,0,0-2.3-6.28c-.2-.34-.82-1.7-1.52-3.1S54.29,51.83,54,51.24l-.06-.11a12.94,12.94,0,0,0-1.2-1.88l-.6-.63.09.36a2.55,2.55,0,0,0-.39-.57c-.41-.47-.32-.11-.33.17s-.18,0-.1.31l-.24-.41c-.07,0,.34.48.18.42a5,5,0,0,0-.32-.48c0,.1.32.57.23.6s-.18-.52-.3-.49.08.16.13.25c-.34-.48-.6-.7-.41-.18-.1-.16-.2-.41-.32-.57h0l.17.31-.18-.28v.07a1,1,0,0,0,.11.23l-.12-.19a1.49,1.49,0,0,0,0,.21,4.77,4.77,0,0,0,.2.65C51.14,50.09,51.69,51.08,52.22,52.05Z" transform="translate(0 0)"/><path class="cls-1" d="M58.62,63.7l.09,0c.06,0-.05.11,0,.13l.06,0a.5.5,0,0,1-.05.13l.07.17h.06s0,.06,0,.1v0h0a.08.08,0,0,1,0,0,1,1,0,0,1,.08.81.51.51,0,0,1,0,.25c-.06.09-.2.13-.28.17.14.19-.06.42.08.61-.08,0-.2.07-.19.13a.53.53,0,0,1-.23.62c-.11,0-.31,0-.35,0s.17.13.11.19a2.74,2.74,0,0,0,2.25-1.37,3.8,3.8,0,0,0,.35-1.36,3.47,3.47,0,0,0-.31-1.47l0,0a1.26,1.26,0,0,0-.57-.63,2.21,2.21,0,0,0-.37-.08.55.55,0,0,1,0,.17c-.07-.07-.15-.13-.2-.12-.24,0-.19.13-.23.3s-.11.13-.09.23l-.1-.08s.14.06.05.13-.08,0-.12-.07.11.11.05.18,0-.16-.1-.08,0,0,0,.06-.23,0-.2.17c0,0-.05-.08-.09-.09h0s0,0,0,.05l0,0v0a.08.08,0,0,0,0,0l0,0,0,.1c0,.08,0,.19,0,.2A2.44,2.44,0,0,1,58.62,63.7Z" transform="translate(0 0)"/><path class="cls-1" d="M53.93,69.44s.12,0,0,.11c-.29.29-.62.41-.92.7l0,.07-.83.55-1.47,1.19s.05,0,0,.07c-.2.17-.5.37-.81.59l-.12.11a.09.09,0,0,0,0,.08l-.38.26c-1.4,1.21-2.84,2.47-4.3,3.93-.3.32-.57.67-.87,1l-1.46,1.37c.23.1-.74,1.21-.37,1.17-.29.28-.74.68-.72.75s0,.6-.78,1.39c-.33.3-.93.62-1,.74s.55-.21.38,0a23.32,23.32,0,0,0,3.57-3.13,39.91,39.91,0,0,1,3.32-3c.68-.77,6.44-5,7.87-6.26l.13-.11a16.6,16.6,0,0,0,2.21-2.24c.23-.33.47-.66.68-1-.16.12-.29.23-.42.31a5.47,5.47,0,0,0,.61-.76c.47-.74.07-.42-.26-.27s-.08-.17-.38.06l.44-.5c0-.06-.5.65-.47.44a4.32,4.32,0,0,0,.5-.63c-.11,0-.6.68-.64.6s.57-.49.51-.6-.17.18-.26.28c.48-.65.64-1.08.11-.56.16-.2.41-.46.56-.68h0l-.32.37.28-.36-.08,0a1.94,1.94,0,0,0-.23.26l.18-.24-.23.14c-.28.24-.55.46-.68.6A32.26,32.26,0,0,1,53.93,69.44Z" transform="translate(0 0)"/><path class="cls-1" d="M51.76,67.34s.12,0,0,.11c-.33.33-.7.49-1,.84l0,.07c-.28.23-.56.47-.84.73-.47.52-.9,1-1.31,1.58,0,0,.05,0,0,.07-.16.22-.42.51-.68.81l-.1.14a.09.09,0,0,0,0,.09l-.32.36-3.48,5c-.24.38-.48.77-.73,1.13-.39.52-.94,1.13-1.34,1.61.24.07-.64,1.34-.27,1.25a3.89,3.89,0,0,0-.64.87c.09.2.06.59-.55,1.53-.25.36-.74.83-.8,1s.46-.35.36-.12c2.09-2.48,4-5,6-7.49.31-.46,1.64-2.16,3.05-3.92a26.55,26.55,0,0,1,3.63-4l.13-.11a17.43,17.43,0,0,1,2.44-1.67c.32-.2.66-.39,1-.56l-.5,0c.38-.13.76-.22.9-.29.8-.26.33-.29,0-.38s0-.19-.35-.16a5.42,5.42,0,0,1,.7-.14c0-.08-.85.21-.69.06s.57-.14.86-.17c-.12-.1-1,.15-1,.07s.82-.07.85-.17a1.33,1.33,0,0,0-.42,0c.87-.2,1.39-.31.53-.35.3,0,.72,0,1,0h0a5.42,5.42,0,0,0-.57,0,4.61,4.61,0,0,1,.53,0l-.1,0a2.64,2.64,0,0,0-.4,0h.35a1.93,1.93,0,0,0-.31-.09,4.72,4.72,0,0,0-1.09,0A10.72,10.72,0,0,0,51.76,67.34Z" transform="translate(0 0)"/><path class="cls-1" d="M50.06,73.87s-.09,0-.05-.09.34-.19.47-.36l0-.06.43-.26.67-.68s0,0,0,0A3.26,3.26,0,0,1,51.9,72L52,72a.06.06,0,0,0,0-.06l.18-.14,1.82-2.25a5.67,5.67,0,0,1,.37-.54c.21-.22.53-.45.75-.65-.19-.14.27-.71,0-.78.15-.13.37-.33.34-.38s-.14-.44.16-.88c.14-.16.43-.32.45-.39s-.29.08-.25,0c-1.17,1-2.2,2-3.33,3.07-.32.43-2.89,2.84-3.59,3.42l-.06.06a7.62,7.62,0,0,0-1.05,1.09l-.31.53.26-.08a1.42,1.42,0,0,0-.33.34c-.25.36,0,.29.23.29s.09.16.27.09l-.25.22c0,.06.28-.3.28-.16a2.54,2.54,0,0,0-.29.28c.09,0,.36-.29.4-.21s-.35.17-.3.26.11-.06.16-.11c-.27.3-.37.53,0,.37a2.26,2.26,0,0,0-.35.28h0l.2-.15-.17.15h.06a.71.71,0,0,0,.14-.1l-.11.1h.16a2.19,2.19,0,0,0,.46-.18C48.84,74.92,49.46,74.4,50.06,73.87Z" transform="translate(0 0)"/><path class="cls-1" d="M55.35,69.52s-.07,0-.05-.09.25-.06.33-.16l0-.06.31-.11.45-.38a0,0,0,0,1,0,0,1.17,1.17,0,0,1,.26-.17l0,0a.43.43,0,0,0,0,0l.12-.07a9.38,9.38,0,0,0,1.2-1.55c.05-.15.1-.31.15-.44a5.28,5.28,0,0,0,.33-.62c-.22-.06-.24-.52-.49-.46,0-.1,0-.27,0-.27a1.46,1.46,0,0,1-.57-.17s0-.13,0-.12-.09.12-.15.13a1.25,1.25,0,0,1,0,.5,1.64,1.64,0,0,1-.49.72,13.52,13.52,0,0,1-2.34,1.85l0,0a2.72,2.72,0,0,0-.71.63l-.19.36a.6.6,0,0,1,.19,0c-.1.07-.2.13-.22.2-.15.23,0,.24.21.31s.08.15.21.14l-.17.12s.19-.18.2-.06-.13.11-.19.16.25-.14.29-.07-.26,0-.21.14.08,0,.11-.05c-.18.18-.24.34,0,.3a1.88,1.88,0,0,0-.24.14h0l.14-.07-.12.08,0,0,.11,0-.08,0,.12,0a1.48,1.48,0,0,0,.34,0C54.51,70.07,54.94,69.81,55.35,69.52Z" transform="translate(0 0)"/><path class="cls-1" d="M58.46,65.93s-.08,0-.09,0,.13-.12.11-.21l-.06,0,.14-.18c0-.13,0-.26,0-.39s-.05,0-.06,0,0-.12,0-.19v0l0,0,0-.09a7.53,7.53,0,0,0-.35-1.15,2.1,2.1,0,0,1-.14-.24,1.6,1.6,0,0,1,0-.38c-.23,0-.37-.23-.59-.15,0-.07,0-.18-.07-.18a.72.72,0,0,1-.57-.17c0-.07,0-.18,0-.2s-.13.11-.19.08c0,.49.12.95.09,1.45a3.21,3.21,0,0,1-.13,1.6v0a1,1,0,0,0-.05.5l.06.14.57.15s0,0,0,0v0h0l-.39-.08h0l.39.08h0v0a.07.07,0,0,1,0,0s0,0,0,0h0a.36.36,0,0,0,0,.11c0,.07-.08.16,0,.24A.33.33,0,0,1,57,66.4c0,.07.23.06.16.14s-.18,0-.25-.11c-.06.11.27.19.27.24s-.26-.2-.33-.14.08.09.13.11a1,1,0,0,1-.37-.24c-.06-.08-.14,0,0,.28a.82.82,0,0,1-.11-.77h0a.73.73,0,0,0-.05.48.73.73,0,0,1,0-.46.23.23,0,0,0-.07.07.69.69,0,0,0,0,.38.78.78,0,0,1,0-.34.6.6,0,0,0-.09.31,1,1,0,0,0,.41.79,1.05,1.05,0,0,0,.59.14A1.1,1.1,0,0,0,58,67l.07-.08.12-.24A4.65,4.65,0,0,0,58.46,65.93Z" transform="translate(0 0)"/><path class="cls-1" d="M59.76,64.83s-.08,0-.09,0,.14-.27.11-.44l-.06,0,.12-.38a4.41,4.41,0,0,0-.08-.72s0,0,0,0a1.9,1.9,0,0,1,0-.37l0-.06H59.6v-.17a7.85,7.85,0,0,0-1-1.78,3.13,3.13,0,0,1-.31-.33,5.15,5.15,0,0,1-.27-.59c-.19.13-.51-.23-.67,0-.06-.11-.15-.28-.21-.26a.65.65,0,0,1-.7-.13c-.09-.1-.12-.32-.18-.34s0,.22-.12.19c.43.88,1,1.63,1.28,2.46A3.92,3.92,0,0,1,57.85,63a3.49,3.49,0,0,1,0,1.42v0a5.63,5.63,0,0,0-.13.77l0,.17c0,.06,0,.06,0,.11h.13s-.07.08-.06.12a.3.3,0,0,0,.25.28c.1,0,.1.15.24.1a.74.74,0,0,1-.19.16c0,.07.21-.23.23-.11s-.14.17-.26.22c.11.07.34-.22.38-.15s-.31.13-.29.23.13-.05.17-.09a1.16,1.16,0,0,1-.43.29c-.12,0,0,.15.3.09a.82.82,0,0,1-.41,0,1,1,0,0,1-.45-.19h0a.81.81,0,0,0,.5.21.83.83,0,0,1-.49-.17l0,.09a.67.67,0,0,0,.4.14.79.79,0,0,1-.37-.1.87.87,0,0,0,.3.2,1.29,1.29,0,0,0,.94-.12,1.9,1.9,0,0,0,.53-.61,3.55,3.55,0,0,0,.21-.44A3.89,3.89,0,0,0,59.76,64.83Z" transform="translate(0 0)"/><path class="cls-1" d="M58.09,62s-.06,0-.09,0,0-.17,0-.23l-.06,0v-.22c-.07-.1-.13-.21-.21-.31s0,0,0,0a.38.38,0,0,1-.08-.17l0,0-.05,0,0-.09a10,10,0,0,0-.94-.7,1.56,1.56,0,0,1-.26-.11,2,2,0,0,1-.19-.31c-.18.15-.43,0-.58.2,0-.06-.1-.15-.15-.11a.72.72,0,0,1-.58.15c-.06,0-.07-.17-.11-.16s0,.16-.12.17c.27.42.63.76.91,1.19a3.91,3.91,0,0,1,.88,1.39v0a1,1,0,0,0,.28.43l.24.12.08-.12c0,.07,0,.13.09.14s.22,0,.35-.11.17,0,.21-.14l0,.12c.07,0-.08-.13,0-.13s0,.09.06.13,0-.17.06-.19-.06.17,0,.14,0,0,0-.07c.08.13.2.17.27,0,0,.05,0,.13,0,.17h0V63.2l0,.08,0,0a.09.09,0,0,0,0-.07l0,.06.08-.08c0-.09.12-.19.1-.23A3.64,3.64,0,0,0,58.09,62Z" transform="translate(0 0)"/><path class="cls-1" d="M56.29,62.16s0,.08-.09.05-.12-.28-.26-.38l0,0a3,3,0,0,1-.19-.36L55.17,61s0,0-.05,0a2.82,2.82,0,0,1-.25-.3l0-.05-.06,0-.11-.15c-.57-.46-1.17-.91-1.81-1.41a3.29,3.29,0,0,1-.44-.28,5.68,5.68,0,0,1-.5-.6c-.15.18-.61-.18-.71.06-.1-.12-.25-.3-.31-.27A.67.67,0,0,1,50.1,58c-.13-.1-.23-.35-.3-.36s0,.25-.07.22c.75.95,1.58,1.77,2.38,2.69a32.39,32.39,0,0,1,2.67,2.88l0,0a4.53,4.53,0,0,0,.86.84l.44.22a2.07,2.07,0,0,1,0-.22c.1.12.19.24.27.26.29.18.25,0,.29-.23s.15-.09.1-.25l.17.2c.06,0-.24-.22-.11-.23a1.58,1.58,0,0,0,.22.23c0-.09-.21-.3-.14-.34s.11.3.2.24S57,64.06,57,64c.24.22.43.28.33,0a1.42,1.42,0,0,0,.21.29h0a1.63,1.63,0,0,1-.11-.17l.11.15s0,0,0-.06l-.08-.12.08.09a.61.61,0,0,0,0-.14,1.45,1.45,0,0,0-.11-.39C57.1,63.14,56.7,62.64,56.29,62.16Z" transform="translate(0 0)"/><path class="cls-1" d="M54.52,60.67s0,.1-.09.07-.26-.32-.47-.43l-.05,0-.37-.4-.84-.58s0,0-.05,0a4.86,4.86,0,0,1-.41-.34L52.16,59l0,0-.19-.17c-.85-.51-1.73-1-2.67-1.62a5.07,5.07,0,0,1-.61-.34,9.12,9.12,0,0,1-.8-.72c-.12.21-.78-.23-.82,0-.16-.15-.4-.37-.45-.33s-.45.17-1-.13c-.19-.13-.39-.43-.48-.45s.13.3,0,.26c1.2,1.19,2.48,2.19,3.78,3.27.49.31,3.57,2.69,4.35,3.31l.08.05a7.93,7.93,0,0,0,1.4.91l.62.22-.15-.25a1.77,1.77,0,0,0,.44.28c.43.18.29-.06.23-.29s.14-.12,0-.29l.29.21c.05,0-.39-.22-.24-.25s.25.15.36.24c0-.1-.39-.31-.32-.37s.26.33.35.25-.1-.1-.16-.14c.38.23.64.28.38,0a2.85,2.85,0,0,0,.38.31h0l-.21-.18.21.15V62.9a.93.93,0,0,0-.15-.13l.14.1-.06-.17a3.67,3.67,0,0,0-.3-.43Z" transform="translate(0 0)"/><path class="cls-1" d="M43.59,57.65s0-.09.08-.06.24.28.42.37l0-.05.35.35c.26.16.51.32.78.46,0,0,0,0,0,0a4.05,4.05,0,0,1,.39.27l.08,0a.09.09,0,0,0,.05,0l.18.13c.81.35,1.66.66,2.58,1a4.81,4.81,0,0,1,.6.14c.27.11.58.31.83.43.06-.22.73,0,.7-.31.16.08.42.2.45.14s.34-.31.83-.23c.19,0,.42.23.5.22s-.18-.22-.06-.24c-1.26-.58-2.51-1.08-3.75-1.75a13.31,13.31,0,0,1-1.9-1,19.35,19.35,0,0,1-2-1.33l-.07,0a7,7,0,0,0-1.17-.75L43,55.15l.11.23a1.3,1.3,0,0,0-.36-.25c-.37-.17-.27.06-.25.28s-.14.11-.05.28l-.24-.21c-.05.05.32.22.19.25a2.17,2.17,0,0,0-.3-.23c0,.09.31.3.24.35s-.2-.31-.28-.24.07.09.12.13c-.32-.21-.55-.27-.35,0a2.94,2.94,0,0,0-.31-.3h0l.17.17-.17-.14v.06a.63.63,0,0,0,.11.12l-.11-.09,0,.16a2.29,2.29,0,0,0,.23.41A20.72,20.72,0,0,0,43.59,57.65Z" transform="translate(0 0)"/><path class="cls-1" d="M42.29,56.37s0-.08.06-.08.1.17.2.18l0,0,.14.2.39.18s0,0,0,0a.59.59,0,0,1,.19.12h0l0,0,.08.07,1.34.3a1.16,1.16,0,0,1,.33,0,1.85,1.85,0,0,1,.37.25c.11-.21.46-.13.52-.36.08,0,.19.13.23.07a.68.68,0,0,1,.58-.28c.1,0,.18.17.23.16s0-.18,0-.21c-.57-.42-1.21-.7-1.82-1.07a11.43,11.43,0,0,1-2-1.1l0,0a1.55,1.55,0,0,0-.65-.28l-.32,0a1.24,1.24,0,0,1,0,.16c-.07-.05-.15-.1-.2-.08-.22,0-.18.14-.19.32s-.1.14-.06.24L41.75,55s.18.06.09.14-.11-.05-.16-.09.16.14.11.21-.09-.19-.15-.1,0,.05.06.07c-.17-.07-.31,0-.22.16,0,0-.1-.12-.16-.13h0l.08.08-.09-.06v0a.15.15,0,0,0,0,.06l0,0a.48.48,0,0,0,0,.12c0,.11,0,.24.09.26A9.19,9.19,0,0,0,42.29,56.37Z" transform="translate(0 0)"/><path class="cls-1" d="M44,56.18s0-.08.08-.06.15.26.29.34l0-.05.21.32c.19.15.37.3.56.43,0,0,0,0,0,0a1.94,1.94,0,0,1,.27.25l.06,0a.09.09,0,0,0,0,0l.12.12c.6.34,1.23.66,1.91,1a3.12,3.12,0,0,1,.46.17,6.26,6.26,0,0,1,.57.45c.11-.2.6,0,.65-.23.12.09.29.22.34.17a.66.66,0,0,1,.73-.14c.14.06.28.26.35.25s-.08-.22,0-.22c-.86-.68-1.76-1.23-2.62-1.92a17.29,17.29,0,0,1-2.78-2.22l0,0a4.09,4.09,0,0,0-.86-.67l-.43-.16a1.6,1.6,0,0,1,.05.21c-.1-.11-.2-.21-.26-.22-.29-.14-.25.06-.27.26s-.15.1-.1.24l-.17-.17s.24.18.12.21-.15-.12-.22-.19.21.25.14.31-.11-.28-.2-.22,0,.09.08.12c-.23-.18-.42-.23-.31.05a2.52,2.52,0,0,0-.21-.25h0l.11.15-.12-.13v.05a.41.41,0,0,0,.07.11l-.07-.08a.66.66,0,0,0,0,.14,1.47,1.47,0,0,0,.12.36A15.2,15.2,0,0,0,44,56.18Z" transform="translate(0 0)"/><path class="cls-1" d="M45.87,55.31s0-.08.08-.05.15.28.3.38l.06,0,.22.36c.2.17.4.34.6.49,0,0,0,0,0,0a2.63,2.63,0,0,1,.29.29l.06,0s0,0,.06,0l.13.14c.65.4,1.33.76,2.07,1.13a3.25,3.25,0,0,1,.5.19,6.28,6.28,0,0,1,.64.48c.1-.21.65,0,.68-.24.12.09.32.22.36.18a.7.7,0,0,1,.77-.16c.15.06.32.26.39.26s-.11-.23,0-.24c-1-.66-2-1.24-2.89-2A15.22,15.22,0,0,1,47.31,54l0,0a5,5,0,0,0-.88-.79L46,53a2.25,2.25,0,0,1,0,.22c-.1-.12-.2-.24-.27-.26-.29-.18-.26,0-.29.23s-.16.09-.11.25l-.17-.21c-.06,0,.24.23.11.24a1.58,1.58,0,0,0-.22-.23c0,.08.21.3.14.34s-.1-.3-.2-.25,0,.1.08.14c-.24-.23-.44-.3-.33,0-.07-.08-.13-.22-.21-.3h0l.11.17-.12-.15v.05a.54.54,0,0,0,.07.13l-.08-.1s0,.1,0,.15a2.35,2.35,0,0,0,.11.4A15.26,15.26,0,0,0,45.87,55.31Z" transform="translate(0 0)"/><path class="cls-1" d="M48.46,54.8s0-.09.09,0,.21.38.4.54l.06,0,.31.49c.24.26.49.52.75.76,0,0,0,0,.06,0s.23.27.38.43l.07.06a.06.06,0,0,0,.06,0l.17.2c.81.67,1.66,1.32,2.58,2a7.32,7.32,0,0,1,.62.39c.27.22.56.55.8.79.12-.21.8.26.84,0,.15.15.4.38.46.35s.44-.17,1,.13c.19.13.4.42.49.45s-.13-.3,0-.27c-1.24-1.16-2.49-2.21-3.71-3.42a35.92,35.92,0,0,1-3.85-4l-.06-.06a9.88,9.88,0,0,0-1.16-1.23l-.56-.39.09.28a1.77,1.77,0,0,0-.36-.39c-.37-.3-.29,0-.3.22s-.17.07-.09.28l-.23-.3c-.06,0,.32.34.17.32a4.38,4.38,0,0,0-.29-.34c0,.09.29.42.21.46s-.17-.4-.27-.36.07.13.11.19c-.31-.34-.55-.47-.38-.07a3.93,3.93,0,0,0-.29-.42h0l.15.24-.16-.21v.07l.1.17-.1-.14a1.21,1.21,0,0,0,0,.18,2.53,2.53,0,0,0,.19.51C47.31,53.38,47.87,54.11,48.46,54.8Z" transform="translate(0 0)"/><path class="cls-1" d="M50.32,53.13s0-.09.1,0,.17.42.34.6l.06,0,.25.53.65.89s0,0,.06,0a3.24,3.24,0,0,1,.31.49l.06.07a.06.06,0,0,0,.07,0l.13.24c.69.82,1.4,1.66,2.14,2.59A6.64,6.64,0,0,1,55,59c.2.29.4.71.57,1,.17-.16.69.52.81.26.12.2.28.51.35.49s.48,0,.89.48c.14.2.25.57.33.62s0-.34.09-.25C57.22,60,56.26,58.55,55.3,57c-.39-.48-2.72-4-3.32-4.87l0-.08a10.37,10.37,0,0,0-1.12-1.41l-.55-.45.08.3a2,2,0,0,0-.35-.43c-.38-.34-.3,0-.32.2s-.17.06-.1.28l-.22-.32c-.06,0,.31.37.16.34a4.68,4.68,0,0,0-.29-.37c0,.1.29.45.21.48s-.16-.42-.27-.38.07.14.11.2c-.31-.36-.55-.51-.38-.09-.09-.12-.18-.32-.29-.44h0l.15.25L48.6,50V50a1,1,0,0,0,.1.18l-.1-.14a.56.56,0,0,0,0,.18,2.76,2.76,0,0,0,.17.53Z" transform="translate(0 0)"/><path class="cls-1" d="M51.24,51.35s0-.08.09,0,.1.35.24.49l.06,0,.16.44.48.72s0,0,0,0a2.39,2.39,0,0,1,.22.4l0,.06h.06l.09.19c.51.68,1,1.39,1.55,2.18a3.87,3.87,0,0,1,.37.48,5.75,5.75,0,0,1,.33.87c.2-.13.55.46.72.25.07.18.16.45.22.44s.47,0,.74.47c.09.18.11.49.17.55s.05-.29.15-.21a27.53,27.53,0,0,0-1.65-4.07c-.15-.21-.61-1.08-1.12-2l-1.29-2.18,0-.07A6,6,0,0,0,52,49.16l-.48-.35c0,.09,0,.18.05.26-.11-.16-.21-.32-.29-.35-.32-.26-.28,0-.31.2s-.16.07-.12.26l-.18-.26c-.06,0,.26.29.12.28a2.09,2.09,0,0,0-.23-.29c0,.08.22.36.14.4s-.11-.35-.21-.31.05.11.09.16c-.26-.28-.46-.38-.35,0-.07-.1-.14-.26-.22-.35h0l.12.2L50,48.8l0,.05a1.09,1.09,0,0,0,.08.15L50,48.88A.86.86,0,0,0,50,49a1.84,1.84,0,0,0,.11.44Z" transform="translate(0 0)"/><path class="cls-1" d="M50.07,51.78s0-.07.09-.05.05.24.15.33l.06,0,.08.3.35.45s0,0,.05,0A1,1,0,0,1,51,53l0,0,.06,0,.06.13c.39.4.81.81,1.23,1.28a2.17,2.17,0,0,1,.32.27,2.73,2.73,0,0,1,.25.55c.2-.13.5.22.67,0,.05.12.12.28.18.26a.66.66,0,0,1,.69.18c.08.11.08.32.14.35s0-.21.14-.17a17.7,17.7,0,0,0-1.32-2.56c-.23-.26-1.44-2.13-1.74-2.62l0,0a2.66,2.66,0,0,0-.63-.73c-.11-.07-.24-.13-.36-.19V50c-.07-.1-.14-.2-.2-.22-.24-.15-.24,0-.31.21s-.15.09-.14.22L49.92,50c-.06,0,.18.18.06.2s-.11-.12-.16-.19.14.24.06.29,0-.26-.13-.2,0,.07,0,.11c-.18-.18-.34-.23-.3,0,0-.06-.08-.18-.14-.23h0s0,.1.07.14L49.35,50l0,0a.42.42,0,0,0,0,.1l0-.08a.28.28,0,0,0,0,.13,1.33,1.33,0,0,0,0,.32C49.56,51,49.81,51.38,50.07,51.78Z" transform="translate(0 0)"/><path class="cls-1" d="M49.14,53.67s0-.09.1-.05.22.4.41.56l.06,0,.32.5.76.81s0-.05.06,0a4.85,4.85,0,0,1,.38.44l.07.07a.06.06,0,0,0,.06,0l.17.21,2.54,2.25a7.47,7.47,0,0,1,.61.46c.25.25.52.62.75.89.13-.19.78.37.85.09.15.18.37.45.43.42s.47-.1,1,.28c.18.17.36.5.45.54s-.1-.33,0-.27c-1.13-1.4-2.34-2.64-3.54-4-.48-.39-3.27-3.49-3.94-4.32l-.07-.07a9,9,0,0,0-1.25-1.28l-.55-.37.08.28a1.83,1.83,0,0,0-.34-.39c-.31-.31-.29,0-.31.19s-.18.06-.11.28a3.87,3.87,0,0,1-.21-.34c-.07,0,.3.4.15.36s-.2-.26-.28-.41c-.06.11.28.5.2.53s-.17-.45-.27-.43.06.16.11.23c-.31-.42-.52-.7-.4-.17a5.31,5.31,0,0,1-.22-.6h0a2,2,0,0,0,.1.35,3,3,0,0,1-.12-.32l0,.07a1,1,0,0,0,.07.25l-.08-.21a.75.75,0,0,0,0,.22,2.08,2.08,0,0,0,.17.69,9.75,9.75,0,0,0,.92,1.24Z" transform="translate(0 0)"/><path class="cls-1" d="M48.63,55.39s0-.09.1,0,.2.38.39.53l.06,0c.1.15.19.32.3.48s.48.51.73.76c0,0,0,0,0,0a3.34,3.34,0,0,1,.36.42l.07.06a.06.06,0,0,0,.06,0l.16.2,2.44,2.11a4.15,4.15,0,0,1,.58.43c.24.23.5.59.71.84.14-.19.76.34.83.06.14.17.36.43.42.4s.46-.12.94.24c.17.16.34.48.43.51s-.1-.31,0-.26c-1.08-1.33-2.23-2.5-3.37-3.79-.46-.37-3.12-3.29-3.76-4.08l-.06-.07a9.66,9.66,0,0,0-1.19-1.2c-.18-.13-.38-.25-.57-.37,0,.1.07.2.1.28a2.07,2.07,0,0,0-.38-.37c-.38-.29-.29,0-.29.23s-.16.08-.08.28l-.23-.28c-.06,0,.32.32.17.31s-.21-.21-.3-.33c0,.1.31.41.23.45s-.18-.39-.29-.34.08.12.13.18c-.33-.32-.57-.44-.39-.05a3.68,3.68,0,0,0-.3-.39h0l.16.22-.17-.19v.06a.91.91,0,0,0,.11.16l-.11-.13a1.1,1.1,0,0,0,0,.18,2.88,2.88,0,0,0,.21.5C47.48,54,48.05,54.71,48.63,55.39Z" transform="translate(0 0)"/><path class="cls-1" d="M47,56s0-.08.08-.06.1.24.22.31l.05,0,.15.29.44.41s0,0,.05,0a1.93,1.93,0,0,1,.2.24l0,0,.05,0a.94.94,0,0,1,.09.12c.48.34,1,.69,1.5,1.09a1.65,1.65,0,0,1,.37.22,3.07,3.07,0,0,1,.38.51c.16-.17.54.13.67-.09.07.11.18.27.24.23a.63.63,0,0,1,.71.06c.11.09.16.3.22.32s0-.22.11-.2A21.07,21.07,0,0,0,50.73,57c-.28-.21-1.87-1.91-2.26-2.35l0,0a3.05,3.05,0,0,0-.77-.64l-.4-.13a1.25,1.25,0,0,1,0,.19c-.08-.09-.17-.19-.24-.19-.27-.12-.23.07-.26.26s-.14.1-.11.24l-.15-.16c-.05,0,.22.16.1.2s-.14-.11-.19-.17.18.22.11.28-.09-.25-.17-.19,0,.08.07.11c-.21-.16-.39-.18-.3.07a1.24,1.24,0,0,0-.18-.22h0a1,1,0,0,1,.09.13l-.1-.11v.05l.06.1-.07-.07v.13a1.31,1.31,0,0,0,.08.33C46.35,55.21,46.69,55.59,47,56Z" transform="translate(0 0)"/><path class="cls-1" d="M45.73,53.59s.05-.06.08-.05,0,.19.11.24l.06,0L46,54a2.76,2.76,0,0,0,.3.29s0,0,0,0,.08.11.13.17l0,0,.05,0,0,.09c.36.23.74.43,1.15.65a1.1,1.1,0,0,1,.29.1,1.43,1.43,0,0,1,.28.32c.15-.18.45,0,.57-.25.06.06.14.16.19.11a.68.68,0,0,1,.59-.18c.08,0,.12.19.17.18s0-.18.09-.19c-.41-.47-.89-.84-1.31-1.3a6.65,6.65,0,0,1-1.37-1.49l0,0a1.26,1.26,0,0,0-.45-.44l-.28-.09,0,.14c0-.07-.09-.14-.14-.14s-.22.06-.31.21-.15.08-.16.18l-.08-.12s.13.13,0,.16-.08-.09-.11-.14.09.18,0,.22,0-.19-.09-.14,0,.06,0,.08c-.13-.12-.27-.15-.28,0,0,0,0-.14-.08-.18h0a.36.36,0,0,0,0,.11l-.06-.09,0,0a.19.19,0,0,0,0,.08l0-.06,0,.11c0,.1-.05.22,0,.26A6.58,6.58,0,0,0,45.73,53.59Z" transform="translate(0 0)"/><path class="cls-1" d="M46.18,54.73s-.06,0,0-.09.26,0,.36-.15l0-.06.32-.1.49-.37s0,0,0-.06a2.62,2.62,0,0,1,.27-.17l0,0a.08.08,0,0,0,0,0l.13-.07c.41-.45.81-.92,1.22-1.44a3.28,3.28,0,0,1,.22-.37,6,6,0,0,1,.5-.38c-.16-.15.11-.54-.11-.65.1-.08.24-.2.2-.25a.66.66,0,0,1,0-.7c.08-.11.28-.18.28-.24s-.21,0-.2-.08c-.74.57-1.37,1.21-2.12,1.78a11.82,11.82,0,0,1-2.43,1.81l0,0a2.88,2.88,0,0,0-.75.56l-.22.33.19,0c-.11,0-.22.11-.24.17-.18.21,0,.24.17.33s.06.16.19.17l-.18.09c0,.06.21-.15.21,0s-.14.1-.22.13.27-.11.3,0-.26,0-.22.12.08,0,.12,0c-.21.16-.29.32,0,.31a1.25,1.25,0,0,0-.27.1h0l.15,0-.13.07,0,0,.12,0-.09.05.12,0c.14,0,.28,0,.34,0A11.35,11.35,0,0,0,46.18,54.73Z" transform="translate(0 0)"/><path class="cls-1" d="M45.48,55.73s.06-.07.09,0,0,.2.13.25l0,0,.08.24a3.11,3.11,0,0,0,.32.31s0,0,.05,0a1,1,0,0,1,.14.19l0,0,0,0,.06.09c.38.24.79.46,1.22.68a2,2,0,0,1,.32.1,3.39,3.39,0,0,1,.31.34c.14-.18.46,0,.57-.26.06.07.16.16.21.12a.64.64,0,0,1,.59-.19c.09,0,.14.19.19.18s0-.18.08-.2c-.46-.48-1-.86-1.44-1.34A6.8,6.8,0,0,1,47,54.57l0,0a1.51,1.51,0,0,0-.47-.47l-.3-.1,0,.16c-.05-.08-.1-.15-.15-.15s-.22.05-.31.2-.15.09-.16.2l-.08-.13c-.06,0,.14.13,0,.16s-.08-.09-.11-.14.09.19,0,.23,0-.21-.1-.16,0,.07,0,.09c-.14-.13-.28-.16-.28,0,0,0,0-.14-.09-.19h0l0,.11L45,54.31l0,0a.29.29,0,0,0,0,.09l0-.07-.05.11c0,.11,0,.24,0,.28A6.83,6.83,0,0,0,45.48,55.73Z" transform="translate(0 0)"/><path class="cls-1" d="M42.73,86.74s.06-.08.1,0a1.28,1.28,0,0,1,.07.47,1.16,1.16,0,0,1,0,.19s0,0,0,0H43a.06.06,0,0,1-.09,0,1,1,0,0,1,0,.16l.06.15c0,.08,0,0,0,.06v0h0L43,88a.23.23,0,0,1,0-.1c0,.09-.14.07-.33-.11a1.38,1.38,0,0,1-.15-.17l-.32-.52q-.33-.54-.63-1.11A8.47,8.47,0,0,1,41,85a8,8,0,0,1-.46-1.61c-.11.06-.25-.2-.3-.47s0-.58-.17-.49c.15-.41.62-.77.59-.84s.12-.62.8-1.16c.28-.2.6-.39.6-.48s-.29.12-.25,0c-.29.28-.87.52-1.57,1a2.65,2.65,0,0,0-1,2.77,8.86,8.86,0,0,0,.32,1.08c.11.33.23.65.36,1q.38,1,.84,1.92l.31.53.39.69c.16.26.33.56.51.84.76,1.2,1.61,2.26,2.56,3.56.05-.27.09-.71.14-1.05l.13-1,.11-1,.06-1,0-1-.09-.92c0-.14,0-.3-.05-.39l0-.22-.06-.37,0-.15a9,9,0,0,0-1-2.66,9.71,9.71,0,0,0-.67-.88,3.14,3.14,0,0,1,.12.46,3.1,3.1,0,0,0-.46-.74c-.5-.59-.35-.16-.33.17s-.18,0-.08.34a4.94,4.94,0,0,0-.3-.49c-.06,0,.41.58.23.5a4.45,4.45,0,0,0-.38-.58c0,.11.4.68.3.7s-.24-.6-.36-.58.1.2.17.29c-.42-.56-.73-.79-.46-.22A5.65,5.65,0,0,0,41,82h0l.23.35L41,82.08v.08a1.65,1.65,0,0,0,.15.25L41,82.2c0,.08,0,.15,0,.24.13.27.19.58.28.71A12.21,12.21,0,0,1,42.73,86.74Z" transform="translate(0 0)"/><path class="cls-1" d="M40.66,84.81s.06-.06.09,0,0,.23.09.32l.06,0,0,.3.26.47s0,0,.05,0a.85.85,0,0,1,.1.27l0,0h.05a.79.79,0,0,1,0,.13c.31.44.63.89.95,1.41a2.21,2.21,0,0,1,.25.3,3.9,3.9,0,0,1,.13.57c.22-.09.43.3.64.16,0,.11,0,.29.12.28a.61.61,0,0,1,.62.31c.06.12,0,.32.06.36s.1-.19.18-.14a14.87,14.87,0,0,0-.73-2.69c-.18-.29-1-2.29-1.23-2.8l0,0a2.43,2.43,0,0,0-.5-.79c-.1-.08-.22-.15-.33-.23a1.08,1.08,0,0,1,0,.19c0-.11-.1-.22-.16-.24-.21-.17-.24,0-.33.17s-.16.06-.17.19l-.09-.17c-.06,0,.14.19,0,.2s-.09-.13-.12-.2.1.25,0,.28,0-.25-.11-.21,0,.08,0,.11c-.15-.19-.3-.25-.3,0a1,1,0,0,0-.1-.24h0s0,.1,0,.13l-.06-.11,0,0a.19.19,0,0,0,0,.1l0-.08a.61.61,0,0,0-.05.12c0,.12-.06.26,0,.31C40.29,84,40.47,84.4,40.66,84.81Z" transform="translate(0 0)"/><path class="cls-1" d="M42.64,84.93s-.06.06-.1,0,0-.21-.09-.28l-.06,0a2.11,2.11,0,0,1,0-.25c-.07-.13-.13-.26-.18-.38a.07.07,0,0,1-.06,0,.62.62,0,0,1,0-.2v0H42s0-.06,0-.09a1.6,1.6,0,0,1,.06-1.33,1.67,1.67,0,0,1,.1-.4,4.45,4.45,0,0,1,.38-.48c-.2-.11,0-.54-.27-.6.08-.1.19-.24.14-.29a.64.64,0,0,1-.17-.68c.06-.11.24-.22.23-.28s-.21,0-.22,0c-.3.35-.57.73-.84,1.11s-.51.72-.83,1.25a4,4,0,0,0-.35,2,5.35,5.35,0,0,0,.67,1.9l0,0a2.41,2.41,0,0,0,.68.79c.12.07.25.12.38.18a1.41,1.41,0,0,1,0-.2c.08.1.15.2.22.21.25.14.23,0,.29-.23s.14-.1.12-.23l.13.16c.05,0-.19-.17-.07-.2s.12.12.17.18-.16-.23-.09-.28.06.25.15.19,0-.08-.05-.11c.18.16.35.19.29-.05a1.7,1.7,0,0,0,.15.22h0l-.07-.13.08.1,0,0a.31.31,0,0,0,0-.1l.06.07a.5.5,0,0,0,0-.12c0-.13,0-.28,0-.32C43.09,85.65,42.84,85.28,42.64,84.93Z" transform="translate(0 0)"/><path class="cls-1" d="M47.11,42.9s.07.14-.13,0A9.66,9.66,0,0,0,45.24,42l-.07.05a8.07,8.07,0,0,0-1.64-.52,6,6,0,0,0-3.36.45s.06,0,0,.08a5.3,5.3,0,0,0-1.51,1.06,1.92,1.92,0,0,0-.19.23c0,.07,0,.1,0,.12a6.39,6.39,0,0,0-.5.66,6.85,6.85,0,0,0-.68,4.65,8.76,8.76,0,0,0,2.29,4.13c.49.47,1,.9,1.5,1.3a29.43,29.43,0,0,0,2.43,1.85c0-.25,1.93.84,1.69.4a9,9,0,0,0,1.34.79c.22-.08.75,0,2.16.84.54.36,1.26,1.09,1.45,1.22s-.55-.68-.23-.48a46.7,46.7,0,0,0-5.79-4,13.17,13.17,0,0,1-4.53-4.46,5.3,5.3,0,0,1-.74-2.13,5.05,5.05,0,0,1,.91-3.57,3.53,3.53,0,0,1,3.38-1.27,7.05,7.05,0,0,1,2.74,1l.2.12a14.1,14.1,0,0,1,3.15,2.88c.38.41.75.86,1.11,1.32L50,48c.32.49.62,1,.77,1.18.71,1,.46.37.35-.13s.22,0,0-.5l.5.88c.09,0-.65-1.06-.42-.87.18.34.43.7.62,1.06,0-.17-.66-1.24-.56-1.23.13.18.47,1.05.6,1.06a3.66,3.66,0,0,0-.27-.53c.65,1.08,1,1.64.62.58.19.35.41.86.61,1.23h0l-.33-.68.33.63,0-.13a5.4,5.4,0,0,0-.23-.49l.22.42c0-.12-.06-.26-.1-.41a13.12,13.12,0,0,0-.53-1.32A15.23,15.23,0,0,0,47.11,42.9Z" transform="translate(0 0)"/><path class="cls-1" d="M43.18,55s0,.08-.08.06-.18-.26-.33-.35l-.05,0c-.08-.11-.16-.23-.23-.35s-.38-.36-.56-.54c0,0,0,0,0,0a1.66,1.66,0,0,1-.25-.34l-.05-.05h-.06l-.1-.16a11.89,11.89,0,0,1-1.54-2,2.68,2.68,0,0,1-.35-.48,6.59,6.59,0,0,1-.27-.86c-.21.11-.52-.5-.7-.31-.05-.17-.12-.44-.19-.44s-.45-.06-.7-.51c-.08-.18-.07-.49-.13-.55s-.07.28-.15.19a19.64,19.64,0,0,0,1.41,4.16c.16.22.61,1.12,1.27,2a11.73,11.73,0,0,0,1.84,2l.07,0a4,4,0,0,0,1.39.76c.21,0,.41.06.63.07a1.17,1.17,0,0,1-.19-.2,1.05,1.05,0,0,0,.45.14c.43,0,.23-.15.14-.34s.09-.15,0-.28l.28.11c0-.06-.36-.09-.25-.16a2,2,0,0,0,.35.1c0-.1-.38-.16-.33-.24s.27.22.33.12-.1,0-.16-.07c.35.08.56,0,.29-.18a3.62,3.62,0,0,0,.35.13h0L45,56.42l.18,0,0,0a.31.31,0,0,0-.13-.06l.12,0-.08-.12c-.13-.1-.23-.25-.3-.27A7.44,7.44,0,0,1,43.18,55Z" transform="translate(0 0)"/><path class="cls-1" d="M44.89,53.68s0,.09-.09,0-.23-.38-.42-.52l-.06,0L44,52.75,43.27,52s0,0-.05,0a5.12,5.12,0,0,1-.35-.45l-.06-.07a.06.06,0,0,0-.06,0l-.15-.21a16.84,16.84,0,0,1-2-2.52,4,4,0,0,1-.43-.61,6.12,6.12,0,0,1-.36-1.07c-.21.12-.54-.67-.72-.45-.06-.23-.12-.58-.19-.59s-.47-.15-.66-.81c-.06-.25,0-.66,0-.75s-.12.34-.19.2a12,12,0,0,0,1.67,5.5c.19.26.86,1.34,1.68,2.36s1.73,2,2.09,2.4l.07.07a8.72,8.72,0,0,0,1.35,1.21l.63.34a2.43,2.43,0,0,1-.14-.28,2.1,2.1,0,0,0,.43.36c.43.27.3,0,.27-.25s.16-.1,0-.29l.27.27c.06,0-.37-.31-.21-.31a3.59,3.59,0,0,0,.35.32c0-.11-.37-.4-.29-.44s.23.38.33.32-.09-.12-.15-.17c.37.3.63.4.4,0a3.24,3.24,0,0,0,.36.38h0l-.2-.22.2.19V56.4a1,1,0,0,0-.13-.16l.13.12s0-.11,0-.18a3.81,3.81,0,0,0-.27-.49Z" transform="translate(0 0)"/><path class="cls-1" d="M38.07,46.6s.09,0,.09,0S38,47,38,47.22l.06,0c0,.16-.09.32-.13.49a6.19,6.19,0,0,0,.06,1s0,0,.05,0a3.37,3.37,0,0,1,0,.5l0,.08s0,0,0,0l0,.23A7.77,7.77,0,0,0,39.57,52c.16.14.32.27.45.41s.37.52.55.73c.15-.17.68.21.75-.06.12.13.31.3.36.26a.77.77,0,0,1,.8-.06c.14.07.31.26.37.26s-.1-.22,0-.23a7,7,0,0,1-2.29-2.54,4.3,4.3,0,0,1-.63-1.67,5.29,5.29,0,0,1,0-2V47c.08-.38.19-.83.23-1.16l0-.5-.19.13a.93.93,0,0,0,.13-.36c.08-.36-.11-.24-.32-.19s-.14-.11-.27,0a2.15,2.15,0,0,1,.14-.26c-.05,0-.14.34-.2.22s.1-.23.16-.33c-.1,0-.22.35-.29.3s.26-.25.18-.32-.08.09-.11.14c.14-.35.18-.58-.11-.34a3.12,3.12,0,0,0,.25-.35h0l-.15.19.12-.19H39.5a.76.76,0,0,0-.11.14l.08-.13-.15.06a1.46,1.46,0,0,0-.38.31A7.26,7.26,0,0,0,38.07,46.6Z" transform="translate(0 0)"/><path class="cls-1" d="M39.72,48.7s.05-.08.09,0,.11.34.25.48l.06,0,.18.43c.17.24.36.47.54.69,0,0,0,0,.06,0a3.72,3.72,0,0,1,.26.37l.06,0a0,0,0,0,0,.05,0l.12.18a25.24,25.24,0,0,0,2,1.69,4.14,4.14,0,0,1,.5.3c.21.18.43.46.62.64.13-.19.68.16.74-.1.12.12.31.31.37.26a.74.74,0,0,1,.83,0c.15.09.31.33.38.34s-.09-.25,0-.24C45.92,52.82,45,52,44.06,51a11.28,11.28,0,0,1-1.36-1.46,15.55,15.55,0,0,1-1.3-1.85l0-.06a6,6,0,0,0-.72-1l-.3-.27-.06.18c-.05-.13-.06-.24-.1-.27-.09-.2-.22-.14-.37,0s-.18,0-.23.15a1.14,1.14,0,0,1,0-.32c-.09,0,0,.4-.06.32a1.47,1.47,0,0,1,0-.42c-.13,0,0,.5-.12.48s.09-.42,0-.46,0,.16,0,.23a4.24,4.24,0,0,1,0-.52c0-.08-.1-.08-.22.16a1.42,1.42,0,0,1,.31-.53h0a.9.9,0,0,0-.21.27,1,1,0,0,1,.18-.27l-.08,0a1.56,1.56,0,0,0-.16.2c0-.06.08-.13.12-.18a.84.84,0,0,0-.19.12,1.18,1.18,0,0,0-.34.68,2.91,2.91,0,0,0,.41,1.5C39.34,48.06,39.52,48.38,39.72,48.7Z" transform="translate(0 0)"/><path class="cls-1" d="M40.93,48.18s0-.08.1,0,.11.32.24.44l.06,0,.18.41c.18.21.35.42.54.61a0,0,0,0,1,.05,0,2.93,2.93,0,0,1,.25.35l.06.05.05,0,.12.17c.59.53,1.23,1,1.92,1.56A3.22,3.22,0,0,1,45,52c.19.17.39.44.56.62.14-.19.65.16.73-.09.11.12.29.3.34.26a.71.71,0,0,1,.81,0c.14.09.28.33.35.34s-.07-.25,0-.23c-.87-.9-1.78-1.69-2.62-2.63a19.29,19.29,0,0,1-2.63-3.11l0-.06a6.48,6.48,0,0,0-.78-1l-.42-.3a2,2,0,0,1,0,.23c-.09-.14-.17-.28-.24-.31-.27-.24-.26,0-.32.18s-.17.07-.14.24l-.15-.24c-.06,0,.21.27.08.26s-.13-.18-.19-.28c-.05.08.18.35.1.38s-.07-.33-.17-.29,0,.1.06.15c-.21-.27-.4-.38-.33,0a3.59,3.59,0,0,0-.17-.34h0l.09.19-.1-.17,0,.06a1.47,1.47,0,0,0,.06.14l-.07-.12a.77.77,0,0,0,0,.15,1.47,1.47,0,0,0,.06.43A17.71,17.71,0,0,0,40.93,48.18Z" transform="translate(0 0)"/><path class="cls-1" d="M42.3,47.25s0-.08.09,0,.16.33.32.45l.06,0L43,48c.2.21.41.42.62.61a0,0,0,0,1,0,0A2.83,2.83,0,0,1,44,49L44,49l.06,0,.13.17c.67.54,1.37,1.06,2.13,1.63a3.68,3.68,0,0,1,.51.32,7.68,7.68,0,0,1,.61.67c.14-.19.69.21.76-.05.12.13.31.33.37.3s.42-.17.85.09c.15.11.3.37.37.39s-.07-.27,0-.24c-.93-1-1.94-1.94-2.9-3A36,36,0,0,1,43.81,46L43.76,46a6.09,6.09,0,0,0-1-1l-.49-.28c0,.09,0,.17.07.25a1.26,1.26,0,0,0-.31-.31c-.33-.23-.27,0-.29.23s-.16.08-.1.26l-.2-.24c-.05,0,.27.26.14.27a2.11,2.11,0,0,0-.25-.27c0,.09.25.34.17.38s-.13-.34-.23-.28.06.1.1.15c-.27-.26-.49-.35-.35,0a2.7,2.7,0,0,0-.25-.34h0l.13.19-.14-.16v.06l.09.14-.09-.11v.15a2,2,0,0,0,.15.44C41.35,46.11,41.82,46.7,42.3,47.25Z" transform="translate(0 0)"/><path class="cls-1" d="M45.32,48s0-.08.08-.07.15.24.3.3l0,0,.22.3.56.39s0,0,0,0a2.6,2.6,0,0,1,.27.24l0,0,.05,0,.12.12c.59.34,1.19.69,1.82,1.11a2,2,0,0,1,.44.22,6.23,6.23,0,0,1,.49.55c.14-.18.59.14.69-.1.1.11.24.29.3.25a.67.67,0,0,1,.77.06c.12.11.22.34.28.36s0-.24.08-.22a21.47,21.47,0,0,0-2.41-2.55c-.34-.23-2.42-2-3-2.4l0,0a4.07,4.07,0,0,0-1-.61l-.47-.1a1.13,1.13,0,0,1,.09.2c-.12-.09-.24-.18-.31-.17-.32-.1-.23.1-.22.3s-.12.12-.05.26l-.2-.15c0,.05.27.14.16.19s-.18-.09-.26-.15.27.21.2.28-.16-.25-.24-.17.07.07.11.1c-.27-.14-.46-.14-.3.11a1.71,1.71,0,0,0-.26-.21h0l.14.12-.14-.1v.06a.76.76,0,0,0,.09.09l-.09-.06a.61.61,0,0,0,0,.13,1.17,1.17,0,0,0,.18.33Z" transform="translate(0 0)"/><path class="cls-1" d="M45.51,47.57s0-.09.08-.07.17.25.32.32l.05,0,.24.31.59.41s0,0,.05,0a2,2,0,0,1,.29.25l0,0,0,0,.13.12c.62.35,1.26.7,1.94,1.11a2.43,2.43,0,0,1,.46.22,5.5,5.5,0,0,1,.54.54c.13-.2.62.11.7-.13.11.11.26.27.32.24a.66.66,0,0,1,.78,0c.14.1.25.33.32.35s-.05-.25.06-.23a29.08,29.08,0,0,0-2.62-2.46c-.37-.22-2.55-2-3.11-2.42l0,0a4.2,4.2,0,0,0-1-.64l-.48-.12a1,1,0,0,1,.09.21A.7.7,0,0,0,45,45.3c-.33-.11-.24.09-.22.29s-.13.12-.06.26l-.2-.15c-.05,0,.28.15.16.2a1.45,1.45,0,0,0-.26-.17c0,.09.27.23.2.29s-.16-.26-.24-.18.06.08.11.11c-.28-.16-.48-.17-.32.09a1.12,1.12,0,0,0-.26-.22h0L44,46l-.14-.11v.06a.47.47,0,0,0,.1.1l-.1-.07a.89.89,0,0,0,0,.14c.07.14.12.3.18.34C44.56,46.81,45,47.19,45.51,47.57Z" transform="translate(0 0)"/><path class="cls-1" d="M47.41,47.27s0-.08.07-.08,0,.15.12.17l0,0,.08.17.27.17,0,0s.08.07.12.12h0l0,0,.05.07c.32.11.66.22,1,.37a.48.48,0,0,1,.47.35c.17-.17.42,0,.57-.23,0,.06.11.16.16.12a.61.61,0,0,1,.6-.11c.07,0,.08.19.13.19s0-.17.12-.17a7.31,7.31,0,0,0-1.19-1.36c-.2-.09-1.27-1-1.55-1.2l0,0a1.07,1.07,0,0,0-.54-.27l-.29,0a.78.78,0,0,1,0,.14c-.06,0-.12-.09-.17-.07s-.17.15-.2.31-.11.14-.09.24l-.1-.07s.15,0,.06.12-.09,0-.13-.07.13.12.07.19,0-.17-.11-.08,0,0,0,.05c-.14,0-.26,0-.21.17,0,0-.07-.09-.11-.11h0l.05.06-.06,0v0a.09.09,0,0,0,0,.06l0,0v.11c0,.09,0,.21,0,.23C47,46.92,47.2,47.1,47.41,47.27Z" transform="translate(0 0)"/><path class="cls-1" d="M46.35,46.16s0-.07.07-.06,0,.16.12.19l.05,0,.07.2.29.21s0,0,0,0,.08.09.13.14h0l0,0,.05.07,1.06.46a1.5,1.5,0,0,1,.27.07,1.61,1.61,0,0,1,.24.29c.15-.17.42,0,.56-.24.05.06.12.15.17.11a.65.65,0,0,1,.59-.15c.07,0,.09.19.14.18s0-.16.11-.17a10,10,0,0,0-1.22-1.3,11,11,0,0,1-1.47-1.29l0,0a1.08,1.08,0,0,0-.5-.32l-.29,0v.15c-.06,0-.11-.11-.16-.09s-.19.11-.25.27-.13.12-.12.22l-.09-.09s.14.08,0,.13-.09-.05-.12-.09.11.14,0,.2,0-.18-.11-.1,0,0,0,.07c-.14-.08-.27-.06-.24.12,0,0-.06-.11-.11-.13h0a.92.92,0,0,1,.05.08l-.06-.06,0,.05a.21.21,0,0,0,0,.06l-.05,0,0,.11c0,.09,0,.21,0,.24A7.59,7.59,0,0,0,46.35,46.16Z" transform="translate(0 0)"/><path class="cls-1" d="M48.73,44.29s0,.06-.08.06,0-.16-.08-.18l0,0a1.16,1.16,0,0,1,0-.18l-.24-.2s0,0-.05,0-.06-.08-.1-.13h0l0,0,0-.06-.93-.39a.79.79,0,0,1-.25,0,1,1,0,0,1-.2-.26c-.16.17-.4.07-.54.27,0-.06-.1-.13-.15-.09a.7.7,0,0,1-.56.19c-.06,0-.07-.16-.12-.15s0,.15-.11.17a9.18,9.18,0,0,0,1,1.07,5.77,5.77,0,0,1,1.16,1.12l0,0a.85.85,0,0,0,.4.3H48l0-.13s.08.1.13.09.19-.1.27-.25.14-.11.15-.2l.07.09s-.11-.08,0-.13.07.06.1.09-.07-.13,0-.19,0,.17.08.11,0-.05,0-.07.24.06.25-.11c0,0,0,.11.07.13h0l0-.08,0,.06,0,0s0,0,0-.06l0,0a.42.42,0,0,0,0-.1c0-.09.05-.2,0-.23A4,4,0,0,0,48.73,44.29Z" transform="translate(0 0)"/><path class="cls-1" d="M42.71,39.18s.11.11-.11.08a4.76,4.76,0,0,0-1.92-.14l0,.08a5.63,5.63,0,0,0-1.57.42,6.29,6.29,0,0,0-2.2,2s.06,0,0,.08a7.55,7.55,0,0,0-.74,1.36,1.82,1.82,0,0,0-.07.25.11.11,0,0,0,0,.1c-.09.26-.14.48-.19.68a9.29,9.29,0,0,0,2.73,7.5c.42.41.87.8,1.28,1.17.61.56,1.37,1.28,2,1.78.05-.25,1.63.87,1.47.44a6.68,6.68,0,0,0,1.11.81c.21-.08.67,0,1.85.77.45.32,1.06.9,1.24,1s-.48-.55-.2-.41c-1.57-1.29-3.18-2.53-4.72-3.75a16.21,16.21,0,0,1-3.89-4.14,8.07,8.07,0,0,1-.89-1.88A6,6,0,0,1,37.75,44a4.5,4.5,0,0,1,2.07-2.61A3.1,3.1,0,0,1,42,41l.17,0a8.38,8.38,0,0,1,3,1.87l1.22,1L46,43.32a8.93,8.93,0,0,0,.91.87c.86.73.5.2.3-.22-.17-.27.2,0-.09-.44l.61.63c.08,0-.79-.75-.54-.65.22.26.52.5.77.75,0-.15-.84-.89-.74-.91s.61.79.74.76a2.7,2.7,0,0,0-.35-.39c.79.75,1.29,1.1.67.31.24.25.55.63.82.88h0l-.45-.49.43.45,0-.11c-.1-.12-.2-.24-.31-.35l.28.29a2.55,2.55,0,0,0-.17-.32,11,11,0,0,0-.74-1c-.74-.77-1.44-1.55-2.28-2.33A7.53,7.53,0,0,0,42.71,39.18Z" transform="translate(0 0)"/><path class="cls-1" d="M43.3,45s.05-.07.1,0,.09.31.22.42l.06,0,.15.39.48.59a0,0,0,0,1,0,0,2,2,0,0,1,.22.34l.05,0h.06l.09.16c.53.53,1.08,1.06,1.67,1.63a3.66,3.66,0,0,1,.42.34,7.57,7.57,0,0,1,.44.66c.16-.16.59.25.72,0,.08.14.21.34.27.31a.7.7,0,0,1,.78.17c.12.12.2.37.26.4s0-.26.1-.22c-.65-1-1.4-2-2.12-3A36,36,0,0,1,44.94,44l0-.05a4.72,4.72,0,0,0-.78-.95c-.13-.1-.28-.19-.42-.28a2,2,0,0,1,0,.23c-.09-.14-.18-.27-.25-.29-.27-.23-.26,0-.31.19S43,42.88,43,43l-.15-.22c-.06,0,.22.25.09.25s-.14-.17-.2-.26c-.05.08.19.32.11.36s-.08-.32-.18-.27,0,.1.07.14c-.22-.25-.41-.34-.33,0a3.3,3.3,0,0,0-.18-.32h0s.06.14.09.18l-.1-.15s0,0,0,.05a.52.52,0,0,0,.06.13l-.07-.1a.59.59,0,0,0,0,.14c0,.16,0,.34.07.4C42.6,43.91,42.94,44.46,43.3,45Z" transform="translate(0 0)"/><path class="cls-1" d="M36.49,49.34s.06-.08.11,0,.08.44.21.64h.07c0,.19.09.38.16.57a8.11,8.11,0,0,0,.57.94s0,0,.06,0,.18.32.29.5L38,52h.06l.14.22a14.36,14.36,0,0,0,2.44,2.2,5.41,5.41,0,0,1,.63.35c.27.2.59.49.85.7.1-.21.82.14.81-.15.17.13.45.29.49.25s.39-.25.92-.11c.2.07.46.29.54.28s-.18-.24,0-.25a13.94,13.94,0,0,1-3.7-2.65,8.8,8.8,0,0,1-1.57-1.79,11.56,11.56,0,0,1-1.25-2.36l0-.08a13.94,13.94,0,0,0-.57-1.44l-.31-.54-.05.27a1.88,1.88,0,0,0-.14-.48c-.17-.41-.24-.15-.37,0s-.18,0-.21.2c0-.14,0-.22,0-.36s.1.44,0,.36a3.73,3.73,0,0,0-.08-.44c-.08.07,0,.51,0,.5s0-.43-.06-.44,0,.15,0,.22c-.1-.44-.24-.68-.3-.24a2.92,2.92,0,0,0,0-.51h0v.28l0-.26,0,0a1.34,1.34,0,0,0,0,.2l0-.17c0,.05,0,.1-.07.16a2.44,2.44,0,0,0-.09.55A11.72,11.72,0,0,0,36.49,49.34Z" transform="translate(0 0)"/><path class="cls-1" d="M39,48.52s0-.08.08-.06.18.3.34.39l0,0,.27.37c.22.17.43.35.66.51,0,0,0,0,.05,0a3.65,3.65,0,0,1,.32.29l.06,0,.06,0,.14.14c.7.42,1.43.81,2.22,1.23a5.08,5.08,0,0,1,.52.22,7.33,7.33,0,0,1,.68.54c.11-.21.68.07.71-.19.14.1.34.26.39.21a.73.73,0,0,1,.82-.08c.16.08.34.3.41.3s-.11-.24,0-.24c-1-.8-2.09-1.47-3.12-2.29a23.32,23.32,0,0,1-3.3-2.66l0,0a6.16,6.16,0,0,0-1-.82l-.49-.21c0,.08,0,.16.07.23-.12-.12-.24-.25-.31-.26-.33-.19-.26,0-.27.25s-.15.1-.09.26l-.19-.2c-.06,0,.27.22.14.24s-.18-.15-.26-.24c0,.09.26.31.19.36s-.15-.32-.24-.25.06.09.1.13c-.27-.22-.49-.28-.34,0a3.61,3.61,0,0,0-.25-.3h0l.13.17-.14-.14v0a.64.64,0,0,0,.1.13l-.1-.1c0,.05,0,.1,0,.15a1.94,1.94,0,0,0,.17.41A19.15,19.15,0,0,0,39,48.52Z" transform="translate(0 0)"/><path class="cls-1" d="M42.83,47.34s0-.08.09,0,.14.33.29.46l.06,0c.07.14.13.28.2.43s.38.45.58.66a0,0,0,0,1,.05,0,3.25,3.25,0,0,1,.27.37l.06.06a.07.07,0,0,0,.06,0,1.74,1.74,0,0,1,.11.18c.62.59,1.27,1.18,2,1.83a4.67,4.67,0,0,1,.48.37,7.91,7.91,0,0,1,.54.75c.16-.18.66.28.76,0,.11.14.27.37.33.34s.45-.11.84.2c.14.13.25.42.32.45s0-.28.07-.24C49.09,52,48.19,51,47.32,49.82a45.77,45.77,0,0,1-2.9-3.59l-.05-.06a6,6,0,0,0-.93-1.05L43,44.8c0,.09,0,.18.06.25-.11-.14-.22-.29-.3-.32-.32-.25-.27,0-.3.21s-.16.07-.12.25c-.07-.1-.1-.15-.18-.25s.26.28.12.28a2.09,2.09,0,0,0-.23-.29c0,.09.23.36.15.4S42,45,41.94,45s.05.11.09.16c-.26-.28-.46-.38-.35,0-.07-.09-.14-.25-.22-.34h0a2.12,2.12,0,0,1,.12.2l-.12-.18s0,0,0,.06,0,.1.08.14l-.08-.11a.81.81,0,0,0,0,.16,2.57,2.57,0,0,0,.12.44C42,46.14,42.38,46.75,42.83,47.34Z" transform="translate(0 0)"/><path class="cls-1" d="M42,47.5s0-.08.09,0,.17.33.33.46l.06,0,.25.42c.21.22.42.43.64.63,0,0,0,0,.05,0a3.11,3.11,0,0,1,.31.36l.06.05a.07.07,0,0,0,.06,0l.13.17,2.15,1.73a5,5,0,0,1,.51.34c.21.2.43.5.62.72.14-.19.68.24.76,0,.12.14.3.36.36.32s.44-.15.86.14c.15.13.29.41.36.43s-.07-.28,0-.25c-.92-1.12-1.92-2.09-2.9-3.17-.4-.3-2.69-2.75-3.23-3.42l-.06,0a6.52,6.52,0,0,0-1-1L41.92,45c0,.08,0,.17.07.24a1.45,1.45,0,0,0-.32-.31c-.35-.23-.28,0-.3.23s-.16.09-.09.26l-.21-.24s.29.27.15.27a1.72,1.72,0,0,0-.27-.27c0,.09.27.34.19.39s-.14-.34-.24-.29.06.11.1.15c-.28-.26-.51-.35-.36,0a3.85,3.85,0,0,0-.26-.34h0l.14.2-.15-.17v.06a.55.55,0,0,0,.09.14l-.1-.11a.92.92,0,0,0,0,.16,2.69,2.69,0,0,0,.16.43C41,46.34,41.49,46.93,42,47.5Z" transform="translate(0 0)"/><path class="cls-1" d="M41.43,46.81s0-.07.08-.05.11.25.24.32l0,0,.17.31.47.43s0,0,.05,0a1.94,1.94,0,0,1,.22.25l0,0,.05,0a.47.47,0,0,1,.09.12l1.63,1.15a2.6,2.6,0,0,1,.4.23c.15.14.29.37.42.52.16-.17.57.13.68-.1.08.11.21.27.27.24a.63.63,0,0,1,.73,0c.11.09.19.31.25.32s0-.23.09-.21C46.74,49.48,46,48.76,45.3,48c-.32-.21-2-2-2.43-2.44l0,0a3.42,3.42,0,0,0-.8-.69l-.41-.15c0,.07,0,.14,0,.2-.1-.1-.19-.2-.26-.21-.27-.13-.24.07-.27.26s-.14.1-.1.24L40.87,45s.22.17.1.21-.14-.12-.2-.19c0,.09.2.24.13.3s-.1-.27-.19-.2,0,.08.08.11c-.22-.17-.4-.2-.31.06-.06-.07-.11-.19-.19-.24h0a1.7,1.7,0,0,0,.1.14L40.28,45v.06a.61.61,0,0,0,.07.1l-.07-.08a.66.66,0,0,0,0,.14,2,2,0,0,0,.09.34C40.7,46,41.06,46.42,41.43,46.81Z" transform="translate(0 0)"/><path class="cls-1" d="M41,43.5s0-.07,0-.1.22.06.31,0v-.07a.9.9,0,0,1,.2.14h0L44.4,44l-1.7-2.07a2.44,2.44,0,0,0-1.08-.74s0,0,0,0a4.15,4.15,0,0,0-.7-.18h-.12s0,0,0,0h-.32a2.69,2.69,0,0,0-1.63.92,3,3,0,0,0-.64,1.62c0,.25,0,.49.07.71a4.64,4.64,0,0,0,.13,1c.19-.1.56.52.72.28.07.17.2.41.26.39a.83.83,0,0,1,.8.22c.13.11.25.37.32.39s-.05-.26.06-.23c-.8-1-1.23-2-.79-2.89A.94.94,0,0,1,40.2,43a.88.88,0,0,1,1,.15l1-1.38a3,3,0,0,0-1.6-.15l-.11,0a2.67,2.67,0,0,0-1.65,1.1,2.7,2.7,0,0,0-.26.72,1.1,1.1,0,0,1,.25-.2,1.2,1.2,0,0,0-.24.52c-.06.52.15.25.35.15s.14.09.27,0c0,.11-.06.17-.1.28s.08-.36.16-.24a1,1,0,0,0-.1.33c.08,0,.15-.36.23-.3s-.21.25-.11.3a.72.72,0,0,0,.07-.15c-.06.34,0,.48.2.25a.72.72,0,0,0-.06.29h0a1.1,1.1,0,0,0,0-.16v.15l0,0,0-.11v.1l.1-.08c.08-.1.2-.16.22-.2A1.53,1.53,0,0,1,41,43.5Z" transform="translate(0 0)"/><path class="cls-1" d="M39,42s.12,0,.05.11a4.94,4.94,0,0,0-.63,1.18l0,0a4.86,4.86,0,0,0-.32,1.12,4.91,4.91,0,0,0,.33,2.16s0,0,.07,0a7.05,7.05,0,0,0,.49,1l.11.15a.13.13,0,0,0,.09,0c.11.16.21.29.31.42a5.79,5.79,0,0,0,.51.44l.52.41.49-.35a1.55,1.55,0,0,0,.61-1,1.89,1.89,0,0,0-.07-1A4.75,4.75,0,0,0,41,45.63a2.93,2.93,0,0,1-.43-.93,2.5,2.5,0,0,1-.07-.26l0-.18a2,2,0,0,1,0-.36,1.29,1.29,0,0,1,0-.44,1.4,1.4,0,0,1,.35,0,2.05,2.05,0,0,1,.64.26,7,7,0,0,1,.72.5c.08-.27,1.17.56,1.13.22.27.27.64.71.7.69s.59,0,1.29.79c.26.31.53.85.64,1s-.18-.5,0-.36a15.17,15.17,0,0,0-2.19-2.76,7.6,7.6,0,0,0-1.52-1.13L42,42.52a2.75,2.75,0,0,0-.34-.16l-.76-.27-1.49-.31a13.59,13.59,0,0,0-.41,1.7,5,5,0,0,0,0,1c0,.28,0,.43.08.64a6,6,0,0,0,.63,1.48,4.59,4.59,0,0,1,.39.69.74.74,0,0,1,0,.12s.08,0,.14.08a.22.22,0,0,1,.09.06l1-.15A3.28,3.28,0,0,1,40.09,45a3,3,0,0,1,.48-1.83l.06-.1A4,4,0,0,1,41.8,42l3.09-1.89-3.52.24a4.25,4.25,0,0,0-.87.15,5.89,5.89,0,0,0-1.15.5,3.49,3.49,0,0,1,.52-.05,2.64,2.64,0,0,0-.89.38c-.72.49-.22.35.13.35s0,.18.34.11a3.82,3.82,0,0,0-.54.26c0,.06.65-.37.54-.19a3.1,3.1,0,0,0-.64.35c.11,0,.74-.37.75-.26s-.65.19-.63.31.21-.09.31-.14c-.62.38-.83.71-.26.44a3.49,3.49,0,0,0-.61.42h0l.34-.24-.31.24h.08l.25-.16-.2.16.23-.06c.27-.12.56-.17.7-.24a4.59,4.59,0,0,1,1.95-.44l-.49-1.88A5,5,0,0,0,39,42Z" transform="translate(0 0)"/><path class="cls-1" d="M41.46,45.11s0-.06.09,0,0,.23.13.3l.06,0,.07.29a4.12,4.12,0,0,0,.32.41,0,0,0,0,1,0,0,1.27,1.27,0,0,1,.14.24l0,0h0s0,.08.06.11l1.21,1.1a2,2,0,0,1,.32.21,3.26,3.26,0,0,1,.27.48c.18-.15.5.13.65-.07.05.1.14.24.2.21a.64.64,0,0,1,.67,0c.08.08.11.27.16.28s0-.19.12-.18c-.39-.75-.91-1.39-1.37-2.1a16.1,16.1,0,0,1-1.57-2.26l0,0a3.21,3.21,0,0,0-.24-.36.84.84,0,0,0-.22-.21l-.23-.1a.48.48,0,0,0-.09.11c0-.08,0-.12-.06-.14s-.22-.07-.37,0-.18,0-.24.11a.67.67,0,0,1,0-.2c-.08,0,0,.25-.06.21s0-.18,0-.27,0,.31-.11.31.1-.27,0-.28,0,.09,0,.14c0-.29-.07-.51-.25-.21a1.58,1.58,0,0,1,.14-.36h0a1.86,1.86,0,0,0-.11.19,1.54,1.54,0,0,1,.08-.19l-.06,0a.71.71,0,0,0-.08.15c0-.05,0-.09,0-.13a.55.55,0,0,0-.14.09,1,1,0,0,0-.22.44,2.41,2.41,0,0,0,.27,1.06C41.25,44.76,41.34,44.91,41.46,45.11Z" transform="translate(0 0)"/><path class="cls-1" d="M40.3,47.08s0-.07.07-.06.08.19.19.22l0,0c0,.07.09.15.14.23a3.73,3.73,0,0,0,.39.25s0,0,0,0,.11.1.18.16l0,0,0,0a.6.6,0,0,1,.08.08c.43.19.88.36,1.36.56a1.69,1.69,0,0,1,.34.08,2.82,2.82,0,0,1,.36.33c.13-.19.47-.05.57-.28.07.06.18.16.22.12A.62.62,0,0,1,45,48.5c.1,0,.17.2.22.19s0-.19.07-.2c-.54-.53-1.16-.92-1.74-1.41a12.4,12.4,0,0,1-2-1.46l0,0a1.86,1.86,0,0,0-.63-.4l-.34,0c0,.06,0,.12,0,.17s-.15-.13-.2-.12c-.22-.06-.21.1-.24.28s-.13.12-.1.23l-.12-.11c-.05,0,.17.1.07.16s-.11-.08-.16-.12.15.17.09.23-.07-.21-.15-.13,0,.06.06.08c-.18-.1-.33-.09-.26.12,0,0-.09-.14-.15-.17h0a.39.39,0,0,0,.08.1l-.09-.08a.43.43,0,0,1,0,.05.22.22,0,0,0,.05.08l-.06-.05s0,.07,0,.11a1.38,1.38,0,0,0,.06.28A11,11,0,0,0,40.3,47.08Z" transform="translate(0 0)"/><path class="cls-1" d="M42.22,46.24s0-.08.08-.07.17.26.32.33l.05,0,.24.32c.2.14.4.28.61.41,0,0,0,0,0,0a2.82,2.82,0,0,1,.3.25l.06,0,0,0,.13.12c.63.34,1.3.67,2,1a4.37,4.37,0,0,1,.48.19,7.08,7.08,0,0,1,.59.5c.11-.2.63.06.68-.19.12.1.3.25.35.21a.66.66,0,0,1,.77-.08c.15.08.29.3.36.3s-.08-.23,0-.23c-.89-.79-1.84-1.44-2.78-2.19a31.45,31.45,0,0,1-3.09-2.32l-.05,0a4.88,4.88,0,0,0-1-.67L42,43.94a1.8,1.8,0,0,1,.08.21,1,1,0,0,0-.31-.21c-.32-.12-.24.08-.24.28s-.14.12-.07.26l-.19-.16s.26.17.14.21-.17-.12-.25-.19c0,.09.26.25.19.31s-.15-.28-.23-.2.06.08.1.11c-.27-.17-.47-.2-.32.08a3,3,0,0,0-.25-.25h0a1.66,1.66,0,0,1,.13.14l-.14-.12v.06l.09.1-.09-.08a.77.77,0,0,0,0,.15,1.63,1.63,0,0,0,.17.35C41.27,45.43,41.74,45.85,42.22,46.24Z" transform="translate(0 0)"/><path class="cls-1" d="M44.78,45.93s0-.08.1,0,.13.33.28.46l.06,0,.2.42.55.68s0,0,.05,0a2.5,2.5,0,0,1,.26.38l.06.06h.06l.11.18L48.38,50a4.41,4.41,0,0,1,.45.4c.18.23.34.55.49.79.17-.17.63.34.75.1.1.15.24.39.31.37s.45-.07.82.28c.12.15.21.44.28.48s0-.29.1-.23c-.71-1.26-1.55-2.37-2.37-3.56-.35-.36-2.33-3-2.82-3.74l0-.06a6.29,6.29,0,0,0-.94-1.08l-.48-.32c0,.09,0,.18,0,.26a1.27,1.27,0,0,0-.29-.33c-.33-.25-.28,0-.31.21s-.16.08-.11.26l-.18-.25c-.06,0,.26.28.12.27a2,2,0,0,0-.24-.28c0,.09.24.35.16.39s-.12-.34-.22-.29.05.1.09.15c-.26-.27-.47-.37-.35,0a3.39,3.39,0,0,0-.23-.34h0l.12.2-.13-.18v.06a.55.55,0,0,0,.08.15l-.09-.12v.16a2.33,2.33,0,0,0,.12.44C43.92,44.72,44.35,45.33,44.78,45.93Z" transform="translate(0 0)"/><path class="cls-1" d="M44.72,46.57s.06-.07.1,0,.06.31.18.43l.06,0,.12.39a6.9,6.9,0,0,0,.42.63s0,0,0,0a2.21,2.21,0,0,1,.19.35l0,0h.06l.08.17c.47.57,1,1.14,1.51,1.76a4.44,4.44,0,0,1,.38.37,6.7,6.7,0,0,1,.37.7c.18-.15.57.3.71.08.08.14.19.35.25.33A.68.68,0,0,1,50,52c.1.13.16.39.22.42s0-.25.11-.21c-.54-1.09-1.2-2.07-1.82-3.14a36.66,36.66,0,0,1-2.07-3.39l0-.06a4.41,4.41,0,0,0-.69-1c-.12-.11-.25-.21-.39-.32a.88.88,0,0,1,0,.23.85.85,0,0,0-.21-.31c-.26-.24-.26,0-.33.17s-.17.06-.16.22l-.12-.23c-.07,0,.19.26.06.25a1.53,1.53,0,0,0-.17-.27c-.06.08.15.33.07.36s0-.31-.15-.28,0,.1,0,.15c-.19-.26-.37-.37-.32-.05a2.41,2.41,0,0,0-.15-.33h0l.07.19-.08-.17,0,.06a.69.69,0,0,0,0,.13l-.06-.11,0,.14a1.47,1.47,0,0,0,0,.41Q44.26,45.73,44.72,46.57Z" transform="translate(0 0)"/><path class="cls-1" d="M45.31,47.36s0-.07.08,0,.08.24.2.32l.06,0,.13.31.42.44a0,0,0,0,1,0,0,2.21,2.21,0,0,1,.19.26l0,0,.05,0,.08.13c.46.39.94.79,1.44,1.25a2,2,0,0,1,.36.26,3.87,3.87,0,0,1,.34.55c.18-.15.53.19.68,0,.06.12.16.29.22.26a.66.66,0,0,1,.72.13c.09.11.13.33.19.36s0-.23.12-.2A22,22,0,0,0,49,48.76c-.27-.25-1.77-2.12-2.15-2.6l0,0a3.35,3.35,0,0,0-.74-.72l-.4-.16,0,.19c-.09-.1-.18-.2-.24-.21-.27-.14-.24.06-.28.24s-.15.1-.12.24l-.14-.17c-.06,0,.21.18.09.2s-.14-.12-.19-.18.18.24.1.29-.07-.26-.17-.2,0,.08.07.11c-.21-.17-.38-.21-.3,0-.06-.06-.1-.18-.18-.23h0a1,1,0,0,1,.09.13l-.1-.11v0a.33.33,0,0,0,.06.1l-.07-.07a.53.53,0,0,0,0,.13c0,.13,0,.29.07.33Q44.82,46.76,45.31,47.36Z" transform="translate(0 0)"/><path class="cls-1" d="M46.9,46.64s0-.07.08,0,.07.23.17.3l.06,0c0,.09.07.19.11.28l.39.39a0,0,0,0,1,0,0,.91.91,0,0,1,.17.23l0,0s0,0,.05,0a.44.44,0,0,1,.08.11l1.39,1a2,2,0,0,1,.35.19,4.94,4.94,0,0,1,.35.45c.16-.17.51.08.64-.13.07.09.17.23.23.19a.63.63,0,0,1,.68,0c.1.07.15.26.21.27s0-.21.1-.2c-.52-.72-1.13-1.32-1.7-2a16.79,16.79,0,0,1-1.93-2.15l0,0a2.46,2.46,0,0,0-.64-.61,3,3,0,0,0-.36-.14,1.09,1.09,0,0,1,0,.18c-.07-.09-.14-.18-.2-.19-.23-.13-.23.06-.29.23s-.15.09-.14.22L46.66,45c-.06,0,.17.15.06.18s-.11-.11-.16-.17.14.23.07.27-.05-.24-.14-.18,0,.07,0,.1c-.18-.16-.34-.19-.29.05,0-.06-.08-.17-.14-.22h0l.07.13L46.1,45l0,0a.3.3,0,0,0,0,.1l0-.07,0,.12c0,.13,0,.27,0,.32A12.32,12.32,0,0,0,46.9,46.64Z" transform="translate(0 0)"/><path class="cls-1" d="M46.72,46.2s0-.07.07-.06,0,.17.12.2l.05,0,.07.2a3.11,3.11,0,0,0,.28.23s0,0,0,0,.07.09.12.15h0l0,0,.05.07c.33.18.69.36,1,.58a1.39,1.39,0,0,1,.27.1,1.19,1.19,0,0,1,.22.33c.18-.15.44,0,.59-.17.05.07.11.17.17.14a.6.6,0,0,1,.61-.06c.08.05.08.21.13.21s0-.17.13-.16a9.19,9.19,0,0,0-1.17-1.54,17.41,17.41,0,0,1-1.49-1.49l0,0a1.34,1.34,0,0,0-.52-.38l-.31,0v.16c-.06-.06-.11-.12-.17-.11s-.19.11-.25.27-.13.12-.12.22l-.09-.09s.14.08,0,.13-.09-.06-.13-.09.12.14,0,.2,0-.18-.11-.11,0,0,0,.07c-.14-.08-.28-.06-.24.12,0,0-.06-.11-.11-.14h0a.41.41,0,0,0,.05.09l-.06-.07,0,0a.33.33,0,0,0,0,.06l0,0,0,.11c0,.1,0,.22,0,.25A8,8,0,0,0,46.72,46.2Z" transform="translate(0 0)"/><path class="cls-1" d="M40.55,42.94s.05.07,0,.1-.32,0-.44.06l0,.06a1.34,1.34,0,0,0-.38.1,1.59,1.59,0,0,0-.29.29,2,2,0,0,0-.14.25s0,0,0,0-.1.2-.14.33v.06s0,0,0,0l0,.16a3,3,0,0,0,.55,1.5l.22.22a3.17,3.17,0,0,1,.12.41c.21-.1.43.13.62,0,0,.07.07.18.13.15a.76.76,0,0,1,.59,0c.06,0,0,.18.1.17s.06-.15.13-.15a5.32,5.32,0,0,1-.54-1.3A1.08,1.08,0,0,1,41,45a.11.11,0,0,1,0-.11.06.06,0,0,1,.08,0h.07a1.69,1.69,0,0,0,.35-.1l.31-.23a.61.61,0,0,1-.16-.09c.11,0,.23,0,.26-.09.22-.19,0-.23-.11-.36s0-.16-.13-.21l.11,0c0-.06-.12.08-.12,0s.07,0,.11-.06-.13,0-.16-.07.14.08.1,0h-.05c.08-.07.06-.19-.06-.25s.07,0,.08,0h0l0,0,0,0h0l0,0-.07-.07s-.11-.13-.1-.14-.05,0-.17,0a1.26,1.26,0,0,0-.26,0A2.48,2.48,0,0,0,40.55,42.94Z" transform="translate(0 0)"/><path class="cls-1" d="M39.34,43.08s.08,0,.1,0-.1.16-.06.25h.07l-.09.22a2.7,2.7,0,0,0,.08.39s.05,0,.06,0a.69.69,0,0,1,0,.21l0,0s0,0,0,0v.1a5.54,5.54,0,0,0,.71,1,1,1,0,0,1,.22.18,1.48,1.48,0,0,1,.13.35c.2-.11.42.07.6-.08,0,.06.07.15.13.13a.77.77,0,0,1,.59-.08S42,46,42,46s.07-.15.14-.15a12.25,12.25,0,0,1-.58-1.21,2.65,2.65,0,0,1-.33-1.47v0a.85.85,0,0,0-.07-.47l-.15-.2-.13.06c0-.06,0-.12,0-.15s-.2-.1-.36-.07-.17,0-.25,0l0-.11c-.07,0,0,.15-.1.1s0-.1,0-.15-.07.16-.15.14.14-.12,0-.14,0,0,0,.06c0-.15-.09-.26-.24-.14,0,0,.07-.11.07-.17h0a.73.73,0,0,1,0,.09l0-.09h0l0,.06v-.06l-.11,0c-.08.06-.19.11-.2.15A3.52,3.52,0,0,0,39.34,43.08Z" transform="translate(0 0)"/><path class="cls-1" d="M37.41,43.46s.08,0,.1,0-.11.17-.08.27h.06l-.1.24a2.12,2.12,0,0,0,.06.44s0,0,0,0a.88.88,0,0,1,0,.23l0,0h0v.11A6,6,0,0,0,38.24,46a1.2,1.2,0,0,1,.23.21,2.16,2.16,0,0,1,.13.41c.21-.11.43.11.62,0,0,.07.07.17.13.15a.7.7,0,0,1,.6,0c.06,0,0,.18.1.18s.07-.15.14-.15a8.25,8.25,0,0,1-.61-1.39,1.89,1.89,0,0,1-.24-.77,3.07,3.07,0,0,1,0-.91v0a1.23,1.23,0,0,0,0-.54l-.14-.24-.13.06c0-.07,0-.14,0-.17s-.19-.13-.36-.1-.16-.07-.25,0l0-.13c-.07,0,0,.17-.11.11s0-.11,0-.17-.08.18-.16.15.16-.12.05-.16,0,0-.05.07c0-.17,0-.3-.21-.17,0-.06.09-.12.09-.19h0l-.06.1,0-.1h0a.16.16,0,0,0,0,.07l0-.07-.11,0c-.09.06-.21.11-.23.16A4.15,4.15,0,0,0,37.41,43.46Z" transform="translate(0 0)"/><path class="cls-1" d="M36.55,45.61s.08,0,.1,0-.09.11,0,.16h.07l-.08.14a.87.87,0,0,0,.1.24h.05s0,.08,0,.13h.07v.06a2.68,2.68,0,0,0,.67.44.85.85,0,0,1,.2,0c.06,0,.08.13.11.18.17-.15.35-.12.5-.31,0,0,0,.07.09,0a1.9,1.9,0,0,1,.43-.33s0,.07,0,0,.06-.13.11-.17-.19-.16-.26-.3c-.13,0-.29-.34-.23-.44h0c0-.05,0-.11-.09-.16l-.17-.09-.12,0s0,0,0-.07-.2-.06-.37-.06-.17,0-.24,0l0-.06c-.06,0,0,.08-.08.05s0-.06,0-.08,0,.08-.14.07.14-.06,0-.08,0,0,0,0A.14.14,0,0,0,37,45s.06-.07,0-.1h0s0,0,0,.05l0-.05H37l0,0v0h-.11c-.08,0-.19.06-.19.09A1.62,1.62,0,0,0,36.55,45.61Z" transform="translate(0 0)"/><path class="cls-1" d="M41.94,42.64a.33.33,0,0,1,0-.1c.05,0,.1.09.15.05v-.06l.13.09.24,0s0-.05,0-.05.08,0,.13,0h0v0l.06,0a2.88,2.88,0,0,1,.92-.13.53.53,0,0,1,.24,0c.1,0,.18.14.25.19.12-.2.39-.13.5-.34.05,0,.13.13.18.08a.56.56,0,0,1,.58-.18c.08,0,.12.2.17.2s0-.18.1-.19A3.75,3.75,0,0,0,44,41c-.13,0-.55-.13-1-.2a10.15,10.15,0,0,0-1.13-.08h0a1.14,1.14,0,0,0-.64.18l-.19.24.12.09c-.08,0-.15,0-.17.07s0,.23.1.36,0,.17.11.22l-.1,0c0,.06.12-.08.12,0s-.08,0-.12,0,.15,0,.16.07-.14-.08-.12,0,0,0,.07,0-.14.19,0,.26c0,0-.1,0-.13,0h0l0,0h0l.07.08c.07,0,.15.14.17.13Z" transform="translate(0 0)"/><path class="cls-1" d="M42.61,42.09s.06-.06.08-.06,0,.14.07.15l.05,0,0,.17a1.49,1.49,0,0,0,.2.15l0,0a.23.23,0,0,1,.08.11h0l0,0,0,0c.26.11.54.21.83.35a.71.71,0,0,1,.22,0c.07.05.1.16.15.23.17-.14.39,0,.55-.21,0,0,.08.12.13.09A.7.7,0,0,1,45.7,43s0,.16.08.15.07-.14.14-.15a6.63,6.63,0,0,0-.81-1.1,5.94,5.94,0,0,1-1-1.07h0a.69.69,0,0,0-.38-.27H43.4l0,.13s-.08-.09-.12-.08-.19.12-.27.26-.13.12-.15.2L42.78,41s.11.06,0,.11-.07,0-.09-.07.06.12,0,.18,0-.16-.07-.09,0,0,0,.06-.22,0-.23.13c0,0,0-.1-.07-.11h0a.49.49,0,0,1,0,.07l0-.05,0,0s0,0,0,.05l0,0,0,.09a.92.92,0,0,0,0,.22A4.21,4.21,0,0,0,42.61,42.09Z" transform="translate(0 0)"/><path class="cls-1" d="M20.08,57.2s0-.08.05-.09.27.18.44.19l0-.06.37.19c.25.06.5.12.75.16,0,0,0,0,0-.05s.24.08.39.12h.07a.05.05,0,0,0,0,0l.18.06c.75.08,1.53.13,2.36.2a3.25,3.25,0,0,1,.54,0,5.28,5.28,0,0,1,.77.24c0-.24.62-.19.57-.44.16,0,.39.11.42.05a.7.7,0,0,1,.71-.36c.17,0,.4.17.46.14s-.17-.19-.06-.22c-1.19-.4-2.37-.64-3.58-1a33.85,33.85,0,0,1-3.93-1l-.07,0a5.06,5.06,0,0,0-1.22-.24l-.5.06.16.16a.76.76,0,0,0-.38-.07c-.36,0-.2.16-.11.35s-.08.16,0,.27l-.25-.08c0,.06.32.05.22.14a1.09,1.09,0,0,0-.31-.08c0,.1.35.13.31.21s-.26-.19-.31-.09.09.05.14.06c-.33-.05-.53,0-.27.19a3.42,3.42,0,0,0-.34-.13h0a1.54,1.54,0,0,1,.19.08l-.18-.06a.08.08,0,0,0,0,.05l.13.07-.12,0,.07.13c.13.1.24.24.32.26C18.83,56.82,19.45,57,20.08,57.2Z" transform="translate(0 0)"/></svg>