<svg id="Layer_1" data-name="Layer 1" xmlns="http://www.w3.org/2000/svg" viewBox="0 0 104.73 94.32"><defs><style>.cls-1{fill:#ff3fb4;}</style></defs><title>4</title><path class="cls-1" d="M30.28,53.75s-.48-.33.36.08l1.9,1c.61.29,1.24.52,1.85.78l.93.38c.31.11.64.19,1,.29.65.19,1.32.4,2,.57l.22,0a35.17,35.17,0,0,0,7,.92,33.86,33.86,0,0,0,13-2.28c-.12,0-.18,0,.23-.16a27.08,27.08,0,0,0,2.9-1.38L63.33,53l1.61-1.14a7.19,7.19,0,0,0,.92-.73,1.25,1.25,0,0,0,.28-.33l1.27-1.15c.38-.38.7-.79,1-1.16a22.86,22.86,0,0,0,4.48-8.65A31.09,31.09,0,0,0,74,30.05,32.74,32.74,0,0,0,67.08,11.2a29.57,29.57,0,0,0-6.37-6A30.37,30.37,0,0,0,48.13.07c.29.16-2-.13-4.21-.06a27.41,27.41,0,0,0-2.73.31c-.63.13-.87.22-.37.21a22,22,0,0,0-4.28,1c-.64.24-1.22.42-1.63.61a6.73,6.73,0,0,0-.7.37c-.23.24-.83.54-2,1.4a26.24,26.24,0,0,0-5.37,4.77,30.08,30.08,0,0,0-2.74,3.7,16.34,16.34,0,0,0-1,1.77l-.57,1.12c-.64,1.39,1.76-3.09,1.11-1.71a28.3,28.3,0,0,1,4.52-6A23.29,23.29,0,0,1,34.2,3.31,23.44,23.44,0,0,1,48.65,1.54a30.56,30.56,0,0,1,7.09,2.28A28.12,28.12,0,0,1,62,7.9a27.34,27.34,0,0,1,5,5.64,29.85,29.85,0,0,1,3.47,6.77,31.1,31.1,0,0,1,2,11.32,28.32,28.32,0,0,1-1.54,9,21.52,21.52,0,0,1-2.18,4.51,14.17,14.17,0,0,1-1.54,2.06l-.84,1c-.3.31-.64.59-1,.89a24.78,24.78,0,0,1-9.07,5.13,33.38,33.38,0,0,1-9.8,1.57,33.12,33.12,0,0,1-8.36-1,25.71,25.71,0,0,1-3.2-1l-1.32-.51c-.41-.18-.76-.39-1.1-.55l-1-.49A23.06,23.06,0,0,1,20,36.64a28.88,28.88,0,0,1-.64-7.73l-.1.89,0,.85-.06,1.57a36.9,36.9,0,0,1,.43-6.34,14.66,14.66,0,0,1,.31-1.71l.2-1c.08-.46.06-.53,0-.36-.12.35-.57,1.65-.82,2.73-.32,1.57-.09-.59-.55,1.88.15-.89.26-1.57.36-2.24s.31-1.33.52-2.21A19.38,19.38,0,0,0,19,25.46c-.2,1.25-.37,2.38-.33,1.75.16-.86.26-1.79.47-2.7s.38-1.85.69-2.71A23.41,23.41,0,0,0,18.91,25c-.25,1.44-.45,2.78-.46,2.64,0-.49.28-1.76.5-2.94s.55-2.25.57-2.43-.44,1.7-.66,2.59c.32-1.38.58-2.6.9-3.55l.37-1.25.3-.82c.13-.4.14-.49,0-.18a15,15,0,0,0-.89,2.25A37.31,37.31,0,0,1,22,15.61h0c-.41.86-1.18,2.3-1.47,3.13.37-1,.89-2,1.36-2.94l-.29.49a20.8,20.8,0,0,0-1.05,2.23c.25-.68.58-1.32.89-2a16.89,16.89,0,0,0-.86,1.62,30.71,30.71,0,0,0-2.11,6.06A29.46,29.46,0,0,0,19.35,41a24.7,24.7,0,0,0,4.33,7.35A27.21,27.21,0,0,0,30.28,53.75Z" transform="translate(0 0)"/><path class="cls-1" d="M64.86,21.7s.11-.07.08.09c-.13.46-.36.79-.46,1.27l.06.05c-.12.36-.26.72-.36,1.11a16.08,16.08,0,0,0-.27,2.17s.05,0,.05.05l-.07,1.15v.19a.08.08,0,0,0,.05.07l0,.53a18.24,18.24,0,0,0,1.74,6.27l.72,1.24c.32.6.72,1.37,1.08,1.94.13-.2,1.14,1,1.15.63a3.72,3.72,0,0,0,.73.83c.22-.06.59.06,1.45.75.32.29.78.77.91.85s-.33-.47-.11-.36a17.58,17.58,0,0,1-5.06-7.81,14.48,14.48,0,0,1-.82-4.78,16,16,0,0,1,.9-5.39l0-.16c.35-1,.87-2.13,1.23-2.93.16-.37.31-.77.5-1.14L68,18.7a7.18,7.18,0,0,0,.54-.86c.46-.78.07-.45-.28-.25-.2.17-.09-.18-.37.11.16-.24.26-.35.43-.58,0-.07-.5.74-.47.52.18-.22.34-.49.52-.73-.13,0-.64.8-.67.72s.58-.6.53-.71-.19.21-.28.33c.51-.76.78-1.2.15-.63.18-.23.48-.51.67-.76h0l-.39.42.35-.41-.1.05a2.5,2.5,0,0,0-.27.29l.22-.27a2.29,2.29,0,0,0-.27.17,5.88,5.88,0,0,0-.78.72A17.16,17.16,0,0,0,64.86,21.7Z" transform="translate(0 0)"/><path class="cls-1" d="M71.89,29.7s-.06.06-.09,0,0-.22-.1-.29l-.06,0a2.45,2.45,0,0,1,0-.27c-.06-.13-.13-.26-.18-.39s0,0,0,0a.46.46,0,0,1,0-.21l0,0h0a.31.31,0,0,1,0-.1,2.41,2.41,0,0,1,0-1.51,2.84,2.84,0,0,1,.05-.42c.08-.18.24-.38.33-.55-.21-.08-.11-.55-.37-.56.06-.11.13-.27.07-.3A.85.85,0,0,1,71,24.6c0-.09.09-.22.06-.25s-.15.1-.21,0a13.28,13.28,0,0,1-1,2.35,5.32,5.32,0,0,0-.26,1.93,5.12,5.12,0,0,0,.67,2l0,.05a2.75,2.75,0,0,0,.69.83l.4.19a1.5,1.5,0,0,1,0-.2c.08.11.16.21.22.22.26.15.24-.05.29-.23s.15-.09.13-.23l.13.17c.06,0-.19-.18-.07-.2s.12.12.17.18-.16-.24-.09-.29.06.26.16.2,0-.08-.06-.11c.19.17.36.21.3,0a1.6,1.6,0,0,0,.16.23h0s-.06-.11-.08-.14l.09.11v0a.31.31,0,0,0,0-.1l.06.07a.51.51,0,0,0,0-.13c0-.13,0-.28,0-.33C72.36,30.45,72.1,30.07,71.89,29.7Z" transform="translate(0 0)"/><path class="cls-1" d="M72.94,29.54s-.08,0-.1,0,.08-.15,0-.23h-.07l.08-.19c0-.12,0-.24-.06-.36h0a.6.6,0,0,1,0-.19v0h0a.2.2,0,0,1,0-.09c-.13-.35-.27-.72-.38-1.13a1.07,1.07,0,0,1-.12-.27,1.8,1.8,0,0,1,.08-.39c-.23,0-.3-.32-.54-.3,0-.08,0-.2,0-.22a.62.62,0,0,1-.47-.41c0-.09.1-.21.07-.25s-.16.08-.21,0a7.9,7.9,0,0,0-.28,2c.06.24.1,1.79.12,2.19v0a1.19,1.19,0,0,0,.17.65,2.28,2.28,0,0,0,.22.22,1.25,1.25,0,0,1,.09-.12c0,.08,0,.17.07.19s.22,0,.36,0,.18,0,.23-.1l0,.13c.06,0-.06-.15,0-.13s0,.1,0,.15,0-.18.09-.19-.09.17,0,.16,0-.06,0-.08c.06.15.18.22.27.05,0,.05,0,.13,0,.18h0s0-.08,0-.1v.09l0,0a.11.11,0,0,0,0-.08v.06l.09-.07c.06-.08.15-.16.14-.2C73,30.14,73,29.84,72.94,29.54Z" transform="translate(0 0)"/><path class="cls-1" d="M21.33,53.26s.11,0,.07.09c-.15.44-.41.73-.56,1.17l.05,0-.5,1c-.25.65-.49,1.3-.71,1.95,0,0,.05,0,0,.06-.08.28-.24.64-.39,1l-.05.18s0,.07,0,.08l-.18.47c-.56,1.94-1.06,3.93-1.55,6.1-.08.46-.15.93-.25,1.37-.16.64-.42,1.46-.6,2.08.25,0-.05,1.52.26,1.28a3.67,3.67,0,0,0-.22,1.09c.17.14.3.52.15,1.66-.07.44-.31,1.09-.31,1.25s.27-.53.27-.28c.81-3.21,1.56-6.32,2.55-9.5.12-.56.75-2.67,1.52-4.84s1.68-4.4,2.09-5.29l.06-.17c.44-1,1-2.17,1.26-3l.38-1.22-.34.43a6.67,6.67,0,0,0,.42-.94c.32-.86,0-.45-.31-.2s-.12-.16-.36.17l.33-.64c-.05-.06-.37.81-.37.58s.25-.53.38-.79c-.13,0-.48.88-.54.8s.47-.67.4-.77-.15.24-.22.37c.37-.81.5-1.3,0-.63.13-.25.35-.59.47-.86h0l-.27.48.23-.46-.08.06c-.06.11-.13.22-.19.34l.15-.3a2.08,2.08,0,0,0-.22.21c-.24.33-.51.63-.61.82C22.8,50.05,22,51.64,21.33,53.26Z" transform="translate(0 0)"/><path class="cls-1" d="M24.64,65.71s-.1,0,0-.1c.21-.24.49-.33.69-.57l0-.07.62-.46c.34-.35.67-.7,1-1.06,0,0,0,0,0-.06a7.16,7.16,0,0,1,.55-.54l.08-.1a.08.08,0,0,0,0-.07l.26-.24c.87-1.11,1.72-2.27,2.62-3.53.16-.28.33-.57.51-.83s.7-.79,1-1.13c-.22-.1.39-1,.07-1,.2-.23.49-.58.45-.64s-.13-.49.28-1.19c.17-.26.54-.58.57-.69s-.36.23-.3.06c-1.5,1.75-2.85,3.52-4.39,5.25a34.36,34.36,0,0,1-2.31,2.66c-1.09,1.17-2.29,2.32-2.8,2.77l-.09.09c-.55.5-1.21,1.11-1.63,1.58l-.55.71.36-.15a3,3,0,0,0-.53.48c-.43.47-.08.34.22.3s.06.18.32,0l-.4.32c0,.06.46-.42.42-.25s-.31.27-.47.4c.11,0,.57-.42.6-.33s-.52.26-.48.37.17-.1.25-.16c-.46.41-.67.71-.15.45-.16.12-.4.26-.55.4h0l.31-.22-.28.22h.08c.07,0,.15-.09.22-.15l-.18.14.22,0c.26-.13.54-.22.66-.31C22.77,67.33,23.73,66.55,24.64,65.71Z" transform="translate(0 0)"/><path class="cls-1" d="M19.26,68.07s.08,0,.09,0-.14.11-.14.2l.06,0-.16.13-.13.32,0,0c0,.06-.07.09-.11.14v0l0,0a.34.34,0,0,1-.06.06,2.11,2.11,0,0,1-.6,1,.78.78,0,0,1-.21.23,1,1,0,0,1-.41,0c.05.24-.3.35-.25.58-.11,0-.27,0-.29,0a.51.51,0,0,1-.58.4c-.15,0-.31-.2-.37-.19s.1.21,0,.23a2.7,2.7,0,0,0,1.62.33,3.87,3.87,0,0,0,1.46-.48,5.84,5.84,0,0,0,1.07-1.06,7.31,7.31,0,0,0,.76-1.36v0a1.68,1.68,0,0,0,.14-.84,2.79,2.79,0,0,0-.12-.34l-.13.11c0-.1.05-.2,0-.25-.06-.23-.2-.12-.36-.07s-.17,0-.26,0l0-.16c-.07,0,0,.2-.1.14s0-.13,0-.19-.07.21-.15.18.14-.15,0-.18,0,.06,0,.09c0-.19-.1-.31-.24-.16,0,0,.07-.13.06-.19h0l0,.1,0-.1h0s0,0,0,.08v-.07l-.11,0c-.08.07-.19.13-.2.17Q19.43,67.63,19.26,68.07Z" transform="translate(0 0)"/><path class="cls-1" d="M19.78,67.46a.25.25,0,0,1,.09,0s-.12,0-.1.08l.06,0-.13,0-.12.28,0,0c0,.05-.07.09-.11.14v0l0,0a.34.34,0,0,1-.06.06,9.07,9.07,0,0,1-.34,1,1.07,1.07,0,0,1-.06.27,2.09,2.09,0,0,1-.29.23c.16.16,0,.42.21.57-.06,0-.16.11-.12.17a.62.62,0,0,1,.08.61c-.05.07-.21.08-.21.13s.17,0,.16.13a6.16,6.16,0,0,0,1.48-1.31,8.65,8.65,0,0,1,.57-.85l.36-.56a3.15,3.15,0,0,0,.28-.55v0a1.32,1.32,0,0,0,0-1,1.44,1.44,0,0,0-.27-.33,1.89,1.89,0,0,1-.06.18c0-.12-.08-.22-.14-.24-.22-.15-.24,0-.34.15s-.16.06-.19.14a.7.7,0,0,0-.06-.09c-.06,0,.11.09,0,.11s-.06-.06-.08-.09.05.12,0,.15,0-.14-.06-.09,0,0,0,.05a.16.16,0,0,0-.25.08s0-.06,0-.06h0s0,0,0,0l0,0,0,0s0,0,0,0h0l-.06.06a.53.53,0,0,1-.11.11,0,0,0,0,1-.06,0Z" transform="translate(0 0)"/><path class="cls-1" d="M13.42,73.58s.11,0,0,.11c-.26.29-.58.41-.84.71l0,.06-.75.58L10.64,76.3s0,0,0,.06-.43.4-.69.64l-.1.12a.1.1,0,0,0,0,.07l-.32.29C8.38,78.77,7.24,80.1,6,81.55c-.24.32-.48.65-.73.94s-.93.91-1.33,1.3c.22.1-.65,1.15-.29,1.12a3.44,3.44,0,0,0-.64.72c.08.2,0,.56-.55,1.35-.25.29-.72.66-.79.79s.45-.27.34-.07l6-6c.62-.77,5.35-5.4,6.63-6.52l.11-.1c.69-.63,1.5-1.41,2-2l.67-.87-.41.22a4.6,4.6,0,0,0,.63-.62c.52-.6.11-.39-.22-.3s-.06-.18-.36,0l.46-.41c0-.07-.54.54-.49.34s.37-.35.55-.51c-.12,0-.66.55-.69.46s.6-.38.56-.49-.19.14-.29.22c.55-.54.79-.9.19-.51.18-.16.47-.36.65-.54h0l-.36.29.33-.29-.09,0-.26.2.21-.19-.25.09a8.09,8.09,0,0,0-.75.45C15.66,71.56,14.52,72.56,13.42,73.58Z" transform="translate(0 0)"/><path class="cls-1" d="M7.4,79.33s-.12,0-.05-.11c.24-.45.57-.71.81-1.16l0-.06.74-1c.41-.64.83-1.25,1.26-1.86,0,0-.05,0,0-.06.17-.26.46-.58.74-.92l.12-.15A.09.09,0,0,0,11,74l.37-.39a14.31,14.31,0,0,1,5.07-4.24,11.36,11.36,0,0,1,1.37-.65c.69-.26,1.61-.47,2.31-.65-.17-.19,1.51-.77,1.1-.9a4.28,4.28,0,0,0,1.17-.4c.05-.22.35-.52,1.44-1.07a11.3,11.3,0,0,0,1.25-.56c.21-.17-.61.15-.4,0-3.13,1.46-6.87,1.73-10.46,3.7a20.44,20.44,0,0,0-1.85,1.31,20.68,20.68,0,0,0-2.65,2.65A58.13,58.13,0,0,0,5.9,78.07l-.1.17c-.66,1-1.43,2.25-1.91,3.16l-.6,1.3.42-.45a7.57,7.57,0,0,0-.6,1c-.46.92,0,.49.29.24s.09.18.39-.16L3.35,84c0,.07.51-.85.48-.6-.19.24-.34.56-.52.83.14,0,.63-.93.67-.84s-.58.7-.52.81a3.1,3.1,0,0,0,.27-.38c-.5.85-.71,1.37-.12.67-.17.26-.45.61-.61.9H3l.35-.5L3,85.36l.09-.06c.09-.11.17-.23.25-.35l-.2.31.25-.21c.3-.34.62-.64.75-.84C5.27,82.59,6.35,81,7.4,79.33Z" transform="translate(0 0)"/><path class="cls-1" d="M10,77.45s-.1,0,0-.1c.2-.25.48-.33.69-.58l0-.06.62-.47,1-1s0,0,0-.06a6.59,6.59,0,0,1,.58-.5l.09-.1a.08.08,0,0,0,0-.07l.28-.22c1-1,2-2.07,3.14-3.15.23-.25.45-.5.69-.72s.88-.63,1.26-.9c-.2-.14.65-.9.34-1,.25-.17.64-.43.62-.5s0-.53.64-1.09c.25-.21.71-.42.78-.51s-.42.12-.31,0a63,63,0,0,0-5.8,4.26C14.27,71,13,72,11.79,73.13s-2.52,2.34-3,2.82L8.65,76A15.23,15.23,0,0,0,7,77.81l-.5.8.35-.21a3.18,3.18,0,0,0-.49.57c-.38.55,0,.35.25.27s.08.17.33,0l-.36.37c0,.06.41-.49.39-.31s-.27.32-.42.47c.12,0,.51-.51.56-.42s-.48.34-.43.44.15-.12.22-.2c-.4.49-.56.82-.08.47-.14.15-.37.32-.5.49h0l.29-.26-.25.26.07,0,.21-.18-.17.17.22-.08a4.71,4.71,0,0,0,.6-.4Z" transform="translate(0 0)"/><path class="cls-1" d="M7.38,80s-.09,0-.06-.08.3-.2.4-.37l0-.06.39-.28c.18-.23.37-.46.54-.7,0,0,0,0,0,0a4.55,4.55,0,0,1,.32-.34l0-.07a.08.08,0,0,0,0,0l.15-.15c.46-.74.91-1.5,1.39-2.32a4.64,4.64,0,0,1,.26-.55c.16-.23.42-.49.6-.7-.21-.11.12-.7-.14-.74.12-.14.29-.36.25-.41s-.21-.4,0-.86c.1-.16.34-.34.35-.42s-.26.11-.24,0c-.92,1.07-1.71,2.17-2.62,3.26A33.07,33.07,0,0,1,6,78.61l0,.06a6.66,6.66,0,0,0-.87,1.1l-.23.52a1.17,1.17,0,0,1,.24-.09,1.19,1.19,0,0,0-.28.34c-.19.35.05.27.26.27s.11.14.27.07l-.21.21c0,.06.23-.29.25-.16a2.26,2.26,0,0,0-.25.28c.1,0,.32-.29.37-.21s-.32.17-.26.26.1-.07.14-.11c-.23.3-.3.52,0,.35a2.06,2.06,0,0,0-.31.28h0l.18-.15-.16.15h.06a.69.69,0,0,0,.13-.11l-.1.11.16,0a1.84,1.84,0,0,0,.42-.2Q6.62,80.81,7.38,80Z" transform="translate(0 0)"/><path class="cls-1" d="M7.34,80.53s-.09,0-.06-.08c.1-.22.33-.29.43-.5l0,0,.41-.4.61-.86s0,0,0,0A3.69,3.69,0,0,1,9,78.16l.05-.08s0,0,0-.06l.17-.19c.56-.87,1.13-1.76,1.81-2.7.13-.21.25-.43.39-.62s.57-.54.82-.78c-.2-.12.32-.78,0-.83.17-.16.42-.38.39-.44s-.12-.47.26-1c.16-.18.49-.36.53-.44s-.32.1-.27,0a35.88,35.88,0,0,0-3.78,3.72c-.17.26-.94,1.16-1.71,2.14s-1.54,2-1.87,2.43l0,.08a9.19,9.19,0,0,0-.92,1.52l-.21.67.25-.18a1.74,1.74,0,0,0-.27.47c-.17.47.07.3.3.22s.13.13.3,0L5,82.39c.05,0,.22-.41.25-.27a2.6,2.6,0,0,0-.23.4c.1,0,.3-.43.37-.36s-.33.29-.25.38.1-.11.14-.18c-.22.41-.26.68.06.39a3,3,0,0,0-.29.41h0l.17-.22-.14.22.06,0L5.29,83l-.1.14.17-.07a2.76,2.76,0,0,0,.41-.35Z" transform="translate(0 0)"/><path class="cls-1" d="M9.34,79.46s-.11,0,0-.1c.23-.29.54-.4.77-.68l0-.07.7-.54,1.17-1.17s-.05,0,0-.06a8.44,8.44,0,0,1,.65-.59l.1-.1a.06.06,0,0,0,0-.07l.32-.26c1.11-1.16,2.27-2.34,3.58-3.56.26-.28.52-.55.79-.8s1-.72,1.42-1c-.2-.14.77-1,.43-1,.29-.2.73-.5.71-.57s.05-.55.76-1.17c.3-.23.81-.48.9-.58s-.48.15-.34,0a66.88,66.88,0,0,0-6.57,4.84c-.34.33-1.72,1.51-3.13,2.8S8.69,77.4,8.1,78l-.11.1a20.37,20.37,0,0,0-1.81,2L5.61,81,6,80.73a4.37,4.37,0,0,0-.55.65c-.42.63-.05.38.25.27s.08.17.35,0l-.39.43c0,.06.45-.56.42-.37s-.3.37-.46.54c.12,0,.56-.58.61-.5s-.53.42-.48.52S5.91,82.1,6,82c-.45.56-.64.93-.12.52a7.2,7.2,0,0,0-.54.56h0l.31-.31-.28.31.09,0a2.13,2.13,0,0,0,.22-.21l-.18.2.23-.11a6.45,6.45,0,0,0,.66-.48Z" transform="translate(0 0)"/><path class="cls-1" d="M13.94,72.78s-.08,0-.06-.08.26-.12.35-.26l0,0,.33-.18.48-.49s0,0,0-.06a1.82,1.82,0,0,1,.28-.22l0,0a0,0,0,0,0,0,0l.14-.09a21.27,21.27,0,0,1,1.48-1.58,3,3,0,0,1,.33-.37,6.11,6.11,0,0,1,.67-.35c-.15-.18.3-.54.09-.7.14-.06.35-.15.34-.22a.66.66,0,0,1,.29-.73c.14-.09.4-.12.44-.18s-.25,0-.19-.13a15.54,15.54,0,0,0-3.23,1.75c-.14.16-.8.65-1.45,1.21s-1.3,1.16-1.58,1.41l0,0a4,4,0,0,0-.77,1c-.06.15-.11.31-.16.47l.21-.07c-.1.11-.21.23-.21.3-.13.32.07.25.27.25s.12.13.26.07l-.16.19c0,.05.17-.26.2-.14s-.11.17-.18.25c.09,0,.24-.25.3-.18s-.26.14-.19.22.08-.06.11-.1c-.17.27-.19.46.08.32-.06.07-.19.15-.24.24h0l.14-.13-.11.13h0l.11-.08-.08.09.14,0A1.79,1.79,0,0,0,12.7,74Z" transform="translate(0 0)"/><path class="cls-1" d="M14.8,72.57s-.08,0-.05-.09.28-.1.38-.22l0-.06.35-.15.53-.47a0,0,0,0,1,0,0,1.69,1.69,0,0,1,.3-.21l0,0a.43.43,0,0,0,0,0l.14-.09,1.43-1.64a1.91,1.91,0,0,1,.28-.4,5,5,0,0,1,.6-.43c-.17-.16.19-.58,0-.7.12-.09.3-.22.27-.27a.68.68,0,0,1,.1-.76c.1-.12.34-.19.36-.26s-.24,0-.21-.09c-.95.64-1.77,1.37-2.67,2.07A29,29,0,0,1,13.68,71l0,0a4.43,4.43,0,0,0-.84.76c-.08.13-.15.27-.23.41l.22,0c-.12.09-.24.17-.26.24-.19.27,0,.25.21.3s.08.16.23.13l-.2.15c0,.05.22-.22.23-.09a1.37,1.37,0,0,0-.23.19c.09,0,.29-.18.34-.1s-.3.07-.24.17.09,0,.13-.07c-.22.22-.29.4,0,.33a2.19,2.19,0,0,0-.29.17h0l.16-.09-.14.1,0,0a.67.67,0,0,0,.12-.06l-.09.07.14,0a1.73,1.73,0,0,0,.37-.07C13.83,73.26,14.32,72.92,14.8,72.57Z" transform="translate(0 0)"/><path class="cls-1" d="M18.7,70.07s-.08,0-.05-.09.28-.12.37-.25l0-.06.35-.18c.17-.18.34-.35.5-.53,0,0,0,0,0,0a2.71,2.71,0,0,1,.29-.26l0-.05a.08.08,0,0,0,0,0l.14-.11c.41-.59.81-1.2,1.22-1.86a3.77,3.77,0,0,1,.22-.45,6.69,6.69,0,0,1,.52-.54c-.19-.13.08-.62-.17-.69.11-.11.26-.27.21-.32a.69.69,0,0,1-.06-.76c.08-.14.29-.26.29-.33s-.23.06-.22,0c-.77.82-1.43,1.69-2.22,2.51a17.86,17.86,0,0,1-2.57,2.6l0,0a4.57,4.57,0,0,0-.79.8l-.22.42a.82.82,0,0,1,.21,0c-.12.09-.23.18-.25.25-.18.27,0,.25.22.29s.09.16.24.13l-.2.15c0,.06.22-.22.23-.1a2.2,2.2,0,0,0-.23.2c.08.05.29-.19.33-.11s-.29.08-.24.18.09,0,.13-.07c-.22.22-.29.41,0,.32a1.81,1.81,0,0,0-.29.19h0l.17-.1-.14.11.05,0,.12-.07-.09.07.14,0a1.73,1.73,0,0,0,.38-.08A18,18,0,0,0,18.7,70.07Z" transform="translate(0 0)"/><path class="cls-1" d="M20.93,66.07s-.09,0-.08-.07.25-.31.31-.51l-.05,0,.31-.42.39-.89s0,0,0,0a2.92,2.92,0,0,1,.24-.45l0-.08,0-.05.12-.2c.32-.9.64-1.81,1-2.79a5.36,5.36,0,0,1,.19-.64c.14-.29.38-.61.54-.88-.22-.07.07-.78-.21-.77.11-.17.28-.43.23-.48s-.25-.4-.06-.93c.09-.19.34-.43.34-.52s-.26.17-.25,0a45.79,45.79,0,0,0-2.42,4.12c-.2.52-1.86,3.84-2.29,4.69l0,.08a7.66,7.66,0,0,0-.58,1.48l-.08.64a1.2,1.2,0,0,1,.21-.19,1.25,1.25,0,0,0-.17.46c-.09.44.12.26.33.17s.14.11.28,0l-.14.31c.05,0,.13-.4.19-.27a3.53,3.53,0,0,0-.15.39c.1,0,.22-.42.29-.37s-.26.3-.17.37.07-.11.1-.17c-.13.4-.13.65.13.35a3.93,3.93,0,0,0-.21.41h0l.13-.23-.1.22.05,0a.86.86,0,0,0,.1-.16l-.07.15a1.19,1.19,0,0,0,.15-.09,2.78,2.78,0,0,0,.35-.36Z" transform="translate(0 0)"/><path class="cls-1" d="M20.29,63.5s-.09,0-.08-.06c0-.24.24-.38.29-.61l-.05,0,.3-.51.37-1s-.05,0,0,0a2.89,2.89,0,0,1,.24-.52l0-.1,0-.05.12-.24c.32-1,.66-2.06,1.09-3.17a4,4,0,0,1,.23-.72,9.12,9.12,0,0,1,.6-1c-.23-.07.11-.86-.17-.84.12-.2.31-.49.27-.54s-.23-.43,0-1c.12-.23.39-.5.41-.59s-.29.19-.27,0a36.57,36.57,0,0,0-2.77,4.73c-.1.3-.62,1.41-1.13,2.59s-1,2.43-1.19,2.93l0,.1A8.41,8.41,0,0,0,18,64.56l0,.75a2.6,2.6,0,0,1,.2-.28,1.53,1.53,0,0,0-.12.62c0,.64.18.25.36.09s.16.07.27-.12a2.25,2.25,0,0,0-.06.36c.05,0,0-.45.12-.33a1,1,0,0,0,0,.42c.06,0,.08-.46.17-.43s-.18.36-.06.39,0-.12,0-.18c0,.41.18.4.24.21,0,.07,0,.17.05.22h0a.56.56,0,0,1,0-.12.31.31,0,0,0,.05.1l0,0v-.09a.14.14,0,0,0,0,.07l.07-.09c.05-.06.16-.11.17-.17,0-.22.25-.73.4-1.15Z" transform="translate(0 0)"/><path class="cls-1" d="M19.73,66.48s-.09,0-.09,0,.2-.27.23-.46l-.06,0,.24-.37.26-.77s0,0,0,0a2.58,2.58,0,0,1,.18-.39l0-.07a.11.11,0,0,0,0,0l.1-.17c.2-.78.43-1.57.72-2.41a3.29,3.29,0,0,1,.15-.56,7,7,0,0,1,.47-.73c-.22-.09,0-.69-.24-.71.1-.15.26-.37.21-.41s-.26-.39-.08-.85c.08-.17.32-.36.32-.43s-.25.12-.24,0a23.88,23.88,0,0,0-2.18,3.56c-.06.24-.46,1.08-.84,2s-.73,1.85-.89,2.23l0,.08a5,5,0,0,0-.35,1.34l0,.56.17-.18a1.21,1.21,0,0,0-.09.42c0,.39.17.21.36.12s.15.08.27-.06l-.09.28c.06,0,.06-.36.14-.25a3,3,0,0,0-.08.35c.1,0,.14-.39.22-.34s-.2.28-.1.33.05-.1.07-.16c-.06.36,0,.57.19.29a2.35,2.35,0,0,0-.14.37h0l.08-.21-.06.2.05,0a1,1,0,0,0,.07-.15l0,.13.13-.08a2.42,2.42,0,0,0,.27-.34C19.28,67.7,19.51,67.07,19.73,66.48Z" transform="translate(0 0)"/><path class="cls-1" d="M20.91,66.91s-.1,0-.06-.09.37-.28.51-.5l0-.06.47-.4.71-.9s0,0,0,0a3.22,3.22,0,0,1,.41-.45l.05-.09a.07.07,0,0,0,0-.06l.2-.2,2-2.88a7.48,7.48,0,0,1,.41-.67c.24-.29.59-.61.85-.87-.21-.11.32-.84,0-.87.17-.17.43-.43.4-.49s-.14-.47.22-1c.16-.2.49-.42.52-.51s-.33.14-.27,0c-1.36,1.31-2.54,2.7-3.82,4.1-.37.54-3.21,3.83-4,4.67l-.06.08a9.93,9.93,0,0,0-1.13,1.49L18,67.8l.28-.17a2.19,2.19,0,0,0-.35.47c-.25.47,0,.31.27.26s.11.15.3,0l-.26.31s.29-.41.3-.26a3.68,3.68,0,0,0-.3.39c.1,0,.38-.41.43-.34s-.38.28-.31.37.11-.1.17-.16c-.29.4-.38.68,0,.4-.1.12-.27.27-.37.41h0l.22-.22-.19.21h.07a.75.75,0,0,0,.16-.15l-.13.15.18-.06A3.47,3.47,0,0,0,19,69.1Q20,68,20.91,66.91Z" transform="translate(0 0)"/><path class="cls-1" d="M21.56,67.05s-.08,0,0-.09.34-.14.48-.3l0-.06.43-.22.67-.61s0,0,0,0a2.51,2.51,0,0,1,.37-.3l0-.06a0,0,0,0,0,0,0l.18-.13c.58-.67,1.14-1.37,1.74-2.13a3.3,3.3,0,0,1,.33-.52c.19-.22.48-.44.69-.64-.19-.13.21-.69,0-.76.13-.13.33-.32.29-.38s-.17-.42.09-.85c.11-.16.37-.32.39-.39s-.27.08-.25,0c-1,1-1.92,2-3,3a26.23,26.23,0,0,1-3.45,3l-.05.05a7,7,0,0,0-1.07.92L19,66.9l.26,0a1.05,1.05,0,0,0-.34.28c-.26.31,0,.27.2.31s.07.17.25.12l-.26.18c0,.06.3-.25.29-.12a3.4,3.4,0,0,0-.3.23c.08,0,.37-.22.4-.14s-.35.11-.31.21.11-.05.17-.08c-.3.25-.41.45-.06.35a2.67,2.67,0,0,0-.36.22h0l.21-.12-.19.13H19a.55.55,0,0,0,.15-.08l-.12.09h.16a3.13,3.13,0,0,0,.46-.11A22.57,22.57,0,0,0,21.56,67.05Z" transform="translate(0 0)"/><path class="cls-1" d="M24.82,64.25s-.1,0-.05-.09.44-.3.61-.53l0-.06.55-.42c.29-.32.58-.63.86-1,0,0,0,0,0,0s.3-.3.48-.48l.07-.09a.16.16,0,0,0,0-.07l.22-.21c.78-1,1.55-2,2.37-3.13.16-.26.31-.51.48-.74s.65-.68.93-1c-.21-.11.37-.91.06-.92.19-.2.46-.5.43-.56s-.13-.48.25-1.09c.17-.23.52-.49.55-.59s-.34.18-.29,0c-1.42,1.51-2.71,3-4.14,4.56-.39.6-3.69,4.09-4.6,4.92l-.08.08a14.64,14.64,0,0,0-1.39,1.52l-.44.69.32-.16a2.3,2.3,0,0,0-.43.48c-.35.47,0,.32.24.28s.08.17.3,0l-.32.31c0,.06.37-.41.36-.25a4.78,4.78,0,0,0-.39.39c.11,0,.47-.41.51-.33s-.44.27-.39.37.14-.1.21-.16c-.38.41-.52.7-.08.43a5.72,5.72,0,0,0-.46.4h0l.26-.22-.23.22h.07a.9.9,0,0,0,.19-.15l-.15.15.2,0a5.08,5.08,0,0,0,.57-.31C23.24,65.77,24.05,65,24.82,64.25Z" transform="translate(0 0)"/><path class="cls-1" d="M26.17,62.18s-.09,0-.06-.08.34-.26.47-.45l0-.06.43-.36c.22-.27.43-.54.64-.82,0,0,0,0,0,0A4.13,4.13,0,0,1,28,60l0-.08a.06.06,0,0,0,0-.06l.17-.18c.55-.86,1.09-1.75,1.67-2.71a6.36,6.36,0,0,1,.32-.64,9.34,9.34,0,0,1,.69-.84c-.21-.1.19-.8-.09-.82.14-.16.34-.42.3-.47s-.2-.43.06-1c.11-.19.39-.42.4-.5s-.28.15-.26,0c-1.07,1.28-2,2.6-3,3.9a45.52,45.52,0,0,1-3.41,4.22l-.06.07a9.71,9.71,0,0,0-1,1.31l-.29.6.27-.13a1.47,1.47,0,0,0-.32.41c-.24.41,0,.29.26.26s.1.15.28,0l-.24.26c0,.06.27-.35.28-.21a2.3,2.3,0,0,0-.28.34c.09,0,.36-.35.41-.28s-.36.23-.3.32.11-.09.16-.14c-.28.35-.36.61,0,.38a4,4,0,0,0-.36.35h0l.21-.19-.18.19h.07l.15-.13-.12.12.17,0a3.67,3.67,0,0,0,.47-.25C25,63.48,25.58,62.84,26.17,62.18Z" transform="translate(0 0)"/><path class="cls-1" d="M23.36,63.48s-.1,0-.06-.08c.13-.26.37-.36.51-.62l0-.05.47-.5L25,61.16s0,0,0,0a6,6,0,0,1,.41-.54l.05-.1a.06.06,0,0,0,0-.06l.2-.24c.64-1.08,1.28-2.19,2-3.36.14-.27.27-.54.42-.78s.61-.73.87-1c-.22-.1.31-.94,0-.93.17-.21.44-.52.4-.58s-.16-.48.22-1.11c.16-.23.5-.52.53-.62s-.34.2-.29,0c-1.4,1.58-2.61,3.22-3.91,4.9-.38.62-3.24,4.56-4,5.57l-.06.09a13.21,13.21,0,0,0-1.12,1.77l-.3.77.29-.22a2.22,2.22,0,0,0-.34.56c-.24.53,0,.32.29.23s.11.14.31,0l-.26.37c0,.06.29-.48.3-.31a5.16,5.16,0,0,0-.29.46c.11,0,.37-.5.43-.43s-.38.35-.31.44.12-.13.17-.2c-.28.48-.37.79,0,.44a4.37,4.37,0,0,0-.37.48h0l.21-.26-.18.26.07,0a1.39,1.39,0,0,0,.15-.19l-.12.17.19-.09a5.23,5.23,0,0,0,.49-.42Z" transform="translate(0 0)"/><path class="cls-1" d="M23.87,59.61s-.09,0-.07-.08.29-.24.38-.43l-.05-.05.37-.35.5-.79s-.05,0,0,0a2.27,2.27,0,0,1,.3-.39l0-.08a.09.09,0,0,0,0,0l.15-.17,1.33-2.52a4.56,4.56,0,0,1,.26-.59,8.94,8.94,0,0,1,.62-.76c-.21-.11.14-.74-.13-.77.12-.15.31-.38.27-.43s-.21-.42,0-.9c.11-.18.37-.38.39-.46s-.28.12-.25,0c-1,1.14-1.85,2.36-2.77,3.59-.25.47-2.28,3.35-2.82,4.08l-.05.07a7.46,7.46,0,0,0-.78,1.3l-.17.58.23-.14a1.17,1.17,0,0,0-.23.41c-.15.4.07.27.29.22s.13.13.29,0l-.19.27c0,.05.19-.35.23-.22a2.8,2.8,0,0,0-.21.34c.1,0,.28-.36.34-.29s-.3.23-.23.32.09-.1.13-.15c-.19.35-.23.6.07.36a2.48,2.48,0,0,0-.27.35h0l.16-.19-.13.18h.06l.12-.13-.09.12.16-.05a2.68,2.68,0,0,0,.39-.28C22.94,60.89,23.42,60.25,23.87,59.61Z" transform="translate(0 0)"/><path class="cls-1" d="M23.54,59.87s-.09,0-.07-.07.27-.3.34-.51l0,0,.33-.42.42-.89s-.05,0,0,0a3.88,3.88,0,0,1,.26-.46l0-.08,0,0,.12-.2,1-2.84a6.36,6.36,0,0,1,.18-.66c.13-.29.36-.63.51-.9-.22-.07,0-.8-.24-.77.1-.19.26-.46.21-.5s-.27-.39-.11-.94c.07-.2.3-.45.3-.54s-.25.18-.25,0c-.82,1.39-1.47,2.8-2.24,4.22-.17.54-1.88,3.84-2.37,4.66l0,.08a8.07,8.07,0,0,0-.67,1.45L21,61l.23-.17a1.52,1.52,0,0,0-.21.45c-.12.43.1.27.32.19s.14.11.29,0l-.17.3c.05,0,.17-.39.22-.26a3.36,3.36,0,0,0-.19.38c.11,0,.26-.41.33-.35s-.29.28-.21.36.09-.11.12-.17c-.17.39-.19.65.1.36a3.73,3.73,0,0,0-.25.39h0l.15-.21-.12.21.06,0a.83.83,0,0,0,.11-.15l-.08.14.16-.07a2.81,2.81,0,0,0,.38-.35C22.72,61.33,23.14,60.61,23.54,59.87Z" transform="translate(0 0)"/><path class="cls-1" d="M22.93,58s-.09,0-.09-.05c0-.23.19-.36.21-.58l-.06,0,.23-.48.22-1s-.05,0,0,0a2.82,2.82,0,0,1,.16-.5v-.08s0,0,0,0l.09-.22c.18-1,.37-1.92.67-3a5.8,5.8,0,0,1,.16-.66,6.79,6.79,0,0,1,.51-.92c-.23-.07.06-.79-.21-.78.11-.19.29-.45.25-.5s-.25-.42,0-1c.12-.2.39-.44.41-.53s-.29.16-.26,0a17.06,17.06,0,0,0-2.5,4.46c-.07.29-.46,1.36-.79,2.48l-.79,2.77v.08a7.84,7.84,0,0,0-.3,1.63l0,.65.17-.23a1.61,1.61,0,0,0-.08.5c0,.46.17.24.36.1s.16.08.27-.09l-.08.34c.06,0,.06-.43.14-.31a2.61,2.61,0,0,0-.08.42c.1,0,.14-.47.22-.43s-.2.36-.1.41.05-.13.07-.2c-.06.44,0,.69.19.33a4,4,0,0,0-.14.46h0l.09-.25-.06.24.05,0a1.34,1.34,0,0,0,.07-.18l0,.16.13-.12a1.93,1.93,0,0,0,.27-.44C22.49,59.63,22.72,58.81,22.93,58Z" transform="translate(0 0)"/><path class="cls-1" d="M22.21,58s-.09,0-.08-.07.25-.32.3-.53l-.05,0,.3-.44.39-.9s-.05,0,0-.05a3.62,3.62,0,0,1,.25-.45l0-.09,0,0,.12-.2c.34-.91.71-1.83,1.17-2.81.08-.22.16-.44.25-.64s.44-.59.63-.84c-.21-.1.16-.79-.12-.8.13-.17.34-.42.3-.47s-.2-.44.07-1c.13-.19.41-.4.43-.49s-.29.14-.26,0a27.44,27.44,0,0,0-2.94,4.06c-.11.27-.67,1.24-1.2,2.29s-1,2.16-1.26,2.61l0,.08a7.8,7.8,0,0,0-.53,1.59l0,.66a2,2,0,0,1,.2-.21,1.58,1.58,0,0,0-.15.49c-.05.47.15.26.35.14s.15.1.28-.06l-.12.33c.05,0,.1-.42.18-.29a2.46,2.46,0,0,0-.13.41c.1,0,.18-.46.26-.41s-.23.34-.14.4.07-.12.09-.19c-.1.43-.08.68.16.35a2.77,2.77,0,0,0-.18.43h0l.11-.24-.09.23.06,0a1.3,1.3,0,0,0,.08-.17l0,.15.14-.1a2.43,2.43,0,0,0,.31-.4C21.59,59.51,21.91,58.75,22.21,58Z" transform="translate(0 0)"/><path class="cls-1" d="M24.17,54.69s-.08,0-.08-.06.21-.16.24-.3l0,0,.25-.23.27-.55s0,0,0,0a1.57,1.57,0,0,1,.18-.27l0-.05s0,0,0,0L25,53c.22-.57.44-1.16.71-1.79a2.32,2.32,0,0,1,.12-.42,4.22,4.22,0,0,1,.42-.51c-.2-.12,0-.57-.23-.64.08-.1.22-.25.17-.3a.64.64,0,0,1-.1-.72c.07-.13.27-.24.27-.3s-.22,0-.22-.05a20.09,20.09,0,0,0-1.9,2.48c-.15.34-1.42,2.41-1.74,2.94l0,0a3.06,3.06,0,0,0-.41,1c0,.14,0,.29,0,.44l.18-.1c-.07.12-.14.24-.12.3,0,.3.14.21.32.18s.15.1.27,0l-.11.19s.09-.26.16-.16a1.12,1.12,0,0,0-.11.25c.09,0,.17-.26.24-.21s-.22.17-.13.23.06-.06.08-.1c-.09.26-.06.43.16.27,0,.07-.14.16-.16.25h0l.09-.14-.07.14h.05a.34.34,0,0,0,.08-.09l0,.09.13,0a1.59,1.59,0,0,0,.29-.19C23.64,55.59,23.91,55.14,24.17,54.69Z" transform="translate(0 0)"/><path class="cls-1" d="M29.64,57.33s-.07,0-.07-.07.19-.08.22-.18l0,0L30,56.9c.09-.12.17-.25.25-.38s0,0,0,0a.86.86,0,0,1,.16-.18v0s0,0,0,0l.08-.08.52-1.34a2.55,2.55,0,0,1,.07-.32,3.73,3.73,0,0,1,.32-.36c-.2-.12-.07-.46-.3-.55.07-.07.16-.18.11-.22a.62.62,0,0,1-.21-.6c0-.09.2-.16.19-.21s-.19,0-.21-.06c-.51.52-.87,1.11-1.33,1.68a11.25,11.25,0,0,1-1.39,1.9l0,0a1.73,1.73,0,0,0-.37.62l0,.34.16,0c-.07.07-.13.14-.12.19-.05.22.11.21.28.25s.12.13.23.1l-.11.12c0,.05.1-.17.15-.07s-.06.11-.11.16.17-.15.23-.09-.21.06-.13.14.06,0,.08,0c-.1.17-.08.32.12.26,0,0-.13.08-.16.14h0l.09-.07-.07.08.05,0,.07-.05-.05.05.12,0c.11,0,.24,0,.27-.06A10.35,10.35,0,0,0,29.64,57.33Z" transform="translate(0 0)"/><path class="cls-1" d="M29.66,57.31s-.07-.05-.06-.08.2-.06.24-.15l0-.06.24-.1c.1-.11.2-.22.29-.34s0,0,0,0,.11-.1.18-.16l0,0s0,0,0-.05l.08-.06L31.24,55a1.25,1.25,0,0,1,.11-.31,2,2,0,0,1,.35-.31c-.18-.15,0-.47-.23-.58.07-.07.18-.16.14-.21a.6.6,0,0,1-.15-.61c.05-.09.22-.13.22-.18s-.19,0-.2-.09c-.57.45-1,1-1.52,1.49a12.43,12.43,0,0,1-1.6,1.71l0,0a1.71,1.71,0,0,0-.45.56l-.07.33H28c-.08.06-.15.12-.14.18-.08.21.08.21.24.27s.11.14.22.13l-.12.11s.12-.16.16-.05-.08.1-.13.14.18-.13.23-.06-.21,0-.14.12.06,0,.08,0c-.11.16-.12.31.09.27,0,0-.14.07-.18.13h0l.1-.07-.08.08,0,0,.08,0-.06,0,.12,0c.11,0,.24,0,.27,0A10.47,10.47,0,0,0,29.66,57.31Z" transform="translate(0 0)"/><path class="cls-1" d="M26.91,51.09s.08,0,.08,0-.14.06-.15.15l.06,0-.17.1a1.88,1.88,0,0,0-.12.3l0,0s-.06.09-.09.14v0l0,0-.05.06-.12,1a.74.74,0,0,1,0,.25,1.07,1.07,0,0,1-.19.28c.21.1.18.37.41.44,0,.05-.09.14,0,.17a.72.72,0,0,1,.35.48c0,.07-.14.12-.12.16s.17,0,.2.06a10.76,10.76,0,0,0,.76-1.32,6.07,6.07,0,0,1,.75-1.48v0a.89.89,0,0,0,.18-.49l-.06-.26h-.14c0-.05.08-.11.05-.15s-.15-.17-.31-.2-.14-.1-.23-.09l.06-.09c-.05,0,0,.14-.12.06s0-.09.06-.13-.11.12-.18.07.17,0,.08-.11,0,0-.06,0c0-.13,0-.25-.17-.21,0,0,.09-.06.11-.11h0s0,0-.06.06l0-.07h0l-.06,0,0,0-.11,0a1.26,1.26,0,0,0-.22,0A6.36,6.36,0,0,0,26.91,51.09Z" transform="translate(0 0)"/><path class="cls-1" d="M27.25,52.78s.08,0,.07.07-.24.18-.3.33l.05,0-.3.25c-.12.2-.25.41-.36.61,0,0,0,0,0,0a2.42,2.42,0,0,1-.23.3l0,.05a.06.06,0,0,0,0,0l-.11.14-.87,2a2.35,2.35,0,0,1-.15.47,6.61,6.61,0,0,1-.44.6c.21.1,0,.61.25.65-.09.11-.22.29-.17.34a.66.66,0,0,1,.14.74c-.07.14-.27.29-.27.36s.23-.09.23,0c.71-.9,1.27-1.85,1.92-2.8a29.82,29.82,0,0,1,2-3.1l0-.06a3.74,3.74,0,0,0,.56-1l.1-.47a.88.88,0,0,1-.2.09.8.8,0,0,0,.18-.31c.1-.32-.1-.24-.29-.23s-.13-.13-.26,0l.15-.2s-.15.27-.2.15a1,1,0,0,0,.16-.26c-.09,0-.22.27-.28.2s.25-.16.18-.24-.08.07-.11.11c.15-.27.16-.47-.09-.31.05-.08.17-.17.22-.26h0l-.12.14.1-.14h-.05a.28.28,0,0,0-.1.09l.07-.09-.14,0a1.45,1.45,0,0,0-.34.18C28,51.81,27.59,52.29,27.25,52.78Z" transform="translate(0 0)"/><path class="cls-1" d="M27.72,53.37s.08,0,.07.07-.25.19-.32.35l.05,0-.3.27c-.14.21-.27.43-.39.64,0,0,0,0,0,0a2.21,2.21,0,0,1-.23.31l0,.06a.09.09,0,0,0,0,.05l-.12.14c-.31.67-.6,1.36-.94,2.1a2.56,2.56,0,0,1-.16.49,7.36,7.36,0,0,1-.47.63c.21.1,0,.64.23.68-.09.12-.23.31-.19.36a.68.68,0,0,1,.12.77c-.07.15-.28.31-.28.38s.23-.09.23,0c.75-1,1.35-2,2-3a33.49,33.49,0,0,1,2.17-3.28l0-.06a4.1,4.1,0,0,0,.61-1c.05-.16.08-.32.12-.49l-.21.1c.09-.13.19-.25.19-.32.11-.33-.09-.25-.3-.23s-.12-.13-.26-.05l.16-.21c-.05,0-.16.28-.21.16s.11-.18.17-.26-.23.27-.29.21.26-.17.19-.25-.08.07-.11.11c.15-.28.17-.49-.1-.31a2.91,2.91,0,0,0,.24-.27h0l-.13.14.11-.15H29.4l-.1.1.07-.09-.14,0a1.94,1.94,0,0,0-.35.2C28.48,52.36,28.08,52.86,27.72,53.37Z" transform="translate(0 0)"/><path class="cls-1" d="M28,54.17s.09,0,.07.08-.31.25-.4.45l0,0-.38.36c-.18.26-.36.53-.52.81,0,0,0,0,0,0a2.94,2.94,0,0,1-.31.41l0,.07a.09.09,0,0,0,0,.06l-.15.18c-.44.84-.86,1.71-1.31,2.64a5.7,5.7,0,0,1-.24.62c-.15.27-.41.57-.58.82.21.09-.1.76.18.77-.12.16-.29.41-.24.46s.24.4,0,.91c-.09.19-.34.41-.34.5s.26-.16.25,0c.9-1.25,1.65-2.54,2.53-3.82a41.64,41.64,0,0,1,2.83-4.14l0-.07a8.51,8.51,0,0,0,.84-1.28l.21-.58-.24.13a1.51,1.51,0,0,0,.26-.4c.18-.4-.06-.28-.28-.24s-.12-.14-.28,0l.21-.26c-.05-.05-.23.35-.26.21a2.52,2.52,0,0,0,.24-.33c-.1,0-.31.35-.36.28s.32-.23.25-.32-.1.09-.14.14c.22-.34.28-.59,0-.36a3.31,3.31,0,0,0,.3-.34h0l-.18.18.15-.18h-.06l-.13.13.1-.12L30,52a3,3,0,0,0-.43.27C29,52.88,28.5,53.52,28,54.17Z" transform="translate(0 0)"/><path class="cls-1" d="M24.73,53.33s.1,0,.07.08c-.11.25-.33.38-.43.63l.05.05-.41.53c-.18.37-.37.73-.54,1.11,0,0,.05,0,0,.05s-.2.35-.32.57l0,.1a.09.09,0,0,0,0,.06l-.15.26c-.43,1.12-.82,2.28-1.21,3.54a7,7,0,0,1-.2.82c-.13.37-.36.82-.52,1.17.24,0,0,.94.28.86-.1.23-.24.59-.19.63s.3.39.18,1.06c-.07.25-.28.6-.28.7s.25-.27.26-.11c.72-1.81,1.36-3.57,2.18-5.35a23.42,23.42,0,0,1,1.21-2.73c.59-1.22,1.29-2.45,1.6-2.94l.05-.1a12.43,12.43,0,0,0,.91-1.71l.24-.72-.27.2a2.18,2.18,0,0,0,.3-.53c.21-.5-.05-.31-.3-.22s-.12-.14-.3,0L27.2,51s-.25.46-.28.3a3.23,3.23,0,0,0,.27-.44c-.1,0-.35.48-.4.41s.36-.34.28-.42-.11.12-.16.19c.26-.46.33-.76,0-.42a5.66,5.66,0,0,0,.34-.47h0l-.2.26.17-.25h-.06a1.19,1.19,0,0,0-.15.18l.11-.16-.18.08a6.2,6.2,0,0,0-.47.41C25.84,51.55,25.26,52.43,24.73,53.33Z" transform="translate(0 0)"/><path class="cls-1" d="M26.12,53.57s.09,0,.07.08-.3.31-.38.53l.05,0-.36.44c-.17.31-.33.62-.48.94,0,0,.05,0,0,0a4.44,4.44,0,0,1-.28.48l0,.09a.11.11,0,0,0,0,.05l-.13.22c-.38,1-.74,1.94-1.13,3a4.63,4.63,0,0,1-.19.69c-.13.31-.36.68-.52,1,.23.06,0,.83.26.79-.11.19-.26.48-.21.53s.29.38.14,1c-.07.22-.3.5-.3.59s.25-.21.26-.07c.79-1.49,1.44-3,2.23-4.47a45.33,45.33,0,0,1,2.55-4.83l.05-.08a9.54,9.54,0,0,0,.76-1.49l.18-.64-.24.17a1.26,1.26,0,0,0,.24-.46c.16-.45-.07-.28-.3-.21s-.13-.13-.29,0l.2-.31s-.21.4-.25.26a2.46,2.46,0,0,0,.22-.39c-.1,0-.29.42-.35.35s.31-.29.24-.37-.1.11-.14.17c.21-.4.25-.67-.07-.38a3.69,3.69,0,0,0,.29-.4h0l-.17.22.14-.22-.06,0a.61.61,0,0,0-.12.15l.09-.15L28,51a2.5,2.5,0,0,0-.42.34C27.06,52.05,26.57,52.81,26.12,53.57Z" transform="translate(0 0)"/><path class="cls-1" d="M23.44,51s.1,0,.08.07c-.09.25-.29.37-.37.62l.05,0-.35.51a10.86,10.86,0,0,0-.43,1.07s0,0,0,0-.16.35-.25.56l0,.09a.15.15,0,0,0,0,.06l-.12.25a32.51,32.51,0,0,0-.71,3.41,6.32,6.32,0,0,1-.06.77c-.07.36-.22.8-.31,1.15.23,0,.16.86.43.74-.06.23-.13.57-.07.6s.37.31.39.93c0,.24-.15.58-.12.67s.18-.28.22-.14A45.25,45.25,0,0,1,23,57.38a16.68,16.68,0,0,1,.81-2.58A23.92,23.92,0,0,1,25.11,52l0-.09a12.53,12.53,0,0,0,.76-1.58l.19-.68-.24.19a2.17,2.17,0,0,0,.26-.49c.18-.47-.07-.29-.31-.21s-.12-.14-.29,0l.21-.33s-.23.43-.26.28.16-.28.25-.41c-.11,0-.32.44-.38.38s.33-.31.26-.4-.11.12-.15.18c.23-.42.29-.71-.05-.4.09-.13.24-.29.32-.43h0l-.19.24.16-.24-.06,0a1.07,1.07,0,0,0-.14.16l.1-.15-.17.08a2.76,2.76,0,0,0-.44.37A24.67,24.67,0,0,0,23.44,51Z" transform="translate(0 0)"/><path class="cls-1" d="M24.83,53.82s-.08,0-.09,0,.15-.16.14-.27l-.06,0c.05-.07.12-.14.18-.21l.14-.49s-.05,0-.05,0a.89.89,0,0,1,.12-.24v0l0,0,.06-.11c.1-.51.21-1,.37-1.63a2.3,2.3,0,0,1,.05-.39,4.07,4.07,0,0,1,.31-.49c-.21-.09-.09-.51-.34-.56.07-.1.16-.24.11-.28a.62.62,0,0,1-.26-.63c0-.12.19-.23.18-.29s-.2.06-.22,0c-.48.71-.87,1.5-1.31,2.31,0,.17-.3.72-.56,1.34S23.08,53,23,53.24v0a2.37,2.37,0,0,0-.11,1,2.17,2.17,0,0,0,.15.4l.12-.15c0,.13,0,.26,0,.31.1.27.22.11.37,0s.17,0,.25-.07a1.15,1.15,0,0,0,0,.19c.06,0,0-.24.08-.18s0,.15,0,.22,0-.25.12-.23-.12.2,0,.21,0-.07,0-.1c0,.22.14.32.26.13,0,.07-.05.16,0,.23h0s0-.09,0-.13v.12l.05,0a.29.29,0,0,0,0-.09v.08l.1-.07c.07-.1.17-.18.17-.22A9.72,9.72,0,0,1,24.83,53.82Z" transform="translate(0 0)"/><path class="cls-1" d="M23.51,50.86s.1,0,.08.07c-.08.24-.29.36-.37.6l.06,0-.35.5c-.15.35-.3.7-.43,1,0,0,0,0,0,0a5.09,5.09,0,0,1-.26.54l0,.1,0,.05-.13.24c-.31,1.06-.59,2.15-.86,3.33,0,.26-.06.52-.11.75s-.29.78-.41,1.11c.24,0,.08.87.36.78-.08.21-.19.55-.13.58s.33.35.27,1c0,.24-.22.57-.2.66s.22-.26.24-.12c.55-1.68,1-3.33,1.64-5a21.5,21.5,0,0,1,.93-2.55c.48-1.14,1-2.3,1.3-2.76l0-.09A11.23,11.23,0,0,0,26,50.14l.17-.68-.24.2a2.13,2.13,0,0,0,.24-.5c.15-.48-.08-.29-.32-.2s-.12-.13-.29,0l.2-.33s-.21.43-.25.28a2.71,2.71,0,0,0,.23-.41c-.11,0-.3.45-.36.39s.32-.33.24-.41-.1.12-.14.19c.21-.44.25-.72-.07-.39a4.3,4.3,0,0,0,.29-.45h0l-.17.24.14-.23h-.06l-.13.17.1-.15-.17.08a3.46,3.46,0,0,0-.42.39C24.44,49.17,24,50,23.51,50.86Z" transform="translate(0 0)"/><path class="cls-1" d="M24.47,52.63s.1,0,.08.07c-.08.24-.29.36-.37.6l.05,0-.35.49c-.16.34-.32.69-.46,1,0,0,0,0,0,0a5.68,5.68,0,0,1-.28.52l0,.1a.09.09,0,0,0,0,0l-.13.24c-.37,1-.71,2.11-1.08,3.26a5.71,5.71,0,0,1-.18.74c-.13.34-.36.75-.51,1.06.23,0,0,.88.26.82-.1.21-.25.53-.2.57s.29.39.15,1c-.07.23-.3.54-.3.63s.26-.23.26-.08c.79-1.63,1.43-3.25,2.2-4.89a55,55,0,0,1,2.49-5.32l.05-.09a10.94,10.94,0,0,0,.73-1.63l.16-.7-.24.21a1.94,1.94,0,0,0,.24-.51c.14-.49-.09-.3-.32-.2s-.13-.12-.29,0l.19-.35c-.05,0-.2.45-.24.3a4.3,4.3,0,0,0,.21-.43c-.11,0-.29.47-.35.41s.31-.34.23-.42-.09.13-.13.19c.19-.44.23-.72-.08-.39.07-.13.21-.3.28-.45h0l-.16.25.14-.25-.07,0-.12.17.09-.16a.65.65,0,0,0-.16.09,3.16,3.16,0,0,0-.41.4C25.39,51,24.91,51.78,24.47,52.63Z" transform="translate(0 0)"/><path class="cls-1" d="M24.29,54.77s.09,0,.08.06-.24.29-.3.49l.06,0-.29.4c-.12.28-.24.56-.34.84,0,0,.05,0,.05,0s-.13.27-.21.44l0,.07s0,0,0,.05l-.11.2c-.22.86-.41,1.75-.61,2.7a4,4,0,0,1-.06.62c-.08.28-.24.62-.34.89.24,0,.13.72.39.66-.06.17-.15.44-.09.47s.34.31.31.81c0,.19-.19.45-.17.53s.2-.2.23-.08c.47-1.34.83-2.67,1.34-4A25.87,25.87,0,0,1,26,55.71l0-.07a7.26,7.26,0,0,0,.56-1.31l.09-.56-.21.15a1.4,1.4,0,0,0,.18-.41c.1-.39-.11-.25-.32-.19s-.13-.12-.28,0l.16-.27c-.05,0-.16.35-.21.23a2.7,2.7,0,0,0,.17-.34c-.09,0-.23.36-.3.3s.27-.25.19-.32-.08.09-.11.15c.15-.36.17-.6-.11-.34.06-.11.19-.24.24-.36h0l-.13.19.11-.19H26a.71.71,0,0,0-.1.14l.07-.13a.47.47,0,0,0-.15.06c-.14.12-.32.22-.36.3C25,53.41,24.64,54.08,24.29,54.77Z" transform="translate(0 0)"/><path class="cls-1" d="M23.3,53.88s.08,0,.08.06-.22.27-.26.45l.06,0-.26.37c-.09.26-.18.52-.26.79,0,0,.05,0,.05,0a3,3,0,0,1-.17.41v.07l0,0-.08.18c-.15.8-.26,1.62-.35,2.5a3.61,3.61,0,0,1,0,.57,7.66,7.66,0,0,1-.23.82c.23,0,.2.65.46.58-.05.16-.11.4-.05.43s.38.25.41.71c0,.17-.14.41-.11.48s.18-.19.22-.09c.3-1.23.51-2.44.87-3.67A18.84,18.84,0,0,1,25,54.74l0-.06a5.79,5.79,0,0,0,.44-1.19l.05-.52-.19.14a1,1,0,0,0,.15-.37c.07-.36-.12-.24-.33-.19s-.14-.11-.27,0l.14-.25c-.06,0-.13.33-.19.21A3,3,0,0,0,25,52.2c-.1,0-.21.33-.28.28s.25-.23.16-.3-.07.09-.1.14c.13-.33.13-.55-.12-.32,0-.1.16-.22.21-.33h0l-.12.18.1-.18h-.06a.6.6,0,0,0-.09.13l.06-.12-.14.05c-.13.11-.3.2-.34.28A16.49,16.49,0,0,0,23.3,53.88Z" transform="translate(0 0)"/><path class="cls-1" d="M31.64,56.84s.1,0,.05.09c-.16.23-.41.28-.58.49l0,.06-.53.39-.87.86s0,0,0,.06a6.34,6.34,0,0,1-.49.42l-.07.08a0,0,0,0,0,0,.06l-.24.19c-.82.87-1.67,1.76-2.63,2.69a6.89,6.89,0,0,1-.57.63c-.3.26-.74.53-1.06.76.19.15-.52.81-.23.88-.21.15-.54.38-.52.44s0,.5-.46,1c-.21.18-.6.36-.66.44s.37-.09.28.05c1.71-1.12,3.25-2.35,4.87-3.62.24-.26,1.28-1.14,2.35-2.09s2.14-2,2.59-2.41l.08-.08a11,11,0,0,0,1.34-1.56l.38-.71-.31.18a2.06,2.06,0,0,0,.39-.5c.29-.5,0-.33-.26-.26s-.1-.15-.31,0l.29-.33c0-.05-.32.44-.32.27a3.43,3.43,0,0,0,.32-.41c-.1,0-.4.44-.46.36s.41-.29.35-.39-.13.11-.19.18c.32-.43.42-.72,0-.42.11-.13.3-.29.4-.43h0l-.23.23.2-.23h-.07l-.17.16.14-.15-.19.07a3.15,3.15,0,0,0-.51.34C33.1,55.37,32.38,56.12,31.64,56.84Z" transform="translate(0 0)"/><path class="cls-1" d="M5.66,88.75s.07-.08.11,0c.11.31,0,.59.1.9l.06,0c0,.35,0,.24-.08.26a.28.28,0,0,1,0,.14l0,.12s0,.07,0,0l0-.06h0v.09a.56.56,0,0,0,0-.08.51.51,0,0,1-.19-.08l-.82-.9c-.56-.62-1.13-1.26-1.7-1.94-.26-.28-.52-.55-.75-.84S2,86,1.87,85.69A5.33,5.33,0,0,1,1.49,85c-.09.07-.33-.12-.39-.42s.14-.54-.08-.5a2.39,2.39,0,0,1,.56-.4c.16-.1.27-.18.27-.22,0-.2.1-.56,1-1.07.34-.18.93-.31,1-.39s-.51,0-.34-.09a14,14,0,0,0-2,.87l-.53.3a2.06,2.06,0,0,0-.72.65,1.77,1.77,0,0,0-.06,1.82c.07.14.17.31.23.41l.15.21.28.42.58.84,1.19,1.67c.18.2.6.73,1.15,1.42l1.28,1.58,1.83,2.19c.1-.21.19-.61.29-.92l.25-.92a7.53,7.53,0,0,0,.3-1.85,4.36,4.36,0,0,0,0-.88,3.68,3.68,0,0,0,0-.5,7.47,7.47,0,0,0-.12-.77l0-.16a6.51,6.51,0,0,0-1.29-2.68,7.76,7.76,0,0,0-.84-.78l.22.44A2.89,2.89,0,0,0,5,84.66c-.66-.47-.38-.08-.29.24s-.17.07,0,.35a4,4,0,0,0-.41-.41c-.05,0,.53.47.34.43a3.26,3.26,0,0,0-.51-.46c0,.11.55.56.46.6s-.37-.53-.48-.47.15.15.23.24c-.54-.44-.89-.55-.49-.09a4.15,4.15,0,0,0-.56-.46h0l.31.25-.3-.22,0,.08.21.18-.2-.15a2.12,2.12,0,0,0,.11.21c.2.21.32.48.44.57A6.87,6.87,0,0,1,5.66,88.75Z" transform="translate(0 0)"/><path class="cls-1" d="M2.71,87s.06-.06.09,0,0,.2.12.26l.06,0,.06.25.3.35s0,0,.05,0a.83.83,0,0,1,.12.21l0,0,.05,0,0,.1c.35.31.71.63,1.08,1a1.52,1.52,0,0,1,.27.22,2,2,0,0,1,.2.45c.2-.12.45.17.63,0,0,.1.1.24.16.22a.6.6,0,0,1,.64.15c.07.09.06.28.11.3s.07-.18.15-.15a11,11,0,0,0-1-2.22c-.2-.21-1.26-1.78-1.54-2.18l0,0a2,2,0,0,0-.58-.57c-.11-.05-.23-.08-.34-.12v.17c-.07-.08-.13-.16-.19-.16-.22-.1-.22.07-.28.23s-.15.1-.14.22l-.11-.13c-.05,0,.17.13.06.17s-.11-.1-.15-.15.13.2.06.25,0-.22-.13-.16,0,.06,0,.09c-.16-.13-.31-.14-.28.07,0,0-.07-.14-.12-.18h0l.06.11-.07-.09,0,0a.36.36,0,0,0,0,.09l-.05-.06a.23.23,0,0,0,0,.11c0,.12,0,.25,0,.29Z" transform="translate(0 0)"/><path class="cls-1" d="M3.14,86.57s.06-.06.09,0,0,.24.11.32l.06,0,0,.29c.09.16.18.31.28.46,0,0,0,0,0,0a1.07,1.07,0,0,1,.11.26l0,0H4A.56.56,0,0,1,4,88c.33.42.68.85,1,1.35a1.42,1.42,0,0,1,.26.29,3.2,3.2,0,0,1,.17.55c.21-.1.45.26.65.11,0,.11.07.28.14.27h.23l2.41.37-3.38,0a.63.63,0,0,1-.44-.19c-.08-.09-.09-.3-.14-.32s-.06.2-.14.17c.07.19.16.38.24.57l2-.78c-.21-.68-.49-1.32-.75-2-.19-.27-1.13-2.2-1.37-2.7l0,0a2.65,2.65,0,0,0-.53-.76A3.79,3.79,0,0,0,4,84.7a1,1,0,0,1,0,.18c-.06-.1-.11-.21-.17-.22-.22-.17-.24,0-.33.18s-.16.07-.16.2l-.1-.17c-.05,0,.16.18,0,.19s-.1-.12-.13-.19.11.24,0,.28,0-.25-.12-.2,0,.07,0,.11c-.15-.19-.31-.24-.3,0,0-.06,0-.18-.1-.23h0a.69.69,0,0,0,0,.13l-.07-.11,0,0a.17.17,0,0,0,0,.1l0-.08s0,.08,0,.12,0,.26,0,.31C2.74,85.76,2.93,86.17,3.14,86.57Z" transform="translate(0 0)"/><path class="cls-1" d="M4.17,89.92s0-.11.11,0c.21.24.28.5.46.74l1.57-1.22-.09-.11-.07,0-.44-.72-1-1.22s0,.05-.07,0-.31-.42-.5-.67L4,86.62a.1.1,0,0,0-.07,0l-.23-.31L3,85.51c-.1-.08-.19-.13-.32-.25a1,1,0,0,1,.15-.2c.06,0,0,0,.16-.15l.34-.28.22-.19v-.2A1.32,1.32,0,0,0,2.73,83,1.19,1.19,0,0,0,2,83L1.81,83l0,.14a2.35,2.35,0,0,0-.14.72,3.43,3.43,0,0,0,.43,1.78c.08-.09.31.13.53.29s.46.28.47.11c.2.25.54.62.6.59s.54-.09,1.26.64a4.93,4.93,0,0,1,.56,1.1c.16.2-.08-.59.06-.39a10.66,10.66,0,0,0-2-2.57c-.51-.61-.74-1.36-.55-1.65l-.8.19s-.05.24-.06.22.2-.11.22-.08l.07-.77-.17.12c-.11.09-.14.12-.58.44l-1.37,1C1.07,85.83,2,87,3,88.19l1.87,2.39,1.42-1.11-.39-.55-.09-.1c-.46-.66-1-1.47-1.43-2l-.63-.73.1.41a3.73,3.73,0,0,0-.41-.67c-.41-.57-.33-.17-.34.14s-.19,0-.1.33l-.26-.5c-.07,0,.35.59.19.51s-.23-.4-.33-.6c0,.11.33.7.24.71s-.19-.61-.3-.6.07.21.12.31c-.35-.6-.6-.9-.43-.28-.1-.2-.19-.5-.31-.7h0l.16.39-.16-.36v.09c0,.09.06.18.1.28l-.11-.24a2.26,2.26,0,0,0,0,.25,4.29,4.29,0,0,0,.2.78A24,24,0,0,0,4.17,89.92Z" transform="translate(0 0)"/><path class="cls-1" d="M3.38,85.67s-.06,0-.09,0,.06-.1,0-.11l-.06,0a.56.56,0,0,1,0-.12,1.27,1.27,0,0,1-.1-.12l-.05,0s0,0,0-.08H3a.09.09,0,0,1,0,0,1.77,1.77,0,0,1-.5-.49.48.48,0,0,1-.14-.15c0-.08,0-.16,0-.23-.23,0-.29-.24-.53-.26,0-.06.06-.14,0-.16a.58.58,0,0,1-.41-.42c0-.08.12-.15.1-.19s-.17,0-.2,0A2.74,2.74,0,0,0,1.09,85c.06.1.12.46.26.82a8.53,8.53,0,0,0,.4.86l0,0a.82.82,0,0,0,.42.38h.27s0-.1,0-.14.09.1.13.08.18-.13.25-.28.12-.12.13-.21a.34.34,0,0,0,.06.06s-.1,0,0-.1.06,0,.08,0-.06-.09,0-.16,0,.15.06.07,0,0,0,0,.18,0,.2-.16,0,.07,0,.08h0s0-.05,0-.06l0,0,0,0a.06.06,0,0,0,0,0l0,0,0-.09a1.06,1.06,0,0,0,0-.19Z" transform="translate(0 0)"/><path class="cls-1" d="M3.71,85.55a.33.33,0,0,1-.1,0s.11-.07.07-.1H3.61l.1-.08s0-.1,0-.16l-.05,0s0-.05,0-.08v0l0,0,0,0a1.72,1.72,0,0,1-.08-.74.38.38,0,0,1,0-.21c0-.07.14-.11.2-.15-.17-.17-.07-.38-.23-.55,0,0,.14-.08.11-.13a.58.58,0,0,1,0-.61c.07-.06.22,0,.23-.08s-.15-.09-.13-.16a2.73,2.73,0,0,0-1.48,1.22c0,.12-.21.48-.31.89a7,7,0,0,0-.18,1v0a1,1,0,0,0,.16.6l.24.18a.57.57,0,0,1,.08-.13c0,.08,0,.15.08.16s.22,0,.35-.12.17,0,.22-.11a.24.24,0,0,1,0,.08c.07,0-.07-.09,0-.1s0,.06,0,.09,0-.12.08-.14-.08.13,0,.1,0,0,0-.06.18.08.26,0c0,0,0,.08,0,.1h0s0,0,0-.06v0l0,0a.06.06,0,0,0,0,0v0l.08-.06.14-.14Z" transform="translate(0 0)"/><path class="cls-1" d="M65.25,40.12s.12.19-.17,0a14.58,14.58,0,0,0-2.61-1.6l-.1,0a9.44,9.44,0,0,0-2.6-.84A6.94,6.94,0,0,0,54.65,39c.05,0,.08,0,0,.11a6.26,6.26,0,0,0-1.74,2.27c-.06.15-.11.3-.16.44a.38.38,0,0,0,0,.18,8.88,8.88,0,0,0-.32,1.22,9.23,9.23,0,0,0,2,7,8.66,8.66,0,0,0,1.38,1.28,15.77,15.77,0,0,0,1.45,1.1,34.07,34.07,0,0,0,3.13,2c.94.49,1.9.95,2.82,1.38,1.36.65,3.1,1.47,4.48,2-.14-.26,3.26.83,2.66.37a17.32,17.32,0,0,0,2.4.73c.27-.13,1-.1,3.55.48,1,.24,2.46.7,2.81.75.56.08-1.23-.46-.67-.38a99,99,0,0,1-10.51-3.33,40.35,40.35,0,0,1-9.59-5.15c-.25-.19-.7-.48-1.23-.94-.27-.22-.6-.49-.89-.75a5.44,5.44,0,0,1-.81-.94,7.57,7.57,0,0,1-1-6.14,4.19,4.19,0,0,1,1.9-2.52,5.18,5.18,0,0,1,3-.61A9.53,9.53,0,0,1,63.7,41.4l.32.22a32.1,32.1,0,0,1,5.27,4.91,26.89,26.89,0,0,1,1.78,2.16c-.2-.39-.4-.74-.57-1,.56.78,1,1.6,1.26,1.9,1.09,1.73.63.67.38-.1-.24-.53.25.08-.15-.73.33.56.49.85.8,1.42.11,0-1-1.73-.71-1.39.31.55.69,1.15,1,1.73,0-.26-1.09-2-1-1.95.21.29.83,1.65,1,1.72a6.94,6.94,0,0,0-.44-.86c1,1.76,1.54,2.76.84,1,.31.58.64,1.43.92,2.06h0c-.14-.31-.34-.87-.48-1.15.17.35.31.71.47,1.07l0-.21c-.11-.27-.21-.54-.34-.82.11.24.21.48.31.71a5.14,5.14,0,0,0-.17-.64,17.53,17.53,0,0,0-.9-2.15A28,28,0,0,0,65.25,40.12Z" transform="translate(0 0)"/><path class="cls-1" d="M71.9,50.34s0-.1.1,0,.22.45.42.65l.06,0c.11.19.21.38.33.58s.52.64.79,1c0,0,0,0,.05,0A5.66,5.66,0,0,1,74,53l.08.08s0,0,.06,0l.17.24c.83.88,1.7,1.76,2.62,2.72a6.87,6.87,0,0,1,.62.57,12.83,12.83,0,0,1,.77,1.05c.15-.19.82.49.89.2.15.21.38.52.45.5s.49,0,1,.43c.19.2.37.57.46.63s-.1-.37,0-.29C80,57.47,78.8,56,77.57,54.38c-.5-.48-3.36-4.14-4-5.11l-.06-.09a13.34,13.34,0,0,0-1.29-1.52c-.19-.17-.4-.33-.61-.49,0,.11.08.22.11.32a2.43,2.43,0,0,0-.4-.47c-.42-.38-.32-.06-.31.2s-.18.07-.09.3l-.25-.35c-.07,0,.35.41.19.37s-.23-.27-.33-.41c0,.11.34.5.25.53s-.2-.46-.3-.42.08.15.13.22c-.35-.4-.61-.57-.41-.11a5.25,5.25,0,0,0-.33-.49h0c.05.07.13.21.17.28l-.18-.25V47a1.32,1.32,0,0,0,.12.2L69.81,47a1.5,1.5,0,0,0,0,.2,5,5,0,0,0,.23.58C70.66,48.64,71.27,49.5,71.9,50.34Z" transform="translate(0 0)"/><path class="cls-1" d="M79.26,59.42s0-.08.07-.08.08.17.17.19l0-.06.12.2.3.16s0,0,0,0,.08.07.12.11h0l0,0,0,.06a1.41,1.41,0,0,1,.7.44.29.29,0,0,1,.11.19.44.44,0,0,1-.16.27c.21.12.08.42.27.56-.09.07-.23.14-.22.2s.11.49-.44.64c-.23,0-.52-.15-.59-.14s.2.22.08.24a1.61,1.61,0,0,0,1.26-.05,1.85,1.85,0,0,0,.76-.66,2.13,2.13,0,0,0,.31-1.82,3.49,3.49,0,0,0-.91-1.22c-.46-.39-.9-.64-1-.77l0,0a1.43,1.43,0,0,0-.6-.28l-.31,0a.77.77,0,0,1,0,.15c-.06,0-.13-.1-.18-.09-.21,0-.19.14-.21.31s-.11.14-.09.24l-.11-.09s.16.07.07.14-.1-.05-.15-.09.15.14.09.21-.07-.19-.14-.11,0,.06.06.07c-.17-.07-.3,0-.23.16,0,0-.09-.12-.15-.14h0s0,.07.08.08l-.08-.06v0a.09.09,0,0,0,0,.06l-.05,0s0,.07,0,.11a1.28,1.28,0,0,0,.07.26A10.16,10.16,0,0,0,79.26,59.42Z" transform="translate(0 0)"/><path class="cls-1" d="M83.54,66.3s0-.11.11,0c.22.31.25.64.48.94h.07l.36.83.88,1.46s0,0,.07,0a7.8,7.8,0,0,1,.42.79l.09.12a.07.07,0,0,0,.07,0l.18.37c.91,1.38,1.84,2.79,2.82,4.34.23.31.46.63.65.94.28.48.56,1.13.79,1.61.17-.18.86.94,1,.6.16.33.38.81.46.81s.53.13,1.06.94c.18.33.36.88.45,1s-.08-.49.06-.33c-1.14-2.54-2.42-4.9-3.72-7.37-.51-.81-3.66-6.41-4.48-7.84l-.08-.12A19.8,19.8,0,0,0,83.74,63l-.7-.81.13.44A4.25,4.25,0,0,0,82.7,62c-.48-.59-.35-.17-.33.17s-.19,0-.08.34L82,62c-.07,0,.41.61.23.52s-.27-.4-.39-.61c0,.12.41.72.31.74s-.25-.64-.36-.62.09.21.16.31c-.42-.6-.72-.89-.47-.26-.12-.2-.25-.5-.39-.71h0l.21.39-.22-.36v.09a2.49,2.49,0,0,0,.15.28l-.14-.24a2.6,2.6,0,0,0,0,.26,7.59,7.59,0,0,0,.29.79Z" transform="translate(0 0)"/><path class="cls-1" d="M82,68.66s0-.11.11,0c.21.42.25.82.48,1.24h.07c.13.34.26.7.42,1.06.33.64.71,1.24,1.09,1.83,0,0,0,0,.07,0,.17.24.37.6.59,1l.12.15A.11.11,0,0,0,85,74l.28.43A41.75,41.75,0,0,0,89.7,79l1.08.89c.48.46,1.07,1.09,1.53,1.54.09-.23,1.32.77,1.25.38a4.67,4.67,0,0,0,.85.72c.21-.08.61,0,1.53.66.36.28.81.81,1,.88s-.34-.49-.12-.37c-2.43-2.29-4.85-4.37-7-6.82A28.34,28.34,0,0,1,86.55,73a24.66,24.66,0,0,1-2.66-4.87L83.82,68c-.38-1-.77-2.17-1.06-3-.13-.38-.29-.77-.42-1.17l0,.54a6.38,6.38,0,0,0-.2-1c-.21-.88-.26-.36-.37,0s-.19-.06-.2.34c0-.28,0-.43-.09-.72-.07,0,.15.89,0,.7s-.09-.59-.12-.88c-.08.11.09,1,0,1s0-.83-.11-.88a2.48,2.48,0,0,0,0,.43c-.15-.89-.27-1.39-.32-.54,0-.29,0-.71,0-1h0l0,.56,0-.52,0,.09c0,.13,0,.27,0,.4l0-.35a2.33,2.33,0,0,0-.08.31,5.5,5.5,0,0,0-.07,1.06A19.78,19.78,0,0,0,82,68.66Z" transform="translate(0 0)"/><path class="cls-1" d="M84.15,69.48s0-.09.1,0c.17.25.16.52.33.76h.06l.25.67c.21.39.43.78.67,1.15,0,0,0,0,.06,0s.2.39.32.62l.07.1s0,0,.06,0l.15.29c.74,1.07,1.52,2.13,2.38,3.26.2.23.41.45.58.68s.5.84.71,1.2c.16-.18.8.62.89.32.14.24.36.59.43.57s.5,0,1,.55c.18.22.36.63.44.7s-.09-.39,0-.29c-1.11-1.8-2.27-3.49-3.35-5.33a55.33,55.33,0,0,1-3.41-6l0-.1a15.67,15.67,0,0,0-1-1.84l-.51-.65,0,.36a2.6,2.6,0,0,0-.31-.58c-.34-.49-.3-.14-.35.13s-.18,0-.13.29l-.19-.43c-.07,0,.27.5.12.43s-.18-.33-.25-.5c-.06.1.24.6.15.61s-.11-.52-.23-.51.06.17.09.26c-.27-.5-.5-.75-.38-.22-.08-.17-.14-.42-.24-.59h0l.12.32-.13-.29,0,.07c0,.07,0,.15.08.23l-.08-.2a1.49,1.49,0,0,0,0,.21,4.21,4.21,0,0,0,.12.66C83.18,67.44,83.64,68.47,84.15,69.48Z" transform="translate(0 0)"/><path class="cls-1" d="M85,71.38s0-.09.1,0c.19.22.2.48.39.7h.06l.3.63c.24.36.49.71.74,1.06,0,0,0,0,.06,0a6.12,6.12,0,0,1,.36.58l.08.09s0,0,.06,0l.16.27c.79,1,1.62,2,2.49,3.07.21.21.42.42.6.64s.5.81.72,1.16c.16-.18.8.6.88.3.15.24.36.58.43.57s.5,0,1,.54c.18.22.35.63.43.69s-.08-.38.06-.28c-1.08-1.81-2.26-3.46-3.41-5.24-.47-.55-3.15-4.6-3.79-5.68l-.07-.09a13.74,13.74,0,0,0-1.21-1.7l-.59-.57a2.9,2.9,0,0,1,.09.34,2.23,2.23,0,0,0-.38-.52c-.4-.44-.32-.1-.33.17s-.17,0-.1.3L83.87,68c-.06,0,.34.46.18.41s-.22-.3-.31-.46c0,.1.31.55.22.57s-.17-.49-.28-.46.07.16.12.24c-.33-.46-.59-.66-.41-.17a4.86,4.86,0,0,0-.31-.53h0c0,.08.12.23.17.3l-.17-.27a.17.17,0,0,0,0,.07,1.51,1.51,0,0,0,.11.22l-.11-.18a1.62,1.62,0,0,0,0,.21,4.35,4.35,0,0,0,.19.62C83.83,69.51,84.4,70.46,85,71.38Z" transform="translate(0 0)"/><path class="cls-1" d="M98.7,80.31s-.09-.06,0-.1a7.78,7.78,0,0,1,1-.11l0-.06a5.9,5.9,0,0,1,.83.06,6.47,6.47,0,0,1,.76.05h.15s0,0,.06,0,.06,0,.08,0h0l.08,0-.07.06a.51.51,0,0,1,0,.09s0,0-.18.25-.58.61-.89.9a14.57,14.57,0,0,1-2.1,1.65,8.85,8.85,0,0,1-1,.66,11,11,0,0,1-1.71.63c.08.1-.21.28-.45.44s-.61.34-.5.43c-.62.41-.62-.56-.72-.49s-.57-.48-.92-1.31c-.13-.37-.21-1-.28-1.09s0,.53-.12.34l.27,1,.39,1.45.3,1,0,.13a.32.32,0,0,0,.13,0l.25-.06.52-.13c.35-.09.68-.16,1-.27l.33-.1.27-.09a18.42,18.42,0,0,0,4.08-2c.21-.17.75-.56,1.41-1.13l.52-.45.27-.25.33-.32c.64-.66,1.22-1.35,1.85-2.06a15,15,0,0,0-2.29-1l-.63-.15-.42-.07a6.57,6.57,0,0,0-.74,0,9.06,9.06,0,0,0-2.18.18l-.17,0a8.45,8.45,0,0,0-2.84,1.2c-.31.23-.61.48-.9.74A4.38,4.38,0,0,1,95,80.2a4.19,4.19,0,0,0-.75.51c-.62.54-.17.38.17.34s0,.18.35,0l-.52.34c0,.07.62-.45.54-.27a5.27,5.27,0,0,0-.62.43c.12,0,.73-.45.74-.35s-.64.28-.61.4a1.74,1.74,0,0,0,.31-.18c-.61.45-.88.78-.25.48a5.91,5.91,0,0,0-.69.46h0l.39-.25-.35.25h.09l.27-.17-.23.16.26-.06c.31-.14.63-.23.78-.33A12.76,12.76,0,0,1,98.7,80.31Z" transform="translate(0 0)"/><path class="cls-1" d="M95,82.47s-.08,0-.1,0,0-.22,0-.32h-.07l0-.27,0-.15-2,.12a3.72,3.72,0,0,0,.08.57s0,0,0,0a3,3,0,0,1,.08.41l0,.06s0,0,.06,0l0,.19a3.15,3.15,0,0,0,1.16,1.16l.68.39.18-.52.17-.49a1.75,1.75,0,0,1,.09-.41,3.52,3.52,0,0,1,.36-.5c-.21-.1-.06-.54-.3-.59.07-.1.17-.25.13-.3a.63.63,0,0,1-.21-.67c0-.12.22-.24.21-.3s-.2.07-.22,0c-.57.76-1,1.57-1.53,2.37l0,.06,1.48-.22a.94.94,0,0,1-.41-.39,1.55,1.55,0,0,1-.22-.77L93,82c.06.4.13.73.17.91l0,0a2.46,2.46,0,0,0,.45,1l.34.28,0-.2c0,.12.11.24.17.26.22.2.24,0,.33-.16s.17-.07.18-.2l.09.18c.06,0-.15-.2,0-.2s.09.14.13.21-.11-.26,0-.29,0,.25.11.21,0-.08,0-.11c.14.19.3.24.29,0a1.15,1.15,0,0,0,.1.23h0s0-.1-.06-.13l.07.11,0,0a.3.3,0,0,0,0-.1l0,.07a.36.36,0,0,0,0-.11,1.33,1.33,0,0,0,0-.3A9.31,9.31,0,0,1,95,82.47Z" transform="translate(0 0)"/><path class="cls-1" d="M96.16,84.32s0-.07,0-.1.2,0,.27,0l0-.06h.25L97,83.9s0,0,0-.06a.63.63,0,0,1,.22-.07l0,0s0,0,0,0l.11,0c.34-.28.67-.58,1-.9a1.36,1.36,0,0,1,.22-.25,2.19,2.19,0,0,1,.43-.15c-.11-.21.15-.44,0-.63.09,0,.22-.07.2-.14a.6.6,0,0,1,.1-.62c.07-.06.24,0,.26-.09s-.17-.08-.15-.16a17.86,17.86,0,0,0-1.92.82,11.78,11.78,0,0,1-2.07,1l0,0a1.56,1.56,0,0,0-.6.35l-.18.28.15.06c-.09,0-.17.06-.19.11s0,.23.13.35,0,.16.16.2l-.14.05c0,.06.16-.11.16,0s-.11.06-.17.08.21,0,.23,0-.2,0-.17.06.06,0,.09,0c-.16.1-.21.23,0,.28,0,0-.15,0-.2,0h0l.12,0-.1,0,0,0h.08l-.06,0,.09.08a1.34,1.34,0,0,0,.26.08C95.46,84.56,95.82,84.45,96.16,84.32Z" transform="translate(0 0)"/><path class="cls-1" d="M97.59,84.53s-.07,0,0-.09.26-.06.35-.17l0-.06.32-.12a6.1,6.1,0,0,0,.46-.41s0,0,0-.06a2.43,2.43,0,0,1,.27-.19l0,0a.43.43,0,0,0,0,0l.12-.08c.4-.48.77-1,1.17-1.52a2.7,2.7,0,0,1,.21-.38,3.89,3.89,0,0,1,.5-.41c-.18-.15.09-.55-.14-.66.1-.08.24-.2.21-.26a.61.61,0,0,1,0-.7c.07-.11.27-.19.28-.25s-.22,0-.21-.08c-.74.62-1.36,1.3-2.1,1.92a14.77,14.77,0,0,1-2.4,2l0,0a3.19,3.19,0,0,0-.73.62l-.2.36h.19c-.1.06-.21.13-.23.19-.17.23,0,.24.2.32s.07.16.21.15l-.18.11c0,.06.2-.17.21,0s-.14.11-.21.15.26-.13.3-.06-.27,0-.22.14.08,0,.12-.05c-.2.17-.27.34,0,.31a1.26,1.26,0,0,0-.26.13h0a1,1,0,0,0,.15-.07l-.13.08,0,0a.27.27,0,0,0,.11,0l-.09.06a.5.5,0,0,0,.13,0,1.14,1.14,0,0,0,.34,0A11.76,11.76,0,0,0,97.59,84.53Z" transform="translate(0 0)"/><path class="cls-1" d="M99.33,80.84s-.09,0,0-.1c.24-.15.51-.12.75-.26v-.06c.21-.06.44-.1.66-.14l.78-.26-.5-1.91-.48.15s0,0,0,.06-.45.13-.72.2l-.11,0a.07.07,0,0,0,0,.06l-.33.09a30.5,30.5,0,0,0-3.76,2l-.47.36.27.63.31-.15c.41-.17,1-.31,1.37-.45-.14-.19.82-.64.54-.8.27-.08.69-.22.69-.29s.13-.49.81-.85c.28-.12.74-.19.83-.27s-.42,0-.28-.11c-1.61.49-3.15,1.06-4.72,1.62l.8,1.88c.46-.24.92-.46,1.4-.68a21.22,21.22,0,0,1,4.38-1.68L101,78.19a17.7,17.7,0,0,0-2.38.83l-.11.06a7.66,7.66,0,0,0-2,1.24,8,8,0,0,0-.61.68,2.4,2.4,0,0,1,.36-.14,2.56,2.56,0,0,0-.54.46c-.42.49-.07.34.22.31s.06.17.31.06l-.37.29c0,.06.43-.4.39-.23a5.08,5.08,0,0,0-.43.38c.11,0,.52-.39.56-.31s-.49.25-.44.36.15-.11.22-.16c-.41.4-.57.69-.1.43a3.51,3.51,0,0,0-.48.4h0l.27-.22-.24.22h.07a1.49,1.49,0,0,0,.2-.15l-.16.14a.84.84,0,0,0,.2,0,4.59,4.59,0,0,0,.58-.28A15,15,0,0,1,99.33,80.84Z" transform="translate(0 0)"/><path class="cls-1" d="M99.75,79.08s0,.07,0,.1-.21,0-.3.06l0,.06-.27,0-.42.23s0,0,0,0a.83.83,0,0,1-.23.1l0,0s0,0,0,.06l-.11,0c-.37.31-.73.64-1.12,1a1.52,1.52,0,0,1-.22.27,2.57,2.57,0,0,1-.45.2c.12.2-.15.46,0,.64-.09,0-.22.1-.2.16a.63.63,0,0,1-.06.64c-.08.07-.25.07-.27.13s.19.06.17.14c.69-.29,1.29-.69,2-1a10.12,10.12,0,0,1,2.16-1.09l0,0a1.81,1.81,0,0,0,.65-.37l.2-.27-.16-.06c.1,0,.19-.07.21-.12s0-.23-.13-.35,0-.17-.15-.2l.15,0c0-.07-.17.1-.17,0s.12-.07.18-.09-.22.05-.25,0,.22,0,.19-.06-.07,0-.1,0c.18-.11.25-.25,0-.29.06,0,.16,0,.22,0h0l-.13,0,.12,0,0,0h-.09l.07,0-.1-.07a1.25,1.25,0,0,0-.28-.08A9.76,9.76,0,0,0,99.75,79.08Z" transform="translate(0 0)"/><path class="cls-1" d="M80.66,60.41s0,.08-.09.05-.12-.28-.26-.37l0,0c-.06-.11-.12-.23-.2-.35a6.33,6.33,0,0,0-.56-.47s0,0,0,0a2.3,2.3,0,0,1-.28-.27l-.06,0-.05,0L79,58.93a11.52,11.52,0,0,0-2-.88,3.71,3.71,0,0,1-.48-.1c-.2-.08-.44-.24-.64-.34-.07.22-.59.12-.58.37-.13-.06-.32-.13-.35-.08a.69.69,0,0,1-.65.35c-.14,0-.31-.16-.37-.14s.13.19,0,.23a13.9,13.9,0,0,1,2.7,1.22,5.08,5.08,0,0,1,1.3.83,7.49,7.49,0,0,1,1.24,1.22l0,0a4.5,4.5,0,0,0,.69.74l.37.23v-.21a.75.75,0,0,0,.21.26c.23.19.25,0,.32-.19s.16-.07.15-.22l.12.21c.06,0-.18-.23-.06-.23s.12.16.16.24-.14-.3-.06-.33,0,.29.14.25,0-.09,0-.14c.19.24.36.34.32,0,0,.08.08.22.14.3h0l-.07-.17.09.15,0,0a.65.65,0,0,0,0-.13l0,.11a.74.74,0,0,0,0-.14,1.32,1.32,0,0,0,0-.39A9,9,0,0,0,80.66,60.41Z" transform="translate(0 0)"/><path class="cls-1" d="M81.6,61.41s0,.07-.09,0-.09-.29-.21-.4l-.06,0-.16-.37c-.15-.19-.31-.37-.48-.55,0,0,0,0,0,0a3.58,3.58,0,0,1-.23-.31l0,0h-.06l-.1-.14c-.54-.47-1.12-.91-1.75-1.37a3.63,3.63,0,0,1-.44-.25,6.77,6.77,0,0,1-.51-.56c-.14.19-.6-.11-.69.13-.1-.11-.26-.26-.31-.22a.69.69,0,0,1-.76,0c-.13-.08-.24-.3-.31-.3s.05.23,0,.22c.78.8,1.59,1.5,2.34,2.33A15.84,15.84,0,0,1,80,62.46l0,0a4.37,4.37,0,0,0,.7.86l.39.26a1.48,1.48,0,0,1,0-.21c.08.13.15.25.22.28.25.21.25,0,.32-.19s.17-.06.15-.22l.13.22c.06,0-.19-.24-.07-.24s.12.16.17.25c.06-.08-.15-.31-.07-.35s0,.31.15.26,0-.09,0-.13c.19.24.36.33.32,0a2.2,2.2,0,0,0,.15.31h0l-.08-.18.09.15,0,0a.31.31,0,0,0-.05-.12l.06.1a.57.57,0,0,0,0-.14,1.65,1.65,0,0,0,0-.39A14.33,14.33,0,0,0,81.6,61.41Z" transform="translate(0 0)"/><path class="cls-1" d="M81.58,60.9s0,.07-.1,0-.09-.33-.22-.46l-.06,0L81,60.07c-.16-.22-.33-.45-.51-.66,0,0,0,0,0,0a2.48,2.48,0,0,1-.24-.36l0,0a.06.06,0,0,0-.06,0L80,58.86a24.08,24.08,0,0,0-1.89-1.66,4.38,4.38,0,0,1-.48-.3c-.19-.18-.39-.45-.56-.63-.14.18-.66-.17-.73.08-.12-.12-.29-.3-.35-.26a.71.71,0,0,1-.8,0c-.15-.1-.29-.33-.36-.34s.07.25,0,.23c.89.88,1.79,1.68,2.6,2.64a10,10,0,0,1,1.27,1.44,16.66,16.66,0,0,1,1.2,1.79l0,0a5.8,5.8,0,0,0,.7,1l.39.34V63a1.1,1.1,0,0,0,.21.33c.25.27.26,0,.34-.16s.17-.05.16-.21l.12.25c.07,0-.18-.29,0-.27a3,3,0,0,0,.16.3c.06-.08-.14-.37-.06-.39s0,.34.15.31,0-.11-.06-.16c.19.29.37.42.33.08a2.75,2.75,0,0,0,.15.36h0l-.07-.2.08.18,0-.05,0-.15.06.12s0-.09,0-.15a1.68,1.68,0,0,0,0-.43A14.46,14.46,0,0,0,81.58,60.9Z" transform="translate(0 0)"/><path class="cls-1" d="M76.92,56.25s0,.09-.07.07-.19-.23-.35-.28l0,.05-.28-.29-.64-.35s0,0,0,0a1.68,1.68,0,0,1-.32-.22l-.06,0a.09.09,0,0,0,0,0l-.14-.11c-.66-.29-1.35-.57-2.07-.91a3.12,3.12,0,0,1-.49-.17,4.85,4.85,0,0,1-.61-.49c-.11.21-.63,0-.68.21-.13-.1-.31-.25-.36-.21a.66.66,0,0,1-.78.07c-.15-.08-.3-.3-.37-.31s.08.24,0,.24a31.34,31.34,0,0,0,2.93,2.18c.39.18,2.78,1.69,3.39,2.09l.06,0a4.55,4.55,0,0,0,1.09.53l.5.07-.12-.19a.8.8,0,0,0,.35.15c.34.08.23-.11.19-.31s.11-.14,0-.27l.23.13s-.3-.12-.19-.18a1.55,1.55,0,0,0,.29.14c0-.09-.3-.2-.25-.27s.2.24.27.16-.07-.07-.12-.1c.3.13.5.12.3-.12a3,3,0,0,0,.29.2h0l-.15-.11.15.09v-.06l-.11-.09.1.07a.57.57,0,0,0,0-.14c-.09-.13-.16-.29-.23-.33C78,56.91,77.45,56.57,76.92,56.25Z" transform="translate(0 0)"/><path class="cls-1" d="M78.45,59.4s0,.08-.06.08-.19-.2-.34-.23l0,0-.27-.24c-.2-.09-.41-.18-.61-.25,0,0,0,0,0,0a1.58,1.58,0,0,1-.3-.17h-.06s0,0,0,0l-.14-.08-2-.51a2.22,2.22,0,0,1-.46-.06,4.47,4.47,0,0,1-.61-.33c-.07.22-.58.1-.59.35-.12-.07-.3-.17-.34-.11a.67.67,0,0,1-.69.26c-.15,0-.31-.22-.37-.2s.11.2,0,.22c.92.54,1.88.93,2.84,1.41a26.34,26.34,0,0,1,3.15,1.45l0,0a3.4,3.4,0,0,0,1,.39l.44,0a1.62,1.62,0,0,1-.1-.18.64.64,0,0,0,.31.12c.31,0,.21-.14.18-.33s.1-.14,0-.26l.2.11c0-.05-.27-.1-.16-.16s.17.07.25.11-.27-.17-.22-.24.18.22.24.13-.06-.06-.1-.08c.26.09.45.07.27-.15a1.78,1.78,0,0,0,.27.17h0L80,60.66l.15.08s0,0,0-.05a.39.39,0,0,0-.1-.08l.1,0a.65.65,0,0,0,0-.13c-.08-.12-.15-.27-.21-.3C79.43,59.94,78.94,59.65,78.45,59.4Z" transform="translate(0 0)"/><path class="cls-1" d="M75,56.85s0,.08-.06.08-.28-.22-.48-.26l0,0L74,56.45l-.82-.31a0,0,0,0,1,0,0,4,4,0,0,1-.41-.21l-.07,0a.06.06,0,0,0-.05,0l-.18-.11c-.83-.26-1.66-.53-2.56-.88-.2-.06-.4-.11-.59-.18s-.54-.37-.77-.52c-.09.22-.73-.07-.74.2-.16-.11-.39-.28-.44-.23s-.4.24-.88,0c-.18-.09-.38-.34-.46-.35s.13.26,0,.25a27,27,0,0,0,3.74,2.39c.25.08,1.13.54,2.07,1l2.34,1,.08,0a5.43,5.43,0,0,0,1.41.44h.6a1.66,1.66,0,0,1-.19-.18,1.63,1.63,0,0,0,.44.12c.42,0,.23-.15.14-.35s.09-.15,0-.27l.29.1c0-.06-.38-.09-.26-.16a2.42,2.42,0,0,0,.36.1c0-.09-.4-.16-.35-.24s.3.22.35.13-.1-.06-.16-.08c.37.08.6,0,.31-.17a2.27,2.27,0,0,0,.39.16h0l-.22-.1.21.07,0-.05-.15-.08.13.05L77.39,58a2.36,2.36,0,0,0-.35-.3Z" transform="translate(0 0)"/><path class="cls-1" d="M72.47,58.14s0-.1.07-.09c.27.05.44.25.72.3l0-.06.61.28c.35.1.7.18,1,.25l.36-1.92h-.16s0,0,0,0a3.11,3.11,0,0,1-.6-.1h-.11l0,0-.28-.06a20.47,20.47,0,0,1-3.54-.57,6.66,6.66,0,0,1-.8-.18,9,9,0,0,1-1.12-.56c-.06.23-.93-.12-.88.17-.23-.13-.56-.33-.61-.29s-.44.23-1.1-.07c-.25-.14-.54-.46-.64-.48s.21.32,0,.28a18.28,18.28,0,0,0,5.48,2.82,30.22,30.22,0,0,0,4.17.83L75.43,57a20.53,20.53,0,0,1-2.21-.66l-.1,0a15.64,15.64,0,0,0-1.82-.57l-.75-.12.24.23a2.4,2.4,0,0,0-.56-.21c-.53-.13-.3.1-.18.33s-.12.14.07.3l-.39-.19c0,.06.5.19.35.24a4,4,0,0,0-.48-.2c0,.1.53.27.47.34s-.4-.31-.47-.22.14.09.22.13c-.5-.19-.81-.22-.42.09-.15-.07-.35-.22-.51-.28h0l.28.16-.27-.13,0,.06.2.13-.18-.09.11.16a2.84,2.84,0,0,0,.48.41A24.53,24.53,0,0,0,72.47,58.14Z" transform="translate(0 0)"/><path class="cls-1" d="M64.47,53.5s-.08,0,0-.09.33-.1.47-.23l0-.06L65.3,53l.7-.46s0,0,0-.06.25-.12.39-.2l.06,0a.06.06,0,0,0,0-.06l.19-.08c.67-.5,1.38-1,2.13-1.62a5.75,5.75,0,0,1,.42-.43c.23-.18.56-.35.78-.52-.16-.15.27-.67,0-.76.14-.1.33-.29.29-.34a.81.81,0,0,1,0-.8c.09-.14.28-.3.28-.37s-.23.09-.23,0a8.59,8.59,0,0,1-2.82,2.27,18,18,0,0,1-1.84,1.08c-.88.49-1.77,1-2.14,1.25l-.06,0a5.08,5.08,0,0,0-1.13.88,5.48,5.48,0,0,0-.34.46l.26,0a1.05,1.05,0,0,0-.34.28c-.25.32,0,.28.21.31s.07.17.25.12l-.25.18c0,.06.28-.25.27-.12a2.83,2.83,0,0,0-.28.23c.09.05.35-.22.39-.14s-.34.11-.29.21.1,0,.15-.09c-.27.25-.37.46,0,.35a1.79,1.79,0,0,0-.34.22h0l.19-.12-.16.12,0,0,.14-.08-.11.08h.16a2,2,0,0,0,.43-.1Z" transform="translate(0 0)"/><path class="cls-1" d="M70.32,49.89s0-.08.09,0,.13.37.27.52l.07,0c.06.15.12.31.19.47s.37.51.56.76c0,0,0,0,0,0a3.44,3.44,0,0,1,.27.42l.05.07a.06.06,0,0,0,.06,0l.11.2c.61.7,1.25,1.4,1.93,2.16a5,5,0,0,1,.47.45,7.44,7.44,0,0,1,.52.85c.17-.17.66.38.78.13.1.17.26.42.32.4s.46-.07.85.31c.14.16.24.47.31.5s0-.29.09-.23c-.78-1.32-1.66-2.51-2.5-3.8-.38-.39-2.35-3.32-2.81-4.11l0-.07A7.9,7.9,0,0,0,71,47.63l-.47-.39c0,.1,0,.19,0,.27a1.42,1.42,0,0,0-.29-.37c-.31-.3-.28,0-.32.18s-.17.06-.13.25l-.17-.28c-.07,0,.25.33.11.31a2.44,2.44,0,0,0-.23-.33c0,.08.22.4.14.43s-.11-.38-.21-.34,0,.12.08.18c-.25-.32-.46-.46-.35-.08a3,3,0,0,0-.22-.39h0c0,.06.08.17.11.22l-.12-.2s0,0,0,.06a.8.8,0,0,0,.08.16L69,47.18a.88.88,0,0,0,0,.17,3.54,3.54,0,0,0,.11.48C69.47,48.53,69.88,49.22,70.32,49.89Z" transform="translate(0 0)"/><path class="cls-1" d="M69.57,50.76s0-.08.09,0,.15.33.3.46l.06,0,.22.42c.19.22.39.44.59.65a0,0,0,0,1,0,0,3.22,3.22,0,0,1,.28.37l.06,0a.06.06,0,0,0,.06,0l.12.18,2,1.8a3.64,3.64,0,0,1,.49.36c.19.2.39.51.56.73.15-.18.65.27.75,0,.11.14.28.36.34.33s.43-.13.83.17c.14.13.26.41.33.44s0-.28.07-.24c-.84-1.14-1.76-2.15-2.65-3.25-.38-.32-2.47-2.83-3-3.51l0-.06a6.78,6.78,0,0,0-1-1l-.49-.31.06.25a1.35,1.35,0,0,0-.3-.32c-.33-.25-.28,0-.31.21s-.16.08-.11.25l-.19-.24c-.06,0,.27.27.13.27a1.67,1.67,0,0,0-.25-.28c0,.08.24.35.16.39s-.12-.34-.22-.3,0,.11.09.16c-.26-.27-.48-.37-.35,0-.08-.1-.15-.26-.24-.35h0l.13.2-.14-.17v.06l.08.14-.08-.12a.86.86,0,0,0,0,.16,2.19,2.19,0,0,0,.13.44C68.67,49.57,69.11,50.17,69.57,50.76Z" transform="translate(0 0)"/><path class="cls-1" d="M67.46,51.59s.05-.08.1,0,.12.36.27.51l.06,0,.2.45c.19.25.38.49.58.72,0,0,0,0,0,0a2.84,2.84,0,0,1,.28.39l.06.06a.06.06,0,0,0,.06,0l.12.19c.65.63,1.34,1.23,2.1,1.85a5.86,5.86,0,0,1,.52.35c.22.2.45.5.64.71.13-.19.7.22.77,0,.12.13.32.33.38.3s.42-.17.86.08c.16.11.32.37.4.38s-.09-.27,0-.24c-1-1-2-1.93-2.94-3a13.3,13.3,0,0,1-1.45-1.61,21,21,0,0,1-1.41-2l0-.07a7.28,7.28,0,0,0-.83-1.14L67.83,49l0,.25a1,1,0,0,0-.26-.36c-.28-.3-.27-.05-.33.17s-.17,0-.14.23L67,49.05c-.06,0,.22.32.09.29a2.8,2.8,0,0,0-.2-.32c-.06.08.18.39.1.42s-.07-.37-.18-.34,0,.12.07.18c-.22-.32-.42-.46-.35-.09a3.52,3.52,0,0,0-.18-.4h0l.09.22-.1-.2,0,.06a.52.52,0,0,0,.06.16l-.07-.13s0,.1,0,.16a2.24,2.24,0,0,0,.07.47A20.54,20.54,0,0,0,67.46,51.59Z" transform="translate(0 0)"/><path class="cls-1" d="M69.45,52.14s0-.07.09-.06.08.24.19.31l.06,0,.13.29a5.33,5.33,0,0,0,.42.4s0,0,0,0a1.26,1.26,0,0,1,.19.24l.05,0,0,0,.08.12,1.45,1.07a1.82,1.82,0,0,1,.36.22,3.5,3.5,0,0,1,.37.49c.16-.17.53.12.65-.1.08.1.18.25.24.22a.62.62,0,0,1,.7,0c.11.09.16.29.22.31s0-.22.1-.2a25.57,25.57,0,0,0-1.78-2.23A26.19,26.19,0,0,1,71,50.9l0,0a2.82,2.82,0,0,0-.71-.64c-.12-.06-.25-.1-.38-.15a1.37,1.37,0,0,1,0,.19c-.08-.09-.16-.19-.22-.19-.26-.13-.24.06-.28.24s-.15.1-.12.23l-.14-.16s.2.17.08.2S69,50.47,69,50.4s.17.23.1.28-.07-.24-.16-.18,0,.07.06.1c-.19-.16-.36-.19-.29.06-.06-.06-.1-.17-.17-.23h0s.06.1.09.13l-.1-.11v0a.26.26,0,0,0,0,.09l-.06-.07a.59.59,0,0,0,0,.13c0,.13,0,.28.06.33C68.83,51.38,69.13,51.77,69.45,52.14Z" transform="translate(0 0)"/><path class="cls-1" d="M67.64,53.11s0-.07.08,0,.12.28.26.38l0,0,.19.36c.17.17.34.35.53.51,0,0,0,0,0,0a1.94,1.94,0,0,1,.25.29l0,0,.06,0,.11.14c.59.43,1.21.83,1.88,1.24a2.8,2.8,0,0,1,.46.22,6.77,6.77,0,0,1,.56.51c.12-.19.62.07.68-.18.11.1.28.25.33.2a.68.68,0,0,1,.76-.08c.14.07.27.28.34.28s-.07-.23,0-.23c-.85-.74-1.73-1.37-2.55-2.15a16.31,16.31,0,0,1-2.59-2.6l0,0a4.34,4.34,0,0,0-.77-.82L68,50.84a1.8,1.8,0,0,1,0,.22,1,1,0,0,0-.24-.27c-.27-.19-.25,0-.31.21s-.16.08-.13.24L67.15,51c-.06,0,.21.23.08.24A1.43,1.43,0,0,0,67,51c-.05.08.18.3.11.34s-.08-.3-.18-.25,0,.09.07.13c-.21-.23-.4-.31-.33,0a1.46,1.46,0,0,0-.17-.3h0l.09.17-.1-.15,0,.05a.31.31,0,0,0,.06.13l-.07-.1a.59.59,0,0,0,0,.14c0,.16,0,.33.07.39A13.69,13.69,0,0,0,67.64,53.11Z" transform="translate(0 0)"/><path class="cls-1" d="M66.28,53.79s0-.08.07-.07.08.2.18.24l0-.05.12.24.38.27s0,0,0,0,.11.11.17.17l0,0a.09.09,0,0,0,0,0l.07.09c.43.19.88.37,1.36.56a1.07,1.07,0,0,1,.33.08,2.76,2.76,0,0,1,.37.31c.12-.19.47-.07.55-.3l.09.07-.32.38s-.1-.08-.14-.06a.59.59,0,0,1-.62.14c-.09-.05-.15-.21-.2-.21s0,.19-.09.2c.16.18.32.35.49.51l1.37-1.6c-.39-.29-.79-.56-1.18-.88a9.94,9.94,0,0,1-1.86-1.45l0,0a1.83,1.83,0,0,0-.6-.41l-.33-.06a1,1,0,0,1,0,.17c-.06-.07-.13-.14-.18-.14-.22-.06-.22.1-.27.27s-.13.11-.11.22L66,52.29s.16.11.06.15-.11-.07-.15-.12.14.18.07.23,0-.21-.13-.14,0,.06,0,.09c-.17-.11-.32-.12-.27.1-.05-.05-.08-.14-.14-.18h0l.07.11-.08-.09v.05a.2.2,0,0,0,0,.08l0-.06a.5.5,0,0,0,0,.12c0,.11,0,.25,0,.28A8.45,8.45,0,0,0,66.28,53.79Z" transform="translate(0 0)"/><path class="cls-1" d="M65.25,55.4s0-.08.08-.06.1.22.22.28l0,0,.16.27a5,5,0,0,0,.46.34s0,0,0,0a1.18,1.18,0,0,1,.22.19l.05,0,0,0,.1.09a13.24,13.24,0,0,0,1.64.61,2.38,2.38,0,0,1,.4.07,3.58,3.58,0,0,1,.49.3c.08-.22.5-.13.53-.38.1.06.25.14.28.08a.63.63,0,0,1,.59-.32c.11,0,.23.16.28.14s-.07-.18,0-.22c-.72-.38-1.44-.67-2.13-1.12A7.52,7.52,0,0,1,66.64,54l0,0A2.19,2.19,0,0,0,66,53.5l-.35-.11v.17c-.07-.08-.14-.16-.2-.17-.22-.11-.23.06-.29.24s-.15.09-.13.22l-.12-.15s.18.15.07.18-.12-.11-.16-.17.14.23.07.27-.05-.24-.14-.18,0,.08,0,.11c-.18-.16-.34-.2-.29.05,0-.07-.08-.18-.15-.23h0a1.48,1.48,0,0,0,.08.13l-.09-.11,0,0a.31.31,0,0,0,0,.1l-.06-.08a.59.59,0,0,0,0,.13c0,.13,0,.28,0,.32A7.76,7.76,0,0,0,65.25,55.4Z" transform="translate(0 0)"/><path class="cls-1" d="M63.92,55.29s0-.08.06-.08.11.18.22.2l0-.06.16.21.43.19s0,0,0,0a.86.86,0,0,1,.21.13h0s0,0,0,0l.09.07c.46.11.94.19,1.45.29a1.26,1.26,0,0,1,.34,0,2.18,2.18,0,0,1,.42.24c.09-.22.45-.16.49-.4.09,0,.21.12.25.06a.64.64,0,0,1,.55-.33c.1,0,.2.16.25.14s-.06-.18,0-.22c-.63-.37-1.3-.61-2-1a10.1,10.1,0,0,1-2.13-1.07l0,0a1.84,1.84,0,0,0-.68-.29H63.9c0,.06,0,.11,0,.16s-.16-.11-.21-.09c-.23,0-.19.14-.2.31s-.11.14-.07.24l-.14-.09c0,.05.19.08.1.15s-.12-.06-.18-.1.18.15.12.22-.09-.2-.16-.11,0,0,.07.07c-.19-.08-.34-.05-.24.15-.06,0-.11-.12-.17-.15h0l.08.08-.09-.06v0l.06.07-.06,0v.12c0,.11.06.24.1.27A9.68,9.68,0,0,0,63.92,55.29Z" transform="translate(0 0)"/><path class="cls-1" d="M63.25,55.63s0-.09,0-.09.14.17.26.18l0-.06.21.19.48.14s0-.05,0-.05a1,1,0,0,1,.23.11h0s0,0,0,0l.11.05a15.37,15.37,0,0,0,1.54.06,1.69,1.69,0,0,1,.36-.06,3,3,0,0,1,.48.16c0-.23.41-.26.4-.5.09,0,.23.06.26,0a.62.62,0,0,1,.46-.45c.1,0,.23.1.28.07s-.11-.16,0-.21c-.7-.21-1.41-.3-2.12-.52a7.78,7.78,0,0,1-2.27-.74h0a1.84,1.84,0,0,0-.7-.22l-.34,0,.06.15c-.09,0-.17-.09-.22-.07-.23,0-.18.14-.18.32s-.1.15,0,.25l-.14-.08s.2.06.11.14-.13,0-.19-.09.19.14.14.21-.11-.19-.17-.1,0,.05.07.07c-.2-.07-.35,0-.23.17-.06,0-.12-.12-.19-.14h0s.07.07.1.08L62,54.53v0a.23.23,0,0,0,.07.07l-.07,0s0,.08,0,.12.09.24.14.26A7.51,7.51,0,0,0,63.25,55.63Z" transform="translate(0 0)"/><path class="cls-1" d="M65.27,54s0-.08,0-.1.14.1.22.06v-.07l.19.1.34,0s0,0,0-.06a.5.5,0,0,1,.19,0h0s0,0,0,0l.08,0a5.91,5.91,0,0,1,1.18-.13,1.55,1.55,0,0,1,.29,0,1.58,1.58,0,0,1,.36.2c.08-.22.41-.17.47-.4.08,0,.19.13.23.07a.59.59,0,0,1,.58-.26c.1,0,.18.2.23.19s0-.19.06-.21a5.46,5.46,0,0,0-2-1c-.14,0-.63-.1-1.16-.16s-1.08-.06-1.3-.08h0a1.61,1.61,0,0,0-.74.16c-.09.07-.17.16-.25.23l.13.1c-.09,0-.18,0-.21.07s0,.23.07.36,0,.17.11.23l-.14,0c0,.07.16-.07.15,0s-.11,0-.16,0,.19,0,.2.08-.17-.08-.16,0,.06,0,.08,0c-.15.08-.21.2,0,.28,0,0-.13,0-.18,0h0s.08,0,.1,0l-.09,0,0,0h0l.07.08c.09,0,.17.14.21.13Z" transform="translate(0 0)"/><path class="cls-1" d="M65.7,52.71s-.09,0,0-.11.49-.27.7-.5l0-.06.61-.42c.34-.32.67-.65,1-1,0,0,0,0,0-.05s.32-.33.52-.52l.08-.09s0-.06,0-.07l.24-.24c.34-.44.66-.91,1-1.39a.51.51,0,0,0,.12-.22l.08-.18.22-.45a1.08,1.08,0,0,1,.2.19,1.68,1.68,0,0,1,.37.38c.22.34.45.87.64,1.24.17-.17.76.68.87.39.13.25.32.62.39.61s.51.05,1,.65c.16.25.3.68.38.75s0-.4.08-.28c-.47-.93-1-1.82-1.44-2.72l-2.26-4.09L70,45c-.22.34-.73,1.1-1.42,2-.38.5-.81,1-1.31,1.58a21.66,21.66,0,0,1-2.64,2.45l-.09.07c-.54.42-1.19.91-1.62,1.31l-.58.59.35-.09a3.27,3.27,0,0,0-.54.38c-.45.39-.11.32.17.33s0,.18.3.11l-.4.24c0,.06.47-.34.42-.18s-.32.22-.49.31c.11,0,.58-.31.6-.22s-.51.18-.49.29.17-.08.25-.12c-.48.33-.72.57-.19.41-.16.09-.42.18-.58.29h0l.33-.15-.3.16h.08l.23-.1-.2.1h.22a5.54,5.54,0,0,0,.67-.19A22.4,22.4,0,0,0,65.7,52.71Z" transform="translate(0 0)"/><path class="cls-1" d="M76,56.23s0-.06.07-.06,0,.17.11.2l.05,0,.06.2.27.24s0,0,0,0,.07.09.11.15h0l0,0,.05.07c.32.19.66.37,1,.6a.89.89,0,0,1,.26.11,1.38,1.38,0,0,1,.2.33c.18-.15.44,0,.6-.15,0,.06.1.17.16.14a.6.6,0,0,1,.61,0c.07.05.07.21.12.21s.06-.16.14-.16a9.21,9.21,0,0,0-1.09-1.55,17.76,17.76,0,0,1-1.42-1.51l0,0a1.34,1.34,0,0,0-.51-.39l-.3,0a.76.76,0,0,1,0,.15c-.05-.06-.11-.12-.16-.11s-.2.1-.26.26S76,54.91,76,55l-.09-.1s.14.09,0,.14-.08-.06-.12-.1.11.15,0,.2,0-.18-.1-.11,0,.05,0,.07c-.14-.08-.27-.06-.25.12,0,0-.05-.12-.1-.14h0a.92.92,0,0,1,0,.08l-.06-.06,0,0,0,.07,0,0,0,.11c0,.1,0,.22,0,.25C75.56,55.77,75.75,56,76,56.23Z" transform="translate(0 0)"/><path class="cls-1" d="M60.82,51.71s0,.09-.08.06-.3-.34-.52-.47l-.06,0-.39-.45c-.28-.25-.57-.49-.84-.75,0,0,0,0,0,0a3.63,3.63,0,0,1-.4-.44l-.07-.07a.06.06,0,0,0-.06,0l-.17-.23A14.82,14.82,0,0,1,56,46.73a7.13,7.13,0,0,1-.45-.67,8,8,0,0,1-.38-1.17c-.21.13-.57-.73-.74-.5-.06-.25-.14-.63-.21-.64s-.46-.17-.69-.86c-.06-.27,0-.71-.07-.8s-.1.37-.18.22a14.15,14.15,0,0,0,1.84,5.9A23.55,23.55,0,0,0,57,50.77a17.59,17.59,0,0,0,2.61,2.43l.09.06a6.26,6.26,0,0,0,1.86,1,5,5,0,0,0,.88.11,3,3,0,0,1-.32-.21,1.74,1.74,0,0,0,.68.13c.64,0,.27-.19.08-.36s.08-.17-.13-.27l.39.06c0-.06-.49,0-.36-.12a1.47,1.47,0,0,0,.47,0c0-.07-.53-.08-.49-.17s.41.18.45.06-.14,0-.22,0c.47,0,.65-.15.29-.24a1.19,1.19,0,0,0,.42,0h-.23l.21,0,0,0h-.16l.14,0-.13-.08c-.16,0-.3-.16-.38-.17A6.29,6.29,0,0,1,60.82,51.71Z" transform="translate(0 0)"/><path class="cls-1" d="M56.41,43.72s-.11,0,0-.1a4.35,4.35,0,0,1,.85-.81l0-.07a4.64,4.64,0,0,1,.88-.47,3.81,3.81,0,0,1,1.73-.45s0,0,0-.06a3.5,3.5,0,0,1,1,.14l.17,0a.09.09,0,0,0,.07,0,2.35,2.35,0,0,1,.45.17,13.7,13.7,0,0,1,5.26,3.8c.38.35.75.7,1.09,1.07.48.55,1,1.31,1.44,1.89.12-.24,1.24,1.12,1.22.7a6,6,0,0,0,.75,1c.22,0,.63.16,1.41,1.2.29.41.62,1.12.74,1.25s-.21-.63,0-.42a48,48,0,0,0-6.7-8.94c-.25-.22-.81-.8-1.65-1.48a9.87,9.87,0,0,0-3.4-1.9,6,6,0,0,0-4.27.26A6.6,6.6,0,0,0,55,42.35l-.14.18a5.92,5.92,0,0,0-1,2,5.15,5.15,0,0,0-.13,2.07,4.23,4.23,0,0,0,.63,1.55,2.71,2.71,0,0,1-.15-.68,2.9,2.9,0,0,0,.59,1.16c.41.44.57.45.55.36s-.16-.33-.21-.54.18,0,0-.42a3.05,3.05,0,0,0,.46.61s-.14-.17-.26-.34-.22-.34-.13-.27a2.23,2.23,0,0,0,.59.67c-.05-.09-.64-.78-.51-.81.07.13.38.73.52.67s-.18-.2-.26-.32a1.35,1.35,0,0,0,.7.48c.13,0,.07-.06-.16-.3a1.17,1.17,0,0,0,.68.32h0a1.3,1.3,0,0,1-.39-.14,1.14,1.14,0,0,0,.37.11l-.06,0-.26-.11a.9.9,0,0,0,.23.08l-.16-.15a2.41,2.41,0,0,1-.45-.55A3.61,3.61,0,0,1,56.41,43.72Z" transform="translate(0 0)"/><path class="cls-1" d="M62.41,42.83s0-.08.1,0,.18.36.35.51l.06,0,.27.46c.22.24.45.48.68.71,0,0,0,0,.06,0a3.91,3.91,0,0,1,.33.4l.07.06h.06l.15.19c.74.62,1.51,1.24,2.35,1.89a4.94,4.94,0,0,1,.56.37,10.14,10.14,0,0,1,.71.76c.13-.2.74.25.8,0,.14.15.36.37.41.33s.45-.15.92.14c.17.12.35.41.43.43s-.11-.29,0-.25c-1.08-1.14-2.21-2.15-3.3-3.3A35.07,35.07,0,0,1,64,41.67l-.06-.06a8.54,8.54,0,0,0-1.07-1.15l-.52-.35.08.27a1.74,1.74,0,0,0-.33-.36c-.35-.28-.29,0-.31.22s-.16.07-.1.26l-.2-.27c-.07,0,.28.31.14.3a2,2,0,0,0-.27-.32c0,.09.27.4.19.43s-.15-.37-.25-.33.07.12.11.18c-.29-.31-.52-.43-.37-.06a4.28,4.28,0,0,0-.26-.38h0l.13.22-.14-.2v.07l.09.16-.09-.13a.48.48,0,0,0,0,.17,2.4,2.4,0,0,0,.16.48C61.37,41.51,61.88,42.19,62.41,42.83Z" transform="translate(0 0)"/><path class="cls-1" d="M62.85,44.72s0-.08.09,0,.22.37.41.52l.06,0,.31.49.73.77s0,0,.06,0a3.75,3.75,0,0,1,.35.44l.06.07H65l.15.21c.75.73,1.5,1.49,2.26,2.37a5.21,5.21,0,0,1,.53.52c.21.28.4.69.58,1,.17-.17.69.5.81.24.11.2.27.51.34.49s.48,0,.88.49c.13.2.23.57.31.63s0-.34.09-.25A31.42,31.42,0,0,0,68.15,48c-.23-.23-1-1.19-1.76-2.15s-1.69-1.94-2.06-2.34l-.06-.07a8.23,8.23,0,0,0-1.34-1.21,6.25,6.25,0,0,0-.63-.33l.14.28A2,2,0,0,0,62,41.8c-.43-.26-.3,0-.27.25s-.15.1,0,.3l-.28-.27c-.05,0,.37.29.22.3a2.73,2.73,0,0,0-.31-.27l-.47-.4.62,0h.05a.11.11,0,0,0-.05,0L61,41.51l.35.62c.07.13.34.34.27.38a1.67,1.67,0,0,1-.15-.2l-.09-.1-.05,0h0l.23-.54h0l-.24.56s.1.11.15.16l-.18-.13-.77-.57,1-.06c.32,0,.44-.1.09-.23a4.34,4.34,0,0,0,.52.08h0l-.28,0,.27,0L62,41.37l-.2,0,.18,0-.14-.12-.34-.16-1.95-.91,1.28,2.46a.76.76,0,0,0,.1.15C61.61,43.41,62.23,44.07,62.85,44.72Z" transform="translate(0 0)"/><path class="cls-1" d="M56,39.8s.16,0,0,.14a2.94,2.94,0,0,0-.85,1.4l0,0a5.43,5.43,0,0,0-.25,1.16,6,6,0,0,0,.4,2.07s0,0,.06,0c.11.26.23.62.39,1l.08.15a.09.09,0,0,0,.08,0l.2.42a15.55,15.55,0,0,0,4,4l1.06.63c.49.33,1.1.76,1.6,1,0-.23,1.31.28,1.16-.06a2.52,2.52,0,0,0,.9.32c.15-.15.49-.24,1.42-.09.35.09.89.28,1,.28s-.43-.25-.22-.26a15.21,15.21,0,0,1-6.94-3.82,11.77,11.77,0,0,1-2.55-3.22,5.23,5.23,0,0,1-.7-2.38,2.28,2.28,0,0,1,.32-1.33l0,0a2.18,2.18,0,0,1,.85-.18,9.27,9.27,0,0,1,1.18,0,5.5,5.5,0,0,1,1,.09L59.85,41c.33.1.64.24.77.26.7.25.4,0,.2-.32s.15-.13-.15-.33a5,5,0,0,1,.57.28c.06-.06-.72-.31-.52-.33s.49.21.71.34c0-.13-.78-.44-.72-.49s.61.42.71.36a1.33,1.33,0,0,0-.33-.21c.73.34,1.16.56.59,0,.23.14.51.4.74.57h0a4,4,0,0,0-.39-.33,3.57,3.57,0,0,1,.38.3l0-.09a1.31,1.31,0,0,0-.28-.24,2.48,2.48,0,0,1,.26.19,1.48,1.48,0,0,0-.16-.25,4,4,0,0,0-.76-.66,6.73,6.73,0,0,0-2.49-.79,6.57,6.57,0,0,0-1.33,0A2.83,2.83,0,0,0,56,39.8Z" transform="translate(0 0)"/><path class="cls-1" d="M58.26,44.81s0-.08.09,0,.14.38.29.53l.06,0c.07.15.14.31.23.47a7.31,7.31,0,0,0,.64.72s0,0,0,0,.2.25.32.39l.07,0a.07.07,0,0,0,.06,0l.14.18a23,23,0,0,0,2.34,1.62,6.05,6.05,0,0,1,.57.28c.24.17.51.44.73.62.11-.21.72.13.76-.14.14.12.36.3.42.26s.4-.22.87,0c.18.1.37.35.45.36s-.12-.27,0-.25c-1.13-.93-2.28-1.7-3.34-2.65a10.86,10.86,0,0,1-1.61-1.43,11.77,11.77,0,0,1-1.46-1.86l0-.06a10.18,10.18,0,0,0-.73-1.14l-.37-.4,0,.25a1.35,1.35,0,0,0-.2-.39c-.21-.33-.25-.08-.35.12s-.18,0-.18.21a2.64,2.64,0,0,1-.1-.3c-.07,0,.16.36,0,.31s-.11-.24-.15-.36c-.07.07.12.43,0,.44s0-.38-.13-.37,0,.13,0,.19c-.16-.37-.34-.55-.33-.16a4,4,0,0,0-.11-.44h0l0,.25-.07-.22,0,.05a1.16,1.16,0,0,0,0,.18l-.05-.15-.06.15a3,3,0,0,0,0,.51A9.81,9.81,0,0,0,58.26,44.81Z" transform="translate(0 0)"/><path class="cls-1" d="M57.46,45.86s0-.08.1,0,.18.44.36.63l.07,0,.29.55c.24.3.49.58.75.85,0,0,0,0,.06,0s.23.28.38.46l.07.06h.06l.17.21a25.52,25.52,0,0,0,2.73,2c.23.12.46.24.66.37s.62.51.9.73c.1-.22.84.18.84-.11.18.14.46.34.51.29a.65.65,0,0,1,.42-.13l.24-.12c0-.17,0,.44.14.53s0,0-.12,0l-.42,0h0a0,0,0,0,0,0,0h0l.48-.05h.17a.51.51,0,0,1-.14-.31,1.43,1.43,0,0,1,0-.29.81.81,0,0,1,0-.18s0,0,0,0A27.24,27.24,0,0,1,62.86,49,14.41,14.41,0,0,1,61,47.19a15.74,15.74,0,0,1-1.79-2.28l0-.07-.81-1.35c-.12-.16-.25-.33-.36-.51l0,.28a2.61,2.61,0,0,0-.15-.47c-.18-.42-.25-.17-.37.05s-.19,0-.2.21a2.53,2.53,0,0,1-.07-.38c-.07,0,.12.46,0,.38s-.08-.31-.1-.47c-.09.07.06.55,0,.54s0-.46-.08-.48,0,.16,0,.24c-.12-.48-.24-.77-.3-.28,0-.17,0-.41,0-.58h0v0l0,.05a1,1,0,0,0,0,.24v-.21l-.09.18a2.71,2.71,0,0,0-.1.64A7.43,7.43,0,0,0,57.46,45.86Z" transform="translate(0 0)"/><path class="cls-1" d="M58.41,46.34s0-.09.09-.05.24.38.44.52l.06,0,.34.47c.27.25.55.5.83.72,0,0,0,0,0,0a4.9,4.9,0,0,1,.42.4l.08,0a.07.07,0,0,0,.06,0l.18.19c.88.61,1.8,1.18,2.81,1.78a5.77,5.77,0,0,1,.66.32c.29.19.63.49.9.69.09-.21.83.17.83-.12.18.14.45.33.5.29s.42-.22,1,0c.21.11.46.37.55.38s-.18-.28,0-.26c-1.39-1-2.77-1.87-4.1-2.95A18,18,0,0,1,62,47.1c-.89-.78-1.77-1.65-2.11-2L59.82,45a11,11,0,0,0-1.23-1.17L58,43.47l.09.29a1.66,1.66,0,0,0-.37-.38c-.39-.29-.3,0-.3.23s-.16.08-.07.28l-.24-.29c-.07,0,.32.33.18.32s-.22-.22-.31-.34c0,.1.31.42.23.46s-.18-.4-.29-.35.08.12.13.18c-.33-.33-.58-.46-.39-.06-.09-.11-.2-.3-.31-.41h0l.17.24-.17-.21v.07a1.63,1.63,0,0,0,.11.17l-.11-.14a1.1,1.1,0,0,0,0,.18,3.88,3.88,0,0,0,.21.52C57.17,45,57.77,45.67,58.41,46.34Z" transform="translate(0 0)"/><path class="cls-1" d="M60.12,43.72s0-.08.1,0,.16.34.32.47l.06,0,.25.43c.22.22.43.44.66.65,0,0,0,0,.05,0a3.08,3.08,0,0,1,.32.36l.06,0a.06.06,0,0,0,.06,0l.14.17c.71.56,1.46,1.09,2.27,1.65.19.1.38.2.55.31s.48.46.69.66c.12-.2.71.17.76-.1.14.13.35.32.41.28s.41-.2.87,0c.16.1.34.35.42.37s-.11-.27,0-.25c-1.07-1-2.16-1.82-3.2-2.82a26.61,26.61,0,0,1-3.27-3.33l0-.06a7,7,0,0,0-1-1l-.49-.31a1.29,1.29,0,0,1,.06.25,1.26,1.26,0,0,0-.3-.33c-.33-.26-.28,0-.31.21s-.16.08-.11.26l-.18-.26c-.07,0,.26.29.12.29a2.25,2.25,0,0,0-.24-.3c0,.09.24.37.16.41s-.13-.36-.23-.31.06.11.1.16c-.27-.29-.48-.4-.36,0a2.05,2.05,0,0,0-.24-.36h0l.13.2-.13-.18,0,.06a1.19,1.19,0,0,0,.09.15l-.09-.12a.43.43,0,0,0,0,.16,1.75,1.75,0,0,0,.13.46C59.16,42.49,59.62,43.12,60.12,43.72Z" transform="translate(0 0)"/><path class="cls-1" d="M59.9,44s0-.08.09-.06.12.28.26.37l0,0,.19.34c.18.17.35.33.53.48,0,0,0,0,0,0a1.69,1.69,0,0,1,.25.27l0,0,.05,0a.67.67,0,0,1,.11.14c.58.4,1.18.79,1.83,1.21a2.09,2.09,0,0,1,.45.22c.18.14.36.37.52.52.13-.19.6.1.68-.15.11.11.26.26.32.22a.66.66,0,0,1,.76,0c.13.08.24.3.31.3s-.05-.23,0-.22c-.79-.81-1.64-1.49-2.44-2.28a21.35,21.35,0,0,1-2.63-2.55l0,0a4.24,4.24,0,0,0-.83-.77l-.42-.2c0,.08,0,.15,0,.22-.1-.12-.19-.23-.26-.24-.28-.17-.25,0-.29.23s-.15.09-.11.24L59.31,42c-.06,0,.23.21.1.23S59.27,42,59.2,42c0,.09.21.28.13.33s-.09-.29-.19-.23,0,.08.08.12c-.23-.2-.42-.26-.32,0a1.79,1.79,0,0,0-.2-.28h0l.1.16L58.69,42v0a.75.75,0,0,0,.07.12L58.67,42a.61.61,0,0,0,0,.14,1.44,1.44,0,0,0,.1.37Q59.3,43.29,59.9,44Z" transform="translate(0 0)"/><path class="cls-1" d="M59.48,43.8s.05-.07.1,0,.08.33.21.46l.06,0,.16.42c.16.22.32.44.5.65,0,0,0,0,.05,0a2.48,2.48,0,0,1,.24.36l.05.05h.06l.1.17a23.74,23.74,0,0,0,1.89,1.61,3.22,3.22,0,0,1,.48.29c.19.17.39.43.57.61.13-.19.65.15.72-.11.11.12.29.29.34.25a.73.73,0,0,1,.8,0c.14.09.29.32.36.32s-.08-.24,0-.23A32.4,32.4,0,0,1,63.61,46a9.37,9.37,0,0,1-1.26-1.39,15.27,15.27,0,0,1-1.16-1.76l0-.05a5.49,5.49,0,0,0-.68-1l-.37-.33c0,.08,0,.16,0,.23-.07-.15-.14-.3-.21-.33-.23-.27-.25-.05-.34.14s-.17,0-.16.22l-.12-.25c-.06,0,.18.29.05.27a1.68,1.68,0,0,0-.15-.3c-.07.07.13.36.05.38s0-.33-.14-.3,0,.1,0,.15c-.18-.29-.36-.42-.33-.08a2.6,2.6,0,0,0-.13-.36h0l.06.2-.08-.18,0,0a.83.83,0,0,0,0,.15l0-.12a.58.58,0,0,0,0,.14,2.73,2.73,0,0,0,0,.43A14.17,14.17,0,0,0,59.48,43.8Z" transform="translate(0 0)"/><path class="cls-1" d="M60.91,44.74s0-.08.09-.05.13.31.27.42l.06,0,.2.38c.19.2.38.4.57.58,0,0,0,0,0,0a2.36,2.36,0,0,1,.27.32l.06,0,.05,0,.12.16c.62.49,1.28,1,2,1.48a3.15,3.15,0,0,1,.48.27c.2.17.4.43.58.61.13-.19.65.15.72-.1.12.12.29.3.35.26a.71.71,0,0,1,.81,0c.14.1.28.34.35.35s-.07-.25,0-.24c-.88-.9-1.81-1.7-2.69-2.62a22.42,22.42,0,0,1-2.82-3l0-.05a5.85,5.85,0,0,0-.87-.91l-.45-.27a2.23,2.23,0,0,1,0,.23c-.1-.13-.19-.26-.27-.29-.29-.22-.26,0-.3.22s-.16.08-.12.24l-.16-.22c-.06,0,.23.25.1.25s-.15-.17-.21-.26c-.05.09.21.33.13.37s-.1-.32-.2-.27,0,.1.08.14c-.24-.25-.44-.34-.34,0-.06-.08-.12-.23-.2-.32h0l.1.19-.11-.16,0,0a.61.61,0,0,0,.07.14l-.07-.11a.77.77,0,0,0,0,.15,1.84,1.84,0,0,0,.1.42A19.65,19.65,0,0,0,60.91,44.74Z" transform="translate(0 0)"/><path class="cls-1" d="M57.84,45.68s0-.07.1,0,.08.35.21.5l.06,0c0,.15.1.31.16.46s.33.49.51.72c0,0,0,0,.06,0s.15.25.25.39l.05.06a.07.07,0,0,0,.06,0l.11.18a18.15,18.15,0,0,0,2,1.75,4.92,4.92,0,0,1,.51.31c.21.18.44.44.63.63.13-.19.69.14.74-.12.13.12.33.29.38.25a.72.72,0,0,1,.82,0c.16.08.33.31.4.31s-.1-.25,0-.24a22.72,22.72,0,0,1-2.83-2.55,8.25,8.25,0,0,1-1.32-1.47,13.33,13.33,0,0,1-1.17-1.9l0-.06a7.37,7.37,0,0,0-.65-1.11l-.36-.39,0,.24a1,1,0,0,0-.18-.36c-.22-.31-.26-.08-.35.12s-.18,0-.18.2l-.1-.27c-.07,0,.16.32,0,.29a2.44,2.44,0,0,0-.14-.34c-.07.07.11.4,0,.42s0-.36-.12-.34,0,.11,0,.17c-.16-.33-.33-.49-.33-.13a1.9,1.9,0,0,0-.11-.39h0l0,.22-.06-.2,0,0a.45.45,0,0,0,0,.16L57.05,43a.88.88,0,0,0,0,.15,1.44,1.44,0,0,0,0,.46A11.79,11.79,0,0,0,57.84,45.68Z" transform="translate(0 0)"/><path class="cls-1" d="M55.17,46.28s0-.08.1,0,.14.42.31.59l.06,0,.25.52a10.72,10.72,0,0,0,.67.84s0,0,0,0a4,4,0,0,1,.34.45l.07.06h.06l.15.21A24.94,24.94,0,0,0,59.73,51c.21.12.43.24.62.37s.56.52.81.74c.11-.21.8.2.82-.08.17.13.42.34.47.29s.43-.2.94,0c.2.1.43.36.51.37s-.15-.28,0-.26a31.33,31.33,0,0,1-3.67-3,12.63,12.63,0,0,1-1.72-1.77,16.68,16.68,0,0,1-1.62-2.26l0-.07c-.28-.45-.59-1-.83-1.3-.12-.14-.25-.29-.37-.45l0,.26a1.57,1.57,0,0,0-.17-.43c-.19-.38-.25-.14-.36.07s-.18,0-.2.21c0-.14,0-.21-.08-.36s.14.44,0,.37-.1-.3-.12-.45c-.09.07.09.52,0,.52s0-.44-.1-.45,0,.15,0,.23c-.13-.46-.26-.74-.31-.26,0-.16,0-.4,0-.57h0c0,.09,0,.24,0,.32a1.46,1.46,0,0,1,0-.29l0,.05a.87.87,0,0,0,0,.23v-.2a.76.76,0,0,0-.09.18,2,2,0,0,0-.07.63A7.68,7.68,0,0,0,55.17,46.28Z" transform="translate(0 0)"/><path class="cls-1" d="M55.62,47.93s.05-.08.1,0,.12.35.27.49l.06,0,.2.44c.19.23.38.46.59.67,0,0,0,0,.06,0a3.44,3.44,0,0,1,.29.37l.06,0,.06,0,.13.17a18.29,18.29,0,0,0,2.2,1.55,4.64,4.64,0,0,1,.55.26c.23.15.49.4.7.57.11-.21.71.07.73-.2.14.11.36.25.41.21s.37-.26.82-.13c.16.07.36.28.43.27s-.13-.23,0-.24a23,23,0,0,1-3.13-2.25,9.13,9.13,0,0,1-1.48-1.35,13.28,13.28,0,0,1-1.38-1.78l0-.06a6.79,6.79,0,0,0-.77-1l-.4-.36v.25a1.17,1.17,0,0,0-.22-.35c-.26-.29-.27-.05-.34.15s-.17,0-.16.23l-.13-.27c-.06,0,.2.31.07.29s-.13-.21-.18-.32c-.06.08.16.39.08.41s0-.36-.16-.33,0,.12.06.17c-.2-.31-.39-.46-.34-.1a3,3,0,0,0-.15-.38h0l.08.22-.09-.2,0,.06a.44.44,0,0,0,0,.15l-.06-.13a.75.75,0,0,0,0,.16,1.81,1.81,0,0,0,0,.46A13.38,13.38,0,0,0,55.62,47.93Z" transform="translate(0 0)"/><path class="cls-1" d="M61,45.41s0-.08.09-.06.17.29.33.37l.05,0,.26.36.63.49s0,0,0,0a3.72,3.72,0,0,1,.31.29l.06,0,.05,0,.14.14L65,48.24a3.31,3.31,0,0,1,.5.24c.21.16.43.41.62.58.12-.2.66.13.72-.13.12.12.31.29.36.25a.73.73,0,0,1,.82,0c.15.1.3.34.37.35s-.08-.25,0-.24c-.92-.91-1.92-1.68-2.9-2.55A40,40,0,0,1,62.31,44L62.25,44a5.59,5.59,0,0,0-1-.78c-.15-.07-.32-.13-.49-.19,0,.08.06.15.08.22-.12-.11-.24-.23-.32-.24-.33-.16-.26.06-.26.27s-.14.1-.07.26l-.2-.19c-.06,0,.28.2.15.23a2.75,2.75,0,0,0-.26-.22c0,.1.26.29.19.34s-.15-.3-.24-.23.06.09.1.13c-.28-.21-.49-.26-.33,0a3.31,3.31,0,0,0-.26-.27h0l.14.16-.15-.14v.06a.94.94,0,0,0,.09.12l-.09-.09a.76.76,0,0,0,0,.15,2.1,2.1,0,0,0,.18.39C60,44.48,60.45,45,61,45.41Z" transform="translate(0 0)"/><path class="cls-1" d="M56,40s.08.07,0,.11a4,4,0,0,0-.87.22v.07a3.73,3.73,0,0,0-.74.34,3.08,3.08,0,0,0-1,1.28s0,0,0,0a4.49,4.49,0,0,0-.25.78V43s0,0,0,0,0,.25,0,.36a6.2,6.2,0,0,0,1.61,3.45c.2.19.4.38.57.56s.51.69.75,1c.13-.18.82.36.86.07.16.17.42.41.47.37s.45-.15,1,.12c.2.11.44.38.53.4S58.81,49,59,49a12,12,0,0,1-3.29-3.66A3.64,3.64,0,0,1,55,43.25a1.38,1.38,0,0,1,.5-1,1.92,1.92,0,0,1,.82-.37l.07,0a7,7,0,0,1,1.45,0c.21,0,.44,0,.66,0l-.23-.18a2.23,2.23,0,0,0,.52.12c.5.06.27-.14.14-.35s.1-.15-.09-.28l.38.13c0-.06-.48-.12-.35-.19s.32.08.47.14c0-.11-.52-.2-.47-.28s.4.25.46.16-.14-.07-.22-.1c.49.12.78.12.39-.14.15,0,.34.17.5.21h0l-.28-.13L60,41l0-.06-.2-.1.18.07a.79.79,0,0,0-.12-.15,2.92,2.92,0,0,0-.48-.35A6.06,6.06,0,0,0,56,40Z" transform="translate(0 0)"/><path class="cls-1" d="M54.78,43.39s.07-.07.1,0c.1.24,0,.48.16.71h.07a4.73,4.73,0,0,0,.16.59,6.69,6.69,0,0,0,.59.93s0,0,.06,0,.19.29.31.45l.07.07a.06.06,0,0,0,.06,0l.14.21a15.11,15.11,0,0,0,2.44,1.9,5.09,5.09,0,0,1,.62.3c.26.17.57.45.83.62.08-.21.77.09.77-.19.17.11.42.27.47.22s.38-.27.88-.15c.19.07.44.27.52.26s-.18-.23-.05-.24a15.77,15.77,0,0,1-3.6-2.39,8.29,8.29,0,0,1-1.59-1.59,4.86,4.86,0,0,1-1.1-2l0-.07a7.15,7.15,0,0,1-.12-1.17,2,2,0,0,1,0-.49l-.18.15a1.55,1.55,0,0,0,.12-.38c.09-.35-.1-.26-.32-.19s-.13-.12-.28,0a3.07,3.07,0,0,1,.17-.31c-.05,0-.18.4-.22.26s.12-.27.21-.39c-.12,0-.29.43-.35.37s.3-.31.23-.39-.1.11-.14.18c.21-.42.34-.7,0-.4.09-.14.28-.28.39-.42h0a1.61,1.61,0,0,0-.23.22,2.09,2.09,0,0,1,.2-.22H56a.8.8,0,0,0-.17.15l.14-.15-.2.06a1.88,1.88,0,0,0-.5.42A4.11,4.11,0,0,0,54.78,43.39Z" transform="translate(0 0)"/><path class="cls-1" d="M63.65,46.67s.05-.07.09,0,.07.26.18.35L64,47l.13.33a6.14,6.14,0,0,0,.42.47,0,0,0,0,1,0,0,2.43,2.43,0,0,1,.19.27l0,0s0,0,.05,0l.08.13c.49.39,1,.76,1.56,1.15a2.84,2.84,0,0,1,.39.2,4.06,4.06,0,0,1,.44.49c.14-.18.55.07.65-.16.09.09.22.23.27.19A.66.66,0,0,1,69,50c.11.07.2.26.26.26s0-.21.07-.21c-.66-.7-1.36-1.29-2-2a12.94,12.94,0,0,1-2-2.37l0,0a3.21,3.21,0,0,0-.61-.74l-.36-.21a1.27,1.27,0,0,1,0,.2c-.06-.11-.13-.22-.19-.24-.22-.17-.24,0-.32.19s-.16.07-.16.21l-.1-.19c-.06,0,.17.21,0,.21s-.1-.14-.14-.21.13.27,0,.3,0-.26-.13-.22,0,.08,0,.12c-.17-.21-.34-.28-.31,0a1.59,1.59,0,0,0-.12-.27h0s0,.12.06.16l-.08-.13,0,0a.36.36,0,0,0,0,.11l-.05-.08a.56.56,0,0,0,0,.12,1.22,1.22,0,0,0,0,.35A12,12,0,0,0,63.65,46.67Z" transform="translate(0 0)"/></svg>