<svg id="Layer_1" data-name="Layer 1" xmlns="http://www.w3.org/2000/svg" viewBox="0 0 120.98 89.08"><defs><style>.cls-1{fill:#ff3fb4;}</style></defs><title>5</title><path class="cls-1" d="M47,53.75s-.48-.33.37.08l1.89,1c.62.29,1.25.52,1.86.78l.92.38c.32.11.65.19,1,.29.66.19,1.33.4,2,.57l.23,0a35,35,0,0,0,7,.92,33.82,33.82,0,0,0,13-2.28c-.11,0-.17,0,.23-.16a28,28,0,0,0,2.91-1.37L80.1,53l1.61-1.14a6.47,6.47,0,0,0,.91-.73,1.44,1.44,0,0,0,.29-.33l1.27-1.15c.38-.38.7-.79,1-1.16a22.74,22.74,0,0,0,4.49-8.65,31.38,31.38,0,0,0,1.07-9.76A32.81,32.81,0,0,0,83.85,11.2a29.8,29.8,0,0,0-6.37-6A30.41,30.41,0,0,0,64.89.07c.29.16-2-.13-4.2-.06C59.61.12,58.58.17,58,.32s-.86.22-.37.21a21.94,21.94,0,0,0-4.27,1c-.64.24-1.22.42-1.63.61a6.73,6.73,0,0,0-.7.37c-.23.24-.84.54-2,1.4a26,26,0,0,0-5.36,4.77,29.09,29.09,0,0,0-2.74,3.7,14.82,14.82,0,0,0-1,1.77l-.58,1.12c-.63,1.39,1.76-3.09,1.12-1.7a27.79,27.79,0,0,1,4.52-6A23.23,23.23,0,0,1,51,3.31,23.48,23.48,0,0,1,65.42,1.54,30.48,30.48,0,0,1,72.5,3.82a28,28,0,0,1,11.22,9.72,29.85,29.85,0,0,1,3.47,6.77,31.33,31.33,0,0,1,2,11.32,28.6,28.6,0,0,1-1.54,9,21.88,21.88,0,0,1-2.19,4.52,13.23,13.23,0,0,1-1.54,2l-.83,1c-.31.31-.64.59-1,.89A24.74,24.74,0,0,1,73,54.24a33.37,33.37,0,0,1-9.79,1.57,33.06,33.06,0,0,1-8.36-1,25.71,25.71,0,0,1-3.2-1l-1.33-.51c-.4-.18-.76-.39-1.09-.55l-1-.49A23.14,23.14,0,0,1,36.71,36.64a28.88,28.88,0,0,1-.63-7.73L36,29.8l0,.85c0,.56,0,1.08-.06,1.57a36.9,36.9,0,0,1,.43-6.34,15,15,0,0,1,.3-1.71l.2-1c.08-.46.07-.53,0-.36A27.45,27.45,0,0,0,36,25.54c-.33,1.57-.09-.59-.55,1.88.14-.89.25-1.57.36-2.24s.31-1.33.52-2.21a19.38,19.38,0,0,0-.58,2.49c-.21,1.25-.38,2.38-.34,1.75.17-.86.27-1.79.47-2.7s.38-1.85.69-2.71A22.44,22.44,0,0,0,35.68,25c-.25,1.44-.46,2.78-.46,2.64,0-.49.28-1.76.5-2.94s.55-2.25.57-2.43-.45,1.7-.66,2.59a35.52,35.52,0,0,1,.9-3.55l.37-1.25.29-.82c.14-.4.15-.49,0-.18a16,16,0,0,0-.88,2.25,37.31,37.31,0,0,1,2.42-5.74h0c-.41.86-1.19,2.3-1.47,3.13.37-1,.89-2,1.35-2.94l-.29.49a22.9,22.9,0,0,0-1,2.23,19.26,19.26,0,0,1,.89-2,16.89,16.89,0,0,0-.86,1.62,31.54,31.54,0,0,0-2.12,6.06A29.46,29.46,0,0,0,36.12,41a24.88,24.88,0,0,0,4.32,7.35A27.4,27.4,0,0,0,47,53.75Z" transform="translate(0 0)"/><path class="cls-1" d="M81.63,21.7s.11-.07.07.09c-.12.46-.36.79-.45,1.27l0,.05c-.12.36-.25.72-.36,1.11a16.05,16.05,0,0,0-.26,2.17s0,0,0,.05l-.08,1.15v.19a.15.15,0,0,0,0,.07v.53a18,18,0,0,0,1.74,6.27l.72,1.24c.31.6.72,1.37,1.07,1.94.13-.2,1.15,1,1.16.63a3.47,3.47,0,0,0,.73.83c.21-.06.58.06,1.45.75.32.29.77.77.91.85s-.33-.47-.11-.36a17.58,17.58,0,0,1-5.06-7.81,14.21,14.21,0,0,1-.82-4.78,16.07,16.07,0,0,1,.89-5.39l.06-.16c.34-1,.86-2.12,1.23-2.93.16-.37.31-.77.49-1.14l-.38.38c.23-.36.47-.7.54-.86.46-.78.06-.45-.28-.25s-.09-.18-.38.11c.16-.24.26-.35.44-.58,0-.07-.51.74-.47.52s.34-.49.52-.73c-.14,0-.64.8-.68.72s.59-.6.53-.71-.19.21-.28.33c.51-.76.78-1.2.15-.63.18-.23.49-.51.67-.76h0l-.38.42.34-.41-.09.05a2.57,2.57,0,0,0-.28.29l.23-.27a2.29,2.29,0,0,0-.27.17,6.08,6.08,0,0,0-.79.72A17.38,17.38,0,0,0,81.63,21.7Z" transform="translate(0 0)"/><path class="cls-1" d="M88.66,29.7s-.06.06-.09,0,0-.22-.1-.29l-.06,0a1.23,1.23,0,0,1,0-.27,3.39,3.39,0,0,1-.18-.39s0,0,0,0a.35.35,0,0,1,0-.21v0h-.06s0-.07,0-.1a2.49,2.49,0,0,1,0-1.51,1.93,1.93,0,0,1,.06-.42,4.45,4.45,0,0,1,.33-.55c-.22-.08-.12-.55-.37-.56.06-.11.13-.27.07-.3a.79.79,0,0,1-.41-.52c0-.09.09-.22,0-.25s-.15.1-.2,0a15,15,0,0,1-1,2.35,5.48,5.48,0,0,0-.27,1.93,5.49,5.49,0,0,0,.67,2l0,.05a2.64,2.64,0,0,0,.7.83c.12.07.26.13.39.19s0-.14,0-.2c.08.11.16.21.23.22.25.15.24-.05.29-.23s.15-.09.13-.23l.13.17s-.2-.18-.08-.2.12.12.18.18-.17-.24-.09-.29.06.26.15.2,0-.08-.06-.11c.2.17.37.21.3,0a1.6,1.6,0,0,0,.16.23h0a.64.64,0,0,0-.08-.14l.09.11,0,0a.31.31,0,0,0-.05-.1l.06.07s0-.08,0-.13a1.65,1.65,0,0,0,0-.33C89.13,30.45,88.87,30.07,88.66,29.7Z" transform="translate(0 0)"/><path class="cls-1" d="M89.7,29.54s-.08,0-.1,0,.09-.15,0-.23h-.06l.08-.19-.06-.36h-.06a.42.42,0,0,1,0-.19v0h-.05s0-.07,0-.09c-.12-.35-.26-.72-.37-1.13A1.07,1.07,0,0,1,89,27a1.78,1.78,0,0,1,.07-.39c-.23,0-.29-.32-.53-.3,0-.08,0-.2,0-.22a.61.61,0,0,1-.46-.41c0-.09.1-.21.07-.25s-.16.08-.21,0a8.39,8.39,0,0,0-.29,2c.06.25.11,1.79.13,2.19v0a1.4,1.4,0,0,0,.17.65l.22.22.1-.12c0,.08,0,.17.06.19s.23,0,.37,0,.17,0,.23-.1l0,.13c.06,0-.07-.15,0-.13s0,.1,0,.15,0-.18.08-.19-.09.17,0,.16,0-.06,0-.08c.07.15.18.22.27.05,0,.05,0,.13,0,.18h0s0-.08,0-.1v.09l0,0s0,0,0-.08v.06l.09-.07c0-.08.14-.16.14-.2C89.73,30.14,89.72,29.84,89.7,29.54Z" transform="translate(0 0)"/><path class="cls-1" d="M32.58,70.15s0-.09,0-.1.19.13.32.1v-.06l.27.11a3,3,0,0,0,.52-.06s0,0,0-.06a2,2,0,0,1,.27,0l0,0s0,0,0-.05h.12a3.77,3.77,0,0,0,1.18-.92,1.3,1.3,0,0,1,.16-.29,3.37,3.37,0,0,1,.37-.29c-.17-.15-.06-.46-.28-.56.06,0,.13-.14.08-.18a.9.9,0,0,1-.33-.49c0-.06.12-.11.09-.14s-.16,0-.2,0a2.41,2.41,0,0,1-.85.86,1.17,1.17,0,0,1-.63.32,1.64,1.64,0,0,1-.8,0h0a.86.86,0,0,0-.45,0l-.24.08,0,.14c-.06,0-.12-.07-.16,0s-.17.14-.2.31-.1.14-.07.24l-.12-.08s.17.07.08.13-.11,0-.16-.08.16.14.11.21-.08-.2-.15-.11,0,0,.06.07c-.18-.08-.34-.06-.24.14-.06,0-.11-.13-.18-.15h0l.09.09-.09-.07v0a.13.13,0,0,0,.06.07l-.07,0v.12c0,.12.07.26.12.29A3,3,0,0,0,32.58,70.15Z" transform="translate(0 0)"/><path class="cls-1" d="M37.65,52.4s.11,0,0,.1c-.24.37-.56.56-.8.93l0,.07-.72.77L35,55.86s.05,0,0,.07c-.15.22-.4.51-.64.82l-.09.14a.07.07,0,0,0,0,.08l-.3.37-3.25,5c-.22.39-.44.78-.67,1.14-.36.53-.88,1.15-1.26,1.64.24.07-.58,1.34-.21,1.24-.25.33-.64.82-.6.89s.08.58-.49,1.53c-.24.36-.71.83-.77,1s.45-.36.36-.13c2-2.51,3.77-5,5.7-7.6.57-1,5-6.86,6.2-8.3l.11-.13c.64-.8,1.41-1.79,1.89-2.52l.63-1.06-.41.33a6.63,6.63,0,0,0,.6-.78c.48-.74.08-.43-.26-.27s-.08-.18-.38.07l.45-.52c0-.07-.52.67-.48.45s.35-.44.53-.65c-.13,0-.64.71-.68.63s.59-.52.54-.63-.19.18-.28.29c.52-.67.74-1.1.15-.58.18-.21.46-.47.63-.7h0l-.36.38.32-.37-.09,0a3.38,3.38,0,0,0-.26.27l.21-.25-.25.15a7.94,7.94,0,0,0-.75.62C39.78,49.8,38.69,51.09,37.65,52.4Z" transform="translate(0 0)"/><path class="cls-1" d="M40.1,66.62s-.1,0,0-.11c.33-.2.66-.23,1-.43V66c.28-.11.57-.21.86-.34.5-.29,1-.58,1.49-.9,0,0,0,0,0-.06.2-.14.5-.28.8-.46l.12-.09a.11.11,0,0,0,0-.07l.36-.21a49.54,49.54,0,0,0,4.06-3.33c.27-.28.54-.57.82-.83s1-.78,1.4-1.12c-.21-.13.7-1.08.35-1.08.27-.22.67-.59.64-.65s0-.55.58-1.28c.24-.28.7-.61.76-.73s-.43.23-.33,0a62.5,62.5,0,0,1-6.12,5.23,29.68,29.68,0,0,1-3.39,2.41,42.76,42.76,0,0,1-4.08,2.26l-.14.07c-.79.38-1.75.83-2.4,1.21l-.89.57.45-.06a4.22,4.22,0,0,0-.77.35c-.67.36-.23.31.1.36s0,.19.33.13l-.56.21c0,.07.67-.3.56-.14s-.45.19-.68.27c.11.06.79-.26.79-.17s-.68.13-.68.25a1.48,1.48,0,0,0,.34-.1c-.68.29-1,.54-.35.41-.22.08-.55.15-.78.26h0l.43-.14-.4.15h.09l.31-.09-.27.1h.26c.34-.06.68-.08.85-.14A40.34,40.34,0,0,0,40.1,66.62Z" transform="translate(0 0)"/><path class="cls-1" d="M24.64,69.26s.1.06,0,.1c-.43.11-.79,0-1.22.15l0,.07-1,.08-1.94.39s0,0,0,.06c-.26.07-.64.11-1,.17l-.17,0a.17.17,0,0,0-.06.07l-.47.07c-1.86.47-3.75,1-5.78,1.53-.43.15-.86.3-1.27.41-.62.15-1.42.27-2,.39.14.2-1.32.62-1,.79a4.08,4.08,0,0,0-1,.27c0,.21-.31.5-1.36.84-.41.12-1.07.18-1.21.25s.57,0,.35.13l9.26-1.92c1-.33,8.28-1.7,10.15-2l.17,0c1-.16,2.26-.37,3.1-.6l1.17-.37-.52,0a5.26,5.26,0,0,0,1-.19c.85-.23.34-.27,0-.37s.06-.19-.33-.2l.68-.09c0-.07-.83.16-.66,0s.56-.1.83-.14c-.11-.08-.95.11-.92,0s.78,0,.82-.12a2.57,2.57,0,0,0-.4,0c.83-.16,1.28-.33.49-.33.27,0,.65,0,.93-.11h0l-.52,0,.48-.07-.09,0-.37,0,.32,0a1.15,1.15,0,0,0-.28-.06,9,9,0,0,0-1,0C28,68.76,26.29,69,24.64,69.26Z" transform="translate(0 0)"/><path class="cls-1" d="M23.69,66s.12.05,0,.12c-.48.17-.91.16-1.37.35v.07l-1.15.28L19,67.57s0,0,0,.07c-.28.11-.69.23-1.11.37l-.18.08a.13.13,0,0,0,0,.07l-.51.17c-2,.85-4,1.76-6.12,2.77-.44.24-.88.49-1.32.69-.65.3-1.51.6-2.15.87.18.17-1.33.94-.93,1a4.92,4.92,0,0,0-1.07.52c0,.22-.26.57-1.33,1.18-.43.22-1.13.45-1.27.55s.63-.13.41,0c3.27-1.41,6.39-2.81,9.74-4.11.55-.27,2.74-1.16,5.07-2S23,68.18,24,67.93l.17-.05a8.6,8.6,0,0,1,3.1-.34,3.91,3.91,0,0,1,1.16.23L28,67.44c.37.16.77.4.95.44,1,.38.48,0,.22-.3s.17-.11-.18-.37l.68.36c.06,0-.85-.41-.62-.4a7,7,0,0,0,.83.4c-.05-.1-.91-.5-.84-.56s.71.51.8.43-.24-.15-.37-.22c.85.4,1.26.34.62,0a2.09,2.09,0,0,0,.78.22h0a2.13,2.13,0,0,1-.42-.1,1.4,1.4,0,0,0,.39.07l-.06-.05-.29-.07.26,0-.2-.14c-.28-.13-.54-.38-.73-.48a11.63,11.63,0,0,0-1.34-.7,5.6,5.6,0,0,0-1.64-.39A9.27,9.27,0,0,0,23.69,66Z" transform="translate(0 0)"/><path class="cls-1" d="M19.3,71.33s-.07-.06,0-.1.41,0,.61-.15V71l.54-.08,1-.33s0,0,0-.06a3.56,3.56,0,0,1,.52-.13l.08,0s0,0,0,0l.24,0c.93-.37,1.88-.74,2.94-1.08a6,6,0,0,1,.66-.26,9.76,9.76,0,0,1,1.07-.13c-.08-.22.7-.43.52-.64.21,0,.54,0,.55-.12s.18-.44.76-.61c.23,0,.59,0,.67,0s-.31-.12-.18-.19a30.1,30.1,0,0,0-5.09.69c-.29.1-1.4.37-2.56.69s-2.34.72-2.83.86l-.09,0a7.81,7.81,0,0,0-1.57.68l-.54.42a1.5,1.5,0,0,1,.3,0,1.42,1.42,0,0,0-.48.23c-.39.27-.1.27.12.35s0,.17.24.16l-.34.14c0,.06.4-.21.35-.07a3.52,3.52,0,0,0-.4.18c.08.06.47-.17.49-.07s-.42,0-.41.16.14,0,.21-.06c-.4.2-.58.4-.16.34a4.28,4.28,0,0,0-.46.17h0L16.3,72l-.23.1.05,0a.59.59,0,0,0,.19-.05l-.15.06.17,0a2.44,2.44,0,0,0,.52,0Z" transform="translate(0 0)"/><path class="cls-1" d="M18.22,71.23s-.07-.06,0-.1c.28-.12.55,0,.83-.15v-.06l.71-.08,1.31-.33s0,0,0-.06.44-.08.7-.13l.12,0a.11.11,0,0,0,0-.06l.32,0c1.27-.37,2.56-.74,4-1.09a7.32,7.32,0,0,1,.88-.26c.44-.08,1-.1,1.42-.14-.09-.22.95-.43.72-.65a2.19,2.19,0,0,0,.73-.11c.05-.2.25-.45,1-.62.3,0,.77,0,.87,0s-.4-.12-.23-.19a57.14,57.14,0,0,0-6.63.71c-.37.11-1.84.37-3.36.69l-3.76.83-.11,0a13,13,0,0,0-2.13.66l-.76.41h.38a3.29,3.29,0,0,0-.66.22c-.55.28-.19.29.08.37s0,.18.27.17l-.46.13c0,.07.55-.2.46-.06a5.05,5.05,0,0,0-.55.18c.08.07.64-.16.63-.07s-.54,0-.55.16a.86.86,0,0,0,.28-.06c-.55.21-.83.4-.28.36-.18,0-.45.08-.63.15h0l.35-.08L13.9,72,14,72l.25,0L14,72l.21,0a4,4,0,0,0,.67,0Z" transform="translate(0 0)"/><path class="cls-1" d="M27.29,68.09s-.06-.06,0-.09.28,0,.4-.13l0-.06.35-.07c.2-.1.39-.21.58-.32,0,0,0,0,0-.06a2,2,0,0,1,.32-.14l.05,0a.13.13,0,0,0,0-.06l.15,0,1.62-1.25A2.63,2.63,0,0,1,31,65.5a5.11,5.11,0,0,1,.64-.27c-.13-.2.28-.52.09-.68.12-.06.31-.14.3-.21a.63.63,0,0,1,.22-.7c.12-.09.36-.11.38-.17s-.22,0-.18-.13c-1,.4-1.89.92-2.86,1.38a26.1,26.1,0,0,1-3.1,1.59l-.05,0a3.6,3.6,0,0,0-.92.54l-.29.34.21,0c-.13.06-.26.11-.29.17-.22.22,0,.25.15.34s.05.17.19.18l-.21.09c0,.07.24-.15.23,0s-.16.1-.25.13c.07.07.31-.1.33,0s-.28,0-.25.11.09,0,.13,0c-.24.15-.34.31-.05.31a1.51,1.51,0,0,0-.3.1h0l.17,0-.15.07,0,0,.12,0-.1,0,.13,0a1.19,1.19,0,0,0,.36,0C26.26,68.54,26.78,68.33,27.29,68.09Z" transform="translate(0 0)"/><path class="cls-1" d="M28.58,68.22s-.07-.06,0-.1.34-.05.48-.16V67.9l.43-.1.71-.39s0,0,0-.06a3.2,3.2,0,0,1,.4-.17l.06,0s0,0,0-.06l.18-.07c.66-.45,1.32-.93,2.05-1.43a3.48,3.48,0,0,1,.42-.37,7.83,7.83,0,0,1,.79-.34c-.14-.19.38-.56.17-.72.15-.07.39-.17.37-.23a.74.74,0,0,1,.34-.76c.15-.1.43-.14.47-.2s-.27,0-.21-.13c-1.22.5-2.33,1.12-3.53,1.68a37.83,37.83,0,0,1-3.83,1.92l-.06,0a5.64,5.64,0,0,0-1.14.64c-.13.12-.25.25-.38.38l.24,0a.84.84,0,0,0-.35.2c-.29.24-.05.26.14.34s0,.17.21.17l-.26.11c0,.07.31-.18.28,0s-.2.12-.31.16c.08.06.37-.14.39-.05s-.34,0-.31.14.11,0,.16,0c-.3.18-.43.36-.09.33a2.6,2.6,0,0,0-.36.13h0a1.59,1.59,0,0,0,.2-.07l-.18.08,0,0,.15,0-.12,0,.14,0a2.64,2.64,0,0,0,.43,0C27.31,68.77,28,68.51,28.58,68.22Z" transform="translate(0 0)"/><path class="cls-1" d="M28,69.24s-.07-.06,0-.1.44-.09.64-.23v-.06l.57-.15,1-.49s0,0,0,0,.33-.14.53-.23l.09,0a.2.2,0,0,0,0-.07l.25-.09L33.9,66a4.83,4.83,0,0,1,.61-.43c.31-.17.74-.31,1.05-.44-.14-.19.58-.64.33-.78.21-.09.53-.22.52-.29s0-.48.55-.83c.2-.12.57-.2.63-.27s-.34,0-.24-.11c-1.65.65-3.17,1.42-4.79,2.14-.52.34-4.23,2-5.21,2.43l-.09,0a10.81,10.81,0,0,0-1.56.79c-.18.14-.36.3-.54.45l.31,0a1.94,1.94,0,0,0-.49.25c-.4.29-.11.28.13.35s0,.18.25.16l-.35.15c0,.06.41-.23.36-.08a3.89,3.89,0,0,0-.42.19c.08.06.5-.18.51-.09s-.44.07-.42.18.14,0,.21-.07c-.41.22-.61.42-.17.36a4.59,4.59,0,0,0-.48.17h0l.27-.09-.25.11.07,0a1.39,1.39,0,0,0,.19-.06l-.16.07.18,0a3.22,3.22,0,0,0,.55,0C26.32,70,27.18,69.61,28,69.24Z" transform="translate(0 0)"/><path class="cls-1" d="M29,69.32s0-.07,0-.1.24.07.36,0v-.06l.32,0,.57-.13s0,0,0,0a1.28,1.28,0,0,1,.3,0l.05,0s0,0,0,0h.14c.54-.21,1.07-.46,1.64-.72a2.25,2.25,0,0,1,.35-.22,4.22,4.22,0,0,1,.59-.09c-.07-.22.33-.42.2-.63.12,0,.29-.05.29-.12a.63.63,0,0,1,.3-.62c.11,0,.32,0,.35-.06s-.19-.1-.13-.18c-.9.14-1.74.4-2.63.56a14.14,14.14,0,0,1-2.89.55h-.05a3,3,0,0,0-.88.2l-.33.22.16.1c-.12,0-.24,0-.28.06-.24.12-.08.22,0,.37s0,.18.11.23h-.2c0,.07.24,0,.2.06s-.16,0-.24,0,.27,0,.27.1-.23-.1-.24,0,.08,0,.12,0c-.24,0-.37.17-.13.27a1.22,1.22,0,0,0-.27,0h0a.76.76,0,0,0,.15,0H27.1l0,0,.11,0h-.1l.09.09a1.36,1.36,0,0,0,.3.15A12.07,12.07,0,0,0,29,69.32Z" transform="translate(0 0)"/><path class="cls-1" d="M31.74,68.75s0-.08,0-.1.35,0,.53,0v-.07h.47c.27-.08.55-.15.82-.25,0,0,0,0,0-.06a2.81,2.81,0,0,1,.44-.11l.07,0a.13.13,0,0,0,0-.06l.2,0a17.36,17.36,0,0,0,2.23-1.32,3.67,3.67,0,0,1,.43-.37c.23-.14.55-.27.78-.39-.14-.18.34-.6.11-.73.15-.08.37-.21.34-.28a.74.74,0,0,1,.21-.78c.12-.12.39-.2.41-.27s-.26,0-.22-.09a21.57,21.57,0,0,1-3.21,1.82,8.79,8.79,0,0,1-1.77.76,12.32,12.32,0,0,1-2.09.49l-.07,0a6.27,6.27,0,0,0-1.22.25l-.47.22.21.1a1.13,1.13,0,0,0-.39.06c-.35.11-.14.22,0,.37s0,.18.14.24h-.29c0,.06.36,0,.28.06a2.11,2.11,0,0,0-.35,0c0,.09.4,0,.39.1s-.33-.1-.35,0,.12,0,.17,0c-.35,0-.55.16-.21.27a2.68,2.68,0,0,0-.4,0h0l.22,0H29l0,0a.41.41,0,0,0,.16,0H29l.12.09a1.78,1.78,0,0,0,.42.16A13.23,13.23,0,0,0,31.74,68.75Z" transform="translate(0 0)"/><path class="cls-1" d="M36.67,67.07s-.08,0,0-.11c.22-.14.47-.12.69-.26v-.07l.61-.2c.35-.18.7-.37,1-.58,0,0,0,0,0-.06a6,6,0,0,1,.56-.27l.09-.06a.07.07,0,0,0,0-.06l.26-.13c1-.65,1.92-1.35,2.94-2.12.21-.19.41-.38.61-.53s.76-.44,1.08-.62c-.17-.17.54-.74.26-.85.22-.12.53-.32.51-.38s0-.49.47-.94c.2-.16.57-.31.62-.39s-.35.06-.26-.07c-1.62,1-3.13,2-4.78,3A43.46,43.46,0,0,1,36,65.26l-.09,0a13,13,0,0,0-1.67.87l-.58.46.32,0a2.16,2.16,0,0,0-.52.27c-.44.3-.12.29.12.35s0,.18.26.15l-.38.16c0,.07.46-.23.39-.09a4.54,4.54,0,0,0-.45.21c.08.06.54-.2.55-.11s-.48.08-.46.19.15,0,.23-.07c-.45.23-.67.44-.2.36a5.62,5.62,0,0,0-.53.19h0l.3-.09-.27.11.07,0,.21-.07-.18.08.19,0a3.53,3.53,0,0,0,.6-.07C34.82,67.88,35.76,67.5,36.67,67.07Z" transform="translate(0 0)"/><path class="cls-1" d="M31.88,69.19s-.05-.08,0-.1.33,0,.49,0V69h.44c.25-.07.51-.15.76-.24,0,0,0,0,0-.06a1.75,1.75,0,0,1,.41-.1l.06,0a.11.11,0,0,0,0,0l.19,0a18.25,18.25,0,0,0,2.07-1.24,4.58,4.58,0,0,1,.42-.35,6.16,6.16,0,0,1,.74-.33c-.14-.19.32-.57.1-.72.15-.07.36-.18.33-.24a.73.73,0,0,1,.22-.76c.12-.1.37-.16.4-.23s-.25,0-.21-.1a31.18,31.18,0,0,1-3.09,1.61,8.65,8.65,0,0,1-1.66.7,12.45,12.45,0,0,1-2,.5h-.06a5.53,5.53,0,0,0-1.15.29L30,67.8l.21.09a.93.93,0,0,0-.37.08c-.32.13-.12.22,0,.37s0,.18.14.23l-.26,0c0,.06.32-.07.26,0a1.24,1.24,0,0,0-.33,0c.05.08.38,0,.37.08s-.31-.09-.32,0,.1,0,.16,0c-.33.06-.51.18-.19.27a2.29,2.29,0,0,0-.37,0h0l0,0,.15,0h-.13a.52.52,0,0,0,.11.1,2.81,2.81,0,0,0,.4.14A13.82,13.82,0,0,0,31.88,69.19Z" transform="translate(0 0)"/><path class="cls-1" d="M34.78,65.68s-.09,0,0-.1.46-.17.67-.34l0-.07.6-.26q.51-.33,1-.69s0,0,0-.06a4.69,4.69,0,0,1,.54-.34l.09-.07a.16.16,0,0,0,0-.07l.25-.15c.9-.77,1.78-1.59,2.7-2.5.18-.22.36-.43.54-.62s.7-.54,1-.77c-.19-.14.43-.82.14-.88.2-.16.48-.4.46-.46s-.09-.48.32-1c.17-.19.52-.39.56-.48s-.34.12-.28,0C41.86,58,40.51,59.25,39,60.41a25.19,25.19,0,0,1-2.31,1.78C35.58,63,34.4,63.68,33.9,64l-.09,0a15.62,15.62,0,0,0-1.59,1l-.55.51.33-.05a1.83,1.83,0,0,0-.51.31c-.42.33-.11.3.15.34s0,.18.27.13l-.37.19c0,.07.44-.27.39-.12a3.88,3.88,0,0,0-.45.24c.09.06.53-.24.55-.15s-.47.12-.45.23.15,0,.23-.09c-.44.27-.65.49-.18.38-.14.07-.37.14-.52.23h0l.3-.12-.27.13.07,0,.21-.08-.18.09h.2a3.46,3.46,0,0,0,.6-.12C33,66.67,33.89,66.2,34.78,65.68Z" transform="translate(0 0)"/><path class="cls-1" d="M35.42,62.22s-.11,0,0-.1c.21-.26.49-.35.7-.61l0-.06.64-.49c.35-.36.69-.72,1-1.09,0,0,0,0,0-.06s.35-.35.57-.56l.08-.1a.06.06,0,0,0,0-.07l.27-.25c.93-1.12,1.84-2.29,2.83-3.56.19-.29.37-.58.57-.84s.76-.79,1.09-1.14c-.22-.1.46-1,.14-1,.21-.23.53-.57.5-.63s-.1-.52.36-1.21c.19-.27.58-.58.63-.7s-.38.23-.31,0c-1.65,1.76-3.15,3.53-4.82,5.29-.47.68-4.35,4.68-5.42,5.63l-.09.09a18.86,18.86,0,0,0-1.66,1.72l-.55.76.37-.18a3.19,3.19,0,0,0-.53.53c-.42.53-.06.36.23.3s.07.17.33,0l-.38.35c0,.07.44-.46.41-.29s-.3.31-.46.45c.12,0,.56-.47.59-.39s-.51.32-.46.42a1.37,1.37,0,0,0,.24-.19c-.45.47-.64.78-.13.47-.15.14-.39.3-.54.46h0l.31-.25-.28.25h.08l.22-.17-.18.16.22-.07a4.78,4.78,0,0,0,.65-.36C33.55,64,34.5,63.1,35.42,62.22Z" transform="translate(0 0)"/><path class="cls-1" d="M3.51,80s.09,0,.08.07c-.07.32-.3.5-.39.8l0,.05a4.21,4.21,0,0,1-.44.58,2.57,2.57,0,0,1-.8.81s0,0,0,.06a.9.9,0,0,1-.48.11H1.45a.09.09,0,0,0,0,0h0l.74,1.22.17-.35A46.23,46.23,0,0,0,3.67,78.5c.05-.38.1-.75.17-1.11.13-.52.33-1.18.48-1.66-.12,0-.13-.29-.1-.58s.09-.55-.08-.49a6.68,6.68,0,0,1,.63-.79A.53.53,0,0,1,5,73.41a1.62,1.62,0,0,1,1.42-.19,1.67,1.67,0,0,1,.86.69,2.1,2.1,0,0,1,.26.86s0,0,0,0a1.2,1.2,0,0,0,0-.31c0-.26-.11-.53,0-.33a2.06,2.06,0,0,0-1.52-1.23,2.36,2.36,0,0,0-1.72.27A3.73,3.73,0,0,0,3,75.44C2.64,76.77,2.33,78,1.9,79.22A29.11,29.11,0,0,1,.52,83L0,84.21l1.29.08a3.16,3.16,0,0,0,1.85-.5A4.47,4.47,0,0,0,4.3,82.66a8.33,8.33,0,0,0,1-1.88l0-.15a11.75,11.75,0,0,0,.57-2.71c0-.35,0-.71,0-1.06-.06.16-.13.3-.18.42a4,4,0,0,0,.09-.84c0-.75-.18-.34-.37-.08s-.16-.09-.27.21L5.25,76c-.06,0-.06.71-.14.54s0-.47.07-.69c-.09.06-.13.78-.21.73s.2-.62.1-.68a1,1,0,0,0-.07.33c0-.7,0-1.09-.2-.47A6.06,6.06,0,0,0,4.9,75h0l-.06.42,0-.39,0,.06c0,.1,0,.2-.06.3l0-.26a2,2,0,0,0-.12.21c-.1.31-.23.59-.26.75A28.63,28.63,0,0,1,3.51,80Z" transform="translate(0 0)"/><path class="cls-1" d="M2.52,78.35s.1,0,.09.06c0,.23-.25.36-.3.59l0,0-.3.49-.38,1s.05,0,0,0a4.39,4.39,0,0,1-.24.51l0,.09a.06.06,0,0,0,0,0,2.42,2.42,0,0,1-.12.23l-.1.3,1.57.6a26.09,26.09,0,0,1,.62-2.87,5.08,5.08,0,0,1,.15-.72,8.68,8.68,0,0,1,.51-1c-.24-.06,0-.85-.24-.81.11-.2.29-.5.24-.55s-.26-.41-.05-1c.1-.22.37-.5.38-.59s-.28.2-.26,0a24.6,24.6,0,0,0-2.4,4.85c-.05.27-.35,1.14-.63,2.15l1.71.65c.57-1.26,1.18-2.76,1.43-3.32l0-.1a8.61,8.61,0,0,0,.53-1.69l.05-.71-.2.24a1.47,1.47,0,0,0,.14-.53c.06-.5-.13-.27-.34-.14s-.15-.1-.28.08L4.34,76s-.11.45-.18.32a3.19,3.19,0,0,0,.13-.44c-.1,0-.19.49-.27.44s.25-.37.15-.43a.63.63,0,0,0-.09.2c.11-.45.09-.73-.15-.36,0-.14.15-.32.19-.48h0L4,75.47l.09-.25-.06,0a1.08,1.08,0,0,0-.08.19l0-.17-.14.11a4.1,4.1,0,0,0-.33.44Z" transform="translate(0 0)"/><path class="cls-1" d="M5.75,75.79s-.07-.06,0-.09.21,0,.27-.12l0-.06.26,0,.38-.27s0,0,0,0A.9.9,0,0,1,6.78,75l0,0s0,0,0-.05l.11,0A7.55,7.55,0,0,1,8.14,74a1.28,1.28,0,0,1,.29-.23A3,3,0,0,1,9,73.71c-.07-.22.31-.39.21-.61.11,0,.28,0,.28-.08a.61.61,0,0,1,.39-.57c.13,0,.32,0,.36,0s-.16-.14-.09-.2a7.51,7.51,0,0,0-2.77.47c-.14.09-.72.32-1.29.63s-1.14.68-1.38.82l0,0a2.27,2.27,0,0,0-.66.65c0,.12-.09.25-.13.37H4c-.09.07-.18.15-.18.21-.1.24.08.22.25.27s.11.14.23.12l-.13.12s.13-.18.17-.07-.09.12-.14.17.19-.16.25-.09-.23.06-.16.15.06,0,.09-.06c-.13.18-.13.33.09.28-.05,0-.15.08-.19.14h0l.11-.07-.08.08,0,0,.08,0-.05,0,.12,0c.11,0,.25,0,.28,0Z" transform="translate(0 0)"/><path class="cls-1" d="M8.43,73.79s-.07-.06,0-.11c.23-.13.48-.07.71-.2v-.07l.63-.12,1.11-.42s0,0,0-.06a4.16,4.16,0,0,1,.61-.18l.09,0a.08.08,0,0,0,0-.06l.29-.07c1.07-.46,2.18-.92,3.4-1.35.26-.12.51-.23.76-.32s.88-.16,1.25-.22c-.1-.22.8-.5.58-.69.25,0,.63-.1.64-.16s.19-.47.85-.68c.27-.07.69,0,.78-.09s-.37-.09-.23-.17a40.9,40.9,0,0,0-5.86,1.12c-.32.13-1.6.49-2.93.92s-2.7.92-3.26,1.1l-.1,0A10.19,10.19,0,0,0,6,72.79l-.62.47.34,0a2.07,2.07,0,0,0-.55.28c-.46.32-.13.29.12.35s0,.18.27.15l-.39.16c0,.07.46-.24.4-.09a3.31,3.31,0,0,0-.47.22c.09,0,.55-.21.56-.12s-.48.08-.47.2.16,0,.24-.08c-.46.24-.68.46-.2.37-.15.06-.38.12-.53.2h0l.3-.1-.27.12.07,0L5,74.84l-.18.07a1.25,1.25,0,0,0,.19,0,4.6,4.6,0,0,0,.61-.08Z" transform="translate(0 0)"/><path class="cls-1" d="M15.53,71.91s-.09-.06,0-.11c.29-.14.58-.09.87-.22v-.07l.77-.15,1.37-.49s0,0,0-.06.46-.14.74-.21l.12,0s0,0,0-.06l.34-.09c1.32-.53,2.66-1.07,4.13-1.62a8.89,8.89,0,0,1,.91-.39c.45-.15,1-.25,1.49-.36-.12-.2.94-.58.67-.75.3-.07.75-.17.76-.24s.2-.48,1-.78c.3-.1.8-.12.91-.19s-.44,0-.28-.14c-2.35.45-4.57,1.09-6.89,1.72-.77.29-6.05,1.93-7.4,2.37l-.12,0a15.66,15.66,0,0,0-2.21.87l-.79.48.4,0a3.24,3.24,0,0,0-.68.28c-.58.32-.19.3.1.36s0,.19.29.16l-.49.17c0,.06.59-.25.49-.1a4.07,4.07,0,0,0-.58.22c.1.06.68-.21.68-.12s-.58.09-.58.2.19,0,.29-.07c-.58.25-.87.46-.29.37-.19.07-.47.13-.66.21h0l.37-.1-.34.12.08,0,.26-.07-.23.07a.85.85,0,0,0,.23,0,4.7,4.7,0,0,0,.72-.08Z" transform="translate(0 0)"/><path class="cls-1" d="M26.57,68.43s-.07-.06,0-.1c.26-.09.51,0,.77-.11v-.07l.67-.06c.41-.11.81-.22,1.2-.35,0,0,0,0,0-.06a6.58,6.58,0,0,1,.64-.16l.1,0a.07.07,0,0,0,0-.06l.3-.06c1.14-.45,2.27-1,3.48-1.51a7.92,7.92,0,0,1,.74-.41c.38-.16.87-.29,1.24-.41-.13-.2.71-.64.45-.79.25-.08.61-.22.61-.29s.09-.48.67-.84c.24-.13.65-.21.72-.28s-.37,0-.26-.11c-1.85.69-3.6,1.42-5.5,2a26.23,26.23,0,0,1-2.87,1c-1.32.38-2.72.71-3.29.81l-.11,0a13.84,13.84,0,0,0-1.9.49l-.71.31.34.06a2.2,2.2,0,0,0-.6.14c-.52.19-.2.25,0,.37s0,.18.22.21l-.42.06c0,.07.52-.12.42,0a3.18,3.18,0,0,0-.52.1c.07.07.6-.07.59,0s-.5,0-.52.08.17,0,.26,0c-.53.12-.8.27-.3.31a5.7,5.7,0,0,0-.58.06h0l.32,0-.3,0,.06,0h.23l-.2,0,.19.07a3.6,3.6,0,0,0,.63.07C24.48,68.82,25.53,68.66,26.57,68.43Z" transform="translate(0 0)"/><path class="cls-1" d="M34.36,65.35s-.09,0,0-.09.34-.16.48-.32l0-.06.43-.24q.35-.3.66-.63s0,0,0-.05a4.6,4.6,0,0,1,.37-.31l.06-.06a.14.14,0,0,0,0-.06l.18-.13c.58-.69,1.15-1.4,1.76-2.18a5.19,5.19,0,0,1,.34-.52c.2-.22.5-.45.71-.65-.19-.13.22-.7,0-.77.14-.12.35-.32.31-.38s-.16-.43.11-.87c.12-.16.39-.31.41-.39s-.28.09-.25,0c-1.06,1-2,2-3.08,3a32.09,32.09,0,0,1-3.49,3.18l-.06.06a7.19,7.19,0,0,0-1.06,1l-.32.49.26-.06a1.35,1.35,0,0,0-.34.3c-.25.33,0,.28.22.31s.07.16.25.11l-.25.18c0,.06.29-.26.28-.12s-.19.17-.29.24c.09,0,.36-.24.4-.16s-.35.12-.31.23.12-.06.17-.1c-.29.27-.4.48,0,.36a2.05,2.05,0,0,0-.36.24h0l.2-.13-.18.13.06,0a.75.75,0,0,0,.15-.09l-.12.09H32a1.75,1.75,0,0,0,.46-.13C33.12,66.3,33.76,65.84,34.36,65.35Z" transform="translate(0 0)"/><path class="cls-1" d="M29.05,70.37s-.05-.07,0-.1.28,0,.42,0v-.07l.37,0c.21-.07.43-.13.64-.21,0,0,0,0,0,0a2.29,2.29,0,0,1,.35-.08l.05,0a.11.11,0,0,0,0,0l.16,0c.59-.3,1.17-.65,1.79-1a2.42,2.42,0,0,1,.35-.3c.19-.1.46-.16.65-.24-.11-.2.3-.5.11-.67.13-.05.31-.13.29-.19a.68.68,0,0,1,.21-.7c.11-.08.34-.1.36-.16s-.22,0-.18-.13c-.93.38-1.78.84-2.74,1.17a12.1,12.1,0,0,1-3.14,1H28.7a3.71,3.71,0,0,0-1,.26l-.36.24.18.09a.59.59,0,0,0-.31.07c-.27.13-.1.23,0,.37s0,.18.13.23l-.23,0c0,.07.28-.07.23,0a.84.84,0,0,0-.27,0c0,.08.31,0,.31.08s-.27-.08-.27,0,.09,0,.13,0c-.27.06-.42.18-.15.27-.09,0-.22,0-.31,0h0s.13,0,.17,0l-.16,0,0,0h0l.1.09a2.26,2.26,0,0,0,.35.14A10.9,10.9,0,0,0,29.05,70.37Z" transform="translate(0 0)"/><path class="cls-1" d="M36.59,68.62s-.06-.06,0-.1.28,0,.4-.15l0-.06.37-.09c.2-.12.39-.25.58-.38,0,0,0,0,0-.06a2.32,2.32,0,0,1,.32-.17l0,0a.07.07,0,0,0,0-.06l.15-.07c.51-.45,1-1,1.52-1.48a4.18,4.18,0,0,1,.29-.38,4.38,4.38,0,0,1,.6-.39c-.16-.17.19-.57,0-.7.12-.07.29-.2.26-.26a.67.67,0,0,1,.07-.73c.1-.11.32-.19.33-.25s-.23,0-.2-.09c-.87.61-1.65,1.28-2.54,1.86a15,15,0,0,1-2.92,1.85l0,0a4.43,4.43,0,0,0-.9.56l-.29.34.21,0c-.13.06-.26.11-.29.17-.23.21,0,.25.14.34s.05.18.2.18l-.22.09c0,.07.25-.15.24,0s-.17.09-.26.13c.07.06.31-.11.34,0s-.3,0-.27.11.1,0,.14,0c-.25.15-.36.32-.06.31a1.63,1.63,0,0,0-.31.11h0l.17-.05-.15.06,0,0a.28.28,0,0,0,.13,0l-.1,0a.67.67,0,0,0,.12.06,1.32,1.32,0,0,0,.38,0A15.45,15.45,0,0,0,36.59,68.62Z" transform="translate(0 0)"/><path class="cls-1" d="M38.8,65.1s-.09,0,0-.1.46-.18.67-.36l0-.07.6-.27c.34-.24.67-.48,1-.73,0,0,0,0,0-.06s.34-.22.54-.35l.09-.07a.16.16,0,0,0,0-.07l.25-.16c.91-.79,1.8-1.62,2.74-2.53.19-.21.37-.43.56-.62s.72-.54,1-.77c-.19-.14.46-.82.17-.88.2-.15.5-.39.47-.46s-.07-.48.37-1c.18-.19.54-.39.59-.48s-.35.11-.28,0C46,57.3,44.59,58.54,43,59.71a46.76,46.76,0,0,1-5.15,3.69l-.09.06a13.78,13.78,0,0,0-1.59,1.1l-.54.54L36,65a1.82,1.82,0,0,0-.5.34c-.41.35-.09.3.17.33s0,.18.28.11l-.37.21c0,.07.43-.29.39-.14a3.23,3.23,0,0,0-.44.27c.09,0,.52-.27.54-.18s-.47.14-.44.25.15-.06.23-.1c-.44.29-.64.53-.16.39a5,5,0,0,0-.52.26h0l.29-.13-.26.14.07,0,.21-.1-.18.1h.2a4,4,0,0,0,.6-.15C37,66.17,37.92,65.66,38.8,65.1Z" transform="translate(0 0)"/><path class="cls-1" d="M37.37,63.91s-.11,0,0-.1c.23-.25.52-.32.75-.57l0-.06.67-.46c.38-.34.75-.69,1.11-1,0,0,0,0,0-.06s.37-.33.6-.53l.09-.09s0-.06,0-.07l.29-.24c1-1.09,2-2.22,3-3.46.2-.28.4-.57.62-.82s.8-.77,1.14-1.1c-.21-.11.52-1,.19-1,.23-.22.56-.56.53-.62s-.08-.52.41-1.21c.2-.26.61-.57.66-.68s-.39.22-.31,0C45.38,53.55,43.8,55.27,42,57a70.09,70.09,0,0,1-5.79,5.36l-.1.09A19.3,19.3,0,0,0,34.35,64l-.6.72.37-.16a3.94,3.94,0,0,0-.56.5c-.47.5-.1.35.21.31s0,.18.33,0l-.42.32c0,.07.49-.43.44-.25a4.72,4.72,0,0,0-.5.41c.12,0,.6-.43.62-.35s-.53.28-.5.39.18-.11.26-.17c-.49.43-.7.74-.16.46a5.79,5.79,0,0,0-.59.42h0l.33-.23-.29.23h.08a1.88,1.88,0,0,0,.23-.16l-.19.15.23,0a5,5,0,0,0,.68-.32C35.36,65.53,36.38,64.74,37.37,63.91Z" transform="translate(0 0)"/><path class="cls-1" d="M35.66,62.34s-.1,0-.06-.09c.14-.28.39-.41.53-.69l0-.05.5-.56.76-1.19s-.05,0,0,0a6.82,6.82,0,0,1,.44-.6l.06-.11a.06.06,0,0,0,0-.06l.21-.27c.69-1.19,1.39-2.4,2.18-3.69a9.57,9.57,0,0,1,.46-.84c.26-.37.65-.81.93-1.15-.23-.09.36-1,0-1,.19-.23.48-.57.44-.63s-.14-.5.27-1.18c.17-.26.54-.58.58-.69s-.36.23-.3,0c-1.53,1.74-2.83,3.54-4.23,5.4-.41.68-3.47,5-4.24,6.18l-.07.1a15.67,15.67,0,0,0-1.18,2l-.32.84.3-.25a2.82,2.82,0,0,0-.35.62c-.26.59,0,.34.29.22s.12.15.32-.05l-.27.42c0,.05.3-.54.32-.36a4.39,4.39,0,0,0-.32.51c.12,0,.4-.56.46-.49s-.4.41-.33.5.12-.15.18-.23c-.3.53-.39.87,0,.46-.11.16-.29.37-.39.55h0l.22-.3-.19.29.07,0a1.92,1.92,0,0,0,.16-.21l-.13.2a1,1,0,0,0,.19-.12,4.2,4.2,0,0,0,.51-.48Z" transform="translate(0 0)"/><path class="cls-1" d="M35.13,61s-.1,0-.05-.09c.15-.27.41-.38.56-.66l0-.05.53-.54L37,58.57s-.05,0,0-.06.3-.35.48-.56l.07-.11s0-.05,0-.06l.23-.25c.77-1.13,1.57-2.27,2.49-3.48.18-.27.36-.54.55-.78s.74-.73,1.06-1c-.21-.12.49-1,.17-1,.21-.21.55-.51.52-.58s-.08-.51.43-1.14c.21-.23.62-.5.68-.6s-.4.17-.31,0a55.15,55.15,0,0,0-4.9,4.89c-.23.33-1.24,1.5-2.25,2.77s-2,2.6-2.47,3.14l-.07.11a14.18,14.18,0,0,0-1.27,1.93l-.34.84.3-.25a3.13,3.13,0,0,0-.37.61c-.27.59,0,.35.29.23s.11.15.32,0l-.28.41s.31-.53.33-.36-.21.35-.33.51c.12,0,.41-.55.46-.48s-.4.4-.33.49.12-.14.18-.22c-.3.52-.4.86,0,.46-.11.16-.29.36-.39.54h0l.23-.29-.2.28.07,0,.17-.21-.13.19.19-.11A4.54,4.54,0,0,0,33,63.9Z" transform="translate(0 0)"/><path class="cls-1" d="M50.29,53.93l.06.07s-.1,0-.09,0l0,.05-.11,0a.61.61,0,0,0,0,.12l0,0s0,0-.05,0v0l0,0h0c0,.17,0,.36,0,.55a1.26,1.26,0,0,1,.05.16s-.08,0-.11.07c.16.16.17.31.35.46,0,0-.06,0,0,.09a1.26,1.26,0,0,1,.3.45s-.08,0-.06,0,.12.08.15.13c.19-.08.26-.27.4-.4,0-.12.27-.45.38-.5h0a.17.17,0,0,0,.07-.19L51.62,55l-.1-.06s0,0,0-.06-.13-.17-.26-.27-.11-.13-.18-.17l0,0s0,.06-.08,0,0,0,0,0-.07,0-.13,0,.12.06,0,0h0c0-.06,0-.15-.15-.21s.06,0,.06,0h0l0,0h0l-.08-.06-.16-.09A.74.74,0,0,0,50.29,53.93Z" transform="translate(0 0)"/><path class="cls-1" d="M35.78,59.19s-.1,0-.07-.08c.11-.25.35-.37.46-.63l-.05,0,.44-.52.64-1.08s-.05,0,0,0,.23-.34.37-.55l.06-.1a.08.08,0,0,0,0-.06l.18-.24c.58-1.09,1.17-2.2,1.85-3.37a8,8,0,0,1,.4-.77c.22-.34.58-.73.83-1-.22-.1.29-.93,0-.93.17-.2.43-.51.39-.57s-.16-.47.2-1.1c.16-.23.5-.51.53-.61s-.33.19-.28,0a56.69,56.69,0,0,0-3.8,4.9c-.66,1-3,4.62-3.67,5.69l-.06.1a12.49,12.49,0,0,0-1,1.82l-.24.78.27-.23a2.15,2.15,0,0,0-.29.57c-.19.55.07.32.31.21s.13.13.31-.05l-.23.38c.05,0,.24-.49.27-.33a5.39,5.39,0,0,0-.25.48c.11,0,.33-.52.39-.46s-.34.38-.26.46.1-.13.14-.21c-.23.49-.28.81.06.43a4.39,4.39,0,0,0-.32.51h0l.19-.28-.16.27.07,0a1.27,1.27,0,0,0,.13-.19l-.1.18.17-.11a3.12,3.12,0,0,0,.45-.45Z" transform="translate(0 0)"/><path class="cls-1" d="M49.28,55.66s.08,0,.06.09-.3.15-.4.29l0,.06-.38.22-.55.57s0,0,0,0a2.36,2.36,0,0,1-.32.28l0,.05s0,0,0,.06l-.15.12-1.52,1.92a3.19,3.19,0,0,1-.31.47,5.56,5.56,0,0,1-.65.53c.18.15-.21.64,0,.73-.13.11-.33.27-.3.33a.71.71,0,0,1-.11.81c-.12.13-.37.25-.4.32s.27-.05.23.06c1-.79,1.93-1.67,2.92-2.54.28-.37,2.49-2.43,3.08-2.95l0-.05a5.62,5.62,0,0,0,.87-1l.22-.48-.23.07a1,1,0,0,0,.27-.31c.18-.33-.05-.26-.26-.27s-.09-.15-.25-.09l.2-.19c0-.06-.22.27-.24.14s.15-.18.23-.25c-.09,0-.3.25-.35.17s.31-.14.25-.23-.1.06-.14.1c.22-.27.28-.48,0-.34a3,3,0,0,0,.28-.24h0l-.16.13.14-.14h-.06l-.12.08.09-.09h-.15a1.58,1.58,0,0,0-.39.15C50.28,54.76,49.77,55.21,49.28,55.66Z" transform="translate(0 0)"/><path class="cls-1" d="M46.23,61.46s-.08-.05,0-.1.35-.11.49-.25l0-.06.45-.19c.25-.17.49-.35.73-.54,0,0,0,0,0-.06a3.16,3.16,0,0,1,.4-.25l.06-.06s0,0,0-.06l.18-.11c.65-.61,1.29-1.25,2-2a4,4,0,0,1,.38-.49c.22-.2.53-.4.76-.57-.18-.15.27-.68,0-.77.14-.11.36-.29.33-.35s-.13-.44.15-.85c.12-.15.39-.29.41-.36s-.27.06-.24,0c-1.08.89-2.08,1.82-3.23,2.67a29.64,29.64,0,0,1-3.76,2.72l-.07,0a6.85,6.85,0,0,0-1.15.85l-.36.45.25,0a1.19,1.19,0,0,0-.36.26c-.28.3,0,.28.19.33s.06.17.24.13l-.27.16c0,.07.31-.23.29-.09a1.88,1.88,0,0,0-.31.21c.08,0,.38-.21.41-.12s-.36.09-.32.19.12,0,.17-.07c-.31.23-.43.43-.07.34-.11.07-.28.12-.38.2h0l.22-.1-.19.11.06,0,.15-.07-.12.08.15,0a2.31,2.31,0,0,0,.46-.09C44.92,62.25,45.59,61.87,46.23,61.46Z" transform="translate(0 0)"/><path class="cls-1" d="M48,56s.09,0,0,.1-.43.21-.62.39l0,.07-.56.29-.92.74s0,0,0,.06-.31.22-.5.35l-.08.07a.06.06,0,0,0,0,.06l-.24.15c-.86.77-1.73,1.56-2.69,2.39a7.6,7.6,0,0,1-.58.56c-.3.23-.73.46-1,.66.17.16-.53.75-.25.84-.21.14-.53.33-.52.39s0,.49-.48.94c-.21.16-.59.3-.65.39s.36-.06.27.07c1.69-1,3.21-2,4.82-3.14.5-.44,4.11-3.07,5-3.75l.08-.07a10.89,10.89,0,0,0,1.46-1.24l.46-.6-.31.1a2.16,2.16,0,0,0,.45-.39c.35-.41,0-.31-.22-.31s-.06-.17-.29-.08l.33-.25c0-.06-.38.34-.35.19a2.9,2.9,0,0,0,.38-.33c-.1,0-.47.34-.5.25s.44-.19.39-.3-.14.08-.2.13c.37-.34.53-.6.09-.4.13-.1.33-.21.46-.32h0l-.26.18.23-.18h-.07a1.18,1.18,0,0,0-.19.11l.15-.11L51,54a4.4,4.4,0,0,0-.55.22Z" transform="translate(0 0)"/><path class="cls-1" d="M45.11,60.78s-.08-.05,0-.1.33-.13.45-.27l0-.06.42-.2.64-.57s0,0,0-.06a4.4,4.4,0,0,1,.35-.27l0-.06a0,0,0,0,0,0,0l.17-.12c.55-.63,1.08-1.3,1.64-2a4.75,4.75,0,0,1,.31-.5c.18-.2.46-.41.65-.59-.19-.14.19-.67-.07-.75.13-.12.32-.3.28-.35A.75.75,0,0,1,50,54c.11-.14.36-.29.37-.36s-.26.07-.24,0c-1,.92-1.81,1.87-2.8,2.77A23.26,23.26,0,0,1,44,59.17l-.06,0a6.66,6.66,0,0,0-1,.85l-.31.44.24,0c-.14.1-.29.19-.32.26-.25.29,0,.27.2.32s.06.17.24.13l-.25.16c0,.06.28-.23.27-.1a2.92,2.92,0,0,0-.28.21c.08,0,.35-.2.39-.12s-.35.09-.3.19.11,0,.16-.07c-.29.23-.39.43-.05.34a2.43,2.43,0,0,0-.35.2h0l.2-.1-.18.11.06,0,.14-.07L42.7,62l.15,0a1.66,1.66,0,0,0,.44-.09A19.5,19.5,0,0,0,45.11,60.78Z" transform="translate(0 0)"/><path class="cls-1" d="M45.62,55.12s.09,0,0,.09-.41.25-.58.45l0,.06-.53.35-.84.82s0,0,0,.06-.3.25-.47.4l-.07.08s0,0,0,.06l-.22.18-2.42,2.66c-.16.22-.33.44-.5.63s-.68.54-1,.78c.2.14-.43.81-.14.87-.19.15-.49.39-.46.45s.08.48-.36,1c-.18.19-.54.38-.59.47s.35-.11.28,0c1.53-1.17,2.9-2.42,4.37-3.69.44-.49,3.75-3.47,4.61-4.22l.08-.07a11.39,11.39,0,0,0,1.34-1.36l.41-.64-.3.13a2.17,2.17,0,0,0,.41-.42c.32-.44,0-.32-.24-.29s-.08-.17-.29-.06l.3-.28c0-.06-.34.38-.33.22a3.85,3.85,0,0,0,.35-.35c-.1,0-.44.36-.48.28s.42-.23.37-.33-.13.09-.19.15c.35-.38.48-.64.06-.41a4.82,4.82,0,0,0,.43-.36h0l-.25.19.22-.19h-.07l-.18.13.15-.13-.19,0a4,4,0,0,0-.54.26C47.12,53.8,46.36,54.45,45.62,55.12Z" transform="translate(0 0)"/><path class="cls-1" d="M44,60.05s-.08,0,0-.09.32-.14.44-.29l0-.06.4-.22c.21-.2.42-.39.61-.6,0,0,0,0,0,0a2.78,2.78,0,0,1,.34-.29l.05-.05a.08.08,0,0,0,0-.06l.17-.13c.52-.65,1-1.33,1.56-2.07a3.89,3.89,0,0,1,.3-.5c.17-.21.44-.43.63-.62-.19-.13.17-.67-.09-.74.13-.12.31-.31.27-.36a.77.77,0,0,1,0-.84c.1-.15.35-.3.36-.37s-.26.08-.24,0c-.94.94-1.77,1.93-2.74,2.86a24.75,24.75,0,0,1-3.15,3l-.06,0a6.54,6.54,0,0,0-1,.91l-.28.46.24-.05a1.28,1.28,0,0,0-.31.28c-.24.31,0,.27.21.31s.08.16.25.11l-.24.18c0,.06.27-.25.27-.12a2.83,2.83,0,0,0-.28.23c.09,0,.35-.22.39-.14s-.34.11-.29.21.1,0,.15-.09c-.26.25-.36.45,0,.35a2.3,2.3,0,0,0-.33.21h0l.19-.11-.17.12.06,0,.14-.08-.11.08h.15a2.14,2.14,0,0,0,.44-.11A20,20,0,0,0,44,60.05Z" transform="translate(0 0)"/><path class="cls-1" d="M43.88,54.25s.09,0,0,.1-.4.27-.56.49l0,.06-.51.39-.79.9s0,0,0,.06a6.31,6.31,0,0,1-.45.45l-.06.08a.06.06,0,0,0,0,.06l-.22.2L39.19,60a6.67,6.67,0,0,1-.45.68c-.25.3-.63.63-.89.89.2.12-.35.86-.06.89-.18.18-.44.45-.41.51s.13.47-.25,1c-.16.2-.5.44-.54.53s.34-.15.28,0c1.4-1.35,2.64-2.76,4-4.18.39-.55,3.48-3.82,4.31-4.62l.07-.08a11,11,0,0,0,1.27-1.46c.13-.21.26-.44.38-.66l-.29.15a2.48,2.48,0,0,0,.39-.46c.3-.45,0-.31-.25-.27s-.09-.16-.3,0l.3-.3c0-.06-.34.4-.33.24a4.17,4.17,0,0,0,.34-.38c-.1,0-.43.4-.47.32s.41-.26.36-.36-.13.1-.19.16c.33-.39.45-.67,0-.41a5.11,5.11,0,0,0,.42-.39h0l-.24.21.21-.21h-.07l-.17.14.13-.14-.18,0a2.81,2.81,0,0,0-.53.3Q44.95,53.17,43.88,54.25Z" transform="translate(0 0)"/><path class="cls-1" d="M42.61,52.39s.09,0,.06.09-.36.23-.5.42l0,.06-.45.33c-.23.26-.46.52-.68.79,0,0,.05,0,0,.05a3.39,3.39,0,0,1-.38.39l0,.08s0,0,0,.06l-.18.17c-.57.84-1.12,1.71-1.71,2.66a4.1,4.1,0,0,1-.31.63c-.19.27-.48.58-.69.83.21.1-.17.79.11.81-.14.17-.33.42-.29.47s.21.42,0,1c-.11.19-.37.42-.38.51s.28-.16.26,0c1-1.28,1.9-2.58,3-3.84a31.55,31.55,0,0,1,3.49-4l.06-.07a9.23,9.23,0,0,0,1.09-1.21l.33-.56-.27.1a1.51,1.51,0,0,0,.34-.37c.27-.38,0-.29-.23-.29s-.09-.15-.28-.07l.26-.24c0-.06-.3.33-.3.18s.21-.21.32-.3c-.1,0-.39.31-.43.23s.37-.19.32-.28S45,51,45,51.08c.3-.33.41-.57,0-.38.1-.09.28-.2.38-.31h0l-.22.17.19-.17h-.06a1,1,0,0,0-.16.12l.13-.12-.18,0a3.09,3.09,0,0,0-.49.21C43.9,51.18,43.24,51.77,42.61,52.39Z" transform="translate(0 0)"/><path class="cls-1" d="M44.31,53.1s.08,0,0,.09-.32.19-.43.36l0,.05-.4.28c-.21.22-.41.45-.6.68,0,0,0,0,0,0a3.6,3.6,0,0,1-.34.34l0,.06a.07.07,0,0,0,0,.06l-.16.14c-.52.73-1,1.49-1.56,2.3a4.83,4.83,0,0,1-.3.55,8.39,8.39,0,0,1-.65.68c.2.12-.17.72.09.77-.13.13-.32.34-.28.4s.19.42,0,.87c-.1.16-.36.34-.38.41s.27-.1.25,0c1-1,1.86-2.15,2.85-3.22a37.09,37.09,0,0,1,3.19-3.46l0,0a7.23,7.23,0,0,0,1-1.08l.27-.52a1.77,1.77,0,0,1-.25.08,1,1,0,0,0,.3-.33c.22-.35,0-.28-.24-.28s-.1-.15-.27-.08l.23-.22c0-.05-.26.3-.27.16a2.29,2.29,0,0,0,.27-.27c-.09,0-.34.27-.38.2s.33-.16.28-.26-.11.07-.15.11c.25-.29.34-.51,0-.35a2.88,2.88,0,0,0,.33-.28h0l-.19.15.16-.15h-.06l-.14.1.11-.1h-.16a3.8,3.8,0,0,0-.44.18C45.43,52.05,44.86,52.56,44.31,53.1Z" transform="translate(0 0)"/><path class="cls-1" d="M44,52.9s.09,0,.07.08-.28.2-.36.37l0,0-.34.3c-.16.23-.31.46-.46.69,0,0,0,0,0,0s-.17.22-.27.35l0,.06,0,0-.13.16c-.36.73-.71,1.48-1.08,2.29a3.79,3.79,0,0,1-.19.54c-.13.23-.35.49-.5.7.21.1,0,.68.22.71-.1.14-.25.35-.2.4s.25.37.1.82c-.08.16-.3.35-.3.42s.24-.12.24,0c.79-1.07,1.43-2.17,2.18-3.27a27.33,27.33,0,0,1,2.43-3.51l0-.06A5.41,5.41,0,0,0,46.22,53l.18-.5-.23.09a.91.91,0,0,0,.24-.33c.16-.34-.06-.26-.27-.25s-.12-.14-.27-.06l.19-.22s-.2.29-.23.16a1.15,1.15,0,0,0,.21-.27c-.09,0-.28.28-.33.21s.3-.17.23-.25-.09.06-.13.11c.2-.3.25-.51-.05-.34.07-.09.21-.18.28-.28h0l-.17.15.14-.15H46l-.12.11.09-.11-.15,0a2,2,0,0,0-.39.19A21.23,21.23,0,0,0,44,52.9Z" transform="translate(0 0)"/><path class="cls-1" d="M42,52.33s.1,0,.06.09-.36.29-.49.51l0,.06-.44.42q-.34.45-.66.93s0,0,0,0a5.42,5.42,0,0,1-.36.47l0,.09a.06.06,0,0,0,0,.06l-.18.22c-.54,1-1,2-1.58,3.07a7.72,7.72,0,0,1-.29.72c-.17.32-.45.69-.64,1,.23.07-.12.87.17.84-.13.2-.31.5-.26.55s.25.41,0,1c-.1.22-.35.51-.35.6s.27-.21.26-.06c.92-1.53,1.74-3.05,2.74-4.55a24,24,0,0,1,1.48-2.31c.72-1,1.53-2,1.88-2.44l.06-.08a11.61,11.61,0,0,0,1.06-1.42l.31-.64-.27.15a2.49,2.49,0,0,0,.34-.44c.26-.44,0-.31-.26-.27s-.1-.15-.3,0l.27-.29c0-.06-.3.38-.3.23s.2-.25.31-.36c-.11,0-.39.38-.44.3s.38-.25.32-.34-.12.09-.17.15c.3-.38.4-.65,0-.4a3.48,3.48,0,0,0,.39-.38h0l-.21.21.19-.21h-.07a1.07,1.07,0,0,0-.16.14l.13-.14-.18,0a3.08,3.08,0,0,0-.5.3C43.28,50.88,42.62,51.59,42,52.33Z" transform="translate(0 0)"/><path class="cls-1" d="M42.88,52.48s.09,0,.06.08-.3.25-.39.45l.05.05-.37.36c-.18.27-.35.55-.51.83,0,0,.05,0,0,0a4.68,4.68,0,0,1-.29.42l0,.07a.09.09,0,0,0,0,.06l-.14.19c-.4.85-.76,1.74-1.14,2.69a5.21,5.21,0,0,1-.18.63c-.13.28-.36.61-.51.87.23.07,0,.76.26.74-.09.17-.23.43-.18.48s.28.36.16.88c-.07.19-.28.44-.28.52s.24-.18.25-.05c.72-1.32,1.33-2.63,2.1-3.94a28.12,28.12,0,0,1,2.59-4.15l0-.07a7.93,7.93,0,0,0,.82-1.26l.21-.57-.24.13a1.82,1.82,0,0,0,.26-.39c.18-.39-.06-.28-.28-.25s-.11-.14-.28,0l.21-.25c0-.06-.23.34-.25.2a3.81,3.81,0,0,0,.24-.32c-.1,0-.31.34-.37.27s.33-.22.26-.31-.1.08-.14.13c.22-.34.28-.58,0-.36.08-.1.23-.21.31-.33h0l-.17.18.15-.18h-.06a.77.77,0,0,0-.13.12l.1-.12-.17,0a2.45,2.45,0,0,0-.42.26A23.36,23.36,0,0,0,42.88,52.48Z" transform="translate(0 0)"/><path class="cls-1" d="M42.4,53.15s.1,0,.06.08c-.13.23-.36.31-.49.55l0,0-.45.44c-.23.33-.45.65-.66,1,0,0,.05,0,0,0s-.23.31-.37.5l-.05.09a.08.08,0,0,0,0,.06l-.17.23c-.55,1-1.06,2.06-1.6,3.2a5.94,5.94,0,0,1-.28.74,12.14,12.14,0,0,1-.65,1c.23.07-.12.9.17.86-.12.21-.3.52-.26.57s.25.42,0,1c-.09.23-.35.53-.36.63s.28-.23.27-.07c.93-1.61,1.76-3.19,2.77-4.77A22,22,0,0,1,42,57c.72-1.08,1.54-2.15,1.89-2.57l.06-.09A11.7,11.7,0,0,0,45,52.85l.31-.66-.28.16a2.06,2.06,0,0,0,.34-.46c.26-.46,0-.31-.26-.26s-.11-.15-.3,0l.27-.3c0-.06-.3.4-.31.25s.2-.27.31-.39c-.1,0-.39.41-.44.34s.39-.28.32-.37-.12.1-.17.16c.3-.4.4-.68,0-.41a4.93,4.93,0,0,0,.39-.4h0L45,50.7l.19-.22h-.07l-.16.15.13-.14-.19.06a2.42,2.42,0,0,0-.5.32C43.68,51.61,43,52.36,42.4,53.15Z" transform="translate(0 0)"/><path class="cls-1" d="M41.78,52s.1,0,.07.08-.33.3-.44.52l0,.06-.41.42c-.2.31-.4.62-.57.94,0,0,0,0,0,0a4.2,4.2,0,0,1-.33.48l0,.09a.09.09,0,0,0,0,.06l-.16.22c-.45,1-.86,2-1.28,3.08-.06.25-.12.49-.2.72s-.37.7-.53,1c.23.05,0,.85.26.8-.1.2-.25.51-.19.55s.28.37.16,1c-.06.23-.28.52-.27.61s.24-.22.25-.08C38.92,61,39.56,59.5,40.39,58a18.86,18.86,0,0,1,1.25-2.31,27.78,27.78,0,0,1,1.64-2.45l.06-.07a13,13,0,0,0,.95-1.42l.26-.63-.26.15a2.14,2.14,0,0,0,.31-.44c.22-.43,0-.3-.28-.25s-.1-.15-.29,0l.25-.29s-.27.38-.29.24a2.57,2.57,0,0,0,.28-.37c-.1,0-.36.39-.41.32s.36-.26.3-.35-.11.09-.16.15c.27-.38.35-.65,0-.39a4.35,4.35,0,0,0,.36-.38h0l-.2.21.18-.21h-.07l-.15.14.12-.14-.18.06a2.58,2.58,0,0,0-.47.3C42.94,50.53,42.34,51.25,41.78,52Z" transform="translate(0 0)"/><path class="cls-1" d="M40.83,52.18s.1,0,.06.09c-.14.25-.38.36-.52.62l0,0-.48.51q-.37.54-.72,1.08s0,0,0,.06-.25.34-.4.55l-.06.1a.06.06,0,0,0,0,.06l-.2.25-.22.41,1.51.53a7.35,7.35,0,0,1,.57-3.12,5.48,5.48,0,0,1,.3-.8,8.45,8.45,0,0,1,.79-1.07c-.23-.09.31-.93,0-.93.18-.21.46-.51.42-.57s-.13-.49.28-1.11c.17-.23.53-.49.57-.59s-.35.17-.29,0a17.22,17.22,0,0,0-3.82,5.33,11.07,11.07,0,0,0-.57,2.74L38,59.73,39.81,57c.92-1.36,2-3,2.5-3.51l.06-.09a15.68,15.68,0,0,0,1.17-1.69l.35-.73-.3.19a2.48,2.48,0,0,0,.38-.52c.29-.5,0-.33-.27-.25s-.1-.16-.31,0l.29-.34c0-.06-.33.45-.33.28a3.57,3.57,0,0,0,.34-.43c-.1,0-.42.46-.47.39s.41-.32.35-.42-.13.12-.19.19c.33-.45.46-.76,0-.44.11-.13.31-.3.42-.45h0l-.24.24.21-.24-.07,0a1.41,1.41,0,0,0-.18.17l.14-.17-.19.08a4.61,4.61,0,0,0-.55.37C42.21,50.43,41.5,51.3,40.83,52.18Z" transform="translate(0 0)"/><path class="cls-1" d="M47.1,54.19s.08,0,.06.08-.27.13-.36.27l0,.05-.34.2c-.17.17-.33.35-.49.53,0,0,0,0,0,0a2.49,2.49,0,0,1-.28.26l0,0s0,0,0,0l-.13.11c-.41.58-.82,1.18-1.26,1.82a2.65,2.65,0,0,1-.25.44,5.37,5.37,0,0,1-.56.51c.19.14-.13.6.11.69-.11.1-.27.26-.24.31a.67.67,0,0,1,0,.77c-.09.13-.32.24-.33.31s.24,0,.22.06c.88-.76,1.63-1.6,2.47-2.41a32.81,32.81,0,0,1,2.64-2.71l0,0a4.35,4.35,0,0,0,.76-.87c.07-.14.13-.29.19-.44l-.21,0c.11-.1.22-.2.23-.27.16-.3,0-.26-.25-.28s-.09-.15-.24-.1l.18-.17c0-.06-.2.24-.22.11s.14-.15.21-.22c-.09,0-.27.22-.32.15s.28-.11.22-.21-.08,0-.12.09c.2-.24.25-.43,0-.32.07-.07.21-.13.27-.22h0l-.16.12.13-.12h0a.41.41,0,0,0-.11.07l.08-.08h-.14a1.38,1.38,0,0,0-.37.11C48,53.37,47.54,53.77,47.1,54.19Z" transform="translate(0 0)"/><path class="cls-1" d="M43.56,50.37s-.07,0-.08-.06.11,0,.09,0l0,0h.11a.36.36,0,0,0,0-.11s0,0,0,0,0,0,0,0h0l0,0h0l-.16-.52a.45.45,0,0,1-.07-.14s.06-.06.08-.08c-.18-.14-.23-.27-.42-.4,0,0,0,0,0-.08a1.41,1.41,0,0,1-.38-.4s.08,0,.06,0-.13-.05-.17-.1-.21.3-.32.45c0,.12-.17.49-.27.55h0a.15.15,0,0,0,0,.2l.11.17.11,0s0,0,0,.06.17.14.31.21.14.1.21.13l0,0c.05,0,0-.06.08,0s0,0,0,0,.06,0,.13,0-.12,0,0,0a0,0,0,0,0,0,0c0,.06.07.14.2.17s-.07,0-.06,0h0l0,0,0,0h0l.09,0a.59.59,0,0,0,.18.06A.66.66,0,0,0,43.56,50.37Z" transform="translate(0 0)"/><path class="cls-1" d="M46.38,54.21s.08,0,0,.09-.33.16-.45.31l0,.06-.42.23-.64.61s0,0,0,.06a3.2,3.2,0,0,1-.36.29l-.05.06a.43.43,0,0,0,0,0l-.17.13-1.76,2.06a3.2,3.2,0,0,1-.36.5,8.06,8.06,0,0,1-.72.59c.18.15-.27.68,0,.77-.15.11-.37.29-.34.35s.13.45-.18.86c-.13.15-.4.28-.43.35s.28,0,.23.07c1.15-.89,2.15-1.85,3.26-2.8.31-.4,2.82-2.59,3.5-3.12l.06,0a6.06,6.06,0,0,0,1-1l.3-.49-.25.07c.14-.12.29-.24.31-.31.24-.34,0-.28-.23-.29s-.09-.16-.27-.1l.25-.19c0-.06-.27.27-.28.13a2.18,2.18,0,0,0,.28-.25c-.09,0-.35.25-.39.18s.34-.14.29-.24-.11.06-.16.1c.27-.27.36-.48,0-.35a3.53,3.53,0,0,0,.34-.24h0l-.2.13.17-.14h-.06a.67.67,0,0,0-.14.09l.11-.09h-.16a2,2,0,0,0-.44.15C47.54,53.28,47,53.73,46.38,54.21Z" transform="translate(0 0)"/><path class="cls-1" d="M46.16,53.67s.08,0,.05.09-.27.12-.36.26l0,0-.34.19-.48.53s0,0,0,.05a1.81,1.81,0,0,1-.28.25l0,0a.14.14,0,0,0,0,.06l-.14.11c-.4.57-.79,1.17-1.22,1.82a2.26,2.26,0,0,1-.22.44,5.18,5.18,0,0,1-.54.51c.19.14-.1.61.14.69-.1.11-.26.26-.22.31a.68.68,0,0,1,0,.77c-.09.13-.31.24-.31.31s.23,0,.22.05c.83-.78,1.52-1.62,2.33-2.43a24.85,24.85,0,0,1,2.56-2.65l0,0a3.91,3.91,0,0,0,.75-.84l.2-.43a1,1,0,0,1-.21,0c.11-.09.22-.19.23-.26.17-.28,0-.25-.24-.28s-.09-.15-.24-.11l.19-.16c0-.06-.2.23-.23.11s.14-.15.22-.22c-.09,0-.28.21-.32.14s.28-.1.22-.2-.09,0-.12.08c.2-.23.25-.42,0-.32a2.34,2.34,0,0,0,.27-.2h0l-.16.1.13-.11h0a.41.41,0,0,0-.11.07l.08-.08h-.14a1.89,1.89,0,0,0-.37.11C47.07,52.88,46.6,53.26,46.16,53.67Z" transform="translate(0 0)"/><path class="cls-1" d="M46.74,53.05s.07,0,.06.07-.18.07-.21.17l0,.05-.22.12-.24.37s0,0,0,0-.09.11-.15.17l0,0,0,0L46,54.2l-.49,1.29a1,1,0,0,1-.06.31,2,2,0,0,1-.3.34c.19.13.08.45.3.54-.06.07-.15.17-.1.21a.64.64,0,0,1,.23.58c0,.09-.19.15-.18.2s.18,0,.2.07c.49-.5.83-1.06,1.27-1.6a11.32,11.32,0,0,1,1.32-1.82l0,0a1.49,1.49,0,0,0,.35-.59l0-.32h-.16c.06-.07.12-.13.11-.19,0-.21-.11-.2-.28-.25s-.12-.12-.22-.1l.1-.12s-.09.17-.15.07.07-.11.11-.15-.16.14-.22.08.2-.06.12-.14,0,0-.07,0c.09-.17.07-.31-.12-.26,0,0,.12-.08.15-.13h0s-.07,0-.09.08l.07-.08-.05,0-.07.05.05-.06h-.12c-.1,0-.23,0-.26,0A8.18,8.18,0,0,0,46.74,53.05Z" transform="translate(0 0)"/><path class="cls-1" d="M79.86,58.64s-.06-.1.09-.08c.46.1.78.34,1.24.44l0,0,1.05.41,2,.56s0-.05.06,0c.28.07.66.21,1.06.34l.18,0a.1.1,0,0,0,.08,0l.49.16,6.26,1.44a14.18,14.18,0,0,1,1.39.3,17.43,17.43,0,0,1,2.05.8c0-.27,1.52.32,1.33,0a7.27,7.27,0,0,0,1,.51c.18-.11.62-.16,1.71.5.41.28.92.86,1.07,1s-.38-.54-.14-.4a14.67,14.67,0,0,0-4.6-2.86c-1.64-.67-3.3-1.14-4.95-1.64-1.16-.24-8.78-2.48-10.72-3.11l-.18,0c-1.06-.34-2.36-.71-3.29-.9l-1.3-.2.5.27a6.92,6.92,0,0,0-1-.27c-.93-.18-.45.08-.15.34s-.14.14.24.32l-.71-.22c0,.06.88.23.65.28-.26-.11-.58-.16-.86-.25.07.11,1,.33.9.4s-.76-.36-.85-.27a1.82,1.82,0,0,0,.41.15c-.88-.23-1.39-.27-.63.08-.28-.09-.66-.25-.95-.32h0l.52.19-.49-.16.07.07.37.14-.33-.1.26.18c.37.18.72.39.93.46C76.43,57.57,78.15,58.12,79.86,58.64Z" transform="translate(0 0)"/><path class="cls-1" d="M87.05,47.09" transform="translate(0 0)"/><path class="cls-1" d="M87.05,47.09" transform="translate(0 0)"/><path class="cls-1" d="M89.19,50.93s0-.11.09,0c.28.21.38.51.66.73l.06,0,.52.65,1.13,1.09s0,0,.06,0,.36.37.57.6l.1.09a.09.09,0,0,0,.07,0l.25.29c1.13,1,2.28,2.08,3.48,3.27.28.24.55.48.79.72s.72.91,1,1.31c.13-.21,1,.68,1,.34.2.27.5.67.56.65s.55,0,1.17.65c.23.26.49.74.59.82s-.16-.45,0-.33a70.83,70.83,0,0,0-4.82-6c-.33-.31-1.49-1.58-2.74-2.88l-3.12-3.18-.1-.1a17,17,0,0,0-1.93-1.69l-.85-.53.23.36a5.17,5.17,0,0,0-.61-.51c-.6-.4-.38,0-.28.26s-.16.08,0,.34l-.41-.38c-.06,0,.53.43.35.41s-.35-.29-.52-.44c0,.12.56.53.47.58s-.38-.51-.49-.45.14.16.23.23c-.54-.42-.88-.59-.5-.09-.16-.15-.35-.38-.53-.52h0l.29.29-.29-.26,0,.08.2.22-.19-.18a2.14,2.14,0,0,0,.1.22,4.33,4.33,0,0,0,.46.64Z" transform="translate(0 0)"/><path class="cls-1" d="M98.62,60.85s0-.08.06-.08.12.2.24.23l0,0a1.11,1.11,0,0,1,.16.24c.15.09.28.2.43.31s0,0,0,0,.12.13.19.21l0,0,0,0,.07.11a5,5,0,0,1,1.22,1.27,2,2,0,0,1,.26.34,1.88,1.88,0,0,1,.11.62c.23-.07.4.4.62.29,0,.14,0,.35.07.36s.43.14.52.57c0,.16-.1.4-.07.47s.16-.19.21-.1a5.77,5.77,0,0,0-.57-3.57,11.35,11.35,0,0,0-1.08-1.5,8.38,8.38,0,0,0-1.59-1.34l-.06,0a2.77,2.77,0,0,0-1.2-.42,1.18,1.18,0,0,0-.67.18A.89.89,0,0,1,98,59c-.2,0-.39.08-.42.17a.28.28,0,0,0,0,.29c0,.06.07.06.13.1s0,.18.12.16a.18.18,0,0,0-.08.16s0,0,0-.09.07-.07,0,0-.06.15,0,.21.06-.2.1-.1-.12.07-.07.16a.42.42,0,0,1,0-.07c0,.23.12.31.07.29s0,.06.09,0h0s-.05,0-.06,0,0,0,.06,0v0h0a.09.09,0,0,0,0,.05s0,.06,0,.06,0,0,0,0,0,0,.09.06Z" transform="translate(0 0)"/><path class="cls-1" d="M102.93,70.61s0-.1.11,0c.18.34.16.67.34,1h.07l.25.88c.22.53.45,1.06.69,1.57,0,0,0,0,.06,0,.11.21.21.52.34.84l.07.13a.08.08,0,0,0,.07,0l.14.39c.77,1.49,1.58,3,2.47,4.59.21.33.43.66.61,1,.25.49.51,1.15.73,1.64.17-.17.83,1,.93.63a3,3,0,0,0,.45.81c.21,0,.53.14,1,.95.19.32.37.87.46,1s-.09-.5.06-.34c-1.15-2.51-2.35-4.88-3.48-7.42-.5-.81-3-6.67-3.54-8.22l-.06-.14a24.22,24.22,0,0,0-1.06-2.52l-.54-.92,0,.45a5.37,5.37,0,0,0-.33-.79c-.36-.68-.32-.23-.36.1s-.19,0-.14.32l-.2-.56c-.07,0,.28.68.13.56s-.19-.45-.26-.68c-.06.11.25.79.16.79S102.08,66,102,66s.05.22.09.33c-.28-.68-.52-1-.4-.35-.08-.22-.15-.55-.24-.78h0l.13.43-.14-.4v.09c0,.1.05.2.08.31l-.09-.27a2.17,2.17,0,0,0,0,.26,7.32,7.32,0,0,0,.11.84C101.93,67.87,102.41,69.26,102.93,70.61Z" transform="translate(0 0)"/><path class="cls-1" d="M100.6,70.93s.06-.1.11,0c.14.4.1.76.27,1.16h.07c.08.32.15.66.25,1,.23.61.49,1.19.77,1.76,0,0,0,0,.07,0,.12.23.26.57.42.91l.09.14a.09.09,0,0,0,.07,0l.2.41A49.62,49.62,0,0,0,106.26,81c.29.31.58.62.83.93.36.48.76,1.12,1.09,1.6.13-.2,1.06.87,1.08.5.22.31.57.77.64.75s.56,0,1.31.66a8.94,8.94,0,0,0,.78.74c.19.09-.28-.42-.08-.33a21.07,21.07,0,0,1-2.67-3.2c-.85-1.19-1.72-2.38-2.53-3.61a29.62,29.62,0,0,1-2.38-3.78,20.2,20.2,0,0,1-1.8-4.57l0-.15c-.22-.9-.42-2-.56-2.75-.08-.35-.17-.71-.23-1.08l-.11.47a6.75,6.75,0,0,0,0-.89c-.06-.8-.2-.36-.37,0s-.17-.09-.25.27c0-.26,0-.39,0-.65-.07,0,0,.8-.09.62s0-.53,0-.79c-.11.08-.07.9-.16.86s.14-.74,0-.79a1.31,1.31,0,0,0,0,.38c0-.81,0-1.28-.23-.53,0-.27.11-.63.13-.91h0l-.09.49.06-.47,0,.08c0,.12,0,.23-.07.36l0-.32c0,.08-.09.16-.13.26a4.52,4.52,0,0,0-.25.93A15.39,15.39,0,0,0,100.6,70.93Z" transform="translate(0 0)"/><path class="cls-1" d="M102.78,72.48s0-.08.1,0c.14.23.11.47.25.69h.06l.17.61c.18.36.35.71.53,1,0,0,0,0,.06,0a4.57,4.57,0,0,1,.25.57l.06.09s0,0,.06,0l.11.27c.6,1,1.23,2,1.92,3a7.12,7.12,0,0,1,.48.64c.19.33.37.78.53,1.11.18-.15.69.6.81.33.11.22.27.55.34.54s.48,0,.89.55c.14.21.25.59.32.65s0-.35.1-.26c-.82-1.7-1.71-3.28-2.54-5a55.21,55.21,0,0,1-2.67-5.52l0-.09a12,12,0,0,0-.83-1.68l-.45-.59v.33a1.83,1.83,0,0,0-.26-.53c-.29-.44-.28-.12-.35.12s-.18,0-.15.26l-.16-.38c-.06,0,.23.45.09.39a4.69,4.69,0,0,0-.21-.46c-.06.09.19.54.1.55s-.07-.47-.18-.46,0,.16.07.24c-.23-.46-.43-.67-.36-.2a5.62,5.62,0,0,0-.19-.53h0l.1.3-.11-.27,0,.06a.79.79,0,0,0,.06.22l-.07-.18a1.08,1.08,0,0,0,0,.19,2.74,2.74,0,0,0,.06.59C102,70.63,102.38,71.56,102.78,72.48Z" transform="translate(0 0)"/><path class="cls-1" d="M105.47,74.67s0,.08-.1,0-.12-.4-.27-.58H105l-.18-.53-.52-.9a0,0,0,0,1-.06,0,5.18,5.18,0,0,1-.22-.5l0-.08H104l-.09-.24A29.51,29.51,0,0,1,102.32,69a4.45,4.45,0,0,1-.35-.64,8.52,8.52,0,0,1-.27-1.08c-.22.11-.52-.67-.71-.46,0-.22-.11-.56-.17-.56s-.47-.14-.69-.73c-.07-.23,0-.61-.11-.69s-.08.33-.17.21a25.22,25.22,0,0,0,1.34,5.19c.15.28.59,1.39,1.13,2.52s1.17,2.27,1.42,2.75l.05.08a8.37,8.37,0,0,0,1,1.46l.54.45c0-.1,0-.21-.07-.3a1.58,1.58,0,0,0,.34.43c.37.34.3,0,.32-.19s.16-.07.1-.28l.21.31c.07,0-.3-.35-.15-.33a3.17,3.17,0,0,0,.28.36c0-.09-.28-.44-.19-.47s.15.41.25.37-.06-.13-.11-.19c.31.35.54.48.38.08a3.83,3.83,0,0,0,.28.42h0l-.15-.24.15.21v-.06l-.09-.18.09.15a.54.54,0,0,0,0-.18,3.74,3.74,0,0,0-.16-.52C106.37,76.19,105.91,75.43,105.47,74.67Z" transform="translate(0 0)"/><path class="cls-1" d="M102,67.09s-.06.06-.1,0,0-.34-.12-.5h-.07l-.07-.45c-.11-.25-.22-.5-.35-.75,0,0,0,0,0,0A3.53,3.53,0,0,1,101,65l0-.06a.05.05,0,0,0,0,0l-.07-.19c-.43-.69-.9-1.37-1.42-2.1a3.48,3.48,0,0,1-.37-.42c-.14-.23-.26-.55-.37-.78-.19.14-.58-.36-.73-.14-.07-.16-.19-.38-.25-.36a.73.73,0,0,1-.77-.29c-.11-.14-.17-.41-.23-.44s0,.26-.11.21c.57,1.16,1.22,2.22,1.77,3.4a23.15,23.15,0,0,1,1.71,3.84l0,.06a6.18,6.18,0,0,0,.51,1.19l.33.41c0-.09,0-.17,0-.24a.93.93,0,0,0,.15.38c.21.31.25.08.36-.1s.18,0,.2-.19l.07.27c.07,0-.13-.32,0-.28a2.19,2.19,0,0,0,.12.33c.07-.07-.09-.39,0-.4s0,.34.09.33,0-.11,0-.17c.14.33.29.48.31.14a2.57,2.57,0,0,0,.08.38h0l0-.21.05.19,0-.05a.39.39,0,0,0,0-.15l0,.13.06-.14a2.16,2.16,0,0,0,0-.44A20.35,20.35,0,0,0,102,67.09Z" transform="translate(0 0)"/><path class="cls-1" d="M101.9,65.12s-.06.06-.1,0,0-.35-.16-.5l-.07,0-.11-.44a6.52,6.52,0,0,0-.43-.72s0,0,0,0a2.32,2.32,0,0,1-.2-.39l0-.06h-.06l-.09-.18a18.65,18.65,0,0,0-1.75-1.83,4,4,0,0,1-.45-.33c-.18-.19-.37-.47-.53-.67-.15.18-.64-.2-.73,0-.1-.13-.27-.31-.33-.28a.72.72,0,0,1-.8,0c-.14-.1-.27-.33-.33-.35s.06.25,0,.24A28.57,28.57,0,0,1,98,62.41a9.09,9.09,0,0,1,1.11,1.52,12.64,12.64,0,0,1,1,1.89l0,.06a6.27,6.27,0,0,0,.55,1.1l.33.39,0-.23a1,1,0,0,0,.16.36c.2.3.25.08.35-.1s.18,0,.2-.2l.08.27c.06,0-.14-.31,0-.27s.09.21.12.32c.07-.07-.09-.38,0-.4s0,.34.09.33,0-.11,0-.17c.14.33.29.48.31.14a2.57,2.57,0,0,0,.08.38h0l0-.21,0,.19,0,0a.8.8,0,0,0,0-.15l0,.13a.59.59,0,0,0,.06-.14,2.09,2.09,0,0,0,0-.44A13.17,13.17,0,0,0,101.9,65.12Z" transform="translate(0 0)"/><path class="cls-1" d="M98.85,63.6s.05-.06.09,0,0,.23.12.32l.06,0,.06.29.29.45s0,0,.06,0a1.62,1.62,0,0,1,.12.26l0,0h0a.93.93,0,0,1,0,.13,16.06,16.06,0,0,1,1,1.36,2.51,2.51,0,0,1,.26.31,2.7,2.7,0,0,1,.14.56c.22-.09.44.3.64.16,0,.12.06.3.13.29a.62.62,0,0,1,.62.33c.06.12,0,.33.06.37s.11-.19.18-.13a12,12,0,0,0-.81-2.8c-.1-.14-.37-.73-.69-1.33l-.8-1.47,0,0a2.86,2.86,0,0,0-.61-.75l-.37-.19a.6.6,0,0,1,0,.19c-.07-.1-.13-.21-.2-.22-.24-.15-.24,0-.3.22s-.15.08-.15.21l-.11-.16c-.06,0,.18.17.06.19s-.11-.12-.16-.18.14.23.06.28,0-.25-.13-.19,0,.07,0,.1c-.18-.17-.34-.21-.3,0,0-.06-.07-.18-.13-.23h0a.54.54,0,0,0,.07.13l-.08-.11,0,0a.42.42,0,0,0,0,.1l0-.08a.5.5,0,0,0,0,.13c0,.12,0,.26,0,.31Z" transform="translate(0 0)"/><path class="cls-1" d="M101.38,63.08s-.06.05-.09,0,0-.23-.09-.32l-.06,0,0-.3c-.09-.15-.18-.31-.28-.45s0,0,0,0a.83.83,0,0,1-.12-.25l0,0h-.06a.56.56,0,0,1,0-.12c-.36-.39-.75-.76-1.17-1.16A1.52,1.52,0,0,1,99,60.3a2.53,2.53,0,0,1-.28-.47c-.18.15-.49-.12-.64.08-.06-.09-.14-.22-.2-.19a.65.65,0,0,1-.66,0c-.09-.07-.12-.25-.18-.26s0,.19-.11.18c.42.68.91,1.27,1.33,2a9.65,9.65,0,0,1,1.3,2.24l0,0a2.26,2.26,0,0,0,.41.69l.29.21a.75.75,0,0,1,.05-.16c0,.1.07.2.13.22s.23,0,.34-.13.17,0,.2-.16l.06.17c.06,0-.11-.2,0-.19s.07.13.1.2-.06-.25,0-.27,0,.24.07.21,0-.08,0-.11c.11.19.25.27.29,0,0,.07,0,.18.06.24h0l0-.14,0,.12,0,0a.31.31,0,0,0,0-.1l0,.08a.41.41,0,0,0,.07-.11c0-.12.09-.25.07-.3A8.09,8.09,0,0,0,101.38,63.08Z" transform="translate(0 0)"/><path class="cls-1" d="M103,66.42s-.07,0-.1,0,0-.25-.06-.37l-.06,0v-.33c-.08-.18-.15-.37-.24-.54a.07.07,0,0,1-.06,0,1.54,1.54,0,0,1-.09-.3l0,0a0,0,0,0,0-.05,0,1,1,0,0,1,0-.14c-.31-.49-.66-1-1-1.5A2.06,2.06,0,0,1,101,63a3.9,3.9,0,0,1-.21-.57c-.2.12-.49-.24-.66-.06,0-.11-.11-.28-.18-.26a.65.65,0,0,1-.67-.17c-.08-.1-.08-.31-.14-.33s0,.2-.14.17c.33.85.76,1.62,1.1,2.47A14,14,0,0,1,101.16,67v0a2.92,2.92,0,0,0,.36.84l.28.29a1.89,1.89,0,0,1,.06-.18.49.49,0,0,0,.12.27c.16.21.23,0,.36-.1s.17,0,.21-.15l0,.2c.07,0-.1-.23,0-.21s.06.16.08.24,0-.28,0-.29,0,.25.06.23,0-.08,0-.12c.1.23.24.34.29.09,0,.07,0,.19,0,.27h0s0-.12,0-.16l0,.14,0,0v-.11l0,.09a.41.41,0,0,0,.07-.11,1.35,1.35,0,0,0,.1-.32A12.39,12.39,0,0,0,103,66.42Z" transform="translate(0 0)"/><path class="cls-1" d="M94.65,56.22s0,.09-.09.05c-.22-.16-.27-.4-.48-.56l-.06,0-.38-.51-.86-.81s0,0-.06,0A5,5,0,0,1,92.3,54l-.08-.07h-.07L92,53.69c-.88-.75-1.78-1.53-2.72-2.41-.22-.17-.44-.34-.63-.52a12,12,0,0,1-.77-1c-.15.19-.81-.46-.88-.17-.15-.2-.38-.51-.44-.49s-.49.06-1-.41c-.18-.19-.36-.57-.45-.62s.1.36,0,.28a51.66,51.66,0,0,0,3.68,4.56l4.47,4.59.08.08a11.14,11.14,0,0,0,1.48,1.27l.68.37-.16-.3a2.39,2.39,0,0,0,.47.39c.47.28.32,0,.27-.26s.15-.09,0-.3l.31.28s-.41-.32-.25-.32a2.52,2.52,0,0,0,.39.33c0-.1-.42-.41-.34-.46s.27.4.37.35-.1-.13-.16-.19c.4.32.68.43.41,0a5,5,0,0,0,.4.4h0L97,59l.21.2v-.07a1.14,1.14,0,0,0-.15-.17l.15.14-.06-.19a2.71,2.71,0,0,0-.32-.51Z" transform="translate(0 0)"/><path class="cls-1" d="M88.89,52s0-.1.1,0c.25.21.31.49.56.69l.06,0,.44.62,1,1s0,0,.06,0,.31.36.49.57l.09.09a.16.16,0,0,0,.07,0l.22.27c1,.95,2,1.91,3.13,3a6.43,6.43,0,0,1,.73.64c.31.33.65.82.93,1.17.14-.2.92.58,1,.26.19.24.46.6.53.57s.51,0,1.1.53c.22.23.45.65.55.72s-.14-.41,0-.31c-1.39-1.88-2.87-3.56-4.39-5.35-.58-.56-4.17-4.57-5.09-5.59l-.09-.09a14.84,14.84,0,0,0-1.65-1.63L88,48.61l.18.35a3.64,3.64,0,0,0-.52-.5c-.52-.39-.35-.05-.29.24s-.17.07,0,.32L87,48.66c-.06,0,.45.42.28.39s-.3-.28-.43-.43c0,.11.46.52.37.56s-.3-.48-.41-.44.12.16.19.23c-.46-.42-.77-.59-.46-.1-.13-.14-.29-.37-.45-.51h0l.24.29-.23-.26v.08l.16.21-.16-.17a1.72,1.72,0,0,0,.07.21,4.87,4.87,0,0,0,.35.62Z" transform="translate(0 0)"/><path class="cls-1" d="M86.23,49.57s0-.09.08-.06.18.27.34.36l0,0,.26.34.64.49s0,0,0,0a1.91,1.91,0,0,1,.31.28L88,51a.11.11,0,0,0,.06,0l.13.14,2.09,1.3a3.8,3.8,0,0,1,.49.26,6.79,6.79,0,0,1,.6.6c.13-.19.65.15.72-.1.12.12.3.31.35.27a.72.72,0,0,1,.83.05c.14.1.28.35.35.37s-.07-.26.05-.23c-.89-1-1.87-1.8-2.85-2.7-.39-.25-2.71-2.23-3.29-2.75l-.06,0a5.1,5.1,0,0,0-1.06-.76l-.51-.18a1.36,1.36,0,0,1,.09.23c-.12-.11-.25-.23-.33-.23-.35-.15-.26.07-.25.27s-.13.12,0,.27l-.22-.18c-.05,0,.29.19.16.22a1.46,1.46,0,0,0-.27-.2c0,.09.28.27.22.33s-.18-.29-.26-.22.07.08.11.12c-.29-.19-.51-.22-.33.06a3.45,3.45,0,0,0-.28-.26h0l.15.16-.15-.13v.06a.52.52,0,0,0,.1.11l-.1-.09a.77.77,0,0,0,0,.15c.08.15.13.33.2.38C85.21,48.67,85.72,49.13,86.23,49.57Z" transform="translate(0 0)"/><path class="cls-1" d="M87.67,51.82s0-.11.1,0c.25.21.35.48.61.69l.06,0,.49.62L90,54s0-.05.06,0a6.65,6.65,0,0,1,.56.54l.1.07a.08.08,0,0,0,.07,0l.25.25c1.15.87,2.33,1.71,3.63,2.6.29.17.59.33.85.51s.82.7,1.18,1c.09-.22,1,.38,1,.06.24.19.6.48.66.44s.49-.14,1.21.25c.27.16.6.52.72.56s-.25-.36-.07-.31c-1.83-1.45-3.65-2.79-5.44-4.32-.34-.22-1.54-1.21-2.75-2.3s-2.43-2.28-2.91-2.78l-.09-.09a20.33,20.33,0,0,0-1.69-1.59l-.75-.52.18.35a3.87,3.87,0,0,0-.52-.51c-.51-.4-.35-.06-.29.24s-.18.07,0,.32l-.34-.38c-.07,0,.45.44.27.41a4.52,4.52,0,0,0-.43-.45c0,.11.46.54.38.58s-.31-.5-.42-.46.12.16.19.24c-.45-.44-.77-.62-.46-.12-.14-.15-.29-.39-.45-.53h0l.24.3-.24-.27v.08a1.63,1.63,0,0,0,.17.22l-.16-.18a1,1,0,0,0,.06.22,4.71,4.71,0,0,0,.36.64C86,50,86.79,50.93,87.67,51.82Z" transform="translate(0 0)"/><path class="cls-1" d="M87.26,55.05s0-.1.09-.06c.27.16.38.41.65.57l.06,0,.53.51,1.15.79s0,0,.06,0,.36.28.58.44l.1.07a.1.1,0,0,0,.07,0l.26.21c1.17.69,2.37,1.37,3.67,2.1.29.13.58.27.85.42s.82.6,1.18.85c.07-.23,1,.29,1,0,.24.17.59.43.65.39s.47-.19,1.18.15c.26.15.6.47.71.5s-.25-.33-.07-.29c-1.82-1.32-3.63-2.47-5.47-3.78-.69-.35-4.91-3.36-5.93-4.21l-.1-.07a17.76,17.76,0,0,0-1.83-1.26l-.79-.37.22.31a3.42,3.42,0,0,0-.57-.4c-.55-.3-.35,0-.25.28s-.16.1,0,.32l-.37-.3c-.06,0,.49.33.32.34a5.34,5.34,0,0,0-.48-.35c0,.11.51.43.44.48s-.36-.42-.46-.36.14.13.21.19c-.49-.33-.82-.45-.46,0-.14-.11-.33-.31-.5-.42h0l.28.24L84,52l0,.07a1.62,1.62,0,0,0,.19.18L84,52.09a1.13,1.13,0,0,0,.09.2,3.92,3.92,0,0,0,.43.55C85.4,53.59,86.32,54.34,87.26,55.05Z" transform="translate(0 0)"/><path class="cls-1" d="M86.42,56.34s0-.1.07-.07c.24.09.35.3.59.39l0,0,.48.38c.34.17.68.34,1,.49,0,0,0,0,0,0a4.86,4.86,0,0,1,.52.29l.1,0a0,0,0,0,0,0,0l.24.14c1,.38,2.11.72,3.27,1.07a7.59,7.59,0,0,1,.75.16c.35.12.76.34,1.08.48,0-.23.88,0,.8-.3.22.09.54.22.58.16s.37-.3,1-.2c.23,0,.55.26.65.25s-.25-.24-.1-.25c-1.66-.67-3.28-1.23-4.91-2a22.89,22.89,0,0,1-2.5-1.08c-1.12-.55-2.25-1.18-2.7-1.46l-.09,0a10.78,10.78,0,0,0-1.57-.82l-.67-.2.18.25a1.76,1.76,0,0,0-.48-.27c-.47-.18-.3.07-.22.3s-.14.12,0,.3L84.32,54c0,.05.43.23.28.26a3.38,3.38,0,0,0-.41-.24c0,.1.44.32.37.38s-.3-.34-.39-.26.12.1.18.14c-.42-.23-.71-.29-.4.05a3.65,3.65,0,0,0-.43-.31h0l.24.18-.23-.15v.06l.17.14-.16-.11a1.3,1.3,0,0,0,.08.17,3.55,3.55,0,0,0,.37.45C84.78,55.32,85.59,55.86,86.42,56.34Z" transform="translate(0 0)"/><path class="cls-1" d="M80.14,56.66s-.06-.09,0-.1c.33,0,.57.19.9.19l0-.06.77.22,1.47.2s0,0,0,0c.21,0,.48.09.77.15l.13,0a.1.1,0,0,0,.06,0l.35.08c1.45.16,2.93.35,4.52.62.34,0,.68.07,1,.13a15.54,15.54,0,0,1,1.51.47c0-.25,1.13,0,1-.3a2.66,2.66,0,0,0,.79.21c.13-.16.44-.3,1.28-.13.33.08.78.33.91.33s-.36-.27-.17-.27A56.41,56.41,0,0,0,88.5,56.2c-.42-.06-2-.42-3.73-.73s-3.48-.59-4.2-.71l-.14,0A15.27,15.27,0,0,0,78,54.55l-1,.09.39.15a3.74,3.74,0,0,0-.76,0c-.69,0-.31.19-.06.37s-.08.17.2.26l-.52-.05c0,.06.65,0,.49.12a4.49,4.49,0,0,0-.64,0c.07.09.73.09.69.17s-.58-.16-.63-.06.2,0,.3,0c-.65,0-1,.06-.43.23-.2,0-.49-.09-.71-.09h0l.39.06-.37,0,.06.05.28,0-.25,0,.2.12c.29.09.56.21.71.23Z" transform="translate(0 0)"/><path class="cls-1" d="M81.22,57.85s0-.1.07-.08c.39.08.65.31,1,.39l0,0,.87.37L85,59s0,0,0,0c.24.06.56.18.9.3l.15,0a.09.09,0,0,0,.07,0l.41.15,5.3,1.23c.4.07.81.13,1.19.22.56.16,1.25.42,1.79.6,0-.25,1.33.06,1.15-.24a3.26,3.26,0,0,0,.94.24c.14-.16.49-.28,1.49-.09.38.09.92.35,1.07.36s-.44-.29-.21-.28c-2.76-1-5.46-1.72-8.25-2.61-1-.2-7.41-2.2-9-2.76L81.82,56a24.08,24.08,0,0,0-2.77-.78l-1.11-.16.41.25a4.33,4.33,0,0,0-.86-.24c-.8-.15-.39.1-.14.34s-.13.14.18.32l-.59-.2c0,.05.74.2.55.25s-.49-.14-.73-.22c.06.11.82.29.75.37s-.63-.33-.71-.24.22.1.34.14c-.74-.21-1.18-.24-.54.09-.23-.08-.55-.22-.8-.29h0l.44.17-.41-.14.06.07.31.13-.28-.1.21.18a7.73,7.73,0,0,0,.78.43C78.34,56.89,79.78,57.38,81.22,57.85Z" transform="translate(0 0)"/><path class="cls-1" d="M88.52,58s0-.09.06-.09c.27,0,.44.22.71.26l0-.06.59.27,1.18.31s0-.05,0-.05a5,5,0,0,1,.61.21l.1,0a.09.09,0,0,0,.06,0l.27.11c1.17.25,2.35.53,3.62.89a6.56,6.56,0,0,1,.82.19,11.5,11.5,0,0,1,1.18.54c0-.24,1,.06.87-.23.24.12.59.29.63.25a.53.53,0,0,1,.35-.17,1.1,1.1,0,0,1,.31,0l.21,0,.11,0a1.26,1.26,0,0,1,.26.14,1.42,1.42,0,0,1,.53.82,1,1,0,0,1-.2.93,1.06,1.06,0,0,1-.37.27l-.21.07s0,0,0,0a.9.9,0,0,0,.53-.19,1.21,1.21,0,0,0,.43-.66c0-.14.06-.17,0,.07a1.32,1.32,0,0,0-.07-.78,1.77,1.77,0,0,0-.51-.71l-.19-.14-.17-.09-.67-.35c-.46-.22-.91-.43-1.37-.63-.92-.41-1.86-.78-2.82-1.15-.34-.09-1.62-.54-3-1s-2.78-.83-3.36-1l-.1,0a11.13,11.13,0,0,0-2-.4l-.79,0,.29.18a2.26,2.26,0,0,0-.62-.1c-.56,0-.27.16-.1.36s-.09.15.13.27l-.42-.09c0,.06.53.07.39.15a4.54,4.54,0,0,0-.51-.09c0,.1.57.15.53.23s-.45-.21-.5-.11.15.05.24.07c-.53-.07-.83,0-.39.19a4.58,4.58,0,0,0-.56-.15h0l.31.09-.29-.06,0,.05a.81.81,0,0,0,.22.07l-.19,0,.14.13a3.36,3.36,0,0,0,.55.29Z" transform="translate(0 0)"/><path class="cls-1" d="M91.59,59.75s0-.09.07-.07.24.26.42.32l0,0,.34.31.76.4s0,0,0,0a1.93,1.93,0,0,1,.38.24l.07,0a.06.06,0,0,0,0,0L94,61c.78.3,1.59.59,2.45.9A3.52,3.52,0,0,1,97,62a7.37,7.37,0,0,1,.77.45c.07-.22.7,0,.69-.28.16.09.39.22.43.17s.36-.28.83-.17c.18.06.39.27.46.27s-.14-.24,0-.25c-1.18-.7-2.38-1.25-3.58-1.93a35,35,0,0,1-3.9-2.14l-.06,0a5.78,5.78,0,0,0-1.21-.62l-.54-.12.13.22a1.07,1.07,0,0,0-.38-.2c-.37-.12-.25.1-.21.31s-.12.13,0,.27l-.25-.16c0,.05.33.16.2.21a1.57,1.57,0,0,0-.31-.18c0,.1.33.24.27.31s-.22-.28-.3-.2.09.08.14.12c-.33-.17-.56-.19-.34.09a2.67,2.67,0,0,0-.32-.24h0l.17.14-.17-.11V58a.43.43,0,0,0,.12.11L89.47,58a.88.88,0,0,0,0,.15,1.63,1.63,0,0,0,.26.37C90.37,59,91,59.37,91.59,59.75Z" transform="translate(0 0)"/><path class="cls-1" d="M94.58,61.69s0-.1.09-.07c.36.14.58.39,1,.51l0,0,.8.46.3.12,7.48,3-6.47-4.75c-.38-.28-.75-.55-1.14-.82,0,0,0,.05-.06,0-.2-.13-.45-.35-.72-.55l-.12-.08a.1.1,0,0,0-.08,0l-.33-.26c-1.42-.86-2.91-1.68-4.53-2.51-.36-.15-.72-.3-1.06-.47s-1.06-.65-1.52-.92c0,.24-1.24-.29-1.12,0-.31-.18-.77-.44-.83-.39s-.51.2-1.39-.12c-.34-.14-.8-.47-.94-.49s.37.33.16.3c2.38,1.27,4.69,2.49,7,4a49.72,49.72,0,0,1,5.52,3.77l.89-1.53c-.83-.35-1.51-.68-1.89-.88L95.48,60c-.78-.39-1.71-.87-2.39-1.17l-1-.38.31.33a4.32,4.32,0,0,0-.72-.41c-.69-.33-.39,0-.23.29s-.16.11.08.34l-.5-.33c-.06,0,.64.37.44.37s-.42-.25-.61-.38c0,.12.67.47.6.53s-.5-.46-.6-.4.18.15.28.21c-.64-.37-1-.51-.54,0-.19-.13-.44-.36-.65-.48h0l.35.28L90,58.48l0,.08.25.21L90,58.6a1.43,1.43,0,0,0,.15.22,5,5,0,0,0,.6.61A31.57,31.57,0,0,0,94.58,61.69Z" transform="translate(0 0)"/><path class="cls-1" d="M81.39,55.18s0-.08,0-.09.13.15.24.15l0-.06.19.17a3,3,0,0,0,.43.1.08.08,0,0,1,0-.05.57.57,0,0,1,.22.09h0l0-.05.09.05c.45,0,.9,0,1.38-.06a1.36,1.36,0,0,1,.32-.08,3,3,0,0,1,.43.12c0-.22.37-.27.35-.51.08,0,.21,0,.23,0a.64.64,0,0,1,.4-.48c.09,0,.21.09.25.06s-.09-.16,0-.21c-.63-.17-1.25-.22-1.89-.39a6.89,6.89,0,0,1-2-.54h0a1.44,1.44,0,0,0-.63-.16l-.31.07.06.15c-.08,0-.16-.08-.2,0-.21,0-.16.16-.16.33s-.09.15,0,.25l-.13-.07c0,.06.18.05.09.13s-.11,0-.16-.07.17.12.13.19-.11-.17-.16-.08,0,0,.07.06c-.19,0-.32,0-.22.19-.05,0-.11-.11-.17-.12h0l.09.08-.09-.05v.05l.06,0-.06,0a.49.49,0,0,0,0,.12c0,.1.08.22.12.24A6.33,6.33,0,0,0,81.39,55.18Z" transform="translate(0 0)"/><path class="cls-1" d="M80.68,55.58s0-.09,0-.1.21.12.34.1l0-.06.29.13a5.49,5.49,0,0,0,.58,0s0,0,0,0a1.25,1.25,0,0,1,.29.06h.06l0,0,.14,0,1.8-.14a2.07,2.07,0,0,1,.41-.07,3,3,0,0,1,.59.14c0-.24.48-.26.44-.5.12,0,.3.07.32,0a.64.64,0,0,1,.55-.44c.14,0,.31.12.36.1s-.13-.17,0-.22a26.11,26.11,0,0,0-2.8-.54A28.17,28.17,0,0,1,81,53.66h0a2.83,2.83,0,0,0-1,0l-.38.14.14.13a.74.74,0,0,0-.3,0c-.27.08-.13.21,0,.37s0,.17.06.25l-.2,0c0,.06.25,0,.18.09s-.16,0-.25,0,.28.06.26.14-.22-.14-.24,0,.07,0,.11,0c-.25,0-.39.1-.18.24a1.19,1.19,0,0,0-.27-.07h0A.83.83,0,0,1,79,55l-.14,0,0,.05.1,0H78.9l.07.11c.11.08.2.19.26.2C79.71,55.42,80.2,55.51,80.68,55.58Z" transform="translate(0 0)"/><path class="cls-1" d="M80.46,55s0-.07,0-.1.22,0,.32,0l0-.06H81a4.47,4.47,0,0,0,.46-.19s0,0,0,0a.81.81,0,0,1,.26-.07l0,0a0,0,0,0,0,0,0l.12,0c.42-.28.84-.58,1.28-.9a1.28,1.28,0,0,1,.26-.26,2.56,2.56,0,0,1,.49-.16c-.11-.21.19-.45,0-.64.09,0,.24-.09.22-.15a.63.63,0,0,1,.13-.64c.08-.07.26,0,.28-.1s-.18-.08-.15-.16c-.73.24-1.39.59-2.12.86a10,10,0,0,1-2.34.87h0a2,2,0,0,0-.72.29l-.24.25.15.08c-.1,0-.2,0-.22.09-.19.15,0,.23.08.37s0,.17.13.21l-.17,0c0,.06.2-.09.18,0s-.13,0-.2.06.24,0,.25.06-.22-.07-.2,0,.07,0,.1,0c-.2.08-.29.21-.07.28a1,1,0,0,0-.24,0h.14l-.12,0,0,0h.1l-.08,0a.36.36,0,0,0,.09.08c.11,0,.22.12.27.11A8.76,8.76,0,0,0,80.46,55Z" transform="translate(0 0)"/><path class="cls-1" d="M82.93,52.42s0-.08.06-.07.21.23.38.28l0-.05.29.28c.23.12.45.23.68.33,0,0,0,0,0,0a1.53,1.53,0,0,1,.33.2l.07,0s0,0,0,0l.15.1c.7.24,1.42.46,2.19.7a2.58,2.58,0,0,1,.51.09,7.62,7.62,0,0,1,.69.38c.07-.22.63-.07.63-.32.14.07.34.18.38.13a.7.7,0,0,1,.75-.24c.15,0,.34.23.4.21s-.12-.2,0-.22c-1-.59-2.09-1-3.14-1.59A23.69,23.69,0,0,1,84,50.79l-.06,0a4.52,4.52,0,0,0-1.06-.52l-.48-.08c0,.07.07.14.1.2-.13-.08-.26-.17-.33-.16-.33-.09-.23.1-.21.3s-.11.14,0,.27l-.21-.14s.28.14.17.19a1.25,1.25,0,0,0-.28-.15c0,.09.29.21.23.28s-.18-.26-.26-.17.07.07.12.1c-.29-.14-.5-.15-.31.11a1.46,1.46,0,0,0-.28-.21h0l.15.12-.15-.1v.06l.1.09-.1-.06a1,1,0,0,0,0,.14,2.09,2.09,0,0,0,.21.34C81.86,51.74,82.38,52.1,82.93,52.42Z" transform="translate(0 0)"/><path class="cls-1" d="M85.29,51.9s0-.08.07-.08.12.21.24.26l0,0,.18.25.46.31s0,0,0,0a1.18,1.18,0,0,1,.22.19l0,0,0,0,.1.09c.49.25,1,.5,1.55.79a3.17,3.17,0,0,1,.37.15,3.32,3.32,0,0,1,.41.43c.14-.18.53,0,.63-.18.09.09.21.23.26.19a.61.61,0,0,1,.7-.05c.1.07.18.27.24.28s0-.22.08-.21a18,18,0,0,0-2-2c-.3-.16-2-1.52-2.46-1.88l0,0a2.56,2.56,0,0,0-.82-.48l-.4,0a.94.94,0,0,1,.06.18c-.09-.07-.19-.14-.25-.13-.27-.06-.22.11-.22.3s-.12.13-.07.25l-.16-.12c0,.05.23.11.12.17s-.14-.08-.21-.13.21.18.15.25-.11-.22-.19-.14.05.06.08.08c-.22-.1-.38-.09-.27.13-.06,0-.12-.14-.2-.17h0l.11.1-.11-.08v.05l.07.08-.07,0a.62.62,0,0,0,0,.13c.05.12.08.26.13.29C84.56,51.32,84.92,51.61,85.29,51.9Z" transform="translate(0 0)"/><path class="cls-1" d="M86,51.26s0-.08.07-.06.14.23.28.29l0,0,.2.29.52.38a.05.05,0,0,1,0,0,1.69,1.69,0,0,1,.25.23l0,0a.09.09,0,0,0,.05,0l.11.12,1.75,1a2.31,2.31,0,0,1,.42.18,4.43,4.43,0,0,1,.48.49c.14-.19.58.07.67-.17.09.1.24.25.29.21a.65.65,0,0,1,.74,0c.12.08.22.3.28.31s0-.23.07-.22A28.46,28.46,0,0,0,90,52c-.33-.18-2.24-1.75-2.72-2.18l0,0a3.61,3.61,0,0,0-.89-.59l-.44-.1a1.46,1.46,0,0,1,.07.19c-.11-.09-.22-.18-.28-.17-.3-.1-.23.09-.24.28s-.13.12-.07.25l-.18-.14s.25.14.13.19-.16-.1-.23-.16.24.22.17.28-.13-.25-.21-.17,0,.07.09.1c-.24-.15-.43-.16-.3.09-.07,0-.14-.17-.22-.21h0a1.42,1.42,0,0,0,.12.13l-.13-.1v0a.34.34,0,0,0,.08.09l-.08-.06a.57.57,0,0,0,0,.13c.06.13.09.29.14.33C85.16,50.55,85.57,50.92,86,51.26Z" transform="translate(0 0)"/><path class="cls-1" d="M85.24,52.08s0-.09.1,0,.18.37.36.52l.06,0,.29.47c.23.25.47.49.72.73,0,0,0,0,0,0a3.8,3.8,0,0,1,.36.4l.07.06a.08.08,0,0,0,.06,0l.16.2c.78.62,1.61,1.21,2.51,1.83a6.73,6.73,0,0,1,.6.33c.26.2.56.5.79.71.11-.2.78.19.81-.09.16.14.4.34.45.3s.42-.2.93,0c.19.1.4.37.49.38s-.14-.28,0-.25c-1.23-1-2.45-1.92-3.62-3A16.43,16.43,0,0,1,88.62,53a24.36,24.36,0,0,1-1.82-2l0-.06a11.25,11.25,0,0,0-1.06-1.17l-.52-.37.07.27-.18-.24a.28.28,0,0,0-.1-.08l0,0c-.11-.13-.19-.06-.28.12l0,.06c0,.13-.18,0-.12.25l-.13-.19,0-.15s0,.07,0,.16.18.22.09.2a1.1,1.1,0,0,0-.14-.18,2.61,2.61,0,0,1-.06-.27s0,.17,0,.3.18.25.13.27a2.32,2.32,0,0,1-.15-.26c0-.12,0-.23-.07-.23s0,.15,0,.25v0a1.22,1.22,0,0,0-.19-.49c0-.05-.1,0-.12.2a2.63,2.63,0,0,0-.06-.47h0l0,.27,0-.25,0,0a1.15,1.15,0,0,0,0,.19l0-.16a.77.77,0,0,0-.07.16l-.06.3a1.68,1.68,0,0,0,0,.4v0l.86,1.24C84.7,51.41,85,51.75,85.24,52.08Z" transform="translate(0 0)"/><path class="cls-1" d="M83.52,52.14s.06-.07.1,0,0,.36.16.51l.06,0L84,53c.12.22.26.43.4.64,0,0,0,0,.06,0a1.83,1.83,0,0,1,.19.35l0,0h.06a1.3,1.3,0,0,1,.08.17,20.89,20.89,0,0,0,1.64,1.61,3.61,3.61,0,0,1,.43.3,7,7,0,0,1,.48.6c.14-.17.6.16.7-.08.09.12.25.29.3.25a.69.69,0,0,1,.76,0c.13.09.24.31.31.32s-.05-.24,0-.23a30.43,30.43,0,0,1-2.18-2.48,7.54,7.54,0,0,1-1-1.36,9.27,9.27,0,0,1-.88-1.66l0,0c-.1-.27-.14-.51-.2-.61a.66.66,0,0,1-.08-.26l-.15,0c0-.09.09-.15.08-.2s-.06-.23-.26-.25-.11-.15-.26-.08a1.21,1.21,0,0,1,.2-.19c0-.07-.22.27-.25.14s.15-.19.26-.26c-.1-.06-.34.27-.38.21s.32-.18.28-.27-.12.06-.16.11c.27-.31.51-.49.06-.39a2.13,2.13,0,0,1,.5-.18h0a1.37,1.37,0,0,0-.29.07,1.14,1.14,0,0,1,.26-.09l-.06,0-.22,0a1.06,1.06,0,0,1,.19-.06l-.2,0a1.23,1.23,0,0,0-.63.22,2.19,2.19,0,0,0-.71,1.42A3.07,3.07,0,0,0,83.52,52.14Z" transform="translate(0 0)"/><path class="cls-1" d="M82.15,51.51s.09,0,.1,0-.14.23-.13.38l.06,0-.14.33c0,.21,0,.43,0,.64,0,0,0,0,0,0a1.07,1.07,0,0,1,0,.34v0s0,0,0,0a.78.78,0,0,1,0,.16,10.41,10.41,0,0,0,.55,1.87,3.59,3.59,0,0,1,.21.38c.07.19.06.42.12.65.21-.08.5.28.67.08,0,.1.13.23.19.19a2.2,2.2,0,0,1,.26-.15.35.35,0,0,0,.11-.08s0,0,0,.07a.69.69,0,0,0-.05.13s0,.09,0,.05,0-.1,0-.1l-.12-.23h0l0,0,.16.31s0,.06,0,0,0,0,0-.12a2,2,0,0,1,.16-.24l.11-.12h0a2.2,2.2,0,0,1-.13-.24,7.93,7.93,0,0,1-.24-1.2,4.89,4.89,0,0,1-.15-1.32A6.61,6.61,0,0,1,84,52V51.9a3.3,3.3,0,0,0,.12-.86l-.08-.38-.15.1a.55.55,0,0,0,.06-.27c0-.27-.17-.18-.35-.14s-.15-.08-.26,0l.08-.2c-.06,0,0,.26-.14.17s0-.17.08-.25-.13.27-.21.23.19-.19.1-.24-.06.06-.07.11c.06-.26,0-.44-.18-.25,0-.08.11-.18.13-.26h0a1,1,0,0,0-.08.14l.06-.14H83.1a.33.33,0,0,0-.06.1l0-.1-.13,0c-.11.09-.25.16-.27.22A8,8,0,0,0,82.15,51.51Z" transform="translate(0 0)"/><path class="cls-1" d="M83.09,51.25s.07,0,0,.09-.23.07-.29.18l0,0c-.09,0-.18.09-.27.15a2.6,2.6,0,0,0-.28.45s0,0,0,0a2.22,2.22,0,0,1-.15.23v.05s0,0,0,0a.36.36,0,0,1-.07.1,4,4,0,0,0,0,1.47,2.22,2.22,0,0,1,.11.3,2.12,2.12,0,0,1-.06.43c.23,0,.33.3.57.25,0,.08,0,.2.05.21a.64.64,0,0,1,.53.3c0,.08-.05.22,0,.25s.14-.11.2-.07c.07-.63,0-1.19.1-1.69a1.29,1.29,0,0,1,.13-.72,1.27,1.27,0,0,1,.46-.58v0a.73.73,0,0,0,.28-.27,2,2,0,0,1,.09-.22l-.1-.09c.06,0,.11,0,.13-.07s0-.22-.07-.36,0-.18-.11-.23l.15,0c0-.07-.17.07-.16,0a.58.58,0,0,0,.19,0c0-.09-.22,0-.23-.08s.2.08.19,0-.06,0-.1,0c.19-.07.32-.17.1-.27.08,0,.18,0,.26,0h0l-.14,0h.14l0,0-.1,0h.09l-.08-.1a.78.78,0,0,0-.31-.14A2.6,2.6,0,0,0,83.09,51.25Z" transform="translate(0 0)"/><path class="cls-1" d="M82.91,50.82s0,.06,0,.09-.24,0-.34.07l0,.06-.31,0a4.59,4.59,0,0,0-.49.26s0,0,0,.06a1,1,0,0,1-.27.11l0,0s0,0,0,0l-.12,0a12.1,12.1,0,0,0-1.2,1.18,2.08,2.08,0,0,1-.21.33c-.13.11-.33.21-.46.3.15.17-.09.5.12.64-.09.06-.21.15-.17.21a.66.66,0,0,1,.06.65c-.06.09-.23.14-.23.19s.19,0,.19.1a20,20,0,0,1,1.8-1.38,6.79,6.79,0,0,1,2.21-1.18l0,0a2,2,0,0,0,.7-.32l.24-.25L84.34,52c.1,0,.2,0,.23-.09.19-.15,0-.23-.08-.37s0-.17-.13-.21l.17,0c0-.06-.2.09-.18,0s.14,0,.21-.06-.25,0-.26-.06.23.07.21,0-.07,0-.11,0c.22-.08.32-.21.09-.28a1.06,1.06,0,0,0,.25,0H84.6l.13,0,0,0h-.11l.09,0a.39.39,0,0,0-.1-.08.9.9,0,0,0-.29-.11A6.56,6.56,0,0,0,82.91,50.82Z" transform="translate(0 0)"/><path class="cls-1" d="M78.59,52.55s.07.05,0,.09-.22,0-.29.11l0,.06-.26.06-.39.3s0,0,0,0a.82.82,0,0,1-.23.12l0,0a.08.08,0,0,0,0,.05l-.11,0c-.35.35-.69.72-1.09,1.09a2.45,2.45,0,0,1-.23.29,2.86,2.86,0,0,1-.48.2c.12.2-.18.47,0,.65-.1,0-.24.1-.23.16a.61.61,0,0,1-.13.65c-.09.07-.29.07-.31.12s.19.07.16.15a15.09,15.09,0,0,0,2.25-1.1c.21-.21,1.86-1.23,2.29-1.48l0,0a2,2,0,0,0,.64-.55c0-.1.1-.22.15-.33h-.18c.09-.06.18-.12.19-.18.13-.21,0-.23-.21-.31s-.08-.15-.2-.15l.14-.1s-.15.16-.17,0,.1-.09.16-.13-.21.12-.26,0,.23,0,.18-.12-.07,0-.1,0c.15-.15.18-.3,0-.29,0,0,.16,0,.21-.11h0l-.12.06.1-.07,0,0L80,52l.07,0-.12,0a1.35,1.35,0,0,0-.29,0C79.3,52.12,78.94,52.33,78.59,52.55Z" transform="translate(0 0)"/><path class="cls-1" d="M75.68,57s0-.08,0-.1.21.12.33.09l0-.07.28.12h.56s0,0,0,0a1,1,0,0,1,.29,0h0s0,0,0-.05l.14,0c.54-.11,1.08-.24,1.67-.39a2.13,2.13,0,0,1,.36-.15,2.82,2.82,0,0,1,.58,0c0-.23.38-.36.29-.59.11,0,.28,0,.28-.06a.64.64,0,0,1,.39-.56c.11,0,.29,0,.33,0s-.15-.13-.09-.19c-.86,0-1.67.07-2.53.06a11.28,11.28,0,0,1-2.77,0h0a2.42,2.42,0,0,0-.85,0l-.35.14.13.13a.48.48,0,0,0-.27,0c-.25.07-.13.2-.06.37s0,.17.05.25l-.19,0c0,.06.24,0,.17.1s-.15,0-.23,0,.26.06.24.15-.2-.15-.23,0,.07,0,.11,0c-.24,0-.38.09-.18.24a.72.72,0,0,0-.25-.07h0l.14,0-.14,0,0,.05.1,0-.09,0,.06.11c.1.09.19.2.24.21A11.1,11.1,0,0,0,75.68,57Z" transform="translate(0 0)"/><path class="cls-1" d="M86.15,56s0-.08.07-.06.21.27.38.35l.05,0c.1.11.19.23.3.34s.45.31.69.46c0,0,0,0,0,0a3.31,3.31,0,0,1,.34.27l.07,0a.09.09,0,0,0,0,0l.15.13c.72.38,1.47.74,2.27,1.15a4.18,4.18,0,0,1,.53.21,7.33,7.33,0,0,1,.68.54c.11-.21.68.08.72-.19.14.11.34.27.39.23a.73.73,0,0,1,.83-.06c.16.09.34.32.41.33s-.1-.25,0-.24c-1-.86-2.12-1.56-3.2-2.37a39.94,39.94,0,0,1-3.55-2.51l-.06,0a5.35,5.35,0,0,0-1.12-.71l-.52-.16.1.22a.84.84,0,0,0-.35-.22c-.35-.14-.25.07-.23.29s-.14.11,0,.27L84.92,54s.31.18.18.22-.2-.13-.29-.2c0,.09.3.27.24.32s-.19-.28-.28-.21.08.09.12.12c-.3-.18-.52-.22-.33.07a3.58,3.58,0,0,0-.29-.26h0s.11.12.15.15l-.16-.12a.13.13,0,0,0,0,.06.52.52,0,0,0,.1.11l-.1-.08a.49.49,0,0,0,0,.15,1.78,1.78,0,0,0,.22.37C85.05,55.17,85.59,55.62,86.15,56Z" transform="translate(0 0)"/><path class="cls-1" d="M115,83.19s-.08,0,0-.11a8.44,8.44,0,0,1,.87-.2v-.07a6.37,6.37,0,0,1,.76,0l.14-.05.08,0c.06,0,.06,0,.08,0h0l.13,0s0,0,0,0,0,.15-.24.4l-2,1.57c-.28.26-.57.51-.86.73s-1,.64-1.47.92c.19.15-.8.92-.56,1-.26.16-.61.38-.81.53q-.06-.11-.09-.09c-.06.09-.17.12-.36,0a3.28,3.28,0,0,1-.36-.43l-.45-.69c-.19-.32-.36-.85-.45-1s.08.48-.06.33l.5,1.07,1,2,5.86-3.81.46-.33.91-.62c.56-.39,1.29-.83,1.87-1.25l.58-.6.3-.3L121,82c.05,0,0,0,0-.07l-.12-.06a16.35,16.35,0,0,0-1.86-.78,6.28,6.28,0,0,0-2.23-.24,8.76,8.76,0,0,0-2.15.44l-.15,0a8.44,8.44,0,0,0-2.48,1.44c-.26.25-.51.51-.75.77a3.37,3.37,0,0,1,.42-.17,3.59,3.59,0,0,0-.65.53c-.53.54-.12.37.2.32s0,.18.34,0l-.46.35c0,.06.54-.47.48-.29s-.36.31-.54.45c.11,0,.65-.47.67-.38s-.58.31-.55.42.19-.12.28-.19c-.53.47-.77.8-.19.48-.18.14-.45.3-.63.47h0l.36-.26-.32.26h.08l.26-.18-.21.17.24-.07a6.15,6.15,0,0,0,.72-.35A14.64,14.64,0,0,1,115,83.19Z" transform="translate(0 0)"/><path class="cls-1" d="M113.21,86.07s-.07,0-.06-.08.2,0,.24-.14l0,0,.24-.08.31-.32s0,0,0-.05a1,1,0,0,1,.19-.13l0,0s0,0,0,0l.09,0c.28-.37.57-.74.91-1.12a1.24,1.24,0,0,1,.2-.29,2.53,2.53,0,0,1,.44-.21c-.13-.19.15-.46,0-.63.09,0,.23-.11.21-.17A.61.61,0,0,1,116,82c.09-.07.27-.06.29-.11s-.18-.07-.15-.15A10,10,0,0,0,114,82.91c-.21.21-1.7,1.37-2.07,1.68l0,0a1.83,1.83,0,0,0-.53.62c0,.11,0,.23-.08.35h.17c-.07.07-.15.14-.15.19-.07.23.1.22.27.27s.11.13.22.11l-.12.12s.12-.17.16-.07-.08.11-.12.16.17-.14.23-.08-.21.06-.14.14.06,0,.08-.05c-.11.17-.1.32.11.27,0,0-.14.07-.18.13h0l.11-.07-.08.08,0,0,.08,0,0,0,.11,0c.12,0,.25,0,.28,0Z" transform="translate(0 0)"/><path class="cls-1" d="M115.35,82.16s.06.06,0,.1-.29,0-.41.13l0,.06-.38.08c-.2.11-.41.22-.6.35,0,0,0,0,0,.06a1.7,1.7,0,0,1-.33.16l0,0s0,0,0,0l-.15.07c-.53.44-1,.92-1.57,1.44a1.94,1.94,0,0,1-.3.38,4.63,4.63,0,0,1-.59.39c.16.17-.19.57,0,.69-.11.08-.28.2-.25.26a.68.68,0,0,1-.07.74c-.09.11-.31.18-.33.24s.24,0,.21.09c.86-.6,1.62-1.26,2.51-1.82a13,13,0,0,1,3-1.71l0,0a3.81,3.81,0,0,0,.92-.49l.31-.32-.2,0a.91.91,0,0,0,.3-.15c.24-.2,0-.25-.12-.36s0-.17-.18-.19l.22-.07c0-.07-.26.13-.24,0a1.28,1.28,0,0,0,.27-.11c-.06-.08-.32.08-.34,0s.3,0,.27-.09-.09,0-.14,0c.27-.13.39-.28.09-.3a1.87,1.87,0,0,0,.32-.08h0l-.18,0,.16-.06,0,0-.13,0,.1,0a.47.47,0,0,0-.12-.07,1.64,1.64,0,0,0-.38-.05A12.26,12.26,0,0,0,115.35,82.16Z" transform="translate(0 0)"/><path class="cls-1" d="M113.4,84s.08,0,.06.09-.26.08-.34.19l0,.06-.31.13c-.16.14-.3.28-.45.43,0,0,0,0,0,0a2.17,2.17,0,0,1-.26.2l0,0a.08.08,0,0,0,0,0l-.12.08a3.86,3.86,0,0,1-.7.8.82.82,0,0,1-.52,0,1,1,0,0,1-.25-.46c-.21.13-.47-.27-.66-.13,0-.13-.07-.33-.13-.33a.61.61,0,0,1-.61-.46c0-.15,0-.39,0-.45s-.13.21-.19.12a4,4,0,0,0,.34,1.81,2.7,2.7,0,0,0,.72,1,2,2,0,0,0,1.33.46h.09a2.87,2.87,0,0,0,1-.37,6.62,6.62,0,0,0,.87-.7c.52-.45,1.08-.91,1.32-1.08l0,0a3,3,0,0,0,.71-.7l.17-.38-.19,0c.1-.08.2-.16.21-.22.15-.25,0-.24-.22-.3s-.09-.15-.23-.13l.17-.13c0-.06-.18.2-.2.08s.12-.13.19-.18c-.08,0-.25.16-.29.09s.26-.06.2-.16-.08,0-.11.06c.18-.19.23-.37,0-.3a1.32,1.32,0,0,0,.25-.16h0a.64.64,0,0,0-.14.08l.12-.09,0,0-.11,0,.08-.06L115,83c-.13,0-.29,0-.34,0C114.24,83.37,113.81,83.67,113.4,84Z" transform="translate(0 0)"/><path class="cls-1" d="M111.67,85.91s0-.07,0-.09.15,0,.19,0l0-.06.17,0,.25-.16s0,0,0,0,.09,0,.14,0l0,0a.43.43,0,0,0,0,0l.07,0c.19-.23.39-.49.61-.75a.6.6,0,0,1,.11-.21.94.94,0,0,1,.28-.1c-.1-.21,0-.4-.09-.59.06,0,.14-.05.12-.12a.69.69,0,0,1,0-.58s.17,0,.17-.06-.13-.09-.13-.16a9.33,9.33,0,0,0-1.24.58,4.91,4.91,0,0,1-1.33.71h0a.72.72,0,0,0-.38.28c0,.07-.06.16-.09.24l.12.07c-.06,0-.12,0-.12.09s0,.22.15.34.06.16.14.2l-.1,0c0,.06.1-.08.12,0s-.07,0-.11.06.14,0,.17.05-.15-.06-.11,0,0,0,.06,0-.11.21,0,.27c0,0-.11,0-.14,0h.08l-.06,0,0,0h0a.6.6,0,0,0,.08.08c.08,0,.17.11.2.1A4,4,0,0,0,111.67,85.91Z" transform="translate(0 0)"/><path class="cls-1" d="M68.63,49.08s0,.14-.12,0a7.65,7.65,0,0,1-.16-1.79l-.06,0a6.65,6.65,0,0,1,.27-1.52,6.58,6.58,0,0,1,1.16-2.58s-.06,0,0-.08a4.79,4.79,0,0,1,1.08-1l.2-.14c.05,0,.05-.08.05-.09a2.7,2.7,0,0,1,.62-.3A7.25,7.25,0,0,1,76,41a14.16,14.16,0,0,1,4.57,1.75c.65.34,1.29.71,1.89,1.1A31.53,31.53,0,0,1,85.11,46c0-.29,2,1.3,1.78.8A14.88,14.88,0,0,0,88.23,48c.25,0,.81.18,2.16,1.48.52.52,1.18,1.44,1.38,1.61s-.51-.82-.2-.55a42.35,42.35,0,0,0-5.73-5.71c-1-.85-2.12-1.66-3.23-2.43A24.9,24.9,0,0,0,79,40.25a14.08,14.08,0,0,0-3.15-.93,8.77,8.77,0,0,0-5.59.88A7.76,7.76,0,0,0,66.76,45a9.29,9.29,0,0,0-.1,4.18l.08.31a9.52,9.52,0,0,0,3.09,4.8,10.6,10.6,0,0,0,1.81,1.18,8.44,8.44,0,0,1-.67-.61,7.33,7.33,0,0,0,1.45.92c1.39.63.67.12.25-.29s.2-.08-.31-.46c.39.24.59.35,1,.56.07,0-1.25-.64-.92-.59a9.43,9.43,0,0,0,1.22.65c-.12-.12-1.36-.77-1.25-.82.21.11,1,.73,1.18.66a6.29,6.29,0,0,0-.58-.33c1.25.62,2,.75.9.17a9.88,9.88,0,0,0,1.37.58h0c-.21-.08-.58-.23-.77-.32.24.11.49.19.73.28l-.11-.09-.54-.23.47.19-.37-.25c-.54-.28-1-.63-1.28-.79A9.67,9.67,0,0,1,68.63,49.08Z" transform="translate(0 0)"/><path class="cls-1" d="M78.91,44.26s0-.1.09-.07.29.34.51.46l.06,0L80,45l.91.63s0-.05,0,0a3.94,3.94,0,0,1,.46.36l.08,0a.06.06,0,0,0,.06,0l.21.18L84.65,48c.24.12.47.23.68.36s.62.53.88.76c.11-.21.84.24.86,0,.18.15.44.38.5.34s.45-.17,1,.15c.2.13.44.44.53.46s-.15-.31,0-.27c-1.34-1.23-2.74-2.28-4.18-3.42-.54-.33-3.89-2.85-4.74-3.52l-.08-.05a10.25,10.25,0,0,0-1.51-1l-.67-.26.17.27a1.79,1.79,0,0,0-.47-.3c-.47-.21-.31.05-.24.28s-.14.12,0,.3l-.32-.23s.41.25.26.27a3.77,3.77,0,0,0-.39-.26c0,.1.42.34.35.4s-.29-.35-.38-.28.11.1.18.15c-.42-.25-.69-.32-.4,0a4.54,4.54,0,0,0-.41-.33h0l.22.19-.22-.16v.07l.16.14-.15-.11c0,.05,0,.11.07.17a2.46,2.46,0,0,0,.34.45Q77.79,43.41,78.91,44.26Z" transform="translate(0 0)"/><path class="cls-1" d="M80.54,44.09s0-.09.08-.06.26.32.46.43l.06,0,.37.41.83.61s0,0,0,0a4.54,4.54,0,0,1,.41.34l.07,0a.06.06,0,0,0,.06,0l.19.17,2.66,1.67a5.07,5.07,0,0,1,.61.34c.27.2.56.51.8.73.12-.21.78.23.82,0,.16.14.4.37.45.33s.45-.17,1,.13c.18.14.38.43.47.46s-.12-.3,0-.26c-1.2-1.2-2.47-2.21-3.77-3.31-.49-.31-3.54-2.74-4.31-3.37l-.07-.05a8.6,8.6,0,0,0-1.39-.95l-.62-.23.15.25a1.47,1.47,0,0,0-.44-.29c-.43-.19-.28.06-.24.29s-.13.11,0,.29l-.28-.23s.38.24.23.27a1.78,1.78,0,0,0-.36-.25c0,.1.38.32.31.38s-.25-.34-.34-.27.1.1.16.15c-.38-.24-.64-.3-.38,0-.12-.08-.25-.24-.38-.31h0l.2.18-.19-.15v.06l.14.14-.13-.11a1.09,1.09,0,0,0,0,.17,2.94,2.94,0,0,0,.3.44C79.18,43,79.86,43.55,80.54,44.09Z" transform="translate(0 0)"/><path class="cls-1" d="M76.29,46.14s0-.08.11,0c.17.21.16.46.34.67l.07,0,.28.58c.24.32.5.63.76.93,0,0,0,0,.06,0a3.8,3.8,0,0,1,.39.49l.08.07a0,0,0,0,0,.06,0l.18.23a29,29,0,0,0,2.8,2.21c.23.13.47.27.67.41s.63.57.9.81c.11-.21.86.27.87,0,.18.16.46.4.51.36s.46-.18,1,.13c.21.14.46.44.55.47s-.16-.31,0-.28c-1.4-1.22-2.82-2.26-4.14-3.52a15.62,15.62,0,0,1-2-1.91A14.54,14.54,0,0,1,78,45.26l0-.08c-.29-.5-.61-1.1-.89-1.5-.14-.18-.27-.33-.39-.5l0,.28A2.08,2.08,0,0,0,76.5,43c-.13-.37-.23-.18-.37,0s-.18,0-.2.22a2,2,0,0,1-.05-.42c-.09,0,.1.51,0,.41a4,4,0,0,1-.07-.53c-.11.07,0,.62-.05.61s0-.52-.06-.55,0,.18,0,.28c0-.29,0-.54-.08-.65s-.1-.06-.19.26a2.19,2.19,0,0,1,.25-.76h0a1.65,1.65,0,0,0-.18.41,1.49,1.49,0,0,1,.15-.4l-.07,0a1.09,1.09,0,0,0-.14.31,1.33,1.33,0,0,1,.1-.28.76.76,0,0,0-.18.21,1.84,1.84,0,0,0-.24.85,5,5,0,0,0,.51,1.7A12.74,12.74,0,0,0,76.29,46.14Z" transform="translate(0 0)"/><path class="cls-1" d="M69.08,49.8s0-.09.1,0c.18.25.19.52.38.75h.07c.1.2.2.42.33.63a8.4,8.4,0,0,0,.88,1s0,0,0,0,.29.31.47.5l.08.07a.08.08,0,0,0,.07,0l.21.23A30.4,30.4,0,0,0,74.91,55c.26.12.52.23.76.36s.73.54,1.06.75c.07-.22.93.18.89-.12.22.14.54.35.59.3s.43-.23,1.07,0c.24.1.56.36.66.37s-.24-.28-.08-.27a39.93,39.93,0,0,1-4.79-3.1,16.65,16.65,0,0,1-2.28-1.84A9.43,9.43,0,0,1,70.85,49l0-.08c-.27-.51-.52-1.15-.71-1.59-.1-.21-.2-.42-.29-.63l-.07.3a2.88,2.88,0,0,0-.1-.56c-.11-.49-.22-.22-.37,0s-.18-.05-.23.2a3.23,3.23,0,0,1,0-.44c-.07,0,.06.54-.06.42a4.71,4.71,0,0,0,0-.53c-.09.06,0,.61-.09.59s.09-.51,0-.54,0,.18,0,.27c0-.56-.11-.89-.26-.36,0-.19.07-.45.08-.64h0a2.14,2.14,0,0,0-.06.35l0-.33,0,.05a2.21,2.21,0,0,0,0,.25l0-.22a1.4,1.4,0,0,0-.12.18,3,3,0,0,0-.19.68A7.38,7.38,0,0,0,69.08,49.8Z" transform="translate(0 0)"/><path class="cls-1" d="M68,49.86s0-.08.1,0c.16.26.15.53.33.77h.07c.08.21.19.43.3.65a8,8,0,0,0,.86,1s0,0,.06,0,.29.3.46.48l.09.06a.08.08,0,0,0,.07,0l.21.22a18.55,18.55,0,0,0,3.22,1.82c.26.08.53.16.77.26s.77.41,1.11.58c0-.23.91,0,.84-.27.22.1.56.24.6.18s.37-.3,1-.22c.24.05.57.23.67.22s-.27-.22-.12-.25a19.72,19.72,0,0,1-4.83-2.21,11.63,11.63,0,0,1-2.24-1.59,6.4,6.4,0,0,1-1.74-2.29l0-.08a8.74,8.74,0,0,1-.43-1.49,5.43,5.43,0,0,1-.16-.61l-.14.25a2.77,2.77,0,0,0,0-.51c0-.47-.16-.26-.36-.1s-.16-.09-.27.13c0-.17.06-.25.1-.41s-.08.51-.16.38.06-.35.11-.52c-.11,0-.18.58-.25.54s.22-.46.13-.52-.07.16-.09.25c.1-.54.15-.88-.15-.42.06-.18.2-.4.28-.58h0c0,.08-.14.23-.17.31,0-.1.1-.2.14-.3l-.06,0a1,1,0,0,0-.13.23l.09-.21a1.77,1.77,0,0,0-.17.14,2.22,2.22,0,0,0-.38.61A5.39,5.39,0,0,0,68,49.86Z" transform="translate(0 0)"/><path class="cls-1" d="M68.08,46.69s.06-.08.11,0a7,7,0,0,0,.32.84h.07c.09.23.19.46.3.7a9.21,9.21,0,0,0,.87,1.07s0,0,.06,0,.28.34.46.54l.09.07a0,0,0,0,0,.06,0l.21.24a29.21,29.21,0,0,0,3.19,2.28c.26.13.53.25.77.4s.74.56,1.07.79c.08-.22,1,.21.91-.09.22.14.55.35.6.31s.44-.22,1.09,0c.25.11.57.37.67.38s-.24-.28-.08-.27A34.47,34.47,0,0,1,74,50.67a17.07,17.07,0,0,1-2.27-2,7.51,7.51,0,0,1-1.8-2.58l0-.09a9.12,9.12,0,0,1-.39-1.63,4.41,4.41,0,0,1-.11-.65l-.16.26a3.53,3.53,0,0,0,.09-.55c0-.46-.13-.29-.35-.13s-.15-.1-.29.12a3.81,3.81,0,0,1,.15-.44c-.07,0-.14.55-.2.4s.08-.36.18-.55c-.14,0-.26.62-.32.57s.26-.47.19-.56-.11.18-.13.27a3.22,3.22,0,0,1,.25-.68c0-.1-.06-.13-.32.17a1.31,1.31,0,0,1,.71-.56h0a.94.94,0,0,0-.45.24.88.88,0,0,1,.41-.25h-.11a1,1,0,0,0-.33.19,1.26,1.26,0,0,1,.28-.19,1,1,0,0,0-.31.08,1.79,1.79,0,0,0-.67.77A5.42,5.42,0,0,0,68.08,46.69Z" transform="translate(0 0)"/><path class="cls-1" d="M70,47.88s.05-.09.11,0c.16.28.15.58.34.85h.06c.1.23.19.48.3.73a10.38,10.38,0,0,0,.87,1.19s0,0,.06,0,.29.38.47.61l.1.09a.06.06,0,0,0,.07,0l.22.28A17.81,17.81,0,0,0,76.14,54c.3.12.59.24.87.37s.86.52,1.24.73c0-.23,1,.16,1-.15.25.14.63.33.68.28s.44-.25,1.17,0c.27.1.65.36.76.37s-.29-.28-.11-.27a38.76,38.76,0,0,1-5.57-3.07,11.66,11.66,0,0,1-2.44-2,10.15,10.15,0,0,1-1.89-2.94l0-.11c-.25-.6-.48-1.35-.65-1.88-.09-.24-.2-.49-.27-.75l-.09.35a2.64,2.64,0,0,0-.08-.64c-.1-.58-.21-.26-.37,0s-.18-.06-.23.21a3.85,3.85,0,0,1,0-.48c-.07,0,0,.6-.06.47s0-.4,0-.6c-.09.07,0,.68-.11.66s.11-.56,0-.6,0,.19,0,.29c0-.61-.1-1-.25-.4,0-.2.08-.48.07-.69h0l0,.39,0-.36,0,0a2.33,2.33,0,0,0,0,.28l0-.24-.11.19a3.57,3.57,0,0,0-.2.73A9.42,9.42,0,0,0,70,47.88Z" transform="translate(0 0)"/><path class="cls-1" d="M71.35,48.2s0-.1.11,0c.24.25.31.55.56.78l.07,0,.48.67c.37.36.74.71,1.13,1,0,0,0,0,.06,0s.37.33.6.54l.1.07s.06,0,.07,0l.28.25a38,38,0,0,0,3.89,2.3c.32.13.63.25.92.4s.92.57,1.33.8c0-.23,1.09.2,1-.11.26.15.67.36.72.31s.46-.23,1.23,0c.29.11.7.38.82.39s-.32-.29-.13-.28a45.6,45.6,0,0,1-6-3.33,23.16,23.16,0,0,1-2.88-2.05A15.44,15.44,0,0,1,73,47.15l-.08-.09c-.43-.58-.9-1.29-1.22-1.79-.16-.23-.34-.46-.49-.7,0,.14,0,.26,0,.38a3.67,3.67,0,0,0-.27-.64c-.26-.57-.28-.21-.36.08s-.19,0-.16.28c-.07-.19-.09-.29-.15-.5-.07,0,.22.61.08.5s-.14-.4-.19-.61c-.08.1.16.71.08.71s-.06-.6-.17-.61,0,.2,0,.3c-.21-.61-.37-1-.36-.34,0-.21,0-.52-.11-.73h0l.06.41-.07-.38,0,.07a1.53,1.53,0,0,0,0,.3l0-.26q0,.11-.06.24a3.91,3.91,0,0,0,0,.8A10.3,10.3,0,0,0,71.35,48.2Z" transform="translate(0 0)"/><path class="cls-1" d="M73,48.38s0-.1.1,0c.28.22.4.51.69.73l.06,0,.58.64c.41.35.83.68,1.26,1,0,0,0,0,.06,0s.41.34.66.54l.12.07s.06,0,.07,0l.3.25c1.33.83,2.71,1.58,4.23,2.35.33.14.67.27,1,.43s1,.61,1.41.86c0-.23,1.15.27,1.06,0,.28.17.7.42.76.37s.49-.2,1.31.12c.31.15.73.47.86.5s-.32-.34-.13-.3C85.2,54.48,83,53.35,80.92,52a30.84,30.84,0,0,1-3.2-2.1,27.67,27.67,0,0,1-3.24-2.77l-.1-.09-1.72-1.7c-.22-.2-.45-.4-.65-.61l.11.37a5.69,5.69,0,0,0-.41-.6c-.36-.53-.32-.17-.34.14s-.19,0-.1.33a4.81,4.81,0,0,1-.25-.51c-.08,0,.34.61.18.52s-.23-.41-.32-.62c-.06.11.32.73.23.74s-.19-.63-.3-.63a1.34,1.34,0,0,0,.12.32c-.34-.63-.54-1-.43-.33-.08-.22-.14-.56-.21-.81h0a3.12,3.12,0,0,0,.09.46c0-.14-.08-.28-.11-.42l0,.08a1.91,1.91,0,0,0,.06.33,2.29,2.29,0,0,1-.07-.28,1.93,1.93,0,0,0,0,.27,3.34,3.34,0,0,0,.17.9A12,12,0,0,0,73,48.38Z" transform="translate(0 0)"/><path class="cls-1" d="M74.89,47.35s0-.11.1,0c.26.21.37.49.63.69l.06,0,.52.63c.38.34.76.68,1.15,1,0,0,0,0,.06,0s.36.34.58.55l.11.08a.08.08,0,0,0,.07,0l.27.25c1.19.87,2.44,1.71,3.8,2.58a8.61,8.61,0,0,1,.9.49c.4.27.88.67,1.25,1,.08-.23,1.09.34,1,0,.25.19.64.46.7.42s.49-.17,1.24.19c.29.15.66.49.77.52s-.27-.34-.09-.3c-2-1.36-3.89-2.64-5.77-4.14a31.29,31.29,0,0,1-2.88-2.27c-1.27-1.08-2.52-2.3-3-2.81L76.28,46a21.35,21.35,0,0,0-1.73-1.63l-.76-.55.18.36a3.46,3.46,0,0,0-.53-.52c-.52-.43-.35-.07-.29.23s-.18.07,0,.33l-.35-.4c-.06,0,.46.46.28.42s-.29-.3-.43-.46c0,.11.46.56.38.59s-.31-.51-.42-.47.12.17.18.25c-.45-.46-.77-.66-.46-.14-.14-.15-.3-.4-.46-.55h0l.25.31-.24-.28v.08l.17.23-.16-.19a1.87,1.87,0,0,0,.07.22,4.25,4.25,0,0,0,.36.67C73.12,45.48,74,46.44,74.89,47.35Z" transform="translate(0 0)"/><path class="cls-1" d="M76.1,45.52s0-.1.08-.07c.3.11.46.35.76.46l0,0,.62.44,1.27.67s0,0,.05,0a6.84,6.84,0,0,1,.64.4l.12,0a.06.06,0,0,0,.06,0l.29.2c1.25.63,2.52,1.29,3.86,2.09a8.84,8.84,0,0,1,.86.46c.39.26.83.67,1.18,1,.09-.23,1,.4,1,.08.23.19.57.5.64.47s.51-.12,1.2.34c.26.19.57.59.68.63s-.21-.38,0-.3a46.2,46.2,0,0,0-5.57-4.47c-.37-.2-1.7-1.09-3.13-1.94s-3-1.68-3.6-2L77,43.81a15.47,15.47,0,0,0-2.18-1l-.91-.2.3.26a3.28,3.28,0,0,0-.68-.27c-.65-.17-.35.08-.18.33s-.13.13.1.31L73,43.07c-.05,0,.59.21.42.26a3.69,3.69,0,0,0-.58-.23c0,.1.64.3.57.37s-.47-.33-.55-.25.17.1.26.14c-.59-.21-.94-.25-.47.08-.18-.08-.42-.23-.61-.29h0l.34.17-.33-.14,0,.06.24.13-.22-.09.15.17a5,5,0,0,0,.57.43C73.94,44.41,75,45,76.1,45.52Z" transform="translate(0 0)"/><path class="cls-1" d="M78.58,45.06s0-.1.08-.07c.25.1.35.33.59.44l0,0,.47.42,1,.63s0,0,0,0a5.12,5.12,0,0,1,.5.38l.09.05a.11.11,0,0,0,.06,0l.22.18c1,.59,2,1.21,3,1.94a6.71,6.71,0,0,1,.69.43,12.46,12.46,0,0,1,.9.88c.12-.21.85.36.89.07.17.18.43.46.49.43s.49-.12,1,.31c.2.18.42.53.51.58s-.13-.35,0-.28A35.31,35.31,0,0,0,85,47.24c-.29-.18-1.32-1-2.45-1.81s-2.33-1.61-2.82-1.94l-.09-.06a9.87,9.87,0,0,0-1.74-.93l-.75-.21.22.26a2.18,2.18,0,0,0-.54-.27c-.53-.17-.31.08-.2.32s-.13.12,0,.3l-.37-.21c0,.05.48.21.32.25a3.74,3.74,0,0,0-.45-.22c0,.1.49.3.43.36s-.36-.32-.44-.24.13.09.2.13c-.47-.21-.77-.24-.41.08a3.82,3.82,0,0,0-.48-.29h0l.26.17-.25-.14,0,.06.19.13-.17-.1a.75.75,0,0,0,.1.17,3.26,3.26,0,0,0,.42.42Z" transform="translate(0 0)"/><path class="cls-1" d="M76.47,45.36s0-.08.1,0,.2.4.38.56l.06,0,.31.51c.25.27.5.55.76.8,0,0,0,0,.06,0s.24.28.38.44l.07.06a.08.08,0,0,0,.07,0l.17.21c.83.69,1.71,1.34,2.68,2a6.55,6.55,0,0,1,.65.37c.29.21.61.52.87.75.1-.21.82.21.83-.08.18.15.44.35.5.31s.43-.2,1,0c.21.11.45.38.54.39s-.17-.28,0-.26c-1.35-1-2.68-2-3.94-3.15A16.57,16.57,0,0,1,80,46.47a26.39,26.39,0,0,1-1.92-2.21l0-.08a12.13,12.13,0,0,0-1.1-1.29l-.53-.43.07.29a1.89,1.89,0,0,0-.33-.42c-.35-.34-.29,0-.32.19s-.17.06-.11.28l-.2-.32c-.07,0,.28.37.14.34s-.19-.25-.27-.38c0,.1.26.46.18.49s-.14-.42-.25-.39.06.14.11.2c-.29-.37-.52-.53-.38-.1-.08-.13-.16-.33-.26-.46h0l.13.25-.14-.23v.07a.76.76,0,0,0,.09.18l-.1-.15v.18a3.36,3.36,0,0,0,.15.55A23.19,23.19,0,0,0,76.47,45.36Z" transform="translate(0 0)"/><path class="cls-1" d="M78,45.08s0-.08.07-.07.11.2.23.24l0,0,.17.25.45.28s0,0,0,0a1.09,1.09,0,0,1,.22.18l0,0a.09.09,0,0,0,0,0l.09.09,1.54.63a1.91,1.91,0,0,1,.38.1,2.93,2.93,0,0,1,.43.36c.12-.2.52,0,.6-.27.09.07.22.18.27.13a.66.66,0,0,1,.67-.17c.11.05.2.22.26.22s0-.2,0-.21c-.65-.58-1.38-1-2.08-1.56a17.56,17.56,0,0,1-2.33-1.63l0,0a2.67,2.67,0,0,0-.75-.45L78,43c0,.06,0,.12,0,.18s-.18-.15-.24-.14c-.25-.06-.2.12-.22.3s-.12.13-.08.25l-.14-.12s.2.11.1.16-.13-.07-.19-.12.19.18.13.25-.1-.23-.18-.15,0,.07.08.09c-.21-.11-.37-.1-.27.12,0-.05-.11-.15-.18-.18h0a1.09,1.09,0,0,0,.1.11l-.1-.08v.05l.06.08-.06-.06a.29.29,0,0,0,0,.13,1.28,1.28,0,0,0,.1.3C77.32,44.5,77.66,44.8,78,45.08Z" transform="translate(0 0)"/><path class="cls-1" d="M75.43,40.44s0,.08,0,.1c-.23,0-.42-.09-.65,0v.07l-.56,0a7.07,7.07,0,0,0-1,.2s0,0,0,.06a4.23,4.23,0,0,1-.54.11l-.08,0a.07.07,0,0,0,0,.06l-.24,0a7.89,7.89,0,0,0-1.41.79,1.84,1.84,0,0,0-.63.84,2.23,2.23,0,0,0-.13.94c0,.26.12.49.17.7s.1.72.17,1c.21-.09.52.58.71.36,0,.19.14.47.21.45s.46,0,.76.41c.11.16.18.45.24.49s0-.28.11-.22A10.88,10.88,0,0,1,71.76,45a2.91,2.91,0,0,1-.13-1.56c0-.06,0-.09.14-.22A7,7,0,0,1,73,42.7a7.45,7.45,0,0,1,2.37-.32h.07c.46,0,1,0,1.4,0l.56-.08-.2-.16a1.21,1.21,0,0,0,.44.07c.42,0,.23-.16.11-.36s.08-.16-.08-.27l.32.09c0-.06-.4-.07-.29-.15a1.79,1.79,0,0,0,.4.09c0-.09-.44-.15-.4-.22s.34.21.39.11-.12-.06-.19-.08c.42.07.68.06.34-.18.13,0,.3.15.44.18h0l-.24-.1.23.08,0-.06-.17-.08.16,0-.11-.13a1.78,1.78,0,0,0-.43-.31A9.27,9.27,0,0,0,75.43,40.44Z" transform="translate(0 0)"/><path class="cls-1" d="M72,45.41s0-.08.09,0,.19.34.37.46l0,0,.28.42.69.64s0-.05.06,0a4.15,4.15,0,0,1,.33.36l.07,0a.06.06,0,0,0,.06,0l.15.17,2.29,1.73a5.55,5.55,0,0,1,.54.34c.23.2.47.51.67.72.13-.19.71.24.78,0,.13.15.33.36.39.33s.43-.16.88.12c.16.13.32.41.4.43s-.09-.28,0-.25c-1-1.13-2.08-2.11-3.14-3.19-.44-.3-2.92-2.77-3.51-3.44l-.06,0a6.52,6.52,0,0,0-1.12-1l-.53-.29.09.26a1.51,1.51,0,0,0-.35-.32c-.37-.23-.29,0-.29.24s-.15.09-.08.27L70.94,43c-.06,0,.3.27.16.27a2.4,2.4,0,0,0-.28-.27c0,.09.29.34.21.39s-.17-.34-.27-.29.07.11.12.16c-.31-.27-.54-.36-.37,0a3.17,3.17,0,0,0-.28-.34h0l.15.19L70.22,43v0l.1.15L70.21,43c0,.05,0,.1,0,.16a2.17,2.17,0,0,0,.19.44C70.94,44.25,71.47,44.84,72,45.41Z" transform="translate(0 0)"/><path class="cls-1" d="M73.61,42.94s0-.09,0-.09.24.2.4.22l0-.06.32.23.69.27s0,0,0,0a2.94,2.94,0,0,1,.34.18l.06,0,0,0a1,1,0,0,1,.15.11,12.89,12.89,0,0,1,2.12.94,3.68,3.68,0,0,1,.49.23,5.12,5.12,0,0,1,.56.58c.14-.19.64.18.73-.07.11.13.27.33.33.3s.43-.15.81.16c.14.13.24.4.31.43s0-.27.08-.22a11.75,11.75,0,0,0-2.87-2.93c-.22-.11-1-.63-1.83-1.06a22.53,22.53,0,0,0-2.14-1l-.08,0a4.39,4.39,0,0,0-1.33-.3l-.54.08.19.15a1,1,0,0,0-.41,0c-.38,0-.19.19-.09.36s-.06.17.08.27l-.27-.06c0,.06.34,0,.24.12s-.22,0-.33,0,.37.1.34.18-.28-.16-.32-.06.1,0,.15.05c-.34,0-.53.06-.25.22a2,2,0,0,0-.35-.09h0l.19.06-.18,0,0,0a.29.29,0,0,0,.13.05l-.12,0,.09.12c.13.09.25.21.33.22C72.43,42.55,73,42.73,73.61,42.94Z" transform="translate(0 0)"/><path class="cls-1" d="M70.8,42.33s.09,0,0,.1-.43.2-.58.42l0,0a3.57,3.57,0,0,0-.44.43,3,3,0,0,0-.37,1s0,0,0,0-.07.34-.1.54V45a.05.05,0,0,0,0,0l0,.25a4.17,4.17,0,0,0,1.3,2.49c.17.12.33.22.47.34s.42.45.61.63c.12-.2.66.11.71-.16.13.11.32.27.37.22a.72.72,0,0,1,.79-.09c.16.08.33.3.4.3s-.11-.24,0-.24a8.69,8.69,0,0,1-2.44-2.27,2,2,0,0,1-.43-1.34A1.39,1.39,0,0,1,71.82,44l0,0c.21-.13.6-.29.91-.47l.41-.32-.23,0a.89.89,0,0,0,.37-.14c.31-.2.08-.25-.09-.36s0-.18-.19-.2l.27-.07c0-.07-.32.13-.28,0a1.21,1.21,0,0,0,.32-.11c-.06-.07-.37.08-.38,0s.33,0,.32-.09-.11,0-.16,0c.31-.13.46-.29.13-.31a2.74,2.74,0,0,0,.37-.08h0l-.21,0,.19-.05,0,0-.15,0,.13,0-.14-.07a1.49,1.49,0,0,0-.42,0c-.33.07-.64.14-1,.24A4.07,4.07,0,0,0,70.8,42.33Z" transform="translate(0 0)"/></svg>