<svg id="Layer_1" data-name="Layer 1" xmlns="http://www.w3.org/2000/svg" viewBox="0 0 891.75 78.08"><defs><style>.cls-1{fill:#ed1c24;}</style></defs><title>TRTB</title><path class="cls-1" d="M31.59,76.76H11.23V19.43H0V1.37H43.26V19.43H31.59Z" transform="translate(0 0)"/><path class="cls-1" d="M99,76.76H78.61V46.44H68.9V76.76H48.54V1.37H68.9V28h9.71V1.37H99Z" transform="translate(0 0)"/><path class="cls-1" d="M109.52,76.76V1.37h37.84V19.09H129.88v11h15.68v17H129.88V58.64h17.48V76.76Z" transform="translate(0 0)"/><path class="cls-1" d="M239.75,76.76h-22L207.67,49.9a18.1,18.1,0,0,0-.52-1.8c-.24-.75-.54-1.65-.9-2.69l.15,5V76.76H186.13V1.37H207q13.77,0,20.61,5.42,8.68,6.93,8.69,19.72,0,13.68-11.67,18.9ZM206.49,36.28h1.37a7.45,7.45,0,0,0,5.86-2.69,10,10,0,0,0,2.34-6.83q0-8.45-8.83-8.45h-.74Z" transform="translate(0 0)"/><path class="cls-1" d="M246.48,76.76V1.37h37.85V19.09H266.85v11h15.67v17H266.85V58.64h17.48V76.76Z" transform="translate(0 0)"/><path class="cls-1" d="M291.41,74.9V51.22q6,8.2,13,8.2a6.46,6.46,0,0,0,4.3-1.39,4.36,4.36,0,0,0,1.66-3.49q0-3-3.61-5.91L303.42,46a45.75,45.75,0,0,1-5.67-4.95A25.27,25.27,0,0,1,294,36a21.16,21.16,0,0,1-2.15-5.39,24.31,24.31,0,0,1-.69-5.86,27.81,27.81,0,0,1,5.28-15.95A21.46,21.46,0,0,1,314,0a31.4,31.4,0,0,1,14.65,3.86v23A21.57,21.57,0,0,0,323,20.83a10.86,10.86,0,0,0-6.25-2.23A5.56,5.56,0,0,0,312.89,20a4,4,0,0,0-1.56,3.17q0,3,4.15,6l3.22,2.39q6.45,4.65,9.23,9.52a22.38,22.38,0,0,1,2.83,11.43q0,11.13-6.79,18.36a22.54,22.54,0,0,1-17.18,7.23A42.67,42.67,0,0,1,291.41,74.9Z" transform="translate(0 0)"/><path class="cls-1" d="M366,76.76H345.65V19.43H334.42V1.37h43.27V19.43H366Z" transform="translate(0 0)"/><path class="cls-1" d="M433.4,76.76H413V1.37H433.4Z" transform="translate(0 0)"/><path class="cls-1" d="M442.33,74.9V51.22q6,8.2,13,8.2a6.46,6.46,0,0,0,4.3-1.39,4.36,4.36,0,0,0,1.66-3.49c0-2-1.21-4-3.61-5.91L454.35,46a45,45,0,0,1-5.67-4.95A25.72,25.72,0,0,1,444.87,36a21.91,21.91,0,0,1-2.15-5.39,24.82,24.82,0,0,1-.68-5.86,28.22,28.22,0,0,1,2.44-11,28.88,28.88,0,0,1,2.83-4.91A21.53,21.53,0,0,1,464.94,0a31.43,31.43,0,0,1,14.65,3.86v23a21.57,21.57,0,0,0-5.66-6.07,10.86,10.86,0,0,0-6.25-2.23A5.54,5.54,0,0,0,463.82,20a4,4,0,0,0-1.56,3.17q0,3,4.15,6l3.22,2.39q6.45,4.65,9.23,9.52a22.38,22.38,0,0,1,2.83,11.43q0,11.13-6.79,18.36a22.55,22.55,0,0,1-17.19,7.23A42.71,42.71,0,0,1,442.33,74.9Z" transform="translate(0 0)"/><path class="cls-1" d="M546,76.76H525.68V19.43H514.45V1.37h43.26V19.43H546Z" transform="translate(0 0)"/><path class="cls-1" d="M613.43,76.76H593.07V46.44h-9.72V76.76H563V1.37h20.36V28h9.72V1.37h20.36Z" transform="translate(0 0)"/><path class="cls-1" d="M624,76.76V1.37h37.85V19.09H644.34v11H660v17H644.34V58.64h17.48V76.76Z" transform="translate(0 0)"/><path class="cls-1" d="M700.59,76.76V1.37h23.68q13.28,0,19.68,5.86a20.21,20.21,0,0,1,6.49,15.52q0,14.16-14.06,15.34,8,1.17,11.74,5.27t3.74,11.82q0,9.7-6.3,15.62t-16.46,6ZM721,30.66h1.36A9,9,0,0,0,728.1,29a5.76,5.76,0,0,0,2.12-4.78q0-6.54-7.17-6.54l-.86,0-1.24.07Zm0,29.74,1,.07.74,0a8.87,8.87,0,0,0,6.07-2,6.8,6.8,0,0,0,2.27-5.38,6.49,6.49,0,0,0-2.27-5.27,9.36,9.36,0,0,0-6.22-1.9H721Z" transform="translate(0 0)"/><path class="cls-1" d="M760.55,76.76V1.37h37.84V19.09H780.91v11h15.67v17H780.91V58.64h17.48V76.76Z" transform="translate(0 0)"/><path class="cls-1" d="M805.47,74.9V51.22q6,8.2,13,8.2A6.43,6.43,0,0,0,822.75,58a4.36,4.36,0,0,0,1.66-3.49q0-3-3.61-5.91L817.48,46a45.61,45.61,0,0,1-5.66-4.95A25,25,0,0,1,808,36a21.16,21.16,0,0,1-2.15-5.39,24.31,24.31,0,0,1-.68-5.86,27.94,27.94,0,0,1,5.27-15.95A21.46,21.46,0,0,1,828.08,0a31.36,31.36,0,0,1,14.64,3.86v23a21.43,21.43,0,0,0-5.66-6.07,10.86,10.86,0,0,0-6.25-2.23A5.56,5.56,0,0,0,827,20a4,4,0,0,0-1.56,3.17q0,3,4.15,6l3.22,2.39q6.45,4.65,9.23,9.52a22.38,22.38,0,0,1,2.83,11.43q0,11.13-6.78,18.36a22.58,22.58,0,0,1-17.19,7.23A42.67,42.67,0,0,1,805.47,74.9Z" transform="translate(0 0)"/><path class="cls-1" d="M880.08,76.76H859.72V19.43H848.49V1.37h43.26V19.43H880.08Z" transform="translate(0 0)"/></svg>