<?xml version="1.0" encoding="utf-8"?>
<!-- Generator: Adobe Illustrator 22.0.1, SVG Export Plug-In . SVG Version: 6.00 Build 0)  -->
<svg version="1.1" id="Layer_1" xmlns="http://www.w3.org/2000/svg" xmlns:xlink="http://www.w3.org/1999/xlink" x="0px" y="0px"
	 viewBox="0 0 14.2 14.2" style="enable-background:new 0 0 14.2 14.2;" xml:space="preserve">
<path d="M10.8,13.1L1.4,3.7c-0.6-0.5-0.7-1.4-0.2-2s1.4-0.7,2-0.2c0.1,0.1,0.1,0.1,0.2,0.2l9.4,9.4c0.6,0.5,0.7,1.4,0.2,2
	c-0.5,0.6-1.4,0.7-2,0.2C10.9,13.2,10.8,13.2,10.8,13.1z"/>
<path d="M1.4,11.1l9.4-9.4c0.5-0.6,1.4-0.7,2-0.2c0.6,0.5,0.7,1.4,0.2,2c-0.1,0.1-0.1,0.1-0.2,0.2l-9.4,9.4c-0.5,0.6-1.4,0.7-2,0.2
	c-0.6-0.5-0.7-1.4-0.2-2C1.3,11.2,1.3,11.2,1.4,11.1z"/>
</svg>
